<?xml version="1.0" encoding="utf-8"?><!DOCTYPE svg PUBLIC "-//W3C//DTD SVG 1.1//EN" "http://www.w3.org/Graphics/SVG/1.1/DTD/svg11.dtd"><svg version="1.1" baseProfile="full" xmlns="http://www.w3.org/2000/svg" xmlns:xlink="http://www.w3.org/1999/xlink" xmlns:ev="http://www.w3.org/2001/xml-events"   height="20px"   width="54px" ><defs><filter filterUnits="userSpaceOnUse" id="Filter_0" x="398px" y="320px" width="56px" height="23px"  >  <feOffset in="SourceAlpha" dx="1.5px" dy="2.598px" />  <feGaussianBlur result="blurOut" stdDeviation="0" />  <feFlood flood-color="rgb( 0, 0, 0 )" result="floodOut" />  <feComposite operator="atop" in="floodOut" in2="blurOut" />  <feComponentTransfer><feFuncA type="linear" slope="0.1"/></feComponentTransfer>  <feMerge>    <feMergeNode/>    <feMergeNode in="SourceGraphic"/>  </feMerge></filter></defs><g filter="url(#Filter_0)"><path fill="rgb( 0, 155, 242 )" d="M2,0 C2,0 52,0 52,0 C53.105,0 54,0.89499999999998 54,2 C54,2 54,18 54,18 C54,19.105 53.105,20 52,20 C52,20 2,20 2,20 C0.89499999999998,20 0,19.105 0,18 C0,18 0,2 0,2 C0,0.89499999999998 0.89499999999998,0 2,0 Z "/></g><path fill="rgb( 255, 255, 255 )" d="M37.595,14.902 C37.223,15.837 36.479,16.329 35.628,16.329 C34.944,16.329 34.453,15.957 34.453,15.957 C34.453,15.957 34.86,15.07 34.86,15.07 C34.86,15.07 35.196,15.322 35.568,15.322 C36.036,15.322 36.431,14.986 36.659,14.434 C36.659,14.434 36.959,13.739 36.959,13.739 C36.959,13.739 34.417,7.74200000000002 34.417,7.74200000000002 C34.417,7.74200000000002 35.724,7.74200000000002 35.724,7.74200000000002 C35.724,7.74200000000002 37.247,11.712 37.247,11.712 C37.367,12.024 37.475,12.443 37.475,12.443 C37.475,12.443 37.499,12.443 37.499,12.443 C37.499,12.443 37.595,12.036 37.703,11.724 C37.703,11.724 39.178,7.74200000000002 39.178,7.74200000000002 C39.178,7.74200000000002 40.437,7.74200000000002 40.437,7.74200000000002 C40.437,7.74200000000002 37.595,14.902 37.595,14.902 ZM30.826,13.954 C29.495,13.954 28.967,12.959 28.967,12.959 C28.967,12.959 28.943,12.959 28.943,12.959 C28.943,12.959 28.967,13.175 28.967,13.487 C28.967,13.487 28.967,16.209 28.967,16.209 C28.967,16.209 27.804,16.209 27.804,16.209 C27.804,16.209 27.804,7.74200000000002 27.804,7.74200000000002 C27.804,7.74200000000002 28.872,7.74200000000002 28.872,7.74200000000002 C28.872,7.74200000000002 28.872,8.25799999999998 28.872,8.25799999999998 C28.872,8.49700000000001 28.848,8.70100000000002 28.848,8.70100000000002 C28.848,8.70100000000002 28.872,8.70100000000002 28.872,8.70100000000002 C28.872,8.70100000000002 29.387,7.59800000000001 30.91,7.59800000000001 C32.541,7.59800000000001 33.573,8.89299999999997 33.573,10.776 C33.573,12.707 32.41,13.954 30.826,13.954 ZM30.683,8.61700000000002 C29.771,8.61700000000002 28.931,9.25299999999999 28.931,10.8 C28.931,11.88 29.531,12.959 30.647,12.959 C31.606,12.959 32.398,12.167 32.398,10.788 C32.398,9.46899999999999 31.69,8.61700000000002 30.683,8.61700000000002 ZM22.847,13.954 C21.036,13.954 19.572,12.611 19.572,10.764 C19.572,8.92899999999997 21.036,7.59800000000001 22.847,7.59800000000001 C24.658,7.59800000000001 26.121,8.92899999999997 26.121,10.764 C26.121,12.611 24.658,13.954 22.847,13.954 ZM22.847,8.60500000000002 C21.707,8.60500000000002 20.76,9.505 20.76,10.764 C20.76,12.036 21.707,12.947 22.847,12.947 C23.998,12.947 24.933,12.036 24.933,10.764 C24.933,9.505 23.998,8.60500000000002 22.847,8.60500000000002 ZM15.082,12.863 C16.677,12.863 17.696,11.76 17.696,11.76 C17.696,11.76 18.332,12.611 18.332,12.611 C18.332,12.611 17.169,13.954 15.046,13.954 C12.503,13.954 10.716,12.012 10.716,9.529 C10.716,7.06999999999999 12.563,5.19900000000001 15.022,5.19900000000001 C17.061,5.19900000000001 18.104,6.315 18.104,6.315 C18.104,6.315 17.517,7.202 17.517,7.202 C17.517,7.202 16.533,6.279 15.07,6.279 C13.175,6.279 11.94,7.71800000000002 11.94,9.517 C11.94,11.328 13.199,12.863 15.082,12.863 Z "/></svg>