<?xml version="1.0" encoding="utf-8"?>
<!-- Generator: Adobe Illustrator 18.0.0, SVG Export Plug-In . SVG Version: 6.00 Build 0)  -->
<!DOCTYPE svg PUBLIC "-//W3C//DTD SVG 1.1//EN" "http://www.w3.org/Graphics/SVG/1.1/DTD/svg11.dtd">
<svg version="1.1" id="Layer_1" xmlns:ev="http://www.w3.org/2001/xml-events"
	 xmlns="http://www.w3.org/2000/svg" xmlns:xlink="http://www.w3.org/1999/xlink" x="0px" y="0px" viewBox="0 0 160 160"
	 enable-background="new 0 0 160 160" xml:space="preserve">
<path fill="#FFB31A" d="M80,160c-44.2,0-80-35.8-80-80S35.8,0,80,0s80,35.8,80,80S124.2,160,80,160z"/>
<g>
	<path fill="#F5F2ED" d="M40.4,70.8c0-1.6-0.5-2.9-1.5-3.8c-0.8-0.7-1.7-1.1-3.5-1.4l-2.1-0.3c-0.9-0.1-1.6-0.4-2.1-0.9
		c-0.5-0.4-0.7-1-0.7-1.7c0-1.6,1.2-2.9,3.4-2.9c1.6,0,2.9,0.3,4,1.4l1.8-1.8c-1.6-1.5-3.3-2.1-5.7-2.1c-3.8,0-6.2,2.2-6.2,5.4
		c0,1.5,0.4,2.7,1.4,3.5c0.8,0.8,2,1.3,3.5,1.5l2.2,0.3c1.1,0.2,1.6,0.3,2,0.8c0.5,0.4,0.7,1.1,0.7,1.9c0,1.8-1.4,2.8-3.8,2.8
		c-1.9,0-3.4-0.4-4.7-1.8l-1.9,1.8c1.8,1.8,3.8,2.4,6.6,2.4C37.6,76.2,40.4,74.2,40.4,70.8z"/>
	<path fill="#F5F2ED" d="M60.8,62.9H58l-2.5,9.3l-3-9.3h-2.1l-3.1,9.3l-2.5-9.3h-2.8L46,76.1h2.3l3.1-9.2l3.1,9.2h2.3L60.8,62.9z"/>
	<path fill="#F5F2ED" d="M65.8,76.1V62.9h-2.7v13.2H65.8z M65.9,60.3v-2.8h-2.8v2.8H65.9z"/>
	<path fill="#F5F2ED" d="M75.5,76.1v-2.3h-1.1c-1,0-1.5-0.6-1.5-1.5v-7.1h2.5v-2H73v-4h-2.7v4h-1.5v2h1.5v7.3c0,1.9,1.1,3.7,3.6,3.7
		H75.5z"/>
	<path fill="#F5F2ED" d="M88.4,74.4l-1.8-1.7c-0.8,0.9-1.5,1.2-2.5,1.2c-1,0-1.9-0.4-2.4-1.2C81,72,80.8,71,80.8,69.5
		c0-1.5,0.2-2.5,0.8-3.2c0.6-0.8,1.4-1.2,2.4-1.2c1,0,1.7,0.3,2.5,1.2l1.8-1.8c-1.2-1.3-2.5-1.8-4.3-1.8c-3,0-5.9,1.8-5.9,6.7
		s2.9,6.8,5.9,6.8C85.9,76.2,87.1,75.7,88.4,74.4z"/>
	<path fill="#F5F2ED" d="M102.1,76.1v-8.5c0-2.9-1.6-4.8-4.6-4.8c-1.3,0-2.5,0.5-3.4,1.5v-6.7h-2.7v18.5h2.7V68c0-2,1.2-2.9,2.7-2.9
		c1.5,0,2.7,0.9,2.7,2.9v8.1H102.1z"/>
	<path fill="#F5F2ED" d="M117.9,76.1v-2.3h-1.1c-1,0-1.5-0.6-1.5-1.5v-7.1h2.5v-2h-2.5v-4h-2.7v4h-1.5v2h1.5v7.3
		c0,1.9,1.1,3.7,3.6,3.7H117.9z"/>
	<path fill="#F5F2ED" d="M131.6,69.5c0-2.2-0.3-3.9-1.6-5.2c-0.9-0.9-2.2-1.6-4-1.6c-1.8,0-3.1,0.7-3.9,1.6c-1.2,1.3-1.6,3-1.6,5.2
		c0,2.2,0.3,3.9,1.6,5.2c0.9,0.9,2.1,1.6,3.9,1.6c1.8,0,3.1-0.7,4-1.6C131.3,73.4,131.6,71.7,131.6,69.5z M128.9,69.5
		c0,1.4-0.1,2.8-0.9,3.6c-0.5,0.5-1.2,0.8-2,0.8c-0.8,0-1.4-0.3-1.9-0.8c-0.8-0.8-0.9-2.2-0.9-3.6s0.1-2.8,0.9-3.6
		c0.5-0.5,1.1-0.8,1.9-0.8c0.8,0,1.5,0.3,2,0.8C128.8,66.7,128.9,68.1,128.9,69.5z"/>
	<path fill="#F5F2ED" d="M53.7,104.1v-2.3h-1.1c-1,0-1.5-0.6-1.5-1.5v-7.1h2.5v-2h-2.5v-4h-2.7v4H47v2h1.5v7.3
		c0,1.9,1.1,3.7,3.6,3.7H53.7z"/>
	<path fill="#F5F2ED" d="M66.7,104.1v-8.8c0-3-1.8-4.5-5.4-4.5c-2.2,0-3.5,0.4-4.7,1.9l1.7,1.6c0.7-0.9,1.4-1.3,2.9-1.3
		c2.1,0,2.9,0.8,2.9,2.5v0.9h-3.5c-3,0-4.6,1.6-4.6,3.8c0,1.1,0.4,2.1,1,2.8c0.8,0.8,1.9,1.2,3.5,1.2c1.6,0,2.5-0.4,3.5-1.4v1.2
		H66.7z M64,99.3c0,0.9-0.2,1.6-0.6,1.9C62.8,102,62,102,61,102c-1.7,0-2.4-0.7-2.4-1.9s0.8-1.9,2.4-1.9H64V99.3z"/>
	<path fill="#F5F2ED" d="M81.6,97.5c0-2-0.2-4.2-1.5-5.6c-0.7-0.7-1.9-1.2-3.2-1.2c-1.4,0-2.5,0.3-3.5,1.5v-6.7h-2.7v18.5h2.6v-1.4
		c1,1.2,2.1,1.6,3.5,1.6c1.3,0,2.5-0.4,3.2-1.2C81.4,101.8,81.6,99.5,81.6,97.5z M78.9,97.5c0,2.3-0.3,4.4-2.7,4.4
		c-2.4,0-2.8-2.1-2.8-4.4s0.4-4.4,2.8-4.4C78.6,93.1,78.9,95.1,78.9,97.5z"/>
	<path fill="#F5F2ED" d="M90.3,104.1v-2.3h-1.2c-1.1,0-1.4-0.5-1.4-1.5V85.6h-2.7v14.9c0,2,1.1,3.6,3.6,3.6H90.3z"/>
	<path fill="#F5F2ED" d="M103.1,98.3v-1.2c0-3.7-2.1-6.3-5.6-6.3c-3.4,0-5.6,2.5-5.6,6.7c0,5,2.6,6.8,5.9,6.8c2.3,0,3.6-0.7,4.9-2.1
		l-1.7-1.6c-0.9,0.9-1.7,1.4-3.2,1.4c-2.2,0-3.4-1.4-3.4-3.7H103.1z M100.5,96.4h-5.9c0-0.8,0.1-1.2,0.3-1.8c0.4-1,1.4-1.7,2.6-1.7
		c1.2,0,2.2,0.7,2.6,1.7C100.4,95.2,100.4,95.6,100.5,96.4z"/>
	<path fill="#F5F2ED" d="M112.1,104.1v-2.3H111c-1,0-1.5-0.6-1.5-1.5v-7.1h2.5v-2h-2.5v-4h-2.7v4h-1.5v2h1.5v7.3
		c0,1.9,1.1,3.7,3.6,3.7H112.1z"/>
</g>
</svg>
