<svg xmlns="http://www.w3.org/2000/svg" width="135" height="135" viewBox="0 0 135 135"><circle opacity=".3" fill="#7F5AB0" enable-background="new" cx="70.6" cy="70.8" r="63.9"/><path fill="#7F5AB0" d="M37.7 122.4c8 3.6 16.9 5.7 26.3 5.7 35.3 0 63.9-28.6 63.9-63.9S99.3.3 64 .3.1 28.9.1 64.2c0 22 11.2 41.5 28.1 53l-.7 10.2 10.2-5z"/><path fill="#fff" d="M32 45.3c3.2 0 5.4 1.2 6.4 2 .6.4.6 1 .2 1.6l-.5.8c-.4.6-.9.7-1.6.3-.9-.6-2.4-1.4-4.4-1.4-4.3 0-6.6 3.1-6.6 6.8 0 3.7 2.4 7 6.6 7 2.2 0 3.9-1.1 4.8-1.7.6-.4 1.2-.4 1.6.2l.6.7c.4.6.4 1.1-.2 1.6-1.1.9-3.5 2.4-7 2.4-6.2 0-10.2-4.5-10.2-10.2.2-5.8 4.4-10.1 10.3-10.1zM50.7 45.3c6 0 10.2 4.4 10.2 10 0 5.8-4.2 10.3-10.2 10.3-6 0-10.2-4.5-10.2-10.3.1-5.6 4.3-10 10.2-10zm0 17c3.8 0 6.5-3 6.5-7 0-3.8-2.7-6.8-6.5-6.8s-6.5 2.9-6.5 6.8c0 4 2.8 7 6.5 7zM63.8 46.8c0-.7.4-1.2 1.1-1.2h1.3c.7 0 1.1.4 1.1 1.2v15.4h7.3c.8 0 1.2.4 1.2 1.1v.8c0 .8-.4 1.2-1.2 1.2h-9.7c-.7 0-1.1-.4-1.1-1.2V46.8zM82.1 46.5c.2-.6.6-.9 1.3-.9h1.8c.7 0 1.1.3 1.3.9l6.1 17.4c.3.8-.1 1.3-.9 1.3h-1.3c-.7 0-1.1-.3-1.3-.9l-1.4-4.1h-6.9l-1.4 4.1c-.2.7-.6 1-1.3 1h-1.3c-.9 0-1.2-.5-.9-1.3l6.2-17.5zm4.7 10.8L85.1 52c-.3-1.1-.8-3-.8-3h-.1s-.4 1.9-.8 3l-1.8 5.3h5.2zM94.9 46.8c0-.7.4-1.2 1.1-1.2h5.3c1.9 0 2.9.2 3.7.5 2 .8 3.3 2.7 3.3 5.4 0 2.3-1.2 4.5-3.3 5.4v.1s.2.3.6 1l3.2 5.9c.5.8.1 1.4-.8 1.4h-1.5c-.6 0-1.1-.2-1.4-.8l-3.5-6.5h-3.4v6.2c0 .8-.4 1.2-1.1 1.2H96c-.7 0-1.1-.4-1.1-1.2V46.8zm6.7 8c1.9 0 3.1-1.2 3.1-3.1 0-1.2-.5-2.2-1.6-2.7-.5-.2-1.1-.3-2.1-.3h-2.6v6.1h3.2z"/><path fill="#C2B8D3" d="M31 73.5h-6.3c-.4 0-.7-.2-.7-.7v-.3c0-.4.2-.7.7-.7h14.5c.4 0 .7.2.7.7v.3c0 .4-.2.7-.7.7h-6.3v17.1c0 .4-.2.7-.7.7h-.6c-.4 0-.7-.2-.7-.7V73.5zM42.3 72.5c0-.4.2-.7.7-.7h9.6c.4 0 .7.2.7.7v.3c0 .4-.2.7-.7.7h-8.4v7.1h6.7c.4 0 .7.2.7.7v.4c0 .4-.2.7-.7.7h-6.7v7.2h8.9c.4 0 .7.2.7.7v.3c0 .4-.2.7-.7.7H43c-.4 0-.7-.2-.7-.7V72.5zM61.1 81.1l-5.2-8.5c-.3-.4-.1-.8.5-.8h.7c.4 0 .6.2.8.5l3.1 5.3c.6 1 1.3 2.2 1.3 2.2h.1s.6-1.2 1.2-2.2l3.2-5.3c.2-.3.4-.5.8-.5h.7c.6 0 .8.4.5.8l-5.2 8.5 5.7 9.4c.3.4.1.8-.4.8h-.7c-.4 0-.6-.1-.8-.5l-3.8-6.3c-.6-1-1.2-2.2-1.2-2.2h-.1s-.6 1.2-1.2 2.2l-3.7 6.2c-.2.3-.4.5-.8.5h-.7c-.6 0-.7-.4-.5-.8l5.7-9.3zM76.8 73.5h-6.3c-.4 0-.7-.2-.7-.7v-.3c0-.4.2-.7.7-.7H85c.4 0 .7.2.7.7v.3c0 .4-.2.7-.7.7h-6.3v17.1c0 .4-.2.7-.7.7h-.6c-.4 0-.7-.2-.7-.7V73.5zM95.5 71.4c5.7 0 9.9 4.3 9.9 9.9 0 5.7-4.2 10.2-9.9 10.2s-9.9-4.5-9.9-10.2c0-5.5 4.2-9.9 9.9-9.9zm0 18.4c4.6 0 7.9-3.7 7.9-8.4 0-4.6-3.4-8.1-7.9-8.1s-7.9 3.5-7.9 8.1c0 4.7 3.4 8.4 7.9 8.4z"/></svg>