<svg xmlns="http://www.w3.org/2000/svg" width="100" height="100" viewBox="0 0 100 100"><circle opacity=".31" fill="#29ABE2" enable-background="new" cx="52.3" cy="52.3" r="47.3"/><path fill="#3089E2" d="M87.2 73.1c3.5-5.5 6-11.8 7.1-18.7 3.9-25.9-14-50-39.8-53.8S4.5 14.6.7 40.4s14 50 39.8 53.8c16.2 2.4 31.6-3.6 41.9-14.8l7.4 1.7-2.6-8z"/><path fill="#fff" d="M19.4 34c2.4 0 4 .9 4.8 1.5.4.3.5.7.2 1.2l-.4.6c-.3.5-.7.5-1.2.2-.6-.4-1.8-1-3.3-1-3.2 0-4.9 2.3-4.9 5.1s1.8 5.3 5 5.3c1.7 0 2.9-.8 3.6-1.3.5-.3.9-.3 1.2.1l.4.6c.3.4.3.9-.1 1.2-.8.7-2.6 1.8-5.2 1.8-4.6 0-7.6-3.3-7.6-7.7-.1-4.3 3-7.6 7.5-7.6zM33.4 34c4.5 0 7.6 3.3 7.6 7.5 0 4.3-3.2 7.7-7.6 7.7s-7.6-3.4-7.6-7.7c0-4.2 3.2-7.5 7.6-7.5zm0 12.8c2.8 0 4.9-2.3 4.9-5.3 0-2.9-2-5.1-4.9-5.1s-4.9 2.2-4.9 5.1c.1 3 2.1 5.3 4.9 5.3zM43.2 35.1c0-.6.3-.9.9-.9h4.8c2.8 0 4.7 1.9 4.7 4.8s-1.9 4.9-4.7 4.9h-3v4.2c0 .6-.3.9-.9.9h-1c-.6 0-.9-.3-.9-.9v-13zm5.2 6.5c1.6 0 2.5-1 2.5-2.5s-.9-2.5-2.4-2.5h-2.6v5h2.5zM55.4 35.1c0-.6.3-.9.9-.9h1c.6 0 .9.3.9.9v13c0 .6-.3.9-.9.9h-1c-.6 0-.9-.3-.9-.9v-13zM64.3 35c.2-.5.5-.7 1-.7h1.3c.5 0 .8.2 1 .7l4.6 13c.2.6-.1 1-.7 1h-1c-.5 0-.8-.2-1-.7l-1-3.1h-5.2l-1 3c-.1.5-.5.7-1 .7h-1c-.6 0-.9-.4-.7-1L64.3 35zm3.5 8l-1.3-3.9c-.2-.8-.6-2.3-.6-2.3s-.3 1.5-.6 2.3L64 43h3.8zM73.9 35.1c0-.6.3-.9.9-.9h4c1.5 0 2.2.1 2.8.4 1.5.6 2.5 2 2.5 4 0 1.7-.9 3.4-2.4 4 0 0 .2.2.5.8l2.4 4.4c.4.6.1 1-.6 1h-1.1c-.5 0-.8-.2-1-.6l-2.6-4.9h-2.6v4.6c0 .6-.3.9-.9.9h-1c-.6 0-.9-.3-.9-.9V35.1zm5 6.1c1.4 0 2.3-.9 2.3-2.3 0-.9-.4-1.7-1.2-2-.4-.2-.8-.2-1.6-.2h-2v4.6h2.5z"/><path fill="#80BCED" d="M22.4 55.1h-4.7c-.3 0-.5-.2-.5-.5v-.2c0-.3.2-.5.5-.5h10.9c.3 0 .5.2.5.5v.2c0 .3-.2.5-.5.5h-4.7v12.8c0 .3-.2.5-.5.5H23c-.3 0-.5-.2-.5-.5V55.1zM30.8 54.3c0-.3.2-.5.5-.5h7.2c.3 0 .5.2.5.5v.2c0 .3-.2.5-.5.5h-6.3v5.3h5c.3 0 .5.2.5.5v.3c0 .3-.2.5-.5.5h-5V67h6.6c.3 0 .5.2.5.5v.2c0 .3-.2.5-.5.5h-7.6c-.3 0-.5-.2-.5-.5V54.3zM44.8 60.8L41 54.4c-.2-.3-.1-.6.4-.6h.6c.3 0 .5.1.6.4l2.3 4c.4.7 1 1.7 1 1.7s.4-.9.9-1.7l2.4-4c.1-.2.3-.4.6-.4h.6c.4 0 .6.3.4.6l-3.9 6.4 4.3 7c.2.3.1.6-.3.6h-.5c-.3 0-.5-.1-.6-.4L47 63.3c-.4-.8-.9-1.6-.9-1.6s-.4.9-.9 1.6L42 68.1c-.1.2-.3.4-.6.4h-.5c-.4 0-.6-.3-.4-.6l4.3-7.1zM56.6 55.1h-4.7c-.3 0-.5-.2-.5-.5v-.2c0-.3.2-.5.5-.5h10.9c.3 0 .5.2.5.5v.2c0 .3-.2.5-.5.5h-4.7v12.8c0 .3-.2.5-.5.5h-.4c-.3 0-.5-.2-.5-.5V55.1zM70.6 53.6c4.3 0 7.4 3.3 7.4 7.4 0 4.3-3.2 7.6-7.4 7.6-4.3 0-7.4-3.4-7.4-7.6 0-4.2 3.2-7.4 7.4-7.4zm0 13.7c3.4 0 5.9-2.7 5.9-6.3 0-3.5-2.5-6.1-5.9-6.1-3.4 0-5.9 2.6-5.9 6.1 0 3.6 2.5 6.3 5.9 6.3z"/></svg>