<svg xmlns="http://www.w3.org/2000/svg" width="85" height="85" viewBox="0 0 85 85"><circle opacity=".31" fill="#29ABE2" enable-background="new" cx="40.8" cy="43.6" r="40.6"/><path fill="#3089E2" d="M69.6 73c4.4-3.5 8.1-8 10.8-13.3 10.1-20 2.1-44.5-17.9-54.6S18.1 3 7.9 23 5.8 67.4 25.8 77.6c12.5 6.3 26.7 5.6 38.1-.7l5.6 3.3.1-7.2z"/><path fill="#fff" d="M19.3 25.9c2.1 0 3.5.8 4.2 1.3.4.3.4.6.1 1l-.3.5c-.3.4-.6.4-1 .2-.6-.4-1.6-.9-2.9-.9-2.8 0-4.3 2-4.3 4.4 0 2.4 1.5 4.6 4.3 4.6 1.4 0 2.5-.7 3.1-1.1.4-.3.8-.3 1 .1l.4.5c.3.4.3.7-.1 1-.7.6-2.2 1.6-4.5 1.6-4 0-6.6-2.9-6.6-6.7.1-3.6 2.8-6.5 6.6-6.5zM31.5 25.9c3.9 0 6.6 2.9 6.6 6.5 0 3.8-2.7 6.7-6.6 6.7-3.9 0-6.6-2.9-6.6-6.7 0-3.6 2.7-6.5 6.6-6.5zm0 11.1c2.4 0 4.2-2 4.2-4.6 0-2.5-1.8-4.4-4.2-4.4-2.4 0-4.2 1.9-4.2 4.4 0 2.6 1.7 4.6 4.2 4.6zM40 26.9c0-.5.3-.8.7-.8h4.2c2.4 0 4.1 1.7 4.1 4.2s-1.7 4.2-4.1 4.2h-2.6v3.6c0 .5-.3.8-.7.8h-.8c-.5 0-.7-.3-.7-.8V26.9zm4.4 5.6c1.4 0 2.1-.9 2.1-2.2 0-1.3-.8-2.2-2.1-2.2h-2.2v4.4h2.2zM50.5 26.9c0-.5.3-.8.7-.8h.8c.5 0 .7.3.7.8v11.3c0 .5-.3.8-.7.8h-.8c-.5 0-.7-.3-.7-.8V26.9zM58.3 26.8c.1-.4.4-.6.8-.6h1.2c.4 0 .7.2.8.6l4 11.3c.2.5-.1.9-.6.9h-.8c-.4 0-.7-.2-.8-.6l-.9-2.7h-4.5l-.9 2.6c-.1.4-.4.6-.8.6H55c-.6 0-.8-.3-.6-.9l3.9-11.2zm3 7l-1.1-3.4c-.2-.7-.5-2-.5-2s-.3 1.3-.5 2L58 33.8h3.3zM66.5 26.9c0-.5.3-.8.7-.8h3.5c1.3 0 1.9.1 2.4.3 1.3.5 2.1 1.8 2.1 3.5 0 1.5-.8 2.9-2.1 3.5 0 0 .2.2.4.7l2.1 3.8c.3.5.1.9-.5.9h-1c-.4 0-.7-.2-.9-.5L71 34.1h-2.2v4c0 .5-.3.8-.7.8h-.8c-.5 0-.7-.3-.7-.8V26.9zm4.4 5.2c1.2 0 2-.8 2-2 0-.8-.3-1.5-1-1.7-.3-.1-.7-.2-1.4-.2h-1.7v4h2.1z"/><path fill="#80BCED" d="M18.7 48.4c1.9 0 3 1.4 3 3.4 0 .2-.2.4-.4.4h-5.2c0 1.8 1.3 2.9 2.8 2.9.9 0 1.6-.4 1.9-.7.2-.1.4-.1.5.1l.1.2c.1.2.1.3-.1.5-.4.3-1.2.8-2.4.8-2.1 0-3.8-1.5-3.8-3.8 0-2.4 1.6-3.8 3.6-3.8zm2 3.1c-.1-1.5-1-2.3-2-2.3-1.2 0-2.2.8-2.5 2.3h4.5zM23.2 48.9c0-.2.1-.4.4-.4h.3c.2 0 .3.1.3.4v.8c0 .3-.1.5-.1.5.3-.7 1.2-1.9 2.9-1.9 1.8 0 2.4 1 2.4 2.8v4.2c0 .2-.1.4-.4.4h-.3c-.2 0-.3-.1-.3-.4v-4c0-1.1-.2-2.1-1.6-2.1-1.5 0-2.7 1.3-2.7 2.9v3.2c0 .2-.1.4-.3.4h-.3c-.2 0-.4-.1-.4-.4v-6.4zM34.1 48.4c1.7 0 2.4 1.4 2.4 1.4s0-.2 0-.5V46c0-.2.1-.4.4-.4h.1c.2 0 .3.1.3.4v9.4c0 .2-.1.4-.3.4h-.2c-.2 0-.4-.1-.4-.3V55c0-.3.1-.4.1-.4s-.6 1.5-2.5 1.5-3.1-1.5-3.1-3.8c-.1-2.4 1.3-3.9 3.2-3.9zm0 6.7c1.2 0 2.3-.9 2.3-2.9 0-1.5-.7-2.9-2.3-2.9-1.3 0-2.3 1.1-2.3 2.9 0 1.7 1 2.9 2.3 2.9zM42.4 48.4c1.9 0 3 1.4 3 3.4 0 .2-.2.4-.4.4h-5.2c0 1.8 1.3 2.9 2.8 2.9.9 0 1.6-.4 1.9-.7.2-.1.4-.1.5.1l.1.2c.1.2.1.3-.1.5-.4.3-1.2.8-2.4.8-2.1 0-3.8-1.5-3.8-3.8.1-2.4 1.7-3.8 3.6-3.8zm2.1 3.1c-.1-1.5-1-2.3-2-2.3-1.2 0-2.2.8-2.5 2.3h4.5zM46.9 48.9c0-.2.1-.4.4-.4h.3c.2 0 .3.1.3.4v1c0 .3-.1.6-.1.6.3-1 1.2-1.9 2.3-1.9.3 0 .4.1.4.3v.3c0 .2-.2.4-.4.4-1.5 0-2.2 1.7-2.2 3.2v2.7c0 .2-.1.4-.3.4h-.3c-.2 0-.4-.1-.4-.4v-6.6zM54.4 48.4c1.9 0 3 1.4 3 3.4 0 .2-.2.4-.4.4h-5.2c0 1.8 1.3 2.9 2.8 2.9.9 0 1.6-.4 1.9-.7.2-.1.4-.1.5.1l.1.2c.1.2.1.3-.1.5-.4.3-1.2.8-2.4.8-2.1 0-3.8-1.5-3.8-3.8 0-2.4 1.6-3.8 3.6-3.8zm2 3.1c-.1-1.5-1-2.3-2-2.3-1.2 0-2.2.8-2.5 2.3h4.5zM61.6 55.9c-1.9-.2-3.3-1.7-3.3-3.7 0-2.2 1.6-3.8 3.8-3.8 1.2 0 2 .5 2.4.8.2.1.2.3 0 .5l-.1.2c-.1.1-.2.1-.4 0-.3-.2-.9-.7-1.8-.7-1.6 0-2.8 1.2-2.8 2.9s1.2 2.9 2.8 2.9c1 0 1.7-.5 2-.8.2-.1.3-.1.5.1l.1.1c.1.2.1.3-.1.5-.4.3-1.2.9-2.5.9l-.1.6c.6.1 1 .4 1 1 0 .8-.7 1.1-1.4 1.1-.2 0-.7 0-.7-.3 0-.2.1-.4.2-.4s.2 0 .4 0c.4 0 .7-.1.7-.5 0-.3-.3-.5-.7-.5-.2 0-.3-.1-.2-.4l.2-.5zM69.4 48.4c2.1 0 3.8 1.6 3.8 3.7 0 2.2-1.7 3.8-3.8 3.8-2.1 0-3.8-1.6-3.8-3.8 0-2.1 1.8-3.7 3.8-3.7zm.1 6.7c1.5 0 2.8-1.3 2.8-2.9 0-1.6-1.3-2.9-2.8-2.9-1.5 0-2.8 1.2-2.8 2.9-.1 1.6 1.2 2.9 2.8 2.9z"/></svg>