<?xml version="1.0" encoding="utf-8"?><!DOCTYPE svg PUBLIC "-//W3C//DTD SVG 1.1//EN" "http://www.w3.org/Graphics/SVG/1.1/DTD/svg11.dtd"><svg version="1.1" baseProfile="full" xmlns="http://www.w3.org/2000/svg" xmlns:xlink="http://www.w3.org/1999/xlink" xmlns:ev="http://www.w3.org/2001/xml-events"   height="160px"   width="160px" ><path fill="rgb( 255, 179, 26 )" d="M80,160 C35.817,160 0,124.183 0,80 C0,35.817 35.817,0 80,0 C124.183,0 160,35.817 160,80 C160,124.183 124.183,160 80,160 Z "/><path fill="rgb( 245, 242, 237 )" d="M119.444,92.85 C117.858,92.85 117.052,93.552 117.052,94.54 C117.052,95.32 117.468,95.918 118.872,96.048 C118.872,96.048 120.952,96.23 120.952,96.23 C123.422,96.438 124.878,97.608 124.878,99.948 C124.878,102.704 122.538,104.135 119.392,104.135 C117.234,104.135 115.414,103.771 113.854,102.236 C113.854,102.236 115.596,100.494 115.596,100.494 C116.662,101.586 118.092,101.872 119.392,101.872 C121.004,101.872 122.278,101.3 122.278,100.052 C122.278,99.168 121.784,98.596 120.51,98.492 C120.51,98.492 118.404,98.31 118.404,98.31 C115.934,98.102 114.504,96.984 114.504,94.67 C114.504,92.096 116.714,90.64 119.47,90.64 C121.446,90.64 123.136,91.056 124.358,92.122 C124.358,92.122 122.694,93.812 122.694,93.812 C121.862,93.11 120.692,92.85 119.444,92.85 ZM106.054,96.048 C106.054,96.048 108.134,96.23 108.134,96.23 C110.604,96.438 112.06,97.608 112.06,99.948 C112.06,102.704 109.72,104.135 106.574,104.135 C104.416,104.135 102.596,103.771 101.036,102.236 C101.036,102.236 102.778,100.494 102.778,100.494 C103.844,101.586 105.274,101.872 106.574,101.872 C108.186,101.872 109.46,101.3 109.46,100.052 C109.46,99.168 108.966,98.596 107.692,98.492 C107.692,98.492 105.586,98.31 105.586,98.31 C103.116,98.102 101.686,96.984 101.686,94.67 C101.686,92.096 103.896,90.64 106.652,90.64 C108.628,90.64 110.318,91.056 111.54,92.122 C111.54,92.122 109.876,93.812 109.876,93.812 C109.044,93.11 107.874,92.85 106.626,92.85 C105.04,92.85 104.234,93.552 104.234,94.54 C104.234,95.32 104.65,95.918 106.054,96.048 ZM101.049,80.243 C100.321,80.971 99.359,81.205 98.345,81.205 C98.345,81.205 97.279,81.205 97.279,81.205 C97.279,81.205 97.279,78.813 97.279,78.813 C97.279,78.813 97.955,78.813 97.955,78.813 C99.073,78.813 99.463,78.475 99.853,77.409 C99.853,77.409 100.581,75.355 100.581,75.355 C100.581,75.355 95.979,62.796 95.979,62.796 C95.979,62.796 98.787,62.796 98.787,62.796 C98.787,62.796 101.933,72.078 101.933,72.078 C101.933,72.078 105.001,62.796 105.001,62.796 C105.001,62.796 107.835,62.796 107.835,62.796 C107.835,62.796 102.011,78.605 102.011,78.605 C101.751,79.333 101.439,79.853 101.049,80.243 ZM89.609,76.135 C88.205,76.135 87.113,75.771 86.151,74.626 C86.151,74.626 86.151,81.309 86.151,81.309 C86.151,81.309 83.499,81.309 83.499,81.309 C83.499,81.309 83.499,62.796 83.499,62.796 C83.499,62.796 86.099,62.796 86.099,62.796 C86.099,62.796 86.099,64.2 86.099,64.2 C87.087,63.004 88.153,62.64 89.583,62.64 C90.909,62.64 92.079,63.082 92.807,63.81 C94.133,65.136 94.289,67.372 94.289,69.374 C94.289,71.376 94.133,73.638 92.807,74.965 C92.079,75.693 90.935,76.135 89.609,76.135 ZM88.907,65.006 C86.515,65.006 86.151,67.034 86.151,69.374 C86.151,71.714 86.515,73.768 88.907,73.768 C91.299,73.768 91.637,71.714 91.637,69.374 C91.637,67.034 91.299,65.006 88.907,65.006 ZM86.944,91.888 C86.944,91.888 84.942,93.89 84.942,93.89 C84.344,93.292 83.876,93.006 82.966,93.006 C81.536,93.006 80.34,94.15 80.34,95.97 C80.34,95.97 80.34,103.979 80.34,103.979 C80.34,103.979 77.687,103.979 77.687,103.979 C77.687,103.979 77.687,90.796 77.687,90.796 C77.687,90.796 80.288,90.796 80.288,90.796 C80.288,90.796 80.288,92.226 80.288,92.226 C80.964,91.29 82.316,90.64 83.798,90.64 C85.072,90.64 86.034,90.978 86.944,91.888 ZM74.399,76.135 C72.605,76.135 71.331,75.459 70.473,74.574 C69.225,73.274 68.913,71.61 68.913,69.374 C68.913,67.164 69.225,65.5 70.473,64.2 C71.331,63.316 72.605,62.64 74.399,62.64 C76.193,62.64 77.493,63.316 78.351,64.2 C79.599,65.5 79.911,67.164 79.911,69.374 C79.911,71.61 79.599,73.274 78.351,74.574 C77.493,75.459 76.193,76.135 74.399,76.135 ZM76.349,65.76 C75.855,65.266 75.179,65.006 74.399,65.006 C73.619,65.006 72.969,65.266 72.475,65.76 C71.669,66.566 71.565,67.944 71.565,69.374 C71.565,70.804 71.669,72.182 72.475,72.988 C72.969,73.482 73.619,73.768 74.399,73.768 C75.179,73.768 75.855,73.482 76.349,72.988 C77.155,72.182 77.259,70.804 77.259,69.374 C77.259,67.944 77.155,66.566 76.349,65.76 ZM70.824,92.122 C70.824,92.122 70.824,85.466 70.824,85.466 C70.824,85.466 73.476,85.466 73.476,85.466 C73.476,85.466 73.476,103.979 73.476,103.979 C73.476,103.979 70.876,103.979 70.876,103.979 C70.876,103.979 70.876,102.574 70.876,102.574 C69.888,103.771 68.822,104.135 67.392,104.135 C66.066,104.135 64.896,103.693 64.168,102.965 C62.841,101.638 62.685,99.376 62.685,97.374 C62.685,95.372 62.841,93.136 64.168,91.81 C64.896,91.082 66.04,90.64 67.366,90.64 C68.77,90.64 69.862,90.978 70.824,92.122 ZM68.094,93.006 C65.702,93.006 65.338,95.034 65.338,97.374 C65.338,99.714 65.702,101.768 68.094,101.768 C70.486,101.768 70.824,99.714 70.824,97.374 C70.824,95.034 70.486,93.006 68.094,93.006 ZM59.501,73.612 C61.555,73.612 62.829,72.312 63.271,70.44 C63.271,70.44 66.105,70.44 66.105,70.44 C65.481,74.132 62.855,76.135 59.501,76.135 C57.577,76.135 55.913,75.433 54.639,74.158 C52.819,72.338 52.845,70.284 52.845,66.722 C52.845,63.16 52.819,61.106 54.639,59.286 C55.913,58.012 57.577,57.31 59.501,57.31 C62.907,57.31 65.455,59.312 66.105,63.004 C66.105,63.004 63.245,63.004 63.245,63.004 C62.803,61.132 61.555,59.832 59.501,59.832 C58.409,59.832 57.421,60.248 56.771,60.95 C55.861,61.938 55.653,63.004 55.653,66.722 C55.653,70.44 55.861,71.506 56.771,72.494 C57.421,73.196 58.409,73.612 59.501,73.612 ZM56.446,92.122 C56.446,92.122 56.446,85.466 56.446,85.466 C56.446,85.466 59.098,85.466 59.098,85.466 C59.098,85.466 59.098,103.979 59.098,103.979 C59.098,103.979 56.498,103.979 56.498,103.979 C56.498,103.979 56.498,102.574 56.498,102.574 C55.51,103.771 54.444,104.135 53.014,104.135 C51.688,104.135 50.518,103.693 49.79,102.965 C48.463,101.638 48.307,99.376 48.307,97.374 C48.307,95.372 48.463,93.136 49.79,91.81 C50.518,91.082 51.662,90.64 52.988,90.64 C54.392,90.64 55.484,90.978 56.446,92.122 ZM50.96,97.374 C50.96,99.714 51.324,101.768 53.716,101.768 C56.108,101.768 56.446,99.714 56.446,97.374 C56.446,95.034 56.108,93.006 53.716,93.006 C51.324,93.006 50.96,95.034 50.96,97.374 ZM42.25,102.783 C41.288,103.745 40.378,104.135 38.74,104.135 C37.102,104.135 36.01,103.745 35.203,102.939 C34.527,102.236 34.163,101.222 34.163,100.104 C34.163,97.894 35.698,96.308 38.714,96.308 C38.714,96.308 42.198,96.308 42.198,96.308 C42.198,96.308 42.198,95.372 42.198,95.372 C42.198,93.708 41.366,92.902 39.312,92.902 C37.856,92.902 37.154,93.24 36.426,94.176 C36.426,94.176 34.683,92.538 34.683,92.538 C35.932,91.082 37.232,90.64 39.416,90.64 C43.03,90.64 44.85,92.174 44.85,95.164 C44.85,95.164 44.85,103.979 44.85,103.979 C44.85,103.979 42.25,103.979 42.25,103.979 C42.25,103.979 42.25,102.783 42.25,102.783 ZM42.198,98.154 C42.198,98.154 39.104,98.154 39.104,98.154 C37.544,98.154 36.738,98.856 36.738,100.052 C36.738,101.248 37.492,101.924 39.156,101.924 C40.17,101.924 40.924,101.846 41.626,101.17 C42.016,100.78 42.198,100.156 42.198,99.22 C42.198,99.22 42.198,98.154 42.198,98.154 ZM93.21,90.64 C96.746,90.64 98.8,93.24 98.8,96.984 C98.8,96.984 98.8,98.154 98.8,98.154 C98.8,98.154 90.246,98.154 90.246,98.154 C90.246,100.416 91.442,101.846 93.6,101.846 C95.082,101.846 95.862,101.43 96.798,100.494 C96.798,100.494 98.488,102.08 98.488,102.08 C97.136,103.433 95.862,104.135 93.548,104.135 C90.246,104.135 87.62,102.392 87.62,97.374 C87.62,93.11 89.83,90.64 93.21,90.64 ZM96.174,96.308 C96.148,95.502 96.07,95.112 95.81,94.514 C95.394,93.526 94.458,92.85 93.21,92.85 C91.962,92.85 91,93.526 90.584,94.514 C90.324,95.112 90.272,95.502 90.246,96.308 C90.246,96.308 96.174,96.308 96.174,96.308 Z "/></svg>