<?xml version="1.0" encoding="utf-8"?><!DOCTYPE svg PUBLIC "-//W3C//DTD SVG 1.1//EN" "http://www.w3.org/Graphics/SVG/1.1/DTD/svg11.dtd"><svg version="1.1" baseProfile="full" xmlns="http://www.w3.org/2000/svg" xmlns:xlink="http://www.w3.org/1999/xlink" xmlns:ev="http://www.w3.org/2001/xml-events"   height="36px"   width="154px" ><path fill="rgb( 0, 197, 205 )" d="M150.231,13.963 C150.231,13.963 150.231,23.551 150.231,23.551 C150.231,23.551 148.166,23.551 148.166,23.551 C148.166,23.551 148.166,13.963 148.166,13.963 C148.166,13.963 144.436,13.963 144.436,13.963 C144.436,13.963 144.436,12.186 144.436,12.186 C144.436,12.186 153.96,12.186 153.96,12.186 C153.96,12.186 153.96,13.963 153.96,13.963 C153.96,13.963 150.231,13.963 150.231,13.963 ZM136.182,17.004 C135.75,16.348 135.238,15.243 135.238,15.243 C135.238,15.243 135.206,15.243 135.206,15.243 C135.206,15.243 135.318,16.332 135.318,17.004 C135.318,17.004 135.318,23.551 135.318,23.551 C135.318,23.551 133.253,23.551 133.253,23.551 C133.253,23.551 133.253,12.186 133.253,12.186 C133.253,12.186 135.318,12.186 135.318,12.186 C135.318,12.186 139.624,18.749 139.624,18.749 C140.056,19.405 140.568,20.51 140.568,20.51 C140.568,20.51 140.6,20.51 140.6,20.51 C140.6,20.51 140.488,19.421 140.488,18.749 C140.488,18.749 140.488,12.186 140.488,12.186 C140.488,12.186 142.537,12.186 142.537,12.186 C142.537,12.186 142.537,23.551 142.537,23.551 C142.537,23.551 140.488,23.551 140.488,23.551 C140.488,23.551 136.182,17.004 136.182,17.004 ZM128.311,20.638 C128.311,20.638 124.326,20.638 124.326,20.638 C124.326,20.638 123.365,23.551 123.365,23.551 C123.365,23.551 121.236,23.551 121.236,23.551 C121.236,23.551 125.238,12.186 125.238,12.186 C125.238,12.186 127.399,12.186 127.399,12.186 C127.399,12.186 131.401,23.551 131.401,23.551 C131.401,23.551 129.272,23.551 129.272,23.551 C129.272,23.551 128.311,20.638 128.311,20.638 ZM126.791,15.916 C126.583,15.275 126.342,14.155 126.342,14.155 C126.342,14.155 126.31,14.155 126.31,14.155 C126.31,14.155 126.054,15.275 125.83,15.916 C125.83,15.916 124.822,18.957 124.822,18.957 C124.822,18.957 127.799,18.957 127.799,18.957 C127.799,18.957 126.791,15.916 126.791,15.916 ZM118.008,19.309 C118.008,19.309 120.344,23.551 120.344,23.551 C120.344,23.551 118.04,23.551 118.04,23.551 C118.04,23.551 115.783,19.309 115.783,19.309 C115.783,19.309 113.798,19.309 113.798,19.309 C113.798,19.309 113.798,23.551 113.798,23.551 C113.798,23.551 111.733,23.551 111.733,23.551 C111.733,23.551 111.733,12.186 111.733,12.186 C111.733,12.186 115.398,12.186 115.398,12.186 C116.631,12.186 117.191,12.282 117.687,12.506 C118.824,13.019 119.544,14.107 119.544,15.612 C119.544,16.972 118.824,18.237 117.623,18.717 C117.623,18.717 117.623,18.749 117.623,18.749 C117.623,18.749 117.783,18.909 118.008,19.309 ZM115.366,13.963 C115.366,13.963 113.798,13.963 113.798,13.963 C113.798,13.963 113.798,17.516 113.798,17.516 C113.798,17.516 115.655,17.516 115.655,17.516 C116.759,17.516 117.447,16.86 117.447,15.724 C117.447,14.635 116.983,13.963 115.366,13.963 ZM104.039,23.743 C101.286,23.743 99.445,22.014 99.445,19.469 C99.445,19.469 99.445,12.186 99.445,12.186 C99.445,12.186 101.51,12.186 101.51,12.186 C101.51,12.186 101.51,19.469 101.51,19.469 C101.51,20.99 102.502,21.854 104.023,21.854 C105.543,21.854 106.552,20.99 106.552,19.453 C106.552,19.453 106.552,12.186 106.552,12.186 C106.552,12.186 108.617,12.186 108.617,12.186 C108.617,12.186 108.617,19.469 108.617,19.469 C108.617,22.014 106.776,23.743 104.039,23.743 ZM94.775,20.638 C94.775,20.638 90.789,20.638 90.789,20.638 C90.789,20.638 89.829,23.551 89.829,23.551 C89.829,23.551 87.7,23.551 87.7,23.551 C87.7,23.551 91.702,12.186 91.702,12.186 C91.702,12.186 93.863,12.186 93.863,12.186 C93.863,12.186 97.864,23.551 97.864,23.551 C97.864,23.551 95.735,23.551 95.735,23.551 C95.735,23.551 94.775,20.638 94.775,20.638 ZM93.254,15.916 C93.046,15.275 92.806,14.155 92.806,14.155 C92.806,14.155 92.774,14.155 92.774,14.155 C92.774,14.155 92.518,15.275 92.294,15.916 C92.294,15.916 91.286,18.957 91.286,18.957 C91.286,18.957 94.263,18.957 94.263,18.957 C94.263,18.957 93.254,15.916 93.254,15.916 ZM84.15,23.551 C84.15,23.551 82.086,23.551 82.086,23.551 C82.086,23.551 82.086,13.963 82.086,13.963 C82.086,13.963 78.356,13.963 78.356,13.963 C78.356,13.963 78.356,12.186 78.356,12.186 C78.356,12.186 87.88,12.186 87.88,12.186 C87.88,12.186 87.88,13.963 87.88,13.963 C87.88,13.963 84.15,13.963 84.15,13.963 C84.15,13.963 84.15,23.551 84.15,23.551 ZM73.526,23.743 C70.997,23.743 69.604,22.19 69.604,22.19 C69.604,22.19 70.725,20.638 70.725,20.638 C70.725,20.638 71.957,21.838 73.558,21.838 C74.422,21.838 75.206,21.39 75.206,20.462 C75.206,18.429 69.844,18.781 69.844,15.291 C69.844,13.403 71.477,11.994 73.654,11.994 C75.895,11.994 77.047,13.211 77.047,13.211 C77.047,13.211 76.151,14.891 76.151,14.891 C76.151,14.891 75.062,13.899 73.638,13.899 C72.677,13.899 71.925,14.459 71.925,15.259 C71.925,17.276 77.271,16.78 77.271,20.414 C77.271,22.222 75.895,23.743 73.526,23.743 ZM60.869,12.186 C60.869,12.186 67.671,12.186 67.671,12.186 C67.671,12.186 67.671,13.963 67.671,13.963 C67.671,13.963 62.933,13.963 62.933,13.963 C62.933,13.963 62.933,16.94 62.933,16.94 C62.933,16.94 66.759,16.94 66.759,16.94 C66.759,16.94 66.759,18.717 66.759,18.717 C66.759,18.717 62.933,18.717 62.933,18.717 C62.933,18.717 62.933,21.774 62.933,21.774 C62.933,21.774 67.927,21.774 67.927,21.774 C67.927,21.774 67.927,23.551 67.927,23.551 C67.927,23.551 60.869,23.551 60.869,23.551 C60.869,23.551 60.869,12.186 60.869,12.186 ZM56.215,19.309 C56.215,19.309 58.552,23.551 58.552,23.551 C58.552,23.551 56.247,23.551 56.247,23.551 C56.247,23.551 53.99,19.309 53.99,19.309 C53.99,19.309 52.005,19.309 52.005,19.309 C52.005,19.309 52.005,23.551 52.005,23.551 C52.005,23.551 49.941,23.551 49.941,23.551 C49.941,23.551 49.941,12.186 49.941,12.186 C49.941,12.186 53.606,12.186 53.606,12.186 C54.839,12.186 55.399,12.282 55.895,12.506 C57.031,13.019 57.752,14.107 57.752,15.612 C57.752,16.972 57.031,18.237 55.831,18.717 C55.831,18.717 55.831,18.749 55.831,18.749 C55.831,18.749 55.991,18.909 56.215,19.309 ZM53.574,13.963 C53.574,13.963 52.005,13.963 52.005,13.963 C52.005,13.963 52.005,17.516 52.005,17.516 C52.005,17.516 53.862,17.516 53.862,17.516 C54.967,17.516 55.655,16.86 55.655,15.724 C55.655,14.635 55.191,13.963 53.574,13.963 ZM18,36 C8.059,36 0,27.941 0,18 C0,8.059 8.059,0 18,0 C27.941,0 36,8.059 36,18 C36,27.941 27.941,36 18,36 ZM25.21,28 C25.787,27.978 26.226,27.701 26.45,27.161 C26.676,26.613 26.572,26.104 26.155,25.681 C25.419,24.933 24.671,24.196 23.927,23.454 C22.373,21.906 20.82,20.357 19.262,18.812 C19.176,18.727 19.192,18.687 19.266,18.614 C19.555,18.332 19.84,18.044 20.127,17.76 C20.249,17.639 20.382,17.421 20.495,17.43 C20.634,17.442 20.762,17.64 20.887,17.764 C21.552,18.424 22.34,18.426 23.005,17.765 C23.778,16.997 24.549,16.228 25.321,15.46 C26.121,14.664 26.921,13.869 27.718,13.071 C28.059,12.73 28.094,12.292 27.809,12.016 C27.525,11.74 27.09,11.779 26.747,12.112 C26.619,12.237 26.493,12.364 26.366,12.49 C25.264,13.588 24.159,14.684 23.062,15.787 C22.935,15.915 22.869,15.911 22.754,15.783 C22.556,15.564 22.351,15.348 22.127,15.157 C21.964,15.018 21.984,14.94 22.126,14.801 C23.092,13.852 24.049,12.895 25.009,11.94 C25.295,11.655 25.587,11.374 25.865,11.081 C26.1,10.833 26.14,10.471 25.982,10.221 C25.821,9.965 25.514,9.856 25.204,9.949 C25.035,10 24.907,10.113 24.784,10.235 C23.567,11.45 22.347,12.662 21.133,13.879 C21.019,13.994 20.954,14.004 20.842,13.881 C20.638,13.657 20.427,13.437 20.199,13.237 C20.053,13.108 20.053,13.037 20.194,12.898 C21.429,11.679 22.656,10.452 23.883,9.226 C24.208,8.902 24.239,8.462 23.965,8.188 C23.696,7.92 23.254,7.938 22.94,8.25 C21.322,9.856 19.705,11.463 18.096,13.077 C17.563,13.611 17.568,14.414 18.081,14.966 C18.208,15.103 18.339,15.236 18.478,15.361 C18.564,15.439 18.556,15.486 18.477,15.563 C18.098,15.933 17.722,16.305 17.353,16.684 C17.258,16.781 17.206,16.772 17.116,16.679 C16.841,16.394 16.556,16.117 16.275,15.837 C14.335,13.905 12.401,11.966 10.453,10.042 C9.817,9.414 9.047,9.259 8.216,9.606 C7.417,9.94 7.042,10.582 7,11.322 C6.997,12.024 7.227,12.514 7.646,12.926 C9.004,14.263 10.362,15.6 11.718,16.939 C12.327,17.541 13.039,17.725 13.858,17.474 C13.973,17.439 14.038,17.45 14.121,17.534 C14.453,17.872 14.787,18.21 15.135,18.533 C15.281,18.668 15.291,18.741 15.14,18.89 C12.924,21.086 10.714,23.289 8.505,25.491 C8.389,25.607 8.272,25.723 8.177,25.854 C7.699,26.51 7.929,27.46 8.65,27.833 C9.221,28.128 9.823,28.022 10.313,27.534 C12.568,25.289 14.824,23.044 17.075,20.795 C17.198,20.671 17.26,20.655 17.395,20.791 C19.011,22.41 20.634,24.021 22.255,25.634 C22.895,26.27 23.537,26.905 24.172,27.545 C24.46,27.836 24.802,28.015 25.21,28 Z "/></svg>