<?xml version="1.0" encoding="utf-8"?><!DOCTYPE svg PUBLIC "-//W3C//DTD SVG 1.1//EN" "http://www.w3.org/Graphics/SVG/1.1/DTD/svg11.dtd"><svg version="1.1" baseProfile="full" xmlns="http://www.w3.org/2000/svg" xmlns:xlink="http://www.w3.org/1999/xlink" xmlns:ev="http://www.w3.org/2001/xml-events"   height="130px"   width="216px" ><path fill="rgb( 255, 255, 255 )" d="M0,0 C0,0 216,0 216,0 C216,0 216,130 216,130 C216,130 0,130 0,130 C0,130 0,0 0,0 Z "/><path fill="rgb( 230, 230, 230 )" d="M0,0 C0,0 216,0 216,0 C216,0 216,12 216,12 C216,12 0,12 0,12 C0,12 0,0 0,0 Z "/><path fill="rgb( 0, 155, 242 )" d="M108,74 C108,74 108,68 108,68 C108,68 128,68 128,68 C128,68 128,74 128,74 C128,74 108,74 108,74 ZM91,58 C91,58 111,58 111,58 C111,58 111,64 111,64 C111,64 91,64 91,64 C91,64 91,58 91,58 ZM81,28 C81,28 101,28 101,28 C101,28 101,34 101,34 C101,34 81,34 81,34 C81,34 81,28 81,28 ZM27,28 C27,28 77,28 77,28 C77,28 77,34 77,34 C77,34 27,34 27,34 C27,34 27,28 27,28 ZM7,18 C7,18 27,18 27,18 C27,18 27,24 27,24 C27,24 7,24 7,24 C7,24 7,18 7,18 ZM27,124 C27,124 7,124 7,124 C7,124 7,118 7,118 C7,118 27,118 27,118 C27,118 27,124 27,124 ZM27,108 C27,108 47,108 47,108 C47,108 47,114 47,114 C47,114 27,114 27,114 C27,114 27,108 27,108 ZM37,98 C37,98 87,98 87,98 C87,98 87,104 87,104 C87,104 37,104 37,104 C37,104 37,98 37,98 ZM74,94 C74,94 74,88 74,88 C74,88 94,88 94,88 C94,88 94,94 94,94 C94,94 74,94 74,94 ZM104,74 C104,74 47,74 47,74 C47,74 47,68 47,68 C47,68 104,68 104,68 C104,68 104,74 104,74 ZM91,44 C91,44 71,44 71,44 C71,44 71,38 71,38 C71,38 91,38 91,38 C91,38 91,44 91,44 ZM87,64 C87,64 37,64 37,64 C37,64 37,58 37,58 C37,58 87,58 87,58 C87,58 87,64 87,64 ZM47,54 C47,54 27,54 27,54 C27,54 27,48 27,48 C27,48 47,48 47,48 C47,48 47,54 47,54 ZM67,44 C67,44 37,44 37,44 C37,44 37,38 37,38 C37,38 67,38 67,38 C67,38 67,44 67,44 ZM56,78 C56,78 56,84 56,84 C56,84 37,84 37,84 C37,84 37,78 37,78 C37,78 56,78 56,78 ZM70,94 C70,94 27,94 27,94 C27,94 27,88 27,88 C27,88 70,88 70,88 C70,88 70,94 70,94 ZM111,104 C111,104 91,104 91,104 C91,104 91,98 91,98 C91,98 111,98 111,98 C111,98 111,104 111,104 Z "/><path fill="rgb( 255, 179, 26 )" d="M115,64 C115,64 115,58 115,58 C115,58 145,58 145,58 C145,58 145,64 145,64 C145,64 115,64 115,64 ZM81,28 C81,28 111,28 111,28 C111,28 111,34 111,34 C111,34 81,34 81,34 C81,34 81,28 81,28 ZM104,94 C104,94 74,94 74,94 C74,94 74,88 74,88 C74,88 104,88 104,88 C104,88 104,94 104,94 ZM31,18 C31,18 61,18 61,18 C61,18 61,24 61,24 C61,24 31,24 31,24 C31,24 31,18 31,18 Z "/></svg>