<?xml version="1.0" encoding="utf-8"?>
<!-- Generator: Adobe Illustrator 17.1.0, SVG Export Plug-In . SVG Version: 6.00 Build 0)  -->
<!DOCTYPE svg PUBLIC "-//W3C//DTD SVG 1.1//EN" "http://www.w3.org/Graphics/SVG/1.1/DTD/svg11.dtd">
<svg version="1.1" id="Layer_1" xmlns:ev="http://www.w3.org/2001/xml-events"
	 xmlns="http://www.w3.org/2000/svg" xmlns:xlink="http://www.w3.org/1999/xlink" x="0px" y="0px" viewBox="115.6 -2.3 595.3 595.3"
	 enable-background="new 115.6 -2.3 595.3 595.3" xml:space="preserve">
<path fill="#FFB31A" d="M413.2,593c-164.4,0-297.6-133.2-297.6-297.6S248.8-2.3,413.2-2.3s297.6,133.2,297.6,297.6
	S577.7,593,413.2,593z"/>
<g>
	<path fill="#F5F2ED" d="M309,277.4l-25.2-68.7h-8.4l-25.2,68.7h11.1l4.7-13.8h27.1l4.7,13.8H309z M290.2,254.7h-21.1l10.7-30.5
		L290.2,254.7z"/>
	<path fill="#F5F2ED" d="M357.2,277.4v-31.3c0-5.5-1.2-10.1-4.9-13.8c-2.9-2.8-7-4.4-12.1-4.4c-4.9,0-9.7,1.8-13,5.5v-4.9h-9.7v48.9
		h9.8v-29.8c0-7.5,4.6-10.9,10.1-10.9s9.8,3.3,9.8,10.9v29.8H357.2z"/>
	<path fill="#F5F2ED" d="M408.5,262.5c0-8.7-5.4-13-14.6-13.8l-7.7-0.7c-5.2-0.5-6.8-2.7-6.8-5.6c0-3.7,3-6.3,8.9-6.3
		c4.6,0,9,1,12.1,3.6l6.2-6.3c-4.5-4-10.8-5.5-18.1-5.5c-10.2,0-18.4,5.4-18.4,15c0,8.6,5.3,12.7,14.5,13.5l7.8,0.7
		c4.7,0.4,6.6,2.5,6.6,5.8c0,4.6-4.7,6.8-10.7,6.8c-4.8,0-10.1-1.1-14.1-5.1l-6.5,6.5c5.8,5.7,12.5,7,20.6,7
		C399.9,278,408.5,272.7,408.5,262.5z"/>
	<path fill="#F5F2ED" d="M483.6,228.5h-10.5l-9.5,34.5l-11.3-34.5h-7.6l-11.4,34.5l-9.5-34.5h-10.4l15.2,48.9h8.5l11.4-34.2
		l11.5,34.2h8.4L483.6,228.5z"/>
	<path fill="#F5F2ED" d="M530.4,255.8v-4.3c0-13.9-7.6-23.5-20.7-23.5c-12.5,0-20.7,9.2-20.7,25c0,18.6,9.7,25.1,22,25.1
		c8.6,0,13.3-2.6,18.3-7.6l-6.3-5.9c-3.5,3.5-6.4,5-11.9,5c-8,0-12.4-5.3-12.4-13.7H530.4z M520.7,248.9h-22c0.1-3,0.3-4.4,1.3-6.7
		c1.5-3.7,5.1-6.2,9.7-6.2c4.6,0,8.1,2.5,9.7,6.2C520.3,244.5,520.6,246,520.7,248.9z"/>
	<path fill="#F5F2ED" d="M577.8,232.5c-3.4-3.4-6.9-4.6-11.7-4.6c-5.5,0-10.5,2.4-13,5.9v-5.3h-9.7v48.9h9.8v-29.7
		c0-6.8,4.4-11,9.7-11c3.4,0,5.1,1.1,7.3,3.3L577.8,232.5z"/>
	<path fill="#F5F2ED" d="M202.4,340.8v-7.5h-9.7v-7c0-3.6,1.7-5.7,5.4-5.7h4.3v-8.4h-6.2c-9.2,0-13.4,6.6-13.4,13.6v7.5h-5.6v7.5
		h5.6v40.5h9.8v-40.5H202.4z"/>
	<path fill="#F5F2ED" d="M247.3,336.5c-3.4-3.4-6.9-4.6-11.7-4.6c-5.5,0-10.5,2.4-13,5.9v-5.3h-9.7v48.9h9.8v-29.7
		c0-6.8,4.4-11,9.7-11c3.4,0,5.1,1.1,7.3,3.3L247.3,336.5z"/>
	<path fill="#F5F2ED" d="M290.8,356.8c0-8.2-1.2-14.4-5.8-19.2c-3.2-3.3-8-5.8-14.7-5.8s-11.4,2.5-14.6,5.8
		c-4.6,4.8-5.8,11-5.8,19.2c0,8.3,1.2,14.5,5.8,19.3c3.2,3.3,7.9,5.8,14.6,5.8s11.5-2.5,14.7-5.8
		C289.7,371.3,290.8,365.1,290.8,356.8z M281,356.8c0,5.3-0.4,10.4-3.4,13.4c-1.8,1.8-4.3,2.9-7.2,2.9s-5.3-1.1-7.1-2.9
		c-3-3-3.4-8.1-3.4-13.4s0.4-10.4,3.4-13.4c1.8-1.8,4.2-2.8,7.1-2.8s5.4,1,7.2,2.8C280.6,346.4,281,351.5,281,356.8z"/>
	<path fill="#F5F2ED" d="M373.6,381.3v-31.3c0-5.5-1.4-10.1-5.2-13.8c-2.9-2.8-7.3-4.4-12.4-4.4c-6.5,0-11.4,2.3-15.3,7.1
		c-3.1-4.7-7.8-7.1-13.9-7.1c-4.9,0-9.7,1.9-13,5.5v-4.9h-9.7v48.9h9.8v-29.8c0-7.5,4.6-10.9,10.1-10.9s9.8,3.3,9.8,10.9v29.8h9.8
		V351c0-7,4.8-10.4,10.1-10.4c5.5,0,9.8,3.3,9.8,10.9v29.8H373.6z"/>
	<path fill="#F5F2ED" d="M432.4,381.3v-8.4h-4.1c-3.7,0-5.4-2.1-5.4-5.7v-26.4h9.5v-7.5h-9.5v-14.9h-9.8v14.9h-5.6v7.5h5.6v26.9
		c0,7,4.2,13.6,13.4,13.6H432.4z"/>
	<path fill="#F5F2ED" d="M480.6,381.3v-32.7c0-11.1-6.8-16.8-20.2-16.8c-8.1,0-12.9,1.6-17.6,7l6.5,6.1c2.7-3.5,5.3-4.7,10.7-4.7
		c7.6,0,10.7,3,10.7,9.2v3.5h-12.9c-11.2,0-16.9,5.9-16.9,14.1c0,4.1,1.4,7.9,3.9,10.5c3,3,7,4.4,13.1,4.4c6.1,0,9.5-1.4,13-5v4.4
		H480.6z M470.8,363.7c0,3.5-0.7,5.8-2.1,7.2c-2.6,2.5-5.4,2.8-9.2,2.8c-6.2,0-9-2.5-9-6.9c0-4.4,3-7,8.8-7h11.5V363.7z"/>
	<path fill="#F5F2ED" d="M535.8,356.8c0-7.4-0.6-15.7-5.5-20.7c-2.7-2.7-6.9-4.3-11.9-4.3c-5.2,0-9.3,1.3-12.8,5.5v-24.7h-9.8v68.7
		h9.7v-5.2c3.7,4.4,7.6,5.8,12.9,5.8c4.9,0,9.3-1.6,12-4.3C535.3,372.7,535.8,364.3,535.8,356.8z M526,356.8
		c0,8.7-1.3,16.3-10.1,16.3c-8.9,0-10.2-7.6-10.2-16.3s1.4-16.2,10.2-16.2C524.7,340.6,526,348.1,526,356.8z"/>
	<path fill="#F5F2ED" d="M568.4,381.3v-8.4H564c-4,0-5.3-1.9-5.3-5.7v-54.6h-9.8v55.2c0,7.2,4.1,13.5,13.4,13.5H568.4z"/>
	<path fill="#F5F2ED" d="M615.7,359.7v-4.3c0-13.9-7.6-23.5-20.7-23.5c-12.5,0-20.7,9.2-20.7,25c0,18.6,9.7,25.1,22,25.1
		c8.6,0,13.3-2.6,18.3-7.6l-6.3-5.9c-3.5,3.5-6.4,5-11.9,5c-8,0-12.4-5.3-12.4-13.7H615.7z M606,352.9h-22c0.1-3,0.3-4.4,1.3-6.7
		c1.5-3.7,5.1-6.2,9.7-6.2c4.6,0,8.1,2.5,9.7,6.2C605.6,348.4,605.9,349.9,606,352.9z"/>
	<path fill="#F5F2ED" d="M649.2,381.3v-8.4h-4.1c-3.7,0-5.4-2.1-5.4-5.7v-26.4h9.5v-7.5h-9.5v-14.9h-9.8v14.9h-5.6v7.5h5.6v26.9
		c0,7,4.2,13.6,13.4,13.6H649.2z"/>
</g>
</svg>
