<?xml version="1.0" encoding="utf-8"?><!DOCTYPE svg PUBLIC "-//W3C//DTD SVG 1.1//EN" "http://www.w3.org/Graphics/SVG/1.1/DTD/svg11.dtd"><svg version="1.1" baseProfile="full" xmlns="http://www.w3.org/2000/svg" xmlns:xlink="http://www.w3.org/1999/xlink" xmlns:ev="http://www.w3.org/2001/xml-events"   height="20px"   width="32px" ><path fill="rgb( 255, 255, 255 )" d="M31.734,18.939 C31.734,18.939 21.781,10.23 21.781,10.23 C21.781,10.23 31.863,1.329 31.863,1.329 C31.941,1.541 32,1.762 32,2 C32,2 32,18 32,18 C32,18.346 31.891,18.655 31.734,18.939 ZM1.828,0.035 C1.828,0.035 2,0 2,0 C2,0 30,0 30,0 C30,0 30.281,0.057 30.281,0.057 C30.281,0.057 16.004,12.663 16.004,12.663 C16.004,12.663 1.828,0.035 1.828,0.035 ZM0.184,18.814 C0.07,18.564 0,18.292 0,18 C0,18 0,2 0,2 C0,1.726 0.059,1.465 0.156,1.227 C0.156,1.227 10.23,10.2 10.23,10.2 C10.23,10.2 0.184,18.814 0.184,18.814 ZM15.996,15.337 C15.996,15.337 20.27,11.564 20.27,11.564 C20.27,11.564 29.91,20 29.91,20 C29.91,20 2,20 2,20 C2,20 1.895,19.978 1.895,19.978 C1.895,19.978 11.738,11.542 11.738,11.542 C11.738,11.542 15.996,15.337 15.996,15.337 Z "/></svg>