<?xml version="1.0" encoding="utf-8"?>
<!-- Generator: Adobe Illustrator 17.1.0, SVG Export Plug-In . SVG Version: 6.00 Build 0)  -->
<!DOCTYPE svg PUBLIC "-//W3C//DTD SVG 1.1//EN" "http://www.w3.org/Graphics/SVG/1.1/DTD/svg11.dtd">
<svg version="1.1" id="Layer_1" xmlns:ev="http://www.w3.org/2001/xml-events"
	 xmlns="http://www.w3.org/2000/svg" xmlns:xlink="http://www.w3.org/1999/xlink" x="0px" y="0px" viewBox="0 0 54 20"
	 enable-background="new 0 0 54 20" xml:space="preserve">
<path fill="#009BF2" d="M2,0h50c1.105,0,2,0.895,2,2v16c0,1.105-0.895,2-2,2H2c-1.105,0-2-0.895-2-2V2C0,0.895,0.895,0,2,0z"/>
<path fill="#FFFFFF" d="M37.595,14.902c-0.372,0.935-1.116,1.427-1.967,1.427c-0.684,0-1.175-0.372-1.175-0.372l0.407-0.887
	c0,0,0.336,0.252,0.708,0.252c0.468,0,0.863-0.336,1.091-0.888l0.3-0.695l-2.542-5.997h1.307l1.523,3.97
	c0.12,0.312,0.228,0.731,0.228,0.731h0.024c0,0,0.096-0.407,0.204-0.719l1.475-3.982h1.259L37.595,14.902z M30.826,13.954
	c-1.331,0-1.859-0.995-1.859-0.995h-0.024c0,0,0.024,0.216,0.024,0.528v2.722h-1.163V7.742h1.068v0.516
	c0,0.239-0.024,0.443-0.024,0.443h0.024c0,0,0.515-1.103,2.038-1.103c1.631,0,2.663,1.295,2.663,3.178
	C33.573,12.707,32.41,13.954,30.826,13.954z M30.683,8.617c-0.912,0-1.752,0.636-1.752,2.183c0,1.08,0.6,2.159,1.716,2.159
	c0.959,0,1.751-0.792,1.751-2.171C32.398,9.469,31.69,8.617,30.683,8.617z M22.847,13.954c-1.811,0-3.275-1.343-3.275-3.19
	c0-1.835,1.464-3.166,3.275-3.166s3.274,1.331,3.274,3.166C26.121,12.611,24.658,13.954,22.847,13.954z M22.847,8.605
	c-1.14,0-2.087,0.9-2.087,2.159c0,1.272,0.947,2.183,2.087,2.183c1.151,0,2.086-0.911,2.086-2.183
	C24.933,9.505,23.998,8.605,22.847,8.605z M15.082,12.863c1.595,0,2.614-1.103,2.614-1.103l0.636,0.851c0,0-1.163,1.343-3.286,1.343
	c-2.543,0-4.33-1.942-4.33-4.425c0-2.459,1.847-4.33,4.306-4.33c2.039,0,3.082,1.116,3.082,1.116l-0.587,0.887
	c0,0-0.984-0.923-2.447-0.923c-1.895,0-3.13,1.439-3.13,3.238C11.94,11.328,13.199,12.863,15.082,12.863z"/>
</svg>
