<?xml version="1.0" encoding="utf-8"?><!DOCTYPE svg PUBLIC "-//W3C//DTD SVG 1.1//EN" "http://www.w3.org/Graphics/SVG/1.1/DTD/svg11.dtd"><svg version="1.1" baseProfile="full" xmlns="http://www.w3.org/2000/svg" xmlns:xlink="http://www.w3.org/1999/xlink" xmlns:ev="http://www.w3.org/2001/xml-events"   height="160px"   width="160px" ><path fill="rgb( 255, 179, 26 )" d="M80,160 C35.817,160 0,124.183 0,80 C0,35.817 35.817,0 80,0 C124.183,0 160,35.817 160,80 C160,124.183 124.183,160 80,160 Z "/><path fill="rgb( 245, 242, 237 )" d="M129.818,74.574 C128.96,75.459 127.66,76.135 125.866,76.135 C124.072,76.135 122.798,75.459 121.94,74.574 C120.692,73.274 120.38,71.61 120.38,69.374 C120.38,67.164 120.692,65.5 121.94,64.2 C122.798,63.316 124.072,62.64 125.866,62.64 C127.66,62.64 128.96,63.316 129.818,64.2 C131.067,65.5 131.379,67.164 131.379,69.374 C131.379,71.61 131.067,73.274 129.818,74.574 ZM127.816,65.76 C127.322,65.266 126.646,65.006 125.866,65.006 C125.086,65.006 124.436,65.266 123.942,65.76 C123.136,66.566 123.032,67.944 123.032,69.374 C123.032,70.804 123.136,72.182 123.942,72.988 C124.436,73.482 125.086,73.768 125.866,73.768 C126.646,73.768 127.322,73.482 127.816,72.988 C128.622,72.182 128.726,70.804 128.726,69.374 C128.726,67.944 128.622,66.566 127.816,65.76 ZM112.502,72.312 C112.502,72.312 112.502,65.058 112.502,65.058 C112.502,65.058 110.994,65.058 110.994,65.058 C110.994,65.058 110.994,63.03 110.994,63.03 C110.994,63.03 112.502,63.03 112.502,63.03 C112.502,63.03 112.502,59.026 112.502,59.026 C112.502,59.026 115.154,59.026 115.154,59.026 C115.154,59.026 115.154,63.03 115.154,63.03 C115.154,63.03 117.702,63.03 117.702,63.03 C117.702,63.03 117.702,65.058 117.702,65.058 C117.702,65.058 115.154,65.058 115.154,65.058 C115.154,65.058 115.154,72.182 115.154,72.182 C115.154,73.144 115.622,73.716 116.61,73.716 C116.61,73.716 117.702,73.716 117.702,73.716 C117.702,73.716 117.702,75.979 117.702,75.979 C117.702,75.979 116.116,75.979 116.116,75.979 C113.646,75.979 112.502,74.21 112.502,72.312 ZM114.036,96.984 C114.036,96.984 114.036,98.154 114.036,98.154 C114.036,98.154 105.482,98.154 105.482,98.154 C105.482,100.416 106.678,101.846 108.836,101.846 C110.318,101.846 111.098,101.43 112.034,100.494 C112.034,100.494 113.724,102.08 113.724,102.08 C112.372,103.433 111.098,104.135 108.784,104.135 C105.482,104.135 102.856,102.392 102.856,97.374 C102.856,93.11 105.066,90.64 108.446,90.64 C111.982,90.64 114.036,93.24 114.036,96.984 ZM108.446,92.85 C107.198,92.85 106.236,93.526 105.82,94.514 C105.56,95.112 105.508,95.502 105.482,96.308 C105.482,96.308 111.41,96.308 111.41,96.308 C111.384,95.502 111.306,95.112 111.046,94.514 C110.63,93.526 109.694,92.85 108.446,92.85 ZM99.216,67.892 C99.216,65.89 98.046,65.006 96.564,65.006 C95.082,65.006 93.886,65.916 93.886,67.892 C93.886,67.892 93.886,75.979 93.886,75.979 C93.886,75.979 91.234,75.979 91.234,75.979 C91.234,75.979 91.234,57.466 91.234,57.466 C91.234,57.466 93.886,57.466 93.886,57.466 C93.886,57.466 93.886,64.122 93.886,64.122 C94.796,63.134 95.992,62.64 97.292,62.64 C100.23,62.64 101.868,64.616 101.868,67.476 C101.868,67.476 101.868,75.979 101.868,75.979 C101.868,75.979 99.216,75.979 99.216,75.979 C99.216,75.979 99.216,67.892 99.216,67.892 ZM91.364,92.122 C92.274,91.134 93.548,90.64 94.874,90.64 C96.226,90.64 97.344,91.082 98.124,91.836 C99.138,92.824 99.45,94.072 99.45,95.554 C99.45,95.554 99.45,103.979 99.45,103.979 C99.45,103.979 96.798,103.979 96.798,103.979 C96.798,103.979 96.798,95.944 96.798,95.944 C96.798,93.89 95.628,93.006 94.146,93.006 C92.664,93.006 91.416,93.916 91.416,95.944 C91.416,95.944 91.416,103.979 91.416,103.979 C91.416,103.979 88.764,103.979 88.764,103.979 C88.764,103.979 88.764,90.796 88.764,90.796 C88.764,90.796 91.364,90.796 91.364,90.796 C91.364,90.796 91.364,92.122 91.364,92.122 ZM83.824,73.768 C84.864,73.768 85.514,73.43 86.346,72.52 C86.346,72.52 88.166,74.262 88.166,74.262 C86.918,75.589 85.644,76.135 83.824,76.135 C80.86,76.135 77.948,74.314 77.948,69.374 C77.948,64.434 80.86,62.64 83.824,62.64 C85.644,62.64 86.918,63.16 88.166,64.486 C88.166,64.486 86.346,66.254 86.346,66.254 C85.514,65.344 84.864,65.006 83.824,65.006 C82.81,65.006 81.952,65.422 81.38,66.176 C80.808,66.904 80.6,67.84 80.6,69.374 C80.6,70.908 80.808,71.87 81.38,72.598 C81.952,73.352 82.81,73.768 83.824,73.768 ZM83.616,92.2 C84.864,93.5 85.176,95.164 85.176,97.374 C85.176,99.61 84.864,101.274 83.616,102.574 C82.758,103.459 81.458,104.135 79.664,104.135 C77.87,104.135 76.596,103.459 75.738,102.574 C74.49,101.274 74.178,99.61 74.178,97.374 C74.178,95.164 74.49,93.5 75.738,92.2 C76.596,91.316 77.87,90.64 79.664,90.64 C81.458,90.64 82.758,91.316 83.616,92.2 ZM77.74,93.76 C76.934,94.566 76.83,95.944 76.83,97.374 C76.83,98.804 76.934,100.182 77.74,100.988 C78.234,101.482 78.884,101.768 79.664,101.768 C80.444,101.768 81.12,101.482 81.614,100.988 C82.42,100.182 82.524,98.804 82.524,97.374 C82.524,95.944 82.42,94.566 81.614,93.76 C81.12,93.266 80.444,93.006 79.664,93.006 C78.884,93.006 78.234,93.266 77.74,93.76 ZM70.122,72.312 C70.122,72.312 70.122,65.058 70.122,65.058 C70.122,65.058 68.614,65.058 68.614,65.058 C68.614,65.058 68.614,63.03 68.614,63.03 C68.614,63.03 70.122,63.03 70.122,63.03 C70.122,63.03 70.122,59.026 70.122,59.026 C70.122,59.026 72.774,59.026 72.774,59.026 C72.774,59.026 72.774,63.03 72.774,63.03 C72.774,63.03 75.322,63.03 75.322,63.03 C75.322,63.03 75.322,65.058 75.322,65.058 C75.322,65.058 72.774,65.058 72.774,65.058 C72.774,65.058 72.774,72.182 72.774,72.182 C72.774,73.144 73.242,73.716 74.23,73.716 C74.23,73.716 75.322,73.716 75.322,73.716 C75.322,73.716 75.322,75.979 75.322,75.979 C75.322,75.979 73.736,75.979 73.736,75.979 C71.266,75.979 70.122,74.21 70.122,72.312 ZM70.72,103.979 C70.72,103.979 68.068,103.979 68.068,103.979 C68.068,103.979 68.068,95.892 68.068,95.892 C68.068,93.89 66.898,93.006 65.416,93.006 C63.934,93.006 62.738,93.916 62.738,95.892 C62.738,95.892 62.738,103.979 62.738,103.979 C62.738,103.979 60.086,103.979 60.086,103.979 C60.086,103.979 60.086,85.466 60.086,85.466 C60.086,85.466 62.738,85.466 62.738,85.466 C62.738,85.466 62.738,92.122 62.738,92.122 C63.648,91.134 64.844,90.64 66.144,90.64 C69.082,90.64 70.72,92.616 70.72,95.476 C70.72,95.476 70.72,103.979 70.72,103.979 ZM62.946,75.979 C62.946,75.979 62.946,62.796 62.946,62.796 C62.946,62.796 65.598,62.796 65.598,62.796 C65.598,62.796 65.598,75.979 65.598,75.979 C65.598,75.979 62.946,75.979 62.946,75.979 ZM62.868,57.388 C62.868,57.388 65.676,57.388 65.676,57.388 C65.676,57.388 65.676,60.196 65.676,60.196 C65.676,60.196 62.868,60.196 62.868,60.196 C62.868,60.196 62.868,57.388 62.868,57.388 ZM54.262,75.979 C54.262,75.979 51.168,66.774 51.168,66.774 C51.168,66.774 48.1,75.979 48.1,75.979 C48.1,75.979 45.812,75.979 45.812,75.979 C45.812,75.979 41.73,62.796 41.73,62.796 C41.73,62.796 44.538,62.796 44.538,62.796 C44.538,62.796 47.086,72.078 47.086,72.078 C47.086,72.078 50.154,62.796 50.154,62.796 C50.154,62.796 52.208,62.796 52.208,62.796 C52.208,62.796 55.25,72.078 55.25,72.078 C55.25,72.078 57.798,62.796 57.798,62.796 C57.798,62.796 60.632,62.796 60.632,62.796 C60.632,62.796 56.524,75.979 56.524,75.979 C56.524,75.979 54.262,75.979 54.262,75.979 ZM33.098,65.214 C33.098,65.214 35.204,65.526 35.204,65.526 C36.92,65.786 37.882,66.202 38.662,66.904 C39.676,67.788 40.17,69.114 40.17,70.7 C40.17,74.106 37.388,76.135 33.514,76.135 C30.732,76.135 28.73,75.485 26.962,73.69 C26.962,73.69 28.834,71.844 28.834,71.844 C30.186,73.196 31.668,73.612 33.566,73.612 C35.984,73.612 37.388,72.572 37.388,70.778 C37.388,69.972 37.154,69.296 36.66,68.854 C36.192,68.412 35.724,68.23 34.632,68.074 C34.632,68.074 32.448,67.762 32.448,67.762 C30.94,67.554 29.744,67.034 28.938,66.28 C28.028,65.422 27.586,64.252 27.586,62.744 C27.586,59.52 29.926,57.31 33.774,57.31 C36.218,57.31 37.934,57.934 39.52,59.416 C39.52,59.416 37.726,61.184 37.726,61.184 C36.582,60.092 35.256,59.754 33.696,59.754 C31.512,59.754 30.316,61.002 30.316,62.64 C30.316,63.316 30.524,63.914 31.018,64.356 C31.486,64.772 32.24,65.084 33.098,65.214 ZM48.308,92.2 C49.296,91.004 50.362,90.64 51.792,90.64 C53.118,90.64 54.288,91.082 55.016,91.81 C56.342,93.136 56.498,95.372 56.498,97.374 C56.498,99.376 56.342,101.638 55.016,102.965 C54.288,103.693 53.144,104.135 51.818,104.135 C50.414,104.135 49.322,103.771 48.36,102.626 C48.36,102.626 48.36,109.309 48.36,109.309 C48.36,109.309 45.708,109.309 45.708,109.309 C45.708,109.309 45.708,90.796 45.708,90.796 C45.708,90.796 48.308,90.796 48.308,90.796 C48.308,90.796 48.308,92.2 48.308,92.2 ZM51.116,101.768 C53.508,101.768 53.846,99.714 53.846,97.374 C53.846,95.034 53.508,93.006 51.116,93.006 C48.724,93.006 48.36,95.034 48.36,97.374 C48.36,99.714 48.724,101.768 51.116,101.768 Z "/></svg>