<?xml version="1.0" encoding="utf-8"?>
<!-- Generator: Adobe Illustrator 17.1.0, SVG Export Plug-In . SVG Version: 6.00 Build 0)  -->
<!DOCTYPE svg PUBLIC "-//W3C//DTD SVG 1.1//EN" "http://www.w3.org/Graphics/SVG/1.1/DTD/svg11.dtd">
<svg version="1.1" id="Layer_1" xmlns:ev="http://www.w3.org/2001/xml-events"
	 xmlns="http://www.w3.org/2000/svg" xmlns:xlink="http://www.w3.org/1999/xlink" x="0px" y="0px" viewBox="246.6 0 595.2 595.3"
	 enable-background="new 246.6 0 595.2 595.3" xml:space="preserve">
<path fill="#FFB31A" d="M544.2,595.3c-164.4,0-297.6-133.2-297.6-297.6S379.8,0,544.2,0s297.6,133.2,297.6,297.6
	S708.7,595.3,544.2,595.3z"/>
<g>
	<path fill="#F5F2ED" d="M463.6,209.9v-9.4H415v9.4h19v59.7h10.5v-59.7H463.6z"/>
	<path fill="#F5F2ED" d="M504.2,269.7v-32.9c0-11.2-6.8-16.9-20.3-16.9c-8.2,0-13,1.7-17.7,7.1l6.5,6.1c2.7-3.5,5.3-4.8,10.8-4.8
		c7.7,0,10.8,3,10.8,9.2v3.5h-13c-11.3,0-17,5.9-17,14.2c0,4.2,1.4,8,3.9,10.6c3,3,7.1,4.5,13.2,4.5c6.1,0,9.5-1.5,13.1-5.1v4.5
		H504.2z M494.3,251.9c0,3.5-0.7,5.8-2.1,7.3c-2.6,2.5-5.4,2.8-9.2,2.8c-6.2,0-9-2.5-9-7c0-4.5,3-7.1,8.8-7.1h11.6V251.9z"/>
	<path fill="#F5F2ED" d="M559.7,245c0-7.5-0.6-15.8-5.5-20.8c-2.7-2.7-7.1-4.4-12-4.4c-5.3,0-9.3,1.4-13,5.8v-5.2h-9.7v69.2h9.9v-25
		c3.6,4.3,7.7,5.6,12.9,5.6c5,0,9.2-1.7,11.9-4.4C559.2,260.9,559.7,252.5,559.7,245z M549.8,245c0,8.7-1.3,16.4-10.2,16.4
		s-10.3-7.7-10.3-16.4c0-8.7,1.4-16.3,10.3-16.3S549.8,236.3,549.8,245z"/>
	<path fill="#F5F2ED" d="M617,269.7v-8.5H613c-3.7,0-5.4-2.1-5.4-5.7v-26.6h9.5v-7.6h-9.5v-15h-9.9v15H592v7.6h5.6V256
		c0,7.1,4.3,13.7,13.5,13.7H617z"/>
	<path fill="#F5F2ED" d="M668.1,245c0-8.3-1.2-14.5-5.8-19.3c-3.2-3.3-8.1-5.8-14.8-5.8c-6.7,0-11.5,2.5-14.7,5.8
		c-4.7,4.9-5.8,11.1-5.8,19.3c0,8.4,1.2,14.6,5.8,19.4c3.2,3.3,8,5.8,14.7,5.8c6.7,0,11.6-2.5,14.8-5.8
		C667,259.6,668.1,253.4,668.1,245z M658.2,245c0,5.3-0.4,10.5-3.4,13.5c-1.8,1.8-4.4,2.9-7.3,2.9s-5.3-1.1-7.2-2.9
		c-3-3-3.4-8.2-3.4-13.5c0-5.3,0.4-10.5,3.4-13.5c1.8-1.8,4.3-2.8,7.2-2.8s5.4,1,7.3,2.8C657.8,234.5,658.2,239.7,658.2,245z"/>
	<path fill="#F5F2ED" d="M406.6,374.3v-31.5c0-5.5-1.2-10.2-5-13.9c-2.9-2.8-7.1-4.5-12.1-4.5c-5,0-9.7,1.8-13.1,5.5v-5h-9.7v49.2
		h9.9v-30c0-7.6,4.7-11,10.2-11c5.5,0,9.9,3.3,9.9,11v30H406.6z"/>
	<path fill="#F5F2ED" d="M458.1,374.3v-32.9c0-11.2-6.8-16.9-20.3-16.9c-8.2,0-13,1.7-17.7,7.1l6.5,6.1c2.7-3.5,5.3-4.8,10.8-4.8
		c7.7,0,10.8,3,10.8,9.2v3.5h-13c-11.3,0-17,5.9-17,14.2c0,4.2,1.4,8,3.9,10.6c3,3,7.1,4.5,13.2,4.5c6.1,0,9.5-1.5,13.1-5.1v4.5
		H458.1z M448.2,356.5c0,3.5-0.7,5.8-2.1,7.3c-2.6,2.5-5.4,2.8-9.2,2.8c-6.2,0-9-2.5-9-7s3-7.1,8.8-7.1h11.6V356.5z"/>
	<path fill="#F5F2ED" d="M510.4,325H500l-11.6,34.7L476.7,325h-10.5l18.1,49.2h8.1L510.4,325z"/>
	<path fill="#F5F2ED" d="M529,374.3V325h-9.9v49.2H529z M529.3,315.3v-10.5h-10.5v10.5H529.3z"/>
	<path fill="#F5F2ED" d="M582.3,374v-49h-9.6v5.2c-3.7-4.5-7.7-5.8-12.9-5.8c-5,0-9.1,1.6-11.8,4.3c-4.8,4.8-5.5,11.7-5.5,20
		s0.8,15.2,5.5,20c2.7,2.7,6.8,4.4,11.8,4.4c5.1,0,9.1-1.4,12.7-5.6v6.3c0,6.6-3.2,12.5-11.6,12.5c-4.9,0-7.6-1.5-10.7-4.4l-6.3,6.3
		c5.1,4.8,9.9,6.5,17.4,6.5C574.4,394.8,582.3,386,582.3,374z M572.4,348.7c0,7.8-1.1,15.4-10,15.4c-8.9,0-10.1-7.7-10.1-15.4
		s1.2-15.4,10.1-15.4C571.3,333.3,572.4,341,572.4,348.7z"/>
	<path fill="#F5F2ED" d="M634.3,374.3v-32.9c0-11.2-6.8-16.9-20.3-16.9c-8.2,0-13,1.7-17.7,7.1l6.5,6.1c2.7-3.5,5.3-4.8,10.8-4.8
		c7.7,0,10.8,3,10.8,9.2v3.5h-13c-11.3,0-17,5.9-17,14.2c0,4.2,1.4,8,3.9,10.6c3,3,7.1,4.5,13.2,4.5c6.1,0,9.5-1.5,13.1-5.1v4.5
		H634.3z M624.4,356.5c0,3.5-0.7,5.8-2.1,7.3c-2.6,2.5-5.4,2.8-9.2,2.8c-6.2,0-9-2.5-9-7s3-7.1,8.8-7.1h11.6V356.5z"/>
	<path fill="#F5F2ED" d="M670.1,374.3v-8.5H666c-3.7,0-5.4-2.1-5.4-5.7v-26.6h9.5v-7.6h-9.5v-15h-9.9v15h-5.6v7.6h5.6v27.1
		c0,7.1,4.3,13.7,13.5,13.7H670.1z"/>
	<path fill="#F5F2ED" d="M721.7,352.5v-4.4c0-14-7.7-23.7-20.9-23.7c-12.6,0-20.9,9.2-20.9,25.2c0,18.7,9.8,25.3,22.1,25.3
		c8.6,0,13.4-2.6,18.5-7.7l-6.3-5.9c-3.5,3.5-6.4,5.1-11.9,5.1c-8.1,0-12.5-5.3-12.5-13.8H721.7z M711.9,345.6h-22.1
		c0.1-3,0.3-4.5,1.3-6.7c1.6-3.7,5.1-6.2,9.8-6.2c4.7,0,8.2,2.5,9.7,6.2C711.5,341.1,711.8,342.6,711.9,345.6z"/>
</g>
</svg>
