<svg xmlns="http://www.w3.org/2000/svg" width="2560" height="720" viewBox="0 0 2560 720"><path opacity=".08" fill="#FFAD1D" d="M594.3 641.9c0-6.9 5.6-12.4 12.4-12.4s12.4 5.6 12.4 12.4c0 6.9-5.6 12.4-12.4 12.4s-12.4-5.5-12.4-12.4m-11.4 0c0 13.1 10.6 23.8 23.8 23.8s23.8-10.6 23.8-23.8c0-13.1-10.6-23.8-23.8-23.8s-23.8 10.7-23.8 23.8z"/><path opacity=".08" fill="#5BC462" d="M1343.9 610.2c0-6.9 5.6-12.4 12.4-12.4s12.4 5.6 12.4 12.4c0 6.9-5.6 12.4-12.4 12.4s-12.4-5.6-12.4-12.4m-11.4 0c0 13.1 10.6 23.8 23.8 23.8s23.8-10.6 23.8-23.8c0-13.1-10.6-23.8-23.8-23.8s-23.8 10.6-23.8 23.8z"/><path opacity=".08" fill="#00C7ED" d="M894.7 597.8c0-6.9 5.6-12.4 12.4-12.4s12.4 5.6 12.4 12.4c0 6.9-5.6 12.4-12.4 12.4s-12.4-5.6-12.4-12.4m-11.3 0c0 13.1 10.6 23.8 23.8 23.8 13.1 0 23.8-10.6 23.8-23.8 0-13.1-10.6-23.8-23.8-23.8-13.2 0-23.8 10.6-23.8 23.8zM1927.3 608.5c0-6.9 5.6-12.4 12.4-12.4s12.4 5.6 12.4 12.4c0 6.9-5.6 12.4-12.4 12.4s-12.4-5.6-12.4-12.4m-11.4 0c0 13.1 10.6 23.8 23.8 23.8s23.8-10.6 23.8-23.8c0-13.1-10.6-23.8-23.8-23.8s-23.8 10.6-23.8 23.8z"/><path opacity=".06" fill="#5BC462" d="M1139 162.3c-.1 6.9-5.7 12.4-12.6 12.3-6.9-.1-12.4-5.7-12.3-12.6.1-6.9 5.7-12.4 12.6-12.3 6.9 0 12.4 5.7 12.3 12.6m11.3.1c.2-13.1-10.3-23.9-23.5-24.1-13.1-.2-23.9 10.3-24.1 23.5-.2 13.1 10.3 23.9 23.5 24.1 13.2.1 24-10.4 24.1-23.5z"/><path opacity=".06" fill="#00C7ED" d="M1603.2 96.6c-.1 6.9-5.7 12.4-12.6 12.3-6.9-.1-12.4-5.7-12.3-12.6.1-6.9 5.7-12.4 12.6-12.3 6.9.1 12.4 5.8 12.3 12.6m11.3.2c.2-13.1-10.3-23.9-23.5-24.1s-23.9 10.3-24 23.5c-.2 13.1 10.3 23.9 23.5 24.1 13.1.1 23.9-10.4 24-23.5zM674.2 73.1c-.1 6.9-5.7 12.4-12.6 12.3s-12.4-5.7-12.3-12.6c.1-6.9 5.7-12.4 12.6-12.3 6.9 0 12.4 5.7 12.3 12.6m11.3.1c.2-13.1-10.3-23.9-23.5-24.1-13.1-.1-23.9 10.4-24 23.5-.2 13.1 10.3 23.9 23.5 24.1 13.1.1 23.9-10.4 24-23.5zM1981.2 138.6c-.1 6.9-5.7 12.4-12.6 12.3-6.9-.1-12.4-5.7-12.3-12.6.1-6.9 5.7-12.4 12.6-12.3 6.9.1 12.4 5.8 12.3 12.6m11.3.2c.2-13.1-10.3-23.9-23.5-24.1s-23.9 10.3-24.1 23.5c-.2 13.1 10.3 23.9 23.5 24.1 13.2.1 24-10.4 24.1-23.5zM1650.3 535.5c0-6.9 5.6-12.4 12.4-12.4s12.4 5.6 12.4 12.4c0 6.9-5.6 12.4-12.4 12.4s-12.4-5.6-12.4-12.4m-11.4 0c0 13.1 10.6 23.8 23.8 23.8s23.8-10.6 23.8-23.8c0-13.1-10.6-23.8-23.8-23.8s-23.8 10.6-23.8 23.8z"/></svg>