<svg xmlns="http://www.w3.org/2000/svg" width="385" height="585" viewBox="0 0 385 585"><path fill="#fff" d="M375.4 56.9c.3 0 .4 0 .4-.4 0-5.7 0-11.4 0-17.1 0-5.6 0-11.1 0-16.7-11.3 0-22.5 0-33.8 0-.3 0-.4.1-.4.4 0 11.3 0 22.5 0 33.8 4.2 0 8.4 0 12.6 0 7.1 0 14.2 0 21.2 0zM343 24.5c0-.2 0-.4.3-.4 5.1 0 10.2 0 15.4 0 5.1 0 10.1 0 15.2 0 .7 0 .6-.1.6.6 0 7.9 0 15.8 0 23.7 0 .3-.1.4-.4.4-.8 0-1.6 0-2.4 0-.3 0-.4-.1-.5-.3-1.6-4.3-3.2-8.5-4.8-12.8-.1-.1-.1-.3-.2-.4-.3-.5-.8-.5-1.2-.1-.1.1-.2.2-.2.3-2 3-3.9 5.9-5.9 8.9-.2.4-.3.3-.6 0-1.1-1.3-2.2-2.6-3.2-3.9-.5-.6-1-.6-1.4.1-1.5 2.6-3.1 5.1-4.6 7.7-.2.4-.4.5-.8.5-1.6 0-3.2 0-4.8 0-.3 0-.4-.1-.4-.4 0-5.5 0-11 0-16.5-.1-2.6-.1-5-.1-7.4zm26.5 24.2c-5.9 0-11.8 0-17.7 0-.4 0-.8 0-1.4 0 1.4-2.3 2.7-4.6 4.1-6.9 1.1 1.3 2.2 2.6 3.2 3.9.7.9 1.2 1.1 1.9-.1 1.8-2.8 3.6-5.5 5.5-8.2.1-.1.2-.3.3-.5.9 2.4 1.8 4.7 2.6 7 .5 1.5 1.1 2.9 1.7 4.4.1.3.1.4-.2.4zm-26.2 6.8c-.2 0-.3-.1-.3-.3 0-1.6 0-3.3 0-4.9 0-.3.2-.3.4-.3 2.1 0 4.3 0 6.4 0 3 0 6 0 9 0 5.1 0 10.2 0 15.3 0 .3 0 .4.1.4.4 0 1.6 0 3.2 0 4.7 0 .3-.1.3-.4.3-9.8 0-19.5 0-29.3 0-.5.1-1 .1-1.5.1zm35.3 3.7c0-5.3 0-10.6 0-15.9 0-5.2 0-10.4 0-15.6 0-.8 0-.8-.9-.8-.4 0-.5.1-.5.5 0 10.1 0 20.3 0 30.4 0 .4-.1.5-.5.5-10 0-20.1 0-30.1 0-.8 0-.8 0-.9.8 0 .5.1.5.5.5 10.6 0 21.2 0 31.8 0 .5 0 .6-.1.6-.4zm2.7-12.6V31.7c0-.8 0-.8-.8-.8-.4 0-.5.1-.5.5 0 9.6 0 19.2 0 28.9 0 .7 0 .7-.7.7-9.5 0-19 0-28.5 0-.9 0-.9 0-.9.9 0 .4.1.4.4.4 5.3 0 10.6 0 15.8 0 4.9 0 9.8 0 14.7 0 .4 0 .5-.1.5-.5 0-5.1 0-10.1 0-15.2zM352 34.4c1.7 0 3.1-1.5 3.1-3.3s-1.5-3.3-3.3-3.3-3.3 1.5-3.2 3.3c0 1.9 1.5 3.3 3.4 3.3zm-.1-5.2c1.1 0 1.9.8 1.9 1.9 0 1-.9 1.9-1.9 1.9-1.1 0-1.9-.9-1.8-2-.1-1 .7-1.8 1.8-1.8zm-27.1 463.2c0-1.5-.6-2.7-1.7-3.7-.7-.6-1.5-.9-2.4-1.1h-28.5l-.1.1c-2.4.4-4.1 2.5-4 5 .1 1.8 0 3.7 0 5.5 0 10.8 0 21.5 0 32.3 0 2.6 2.1 4.8 4.8 4.8 9 0 18.1 0 27.1 0 2.6 0 4.7-2.1 4.8-4.7 0-1.1 0-2.2 0-3.4 0-11.7 0-23.3 0-34.8zm-3.9 41c-.4.1-.8.2-1.2.2-8.8 0-17.7 0-26.5 0-2 0-3.4-1.3-3.4-3.4 0-4.2 0-8.5 0-12.7 0-2 0-4.1 0-6.1 0-6.1 0-12.3 0-18.4 0-1.2.2-2.3 1.2-3.1.6-.5 1.4-.7 2.2-.7 5.5 0 11.1 0 16.6 0 3.2 0 6.5 0 9.7 0 .9 0 1.7.1 2.4.7.9.7 1.3 1.7 1.3 2.8 0 6.3 0 12.7 0 19 0 6.1 0 12.3 0 18.4 0 1.6-.8 2.9-2.3 3.3zm-.9-38.7c0-.8 0-.8-.8-.8-8.6 0-17.1 0-25.7 0-.4 0-.6.1-.6.6 0 5.1 0 10.2 0 15.3 0 5.2 0 10.3 0 15.5 0 .4.1.5.5.5 2.9 0 5.8 0 8.7 0 5.8 0 11.6 0 17.4 0 .4 0 .6-.1.6-.5 0-3.1 0-6.1 0-9.2-.1-7.2-.1-14.3-.1-21.4zm-2 29.4c-7.7 0-15.3 0-23 0-.4 0-.5-.1-.5-.5 0-9.2 0-18.4 0-27.6 0-.4.1-.5.5-.5 7.7 0 15.4 0 23.1 0 .4 0 .4.2.4.5 0 4.6 0 9.2 0 13.8 0 4.6 0 9.2 0 13.8-.1.3-.1.5-.5.5zm-11.6 3.1c-1.3 0-2.4 1.1-2.4 2.4 0 1.3 1.1 2.3 2.5 2.3 1.2 0 2.3-1.1 2.3-2.3.1-1.4-1-2.4-2.4-2.4zm.1 3.2c-.4 0-.8-.4-.8-.8s.4-.8.8-.8.8.4.8.8-.4.8-.8.8zm0-38.1c.4 0 .8-.3.8-.8 0-.4-.3-.8-.8-.8-.4 0-.8.4-.8.8 0 .5.4.8.8.8zM121.3 232.7c1.3-1.2 2.7-2.1 4.4-2.6 1.5-.4 3-.5 4.5-.5 2 0 3.9.1 5.7.8 1.3.5 2.4 1.3 3.4 2.2.6.5 1.1.5 1.5.1s.3-.9-.3-1.5c-1.8-1.7-3.9-2.8-6.4-3.2-.6-.1-1.3-.2-1.9-.3h-3.8c-.2.1-.5.1-.7.1-3 .3-5.6 1.4-7.8 3.5-.5.5-.5 1.1 0 1.4.4.5.9.5 1.4 0zm28.9 39.1c-.2-.3-.3-.5-.3-.9 0-2.8 0-5.5 0-8.3 0-.9 0-1.8-.3-2.7-.5-1.8-1.6-3.3-2.9-4.6-1.6-1.7-3.5-3.1-5.4-4.6-.2-.2-.3-.4-.3-.7 0-1 0-1.9 0-2.9 0-2.1-1.5-3.6-3.6-3.6-4.1 0-8.3 0-12.4 0-2 0-3.6 1.6-3.6 3.5 0 1.2 0 2.5 0 3.7 0 6.4 0 12.7 0 19.1 0 1.9 1.5 3.4 3.4 3.4 3 0 6 0 8.9 0 .3 0 .5 0 .7-.2.3-.3.4-.6.2-.9-.2-.4-.5-.6-1-.6-2.9 0-5.7 0-8.6 0-1.3 0-2-.7-2-2 0-.1 0-.3 0-.4 0-5.3 0-10.7 0-16 0-2 0-3.9 0-5.9 0-1.4.7-2.1 2.1-2.1.1 0 .2 0 .3 0 3.8 0 7.6 0 11.4 0 1.6 0 2.3.7 2.3 2.2 0 2.4 0 4.8 0 7.2 0 .6.3 1 .9 1.1.6 0 .9-.4.9-1.1 0-.6 0-1.2 0-2 1.7 1.3 3.2 2.5 4.5 3.9 1.8 1.8 2.7 3.9 2.6 6.4-.1 2.7 0 5.4 0 8 0 .5.1 1 .4 1.4.6.8 1.1 1.6 1.6 2.4 1.1 1.6 2.2 3.2 3.3 4.8.3.4.6.7 1.1.5.6-.2.8-.8.4-1.5-1.3-1.9-2.9-4.3-4.6-6.6zm-12.2-2.7c.9 1.3 1.5 2.6 1.2 4.2 0 .1 0 .2 0 .3 0 .7 0 1.4 0 2.1 0 1.7.9 3.1 2 4.4.3.4.8.4 1.2.1s.4-.8.2-1.2c-.2-.3-.4-.6-.6-.9-.6-.8-.9-1.7-1-2.7 0-1.4 0-2.8 0-4.2 0-.5-.1-.9-.4-1.3-1.5-2.3-3-4.6-4.5-6.9-.5-.7-.4-1.7.2-2.2.6-.5 1.7-.5 2.3.1.2.2.4.4.7.7 1.5 1.5 3 2.9 4.5 4.4.5.5 1 .5 1.4.1s.3-.9-.2-1.4c-1.7-1.7-3.4-3.4-5.1-5-1.3-1.2-3.4-1.3-4.7-.2-1.2 1-1.5 3-.5 4.4 1.1 1.7 2.2 3.5 3.3 5.2zm.1-32.8c.3-.4.3-.9-.1-1.3-.5-.5-1-.9-1.5-1.2-1.8-1.2-3.9-1.5-6.3-1.5-.5 0-1.3 0-2 .1-2.2.2-4 1.2-5.5 2.7-.5.5-.5 1 0 1.4.3.3.9.3 1.3-.1 1.4-1.4 3.2-2.1 5.2-2.2 1.9-.1 3.8-.1 5.5.7.8.4 1.5.9 2.1 1.5.4.3 1 .3 1.3-.1zm-10.2.8c-.9.3-1.8.8-2.5 1.4-.5.4-.5.9-.2 1.3s.8.4 1.3.1c.2-.1.3-.3.5-.4 1.4-1 3-1.4 4.7-.9.9.2 1.7.7 2.4 1.3.5.4 1 .3 1.3-.1.3-.4.3-.9-.2-1.3-1.4-1.2-3.1-1.9-5-1.9-.7 0-1.5.2-2.3.5zm-.2 13.5c.5 0 .9-.4.9-.9s-.4-.9-.9-.9-.9.4-.9.9c0 .6.4.9.9.9zm3.5 0c.5 0 .9-.4.9-.9s-.4-.8-.9-.8-.9.4-.8.9c0 .5.4.8.8.8zm4.5-.8c0-.5-.4-.9-.9-.9s-.9.4-.9.8c0 .5.4.9.9.9s.9-.3.9-.8zm-8.1 4.3c-.5 0-.9.4-.9.9s.4.9.9.9.9-.4.9-.9-.4-.9-.9-.9zm3.6 1.8c.5 0 .9-.4.9-.9s-.4-.9-.9-.9-.9.4-.9.9.4.9.9.9zm3.6 0c.5 0 .9-.4.9-.9s-.4-.9-.9-.9-.9.4-.9.9.4.9.9.9zm-6.3 4.4c0-.5-.4-.9-.8-.9-.5 0-.9.3-.9.8s.4.9.9.9c.4 0 .8-.3.8-.8zm2.7-.9c-.5 0-.9.4-.9.9s.4.9.9.9.9-.4.9-.9-.4-.9-.9-.9zm-3.5 7c.5 0 .9-.4.9-.9s-.4-.9-.9-.9-.9.4-.9.9.4.9.9.9zm2.6-.9c0 .5.4.9.9.8.5 0 .9-.4.9-.9s-.4-.9-.9-.9c-.5.1-.9.5-.9 1zM209.2 69c-.3 0-.4-.1-.4-.4.1-1.1-.1-2-.8-2.9-.6-.7-1.4-1.2-2.3-1.3-.3 0-.4-.2-.4-.4-.5-5.4-4.3-10-9.7-11.3-.5-.1-1.1-.2-1.6-.3h-1.8c-.8.2-1.7.2-2.5.5-3.1.9-5.5 2.7-7.2 5.4-1.1 1.7-1.8 3.6-1.9 5.7 0 .2-.1.3-.3.4-2 .5-3 1.9-3 4 0 .4 0 .5-.5.6-1.7.3-3.1 1.3-3.4 3.2 0 0 0 .1-.1.1v1.2c.2.6.4 1.3.8 1.8.7.9 1.7 1.3 2.8 1.5.3 0 .4.1.4.4s0 .6 0 .9c0 1 .3 1.9 1 2.5s1.5.8 2.4.8c1.2 0 2.4 0 3.6 0 .7 0 .9-.2.9-.9 0-2.9 0-5.8 0-8.8 0-2.2 0-4.4 0-6.6 0-.7-.2-.9-.9-.9s-1.3 0-2 0c-.3 0-.4-.1-.3-.4.1-.3.1-.7.1-1 .7-3.5 2.7-6.1 5.8-7.8 2.5-1.4 5.2-1.7 8-1 2.3.6 4.3 1.9 5.8 3.8 1.4 1.8 2.2 3.8 2.5 6.1 0 .3-.1.4-.3.4-.6 0-1.1 0-1.7 0-.8 0-1 .2-1 1 0 5.1 0 10.2 0 15.3 0 .7.2.9.9.9 1.2 0 2.3 0 3.5 0 .3 0 .3.1.3.3 0 .5 0 1 0 1.4-.1 2.6-2.1 4.8-4.7 5-.9.1-1.8 0-2.7 0-.4 0-.5-.1-.6-.4-.4-1.4-1.9-2.2-3.5-2-1.4.2-2.6 1.5-2.6 2.9-.1 1.7 1 3 2.6 3.3 1.5.3 3-.6 3.6-2.1.1-.2.2-.3.4-.3.7 0 1.5 0 2.2 0 3.2 0 5.8-2 6.5-5.1.2-1 .2-1.9.2-2.9 0-.3.1-.5.4-.6.7-.4 1.1-1 1.4-1.7.2-.7.2-1.3.1-2 0-.3.1-.4.4-.5 1.1-.1 2-.6 2.8-1.5.4-.5.6-1.2.8-1.8v-1.2c-.2-.6-.4-1.3-.8-1.8-1.1-.9-2.1-1.3-3.2-1.5zm-32.4 6.4c-1-.2-1.9-.7-2.2-1.8-.4-1.6.4-3 2.3-3.3.3 0 .2.1.2.3 0 .8 0 1.5 0 2.3 0 .7 0 1.5 0 2.2 0 .4-.1.4-.3.3zm6.6-9.8c.3 0 .4.1.4.4 0 2.3 0 4.6 0 6.9s0 4.6 0 6.9c0 .3-.1.4-.4.4-1.1 0-2.1.1-3.2-.1-1-.1-1.5-.6-1.6-1.6-.1-1.6 0-3.1-.1-4.7 0-1.8 0-3.6 0-5.4 0-1.7 1-2.8 2.7-2.8.7 0 1.4 0 2.2 0zm11.3 25.1c-1 0-1.9-.8-1.9-1.8s.8-1.8 1.9-1.8c1 0 1.8.8 1.8 1.9 0 .9-.9 1.7-1.8 1.7zm12.8-12.2c-.1 1-.6 1.5-1.5 1.6-1.2.2-2.3.1-3.5.1-.3 0-.2-.2-.2-.3 0-1.4 0-2.9 0-4.3 0-.9 0-1.7 0-2.6 0-2.3 0-4.6 0-6.9 0-.3.1-.4.4-.4.9 0 1.8-.1 2.6.1 1.4.2 2.3 1.1 2.3 2.6 0 3 0 6.1 0 9.1-.1.2-.1.6-.1 1zm2-3.1c-.7.2-.6.2-.6-.5s0-1.3 0-2 0-1.5 0-2.2c0-.4.1-.4.4-.3 1.1.3 2 .8 2.2 2 .2 1.4-.6 2.6-2 3zm-70.7 402c-2.5-1.6-5.1-2.8-7.7-4-.3-.1-.5-.3-.4-.6 0-.5 0-1 0-1.5s0-.9.5-1.3c.2-.1.3-.4.4-.6.5-.9.7-2 .8-3 0-.2 0-.3.2-.5.4-.3.7-.7.8-1.2.3-1.2.4-2.3-.6-3.2-.1-.1-.1-.3 0-.4.2-.6.4-1.2.5-1.8.4-2.4-.6-4.1-2.8-4.9-1.8-.7-3.6-.8-5.4-.4-1.5.3-2.9.9-3.8 2.3-.1.2-.3.2-.4.2-1.6 0-2 1.3-1.8 2.4.1.8.4 1.5.7 2.2.1.1.2.3 0 .4-.7.5-1 1.3-1 2.1 0 1 .2 1.9 1.2 2.4.2.1.2.3.2.4.1 1.2.3 2.5 1.2 3.3.6.6.8 1.2.7 2 0 .3 0 .6 0 1 .1.4-.1.5-.5.7-2.5 1-5 2.3-7.3 3.7-.9.6-1.9 1.1-2.4 2.1v4.8c.2.3.5.5.9.5 9.1 0 18.2 0 27.3 0 .6 0 .9-.3.9-.9 0-1.3 0-2.6 0-4 0-.5-.2-.9-.5-1.2-.7-.3-1.2-.7-1.7-1zm.5 5.4c0 .3-.1.4-.4.4-4.2 0-8.5 0-12.7 0s-8.3 0-12.5 0c-.7 0-.6.1-.6-.6 0-.8 0-1.7 0-2.5 0-.3.1-.5.3-.7 1.3-1.1 2.8-1.9 4.3-2.6 1.6-.8 3.1-1.5 4.8-2.2.5-.2.8-.5.8-1.1 0-1 0-2.1 0-3.1 0-.4-.1-.7-.5-1-.6-.4-.9-1-1.1-1.7-.2-.6-.3-1.2-.3-1.9 0-.6-.2-.8-.8-.9-.3-.1-.4-.2-.5-.5-.2-.4-.1-.9 0-1.3.1-.2.2-.4.5-.4.7-.2.9-.5.6-1.2-.2-.7-.6-1.4-.8-2.1 0-.1 0-.1-.1-.2-.3-1.1-.2-1.2.9-1.1.4 0 .8-.1.9-.5.2-.7.7-1.2 1.4-1.5 2.2-1 4.4-1 6.6 0 1.4.7 1.7 1.5 1.5 3.1-.1.8-.4 1.4-.7 2.1-.3.8-.2 1.1.6 1.4.1 0 .1.1.2.1.4.3.2 1.9-.3 2.1s-.6.6-.6 1.1c0 1-.1 1.9-.6 2.8-.1.3-.3.5-.6.7s-.5.5-.5.9c0 1 0 2 0 3 0 .6.2.9.8 1.2 2.6 1.1 5.1 2.3 7.5 3.7.6.3 1.1.7 1.6 1.1.2.2.3.4.3.7 0 .8 0 1.8 0 2.7zm15.6-41.8c-9.6 0-19.1 0-28.7 0 0 2.3 0 4.7 0 7 0 1 0 .9.9 1 .4 0 .5-.1.5-.5 0-1.9 0-3.8 0-5.7 0-.3.1-.4.4-.4 8.4 0 16.8 0 25.2 0 .4 0 .6.1.6.5 0 4.5 0 9 0 13.5 0 .4-.1.5-.5.5-1.7 0-3.5 0-5.2 0-.3 0-.5.1-.7.3-1.6 1.8-3.2 3.6-4.8 5.4-.1.1-.1.2-.3.2-.1-.2 0-.3 0-.5 0-1.7 0-3.3 0-5 0-.3-.1-.4-.4-.4-1 0-1.9 0-2.9 0-1.1 0-1.1 0-1.1 1.1 0 .3.1.4.4.4.7 0 1.4 0 2.1 0 .3 0 .4.1.4.4 0 1.9 0 3.8 0 5.8 0 .7 0 1.4 0 2.2.2 0 .3-.1.3-.2 2.3-2.6 4.7-5.2 7-7.8.2-.2.3-.3.6-.3 2.2 0 4.4 0 6.6 0 0-5.7 0-11.4 0-17.1 0-.4 0-.4-.4-.4zm-17.7 8.7c-.8 0-.8 0-.7 1.1 0 .8.7.3 1 .4.8 0 .3-.7.4-1 .1-.7-.5-.4-.7-.5zm5 .8c0-.8 0-.8-.8-.8-.2.1-.7-.3-.7.4 0 1 0 1 .6 1 .9.1.9.1.9-.6zm4.4-.1c0-.7 0-.7-.7-.7-.8 0-.8 0-.8.8 0 .7 0 .7.7.7.8 0 .8 0 .8-.8zM57.7 154.8c-1.6-.6-3.2-.7-4.9-.3-.5.1-1 .5-1.5.3s-.8-.7-1.1-1.1c-1.6-1.6-3.2-3.2-4.8-4.8-.4-.4-.8-.5-1.2-.1-.3.3-.2.7.2 1.1.7.7 1.4 1.4 2.1 2.1 1.2 1.2 2.3 2.3 3.5 3.5-.2.1-.3.2-.4.2-1.5 1-2.8 2.2-3.3 4-.1.2-.2.2-.4.2-2.5 0-4.9 0-7.4 0-2.1 0-3.6.9-4.6 2.8-.3.5-.3 1-.5 1.5v21.5c.2.5.3 1.1.5 1.5 1 1.8 2.5 2.8 4.6 2.8 10.8 0 21.5 0 32.3 0 2.6 0 4.5-1.6 5.1-4.2 0-.1.1-.1.1-.2v-21.5c0-.1-.1-.1-.1-.2-.6-2.6-2.5-4.1-5.1-4.2-2.4 0-4.9 0-7.3 0-.3 0-.4-.1-.5-.4-.2-.8-.7-1.5-1.2-2.1-.7-.8-1.5-1.4-2.4-1.9 1.6-1.6 3.2-3.3 4.9-4.9.3-.3.6-.6.8-.9.3-.4.3-.8 0-1.1s-.7-.3-1.1.2c-1.9 1.9-3.8 3.8-5.7 5.8-.2.5-.4.5-.6.4zm13.3 6.7c2 0 3.6 1.6 3.6 3.7 0 1.6 0 3.1 0 4.7 0 5 0 9.9 0 14.9 0 2.4-1.5 4-3.9 4-6.3 0-12.7 0-19 0-4.4 0-8.8 0-13.2 0-2.1 0-3.7-1.6-3.7-3.7 0-5.3 0-10.6 0-15.8 0-1.3 0-2.6 0-3.9 0-2.2 1.6-3.8 3.7-3.8 5.4 0 10.8 0 16.2 0 5.4-.1 10.9-.1 16.3-.1zm-10.3-3.1c.4.4.7.8.9 1.3.1.3.1.4-.2.4-1.6 0-3.3 0-4.9 0h-1.7c-2.2 0-4.3 0-6.5 0-.5 0-.5 0-.3-.5.7-1.3 1.8-2.1 3-2.8 3.6-2.1 7.3-.8 9.7 1.6zm-14.4 4.5c-1.7 0-3.4.2-5.1.7-2.6.8-3.7 2.1-3.6 4.8.1 2.1 0 4.2 0 6.3 0 2.4 0 4.9 0 7.3 0 .5.1.9.2 1.4.6 1.5 1.8 2.3 3.2 2.9 1.9.8 3.9 1 6 1 3.1 0 6.2.2 9.3-.2 1.7-.2 3.3-.6 4.7-1.4 1.4-.9 2.3-2.1 2.2-3.8 0-4.3 0-8.7 0-13 0-.7.1-1.4-.1-2-.4-1.5-1.5-2.3-2.8-2.8-1.9-.8-4-1-6.1-1.1-2.6-.1-5.3-.1-7.9-.1zm14 2.7c1 .6 1.6 1.4 1.5 2.6 0 4.4-.1 8.8 0 13.2 0 1.7-.7 2.7-2.1 3.3-1.5.7-3 1-4.6 1.1-3.2.2-6.4.2-9.6 0-1.7-.1-3.3-.4-4.8-1.3-1-.6-1.6-1.5-1.6-2.8 0-2.3 0-4.7 0-7s0-4.6 0-7c0-1 .4-1.7 1.2-2.2 1-.6 2.1-.8 3.3-1 2.7-.4 5.3-.2 8-.3 2 0 4 0 6 .4.9.3 1.8.5 2.7 1zm8.6 9.5c-2 0-3.6 1.6-3.6 3.6s1.6 3.6 3.5 3.6c2 0 3.6-1.6 3.6-3.6.1-1.9-1.5-3.6-3.5-3.6zm0 5.8c-1.1 0-2.1-1-2.1-2.1s1-2.2 2.1-2.2 2.1 1 2.1 2.1c0 1.2-.9 2.2-2.1 2.2zm0-8.6c2 0 3.5-1.6 3.5-3.6 0-1.9-1.6-3.6-3.5-3.6-2 0-3.6 1.6-3.6 3.6 0 1.9 1.7 3.6 3.6 3.6zm0-5.8c1.2 0 2.2 1 2.2 2.2 0 1.1-1 2.1-2.1 2.1-1.2 0-2.2-1-2.2-2.2 0-1.1.9-2.1 2.1-2.1zm9.7 378.6c-6 0-12 0-17.9 0H46.9c-1.2 0-1.9.5-2.4 1.7-.1.2-.1.4-.2.7v7.8c4.6 0 9.3 0 13.9 0 5.2 0 10.4 0 15.6 0 2.4 0 4.8 0 7.1 0v-7.8c-.2-.4-.2-.8-.4-1.2-.4-.8-1-1.2-1.9-1.2zM45.5 548c0-.3.1-.6.2-1 .2-.5.5-.7 1.1-.7.9 0 1.8 0 2.8 0-1.4 1.6-2.7 3.1-4.1 4.7 0-1.1 0-2.1 0-3zm3.2 6c-.9 0-1.9 0-2.8 0-.2 0-.3-.1-.3-.3 0-.5.1-.9.5-1.2 1.7-1.9 3.4-3.9 5.1-5.8.1-.1.2-.3.4-.3 1.3 0 2.6 0 3.9 0 .1 0 .1 0 .3 0-1.6 1.9-3.2 3.6-4.8 5.4-.6.7-1.2 1.3-1.8 2-.2.1-.3.2-.5.2zm6.1 0c-1.4 0-2.7 0-4.1 0 0 0 0 0-.1-.1 1.6-1.8 3.2-3.6 4.8-5.4.6-.7 1.2-1.3 1.8-2 .1-.1.2-.2.4-.2 1.3 0 2.6 0 4 0h.1c0 .1-.1.2-.1.2-2.1 2.4-4.3 4.8-6.4 7.2-.1.2-.2.3-.4.3zm6.7 0c-1.6 0-3.2 0-4.7 0 0-.1.1-.2.1-.3 2.1-2.4 4.3-4.8 6.4-7.2.1-.1.2-.2.4-.2 1.6 0 3.1 0 4.7 0 0 0 0 0 .1 0-1.3 1.4-2.5 2.8-3.7 4.2-1 1.1-1.9 2.1-2.9 3.2-.1.2-.2.3-.4.3zm6.2 0c-1.4 0-2.7 0-4.2 0 .6-.7 1.2-1.4 1.8-2 1.6-1.8 3.2-3.6 4.8-5.4.1-.1.2-.3.4-.3 1.4 0 2.8 0 4.2 0 0 .2-.1.2-.1.3-2.1 2.4-4.3 4.8-6.4 7.2-.3.1-.4.2-.5.2zm6.1 0c-1.4 0-2.8 0-4.3 0 1.7-1.9 3.3-3.7 4.9-5.5.6-.7 1.2-1.3 1.8-2 .1-.1.3-.2.5-.2.7 0 1.3 0 2 0 .4 0 1 .6 1 1.1 0 .1-.1.2-.2.3-1.8 2-3.5 4.1-5.3 6.1-.1.1-.2.2-.4.2zm6-.4c0 .2 0 .3-.3.3-1.2 0-2.5 0-3.9 0 1.4-1.6 2.7-3.1 4-4.6.1 0 .1.1.1.2.1 1.4.1 2.8.1 4.1zm-28.7 2.9c-2.3 0-4.6 0-6.8 0v21.8c.2.7.5 1.3 1.1 1.7.5.4 1.1.6 1.8.6 4.7 0 9.5 0 14.2 0 5.5 0 11 0 16.6 0 1.5 0 2.5-.7 2.9-2.2 0-.1.1-.1.1-.2v-21.8c-4.7 0-9.5 0-14.2 0-5.3.1-10.5.1-15.7.1zm28.7 1.9c0 6.4 0 12.8 0 19.2 0 1.3-.7 1.9-1.9 1.9-7.8 0-15.6 0-23.4 0-2.3 0-4.7 0-7 0-1.3 0-1.9-.7-1.9-2 0-6.4 0-12.9 0-19.3 0-.3.1-.3.3-.3 5.6 0 11.2 0 16.8 0 5.5 0 11.1 0 16.6 0 .5-.1.5-.2.5.5zm-23.3 4.2c0 2.1 0 4.1 0 6.2 0 2.1 0 4.2 0 6.2 0 .8.4 1 1.1.7 1.5-.8 3-1.6 4.5-2.3 2.5-1.3 5-2.6 7.5-3.9.3-.1.5-.3.5-.7 0-.3-.2-.5-.5-.7-4-2.1-8.1-4.2-12.1-6.3-.5-.2-1 .1-1 .8zm1.3.8c3.5 1.8 6.9 3.6 10.4 5.4-3.5 1.8-6.9 3.6-10.4 5.4v-10.8zM16.7 30.6c1.1 3.2 2.8 6 5.1 8.4.4.4.8.4 1.2.1.3-.3.3-.7-.1-1.1-.3-.3-.6-.6-.8-.9-5-6-6.3-12.8-3.8-20.1 3-8.7 11.4-14.2 20.6-13.5 4.1.3 7.8 1.6 11 4.2 5.8 4.6 8.4 10.7 7.8 18.1-.3 3.5-1.5 6.8-3.6 9.7-.7.9-1.4 1.8-2.2 2.6-.4.4-.4.8 0 1.1.3.3.7.3 1.1-.1 3.1-3.2 5.1-7 5.9-11.4.2-.8.2-1.7.4-2.5v-2.9c-.2-.8-.2-1.6-.3-2.4-.7-3.8-2.3-7.2-4.7-10.1-3.3-3.9-7.5-6.4-12.6-7.4-.9-.3-1.7-.4-2.5-.4-.1 0-.3 0-.4-.1h-2.9c-.8.1-1.7.2-2.5.4-5.4 1-9.8 3.7-13.2 8-2.4 3-3.9 6.5-4.5 10.4-.1.6-.1 1.1-.2 1.7v2.9c0 .1.1.2.1.3.2 1.6.5 3.3 1.1 5zm13.1-17.5c3.5-2.5 7.4-3.1 11.4-1.8 5 1.7 8 5.2 8.9 10.4.5 3-.1 5.8-1.6 8.4-.5 1-1.3 1.8-2 2.6-.4.4-.3.8 0 1.1s.7.2 1.1-.1c2.7-2.8 4.1-6.2 4.1-10.1 0-.9-.1-1.9-.3-2.8-.9-4.3-3.2-7.6-7-9.8-3.1-1.8-6.5-2.3-10-1.6-2.8.5-5.2 1.8-7.2 3.8-1.9 1.8-3.1 4-3.8 6.5-.6 2.1-.7 4.1-.3 6.2.5 3 1.8 5.6 4 7.8.3.3.7.4 1.1.1.4-.3.3-.7-.1-1.2-3.1-3.3-4.2-7.3-3.3-11.7.5-3.2 2.3-5.9 5-7.8zm-.1 32.4c2.6 0 5.1 0 7.7 0 2.6 0 5.2 0 7.8 0 .7 0 .9-.3.9-.9 0-.4 0-.8-.1-1.2-.5-3.5-1.9-6.5-4.7-8.8-2.3-1.8-5.3-1.9-7.6-.1-3.2 2.5-4.7 6-5 10-.1.7.2 1 1 1zm.5-1.9c.5-3.1 1.7-5.8 4.2-7.9 2.1-1.7 4.6-1.5 6.5.4 2.1 2 3.2 4.5 3.7 7.3 0 .6 0 .6-.6.6-2.2 0-4.4 0-6.7 0-2.2 0-4.5 0-6.7 0-.3 0-.5 0-.4-.4zm.6-19.3c0 3.6 2.8 6.6 6.5 6.6 3.6 0 6.6-2.9 6.6-6.5s-2.8-6.4-6.3-6.6c-3.8-.1-6.8 3-6.8 6.5zm11.6.1c0 2.7-2.3 5.1-5 5.1-2.8 0-5.1-2.2-5.2-5 0-2.8 2.2-5.1 5-5.1 2.9-.1 5.2 2.1 5.2 5zm-3.2 300.8c-.1 0-.1-.1-.2-.1-10.9 0-21.9-.1-32.8-.1-.7.2-1.3.4-1.9.8-.7.6-1.2 1.4-1.4 2.3 0 .1-.1.1-.1.2 0 7.7-.1 15.3-.1 23l.1.1c.3 1.9 2.1 3.2 4.2 3.2 4.6 0 9.1 0 13.7 0 5.9 0 11.7 0 17.6.1 1.3 0 2.4-.5 3.2-1.4.5-.5.7-1.2.9-1.8 0-7.7.1-15.3.1-23-.2-.6-.4-1.3-.9-1.8-.7-.8-1.5-1.3-2.4-1.5zm1.8 8.2c0 5.8 0 11.5-.1 17.3 0 1.7-1.1 2.8-2.9 2.8-8.3 0-16.5-.1-24.8-.1-2.1 0-4.3 0-6.4 0-1.1 0-2-.4-2.6-1.4-.2-.5-.2-1-.2-1.5 0-5.8 0-11.6.1-17.5 0-.2 0-.3.3-.3 6.1 0 12.1.1 18.2.1 6 0 11.9 0 17.9.1.6 0 .5-.1.5.5zm0-2.2c0 .3-.1.4-.4.4-3.2 0-6.3 0-9.5 0-2.9 0-5.8 0-8.6 0-6 0-12 0-18-.1-.3 0-.4-.1-.4-.4.1-.8-.1-1.6.1-2.4.2-1.5 1.2-2.3 2.8-2.3 3.6 0 7.2 0 10.8 0 5.1 0 10.2 0 15.2.1 1.7 0 3.5 0 5.2 0s2.8 1.1 2.8 2.8c0 .6 0 1.2 0 1.9zm-6.8 5.5c-5.2 0-10.4 0-15.5-.1-.5 0-1 0-1.4 0s-.7.3-.7.6.3.6.7.6c.1 0 .2 0 .2 0 2.7 0 5.5 0 8.2 0 1 0 2.1 0 3.1 0 1.8 0 3.5 0 5.3 0 .2 0 .5 0 .7-.2s.3-.4.2-.7c-.1-.1-.4-.2-.8-.2zm0 5.1c-2.8 0-5.6 0-8.4 0s-5.6 0-8.4 0c-.2 0-.5 0-.7.1-.2.2-.3.4-.2.7.1.3.4.5.8.5 3.2 0 6.4 0 9.6 0 2.4 0 4.8 0 7.2 0 .2 0 .4 0 .6-.2.2-.2.3-.4.2-.7-.1-.2-.3-.4-.7-.4zm0 5.2c-2.8 0-5.6 0-8.4 0s-5.6 0-8.4 0c-.2 0-.5 0-.6.2-.2.2-.3.4-.2.7.1.3.4.4.7.4 3.1 0 6.2 0 9.3 0 2.5 0 5 0 7.5 0 .2 0 .4 0 .6-.2.2-.2.3-.4.2-.7-.1-.3-.4-.4-.7-.4zm-22.3-10.4c-.8 0-1.6 0-2.5 0-.5 0-.7.2-.7.6s.3.7.8.7c.4 0 .8 0 1.2 0s.9 0 1.3 0 .7-.3.7-.7c-.1-.3-.4-.6-.8-.6zm.1 5.2c-.9 0-1.8 0-2.7 0-.4 0-.6.3-.6.7 0 .3.3.6.7.6s.8 0 1.3 0 .9 0 1.4 0c.4 0 .6-.3.6-.6-.1-.4-.4-.7-.7-.7zm-.1 5.1c-.9 0-1.7 0-2.6 0-.4 0-.7.3-.7.7 0 .4.3.6.7.6s.8 0 1.2 0 .9 0 1.3 0 .7-.3.7-.7c.1-.3-.2-.6-.6-.6zM8 327.6c-.7 0-1.3.6-1.3 1.3 0 .7.6 1.3 1.3 1.3s1.3-.6 1.3-1.3c0-.7-.5-1.3-1.3-1.3zm4 0c-.7 0-1.3.6-1.3 1.2 0 .8.6 1.3 1.3 1.3s1.3-.6 1.3-1.2c0-.7-.6-1.3-1.3-1.3zm3.9 0c-.7 0-1.3.6-1.3 1.3 0 .7.6 1.3 1.3 1.3.7 0 1.3-.6 1.3-1.3.1-.7-.5-1.3-1.3-1.3z"/></svg>