<?xml version="1.0" encoding="utf-8"?>
<!-- Generator: Adobe Illustrator 18.0.0, SVG Export Plug-In . SVG Version: 6.00 Build 0)  -->
<!DOCTYPE svg PUBLIC "-//W3C//DTD SVG 1.1//EN" "http://www.w3.org/Graphics/SVG/1.1/DTD/svg11.dtd">
<svg version="1.1" id="Layer_1" xmlns="http://www.w3.org/2000/svg" xmlns:xlink="http://www.w3.org/1999/xlink" x="0px" y="0px"
	 width="245px" height="605px" viewBox="0 0 245 605" enable-background="new 0 0 245 605" xml:space="preserve">
<g>
	<g>
		<path fill="none" stroke="#FFFFFF" stroke-width="2" stroke-miterlimit="10" d="M92.7,178.1l2.3,3c3.2,4.2,8.9,4.6,13.5,2
			c4.2-2.3,8.5-3.6,12.4-3.6c6.6,0,10.4,2.9,10.4,7.6v0.1c0,5.9-5.7,14.4-21.7,15.7l-0.6,0.6c-0.3,0.3,0.1,4.8,0.9,10l0.6,4.2
			c0.8,5.2,5.1,9.4,9.8,9.4c4.6,0,8.7-2,9.2-4.4s0.8-4.4,0.8-4.4c15.3-3.7,26.9-15.9,26.9-33.2V185c0-17.9-14.2-28.9-34.5-28.9
			c-11.7,0-21,3.3-28.5,8.4C90,167.5,89.6,174,92.7,178.1z M115.8,235.2c-5.3,0-9.5,4.2-9.5,9.5v4.4c0,5.2,4.3,9.5,9.5,9.5h8.2
			c5.3,0,9.5-4.2,9.5-9.5v-4.4c0-5.2-4.3-9.5-9.5-9.5L115.8,235.2L115.8,235.2z M125.9,371.8l0.1-0.2c6.4-10.9,1.6-22.6-10.7-29.9
			c-7.1-4.2-13.9-5.5-20.3-5.1c-3.7,0.3-6.2,4.1-5.8,7.7l0.3,2.7c0.4,3.7,3.8,5.9,7.5,6c3.4,0.1,6.4,0.9,8.8,2.3
			c4,2.4,5.3,5.4,3.6,8.3v0.1c-2.1,3.6-8.6,6.7-18.8,1.8l-0.6,0.2c-0.3,0.1-1.7,3-3,6.4l-1.1,2.8c-1.4,3.4-0.2,7.5,2.6,9.2
			c2.8,1.6,6,1.9,7.1,0.6s2.1-2.4,2.1-2.4C108.4,385.6,119.7,382.3,125.9,371.8z M87.9,390.3l-5-2.9c-3.2-1.9-7.3-0.8-9.2,2.4
			l-1.6,2.7c-1.9,3.2-0.8,7.3,2.4,9.2l5,2.9c3.2,1.9,7.3,0.8,9.2-2.4l1.6-2.7C92.2,396.3,91.1,392.2,87.9,390.3z M225.2,49.5
			c3.1-0.7,5.6-2.6,5.6-4.3s-0.1-3.1-0.1-3.1c9.9-4.7,16-14.6,13.5-26.4v-0.2c-2.5-12.2-13.7-17.6-27.5-14.7
			c-7.9,1.7-13.8,5.2-18.1,9.8c-2.5,2.6-1.9,7.1,0.9,9.5l2,1.7c2.7,2.4,6.7,1.8,9.4-0.5c2.5-2.2,5.2-3.6,7.9-4.2
			c4.5-0.9,7.4,0.5,8.1,3.7v0.1c0.8,4-1.8,10.6-12.5,13.8l-0.3,0.5c-0.2,0.3,0.7,3.3,2,6.7l1,2.8C218.5,47.9,222.1,50.2,225.2,49.5z
			 M236.6,59.5c-0.7-3.6-4.2-5.8-7.8-5.1l-5.5,1.2c-3.6,0.7-5.8,4.2-5.1,7.8l0.6,3c0.7,3.6,4.2,5.8,7.8,5.1l5.5-1.2
			c3.6-0.7,5.8-4.2,5.1-7.8L236.6,59.5z M67.7,39.1C61.5,22.3,44.3,16.9,25.3,24c-11,4-18.6,10.4-23.8,17.7C-1.6,46,0.3,52.2,4.8,55
			L8,57c4.4,2.8,9.9,1.2,13.3-2.8c3.1-3.6,6.7-6.3,10.4-7.6c6.2-2.3,10.7-0.9,12.3,3.5v0.1c2,5.5-0.3,15.4-14.9,22.3L29,73.3
			c-0.2,0.4,1.7,4.5,4.3,9.1l2.1,3.7c2.5,4.6,8.1,7,12.4,5.4s7.5-4.9,7.1-7.3s-0.7-4.4-0.7-4.4C67.1,71,73.8,55.6,67.8,39.3
			L67.7,39.1z M66.1,103.3c-1.8-4.9-7.3-7.4-12.2-5.6l-7.7,2.8c-4.9,1.8-7.5,7.3-5.6,12.2l1.5,4.1c1.8,4.9,7.3,7.4,12.2,5.6l7.7-2.8
			c4.9-1.8,7.5-7.3,5.6-12.2L66.1,103.3z M179.8,519.4c-4.7-17.2-21.4-24.1-40.9-18.7c-11.3,3.1-19.4,8.7-25.2,15.6
			c-3.4,4-2.1,10.4,2.1,13.5l3,2.3c4.2,3.2,9.8,2.1,13.5-1.6c3.4-3.3,7.2-5.7,11.1-6.7c6.4-1.8,10.8,0,12,4.5v0.1
			c1.6,5.7-1.7,15.3-16.7,20.9l-0.4,0.7c-0.2,0.4,1.4,4.6,3.5,9.4l1.7,3.9c2.1,4.8,7.4,7.7,11.9,6.4c4.4-1.2,7.9-4.2,7.7-6.7
			s-0.4-4.5-0.4-4.5C176.5,550.9,184.5,536.1,179.8,519.4L179.8,519.4z M172.7,583.3c-1.4-5-6.6-8-11.7-6.6l-7.9,2.2
			c-5.1,1.4-8.1,6.6-6.7,11.7l1.2,4.3c1.4,5,6.6,8,11.7,6.6l7.9-2.2c5.1-1.4,8.1-6.6,6.7-11.7L172.7,583.3z M29.1,254
			c3.9,0,6,1.8,6,4.5v0.1c0,3.5-3.4,8.4-12.8,9.1l-0.3,0.4c-0.2,0.2,0,2.8,0.4,5.8l0.3,2.5c0.4,3,2.9,5.5,5.6,5.5s5.1-1.1,5.4-2.5
			c0.3-1.4,0.5-2.6,0.5-2.6c9-2.1,15.8-9.1,16-19.2v-0.2c0.1-10.4-8.1-17-19.9-17.1c-6.8-0.1-12.3,1.8-16.7,4.7
			c-2.5,1.7-2.8,5.5-1,7.9l1.3,1.8c1.8,2.5,5.1,2.7,7.8,1.3C24.2,254.7,26.7,254,29.1,254z M25.4,300.1l4.8,0.1
			c3.1,0,5.6-2.4,5.6-5.5v-2.6c0-3.1-2.4-5.6-5.5-5.6l-4.8-0.1c-3.1,0-5.6,2.4-5.6,5.5v2.6C19.9,297.6,22.4,300.1,25.4,300.1z
			 M40.2,469.1c-6.8-0.1-12.3,1.8-16.7,4.7c-2.5,1.7-2.8,5.5-1,7.9l1.3,1.8c1.8,2.5,5.1,2.7,7.8,1.3c2.5-1.3,5-2,7.3-2
			c3.9,0,6,1.8,6,4.5v0.1c0,3.5-3.4,8.4-12.8,9.1l-0.3,0.4c-0.2,0.2,0,2.8,0.4,5.8l0.3,2.5c0.4,3,2.9,5.5,5.6,5.5
			c2.7,0,5.1-1.1,5.4-2.5c0.3-1.4,0.5-2.6,0.5-2.6c9-2.1,15.8-9.1,16-19.2v-0.2C60.3,475.7,52.1,469.2,40.2,469.1z M40.3,515.3
			l-4.8-0.1c-3.1,0-5.6,2.4-5.6,5.5v2.6c0,3.1,2.4,5.6,5.5,5.6l4.8,0.1c3.1,0,5.6-2.4,5.6-5.5v-2.6
			C45.8,517.8,43.4,515.3,40.3,515.3z M83.6,26c1.8,2.5,5.1,2.7,7.8,1.3c2.5-1.3,5-2,7.3-2c3.9,0,6,1.8,6,4.5v0.1
			c0,3.5-3.4,8.4-12.8,9.1l-0.3,0.4c-0.2,0.2,0,2.8,0.4,5.8l0.3,2.5c0.4,3,2.9,5.5,5.6,5.5s5.1-1.1,5.4-2.5s0.5-2.6,0.5-2.6
			c9-2.1,15.8-9.1,16-19.2v-0.2c0.1-10.4-8.1-17-19.9-17.1c-6.8-0.1-12.3,1.8-16.7,4.7c-2.5,1.7-2.8,5.5-1,7.9L83.6,26z M99.8,71.4
			c3.1,0,5.6-2.4,5.6-5.5v-2.6c0-3.1-2.4-5.6-5.5-5.6l-4.8-0.1c-3.1,0-5.6,2.4-5.6,5.5v2.6c0,3.1,2.4,5.6,5.5,5.6L99.8,71.4z"/>
	</g>
</g>
</svg>
