<?xml version="1.0" encoding="utf-8"?>
<!-- Generator: Adobe Illustrator 18.0.0, SVG Export Plug-In . SVG Version: 6.00 Build 0)  -->
<!DOCTYPE svg PUBLIC "-//W3C//DTD SVG 1.1//EN" "http://www.w3.org/Graphics/SVG/1.1/DTD/svg11.dtd">
<svg version="1.1" id="Layer_1" xmlns="http://www.w3.org/2000/svg" xmlns:xlink="http://www.w3.org/1999/xlink" x="0px" y="0px"
	 width="385px" height="585px" viewBox="0 0 385 585" enable-background="new 0 0 385 585" xml:space="preserve">
<path fill="#FFFFFF" d="M375.4,56.9c0.3,0,0.4,0,0.4-0.4c0-5.7,0-11.4,0-17.1c0-5.6,0-11.1,0-16.7c-11.3,0-22.5,0-33.8,0
	c-0.3,0-0.4,0.1-0.4,0.4c0,11.3,0,22.5,0,33.8c4.2,0,8.4,0,12.6,0C361.3,56.9,368.4,56.9,375.4,56.9L375.4,56.9z M343,24.5
	c0-0.2,0-0.4,0.3-0.4c5.1,0,10.2,0,15.4,0c5.1,0,10.1,0,15.2,0c0.7,0,0.6-0.1,0.6,0.6c0,7.9,0,15.8,0,23.7c0,0.3-0.1,0.4-0.4,0.4
	c-0.8,0-1.6,0-2.4,0c-0.3,0-0.4-0.1-0.5-0.3c-1.6-4.3-3.2-8.5-4.8-12.8c-0.1-0.1-0.1-0.3-0.2-0.4c-0.3-0.5-0.8-0.5-1.2-0.1
	c-0.1,0.1-0.2,0.2-0.2,0.3c-2,3-3.9,5.9-5.9,8.9c-0.2,0.4-0.3,0.3-0.6,0c-1.1-1.3-2.2-2.6-3.2-3.9c-0.5-0.6-1-0.6-1.4,0.1
	c-1.5,2.6-3.1,5.1-4.6,7.7c-0.2,0.4-0.4,0.5-0.8,0.5c-1.6,0-3.2,0-4.8,0c-0.3,0-0.4-0.1-0.4-0.4c0-5.5,0-11,0-16.5
	C343,29.3,343,26.9,343,24.5z M369.5,48.7c-5.9,0-11.8,0-17.7,0c-0.4,0-0.8,0-1.4,0c1.4-2.3,2.7-4.6,4.1-6.9
	c1.1,1.3,2.2,2.6,3.2,3.9c0.7,0.9,1.2,1.1,1.9-0.1c1.8-2.8,3.6-5.5,5.5-8.2c0.1-0.1,0.2-0.3,0.3-0.5c0.9,2.4,1.8,4.7,2.6,7
	c0.5,1.5,1.1,2.9,1.7,4.4C369.8,48.6,369.8,48.7,369.5,48.7z M343.3,55.5c-0.2,0-0.3-0.1-0.3-0.3c0-1.6,0-3.3,0-4.9
	c0-0.3,0.2-0.3,0.4-0.3c2.1,0,4.3,0,6.4,0c3,0,6,0,9,0c5.1,0,10.2,0,15.3,0c0.3,0,0.4,0.1,0.4,0.4c0,1.6,0,3.2,0,4.7
	c0,0.3-0.1,0.3-0.4,0.3c-9.8,0-19.5,0-29.3,0C344.3,55.5,343.8,55.5,343.3,55.5z M378.6,59.2c0-5.3,0-10.6,0-15.9
	c0-5.2,0-10.4,0-15.6c0-0.8,0-0.8-0.9-0.8c-0.4,0-0.5,0.1-0.5,0.5c0,10.1,0,20.3,0,30.4c0,0.4-0.1,0.5-0.5,0.5c-10,0-20.1,0-30.1,0
	c-0.8,0-0.8,0-0.9,0.8c0,0.5,0.1,0.5,0.5,0.5c10.6,0,21.2,0,31.8,0C378.5,59.6,378.6,59.5,378.6,59.2z M381.3,46.6V31.7
	c0-0.8,0-0.8-0.8-0.8c-0.4,0-0.5,0.1-0.5,0.5c0,9.6,0,19.2,0,28.9c0,0.7,0,0.7-0.7,0.7c-9.5,0-19,0-28.5,0c-0.9,0-0.9,0-0.9,0.9
	c0,0.4,0.1,0.4,0.4,0.4c5.3,0,10.6,0,15.8,0c4.9,0,9.8,0,14.7,0c0.4,0,0.5-0.1,0.5-0.5C381.3,56.7,381.3,51.7,381.3,46.6z M352,34.4
	c1.7,0,3.1-1.5,3.1-3.3s-1.5-3.3-3.3-3.3s-3.3,1.5-3.2,3.3C348.6,33,350.1,34.4,352,34.4z M351.9,29.2c1.1,0,1.9,0.8,1.9,1.9
	c0,1-0.9,1.9-1.9,1.9c-1.1,0-1.9-0.9-1.8-2C350,30,350.8,29.2,351.9,29.2z M324.8,492.4c0-1.5-0.6-2.7-1.7-3.7
	c-0.7-0.6-1.5-0.9-2.4-1.1h-28.5l-0.1,0.1c-2.4,0.4-4.1,2.5-4,5c0.1,1.8,0,3.7,0,5.5c0,10.8,0,21.5,0,32.3c0,2.6,2.1,4.8,4.8,4.8
	c9,0,18.1,0,27.1,0c2.6,0,4.7-2.1,4.8-4.7c0-1.1,0-2.2,0-3.4C324.8,515.5,324.8,503.9,324.8,492.4L324.8,492.4z M320.9,533.4
	c-0.4,0.1-0.8,0.2-1.2,0.2c-8.8,0-17.7,0-26.5,0c-2,0-3.4-1.3-3.4-3.4c0-4.2,0-8.5,0-12.7c0-2,0-4.1,0-6.1c0-6.1,0-12.3,0-18.4
	c0-1.2,0.2-2.3,1.2-3.1c0.6-0.5,1.4-0.7,2.2-0.7c5.5,0,11.1,0,16.6,0c3.2,0,6.5,0,9.7,0c0.9,0,1.7,0.1,2.4,0.7
	c0.9,0.7,1.3,1.7,1.3,2.8c0,6.3,0,12.7,0,19c0,6.1,0,12.3,0,18.4C323.2,531.7,322.4,533,320.9,533.4L320.9,533.4z M320,494.7
	c0-0.8,0-0.8-0.8-0.8c-8.6,0-17.1,0-25.7,0c-0.4,0-0.6,0.1-0.6,0.6c0,5.1,0,10.2,0,15.3c0,5.2,0,10.3,0,15.5c0,0.4,0.1,0.5,0.5,0.5
	c2.9,0,5.8,0,8.7,0c5.8,0,11.6,0,17.4,0c0.4,0,0.6-0.1,0.6-0.5c0-3.1,0-6.1,0-9.2C320,508.9,320,501.8,320,494.7L320,494.7z
	 M318,524.1c-7.7,0-15.3,0-23,0c-0.4,0-0.5-0.1-0.5-0.5c0-9.2,0-18.4,0-27.6c0-0.4,0.1-0.5,0.5-0.5c7.7,0,15.4,0,23.1,0
	c0.4,0,0.4,0.2,0.4,0.5c0,4.6,0,9.2,0,13.8c0,4.6,0,9.2,0,13.8C318.4,523.9,318.4,524.1,318,524.1z M306.4,527.2
	c-1.3,0-2.4,1.1-2.4,2.4c0,1.3,1.1,2.3,2.5,2.3c1.2,0,2.3-1.1,2.3-2.3C308.9,528.2,307.8,527.2,306.4,527.2z M306.5,530.4
	c-0.4,0-0.8-0.4-0.8-0.8s0.4-0.8,0.8-0.8s0.8,0.4,0.8,0.8S306.9,530.4,306.5,530.4z M306.5,492.3c0.4,0,0.8-0.3,0.8-0.8
	c0-0.4-0.3-0.8-0.8-0.8c-0.4,0-0.8,0.4-0.8,0.8C305.7,492,306.1,492.3,306.5,492.3z M121.3,232.7c1.3-1.2,2.7-2.1,4.4-2.6
	c1.5-0.4,3-0.5,4.5-0.5c2,0,3.9,0.1,5.7,0.8c1.3,0.5,2.4,1.3,3.4,2.2c0.6,0.5,1.1,0.5,1.5,0.1s0.3-0.9-0.3-1.5
	c-1.8-1.7-3.9-2.8-6.4-3.2c-0.6-0.1-1.3-0.2-1.9-0.3h-3.8c-0.2,0.1-0.5,0.1-0.7,0.1c-3,0.3-5.6,1.4-7.8,3.5c-0.5,0.5-0.5,1.1,0,1.4
	C120.3,233.2,120.8,233.2,121.3,232.7z M150.2,271.8c-0.2-0.3-0.3-0.5-0.3-0.9c0-2.8,0-5.5,0-8.3c0-0.9,0-1.8-0.3-2.7
	c-0.5-1.8-1.6-3.3-2.9-4.6c-1.6-1.7-3.5-3.1-5.4-4.6c-0.2-0.2-0.3-0.4-0.3-0.7c0-1,0-1.9,0-2.9c0-2.1-1.5-3.6-3.6-3.6
	c-4.1,0-8.3,0-12.4,0c-2,0-3.6,1.6-3.6,3.5c0,1.2,0,2.5,0,3.7c0,6.4,0,12.7,0,19.1c0,1.9,1.5,3.4,3.4,3.4c3,0,6,0,8.9,0
	c0.3,0,0.5,0,0.7-0.2c0.3-0.3,0.4-0.6,0.2-0.9c-0.2-0.4-0.5-0.6-1-0.6c-2.9,0-5.7,0-8.6,0c-1.3,0-2-0.7-2-2c0-0.1,0-0.3,0-0.4
	c0-5.3,0-10.7,0-16c0-2,0-3.9,0-5.9c0-1.4,0.7-2.1,2.1-2.1c0.1,0,0.2,0,0.3,0c3.8,0,7.6,0,11.4,0c1.6,0,2.3,0.7,2.3,2.2
	c0,2.4,0,4.8,0,7.2c0,0.6,0.3,1,0.9,1.1c0.6,0,0.9-0.4,0.9-1.1c0-0.6,0-1.2,0-2c1.7,1.3,3.2,2.5,4.5,3.9c1.8,1.8,2.7,3.9,2.6,6.4
	c-0.1,2.7,0,5.4,0,8c0,0.5,0.1,1,0.4,1.4c0.6,0.8,1.1,1.6,1.6,2.4c1.1,1.6,2.2,3.2,3.3,4.8c0.3,0.4,0.6,0.7,1.1,0.5
	c0.6-0.2,0.8-0.8,0.4-1.5C153.5,276.5,151.9,274.1,150.2,271.8L150.2,271.8z M138,269.1c0.9,1.3,1.5,2.6,1.2,4.2c0,0.1,0,0.2,0,0.3
	c0,0.7,0,1.4,0,2.1c0,1.7,0.9,3.1,2,4.4c0.3,0.4,0.8,0.4,1.2,0.1s0.4-0.8,0.2-1.2c-0.2-0.3-0.4-0.6-0.6-0.9c-0.6-0.8-0.9-1.7-1-2.7
	c0-1.4,0-2.8,0-4.2c0-0.5-0.1-0.9-0.4-1.3c-1.5-2.3-3-4.6-4.5-6.9c-0.5-0.7-0.4-1.7,0.2-2.2c0.6-0.5,1.7-0.5,2.3,0.1
	c0.2,0.2,0.4,0.4,0.7,0.7c1.5,1.5,3,2.9,4.5,4.4c0.5,0.5,1,0.5,1.4,0.1s0.3-0.9-0.2-1.4c-1.7-1.7-3.4-3.4-5.1-5
	c-1.3-1.2-3.4-1.3-4.7-0.2c-1.2,1-1.5,3-0.5,4.4C135.8,265.6,136.9,267.4,138,269.1L138,269.1z M138.1,236.3
	c0.3-0.4,0.3-0.9-0.1-1.3c-0.5-0.5-1-0.9-1.5-1.2c-1.8-1.2-3.9-1.5-6.3-1.5c-0.5,0-1.3,0-2,0.1c-2.2,0.2-4,1.2-5.5,2.7
	c-0.5,0.5-0.5,1,0,1.4c0.3,0.3,0.9,0.3,1.3-0.1c1.4-1.4,3.2-2.1,5.2-2.2c1.9-0.1,3.8-0.1,5.5,0.7c0.8,0.4,1.5,0.9,2.1,1.5
	C137.2,236.7,137.8,236.7,138.1,236.3L138.1,236.3z M127.9,237.1c-0.9,0.3-1.8,0.8-2.5,1.4c-0.5,0.4-0.5,0.9-0.2,1.3
	s0.8,0.4,1.3,0.1c0.2-0.1,0.3-0.3,0.5-0.4c1.4-1,3-1.4,4.7-0.9c0.9,0.2,1.7,0.7,2.4,1.3c0.5,0.4,1,0.3,1.3-0.1
	c0.3-0.4,0.3-0.9-0.2-1.3c-1.4-1.2-3.1-1.9-5-1.9C129.5,236.6,128.7,236.8,127.9,237.1L127.9,237.1z M127.7,250.6
	c0.5,0,0.9-0.4,0.9-0.9s-0.4-0.9-0.9-0.9s-0.9,0.4-0.9,0.9C126.8,250.3,127.2,250.6,127.7,250.6z M131.2,250.6
	c0.5,0,0.9-0.4,0.9-0.9s-0.4-0.8-0.9-0.8s-0.9,0.4-0.8,0.9C130.4,250.3,130.8,250.6,131.2,250.6z M135.7,249.8
	c0-0.5-0.4-0.9-0.9-0.9s-0.9,0.4-0.9,0.8c0,0.5,0.4,0.9,0.9,0.9S135.7,250.3,135.7,249.8z M127.6,254.1c-0.5,0-0.9,0.4-0.9,0.9
	s0.4,0.9,0.9,0.9c0.5,0,0.9-0.4,0.9-0.9S128.1,254.1,127.6,254.1z M131.2,255.9c0.5,0,0.9-0.4,0.9-0.9s-0.4-0.9-0.9-0.9
	s-0.9,0.4-0.9,0.9S130.7,255.9,131.2,255.9z M134.8,255.9c0.5,0,0.9-0.4,0.9-0.9s-0.4-0.9-0.9-0.9s-0.9,0.4-0.9,0.9
	S134.3,255.9,134.8,255.9z M128.5,260.3c0-0.5-0.4-0.9-0.8-0.9c-0.5,0-0.9,0.3-0.9,0.8s0.4,0.9,0.9,0.9
	C128.1,261.1,128.5,260.8,128.5,260.3z M131.2,259.4c-0.5,0-0.9,0.4-0.9,0.9s0.4,0.9,0.9,0.9s0.9-0.4,0.9-0.9
	S131.7,259.4,131.2,259.4z M127.7,266.4c0.5,0,0.9-0.4,0.9-0.9s-0.4-0.9-0.9-0.9s-0.9,0.4-0.9,0.9S127.2,266.4,127.7,266.4z
	 M130.3,265.5c0,0.5,0.4,0.9,0.9,0.8c0.5,0,0.9-0.4,0.9-0.9s-0.4-0.9-0.9-0.9C130.7,264.6,130.3,265,130.3,265.5z M209.2,69
	c-0.3,0-0.4-0.1-0.4-0.4c0.1-1.1-0.1-2-0.8-2.9c-0.6-0.7-1.4-1.2-2.3-1.3c-0.3,0-0.4-0.2-0.4-0.4c-0.5-5.4-4.3-10-9.7-11.3
	c-0.5-0.1-1.1-0.2-1.6-0.3h-1.8c-0.8,0.2-1.7,0.2-2.5,0.5c-3.1,0.9-5.5,2.7-7.2,5.4c-1.1,1.7-1.8,3.6-1.9,5.7c0,0.2-0.1,0.3-0.3,0.4
	c-2,0.5-3,1.9-3,4c0,0.4,0,0.5-0.5,0.6c-1.7,0.3-3.1,1.3-3.4,3.2c0,0,0,0.1-0.1,0.1v1.2c0.2,0.6,0.4,1.3,0.8,1.8
	c0.7,0.9,1.7,1.3,2.8,1.5c0.3,0,0.4,0.1,0.4,0.4s0,0.6,0,0.9c0,1,0.3,1.9,1,2.5s1.5,0.8,2.4,0.8c1.2,0,2.4,0,3.6,0
	c0.7,0,0.9-0.2,0.9-0.9c0-2.9,0-5.8,0-8.8c0-2.2,0-4.4,0-6.6c0-0.7-0.2-0.9-0.9-0.9s-1.3,0-2,0c-0.3,0-0.4-0.1-0.3-0.4
	c0.1-0.3,0.1-0.7,0.1-1c0.7-3.5,2.7-6.1,5.8-7.8c2.5-1.4,5.2-1.7,8-1c2.3,0.6,4.3,1.9,5.8,3.8c1.4,1.8,2.2,3.8,2.5,6.1
	c0,0.3-0.1,0.4-0.3,0.4c-0.6,0-1.1,0-1.7,0c-0.8,0-1,0.2-1,1c0,5.1,0,10.2,0,15.3c0,0.7,0.2,0.9,0.9,0.9c1.2,0,2.3,0,3.5,0
	c0.3,0,0.3,0.1,0.3,0.3c0,0.5,0,1,0,1.4c-0.1,2.6-2.1,4.8-4.7,5c-0.9,0.1-1.8,0-2.7,0c-0.4,0-0.5-0.1-0.6-0.4
	c-0.4-1.4-1.9-2.2-3.5-2c-1.4,0.2-2.6,1.5-2.6,2.9c-0.1,1.7,1,3,2.6,3.3c1.5,0.3,3-0.6,3.6-2.1c0.1-0.2,0.2-0.3,0.4-0.3
	c0.7,0,1.5,0,2.2,0c3.2,0,5.8-2,6.5-5.1c0.2-1,0.2-1.9,0.2-2.9c0-0.3,0.1-0.5,0.4-0.6c0.7-0.4,1.1-1,1.4-1.7c0.2-0.7,0.2-1.3,0.1-2
	c0-0.3,0.1-0.4,0.4-0.5c1.1-0.1,2-0.6,2.8-1.5c0.4-0.5,0.6-1.2,0.8-1.8v-1.2c-0.2-0.6-0.4-1.3-0.8-1.8
	C211.3,69.6,210.3,69.2,209.2,69z M176.8,75.4c-1-0.2-1.9-0.7-2.2-1.8c-0.4-1.6,0.4-3,2.3-3.3c0.3,0,0.2,0.1,0.2,0.3
	c0,0.8,0,1.5,0,2.3c0,0.7,0,1.5,0,2.2C177.1,75.5,177,75.5,176.8,75.4z M183.4,65.6c0.3,0,0.4,0.1,0.4,0.4c0,2.3,0,4.6,0,6.9
	s0,4.6,0,6.9c0,0.3-0.1,0.4-0.4,0.4c-1.1,0-2.1,0.1-3.2-0.1c-1-0.1-1.5-0.6-1.6-1.6c-0.1-1.6,0-3.1-0.1-4.7c0-1.8,0-3.6,0-5.4
	c0-1.7,1-2.8,2.7-2.8C181.9,65.6,182.6,65.6,183.4,65.6L183.4,65.6z M194.7,90.7c-1,0-1.9-0.8-1.9-1.8s0.8-1.8,1.9-1.8
	c1,0,1.8,0.8,1.8,1.9C196.5,89.9,195.6,90.7,194.7,90.7z M207.5,78.5c-0.1,1-0.6,1.5-1.5,1.6c-1.2,0.2-2.3,0.1-3.5,0.1
	c-0.3,0-0.2-0.2-0.2-0.3c0-1.4,0-2.9,0-4.3c0-0.9,0-1.7,0-2.6c0-2.3,0-4.6,0-6.9c0-0.3,0.1-0.4,0.4-0.4c0.9,0,1.8-0.1,2.6,0.1
	c1.4,0.2,2.3,1.1,2.3,2.6c0,3,0,6.1,0,9.1C207.5,77.7,207.5,78.1,207.5,78.5L207.5,78.5z M209.5,75.4c-0.7,0.2-0.6,0.2-0.6-0.5
	s0-1.3,0-2s0-1.5,0-2.2c0-0.4,0.1-0.4,0.4-0.3c1.1,0.3,2,0.8,2.2,2C211.7,73.8,210.9,75,209.5,75.4L209.5,75.4z M138.8,477.4
	c-2.5-1.6-5.1-2.8-7.7-4c-0.3-0.1-0.5-0.3-0.4-0.6c0-0.5,0-1,0-1.5s0-0.9,0.5-1.3c0.2-0.1,0.3-0.4,0.4-0.6c0.5-0.9,0.7-2,0.8-3
	c0-0.2,0-0.3,0.2-0.5c0.4-0.3,0.7-0.7,0.8-1.2c0.3-1.2,0.4-2.3-0.6-3.2c-0.1-0.1-0.1-0.3,0-0.4c0.2-0.6,0.4-1.2,0.5-1.8
	c0.4-2.4-0.6-4.1-2.8-4.9c-1.8-0.7-3.6-0.8-5.4-0.4c-1.5,0.3-2.9,0.9-3.8,2.3c-0.1,0.2-0.3,0.2-0.4,0.2c-1.6,0-2,1.3-1.8,2.4
	c0.1,0.8,0.4,1.5,0.7,2.2c0.1,0.1,0.2,0.3,0,0.4c-0.7,0.5-1,1.3-1,2.1c0,1,0.2,1.9,1.2,2.4c0.2,0.1,0.2,0.3,0.2,0.4
	c0.1,1.2,0.3,2.5,1.2,3.3c0.6,0.6,0.8,1.2,0.7,2c0,0.3,0,0.6,0,1c0.1,0.4-0.1,0.5-0.5,0.7c-2.5,1-5,2.3-7.3,3.7
	c-0.9,0.6-1.9,1.1-2.4,2.1v4.8c0.2,0.3,0.5,0.5,0.9,0.5c9.1,0,18.2,0,27.3,0c0.6,0,0.9-0.3,0.9-0.9c0-1.3,0-2.6,0-4
	c0-0.5-0.2-0.9-0.5-1.2C139.8,478.1,139.3,477.7,138.8,477.4L138.8,477.4z M139.3,482.8c0,0.3-0.1,0.4-0.4,0.4c-4.2,0-8.5,0-12.7,0
	s-8.3,0-12.5,0c-0.7,0-0.6,0.1-0.6-0.6c0-0.8,0-1.7,0-2.5c0-0.3,0.1-0.5,0.3-0.7c1.3-1.1,2.8-1.9,4.3-2.6c1.6-0.8,3.1-1.5,4.8-2.2
	c0.5-0.2,0.8-0.5,0.8-1.1c0-1,0-2.1,0-3.1c0-0.4-0.1-0.7-0.5-1c-0.6-0.4-0.9-1-1.1-1.7c-0.2-0.6-0.3-1.2-0.3-1.9
	c0-0.6-0.2-0.8-0.8-0.9c-0.3-0.1-0.4-0.2-0.5-0.5c-0.2-0.4-0.1-0.9,0-1.3c0.1-0.2,0.2-0.4,0.5-0.4c0.7-0.2,0.9-0.5,0.6-1.2
	c-0.2-0.7-0.6-1.4-0.8-2.1c0-0.1,0-0.1-0.1-0.2c-0.3-1.1-0.2-1.2,0.9-1.1c0.4,0,0.8-0.1,0.9-0.5c0.2-0.7,0.7-1.2,1.4-1.5
	c2.2-1,4.4-1,6.6,0c1.4,0.7,1.7,1.5,1.5,3.1c-0.1,0.8-0.4,1.4-0.7,2.1c-0.3,0.8-0.2,1.1,0.6,1.4c0.1,0,0.1,0.1,0.2,0.1
	c0.4,0.3,0.2,1.9-0.3,2.1s-0.6,0.6-0.6,1.1c0,1-0.1,1.9-0.6,2.8c-0.1,0.3-0.3,0.5-0.6,0.7s-0.5,0.5-0.5,0.9c0,1,0,2,0,3
	c0,0.6,0.2,0.9,0.8,1.2c2.6,1.1,5.1,2.3,7.5,3.7c0.6,0.3,1.1,0.7,1.6,1.1c0.2,0.2,0.3,0.4,0.3,0.7
	C139.3,480.9,139.3,481.9,139.3,482.8L139.3,482.8z M154.9,441c-9.6,0-19.1,0-28.7,0c0,2.3,0,4.7,0,7c0,1,0,0.9,0.9,1
	c0.4,0,0.5-0.1,0.5-0.5c0-1.9,0-3.8,0-5.7c0-0.3,0.1-0.4,0.4-0.4c8.4,0,16.8,0,25.2,0c0.4,0,0.6,0.1,0.6,0.5c0,4.5,0,9,0,13.5
	c0,0.4-0.1,0.5-0.5,0.5c-1.7,0-3.5,0-5.2,0c-0.3,0-0.5,0.1-0.7,0.3c-1.6,1.8-3.2,3.6-4.8,5.4c-0.1,0.1-0.1,0.2-0.3,0.2
	c-0.1-0.2,0-0.3,0-0.5c0-1.7,0-3.3,0-5c0-0.3-0.1-0.4-0.4-0.4c-1,0-1.9,0-2.9,0c-1.1,0-1.1,0-1.1,1.1c0,0.3,0.1,0.4,0.4,0.4
	c0.7,0,1.4,0,2.1,0c0.3,0,0.4,0.1,0.4,0.4c0,1.9,0,3.8,0,5.8c0,0.7,0,1.4,0,2.2c0.2,0,0.3-0.1,0.3-0.2c2.3-2.6,4.7-5.2,7-7.8
	c0.2-0.2,0.3-0.3,0.6-0.3c2.2,0,4.4,0,6.6,0c0-5.7,0-11.4,0-17.1C155.3,441,155.3,441,154.9,441L154.9,441z M137.2,449.7
	c-0.8,0-0.8,0-0.7,1.1c0,0.8,0.7,0.3,1,0.4c0.8,0,0.3-0.7,0.4-1C138,449.5,137.4,449.8,137.2,449.7z M142.2,450.5
	c0-0.8,0-0.8-0.8-0.8c-0.2,0.1-0.7-0.3-0.7,0.4c0,1,0,1,0.6,1C142.2,451.2,142.2,451.2,142.2,450.5z M146.6,450.4
	c0-0.7,0-0.7-0.7-0.7c-0.8,0-0.8,0-0.8,0.8c0,0.7,0,0.7,0.7,0.7C146.6,451.2,146.6,451.2,146.6,450.4z M57.7,154.8
	c-1.6-0.6-3.2-0.7-4.9-0.3c-0.5,0.1-1,0.5-1.5,0.3s-0.8-0.7-1.1-1.1c-1.6-1.6-3.2-3.2-4.8-4.8c-0.4-0.4-0.8-0.5-1.2-0.1
	c-0.3,0.3-0.2,0.7,0.2,1.1c0.7,0.7,1.4,1.4,2.1,2.1c1.2,1.2,2.3,2.3,3.5,3.5c-0.2,0.1-0.3,0.2-0.4,0.2c-1.5,1-2.8,2.2-3.3,4
	c-0.1,0.2-0.2,0.2-0.4,0.2c-2.5,0-4.9,0-7.4,0c-2.1,0-3.6,0.9-4.6,2.8c-0.3,0.5-0.3,1-0.5,1.5v21.5c0.2,0.5,0.3,1.1,0.5,1.5
	c1,1.8,2.5,2.8,4.6,2.8c10.8,0,21.5,0,32.3,0c2.6,0,4.5-1.6,5.1-4.2c0-0.1,0.1-0.1,0.1-0.2v-21.5c0-0.1-0.1-0.1-0.1-0.2
	c-0.6-2.6-2.5-4.1-5.1-4.2c-2.4,0-4.9,0-7.3,0c-0.3,0-0.4-0.1-0.5-0.4c-0.2-0.8-0.7-1.5-1.2-2.1c-0.7-0.8-1.5-1.4-2.4-1.9
	c1.6-1.6,3.2-3.3,4.9-4.9c0.3-0.3,0.6-0.6,0.8-0.9c0.3-0.4,0.3-0.8,0-1.1s-0.7-0.3-1.1,0.2c-1.9,1.9-3.8,3.8-5.7,5.8
	C58.1,154.9,57.9,154.9,57.7,154.8L57.7,154.8z M71,161.5c2,0,3.6,1.6,3.6,3.7c0,1.6,0,3.1,0,4.7c0,5,0,9.9,0,14.9
	c0,2.4-1.5,4-3.9,4c-6.3,0-12.7,0-19,0c-4.4,0-8.8,0-13.2,0c-2.1,0-3.7-1.6-3.7-3.7c0-5.3,0-10.6,0-15.8c0-1.3,0-2.6,0-3.9
	c0-2.2,1.6-3.8,3.7-3.8c5.4,0,10.8,0,16.2,0C60.1,161.5,65.6,161.5,71,161.5L71,161.5z M60.7,158.4c0.4,0.4,0.7,0.8,0.9,1.3
	c0.1,0.3,0.1,0.4-0.2,0.4c-1.6,0-3.3,0-4.9,0h-1.7c-2.2,0-4.3,0-6.5,0c-0.5,0-0.5,0-0.3-0.5c0.7-1.3,1.8-2.1,3-2.8
	C54.6,154.7,58.3,156,60.7,158.4z M46.3,162.9c-1.7,0-3.4,0.2-5.1,0.7c-2.6,0.8-3.7,2.1-3.6,4.8c0.1,2.1,0,4.2,0,6.3
	c0,2.4,0,4.9,0,7.3c0,0.5,0.1,0.9,0.2,1.4c0.6,1.5,1.8,2.3,3.2,2.9c1.9,0.8,3.9,1,6,1c3.1,0,6.2,0.2,9.3-0.2
	c1.7-0.2,3.3-0.6,4.7-1.4c1.4-0.9,2.3-2.1,2.2-3.8c0-4.3,0-8.7,0-13c0-0.7,0.1-1.4-0.1-2c-0.4-1.5-1.5-2.3-2.8-2.8
	c-1.9-0.8-4-1-6.1-1.1C51.6,162.9,48.9,162.9,46.3,162.9L46.3,162.9z M60.3,165.6c1,0.6,1.6,1.4,1.5,2.6c0,4.4-0.1,8.8,0,13.2
	c0,1.7-0.7,2.7-2.1,3.3c-1.5,0.7-3,1-4.6,1.1c-3.2,0.2-6.4,0.2-9.6,0c-1.7-0.1-3.3-0.4-4.8-1.3c-1-0.6-1.6-1.5-1.6-2.8
	c0-2.3,0-4.7,0-7s0-4.6,0-7c0-1,0.4-1.7,1.2-2.2c1-0.6,2.1-0.8,3.3-1c2.7-0.4,5.3-0.2,8-0.3c2,0,4,0,6,0.4
	C58.5,164.9,59.4,165.1,60.3,165.6z M68.9,175.1c-2,0-3.6,1.6-3.6,3.6s1.6,3.6,3.5,3.6c2,0,3.6-1.6,3.6-3.6
	C72.5,176.8,70.9,175.1,68.9,175.1z M68.9,180.9c-1.1,0-2.1-1-2.1-2.1s1-2.2,2.1-2.2s2.1,1,2.1,2.1C71,179.9,70.1,180.9,68.9,180.9z
	 M68.9,172.3c2,0,3.5-1.6,3.5-3.6c0-1.9-1.6-3.6-3.5-3.6c-2,0-3.6,1.6-3.6,3.6C65.3,170.6,67,172.3,68.9,172.3z M68.9,166.5
	c1.2,0,2.2,1,2.2,2.2c0,1.1-1,2.1-2.1,2.1c-1.2,0-2.2-1-2.2-2.2C66.8,167.5,67.7,166.5,68.9,166.5z M78.6,545.1c-6,0-12,0-17.9,0
	H46.9c-1.2,0-1.9,0.5-2.4,1.7c-0.1,0.2-0.1,0.4-0.2,0.7v7.8c4.6,0,9.3,0,13.9,0c5.2,0,10.4,0,15.6,0c2.4,0,4.8,0,7.1,0v-7.8
	c-0.2-0.4-0.2-0.8-0.4-1.2C80.1,545.5,79.5,545.1,78.6,545.1z M45.5,548c0-0.3,0.1-0.6,0.2-1c0.2-0.5,0.5-0.7,1.1-0.7
	c0.9,0,1.8,0,2.8,0c-1.4,1.6-2.7,3.1-4.1,4.7C45.5,549.9,45.5,548.9,45.5,548z M48.7,554c-0.9,0-1.9,0-2.8,0c-0.2,0-0.3-0.1-0.3-0.3
	c0-0.5,0.1-0.9,0.5-1.2c1.7-1.9,3.4-3.9,5.1-5.8c0.1-0.1,0.2-0.3,0.4-0.3c1.3,0,2.6,0,3.9,0c0.1,0,0.1,0,0.3,0
	c-1.6,1.9-3.2,3.6-4.8,5.4c-0.6,0.7-1.2,1.3-1.8,2C49,553.9,48.9,554,48.7,554L48.7,554z M54.8,554c-1.4,0-2.7,0-4.1,0
	c0,0,0,0-0.1-0.1c1.6-1.8,3.2-3.6,4.8-5.4c0.6-0.7,1.2-1.3,1.8-2c0.1-0.1,0.2-0.2,0.4-0.2c1.3,0,2.6,0,4,0h0.1
	c0,0.1-0.1,0.2-0.1,0.2c-2.1,2.4-4.3,4.8-6.4,7.2C55.1,553.9,55,554,54.8,554z M61.5,554c-1.6,0-3.2,0-4.7,0c0-0.1,0.1-0.2,0.1-0.3
	c2.1-2.4,4.3-4.8,6.4-7.2c0.1-0.1,0.2-0.2,0.4-0.2c1.6,0,3.1,0,4.7,0c0,0,0,0,0.1,0c-1.3,1.4-2.5,2.8-3.7,4.2
	c-1,1.1-1.9,2.1-2.9,3.2C61.8,553.9,61.7,554,61.5,554z M67.7,554c-1.4,0-2.7,0-4.2,0c0.6-0.7,1.2-1.4,1.8-2
	c1.6-1.8,3.2-3.6,4.8-5.4c0.1-0.1,0.2-0.3,0.4-0.3c1.4,0,2.8,0,4.2,0c0,0.2-0.1,0.2-0.1,0.3c-2.1,2.4-4.3,4.8-6.4,7.2
	C67.9,553.9,67.8,554,67.7,554z M73.8,554c-1.4,0-2.8,0-4.3,0c1.7-1.9,3.3-3.7,4.9-5.5c0.6-0.7,1.2-1.3,1.8-2
	c0.1-0.1,0.3-0.2,0.5-0.2c0.7,0,1.3,0,2,0c0.4,0,1,0.6,1,1.1c0,0.1-0.1,0.2-0.2,0.3c-1.8,2-3.5,4.1-5.3,6.1
	C74.1,553.9,74,554,73.8,554L73.8,554z M79.8,553.6c0,0.2,0,0.3-0.3,0.3c-1.2,0-2.5,0-3.9,0c1.4-1.6,2.7-3.1,4-4.6
	c0.1,0,0.1,0.1,0.1,0.2C79.8,550.9,79.8,552.3,79.8,553.6z M51.1,556.5c-2.3,0-4.6,0-6.8,0v21.8c0.2,0.7,0.5,1.3,1.1,1.7
	c0.5,0.4,1.1,0.6,1.8,0.6c4.7,0,9.5,0,14.2,0c5.5,0,11,0,16.6,0c1.5,0,2.5-0.7,2.9-2.2c0-0.1,0.1-0.1,0.1-0.2v-21.8
	c-4.7,0-9.5,0-14.2,0C61.5,556.5,56.3,556.5,51.1,556.5L51.1,556.5z M79.8,558.4c0,6.4,0,12.8,0,19.2c0,1.3-0.7,1.9-1.9,1.9
	c-7.8,0-15.6,0-23.4,0c-2.3,0-4.7,0-7,0c-1.3,0-1.9-0.7-1.9-2c0-6.4,0-12.9,0-19.3c0-0.3,0.1-0.3,0.3-0.3c5.6,0,11.2,0,16.8,0
	c5.5,0,11.1,0,16.6,0C79.8,557.8,79.8,557.7,79.8,558.4L79.8,558.4z M56.5,562.6c0,2.1,0,4.1,0,6.2c0,2.1,0,4.2,0,6.2
	c0,0.8,0.4,1,1.1,0.7c1.5-0.8,3-1.6,4.5-2.3c2.5-1.3,5-2.6,7.5-3.9c0.3-0.1,0.5-0.3,0.5-0.7c0-0.3-0.2-0.5-0.5-0.7
	c-4-2.1-8.1-4.2-12.1-6.3C57,561.6,56.5,561.9,56.5,562.6z M57.8,563.4c3.5,1.8,6.9,3.6,10.4,5.4c-3.5,1.8-6.9,3.6-10.4,5.4V563.4
	L57.8,563.4z M16.7,30.6c1.1,3.2,2.8,6,5.1,8.4c0.4,0.4,0.8,0.4,1.2,0.1c0.3-0.3,0.3-0.7-0.1-1.1c-0.3-0.3-0.6-0.6-0.8-0.9
	c-5-6-6.3-12.8-3.8-20.1c3-8.7,11.4-14.2,20.6-13.5c4.1,0.3,7.8,1.6,11,4.2c5.8,4.6,8.4,10.7,7.8,18.1c-0.3,3.5-1.5,6.8-3.6,9.7
	c-0.7,0.9-1.4,1.8-2.2,2.6c-0.4,0.4-0.4,0.8,0,1.1c0.3,0.3,0.7,0.3,1.1-0.1c3.1-3.2,5.1-7,5.9-11.4c0.2-0.8,0.2-1.7,0.4-2.5v-2.9
	c-0.2-0.8-0.2-1.6-0.3-2.4c-0.7-3.8-2.3-7.2-4.7-10.1C51,5.9,46.8,3.4,41.7,2.4C40.8,2.1,40,2,39.2,2c-0.1,0-0.3,0-0.4-0.1h-2.9
	c-0.8,0.1-1.7,0.2-2.5,0.4c-5.4,1-9.8,3.7-13.2,8c-2.4,3-3.9,6.5-4.5,10.4c-0.1,0.6-0.1,1.1-0.2,1.7v2.9c0,0.1,0.1,0.2,0.1,0.3
	C15.8,27.2,16.1,28.9,16.7,30.6z M29.8,13.1c3.5-2.5,7.4-3.1,11.4-1.8c5,1.7,8,5.2,8.9,10.4c0.5,3-0.1,5.8-1.6,8.4
	c-0.5,1-1.3,1.8-2,2.6c-0.4,0.4-0.3,0.8,0,1.1s0.7,0.2,1.1-0.1c2.7-2.8,4.1-6.2,4.1-10.1c0-0.9-0.1-1.9-0.3-2.8
	c-0.9-4.3-3.2-7.6-7-9.8c-3.1-1.8-6.5-2.3-10-1.6c-2.8,0.5-5.2,1.8-7.2,3.8c-1.9,1.8-3.1,4-3.8,6.5c-0.6,2.1-0.7,4.1-0.3,6.2
	c0.5,3,1.8,5.6,4,7.8c0.3,0.3,0.7,0.4,1.1,0.1c0.4-0.3,0.3-0.7-0.1-1.2c-3.1-3.3-4.2-7.3-3.3-11.7C25.3,17.7,27.1,15,29.8,13.1z
	 M29.7,45.5c2.6,0,5.1,0,7.7,0c2.6,0,5.2,0,7.8,0c0.7,0,0.9-0.3,0.9-0.9c0-0.4,0-0.8-0.1-1.2c-0.5-3.5-1.9-6.5-4.7-8.8
	c-2.3-1.8-5.3-1.9-7.6-0.1c-3.2,2.5-4.7,6-5,10C28.6,45.2,28.9,45.5,29.7,45.5z M30.2,43.6c0.5-3.1,1.7-5.8,4.2-7.9
	c2.1-1.7,4.6-1.5,6.5,0.4c2.1,2,3.2,4.5,3.7,7.3c0,0.6,0,0.6-0.6,0.6c-2.2,0-4.4,0-6.7,0c-2.2,0-4.5,0-6.7,0
	C30.3,44,30.1,44,30.2,43.6z M30.8,24.3c0,3.6,2.8,6.6,6.5,6.6c3.6,0,6.6-2.9,6.6-6.5s-2.8-6.4-6.3-6.6
	C33.8,17.7,30.8,20.8,30.8,24.3z M42.4,24.4c0,2.7-2.3,5.1-5,5.1c-2.8,0-5.1-2.2-5.2-5c0-2.8,2.2-5.1,5-5.1
	C40.1,19.3,42.4,21.5,42.4,24.4z M39.2,325.2c-0.1,0-0.1-0.1-0.2-0.1c-10.9,0-21.9-0.1-32.8-0.1c-0.7,0.2-1.3,0.4-1.9,0.8
	c-0.7,0.6-1.2,1.4-1.4,2.3c0,0.1-0.1,0.1-0.1,0.2c0,7.7-0.1,15.3-0.1,23l0.1,0.1c0.3,1.9,2.1,3.2,4.2,3.2c4.6,0,9.1,0,13.7,0
	c5.9,0,11.7,0,17.6,0.1c1.3,0,2.4-0.5,3.2-1.4c0.5-0.5,0.7-1.2,0.9-1.8c0-7.7,0.1-15.3,0.1-23c-0.2-0.6-0.4-1.3-0.9-1.8
	C40.9,325.9,40.1,325.4,39.2,325.2L39.2,325.2z M41,333.4c0,5.8,0,11.5-0.1,17.3c0,1.7-1.1,2.8-2.9,2.8c-8.3,0-16.5-0.1-24.8-0.1
	c-2.1,0-4.3,0-6.4,0c-1.1,0-2-0.4-2.6-1.4C4,351.5,4,351,4,350.5c0-5.8,0-11.6,0.1-17.5c0-0.2,0-0.3,0.3-0.3
	c6.1,0,12.1,0.1,18.2,0.1c6,0,11.9,0,17.9,0.1C41.1,332.9,41,332.8,41,333.4z M41,331.2c0,0.3-0.1,0.4-0.4,0.4c-3.2,0-6.3,0-9.5,0
	c-2.9,0-5.8,0-8.6,0c-6,0-12,0-18-0.1c-0.3,0-0.4-0.1-0.4-0.4c0.1-0.8-0.1-1.6,0.1-2.4c0.2-1.5,1.2-2.3,2.8-2.3c3.6,0,7.2,0,10.8,0
	c5.1,0,10.2,0,15.2,0.1c1.7,0,3.5,0,5.2,0s2.8,1.1,2.8,2.8C41,329.9,41,330.5,41,331.2z M34.2,336.7c-5.2,0-10.4,0-15.5-0.1
	c-0.5,0-1,0-1.4,0s-0.7,0.3-0.7,0.6s0.3,0.6,0.7,0.6c0.1,0,0.2,0,0.2,0c2.7,0,5.5,0,8.2,0c1,0,2.1,0,3.1,0c1.8,0,3.5,0,5.3,0
	c0.2,0,0.5,0,0.7-0.2s0.3-0.4,0.2-0.7C34.9,336.8,34.6,336.7,34.2,336.7L34.2,336.7z M34.2,341.8c-2.8,0-5.6,0-8.4,0s-5.6,0-8.4,0
	c-0.2,0-0.5,0-0.7,0.1c-0.2,0.2-0.3,0.4-0.2,0.7c0.1,0.3,0.4,0.5,0.8,0.5c3.2,0,6.4,0,9.6,0c2.4,0,4.8,0,7.2,0c0.2,0,0.4,0,0.6-0.2
	c0.2-0.2,0.3-0.4,0.2-0.7C34.8,342,34.6,341.8,34.2,341.8z M34.2,347c-2.8,0-5.6,0-8.4,0s-5.6,0-8.4,0c-0.2,0-0.5,0-0.6,0.2
	c-0.2,0.2-0.3,0.4-0.2,0.7c0.1,0.3,0.4,0.4,0.7,0.4c3.1,0,6.2,0,9.3,0c2.5,0,5,0,7.5,0c0.2,0,0.4,0,0.6-0.2c0.2-0.2,0.3-0.4,0.2-0.7
	C34.8,347.1,34.5,347,34.2,347z M11.9,336.6c-0.8,0-1.6,0-2.5,0c-0.5,0-0.7,0.2-0.7,0.6s0.3,0.7,0.8,0.7c0.4,0,0.8,0,1.2,0
	s0.9,0,1.3,0s0.7-0.3,0.7-0.7C12.6,336.9,12.3,336.6,11.9,336.6z M12,341.8c-0.9,0-1.8,0-2.7,0c-0.4,0-0.6,0.3-0.6,0.7
	c0,0.3,0.3,0.6,0.7,0.6s0.8,0,1.3,0s0.9,0,1.4,0c0.4,0,0.6-0.3,0.6-0.6C12.6,342.1,12.3,341.8,12,341.8z M11.9,346.9
	c-0.9,0-1.7,0-2.6,0c-0.4,0-0.7,0.3-0.7,0.7c0,0.4,0.3,0.6,0.7,0.6s0.8,0,1.2,0s0.9,0,1.3,0s0.7-0.3,0.7-0.7
	C12.6,347.2,12.3,346.9,11.9,346.9z M8,327.6c-0.7,0-1.3,0.6-1.3,1.3c0,0.7,0.6,1.3,1.3,1.3s1.3-0.6,1.3-1.3
	C9.3,328.2,8.8,327.6,8,327.6z M12,327.6c-0.7,0-1.3,0.6-1.3,1.2c0,0.8,0.6,1.3,1.3,1.3s1.3-0.6,1.3-1.2
	C13.3,328.2,12.7,327.6,12,327.6z M15.9,327.6c-0.7,0-1.3,0.6-1.3,1.3c0,0.7,0.6,1.3,1.3,1.3c0.7,0,1.3-0.6,1.3-1.3
	C17.3,328.2,16.7,327.6,15.9,327.6z"/>
</svg>
