<?xml version="1.0" encoding="utf-8"?>
<!-- Generator: Adobe Illustrator 17.1.0, SVG Export Plug-In . SVG Version: 6.00 Build 0)  -->
<!DOCTYPE svg PUBLIC "-//W3C//DTD SVG 1.1//EN" "http://www.w3.org/Graphics/SVG/1.1/DTD/svg11.dtd">
<svg version="1.1" id="Layer_1" xmlns:ev="http://www.w3.org/2001/xml-events"
	 xmlns="http://www.w3.org/2000/svg" xmlns:xlink="http://www.w3.org/1999/xlink" x="0px" y="0px" viewBox="0 0 20 20"
	 enable-background="new 0 0 20 20" xml:space="preserve">
<path fill="#FFFFFF" d="M9.5,19.1C4.3,19.1,0,14.9,0,9.6c0-5.2,4.1-9.4,9.4-9.5C14.7,0,19,4.3,19,9.6C19,14.8,14.8,19.1,9.5,19.1z
	 M9.5,1.3C5,1.3,1.2,5,1.2,9.5c0,4.6,3.7,8.3,8.3,8.3c4.6,0,8.3-3.7,8.3-8.3C17.8,5,14.1,1.3,9.5,1.3z M11.7,14.9
	c-1.3,0-2.6,0-3.9,0c-0.1,0-0.1,0-0.1-0.1c0-0.5,0-1,0-1.5c0-0.1,0-0.2,0.2-0.2c0.3,0,0.6,0,0.8,0c0.1,0,0.2,0,0.2-0.2
	c0-1.1,0-2.1,0-3.2c0-0.1,0-0.2-0.2-0.2c-0.3,0-0.6,0-0.9,0c-0.1,0-0.2,0-0.2-0.2c0-0.5,0-1,0-1.5c0-0.1,0-0.2,0.2-0.2
	c0.9,0,1.8,0,2.6,0c0.1,0,0.2,0,0.2,0.2c0,0.8,0,1.7,0,2.5c0,0.8,0,1.7,0,2.5c0,0.1,0,0.2,0.2,0.2c0.3,0,0.6,0,0.8,0
	c0.1,0,0.2,0,0.2,0.2c0,0.5,0,1,0,1.5C11.9,14.9,11.8,14.9,11.7,14.9z M9.5,6.7c-0.6,0-1.2-0.5-1.2-1.2c0-0.6,0.5-1.2,1.2-1.2
	c0.6,0,1.2,0.5,1.2,1.2C10.7,6.1,10.1,6.7,9.5,6.7z"/>
</svg>
