<?xml version="1.0" encoding="utf-8"?>
<!-- Generator: Adobe Illustrator 17.1.0, SVG Export Plug-In . SVG Version: 6.00 Build 0)  -->
<!DOCTYPE svg PUBLIC "-//W3C//DTD SVG 1.1//EN" "http://www.w3.org/Graphics/SVG/1.1/DTD/svg11.dtd">
<svg version="1.1" id="Layer_1" xmlns="http://www.w3.org/2000/svg" xmlns:xlink="http://www.w3.org/1999/xlink" x="0px" y="0px"
	 viewBox="0 0 197.007 32.001" enable-background="new 0 0 197.007 32.001" xml:space="preserve">
<g>
	<path fill="#A6A6A6" d="M0,29.776c0,0,1.009,1.137,2.81,1.137c1.681,0,2.69-1.1,2.69-2.432c0-2.799-4.108-2.322-4.108-4.107
		c0-0.684,0.637-1.259,1.537-1.259c1.081,0,1.862,0.746,1.862,0.746l0.54-1.002c0,0-0.829-0.868-2.402-0.868
		c-1.597,0-2.738,1.063-2.738,2.408c0,2.652,4.108,2.249,4.108,4.119c0,0.819-0.673,1.271-1.465,1.271
		c-1.261,0-2.162-0.929-2.162-0.929L0,29.776z"/>
	<path fill="#A6A6A6" d="M7.486,28.505c0,2.066,1.549,2.31,2.33,2.31c0.24,0,0.408-0.024,0.408-0.024V29.74
		c0,0-0.108,0.024-0.276,0.024c-0.444,0-1.297-0.159-1.297-1.393v-2.75h1.465v-0.953H8.651v-1.785H7.522v1.785H6.694v0.953h0.793
		V28.505z"/>
	<path fill="#A6A6A6" d="M11.837,30.766h1.165v-2.53c0-0.379,0.036-0.758,0.144-1.112c0.276-0.917,0.961-1.455,1.706-1.455
		c0.18,0,0.336,0.037,0.336,0.037v-1.173c0,0-0.144-0.024-0.3-0.024c-0.937,0-1.645,0.709-1.922,1.613h-0.024
		c0,0,0.024-0.208,0.024-0.464v-1.076h-1.129V30.766z"/>
	<path fill="#A6A6A6" d="M16.223,30.766h1.225v-1.259h-1.225V30.766z"/>
	<path fill="#A6A6A6" d="M23.205,30.766h1.189v-5.598c0-0.489-0.084-1.259-0.084-1.259h0.024c0,0,0.396,0.782,0.709,1.259
		l3.783,5.598h1.165v-8.629h-1.189v5.61c0,0.477,0.084,1.247,0.084,1.247h-0.024c0,0-0.396-0.782-0.709-1.247l-3.771-5.61h-1.177
		V30.766z"/>
	<path fill="#A6A6A6" d="M31.87,29.031c0,1.235,1.021,1.882,2.066,1.882c1.453,0,1.946-1.222,1.946-1.222h0.024
		c0,0-0.024,0.208-0.024,0.489v0.587h1.081v-3.911c0-1.564-0.865-2.42-2.402-2.42c-1.393,0-2.27,0.733-2.27,0.733l0.48,0.868
		c0,0,0.757-0.599,1.694-0.599c0.769,0,1.333,0.342,1.333,1.357v0.11h-0.264C34.512,26.904,31.87,26.989,31.87,29.031z
		 M33.047,28.969c0-1.112,1.585-1.173,2.462-1.173h0.3v0.196c0,0.917-0.637,1.968-1.621,1.968
		C33.431,29.959,33.047,29.471,33.047,28.969z"/>
	<path fill="#A6A6A6" d="M39.008,30.766h1.165v-2.823c0-0.281,0.012-0.562,0.072-0.807c0.228-0.88,0.853-1.626,1.742-1.626
		c0.937,0,1.057,0.746,1.057,1.552v3.703h1.165v-2.823c0-0.318,0.024-0.599,0.084-0.856c0.216-0.843,0.853-1.577,1.705-1.577
		c0.913,0,1.081,0.684,1.081,1.552v3.703h1.165v-3.96c0-1.577-0.637-2.371-2.006-2.371c-0.985,0-1.826,0.66-2.162,1.406h-0.024
		c-0.204-0.929-0.805-1.406-1.826-1.406c-0.949,0-1.802,0.697-2.09,1.418h-0.024c0,0,0.024-0.208,0.024-0.452v-0.819h-1.129V30.766z
		"/>
	<path fill="#A6A6A6" d="M49.871,27.674c0,1.833,1.309,3.239,3.219,3.239c1.453,0,2.354-0.88,2.354-0.88l-0.48-0.868
		c0,0-0.757,0.721-1.802,0.721c-1.081,0-2.03-0.684-2.09-2.041h4.432c0,0,0.036-0.354,0.036-0.513c0-1.601-0.913-2.897-2.63-2.897
		C51.181,24.435,49.871,25.706,49.871,27.674z M51.109,26.953c0.168-1.014,0.889-1.577,1.778-1.577c0.781,0,1.429,0.513,1.465,1.577
		H51.109z"/>
	<path fill="#A6A6A6" d="M56.673,32.001h0.925l1.009-2.518h-1.189L56.673,32.001z"/>
	<path fill="#A6A6A6" d="M64.256,30.766h1.189v-5.598c0-0.489-0.084-1.259-0.084-1.259h0.024c0,0,0.396,0.782,0.709,1.259
		l3.783,5.598h1.165v-8.629h-1.189v5.61c0,0.477,0.084,1.247,0.084,1.247h-0.024c0,0-0.396-0.782-0.709-1.247l-3.771-5.61h-1.177
		V30.766z"/>
	<path fill="#A6A6A6" d="M73.413,30.766h1.165v-2.53c0-0.379,0.036-0.758,0.144-1.112c0.276-0.917,0.961-1.455,1.705-1.455
		c0.18,0,0.336,0.037,0.336,0.037v-1.173c0,0-0.144-0.024-0.3-0.024c-0.937,0-1.645,0.709-1.922,1.613h-0.024
		c0,0,0.024-0.208,0.024-0.464v-1.076h-1.129V30.766z"/>
	<path fill="#A6A6A6" d="M77.799,30.766h1.225v-1.259h-1.225V30.766z"/>
	<path fill="#A6A6A6" d="M84.301,30.766h4.876v-1.051h-1.85v-7.578H86.27l-2.03,2.005l0.721,0.758l0.793-0.794
		c0.312-0.306,0.408-0.501,0.408-0.501h0.024c0,0-0.012,0.269-0.012,0.538v5.573h-1.874V30.766z"/>
	<path fill="#A6A6A6" d="M89.961,28.456h4.108v2.31h1.165v-2.31h1.153v-1.027h-1.153v-5.292h-1.357l-3.916,5.561V28.456z
		 M91.27,27.429v-0.024l2.402-3.264c0.228-0.306,0.42-0.709,0.42-0.709h0.024c0,0-0.048,0.452-0.048,0.856v3.141H91.27z"/>
	<path fill="#A6A6A6" d="M98.324,30.766h3.039c1.489,0,2.726-0.831,2.726-2.457c0-0.965-0.505-1.821-1.393-2.09v-0.024
		c0.648-0.342,1.057-1.014,1.057-1.858c0-1.393-1.033-2.2-2.462-2.2h-2.967V30.766z M99.513,25.767v-2.579h1.754
		c0.817,0,1.273,0.513,1.273,1.271c0,0.758-0.48,1.308-1.249,1.308H99.513z M99.513,29.715v-2.946h1.898
		c0.889,0,1.465,0.599,1.465,1.479c0,0.88-0.54,1.467-1.453,1.467H99.513z"/>
	<path fill="#A6A6A6" d="M105.295,32.001h0.925l1.009-2.518h-1.189L105.295,32.001z"/>
	<path fill="#A6A6A6" d="M112.229,29.776c0,0,1.009,1.137,2.81,1.137c1.681,0,2.69-1.1,2.69-2.432c0-2.799-4.108-2.322-4.108-4.107
		c0-0.684,0.637-1.259,1.537-1.259c1.081,0,1.862,0.746,1.862,0.746l0.54-1.002c0,0-0.829-0.868-2.402-0.868
		c-1.597,0-2.738,1.063-2.738,2.408c0,2.652,4.108,2.249,4.108,4.119c0,0.819-0.673,1.271-1.465,1.271
		c-1.261,0-2.162-0.929-2.162-0.929L112.229,29.776z"/>
	<path fill="#A6A6A6" d="M119.487,23.347h1.177v-1.21h-1.177V23.347z M119.499,30.766h1.165v-6.185h-1.165V30.766z"/>
	<path fill="#A6A6A6" d="M122.791,30.766h1.105v-0.452c0-0.269-0.024-0.464-0.024-0.464h0.024c0,0,0.552,1.063,1.91,1.063
		c1.597,0,2.762-1.271,2.762-3.239c0-1.919-1.033-3.239-2.666-3.239c-1.429,0-1.946,1.051-1.946,1.051h-0.024
		c0,0,0.024-0.22,0.024-0.525v-2.824h-1.165V30.766z M123.92,27.698c0-1.577,0.841-2.224,1.754-2.224
		c1.009,0,1.717,0.868,1.717,2.212c0,1.406-0.793,2.212-1.754,2.212C124.485,29.898,123.92,28.798,123.92,27.698z"/>
	<path fill="#A6A6A6" d="M130.29,23.347h1.177v-1.21h-1.177V23.347z M130.302,30.766h1.165v-6.185h-1.165V30.766z"/>
	<path fill="#A6A6A6" d="M133.511,28.542c0,1.638,0.709,2.371,2.078,2.371c1.189,0,1.982-0.807,2.234-1.418h0.024
		c0,0-0.024,0.196-0.024,0.452v0.819h1.129v-6.185h-1.165v2.897c0,1.222-0.733,2.334-1.97,2.334c-0.973,0-1.141-0.684-1.141-1.54
		v-3.691h-1.165V28.542z"/>
	<path fill="#A6A6A6" d="M140.493,32.001h0.925l1.009-2.518h-1.189L140.493,32.001z"/>
	<path fill="#A6A6A6" d="M148.076,30.766h1.189v-3.435h1.814l1.79,3.435h1.345l-1.802-3.349c-0.156-0.281-0.252-0.391-0.252-0.391
		v-0.024c0.925-0.306,1.525-1.234,1.525-2.334c0-1.137-0.564-2.005-1.429-2.335c-0.324-0.122-0.697-0.196-1.585-0.196h-2.594V30.766
		z M149.264,26.281v-3.092h1.369c0.661,0,0.937,0.073,1.165,0.195c0.432,0.245,0.673,0.697,0.673,1.332
		c0,0.966-0.577,1.565-1.501,1.565H149.264z"/>
	<path fill="#A6A6A6" d="M155.394,27.662c0,1.882,1.465,3.251,3.279,3.251c1.813,0,3.279-1.369,3.279-3.251
		c0-1.87-1.465-3.227-3.279-3.227C156.86,24.435,155.394,25.792,155.394,27.662z M156.583,27.662c0-1.283,0.949-2.2,2.09-2.2
		c1.153,0,2.09,0.917,2.09,2.2c0,1.296-0.937,2.225-2.09,2.225C157.532,29.886,156.583,28.957,156.583,27.662z"/>
	<path fill="#A6A6A6" d="M163.638,30.766h1.165v-2.823c0-0.281,0.012-0.562,0.072-0.807c0.228-0.88,0.853-1.626,1.742-1.626
		c0.937,0,1.057,0.746,1.057,1.552v3.703h1.165v-2.823c0-0.318,0.024-0.599,0.084-0.856c0.216-0.843,0.853-1.577,1.706-1.577
		c0.913,0,1.081,0.684,1.081,1.552v3.703h1.165v-3.96c0-1.577-0.637-2.371-2.006-2.371c-0.985,0-1.826,0.66-2.162,1.406h-0.024
		c-0.204-0.929-0.805-1.406-1.826-1.406c-0.949,0-1.802,0.697-2.09,1.418h-0.024c0,0,0.024-0.208,0.024-0.452v-0.819h-1.129V30.766z
		"/>
	<path fill="#A6A6A6" d="M174.429,29.031c0,1.235,1.021,1.882,2.066,1.882c1.453,0,1.946-1.222,1.946-1.222h0.024
		c0,0-0.024,0.208-0.024,0.489v0.587h1.081v-3.911c0-1.564-0.865-2.42-2.402-2.42c-1.393,0-2.27,0.733-2.27,0.733l0.48,0.868
		c0,0,0.757-0.599,1.693-0.599c0.769,0,1.333,0.342,1.333,1.357v0.11h-0.264C177.072,26.904,174.429,26.989,174.429,29.031z
		 M175.606,28.969c0-1.112,1.585-1.173,2.462-1.173h0.3v0.196c0,0.917-0.637,1.968-1.621,1.968
		C175.991,29.959,175.606,29.471,175.606,28.969z"/>
	<path fill="#A6A6A6" d="M181.567,30.766h1.165v-2.897c0-0.306,0.024-0.587,0.096-0.831c0.252-0.892,0.997-1.516,1.922-1.516
		c0.973,0,1.153,0.684,1.153,1.552v3.691h1.165v-3.96c0-1.577-0.661-2.371-2.09-2.371c-1.321,0-2.042,0.88-2.282,1.418h-0.024
		c0,0,0.024-0.208,0.024-0.452v-0.819h-1.129V30.766z"/>
	<path fill="#A6A6A6" d="M189.102,23.347h1.177v-1.21h-1.177V23.347z M189.114,30.766h1.165v-6.185h-1.165V30.766z"/>
	<path fill="#A6A6A6" d="M191.914,29.031c0,1.235,1.021,1.882,2.066,1.882c1.453,0,1.946-1.222,1.946-1.222h0.024
		c0,0-0.024,0.208-0.024,0.489v0.587h1.081v-3.911c0-1.564-0.865-2.42-2.402-2.42c-1.393,0-2.27,0.733-2.27,0.733l0.48,0.868
		c0,0,0.757-0.599,1.693-0.599c0.769,0,1.333,0.342,1.333,1.357v0.11h-0.264C194.557,26.904,191.914,26.989,191.914,29.031z
		 M193.091,28.969c0-1.112,1.585-1.173,2.462-1.173h0.3v0.196c0,0.917-0.637,1.968-1.622,1.968
		C193.476,29.959,193.091,29.471,193.091,28.969z"/>
	<path fill="#A6A6A6" d="M79.095,9.823h1.877L77.444,0h-1.905L72.01,9.823h1.877l0.847-2.518h3.514L79.095,9.823z M76.513,1.702
		c0,0,0.212,0.968,0.395,1.522l0.889,2.629h-2.625l0.889-2.629c0.198-0.553,0.423-1.522,0.423-1.522H76.513z"/>
	<path fill="#A6A6A6" d="M81.828,6.295c0,2.186,1.242,3.694,3.19,3.694c1.651,0,2.258-1.204,2.258-1.204h0.028
		c0,0-0.028,0.194-0.028,0.457v0.581h1.694V0h-1.793v3.099c0,0.221,0.014,0.401,0.014,0.401h-0.028c0,0-0.494-0.899-2.075-0.899
		C83.183,2.601,81.828,4.054,81.828,6.295z M83.635,6.295c0-1.397,0.818-2.186,1.806-2.186c1.2,0,1.793,1.079,1.793,2.172
		c0,1.563-0.875,2.227-1.807,2.227C84.369,8.508,83.635,7.637,83.635,6.295z"/>
	<path fill="#A6A6A6" d="M90.8,6.295c0,2.186,1.242,3.694,3.19,3.694c1.651,0,2.258-1.204,2.258-1.204h0.028
		c0,0-0.028,0.194-0.028,0.457v0.581h1.694V0h-1.792v3.099c0,0.221,0.014,0.401,0.014,0.401h-0.028c0,0-0.494-0.899-2.075-0.899
		C92.155,2.601,90.8,4.054,90.8,6.295z M92.606,6.295c0-1.397,0.819-2.186,1.807-2.186c1.2,0,1.792,1.079,1.792,2.172
		c0,1.563-0.875,2.227-1.806,2.227C93.34,8.508,92.606,7.637,92.606,6.295z"/>
	<path fill="#A6A6A6" d="M100.265,9.823h1.793V7.028c0-0.415,0.042-0.802,0.155-1.148c0.339-1.052,1.2-1.48,1.962-1.48
		c0.24,0,0.424,0.028,0.424,0.028V2.698c0,0-0.155-0.028-0.325-0.028c-1.101,0-1.962,0.803-2.286,1.812h-0.028
		c0,0,0.028-0.235,0.028-0.498V2.767h-1.722V9.823z"/>
	<path fill="#A6A6A6" d="M105.654,6.295c0,2.006,1.482,3.694,3.867,3.694c1.792,0,2.893-1.01,2.893-1.01l-0.692-1.259
		c0,0-0.917,0.775-2.075,0.775c-1.073,0-2.047-0.636-2.159-1.868h4.968c0,0,0.042-0.47,0.042-0.678c0-1.868-1.115-3.348-3.19-3.348
		C107.164,2.601,105.654,4.123,105.654,6.295z M107.545,5.423c0.169-0.913,0.804-1.466,1.722-1.466c0.79,0,1.397,0.512,1.425,1.466
		H107.545z"/>
	<path fill="#A6A6A6" d="M113.722,8.951c0,0,1.002,1.038,2.795,1.038c1.708,0,2.752-0.941,2.752-2.117c0-2.269-3.5-2.144-3.5-3.141
		c0-0.443,0.452-0.636,0.917-0.636c1.101,0,1.764,0.609,1.764,0.609l0.663-1.3c0,0-0.79-0.802-2.413-0.802
		c-1.552,0-2.752,0.761-2.752,2.075c0,2.269,3.5,2.131,3.5,3.182c0,0.415-0.438,0.636-0.946,0.636c-1.172,0-1.962-0.775-1.962-0.775
		L113.722,8.951z"/>
	<path fill="#A6A6A6" d="M120.451,8.951c0,0,1.002,1.038,2.795,1.038c1.708,0,2.752-0.941,2.752-2.117c0-2.269-3.5-2.144-3.5-3.141
		c0-0.443,0.452-0.636,0.917-0.636c1.101,0,1.764,0.609,1.764,0.609l0.663-1.3c0,0-0.79-0.802-2.413-0.802
		c-1.553,0-2.752,0.761-2.752,2.075c0,2.269,3.5,2.131,3.5,3.182c0,0.415-0.438,0.636-0.946,0.636c-1.172,0-1.962-0.775-1.962-0.775
		L120.451,8.951z"/>
</g>
</svg>
