<svg xmlns="http://www.w3.org/2000/svg" width="175" height="50" viewBox="0 -5 175 50"><path fill="#FFF" d="M9.9 10.4C4.1 10.4 0 14.8 0 20v.1c0 5.3 4 9.6 9.8 9.6s9.9-4.4 9.9-9.7c0-5.3-4.1-9.6-9.8-9.6zm6.3 9.7c0 3.6-2.6 6.6-6.3 6.6s-6.4-3-6.4-6.6V20c0-3.6 2.6-6.6 6.3-6.6s6.4 3 6.4 6.7zm25.9-9.5h-.3c-.7 0-1.2.3-1.5.9l-5.7 8.9-5.7-8.9c-.3-.5-.8-.9-1.5-.9h-.3c-.9 0-1.7.7-1.7 1.7V28c0 .9.7 1.6 1.6 1.6s1.6-.7 1.6-1.6V16.7l4.6 6.8c.3.5.8.9 1.4.9.6 0 1-.3 1.4-.9l4.6-6.9v11.2c0 .9.8 1.6 1.6 1.6.9 0 1.7-.7 1.7-1.6V12.2c-.1-.9-.9-1.6-1.8-1.6zm32.8-.1c-.9 0-1.7.7-1.7 1.6v15.7c0 .9.7 1.6 1.7 1.6.9 0 1.6-.7 1.6-1.6V12.2c0-.9-.7-1.7-1.6-1.7zm15.7.2h-5.7c-.9 0-1.7.7-1.7 1.7v15.5c0 .9.7 1.6 1.7 1.6.9 0 1.6-.7 1.6-1.6v-4.5h3.7c4.1 0 7.5-2.2 7.5-6.4v-.1c0-3.7-2.7-6.2-7.1-6.2zm3.8 6.3c0 1.9-1.6 3.3-4.1 3.3h-3.8v-6.7h3.8c2.5.1 4.1 1.2 4.1 3.4zm16.8-5.3c-.4-.8-1-1.3-2-1.3h-.2c-.9 0-1.6.5-2 1.3l-7 15.5c-.1.3-.2.5-.2.7 0 .9.7 1.5 1.5 1.5.7 0 1.3-.4 1.5-1l1.6-3.6h9.1l1.5 3.5c.3.7.8 1.1 1.6 1.1.9 0 1.6-.7 1.6-1.6 0-.2-.1-.5-.2-.7l-6.8-15.4zm-5.4 10.2l3.3-7.5 3.3 7.5h-6.6zm24.9-3.4c-3.6-.9-4.5-1.5-4.5-2.9v-.1c0-1.2 1.1-2.2 3.1-2.2 1.5 0 2.9.5 4.3 1.4.3.2.5.2.9.2.9 0 1.6-.7 1.6-1.5 0-.6-.3-1.1-.7-1.3-1.7-1.1-3.6-1.7-6-1.7-3.7 0-6.4 2.2-6.4 5.4v.1c0 3.4 2.3 4.6 6.3 5.6 3.5.8 4.2 1.5 4.2 2.9v.1c0 1.4-1.3 2.3-3.3 2.3s-3.7-.7-5.3-1.9c-.2-.2-.5-.3-1-.3-.9 0-1.6.7-1.6 1.5 0 .5.3 1 .6 1.3 2.1 1.5 4.5 2.3 7.1 2.3 3.9 0 6.7-2.1 6.7-5.6V24c0-3.1-2.1-4.5-6-5.5zm23.6-7.8h-12.5c-.9 0-1.5.7-1.5 1.5s.7 1.5 1.5 1.5h4.6v14.1c0 .9.8 1.6 1.7 1.6s1.7-.7 1.7-1.6V13.7h4.6c.8 0 1.5-.7 1.5-1.5-.1-.8-.8-1.5-1.6-1.5zm19.2 15.7h-9.4v-5h8.1c.8 0 1.5-.6 1.5-1.4s-.7-1.5-1.5-1.5h-8.1v-4.9h9.3c.8 0 1.5-.6 1.5-1.5 0-.8-.7-1.5-1.5-1.5h-10.9c-.9 0-1.7.7-1.7 1.7v15.4c0 .9.7 1.7 1.7 1.7h11.1c.8 0 1.5-.6 1.5-1.5-.1-.8-.8-1.5-1.6-1.5zM74.9 0l-10 1.6c-.9 0-1.6.7-1.6 1.7l.1 20.3L54 11.5c-.5-.6-.9-1-1.7-1H52c-.9 0-1.7.7-1.7 1.7V34c-.9.6-1.6 1.6-1.6 2.8 0 1.8 1.4 3.2 3.2 3.2s3.2-1.4 3.2-3.2c0-1.2-.6-2.2-1.6-2.8V16l9.7 12.4c.5.6.9 1 1.7 1h.1c.9 0 1.6-.7 1.6-1.6v-23h5.5c.6.9 1.6 1.6 2.8 1.6 1.8 0 3.2-1.4 3.2-3.2S76.7 0 74.9 0zM51.8 38.4c-.9 0-1.7-.7-1.7-1.6 0-.9.7-1.6 1.7-1.6.9 0 1.7.7 1.7 1.6-.1.9-.8 1.6-1.7 1.6zM74.9 4.9c-.9 0-1.7-.7-1.7-1.6s.7-1.6 1.7-1.6c.9 0 1.7.7 1.7 1.6-.1.8-.8 1.6-1.7 1.6z"/></svg>