<svg xmlns="http://www.w3.org/2000/svg" xmlns:xlink="http://www.w3.org/1999/xlink" width="385" height="1698" viewBox="0 0 385 1698"><svg xmlns="http://www.w3.org/2000/svg" width="385" height="585" viewBox="0 0 385 585" y="0" id="background-download"><path fill="#fff" d="M375.4 56.9c.3 0 .4 0 .4-.4V22.7H342c-.3 0-.4.1-.4.4v33.8h33.8zM343 24.5c0-.2 0-.4.3-.4h30.6c.7 0 .6-.1.6.6v23.7c0 .3-.1.4-.4.4h-2.4c-.3 0-.4-.1-.5-.3-1.6-4.3-3.2-8.5-4.8-12.8-.1-.1-.1-.3-.2-.4-.3-.5-.8-.5-1.2-.1-.1.1-.2.2-.2.3-2 3-3.9 5.9-5.9 8.9-.2.4-.3.3-.6 0-1.1-1.3-2.2-2.6-3.2-3.9-.5-.6-1-.6-1.4.1-1.5 2.6-3.1 5.1-4.6 7.7-.2.4-.4.5-.8.5h-4.8c-.3 0-.4-.1-.4-.4V31.9c-.1-2.6-.1-5-.1-7.4zm26.5 24.2H350.4c1.4-2.3 2.7-4.6 4.1-6.9 1.1 1.3 2.2 2.6 3.2 3.9.7.9 1.2 1.1 1.9-.1 1.8-2.8 3.6-5.5 5.5-8.2.1-.1.2-.3.3-.5.9 2.4 1.8 4.7 2.6 7 .5 1.5 1.1 2.9 1.7 4.4.1.3.1.4-.2.4zm-26.2 6.8c-.2 0-.3-.1-.3-.3v-4.9c0-.3.2-.3.4-.3H374.1c.3 0 .4.1.4.4v4.7c0 .3-.1.3-.4.3h-29.3c-.5.1-1 .1-1.5.1zm35.3 3.7V27.7c0-.8 0-.8-.9-.8-.4 0-.5.1-.5.5v30.4c0 .4-.1.5-.5.5h-30.1c-.8 0-.8 0-.9.8 0 .5.1.5.5.5H378c.5 0 .6-.1.6-.4zm2.7-12.6V31.7c0-.8 0-.8-.8-.8-.4 0-.5.1-.5.5v28.9c0 .7 0 .7-.7.7h-28.5c-.9 0-.9 0-.9.9 0 .4.1.4.4.4h30.5c.4 0 .5-.1.5-.5V46.6zM352 34.4c1.7 0 3.1-1.5 3.1-3.3s-1.5-3.3-3.3-3.3-3.3 1.5-3.2 3.3c0 1.9 1.5 3.3 3.4 3.3zm-.1-5.2c1.1 0 1.9.8 1.9 1.9 0 1-.9 1.9-1.9 1.9-1.1 0-1.9-.9-1.8-2-.1-1 .7-1.8 1.8-1.8zm-27.1 463.2c0-1.5-.6-2.7-1.7-3.7-.7-.6-1.5-.9-2.4-1.1h-28.5l-.1.1c-2.4.4-4.1 2.5-4 5 .1 1.8 0 3.7 0 5.5v32.3c0 2.6 2.1 4.8 4.8 4.8H320c2.6 0 4.7-2.1 4.8-4.7V492.4zm-3.9 41c-.4.1-.8.2-1.2.2h-26.5c-2 0-3.4-1.3-3.4-3.4V493c0-1.2.2-2.3 1.2-3.1.6-.5 1.4-.7 2.2-.7h26.3c.9 0 1.7.1 2.4.7.9.7 1.3 1.7 1.3 2.8v37.4c0 1.6-.8 2.9-2.3 3.3zm-.9-38.7c0-.8 0-.8-.8-.8h-25.7c-.4 0-.6.1-.6.6v30.8c0 .4.1.5.5.5H319.5c.4 0 .6-.1.6-.5v-9.2c-.1-7.2-.1-14.3-.1-21.4zm-2 29.4h-23c-.4 0-.5-.1-.5-.5V496c0-.4.1-.5.5-.5h23.1c.4 0 .4.2.4.5v27.6c-.1.3-.1.5-.5.5zm-11.6 3.1c-1.3 0-2.4 1.1-2.4 2.4 0 1.3 1.1 2.3 2.5 2.3 1.2 0 2.3-1.1 2.3-2.3.1-1.4-1-2.4-2.4-2.4zm.1 3.2c-.4 0-.8-.4-.8-.8s.4-.8.8-.8.8.4.8.8-.4.8-.8.8zm0-38.1c.4 0 .8-.3.8-.8 0-.4-.3-.8-.8-.8-.4 0-.8.4-.8.8 0 .5.4.8.8.8zM121.3 232.7c1.3-1.2 2.7-2.1 4.4-2.6 1.5-.4 3-.5 4.5-.5 2 0 3.9.1 5.7.8 1.3.5 2.4 1.3 3.4 2.2.6.5 1.1.5 1.5.1s.3-.9-.3-1.5c-1.8-1.7-3.9-2.8-6.4-3.2-.6-.1-1.3-.2-1.9-.3h-3.8c-.2.1-.5.1-.7.1-3 .3-5.6 1.4-7.8 3.5-.5.5-.5 1.1 0 1.4.4.5.9.5 1.4 0zm28.9 39.1c-.2-.3-.3-.5-.3-.9v-8.3c0-.9 0-1.8-.3-2.7-.5-1.8-1.6-3.3-2.9-4.6-1.6-1.7-3.5-3.1-5.4-4.6-.2-.2-.3-.4-.3-.7v-2.9c0-2.1-1.5-3.6-3.6-3.6H125c-2 0-3.6 1.6-3.6 3.5v22.8c0 1.9 1.5 3.4 3.4 3.4h8.9c.3 0 .5 0 .7-.2.3-.3.4-.6.2-.9-.2-.4-.5-.6-1-.6H125c-1.3 0-2-.7-2-2V247.2c0-1.4.7-2.1 2.1-2.1H136.8c1.6 0 2.3.7 2.3 2.2v7.2c0 .6.3 1 .9 1.1.6 0 .9-.4.9-1.1v-2c1.7 1.3 3.2 2.5 4.5 3.9 1.8 1.8 2.7 3.9 2.6 6.4-.1 2.7 0 5.4 0 8 0 .5.1 1 .4 1.4.6.8 1.1 1.6 1.6 2.4l3.3 4.8c.3.4.6.7 1.1.5.6-.2.8-.8.4-1.5-1.3-1.9-2.9-4.3-4.6-6.6zm-12.2-2.7c.9 1.3 1.5 2.6 1.2 4.2v2.4c0 1.7.9 3.1 2 4.4.3.4.8.4 1.2.1s.4-.8.2-1.2l-.6-.9c-.6-.8-.9-1.7-1-2.7v-4.2c0-.5-.1-.9-.4-1.3l-4.5-6.9c-.5-.7-.4-1.7.2-2.2.6-.5 1.7-.5 2.3.1l.7.7c1.5 1.5 3 2.9 4.5 4.4.5.5 1 .5 1.4.1s.3-.9-.2-1.4c-1.7-1.7-3.4-3.4-5.1-5-1.3-1.2-3.4-1.3-4.7-.2-1.2 1-1.5 3-.5 4.4 1.1 1.7 2.2 3.5 3.3 5.2zm.1-32.8c.3-.4.3-.9-.1-1.3-.5-.5-1-.9-1.5-1.2-1.8-1.2-3.9-1.5-6.3-1.5-.5 0-1.3 0-2 .1-2.2.2-4 1.2-5.5 2.7-.5.5-.5 1 0 1.4.3.3.9.3 1.3-.1 1.4-1.4 3.2-2.1 5.2-2.2 1.9-.1 3.8-.1 5.5.7.8.4 1.5.9 2.1 1.5.4.3 1 .3 1.3-.1zm-10.2.8c-.9.3-1.8.8-2.5 1.4-.5.4-.5.9-.2 1.3s.8.4 1.3.1c.2-.1.3-.3.5-.4 1.4-1 3-1.4 4.7-.9.9.2 1.7.7 2.4 1.3.5.4 1 .3 1.3-.1.3-.4.3-.9-.2-1.3-1.4-1.2-3.1-1.9-5-1.9-.7 0-1.5.2-2.3.5zm-.2 13.5c.5 0 .9-.4.9-.9s-.4-.9-.9-.9-.9.4-.9.9c0 .6.4.9.9.9zm3.5 0c.5 0 .9-.4.9-.9s-.4-.8-.9-.8-.9.4-.8.9c0 .5.4.8.8.8zm4.5-.8c0-.5-.4-.9-.9-.9s-.9.4-.9.8c0 .5.4.9.9.9s.9-.3.9-.8zm-8.1 4.3c-.5 0-.9.4-.9.9s.4.9.9.9.9-.4.9-.9-.4-.9-.9-.9zm3.6 1.8c.5 0 .9-.4.9-.9s-.4-.9-.9-.9-.9.4-.9.9.4.9.9.9zm3.6 0c.5 0 .9-.4.9-.9s-.4-.9-.9-.9-.9.4-.9.9.4.9.9.9zm-6.3 4.4c0-.5-.4-.9-.8-.9-.5 0-.9.3-.9.8s.4.9.9.9c.4 0 .8-.3.8-.8zm2.7-.9c-.5 0-.9.4-.9.9s.4.9.9.9.9-.4.9-.9-.4-.9-.9-.9zm-3.5 7c.5 0 .9-.4.9-.9s-.4-.9-.9-.9-.9.4-.9.9.4.9.9.9zm2.6-.9c0 .5.4.9.9.8.5 0 .9-.4.9-.9s-.4-.9-.9-.9c-.5.1-.9.5-.9 1zM209.2 69c-.3 0-.4-.1-.4-.4.1-1.1-.1-2-.8-2.9-.6-.7-1.4-1.2-2.3-1.3-.3 0-.4-.2-.4-.4-.5-5.4-4.3-10-9.7-11.3-.5-.1-1.1-.2-1.6-.3h-1.8c-.8.2-1.7.2-2.5.5-3.1.9-5.5 2.7-7.2 5.4-1.1 1.7-1.8 3.6-1.9 5.7 0 .2-.1.3-.3.4-2 .5-3 1.9-3 4 0 .4 0 .5-.5.6-1.7.3-3.1 1.3-3.4 3.2 0 0 0 .1-.1.1v1.2c.2.6.4 1.3.8 1.8.7.9 1.7 1.3 2.8 1.5.3 0 .4.1.4.4v.9c0 1 .3 1.9 1 2.5s1.5.8 2.4.8h3.6c.7 0 .9-.2.9-.9V65.1c0-.7-.2-.9-.9-.9h-2c-.3 0-.4-.1-.3-.4.1-.3.1-.7.1-1 .7-3.5 2.7-6.1 5.8-7.8 2.5-1.4 5.2-1.7 8-1 2.3.6 4.3 1.9 5.8 3.8 1.4 1.8 2.2 3.8 2.5 6.1 0 .3-.1.4-.3.4h-1.7c-.8 0-1 .2-1 1v15.3c0 .7.2.9.9.9h3.5c.3 0 .3.1.3.3v1.4c-.1 2.6-2.1 4.8-4.7 5-.9.1-1.8 0-2.7 0-.4 0-.5-.1-.6-.4-.4-1.4-1.9-2.2-3.5-2-1.4.2-2.6 1.5-2.6 2.9-.1 1.7 1 3 2.6 3.3 1.5.3 3-.6 3.6-2.1.1-.2.2-.3.4-.3h2.2c3.2 0 5.8-2 6.5-5.1.2-1 .2-1.9.2-2.9 0-.3.1-.5.4-.6.7-.4 1.1-1 1.4-1.7.2-.7.2-1.3.1-2 0-.3.1-.4.4-.5 1.1-.1 2-.6 2.8-1.5.4-.5.6-1.2.8-1.8v-1.2c-.2-.6-.4-1.3-.8-1.8-1.1-.9-2.1-1.3-3.2-1.5zm-32.4 6.4c-1-.2-1.9-.7-2.2-1.8-.4-1.6.4-3 2.3-3.3.3 0 .2.1.2.3v4.5c0 .4-.1.4-.3.3zm6.6-9.8c.3 0 .4.1.4.4v13.8c0 .3-.1.4-.4.4-1.1 0-2.1.1-3.2-.1-1-.1-1.5-.6-1.6-1.6-.1-1.6 0-3.1-.1-4.7v-5.4c0-1.7 1-2.8 2.7-2.8h2.2zm11.3 25.1c-1 0-1.9-.8-1.9-1.8s.8-1.8 1.9-1.8c1 0 1.8.8 1.8 1.9 0 .9-.9 1.7-1.8 1.7zm12.8-12.2c-.1 1-.6 1.5-1.5 1.6-1.2.2-2.3.1-3.5.1-.3 0-.2-.2-.2-.3V66.1c0-.3.1-.4.4-.4.9 0 1.8-.1 2.6.1 1.4.2 2.3 1.1 2.3 2.6v9.1c-.1.2-.1.6-.1 1zm2-3.1c-.7.2-.6.2-.6-.5v-4.2c0-.4.1-.4.4-.3 1.1.3 2 .8 2.2 2 .2 1.4-.6 2.6-2 3zm-70.7 402c-2.5-1.6-5.1-2.8-7.7-4-.3-.1-.5-.3-.4-.6v-1.5s0-.9.5-1.3c.2-.1.3-.4.4-.6.5-.9.7-2 .8-3 0-.2 0-.3.2-.5.4-.3.7-.7.8-1.2.3-1.2.4-2.3-.6-3.2-.1-.1-.1-.3 0-.4.2-.6.4-1.2.5-1.8.4-2.4-.6-4.1-2.8-4.9-1.8-.7-3.6-.8-5.4-.4-1.5.3-2.9.9-3.8 2.3-.1.2-.3.2-.4.2-1.6 0-2 1.3-1.8 2.4.1.8.4 1.5.7 2.2.1.1.2.3 0 .4-.7.5-1 1.3-1 2.1 0 1 .2 1.9 1.2 2.4.2.1.2.3.2.4.1 1.2.3 2.5 1.2 3.3.6.6.8 1.2.7 2v1c.1.4-.1.5-.5.7-2.5 1-5 2.3-7.3 3.7-.9.6-1.9 1.1-2.4 2.1v4.8c.2.3.5.5.9.5h27.3c.6 0 .9-.3.9-.9v-4c0-.5-.2-.9-.5-1.2-.7-.3-1.2-.7-1.7-1zm.5 5.4c0 .3-.1.4-.4.4h-25.2c-.7 0-.6.1-.6-.6v-2.5c0-.3.1-.5.3-.7 1.3-1.1 2.8-1.9 4.3-2.6 1.6-.8 3.1-1.5 4.8-2.2.5-.2.8-.5.8-1.1v-3.1c0-.4-.1-.7-.5-1-.6-.4-.9-1-1.1-1.7-.2-.6-.3-1.2-.3-1.9 0-.6-.2-.8-.8-.9-.3-.1-.4-.2-.5-.5-.2-.4-.1-.9 0-1.3.1-.2.2-.4.5-.4.7-.2.9-.5.6-1.2-.2-.7-.6-1.4-.8-2.1 0-.1 0-.1-.1-.2-.3-1.1-.2-1.2.9-1.1.4 0 .8-.1.9-.5.2-.7.7-1.2 1.4-1.5 2.2-1 4.4-1 6.6 0 1.4.7 1.7 1.5 1.5 3.1-.1.8-.4 1.4-.7 2.1-.3.8-.2 1.1.6 1.4.1 0 .1.1.2.1.4.3.2 1.9-.3 2.1s-.6.6-.6 1.1c0 1-.1 1.9-.6 2.8-.1.3-.3.5-.6.7s-.5.5-.5.9v3c0 .6.2.9.8 1.2 2.6 1.1 5.1 2.3 7.5 3.7.6.3 1.1.7 1.6 1.1.2.2.3.4.3.7v2.7zm15.6-41.8h-28.7v7c0 1 0 .9.9 1 .4 0 .5-.1.5-.5v-5.7c0-.3.1-.4.4-.4h25.2c.4 0 .6.1.6.5v13.5c0 .4-.1.5-.5.5h-5.2c-.3 0-.5.1-.7.3l-4.8 5.4c-.1.1-.1.2-.3.2-.1-.2 0-.3 0-.5v-5c0-.3-.1-.4-.4-.4H139c-1.1 0-1.1 0-1.1 1.1 0 .3.1.4.4.4h2.1c.3 0 .4.1.4.4v8c.2 0 .3-.1.3-.2 2.3-2.6 4.7-5.2 7-7.8.2-.2.3-.3.6-.3h6.6v-17.1c0-.4 0-.4-.4-.4zm-17.7 8.7c-.8 0-.8 0-.7 1.1 0 .8.7.3 1 .4.8 0 .3-.7.4-1 .1-.7-.5-.4-.7-.5zm5 .8c0-.8 0-.8-.8-.8-.2.1-.7-.3-.7.4 0 1 0 1 .6 1 .9.1.9.1.9-.6zm4.4-.1c0-.7 0-.7-.7-.7-.8 0-.8 0-.8.8 0 .7 0 .7.7.7.8 0 .8 0 .8-.8zM57.7 154.8c-1.6-.6-3.2-.7-4.9-.3-.5.1-1 .5-1.5.3s-.8-.7-1.1-1.1l-4.8-4.8c-.4-.4-.8-.5-1.2-.1-.3.3-.2.7.2 1.1l2.1 2.1 3.5 3.5c-.2.1-.3.2-.4.2-1.5 1-2.8 2.2-3.3 4-.1.2-.2.2-.4.2h-7.4c-2.1 0-3.6.9-4.6 2.8-.3.5-.3 1-.5 1.5v21.5c.2.5.3 1.1.5 1.5 1 1.8 2.5 2.8 4.6 2.8h32.3c2.6 0 4.5-1.6 5.1-4.2 0-.1.1-.1.1-.2v-21.5c0-.1-.1-.1-.1-.2-.6-2.6-2.5-4.1-5.1-4.2h-7.3c-.3 0-.4-.1-.5-.4-.2-.8-.7-1.5-1.2-2.1-.7-.8-1.5-1.4-2.4-1.9 1.6-1.6 3.2-3.3 4.9-4.9.3-.3.6-.6.8-.9.3-.4.3-.8 0-1.1s-.7-.3-1.1.2c-1.9 1.9-3.8 3.8-5.7 5.8-.2.5-.4.5-.6.4zm13.3 6.7c2 0 3.6 1.6 3.6 3.7v19.6c0 2.4-1.5 4-3.9 4H38.5c-2.1 0-3.7-1.6-3.7-3.7v-19.7c0-2.2 1.6-3.8 3.7-3.8h16.2c5.4-.1 10.9-.1 16.3-.1zm-10.3-3.1c.4.4.7.8.9 1.3.1.3.1.4-.2.4H48.3c-.5 0-.5 0-.3-.5.7-1.3 1.8-2.1 3-2.8 3.6-2.1 7.3-.8 9.7 1.6zm-14.4 4.5c-1.7 0-3.4.2-5.1.7-2.6.8-3.7 2.1-3.6 4.8.1 2.1 0 4.2 0 6.3v7.3c0 .5.1.9.2 1.4.6 1.5 1.8 2.3 3.2 2.9 1.9.8 3.9 1 6 1 3.1 0 6.2.2 9.3-.2 1.7-.2 3.3-.6 4.7-1.4 1.4-.9 2.3-2.1 2.2-3.8v-13c0-.7.1-1.4-.1-2-.4-1.5-1.5-2.3-2.8-2.8-1.9-.8-4-1-6.1-1.1-2.6-.1-5.3-.1-7.9-.1zm14 2.7c1 .6 1.6 1.4 1.5 2.6 0 4.4-.1 8.8 0 13.2 0 1.7-.7 2.7-2.1 3.3-1.5.7-3 1-4.6 1.1-3.2.2-6.4.2-9.6 0-1.7-.1-3.3-.4-4.8-1.3-1-.6-1.6-1.5-1.6-2.8v-14c0-1 .4-1.7 1.2-2.2 1-.6 2.1-.8 3.3-1 2.7-.4 5.3-.2 8-.3 2 0 4 0 6 .4.9.3 1.8.5 2.7 1zm8.6 9.5c-2 0-3.6 1.6-3.6 3.6s1.6 3.6 3.5 3.6c2 0 3.6-1.6 3.6-3.6.1-1.9-1.5-3.6-3.5-3.6zm0 5.8c-1.1 0-2.1-1-2.1-2.1s1-2.2 2.1-2.2 2.1 1 2.1 2.1c0 1.2-.9 2.2-2.1 2.2zm0-8.6c2 0 3.5-1.6 3.5-3.6 0-1.9-1.6-3.6-3.5-3.6-2 0-3.6 1.6-3.6 3.6 0 1.9 1.7 3.6 3.6 3.6zm0-5.8c1.2 0 2.2 1 2.2 2.2 0 1.1-1 2.1-2.1 2.1-1.2 0-2.2-1-2.2-2.2 0-1.1.9-2.1 2.1-2.1zm9.7 378.6H46.9c-1.2 0-1.9.5-2.4 1.7-.1.2-.1.4-.2.7v7.8h36.6v-7.8c-.2-.4-.2-.8-.4-1.2-.4-.8-1-1.2-1.9-1.2zM45.5 548c0-.3.1-.6.2-1 .2-.5.5-.7 1.1-.7h2.8c-1.4 1.6-2.7 3.1-4.1 4.7v-3zm3.2 6h-2.8c-.2 0-.3-.1-.3-.3 0-.5.1-.9.5-1.2 1.7-1.9 3.4-3.9 5.1-5.8.1-.1.2-.3.4-.3h4.2c-1.6 1.9-3.2 3.6-4.8 5.4-.6.7-1.2 1.3-1.8 2-.2.1-.3.2-.5.2zm6.1 0h-4.1l-.1-.1 4.8-5.4c.6-.7 1.2-1.3 1.8-2 .1-.1.2-.2.4-.2h4.1c0 .1-.1.2-.1.2-2.1 2.4-4.3 4.8-6.4 7.2-.1.2-.2.3-.4.3zm6.7 0h-4.7c0-.1.1-.2.1-.3 2.1-2.4 4.3-4.8 6.4-7.2.1-.1.2-.2.4-.2h4.8c-1.3 1.4-2.5 2.8-3.7 4.2-1 1.1-1.9 2.1-2.9 3.2-.1.2-.2.3-.4.3zm6.2 0h-4.2c.6-.7 1.2-1.4 1.8-2l4.8-5.4c.1-.1.2-.3.4-.3h4.2c0 .2-.1.2-.1.3-2.1 2.4-4.3 4.8-6.4 7.2-.3.1-.4.2-.5.2zm6.1 0h-4.3c1.7-1.9 3.3-3.7 4.9-5.5.6-.7 1.2-1.3 1.8-2 .1-.1.3-.2.5-.2h2c.4 0 1 .6 1 1.1 0 .1-.1.2-.2.3-1.8 2-3.5 4.1-5.3 6.1-.1.1-.2.2-.4.2zm6-.4c0 .2 0 .3-.3.3h-3.9c1.4-1.6 2.7-3.1 4-4.6.1 0 .1.1.1.2.1 1.4.1 2.8.1 4.1zm-28.7 2.9h-6.8v21.8c.2.7.5 1.3 1.1 1.7.5.4 1.1.6 1.8.6H78c1.5 0 2.5-.7 2.9-2.2 0-.1.1-.1.1-.2v-21.8H66.8c-5.3.1-10.5.1-15.7.1zm28.7 1.9v19.2c0 1.3-.7 1.9-1.9 1.9H47.5c-1.3 0-1.9-.7-1.9-2v-19.3c0-.3.1-.3.3-.3H79.3c.5-.1.5-.2.5.5zm-23.3 4.2V575c0 .8.4 1 1.1.7 1.5-.8 3-1.6 4.5-2.3l7.5-3.9c.3-.1.5-.3.5-.7 0-.3-.2-.5-.5-.7-4-2.1-8.1-4.2-12.1-6.3-.5-.2-1 .1-1 .8zm1.3.8c3.5 1.8 6.9 3.6 10.4 5.4-3.5 1.8-6.9 3.6-10.4 5.4v-10.8zM16.7 30.6c1.1 3.2 2.8 6 5.1 8.4.4.4.8.4 1.2.1.3-.3.3-.7-.1-1.1-.3-.3-.6-.6-.8-.9-5-6-6.3-12.8-3.8-20.1 3-8.7 11.4-14.2 20.6-13.5 4.1.3 7.8 1.6 11 4.2 5.8 4.6 8.4 10.7 7.8 18.1-.3 3.5-1.5 6.8-3.6 9.7-.7.9-1.4 1.8-2.2 2.6-.4.4-.4.8 0 1.1.3.3.7.3 1.1-.1 3.1-3.2 5.1-7 5.9-11.4.2-.8.2-1.7.4-2.5v-2.9c-.2-.8-.2-1.6-.3-2.4-.7-3.8-2.3-7.2-4.7-10.1-3.3-3.9-7.5-6.4-12.6-7.4-.9-.3-1.7-.4-2.5-.4-.1 0-.3 0-.4-.1h-2.9c-.8.1-1.7.2-2.5.4-5.4 1-9.8 3.7-13.2 8-2.4 3-3.9 6.5-4.5 10.4-.1.6-.1 1.1-.2 1.7v2.9c0 .1.1.2.1.3.2 1.6.5 3.3 1.1 5zm13.1-17.5c3.5-2.5 7.4-3.1 11.4-1.8 5 1.7 8 5.2 8.9 10.4.5 3-.1 5.8-1.6 8.4-.5 1-1.3 1.8-2 2.6-.4.4-.3.8 0 1.1s.7.2 1.1-.1c2.7-2.8 4.1-6.2 4.1-10.1 0-.9-.1-1.9-.3-2.8-.9-4.3-3.2-7.6-7-9.8-3.1-1.8-6.5-2.3-10-1.6-2.8.5-5.2 1.8-7.2 3.8-1.9 1.8-3.1 4-3.8 6.5-.6 2.1-.7 4.1-.3 6.2.5 3 1.8 5.6 4 7.8.3.3.7.4 1.1.1.4-.3.3-.7-.1-1.2-3.1-3.3-4.2-7.3-3.3-11.7.5-3.2 2.3-5.9 5-7.8zm-.1 32.4h15.5c.7 0 .9-.3.9-.9 0-.4 0-.8-.1-1.2-.5-3.5-1.9-6.5-4.7-8.8-2.3-1.8-5.3-1.9-7.6-.1-3.2 2.5-4.7 6-5 10-.1.7.2 1 1 1zm.5-1.9c.5-3.1 1.7-5.8 4.2-7.9 2.1-1.7 4.6-1.5 6.5.4 2.1 2 3.2 4.5 3.7 7.3 0 .6 0 .6-.6.6H30.6c-.3 0-.5 0-.4-.4zm.6-19.3c0 3.6 2.8 6.6 6.5 6.6 3.6 0 6.6-2.9 6.6-6.5s-2.8-6.4-6.3-6.6c-3.8-.1-6.8 3-6.8 6.5zm11.6.1c0 2.7-2.3 5.1-5 5.1-2.8 0-5.1-2.2-5.2-5 0-2.8 2.2-5.1 5-5.1 2.9-.1 5.2 2.1 5.2 5zm-3.2 300.8c-.1 0-.1-.1-.2-.1-10.9 0-21.9-.1-32.8-.1-.7.2-1.3.4-1.9.8-.7.6-1.2 1.4-1.4 2.3 0 .1-.1.1-.1.2 0 7.7-.1 15.3-.1 23l.1.1c.3 1.9 2.1 3.2 4.2 3.2h13.7c5.9 0 11.7 0 17.6.1 1.3 0 2.4-.5 3.2-1.4.5-.5.7-1.2.9-1.8 0-7.7.1-15.3.1-23-.2-.6-.4-1.3-.9-1.8-.7-.8-1.5-1.3-2.4-1.5zm1.8 8.2c0 5.8 0 11.5-.1 17.3 0 1.7-1.1 2.8-2.9 2.8-8.3 0-16.5-.1-24.8-.1H6.8c-1.1 0-2-.4-2.6-1.4-.2-.5-.2-1-.2-1.5 0-5.8 0-11.6.1-17.5 0-.2 0-.3.3-.3 6.1 0 12.1.1 18.2.1 6 0 11.9 0 17.9.1.6 0 .5-.1.5.5zm0-2.2c0 .3-.1.4-.4.4H22.5c-6 0-12 0-18-.1-.3 0-.4-.1-.4-.4.1-.8-.1-1.6.1-2.4.2-1.5 1.2-2.3 2.8-2.3h10.8c5.1 0 10.2 0 15.2.1h5.2s2.8 1.1 2.8 2.8v1.9zm-6.8 5.5c-5.2 0-10.4 0-15.5-.1h-1.4s-.7.3-.7.6.3.6.7.6H34.1c.2 0 .5 0 .7-.2s.3-.4.2-.7c-.1-.1-.4-.2-.8-.2zm0 5.1H17.4c-.2 0-.5 0-.7.1-.2.2-.3.4-.2.7.1.3.4.5.8.5h16.8c.2 0 .4 0 .6-.2.2-.2.3-.4.2-.7-.1-.2-.3-.4-.7-.4zm0 5.2H17.4c-.2 0-.5 0-.6.2-.2.2-.3.4-.2.7.1.3.4.4.7.4h16.8c.2 0 .4 0 .6-.2.2-.2.3-.4.2-.7-.1-.3-.4-.4-.7-.4zm-22.3-10.4H9.4c-.5 0-.7.2-.7.6s.3.7.8.7H12s.7-.3.7-.7c-.1-.3-.4-.6-.8-.6zm.1 5.2H9.3c-.4 0-.6.3-.6.7 0 .3.3.6.7.6h2.7c.4 0 .6-.3.6-.6-.1-.4-.4-.7-.7-.7zm-.1 5.1H9.3c-.4 0-.7.3-.7.7 0 .4.3.6.7.6h2.5s.7-.3.7-.7c.1-.3-.2-.6-.6-.6zM8 327.6c-.7 0-1.3.6-1.3 1.3 0 .7.6 1.3 1.3 1.3s1.3-.6 1.3-1.3c0-.7-.5-1.3-1.3-1.3zm4 0c-.7 0-1.3.6-1.3 1.2 0 .8.6 1.3 1.3 1.3s1.3-.6 1.3-1.2c0-.7-.6-1.3-1.3-1.3zm3.9 0c-.7 0-1.3.6-1.3 1.3 0 .7.6 1.3 1.3 1.3.7 0 1.3-.6 1.3-1.3.1-.7-.5-1.3-1.3-1.3z"/></svg>
<svg xmlns="http://www.w3.org/2000/svg" width="245" height="605" viewBox="0 0 245 605" y="585" id="background-questions"><path stroke="#fff" stroke-width="2" stroke-miterlimit="10" d="M92.7 178.1l2.3 3c3.2 4.2 8.9 4.6 13.5 2 4.2-2.3 8.5-3.6 12.4-3.6 6.6 0 10.4 2.9 10.4 7.6v.1c0 5.9-5.7 14.4-21.7 15.7l-.6.6c-.3.3.1 4.8.9 10l.6 4.2c.8 5.2 5.1 9.4 9.8 9.4 4.6 0 8.7-2 9.2-4.4s.8-4.4.8-4.4c15.3-3.7 26.9-15.9 26.9-33.2v-.1c0-17.9-14.2-28.9-34.5-28.9-11.7 0-21 3.3-28.5 8.4-4.2 3-4.6 9.5-1.5 13.6zm23.1 57.1c-5.3 0-9.5 4.2-9.5 9.5v4.4c0 5.2 4.3 9.5 9.5 9.5h8.2c5.3 0 9.5-4.2 9.5-9.5v-4.4c0-5.2-4.3-9.5-9.5-9.5h-8.2zm10.1 136.6l.1-.2c6.4-10.9 1.6-22.6-10.7-29.9-7.1-4.2-13.9-5.5-20.3-5.1-3.7.3-6.2 4.1-5.8 7.7l.3 2.7c.4 3.7 3.8 5.9 7.5 6 3.4.1 6.4.9 8.8 2.3 4 2.4 5.3 5.4 3.6 8.3v.1c-2.1 3.6-8.6 6.7-18.8 1.8l-.6.2c-.3.1-1.7 3-3 6.4l-1.1 2.8c-1.4 3.4-.2 7.5 2.6 9.2 2.8 1.6 6 1.9 7.1.6s2.1-2.4 2.1-2.4c10.7 3.3 22 0 28.2-10.5zm-38 18.5l-5-2.9c-3.2-1.9-7.3-.8-9.2 2.4l-1.6 2.7c-1.9 3.2-.8 7.3 2.4 9.2l5 2.9c3.2 1.9 7.3.8 9.2-2.4l1.6-2.7c1.9-3.2.8-7.3-2.4-9.2zM225.2 49.5c3.1-.7 5.6-2.6 5.6-4.3s-.1-3.1-.1-3.1c9.9-4.7 16-14.6 13.5-26.4v-.2C241.7 3.3 230.5-2.1 216.7.8c-7.9 1.7-13.8 5.2-18.1 9.8-2.5 2.6-1.9 7.1.9 9.5l2 1.7c2.7 2.4 6.7 1.8 9.4-.5 2.5-2.2 5.2-3.6 7.9-4.2 4.5-.9 7.4.5 8.1 3.7v.1c.8 4-1.8 10.6-12.5 13.8l-.3.5c-.2.3.7 3.3 2 6.7l1 2.8c1.4 3.2 5 5.5 8.1 4.8zm11.4 10c-.7-3.6-4.2-5.8-7.8-5.1l-5.5 1.2c-3.6.7-5.8 4.2-5.1 7.8l.6 3c.7 3.6 4.2 5.8 7.8 5.1l5.5-1.2c3.6-.7 5.8-4.2 5.1-7.8l-.6-3zM67.7 39.1C61.5 22.3 44.3 16.9 25.3 24c-11 4-18.6 10.4-23.8 17.7C-1.6 46 .3 52.2 4.8 55L8 57c4.4 2.8 9.9 1.2 13.3-2.8 3.1-3.6 6.7-6.3 10.4-7.6 6.2-2.3 10.7-.9 12.3 3.5v.1c2 5.5-.3 15.4-14.9 22.3l-.1.8c-.2.4 1.7 4.5 4.3 9.1l2.1 3.7c2.5 4.6 8.1 7 12.4 5.4s7.5-4.9 7.1-7.3-.7-4.4-.7-4.4C67.1 71 73.8 55.6 67.8 39.3l-.1-.2zm-1.6 64.2c-1.8-4.9-7.3-7.4-12.2-5.6l-7.7 2.8c-4.9 1.8-7.5 7.3-5.6 12.2l1.5 4.1c1.8 4.9 7.3 7.4 12.2 5.6l7.7-2.8c4.9-1.8 7.5-7.3 5.6-12.2l-1.5-4.1zm113.7 416.1c-4.7-17.2-21.4-24.1-40.9-18.7-11.3 3.1-19.4 8.7-25.2 15.6-3.4 4-2.1 10.4 2.1 13.5l3 2.3c4.2 3.2 9.8 2.1 13.5-1.6 3.4-3.3 7.2-5.7 11.1-6.7 6.4-1.8 10.8 0 12 4.5v.1c1.6 5.7-1.7 15.3-16.7 20.9l-.4.7c-.2.4 1.4 4.6 3.5 9.4l1.7 3.9c2.1 4.8 7.4 7.7 11.9 6.4 4.4-1.2 7.9-4.2 7.7-6.7s-.4-4.5-.4-4.5c13.8-7.6 21.8-22.4 17.1-39.1zm-7.1 63.9c-1.4-5-6.6-8-11.7-6.6l-7.9 2.2c-5.1 1.4-8.1 6.6-6.7 11.7l1.2 4.3c1.4 5 6.6 8 11.7 6.6l7.9-2.2c5.1-1.4 8.1-6.6 6.7-11.7l-1.2-4.3zM29.1 254c3.9 0 6 1.8 6 4.5v.1c0 3.5-3.4 8.4-12.8 9.1l-.3.4c-.2.2 0 2.8.4 5.8l.3 2.5c.4 3 2.9 5.5 5.6 5.5s5.1-1.1 5.4-2.5c.3-1.4.5-2.6.5-2.6 9-2.1 15.8-9.1 16-19.2v-.2c.1-10.4-8.1-17-19.9-17.1-6.8-.1-12.3 1.8-16.7 4.7-2.5 1.7-2.8 5.5-1 7.9l1.3 1.8c1.8 2.5 5.1 2.7 7.8 1.3 2.5-1.3 5-2 7.4-2zm-3.7 46.1l4.8.1c3.1 0 5.6-2.4 5.6-5.5v-2.6c0-3.1-2.4-5.6-5.5-5.6l-4.8-.1c-3.1 0-5.6 2.4-5.6 5.5v2.6c0 3.1 2.5 5.6 5.5 5.6zm14.8 169c-6.8-.1-12.3 1.8-16.7 4.7-2.5 1.7-2.8 5.5-1 7.9l1.3 1.8c1.8 2.5 5.1 2.7 7.8 1.3 2.5-1.3 5-2 7.3-2 3.9 0 6 1.8 6 4.5v.1c0 3.5-3.4 8.4-12.8 9.1l-.3.4c-.2.2 0 2.8.4 5.8l.3 2.5c.4 3 2.9 5.5 5.6 5.5 2.7 0 5.1-1.1 5.4-2.5.3-1.4.5-2.6.5-2.6 9-2.1 15.8-9.1 16-19.2v-.2c.3-10.5-7.9-17-19.8-17.1zm.1 46.2l-4.8-.1c-3.1 0-5.6 2.4-5.6 5.5v2.6c0 3.1 2.4 5.6 5.5 5.6l4.8.1c3.1 0 5.6-2.4 5.6-5.5v-2.6c0-3.1-2.4-5.6-5.5-5.6zM83.6 26c1.8 2.5 5.1 2.7 7.8 1.3 2.5-1.3 5-2 7.3-2 3.9 0 6 1.8 6 4.5v.1c0 3.5-3.4 8.4-12.8 9.1l-.3.4c-.2.2 0 2.8.4 5.8l.3 2.5c.4 3 2.9 5.5 5.6 5.5s5.1-1.1 5.4-2.5.5-2.6.5-2.6c9-2.1 15.8-9.1 16-19.2v-.2c.1-10.4-8.1-17-19.9-17.1-6.8-.1-12.3 1.8-16.7 4.7-2.5 1.7-2.8 5.5-1 7.9l1.4 1.8zm16.2 45.4c3.1 0 5.6-2.4 5.6-5.5v-2.6c0-3.1-2.4-5.6-5.5-5.6l-4.8-.1c-3.1 0-5.6 2.4-5.6 5.5v2.6c0 3.1 2.4 5.6 5.5 5.6l4.8.1z" fill="none"/></svg>
<svg xmlns="http://www.w3.org/2000/svg" width="32" height="32" viewBox="0 0 32 32" y="1190" id="button-close"><path fill="#77DDF0" d="M16 0C7.2 0 0 7.2 0 16s7.2 16 16 16 16-7.2 16-16S24.8 0 16 0zm0 29.2C8.7 29.2 2.8 23.3 2.8 16S8.7 2.8 16 2.8 29.2 8.7 29.2 16 23.3 29.2 16 29.2z"/><path fill-rule="evenodd" clip-rule="evenodd" fill="#fff" d="M18.3 16l2.9-2.9c.3-.3.3-.8 0-1.2L20 10.7c-.3-.3-.8-.3-1.2 0l-2.8 3-2.9-2.9c-.3-.3-.8-.3-1.2 0L10.7 12c-.3.3-.3.8 0 1.2l2.9 2.9-2.9 2.9c-.3.3-.3.8 0 1.2l1.2 1.2c.3.3.8.3 1.2 0l2.9-2.9 2.9 2.9c.3.3.8.3 1.2 0l1.2-1.2c.3-.3.3-.8 0-1.2l-3-3z"/></svg>
<svg xmlns="http://www.w3.org/2000/svg" width="50" height="50" viewBox="0 0 50 50" y="1222" id="button-play"><path fill="#fff" d="M15.6 35.9L34.3 25 15.6 14.1z"/></svg>
<svg xmlns="http://www.w3.org/2000/svg" width="12" height="12" viewBox="0 0 12 12" y="1272" id="icon-arrowhead-down"><path fill-rule="evenodd" clip-rule="evenodd" fill="#fff" d="M12 3L6 9 0 3"/></svg>
<svg xmlns="http://www.w3.org/2000/svg" width="26" height="26" viewBox="0 0 26 26" y="1284" id="icon-facebook"><path fill="#fff" d="M9.3 5c0-.2 0-.5.1-1 0-.5.3-1.1.6-1.7.4-.6.9-1.1 1.8-1.6.8-.5 2-.7 3.5-.7h4.3v4.7h-3.2c-.3 0-.6.1-.9.3-.3.2-.4.5-.4.7v2.9h4.4c0 .6-.1 1.1-.2 1.7l-.2 1.4c-.1.5-.1.9-.2 1.3H15v13H9.3V13H6.5V8.6h2.8V5z"/></svg>
<svg xmlns="http://www.w3.org/2000/svg" width="26" height="26" viewBox="0 0 26 26" y="1310" id="icon-googleplus"><path fill="#fff" d="M1.4 6.6c0 2.2.7 3.7 2.2 4.7 1.2.8 2.5.9 3.2.9h.4s-.2 1.5.9 2.9c-1.9 0-8 .4-8 5.4 0 5.1 5.6 5.4 6.7 5.4H7.1c.7 0 2.6-.1 4.3-.9 2.2-1.1 3.4-3 3.4-5.6 0-2.6-1.7-4.1-3-5.2-.8-.7-1.4-1.3-1.4-1.8 0-.6.5-1 1.1-1.6 1-.9 1.9-2.2 1.9-4.6 0-2.1-.3-3.5-2-4.4.2-.1.8-.2 1.1-.2.9-.1 2.3-.3 2.3-1V.2H8.1S1.4.5 1.4 6.6zm10.8 13.1c.1 2-1.6 3.5-4.2 3.7-2.7.2-4.9-1-5-3-.1-1 .4-1.9 1.2-2.7.9-.8 2-1.3 3.3-1.3h.4c2.5-.1 4.1 1.4 4.3 3.3zM10.4 5.2c.7 2.3-.3 4.7-1.9 5.2-.2.1-.4.1-.6.1C6.5 10.4 5.1 9 4.5 7c-.3-1.2-.2-2.2.1-3.1.3-.9.9-1.6 1.7-1.8.2 0 .4-.1.6-.1 1.7 0 2.8.8 3.5 3.2zm11.3 5V5.9h-2.8v4.4h-4.4V13h4.4v4.4h2.8V13H26v-2.8h-4.3z"/></svg>
<svg xmlns="http://www.w3.org/2000/svg" width="26" height="26" viewBox="0 0 26 26" y="1336" id="icon-linkedin"><path fill="#fff" d="M26 15.8v9.6h-5.6v-9c0-2.3-.8-3.8-2.8-3.8-1.5 0-2.5 1-2.9 2-.1.4-.2.9-.2 1.4v9.4H9s.1-15.2 0-16.8h5.6v2.5-.1c.7-1.1 2.1-2.8 5-2.8 3.7.1 6.4 2.5 6.4 7.6zM3.2.6C1.2.6 0 1.8 0 3.5c0 1.6 1.2 2.9 3.1 2.9 1.9 0 3.2-1.3 3.2-2.9C6.2 1.8 5.1.6 3.2.6zM.3 25.4h5.6V8.7H.3v16.7z"/></svg>
<svg xmlns="http://www.w3.org/2000/svg" width="26" height="26" viewBox="0 0 26 26" y="1362" id="icon-twitter"><path fill="#fff" d="M25.9 5c-1 .4-2 .7-3.1.8 1.1-.7 1.9-1.7 2.3-2.9-1 .6-2.2 1.1-3.4 1.3-1-1-2.4-1.7-3.9-1.7-2.9 0-5.3 2.4-5.3 5.3 0 .4 0 .8.1 1.2-4.4-.2-8.3-2.3-11-5.6-.3.8-.5 1.7-.5 2.7 0 1.9.9 3.5 2.4 4.4-.9 0-1.7-.3-2.4-.7v.1c0 2.6 1.8 4.7 4.3 5.2-.4.1-.9.2-1.4.2-.3 0-.7 0-1-.1.7 2.1 2.6 3.7 5 3.7-1.8 1.4-4.1 2.3-6.6 2.3-.4 0-.9 0-1.3-.1 2.4 1.5 5.2 2.4 8.2 2.4 9.8 0 15.1-8.1 15.1-15.1v-.7C24.3 7 25.2 6 25.9 5z"/></svg>
<svg xmlns="http://www.w3.org/2000/svg" width="175" height="40" viewBox="0 0 175 40" y="1388" id="logo"><path fill="#fff" d="M9.9 10.4C4.1 10.4 0 14.8 0 20v.1c0 5.3 4 9.6 9.8 9.6 5.8 0 9.9-4.4 9.9-9.7 0-5.3-4.1-9.6-9.8-9.6zm6.3 9.7c0 3.6-2.6 6.6-6.3 6.6-3.7 0-6.4-3-6.4-6.6V20c0-3.6 2.6-6.6 6.3-6.6 3.7 0 6.4 3 6.4 6.7zm25.9-9.5h-.3c-.7 0-1.2.3-1.5.9l-5.7 8.9-5.7-8.9c-.3-.5-.8-.9-1.5-.9h-.3c-.9 0-1.7.7-1.7 1.7V28c0 .9.7 1.6 1.6 1.6.9 0 1.6-.7 1.6-1.6V16.7l4.6 6.8c.3.5.8.9 1.4.9.6 0 1-.3 1.4-.9l4.6-6.9v11.2c0 .9.8 1.6 1.6 1.6.9 0 1.7-.7 1.7-1.6V12.2c-.1-.9-.9-1.6-1.8-1.6zm32.8-.1c-.9 0-1.7.7-1.7 1.6v15.7c0 .9.7 1.6 1.7 1.6.9 0 1.6-.7 1.6-1.6V12.2c0-.9-.7-1.7-1.6-1.7zm15.7.2h-5.7c-.9 0-1.7.7-1.7 1.7v15.5c0 .9.7 1.6 1.7 1.6.9 0 1.6-.7 1.6-1.6v-4.5h3.7c4.1 0 7.5-2.2 7.5-6.4v-.1c0-3.7-2.7-6.2-7.1-6.2zm3.8 6.3c0 1.9-1.6 3.3-4.1 3.3h-3.8v-6.7h3.8c2.5.1 4.1 1.2 4.1 3.4zm16.8-5.3c-.4-.8-1-1.3-2-1.3h-.2c-.9 0-1.6.5-2 1.3l-7 15.5c-.1.3-.2.5-.2.7 0 .9.7 1.5 1.5 1.5.7 0 1.3-.4 1.5-1l1.6-3.6h9.1l1.5 3.5c.3.7.8 1.1 1.6 1.1.9 0 1.6-.7 1.6-1.6 0-.2-.1-.5-.2-.7l-6.8-15.4zm-5.4 10.2l3.3-7.5 3.3 7.5h-6.6zm24.9-3.4c-3.6-.9-4.5-1.5-4.5-2.9v-.1c0-1.2 1.1-2.2 3.1-2.2 1.5 0 2.9.5 4.3 1.4.3.2.5.2.9.2.9 0 1.6-.7 1.6-1.5 0-.6-.3-1.1-.7-1.3-1.7-1.1-3.6-1.7-6-1.7-3.7 0-6.4 2.2-6.4 5.4v.1c0 3.4 2.3 4.6 6.3 5.6 3.5.8 4.2 1.5 4.2 2.9v.1c0 1.4-1.3 2.3-3.3 2.3-2 0-3.7-.7-5.3-1.9-.2-.2-.5-.3-1-.3-.9 0-1.6.7-1.6 1.5 0 .5.3 1 .6 1.3 2.1 1.5 4.5 2.3 7.1 2.3 3.9 0 6.7-2.1 6.7-5.6V24c0-3.1-2.1-4.5-6-5.5zm23.6-7.8h-12.5c-.9 0-1.5.7-1.5 1.5s.7 1.5 1.5 1.5h4.6v14.1c0 .9.8 1.6 1.7 1.6.9 0 1.7-.7 1.7-1.6V13.7h4.6c.8 0 1.5-.7 1.5-1.5-.1-.8-.8-1.5-1.6-1.5zm19.2 15.7h-9.4v-5h8.1c.8 0 1.5-.6 1.5-1.4 0-.8-.7-1.5-1.5-1.5h-8.1v-4.9h9.3c.8 0 1.5-.6 1.5-1.5 0-.8-.7-1.5-1.5-1.5h-10.9c-.9 0-1.7.7-1.7 1.7v15.4c0 .9.7 1.7 1.7 1.7h11.1c.8 0 1.5-.6 1.5-1.5-.1-.8-.8-1.5-1.6-1.5zM74.9 0l-10 1.6c-.9 0-1.6.7-1.6 1.7l.1 20.3L54 11.5c-.5-.6-.9-1-1.7-1H52c-.9 0-1.7.7-1.7 1.7V34c-.9.6-1.6 1.6-1.6 2.8 0 1.8 1.4 3.2 3.2 3.2 1.8 0 3.2-1.4 3.2-3.2 0-1.2-.6-2.2-1.6-2.8V16l9.7 12.4c.5.6.9 1 1.7 1h.1c.9 0 1.6-.7 1.6-1.6v-23h5.5c.6.9 1.6 1.6 2.8 1.6 1.8 0 3.2-1.4 3.2-3.2 0-1.8-1.4-3.2-3.2-3.2zM51.8 38.4c-.9 0-1.7-.7-1.7-1.6 0-.9.7-1.6 1.7-1.6.9 0 1.7.7 1.7 1.6-.1.9-.8 1.6-1.7 1.6zM74.9 4.9c-.9 0-1.7-.7-1.7-1.6 0-.9.7-1.6 1.7-1.6.9 0 1.7.7 1.7 1.6-.1.8-.8 1.6-1.7 1.6z"/></svg>
<svg xmlns="http://www.w3.org/2000/svg" width="115" height="90" viewBox="0 0 115 90" y="1428" id="step-action"><path d="M50 32c0-3.3-2.7-6-6-6H6c-3.3 0-6 2.7-6 6v38c0 3.3 2.7 6 6 6h38c3.3 0 6-2.7 6-6V32zm-5.6 38.2l-38-.1V32h37.9v.1l.1 38.1zM96 39c0-2.2-1.8-4-4-4H67c-2.2 0-4 1.8-4 4v25c0 2.2 1.8 4 4 4h25c2.2 0 4-1.8 4-4V39zm-5 24H68V40h23v23zM79.9 45.7c-3 0-5.6 2.3-5.9 5.3H35.1c-.4-4-4.3-8.1-9-8.1-5 0-9 4.1-9 9s4 9 9 9c4.6 0 8.3-2.9 8.9-7.9h39.1c.6 3 2.9 4.5 5.7 4.5 3.2 0 5.9-2.6 5.9-5.9.1-3.2-2.6-5.9-5.8-5.9zM26.1 57.9c-3.3 0-6-2.7-6-6s2.7-6 6-6 6 2.7 6 6-2.6 6-6 6zm53.8-2.4c-2.1 0-3.8-1.7-3.8-3.8s1.7-3.8 3.8-3.8 3.8 1.7 3.8 3.8-1.7 3.8-3.8 3.8z" fill="#219DBC"/><path fill-rule="evenodd" clip-rule="evenodd" fill="#FFB31A" d="M98.9 14.3c8.8 0 16 7.2 16 16s-7.2 16-16 16-16-7.2-16-16c0-8.9 7.2-16 16-16z"/><path fill="#fff" d="M94.9 33.7l.3-.5c.3-.4.6-.4 1-.2.4.3 1.2.8 2.2.8 1.3 0 2.2-.8 2.2-1.8 0-1.3-1.2-1.9-2.6-1.9h-.3c-.4 0-.6-.1-.8-.5l-.1-.1c-.2-.3-.1-.6.2-.9l1.9-2.2c.5-.6.9-.9.9-.9s-.4.1-1.1.1h-2.9c-.5 0-.7-.2-.7-.7v-.5c0-.5.2-.7.7-.7h5.9c.5 0 .7.2.7.7v.2c0 .4-.1.6-.3.9l-2.6 3c1.7.2 3.3 1.4 3.3 3.5s-1.5 4-4.2 4c-1.7 0-2.9-.7-3.5-1.2-.4-.4-.5-.8-.2-1.1z"/></svg>
<svg xmlns="http://www.w3.org/2000/svg" width="90" height="90" viewBox="0 0 90 90" y="1518" id="step-download"><path fill="#219DBC" d="M72.5 28.4h-37l-4.6-4.2c-.6-.5-1.3-.8-2.1-.8H3.1c-1.7 0-3.1 1.4-3.1 3v48c0 1.7 1.4 3 3.1 3h69.4c1.7 0 3.1-1.4 3.1-3v-43c-.1-1.7-1.4-3-3.1-3zm-3.1 42.9H6.2V29.4h21.4l4.6 4.2c.6.5 1.3.8 2.1.8h35.2v36.9zM32.5 41.4V55h-4.4c-1.3 0-.1 1.1-.1 1.1l9.8 9.4s.6.7 1.3.1c.9-.9 9.5-9.7 9.5-9.7s1.2-1.2-.4-1.2h-4.1V41.3s0-.6-.7-.6H33.3c-1 0-.8.7-.8.7z"/><path fill-rule="evenodd" clip-rule="evenodd" fill="#FFB31A" d="M73.6 12.6c9 0 16.3 7.3 16.3 16.3s-7.3 16.3-16.3 16.3-16.3-7.3-16.3-16.3 7.3-16.3 16.3-16.3z"/><path fill="#fff" d="M70.1 33.2c0-.5.2-.7.7-.7h2v-7.6s-.2.3-.5.6l-.5.5c-.3.3-.7.3-1 0l-.3-.3c-.3-.3-.3-.7 0-1l2.2-2.1c.3-.2.5-.4.9-.4h.7c.5 0 .7.3.7.7v9.7h1.9c.5 0 .7.2.7.7v.5c0 .5-.3.7-.7.7h-6.1c-.5 0-.7-.2-.7-.7v-.6z"/></svg>
<svg xmlns="http://www.w3.org/2000/svg" width="75" height="90" viewBox="0 0 75 90" y="1608" id="step-install"><path fill="#219DBC" d="M16.4 48.7l-4.1 5.7 4.2 4.2 5.8-4c1.4.9 3 1.5 4.7 1.9l1.2 7h5.9l1.2-7c1.7-.4 3.2-1.1 4.7-2l5.8 4.1 4.2-4.2-4.1-5.8c.9-1.4 1.5-3 1.9-4.7l7-1.2v-5.9l-7-1.1c-.4-1.7-1.1-3.2-1.9-4.7l4.1-5.8-4.4-4.2-5.7 4.1c-1.4-.9-3-1.5-4.7-1.9l-1.2-7h-6l-1.1 7c-1.7.4-3.2 1.1-4.7 1.9L16.5 21l-4.2 4.2 4 5.8c-.9 1.4-1.5 3-2 4.7l-6.9 1.2v5.9l6.9 1.2c.5 1.6 1.2 3.2 2.1 4.7zM31 31.6c4.5 0 8.2 3.7 8.2 8.2 0 4.5-3.7 8.2-8.2 8.2-4.5 0-8.2-3.7-8.2-8.2 0-4.5 3.7-8.2 8.2-8.2zm26.1 29.6v9.5c0 1.3-1.1 2.4-2.4 2.4H7.4C6.1 73.1 5 72 5 70.7v-9.5H.3v9.5c0 3.9 3.2 7.1 7.1 7.1h47.4c3.9 0 7.1-3.2 7.1-7.1v-9.5h-4.8z"/><path fill-rule="evenodd" clip-rule="evenodd" fill="#FFB31A" d="M58.9 12.2c8.8 0 15.9 7.1 15.9 15.9S67.7 44 58.9 44 43 36.8 43 28.1c0-8.8 7.1-15.9 15.9-15.9z"/><path fill="#fff" d="M54.8 32.3c0-4.3 5.6-5 5.6-7.4 0-1-.8-1.7-1.8-1.7-.9 0-1.5.5-1.8.9-.3.3-.7.4-1 .2l-.4-.3c-.4-.3-.4-.6-.2-.9.5-.7 1.6-1.8 3.6-1.8 2.1 0 3.9 1.3 3.9 3.5 0 3.8-5.4 4.5-5.5 6.8h4.9c.5 0 .7.2.7.7v.5c0 .5-.2.7-.7.7h-6.6c-.4 0-.8-.2-.8-.7v-.5z"/></svg>
</svg>