<?xml version="1.0" encoding="utf-8"?>
<!-- Generator: Adobe Illustrator 17.1.0, SVG Export Plug-In . SVG Version: 6.00 Build 0)  -->
<!DOCTYPE svg PUBLIC "-//W3C//DTD SVG 1.1//EN" "http://www.w3.org/Graphics/SVG/1.1/DTD/svg11.dtd">
<svg version="1.1" id="Layer_1" xmlns:ev="http://www.w3.org/2001/xml-events"
	 xmlns="http://www.w3.org/2000/svg" xmlns:xlink="http://www.w3.org/1999/xlink" x="0px" y="0px" viewBox="233.9 26.5 595.2 595.3"
	 enable-background="new 233.9 26.5 595.2 595.3" xml:space="preserve">
<path fill="#FFB31A" d="M531.5,621.8c-164.4,0-297.6-133.2-297.6-297.6S367.1,26.5,531.5,26.5s297.6,133.2,297.6,297.6
	S696,621.8,531.5,621.8z"/>
<g>
	<path fill="#F5F2ED" d="M312.7,308.9l-25.2-68.7h-8.4l-25.2,68.7H265l4.7-13.8h27.1l4.7,13.8H312.7z M293.9,286.3h-21.1l10.7-30.5
		L293.9,286.3z"/>
	<path fill="#F5F2ED" d="M360.9,308.9v-31.3c0-5.5-1.2-10.1-4.9-13.8c-2.9-2.8-7-4.4-12.1-4.4c-4.9,0-9.7,1.8-13,5.5V260h-9.7v48.9
		h9.8v-29.8c0-7.5,4.6-10.9,10.1-10.9c5.5,0,9.8,3.3,9.8,10.9v29.8H360.9z"/>
	<path fill="#F5F2ED" d="M412.3,294c0-8.7-5.4-13-14.6-13.8l-7.7-0.7c-5.2-0.5-6.8-2.7-6.8-5.6c0-3.7,3-6.3,8.9-6.3
		c4.6,0,9,1,12.1,3.6l6.2-6.3c-4.5-4-10.8-5.5-18.1-5.5c-10.2,0-18.4,5.4-18.4,15c0,8.6,5.3,12.7,14.5,13.5l7.8,0.7
		c4.7,0.4,6.6,2.5,6.6,5.8c0,4.6-4.7,6.8-10.7,6.8c-4.8,0-10.1-1.1-14.1-5.1l-6.5,6.5c5.8,5.7,12.5,7,20.6,7
		C403.6,309.5,412.3,304.2,412.3,294z"/>
	<path fill="#F5F2ED" d="M487.3,260h-10.5l-9.5,34.5L456.1,260h-7.6l-11.4,34.5l-9.5-34.5h-10.4l15.2,48.9h8.5l11.4-34.2l11.5,34.2
		h8.4L487.3,260z"/>
	<path fill="#F5F2ED" d="M534.2,287.3V283c0-13.9-7.6-23.5-20.7-23.5c-12.5,0-20.8,9.2-20.8,25c0,18.6,9.7,25.1,22,25.1
		c8.6,0,13.3-2.6,18.3-7.6l-6.3-5.9c-3.5,3.5-6.4,5-11.9,5c-8,0-12.5-5.3-12.5-13.7H534.2z M524.4,280.5h-22c0.1-3,0.3-4.4,1.3-6.7
		c1.5-3.7,5.1-6.2,9.7-6.2c4.6,0,8.1,2.5,9.7,6.2C524,276,524.3,277.5,524.4,280.5z"/>
	<path fill="#F5F2ED" d="M581.5,264.1c-3.4-3.4-6.9-4.6-11.7-4.6c-5.5,0-10.5,2.4-13,5.9V260h-9.7v48.9h9.8v-29.7
		c0-6.8,4.4-11,9.7-11c3.4,0,5.1,1.1,7.3,3.3L581.5,264.1z"/>
	<path fill="#F5F2ED" d="M633.8,268.4v-7.5h-9.7v-7c0-3.6,1.7-5.7,5.4-5.7h4.3v-8.4h-6.2c-9.2,0-13.4,6.6-13.4,13.6v7.5h-5.6v7.5
		h5.6v40.5h9.8v-40.5H633.8z"/>
	<path fill="#F5F2ED" d="M678.7,264.1c-3.4-3.4-6.9-4.6-11.7-4.6c-5.5,0-10.5,2.4-13,5.9V260h-9.7v48.9h9.8v-29.7
		c0-6.8,4.4-11,9.7-11c3.4,0,5.1,1.1,7.3,3.3L678.7,264.1z"/>
	<path fill="#F5F2ED" d="M722.3,284.4c0-8.2-1.2-14.4-5.8-19.2c-3.2-3.3-8-5.8-14.7-5.8c-6.7,0-11.4,2.5-14.6,5.8
		c-4.6,4.8-5.8,11-5.8,19.2c0,8.3,1.2,14.5,5.8,19.3c3.2,3.3,7.9,5.8,14.6,5.8c6.7,0,11.5-2.5,14.7-5.8
		C721.1,298.9,722.3,292.7,722.3,284.4z M712.4,284.4c0,5.3-0.4,10.4-3.4,13.4c-1.8,1.8-4.3,2.9-7.2,2.9c-2.9,0-5.3-1.1-7.1-2.9
		c-3-3-3.4-8.1-3.4-13.4s0.4-10.4,3.4-13.4c1.8-1.8,4.2-2.8,7.1-2.8c2.9,0,5.4,1,7.2,2.8C712,274,712.4,279.1,712.4,284.4z"/>
	<path fill="#F5F2ED" d="M805.1,308.9v-31.3c0-5.5-1.4-10.1-5.2-13.8c-2.9-2.8-7.3-4.4-12.4-4.4c-6.5,0-11.4,2.3-15.3,7.1
		c-3.1-4.7-7.8-7.1-13.9-7.1c-4.9,0-9.7,1.9-13,5.5V260h-9.7v48.9h9.8v-29.8c0-7.5,4.6-10.9,10.1-10.9c5.5,0,9.8,3.3,9.8,10.9v29.8
		h9.8v-30.3c0-7,4.8-10.4,10.1-10.4c5.5,0,9.8,3.3,9.8,10.9v29.8H805.1z"/>
	<path fill="#F5F2ED" d="M423.6,412.9v-8.4h-4.3c-4,0-5.3-1.9-5.3-5.7v-54.6h-9.8v55.2c0,7.2,4.1,13.5,13.4,13.5H423.6z"/>
	<path fill="#F5F2ED" d="M470.4,412.9v-32.7c0-11.1-6.8-16.8-20.2-16.8c-8.1,0-12.9,1.6-17.6,7l6.5,6.1c2.7-3.5,5.3-4.7,10.7-4.7
		c7.6,0,10.7,3,10.7,9.2v3.5h-12.9c-11.2,0-16.9,5.9-16.9,14.1c0,4.1,1.4,7.9,3.9,10.5c3,3,7,4.4,13.1,4.4c6.1,0,9.5-1.4,13-5v4.4
		H470.4z M460.5,395.2c0,3.5-0.7,5.8-2.1,7.2c-2.6,2.5-5.4,2.8-9.2,2.8c-6.2,0-9-2.5-9-6.9s3-7,8.8-7h11.5V395.2z"/>
	<path fill="#F5F2ED" d="M525.6,388.4c0-7.4-0.6-15.7-5.5-20.7c-2.7-2.7-7-4.3-12-4.3c-5.3,0-9.3,1.4-12.9,5.8v-5.2h-9.7v68.7h9.8
		v-24.8c3.6,4.2,7.6,5.6,12.8,5.6c4.9,0,9.2-1.6,11.9-4.3C525,404.2,525.6,395.8,525.6,388.4z M515.7,388.4
		c0,8.7-1.3,16.3-10.1,16.3c-8.9,0-10.2-7.6-10.2-16.3s1.4-16.2,10.2-16.2C514.5,372.1,515.7,379.7,515.7,388.4z"/>
	<path fill="#F5F2ED" d="M559.3,412.9v-8.4h-4.1c-3.7,0-5.4-2.1-5.4-5.7v-26.4h9.5v-7.5h-9.5v-14.9H540v14.9h-5.6v7.5h5.6v26.9
		c0,7,4.2,13.6,13.4,13.6H559.3z"/>
	<path fill="#F5F2ED" d="M610.1,388.4c0-8.2-1.2-14.4-5.8-19.2c-3.2-3.3-8-5.8-14.7-5.8c-6.7,0-11.4,2.5-14.6,5.8
		c-4.6,4.8-5.8,11-5.8,19.2c0,8.3,1.2,14.5,5.8,19.3c3.2,3.3,7.9,5.8,14.6,5.8c6.7,0,11.5-2.5,14.7-5.8
		C608.9,402.8,610.1,396.7,610.1,388.4z M600.3,388.4c0,5.3-0.4,10.4-3.4,13.4c-1.8,1.8-4.3,2.9-7.2,2.9c-2.9,0-5.3-1.1-7.1-2.9
		c-3-3-3.4-8.1-3.4-13.4s0.4-10.4,3.4-13.4c1.8-1.8,4.2-2.8,7.1-2.8c2.9,0,5.4,1,7.2,2.8C599.9,377.9,600.3,383,600.3,388.4z"/>
	<path fill="#F5F2ED" d="M663.5,388.4c0-7.4-0.6-15.7-5.5-20.7c-2.7-2.7-7-4.3-12-4.3c-5.3,0-9.3,1.4-12.9,5.8v-5.2h-9.7v68.7h9.8
		v-24.8c3.6,4.2,7.6,5.6,12.8,5.6c4.9,0,9.2-1.6,11.9-4.3C662.9,404.2,663.5,395.8,663.5,388.4z M653.6,388.4
		c0,8.7-1.3,16.3-10.1,16.3c-8.9,0-10.2-7.6-10.2-16.3s1.4-16.2,10.2-16.2C652.4,372.1,653.6,379.7,653.6,388.4z"/>
</g>
</svg>
