<?xml version="1.0" encoding="utf-8"?><!DOCTYPE svg PUBLIC "-//W3C//DTD SVG 1.1//EN" "http://www.w3.org/Graphics/SVG/1.1/DTD/svg11.dtd"><svg version="1.1" baseProfile="full" xmlns="http://www.w3.org/2000/svg" xmlns:xlink="http://www.w3.org/1999/xlink" xmlns:ev="http://www.w3.org/2001/xml-events"   height="29px"   width="28px" ><path fill="rgb( 255, 255, 255 )" d="M27.967,8.863 C27.959,8.94200000000001 27.95,9.02200000000001 27.934,9.10000000000001 C27.909,9.229 27.875,9.355 27.83,9.47800000000001 C27.805,9.54700000000001 27.784,9.617 27.755,9.68300000000001 C27.698,9.81200000000001 27.635,9.93600000000001 27.57,10.054 C27.543,10.101 27.519,10.153 27.492,10.198 C27.401,10.352 27.307,10.497 27.223,10.624 C27.223,10.624 27.054,10.887 27.054,10.887 C26.538,11.761 21.454,12.592 21.044,12.566 C20.283,12.522 19.598,11.795 18.021,10.054 C17.454,10.231 16.821,10.528 16.181,10.865 C14.86,11.56 13.502,12.485 12.57,13.294 C12.014,13.776 11.291,14.496 10.584,15.294 C9.66200000000001,16.333 8.767,17.506 8.307,18.478 C9.68899999999999,20.007 10.328,20.732 10.467,21.394 C10.467,21.394 10.492,21.717 10.492,21.717 C10.468,22.117 9.014,26.957 8.065,27.352 C8.065,27.352 7.77500000000001,27.484 7.77500000000001,27.484 C7.07899999999999,27.815 5.782,28.431 4.694,27.569 C4.10299999999999,27.101 2.67399999999999,25.858 2.136,24.391 C2.136,24.391 2.108,24.295 2.108,24.295 C2.108,24.295 2.102,24.264 2.102,24.264 C2.089,24.201 2.077,24.112 2.069,24.008 C2.065,23.965 2.065,23.909 2.063,23.86 C2.059,23.79 2.056,23.721 2.05499999999999,23.638 C2.05499999999999,23.619 2.053,23.606 2.053,23.585 C2.053,23.561 2.056,23.526 2.056,23.501 C2.059,23.293 2.069,23.056 2.09099999999999,22.787 C2.093,22.756 2.095,22.73 2.09699999999999,22.697 C2.123,22.409 2.16800000000001,22.08 2.223,21.734 C2.23399999999999,21.661 2.245,21.59 2.25700000000001,21.515 C2.319,21.163 2.399,20.783 2.497,20.384 C2.518,20.302 2.541,20.218 2.562,20.134 C2.672,19.713 2.801,19.274 2.958,18.813 C2.976,18.765 2.997,18.713 3.014,18.665 C3.17099999999999,18.219 3.355,17.759 3.56399999999999,17.288 C3.59399999999999,17.219 3.621,17.152 3.652,17.082 C3.876,16.595 4.134,16.096 4.419,15.591 C4.476,15.491 4.533,15.391 4.592,15.291 C4.889,14.785 5.22,14.273 5.58799999999999,13.76 C5.65000000000001,13.675 5.717,13.589 5.78100000000001,13.503 C6.181,12.963 6.61199999999999,12.422 7.09999999999999,11.886 C7.65600000000001,11.276 8.254,10.67 8.935,10.08 C10.162,9.015 11.431,8.15400000000001 12.69,7.45 C18.45,4.22800000000001 24.032,4.41800000000001 24.761,4.77300000000001 C26.185,5.47200000000001 27.276,7.009 27.679,7.637 C27.81,7.84400000000001 27.901,8.063 27.949,8.292 C27.977,8.42500000000001 27.99,8.557 27.99,8.68700000000001 C27.99,8.747 27.971,8.80300000000001 27.967,8.863 ZM4.14400000000001,7.747 C4.14400000000001,7.747 0,3.601 0,3.601 C0,3.601 3.601,0 3.601,0 C3.601,0 8.099,4.5 8.099,4.5 C7.17399999999999,5.054 6.297,5.67800000000001 5.504,6.381 C5.053,6.78100000000001 4.607,7.23 4.14400000000001,7.747 ZM15.776,16.625 C16.387,16.082 17.278,15.47 18.104,15.026 C18.225,14.961 18.338,14.902 18.445,14.849 C18.445,14.849 23.999,20.405 23.999,20.405 C23.999,20.405 20.399,24.008 20.399,24.008 C20.399,24.008 14.426,18.03 14.426,18.03 C14.445,18.006 14.462,17.984 14.483,17.96 C14.924,17.451 15.408,16.952 15.776,16.625 Z "/></svg>