<?xml version="1.0" encoding="utf-8"?>
<!-- Generator: Adobe Illustrator 17.1.0, SVG Export Plug-In . SVG Version: 6.00 Build 0)  -->
<!DOCTYPE svg PUBLIC "-//W3C//DTD SVG 1.1//EN" "http://www.w3.org/Graphics/SVG/1.1/DTD/svg11.dtd">
<svg version="1.1" id="Layer_1" xmlns:ev="http://www.w3.org/2001/xml-events"
	 xmlns="http://www.w3.org/2000/svg" xmlns:xlink="http://www.w3.org/1999/xlink" x="0px" y="0px" viewBox="0 0 80 18"
	 enable-background="new 0 0 80 18" xml:space="preserve">
<path fill="#FFFFFF" d="M79.2,7.3h-0.7l0.6-1.8H80L79.2,7.3z M77.7,4.6c0,1.2-0.9,1.8-2,1.8h-2.3V0.1h2.2c1.1,0,1.8,0.6,1.8,1.6
	c0,0.6-0.3,1.1-0.8,1.4v0C77.3,3.3,77.7,3.9,77.7,4.6z M75.5,0.9h-1.3v1.9h1.3c0.6,0,0.9-0.4,0.9-1C76.5,1.2,76.2,0.9,75.5,0.9z
	 M75.7,3.5h-1.4v2.1h1.4c0.7,0,1.1-0.4,1.1-1.1C76.8,3.9,76.3,3.5,75.7,3.5z M71,6.4h-0.9V4.7h-3.1V4.2L70,0.1h1V4h0.9v0.7H71V6.4z
	 M70.2,1.1c0,0-0.1,0.3-0.3,0.5l-1.8,2.4v0h2.1V1.7C70.2,1.4,70.2,1.1,70.2,1.1L70.2,1.1z M65.7,12.6h0.9v4.5h-0.9V12.6z M65.7,10.8
	h0.9v0.9h-0.9V10.8z M62.9,5.6h1.4V1.6c0-0.2,0-0.4,0-0.4h0c0,0-0.1,0.1-0.3,0.4l-0.6,0.6l-0.5-0.6l1.5-1.5h0.8v5.5h1.4v0.8h-3.6
	V5.6z M64.2,14.2v2.9h-0.9v-2.7c0-0.6-0.1-1.1-0.9-1.1c-0.7,0-1.2,0.5-1.4,1.1C61,14.5,61,14.8,61,15v2.1h-0.9v-4.5h0.8v0.6
	c0,0.2,0,0.3,0,0.3h0c0.2-0.4,0.7-1,1.7-1C63.7,12.5,64.2,13,64.2,14.2z M58,5.5H59v0.9H58V5.5z M58.6,17.1h-0.8v-0.4
	c0-0.2,0-0.4,0-0.4h0c0,0-0.4,0.9-1.5,0.9c-0.8,0-1.5-0.5-1.5-1.4c0-1.5,2-1.6,2.7-1.6h0.2v-0.1c0-0.7-0.4-1-1-1
	c-0.7,0-1.3,0.4-1.3,0.4L55.1,13c0,0,0.7-0.5,1.7-0.5c1.1,0,1.8,0.6,1.8,1.8V17.1z M57.7,14.9h-0.2c-0.7,0-1.8,0-1.8,0.9
	c0,0.4,0.3,0.7,0.9,0.7c0.7,0,1.2-0.8,1.2-1.4V14.9z M55.7,3.7c-0.1,0.3-0.1,0.5-0.1,0.8v1.8h-0.9V1.9h0.8v0.8c0,0.2,0,0.3,0,0.3h0
	c0.2-0.7,0.7-1.2,1.4-1.2c0.1,0,0.2,0,0.2,0v0.9c0,0-0.1,0-0.3,0C56.5,2.7,56,3.1,55.7,3.7z M52.7,14.4c0-0.6-0.1-1.1-0.8-1.1
	c-0.6,0-1.1,0.5-1.3,1.1c0,0.2-0.1,0.4-0.1,0.6v2.1h-0.9v-2.7c0-0.6-0.1-1.1-0.8-1.1c-0.7,0-1.1,0.5-1.3,1.2c0,0.2-0.1,0.4-0.1,0.6
	v2.1h-0.9v-4.5h0.8v0.6c0,0.2,0,0.3,0,0.3h0c0.2-0.5,0.9-1,1.6-1c0.8,0,1.2,0.3,1.4,1h0c0.3-0.5,0.9-1,1.6-1c1,0,1.5,0.6,1.5,1.7
	v2.9h-0.9V14.4z M49.3,2.3c-0.2-0.3-0.5-0.9-0.5-0.9h0c0,0,0.1,0.6,0.1,0.9v4.1h-0.9V0.1h0.9l2.8,4.1c0.2,0.3,0.5,0.9,0.5,0.9h0
	c0,0-0.1-0.6-0.1-0.9V0.1H53v6.3h-0.9L49.3,2.3z M43,17.2c-1.4,0-2.4-1-2.4-2.4c0-1.4,1.1-2.4,2.4-2.4s2.4,1,2.4,2.4
	C45.5,16.2,44.4,17.2,43,17.2z M43,13.2c-0.9,0-1.6,0.7-1.6,1.6c0,0.9,0.7,1.6,1.6,1.6c0.9,0,1.6-0.7,1.6-1.6
	C44.6,13.9,43.9,13.2,43,13.2z M42.3,7.3l0.6-1.8h0.9L43,7.3H42.3z M38.1,4.3c0,1,0.8,1.5,1.6,1.5c0.8,0,1.3-0.5,1.3-0.5l0.4,0.6
	c0,0-0.7,0.6-1.8,0.6c-1.4,0-2.4-1-2.4-2.4c0-1.4,1-2.4,2.3-2.4c1.3,0,2,0.9,2,2.1c0,0.1,0,0.4,0,0.4H38.1z M39.5,2.5
	c-0.7,0-1.2,0.4-1.3,1.1h2.4C40.5,2.8,40,2.5,39.5,2.5z M38.2,10.9c0.6,0.2,1.1,0.9,1.1,1.7c0,0.8-0.4,1.5-1.1,1.7v0
	c0,0,0.1,0.1,0.2,0.3l1.3,2.4h-1l-1.3-2.5H36v2.5h-0.9v-6.3H37C37.7,10.8,38,10.8,38.2,10.9z M37,11.6h-1v2.3h1.3
	c0.7,0,1.1-0.4,1.1-1.1c0-0.5-0.2-0.8-0.5-1C37.7,11.6,37.5,11.6,37,11.6z M35.1,3.7c0-0.6-0.1-1.1-0.8-1.1c-0.6,0-1.1,0.5-1.3,1.1
	C33,3.9,33,4.1,33,4.3v2.1h-0.9V3.7c0-0.6-0.1-1.1-0.8-1.1c-0.7,0-1.1,0.5-1.3,1.2C30,3.9,30,4.1,30,4.3v2.1h-0.9V1.9h0.8v0.6
	c0,0.2,0,0.3,0,0.3h0c0.2-0.5,0.9-1,1.6-1c0.8,0,1.2,0.3,1.4,1h0c0.3-0.5,0.9-1,1.6-1c1,0,1.5,0.6,1.5,1.7v2.9h-0.9V3.7z M27.5,16.5
	c0-0.2,0-0.3,0-0.3h0c-0.2,0.4-0.8,1-1.7,1c-1,0-1.6-0.5-1.6-1.7v-2.9h0.9v2.7c0,0.6,0.1,1.1,0.9,1.1c0.9,0,1.5-0.8,1.5-1.7v-2.1
	h0.9v4.5h-0.8V16.5z M26.8,6c0-0.2,0-0.4,0-0.4h0c0,0-0.4,0.9-1.5,0.9c-0.8,0-1.5-0.5-1.5-1.4c0-1.5,2-1.5,2.7-1.5h0.2V3.5
	c0-0.7-0.4-1-1-1c-0.7,0-1.3,0.4-1.3,0.4l-0.4-0.6c0,0,0.7-0.5,1.7-0.5c1.1,0,1.8,0.6,1.8,1.8v2.9h-0.8V6z M26.7,4.2h-0.2
	c-0.7,0-1.8,0-1.8,0.9c0,0.4,0.3,0.7,0.9,0.7c0.7,0,1.2-0.8,1.2-1.4V4.2z M21.8,12.6h0.9v4.5h-0.9V12.6z M21.8,10.8h0.9v0.9h-0.9
	V10.8z M18.7,2.3c-0.2-0.3-0.5-0.9-0.5-0.9h0c0,0,0.1,0.6,0.1,0.9v4.1h-0.9V0.1h0.9L21,4.2c0.2,0.3,0.5,0.9,0.5,0.9h0
	c0,0-0.1-0.6-0.1-0.9V0.1h0.9v6.3h-0.9L18.7,2.3z M18.6,12.5c1.2,0,2,1,2,2.4c0,1.4-0.9,2.4-2.1,2.4c-1,0-1.4-0.8-1.4-0.8h0
	c0,0,0,0.1,0,0.3v0.3h-0.8v-6.3h0.9v2.1c0,0.2,0,0.4,0,0.4h0C17.1,13.2,17.5,12.5,18.6,12.5z M17.1,14.8c0,0.8,0.4,1.6,1.3,1.6
	c0.7,0,1.3-0.6,1.3-1.6c0-1-0.5-1.6-1.3-1.6C17.7,13.2,17.1,13.7,17.1,14.8z M13.8,12.6h0.9v4.5h-0.9V12.6z M13.8,10.8h0.9v0.9h-0.9
	V10.8z M12.1,5.5H13v0.9h-0.9V5.5z M9.8,3.7C9.7,4,9.7,4.3,9.7,4.6v1.8H8.8V1.9h0.8v0.8c0,0.2,0,0.3,0,0.3h0
	c0.2-0.7,0.7-1.2,1.4-1.2c0.1,0,0.2,0,0.2,0v0.9c0,0-0.1,0-0.3,0C10.5,2.7,10,3.1,9.8,3.7z M10.6,10.7c1.2,0,1.8,0.6,1.8,0.6
	l-0.4,0.7c0,0-0.6-0.5-1.4-0.5c-0.7,0-1.1,0.4-1.1,0.9c0,1.3,3.1,1,3.1,3c0,1-0.8,1.8-2,1.8c-1.3,0-2.1-0.8-2.1-0.8l0.5-0.7
	c0,0,0.7,0.7,1.6,0.7c0.6,0,1.1-0.3,1.1-0.9c0-1.4-3.1-1.1-3.1-3C8.5,11.5,9.4,10.7,10.6,10.7z M5.6,4.7V2.6H5V2h0.6V0.6h0.8V2h1.1
	v0.7H6.5v2c0,0.9,0.6,1,1,1c0.1,0,0.2,0,0.2,0v0.8c0,0-0.1,0-0.3,0C6.7,6.4,5.6,6.3,5.6,4.7z M2.1,6.5C0.8,6.5,0,5.7,0,5.7L0.5,5
	c0,0,0.7,0.7,1.6,0.7c0.6,0,1.1-0.3,1.1-0.9c0-1.4-3.1-1.1-3.1-3c0-1,0.9-1.8,2-1.8C3.4,0,4,0.6,4,0.6L3.6,1.4c0,0-0.6-0.5-1.4-0.5
	C1.5,0.8,1,1.2,1,1.7c0,1.3,3.1,1,3.1,3C4.1,5.7,3.4,6.5,2.1,6.5z M30.9,16.1L30.1,18h-0.7l0.6-1.8H30.9z M70.5,14.3h0.2v-0.1
	c0-0.7-0.4-1-1-1c-0.7,0-1.3,0.4-1.3,0.4L68.1,13c0,0,0.7-0.5,1.7-0.5c1.1,0,1.8,0.6,1.8,1.8v2.9h-0.8v-0.4c0-0.2,0-0.4,0-0.4h0
	c0,0-0.4,0.9-1.5,0.9c-0.8,0-1.5-0.5-1.5-1.4C67.8,14.3,69.8,14.3,70.5,14.3z M69.5,16.5c0.7,0,1.2-0.8,1.2-1.4v-0.1h-0.2
	c-0.7,0-1.8,0-1.8,0.9C68.7,16.1,69,16.5,69.5,16.5z"/>
</svg>
