<?xml version="1.0" encoding="utf-8"?><!DOCTYPE svg PUBLIC "-//W3C//DTD SVG 1.1//EN" "http://www.w3.org/Graphics/SVG/1.1/DTD/svg11.dtd"><svg version="1.1" baseProfile="full" xmlns="http://www.w3.org/2000/svg" xmlns:xlink="http://www.w3.org/1999/xlink" xmlns:ev="http://www.w3.org/2001/xml-events"   height="69px"   width="46px" ><path fill="rgb( 50, 106, 183 )" d="M45.2,0 C45.2,0 31.2,11.8 31.2,11.8 C31.2,11.8 13.2,18.8 13.2,18.8 C13.2,18.8 12.2,32.8 12.2,32.8 C12.2,32.8 0,68.2 0,68.2 C0,68.2 2.31700000000001,68.2 2.31700000000001,68.2 C2.31700000000001,68.2 14.442,33.8 14.442,33.8 C14.442,33.8 15.15,20.625 15.15,20.625 C15.15,20.625 31.4,14.492 31.4,14.492 C31.4,14.492 45.2,2.69200000000001 45.2,2.69200000000001 C45.2,2.69200000000001 45.2,0 45.2,0 Z "/></svg>