<?xml version="1.0" encoding="utf-8"?><!DOCTYPE svg PUBLIC "-//W3C//DTD SVG 1.1//EN" "http://www.w3.org/Graphics/SVG/1.1/DTD/svg11.dtd"><svg version="1.1" baseProfile="full" xmlns="http://www.w3.org/2000/svg" xmlns:xlink="http://www.w3.org/1999/xlink" xmlns:ev="http://www.w3.org/2001/xml-events"   height="18px"   width="80px" ><path fill="rgb( 166, 139, 78 )" d="M79.242,7.29700000000003 C79.242,7.29700000000003 78.552,7.29700000000003 78.552,7.29700000000003 C78.552,7.29700000000003 79.108,5.46199999999999 79.108,5.46199999999999 C79.108,5.46199999999999 79.996,5.46199999999999 79.996,5.46199999999999 C79.996,5.46199999999999 79.242,7.29700000000003 79.242,7.29700000000003 ZM77.657,4.60599999999999 C77.657,5.791 76.733,6.39699999999999 75.621,6.39699999999999 C75.621,6.39699999999999 73.352,6.39699999999999 73.352,6.39699999999999 C73.352,6.39699999999999 73.352,0.10700000000003 73.352,0.10700000000003 C73.352,0.10700000000003 75.567,0.10700000000003 75.567,0.10700000000003 C76.634,0.10700000000003 77.406,0.69499999999999 77.406,1.71100000000001 C77.406,2.32499999999999 77.101,2.815 76.616,3.065 C76.616,3.065 76.616,3.08300000000003 76.616,3.08300000000003 C77.28,3.279 77.657,3.90199999999999 77.657,4.60599999999999 ZM75.549,0.87299999999999 C75.549,0.87299999999999 74.24,0.87299999999999 74.24,0.87299999999999 C74.24,0.87299999999999 74.24,2.75299999999999 74.24,2.75299999999999 C74.24,2.75299999999999 75.567,2.75299999999999 75.567,2.75299999999999 C76.141,2.75299999999999 76.5,2.35200000000003 76.5,1.80000000000001 C76.5,1.24700000000001 76.159,0.87299999999999 75.549,0.87299999999999 ZM75.657,3.48400000000004 C75.657,3.48400000000004 74.24,3.48400000000004 74.24,3.48400000000004 C74.24,3.48400000000004 74.24,5.63100000000003 74.24,5.63100000000003 C74.24,5.63100000000003 75.666,5.63100000000003 75.666,5.63100000000003 C76.347,5.63100000000003 76.751,5.20300000000003 76.751,4.56200000000001 C76.751,3.92000000000002 76.321,3.48400000000004 75.657,3.48400000000004 ZM71.049,6.39699999999999 C71.049,6.39699999999999 70.179,6.39699999999999 70.179,6.39699999999999 C70.179,6.39699999999999 70.179,4.71300000000002 70.179,4.71300000000002 C70.179,4.71300000000002 67.112,4.71300000000002 67.112,4.71300000000002 C67.112,4.71300000000002 67.112,4.161 67.112,4.161 C67.112,4.161 70.036,0.10700000000003 70.036,0.10700000000003 C70.036,0.10700000000003 71.049,0.10700000000003 71.049,0.10700000000003 C71.049,0.10700000000003 71.049,3.96500000000003 71.049,3.96500000000003 C71.049,3.96500000000003 71.91,3.96500000000003 71.91,3.96500000000003 C71.91,3.96500000000003 71.91,4.71300000000002 71.91,4.71300000000002 C71.91,4.71300000000002 71.049,4.71300000000002 71.049,4.71300000000002 C71.049,4.71300000000002 71.049,6.39699999999999 71.049,6.39699999999999 ZM70.197,1.05099999999999 C70.197,1.05099999999999 70.054,1.34500000000003 69.883,1.56800000000004 C69.883,1.56800000000004 68.09,3.947 68.09,3.947 C68.09,3.947 68.09,3.96500000000003 68.09,3.96500000000003 C68.09,3.96500000000003 70.179,3.96500000000003 70.179,3.96500000000003 C70.179,3.96500000000003 70.179,1.67500000000001 70.179,1.67500000000001 C70.179,1.38100000000003 70.215,1.05099999999999 70.215,1.05099999999999 C70.215,1.05099999999999 70.197,1.05099999999999 70.197,1.05099999999999 ZM65.722,12.577 C65.722,12.577 66.592,12.577 66.592,12.577 C66.592,12.577 66.592,17.086 66.592,17.086 C66.592,17.086 65.722,17.086 65.722,17.086 C65.722,17.086 65.722,12.577 65.722,12.577 ZM65.713,10.795 C65.713,10.795 66.592,10.795 66.592,10.795 C66.592,10.795 66.592,11.678 66.592,11.678 C66.592,11.678 65.713,11.678 65.713,11.678 C65.713,11.678 65.713,10.795 65.713,10.795 ZM62.89,5.63100000000003 C62.89,5.63100000000003 64.289,5.63100000000003 64.289,5.63100000000003 C64.289,5.63100000000003 64.289,1.56800000000004 64.289,1.56800000000004 C64.289,1.37200000000001 64.298,1.17599999999999 64.298,1.17599999999999 C64.298,1.17599999999999 64.28,1.17599999999999 64.28,1.17599999999999 C64.28,1.17599999999999 64.208,1.31900000000002 63.975,1.541 C63.975,1.541 63.383,2.12 63.383,2.12 C63.383,2.12 62.845,1.56800000000004 62.845,1.56800000000004 C62.845,1.56800000000004 64.361,0.10700000000003 64.361,0.10700000000003 C64.361,0.10700000000003 65.15,0.10700000000003 65.15,0.10700000000003 C65.15,0.10700000000003 65.15,5.63100000000003 65.15,5.63100000000003 C65.15,5.63100000000003 66.531,5.63100000000003 66.531,5.63100000000003 C66.531,5.63100000000003 66.531,6.39699999999999 66.531,6.39699999999999 C66.531,6.39699999999999 62.89,6.39699999999999 62.89,6.39699999999999 C62.89,6.39699999999999 62.89,5.63100000000003 62.89,5.63100000000003 ZM64.2,14.199 C64.2,14.199 64.2,17.086 64.2,17.086 C64.2,17.086 63.33,17.086 63.33,17.086 C63.33,17.086 63.33,14.395 63.33,14.395 C63.33,13.762 63.195,13.263 62.469,13.263 C61.778,13.263 61.222,13.718 61.034,14.368 C60.98,14.546 60.962,14.751 60.962,14.974 C60.962,14.974 60.962,17.086 60.962,17.086 C60.962,17.086 60.092,17.086 60.092,17.086 C60.092,17.086 60.092,12.577 60.092,12.577 C60.092,12.577 60.935,12.577 60.935,12.577 C60.935,12.577 60.935,13.174 60.935,13.174 C60.935,13.353 60.917,13.504 60.917,13.504 C60.917,13.504 60.935,13.504 60.935,13.504 C61.115,13.112 61.653,12.471 62.639,12.471 C63.706,12.471 64.2,13.05 64.2,14.199 ZM58.04,5.47900000000004 C58.04,5.47900000000004 58.955,5.47900000000004 58.955,5.47900000000004 C58.955,5.47900000000004 58.955,6.39699999999999 58.955,6.39699999999999 C58.955,6.39699999999999 58.04,6.39699999999999 58.04,6.39699999999999 C58.04,6.39699999999999 58.04,5.47900000000004 58.04,5.47900000000004 ZM58.569,17.086 C58.569,17.086 57.762,17.086 57.762,17.086 C57.762,17.086 57.762,16.658 57.762,16.658 C57.762,16.453 57.78,16.302 57.78,16.302 C57.78,16.302 57.762,16.302 57.762,16.302 C57.762,16.302 57.395,17.193 56.31,17.193 C55.529,17.193 54.767,16.721 54.767,15.821 C54.767,14.333 56.74,14.27 57.502,14.27 C57.502,14.27 57.7,14.27 57.7,14.27 C57.7,14.27 57.7,14.19 57.7,14.19 C57.7,13.451 57.278,13.201 56.704,13.201 C56.005,13.201 55.44,13.638 55.44,13.638 C55.44,13.638 55.081,13.005 55.081,13.005 C55.081,13.005 55.736,12.471 56.776,12.471 C57.924,12.471 58.569,13.094 58.569,14.235 C58.569,14.235 58.569,17.086 58.569,17.086 ZM57.708,14.921 C57.708,14.921 57.484,14.921 57.484,14.921 C56.83,14.921 55.646,14.965 55.646,15.776 C55.646,16.141 55.933,16.498 56.498,16.498 C57.233,16.498 57.708,15.731 57.708,15.063 C57.708,15.063 57.708,14.921 57.708,14.921 ZM55.745,3.74200000000002 C55.664,4 55.638,4.27699999999999 55.638,4.553 C55.638,4.553 55.638,6.39699999999999 55.638,6.39699999999999 C55.638,6.39699999999999 54.768,6.39699999999999 54.768,6.39699999999999 C54.768,6.39699999999999 54.768,1.88900000000001 54.768,1.88900000000001 C54.768,1.88900000000001 55.611,1.88900000000001 55.611,1.88900000000001 C55.611,1.88900000000001 55.611,2.673 55.611,2.673 C55.611,2.86000000000001 55.593,3.01100000000002 55.593,3.01100000000002 C55.593,3.01100000000002 55.611,3.01100000000002 55.611,3.01100000000002 C55.817,2.35200000000003 56.346,1.83500000000004 57.045,1.83500000000004 C57.162,1.83500000000004 57.27,1.85300000000001 57.27,1.85300000000001 C57.27,1.85300000000001 57.27,2.70800000000003 57.27,2.70800000000003 C57.27,2.70800000000003 57.153,2.68200000000002 57.019,2.68200000000002 C56.463,2.68200000000002 55.951,3.07400000000001 55.745,3.74200000000002 ZM52.743,14.386 C52.743,13.754 52.617,13.255 51.936,13.255 C51.299,13.255 50.824,13.789 50.662,14.404 C50.618,14.591 50.6,14.796 50.6,15.028 C50.6,15.028 50.6,17.086 50.6,17.086 C50.6,17.086 49.73,17.086 49.73,17.086 C49.73,17.086 49.73,14.386 49.73,14.386 C49.73,13.798 49.64,13.255 48.941,13.255 C48.277,13.255 47.811,13.798 47.64,14.44 C47.595,14.618 47.587,14.823 47.587,15.028 C47.587,15.028 47.587,17.086 47.587,17.086 C47.587,17.086 46.717,17.086 46.717,17.086 C46.717,17.086 46.717,12.577 46.717,12.577 C46.717,12.577 47.56,12.577 47.56,12.577 C47.56,12.577 47.56,13.174 47.56,13.174 C47.56,13.353 47.542,13.504 47.542,13.504 C47.542,13.504 47.56,13.504 47.56,13.504 C47.775,12.978 48.412,12.471 49.12,12.471 C49.882,12.471 50.331,12.818 50.483,13.495 C50.483,13.495 50.501,13.495 50.501,13.495 C50.752,12.952 51.38,12.471 52.115,12.471 C53.138,12.471 53.613,13.05 53.613,14.199 C53.613,14.199 53.613,17.086 53.613,17.086 C53.613,17.086 52.743,17.086 52.743,17.086 C52.743,17.086 52.743,14.386 52.743,14.386 ZM49.308,2.31600000000003 C49.075,1.96899999999999 48.779,1.399 48.779,1.399 C48.779,1.399 48.761,1.399 48.761,1.399 C48.761,1.399 48.824,1.96000000000004 48.824,2.31600000000003 C48.824,2.31600000000003 48.824,6.39699999999999 48.824,6.39699999999999 C48.824,6.39699999999999 47.936,6.39699999999999 47.936,6.39699999999999 C47.936,6.39699999999999 47.936,0.10700000000003 47.936,0.10700000000003 C47.936,0.10700000000003 48.815,0.10700000000003 48.815,0.10700000000003 C48.815,0.10700000000003 51.631,4.19600000000003 51.631,4.19600000000003 C51.864,4.53500000000003 52.16,5.10500000000002 52.16,5.10500000000002 C52.16,5.10500000000002 52.178,5.10500000000002 52.178,5.10500000000002 C52.178,5.10500000000002 52.115,4.54400000000004 52.115,4.19600000000003 C52.115,4.19600000000003 52.115,0.10700000000003 52.115,0.10700000000003 C52.115,0.10700000000003 53.003,0.10700000000003 53.003,0.10700000000003 C53.003,0.10700000000003 53.003,6.39699999999999 53.003,6.39699999999999 C53.003,6.39699999999999 52.133,6.39699999999999 52.133,6.39699999999999 C52.133,6.39699999999999 49.308,2.31600000000003 49.308,2.31600000000003 ZM43.015,17.193 C41.661,17.193 40.567,16.195 40.567,14.823 C40.567,13.459 41.661,12.471 43.015,12.471 C44.369,12.471 45.463,13.459 45.463,14.823 C45.463,16.195 44.369,17.193 43.015,17.193 ZM43.015,13.219 C42.163,13.219 41.454,13.887 41.454,14.823 C41.454,15.767 42.163,16.444 43.015,16.444 C43.876,16.444 44.575,15.767 44.575,14.823 C44.575,13.887 43.876,13.219 43.015,13.219 ZM42.279,7.29700000000003 C42.279,7.29700000000003 42.835,5.46199999999999 42.835,5.46199999999999 C42.835,5.46199999999999 43.723,5.46199999999999 43.723,5.46199999999999 C43.723,5.46199999999999 42.97,7.29700000000003 42.97,7.29700000000003 C42.97,7.29700000000003 42.279,7.29700000000003 42.279,7.29700000000003 ZM38.102,4.26800000000003 C38.147,5.25700000000001 38.855,5.75600000000003 39.662,5.75600000000003 C40.442,5.75600000000003 41.007,5.23000000000002 41.007,5.23000000000002 C41.007,5.23000000000002 41.366,5.863 41.366,5.863 C41.366,5.863 40.694,6.50400000000002 39.608,6.50400000000002 C38.183,6.50400000000002 37.205,5.47900000000004 37.205,4.14300000000003 C37.205,2.70800000000003 38.183,1.78200000000004 39.474,1.78200000000004 C40.756,1.78200000000004 41.438,2.726 41.438,3.89300000000003 C41.438,4.00900000000001 41.411,4.26800000000003 41.411,4.26800000000003 C41.411,4.26800000000003 38.102,4.26800000000003 38.102,4.26800000000003 ZM39.456,2.46800000000002 C38.792,2.46800000000002 38.254,2.87799999999999 38.129,3.61700000000002 C38.129,3.61700000000002 40.55,3.61700000000002 40.55,3.61700000000002 C40.523,2.84200000000004 40.039,2.46800000000002 39.456,2.46800000000002 ZM38.228,10.938 C38.873,11.179 39.295,11.811 39.295,12.64 C39.295,13.442 38.847,14.119 38.156,14.342 C38.156,14.342 38.156,14.359 38.156,14.359 C38.156,14.359 38.228,14.44 38.344,14.645 C38.344,14.645 39.69,17.086 39.69,17.086 C39.69,17.086 38.685,17.086 38.685,17.086 C38.685,17.086 37.349,14.582 37.349,14.582 C37.349,14.582 35.995,14.582 35.995,14.582 C35.995,14.582 35.995,17.086 35.995,17.086 C35.995,17.086 35.107,17.086 35.107,17.086 C35.107,17.086 35.107,10.795 35.107,10.795 C35.107,10.795 37.044,10.795 37.044,10.795 C37.708,10.795 37.986,10.849 38.228,10.938 ZM37.017,11.562 C37.017,11.562 35.995,11.562 35.995,11.562 C35.995,11.562 35.995,13.816 35.995,13.816 C35.995,13.816 37.268,13.816 37.268,13.816 C37.959,13.816 38.389,13.379 38.389,12.675 C38.389,12.212 38.21,11.882 37.887,11.704 C37.717,11.615 37.51,11.562 37.017,11.562 ZM35.127,3.697 C35.127,3.065 35.002,2.56600000000003 34.32,2.56600000000003 C33.683,2.56600000000003 33.208,3.101 33.047,3.71500000000003 C33.002,3.90199999999999 32.984,4.10700000000003 32.984,4.339 C32.984,4.339 32.984,6.39699999999999 32.984,6.39699999999999 C32.984,6.39699999999999 32.114,6.39699999999999 32.114,6.39699999999999 C32.114,6.39699999999999 32.114,3.697 32.114,3.697 C32.114,3.10900000000004 32.024,2.56600000000003 31.325,2.56600000000003 C30.661,2.56600000000003 30.195,3.10900000000004 30.025,3.75100000000003 C29.98,3.92900000000003 29.971,4.13400000000001 29.971,4.339 C29.971,4.339 29.971,6.39699999999999 29.971,6.39699999999999 C29.971,6.39699999999999 29.101,6.39699999999999 29.101,6.39699999999999 C29.101,6.39699999999999 29.101,1.88900000000001 29.101,1.88900000000001 C29.101,1.88900000000001 29.944,1.88900000000001 29.944,1.88900000000001 C29.944,1.88900000000001 29.944,2.48599999999999 29.944,2.48599999999999 C29.944,2.66399999999999 29.926,2.815 29.926,2.815 C29.926,2.815 29.944,2.815 29.944,2.815 C30.159,2.29000000000002 30.796,1.78200000000004 31.504,1.78200000000004 C32.267,1.78200000000004 32.715,2.12900000000002 32.867,2.80600000000004 C32.867,2.80600000000004 32.885,2.80600000000004 32.885,2.80600000000004 C33.136,2.26300000000003 33.764,1.78200000000004 34.499,1.78200000000004 C35.522,1.78200000000004 35.997,2.36099999999999 35.997,3.50999999999999 C35.997,3.50999999999999 35.997,6.39699999999999 35.997,6.39699999999999 C35.997,6.39699999999999 35.127,6.39699999999999 35.127,6.39699999999999 C35.127,6.39699999999999 35.127,3.697 35.127,3.697 ZM27.461,16.489 C27.461,16.302 27.479,16.159 27.479,16.159 C27.479,16.159 27.461,16.159 27.461,16.159 C27.273,16.605 26.681,17.193 25.793,17.193 C24.771,17.193 24.241,16.658 24.241,15.464 C24.241,15.464 24.241,12.577 24.241,12.577 C24.241,12.577 25.111,12.577 25.111,12.577 C25.111,12.577 25.111,15.268 25.111,15.268 C25.111,15.892 25.237,16.391 25.963,16.391 C26.887,16.391 27.434,15.58 27.434,14.689 C27.434,14.689 27.434,12.577 27.434,12.577 C27.434,12.577 28.304,12.577 28.304,12.577 C28.304,12.577 28.304,17.086 28.304,17.086 C28.304,17.086 27.461,17.086 27.461,17.086 C27.461,17.086 27.461,16.489 27.461,16.489 ZM26.771,5.96899999999999 C26.771,5.76499999999999 26.789,5.613 26.789,5.613 C26.789,5.613 26.771,5.613 26.771,5.613 C26.771,5.613 26.403,6.50400000000002 25.318,6.50400000000002 C24.538,6.50400000000002 23.776,6.03200000000004 23.776,5.13200000000001 C23.776,3.64400000000001 25.749,3.58199999999999 26.511,3.58199999999999 C26.511,3.58199999999999 26.708,3.58199999999999 26.708,3.58199999999999 C26.708,3.58199999999999 26.708,3.50100000000003 26.708,3.50100000000003 C26.708,2.762 26.287,2.512 25.713,2.512 C25.013,2.512 24.448,2.94900000000001 24.448,2.94900000000001 C24.448,2.94900000000001 24.09,2.31600000000003 24.09,2.31600000000003 C24.09,2.31600000000003 24.744,1.78200000000004 25.784,1.78200000000004 C26.932,1.78200000000004 27.578,2.40600000000001 27.578,3.54599999999999 C27.578,3.54599999999999 27.578,6.39699999999999 27.578,6.39699999999999 C27.578,6.39699999999999 26.771,6.39699999999999 26.771,6.39699999999999 C26.771,6.39699999999999 26.771,5.96899999999999 26.771,5.96899999999999 ZM26.717,4.23200000000003 C26.717,4.23200000000003 26.493,4.23200000000003 26.493,4.23200000000003 C25.838,4.23200000000003 24.654,4.27699999999999 24.654,5.08699999999999 C24.654,5.45300000000003 24.941,5.80900000000003 25.506,5.80900000000003 C26.242,5.80900000000003 26.717,5.04300000000001 26.717,4.375 C26.717,4.375 26.717,4.23200000000003 26.717,4.23200000000003 ZM21.848,12.577 C21.848,12.577 22.718,12.577 22.718,12.577 C22.718,12.577 22.718,17.086 22.718,17.086 C22.718,17.086 21.848,17.086 21.848,17.086 C21.848,17.086 21.848,12.577 21.848,12.577 ZM21.839,10.795 C21.839,10.795 22.718,10.795 22.718,10.795 C22.718,10.795 22.718,11.678 22.718,11.678 C22.718,11.678 21.839,11.678 21.839,11.678 C21.839,11.678 21.839,10.795 21.839,10.795 ZM18.684,2.31600000000003 C18.451,1.96899999999999 18.155,1.399 18.155,1.399 C18.155,1.399 18.137,1.399 18.137,1.399 C18.137,1.399 18.2,1.96000000000004 18.2,2.31600000000003 C18.2,2.31600000000003 18.2,6.39699999999999 18.2,6.39699999999999 C18.2,6.39699999999999 17.312,6.39699999999999 17.312,6.39699999999999 C17.312,6.39699999999999 17.312,0.10700000000003 17.312,0.10700000000003 C17.312,0.10700000000003 18.191,0.10700000000003 18.191,0.10700000000003 C18.191,0.10700000000003 21.007,4.19600000000003 21.007,4.19600000000003 C21.24,4.53500000000003 21.536,5.10500000000002 21.536,5.10500000000002 C21.536,5.10500000000002 21.554,5.10500000000002 21.554,5.10500000000002 C21.554,5.10500000000002 21.491,4.54400000000004 21.491,4.19600000000003 C21.491,4.19600000000003 21.491,0.10700000000003 21.491,0.10700000000003 C21.491,0.10700000000003 22.379,0.10700000000003 22.379,0.10700000000003 C22.379,0.10700000000003 22.379,6.39699999999999 22.379,6.39699999999999 C22.379,6.39699999999999 21.509,6.39699999999999 21.509,6.39699999999999 C21.509,6.39699999999999 18.684,2.31600000000003 18.684,2.31600000000003 ZM18.567,12.471 C19.787,12.471 20.558,13.433 20.558,14.832 C20.558,16.266 19.688,17.193 18.496,17.193 C17.482,17.193 17.07,16.418 17.07,16.418 C17.07,16.418 17.052,16.418 17.052,16.418 C17.052,16.418 17.07,16.56 17.07,16.756 C17.07,16.756 17.07,17.086 17.07,17.086 C17.07,17.086 16.245,17.086 16.245,17.086 C16.245,17.086 16.245,10.795 16.245,10.795 C16.245,10.795 17.115,10.795 17.115,10.795 C17.115,10.795 17.115,12.854 17.115,12.854 C17.115,13.076 17.097,13.237 17.097,13.237 C17.097,13.237 17.115,13.237 17.115,13.237 C17.115,13.237 17.5,12.471 18.567,12.471 ZM17.088,14.849 C17.088,15.651 17.509,16.453 18.37,16.453 C19.087,16.453 19.679,15.865 19.679,14.841 C19.679,13.86 19.15,13.228 18.397,13.228 C17.715,13.228 17.088,13.7 17.088,14.849 ZM13.788,12.577 C13.788,12.577 14.658,12.577 14.658,12.577 C14.658,12.577 14.658,17.086 14.658,17.086 C14.658,17.086 13.788,17.086 13.788,17.086 C13.788,17.086 13.788,12.577 13.788,12.577 ZM13.779,10.795 C13.779,10.795 14.658,10.795 14.658,10.795 C14.658,10.795 14.658,11.678 14.658,11.678 C14.658,11.678 13.779,11.678 13.779,11.678 C13.779,11.678 13.779,10.795 13.779,10.795 ZM12.103,5.47900000000004 C12.103,5.47900000000004 13.018,5.47900000000004 13.018,5.47900000000004 C13.018,5.47900000000004 13.018,6.39699999999999 13.018,6.39699999999999 C13.018,6.39699999999999 12.103,6.39699999999999 12.103,6.39699999999999 C12.103,6.39699999999999 12.103,5.47900000000004 12.103,5.47900000000004 ZM9.80899999999997,3.74200000000002 C9.72800000000001,4 9.70099999999996,4.27699999999999 9.70099999999996,4.553 C9.70099999999996,4.553 9.70099999999996,6.39699999999999 9.70099999999996,6.39699999999999 C9.70099999999996,6.39699999999999 8.83100000000002,6.39699999999999 8.83100000000002,6.39699999999999 C8.83100000000002,6.39699999999999 8.83100000000002,1.88900000000001 8.83100000000002,1.88900000000001 C8.83100000000002,1.88900000000001 9.67399999999998,1.88900000000001 9.67399999999998,1.88900000000001 C9.67399999999998,1.88900000000001 9.67399999999998,2.673 9.67399999999998,2.673 C9.67399999999998,2.86000000000001 9.65600000000001,3.01100000000002 9.65600000000001,3.01100000000002 C9.65600000000001,3.01100000000002 9.67399999999998,3.01100000000002 9.67399999999998,3.01100000000002 C9.88,2.35200000000003 10.409,1.83500000000004 11.109,1.83500000000004 C11.225,1.83500000000004 11.333,1.85300000000001 11.333,1.85300000000001 C11.333,1.85300000000001 11.333,2.70800000000003 11.333,2.70800000000003 C11.333,2.70800000000003 11.216,2.68200000000002 11.082,2.68200000000002 C10.526,2.68200000000002 10.015,3.07400000000001 9.80899999999997,3.74200000000002 ZM10.553,10.689 C11.727,10.689 12.346,11.321 12.346,11.321 C12.346,11.321 11.943,12.052 11.943,12.052 C11.943,12.052 11.36,11.508 10.553,11.508 C9.88,11.508 9.40499999999997,11.927 9.40499999999997,12.426 C9.40499999999997,13.727 12.472,13.379 12.472,15.42 C12.472,16.391 11.718,17.193 10.463,17.193 C9.11799999999999,17.193 8.36399999999998,16.364 8.36399999999998,16.364 C8.36399999999998,16.364 8.86700000000002,15.696 8.86700000000002,15.696 C8.86700000000002,15.696 9.53899999999999,16.373 10.481,16.373 C11.073,16.373 11.575,16.043 11.575,15.446 C11.575,14.083 8.50799999999998,14.377 8.50799999999998,12.444 C8.50799999999998,11.464 9.36000000000001,10.689 10.553,10.689 ZM5.58600000000001,4.74900000000002 C5.58600000000001,4.74900000000002 5.58600000000001,2.64600000000002 5.58600000000001,2.64600000000002 C5.58600000000001,2.64600000000002 4.99399999999997,2.64600000000002 4.99399999999997,2.64600000000002 C4.99399999999997,2.64600000000002 4.99399999999997,1.95100000000002 4.99399999999997,1.95100000000002 C4.99399999999997,1.95100000000002 5.613,1.95100000000002 5.613,1.95100000000002 C5.613,1.95100000000002 5.613,0.65000000000003 5.613,0.65000000000003 C5.613,0.65000000000003 6.45600000000002,0.65000000000003 6.45600000000002,0.65000000000003 C6.45600000000002,0.65000000000003 6.45600000000002,1.95100000000002 6.45600000000002,1.95100000000002 C6.45600000000002,1.95100000000002 7.55000000000001,1.95100000000002 7.55000000000001,1.95100000000002 C7.55000000000001,1.95100000000002 7.55000000000001,2.64600000000002 7.55000000000001,2.64600000000002 C7.55000000000001,2.64600000000002 6.45600000000002,2.64600000000002 6.45600000000002,2.64600000000002 C6.45600000000002,2.64600000000002 6.45600000000002,4.65100000000001 6.45600000000002,4.65100000000001 C6.45600000000002,5.55099999999999 7.09199999999998,5.66700000000003 7.42399999999998,5.66700000000003 C7.55000000000001,5.66700000000003 7.63,5.649 7.63,5.649 C7.63,5.649 7.63,6.41500000000002 7.63,6.41500000000002 C7.63,6.41500000000002 7.505,6.43299999999999 7.32599999999996,6.43299999999999 C6.74299999999999,6.43299999999999 5.58600000000001,6.255 5.58600000000001,4.74900000000002 ZM2.09899999999999,6.50400000000002 C0.75399999999996,6.50400000000002 0,5.67500000000001 0,5.67500000000001 C0,5.67500000000001 0.50299999999999,5.00700000000001 0.50299999999999,5.00700000000001 C0.50299999999999,5.00700000000001 1.17500000000001,5.68400000000003 2.11700000000002,5.68400000000003 C2.709,5.68400000000003 3.21100000000001,5.35500000000002 3.21100000000001,4.75800000000004 C3.21100000000001,3.39500000000004 0.14400000000001,3.68900000000002 0.14400000000001,1.755 C0.14400000000001,0.77500000000003 0.99599999999998,0 2.18799999999999,0 C3.363,0 3.98199999999997,0.63200000000001 3.98199999999997,0.63200000000001 C3.98199999999997,0.63200000000001 3.57799999999997,1.363 3.57799999999997,1.363 C3.57799999999997,1.363 2.99599999999998,0.81999999999999 2.18799999999999,0.81999999999999 C1.51599999999996,0.81999999999999 1.041,1.238 1.041,1.73700000000002 C1.041,3.03800000000001 4.108,2.69100000000003 4.108,4.73099999999999 C4.108,5.702 3.35399999999998,6.50400000000002 2.09899999999999,6.50400000000002 ZM30.894,16.15 C30.894,16.15 30.141,17.986 30.141,17.986 C30.141,17.986 29.45,17.986 29.45,17.986 C29.45,17.986 30.006,16.15 30.006,16.15 C30.006,16.15 30.894,16.15 30.894,16.15 ZM70.546,14.27 C70.546,14.27 70.744,14.27 70.744,14.27 C70.744,14.27 70.744,14.19 70.744,14.19 C70.744,13.451 70.322,13.201 69.748,13.201 C69.049,13.201 68.484,13.638 68.484,13.638 C68.484,13.638 68.125,13.005 68.125,13.005 C68.125,13.005 68.78,12.471 69.82,12.471 C70.968,12.471 71.613,13.094 71.613,14.235 C71.613,14.235 71.613,17.086 71.613,17.086 C71.613,17.086 70.806,17.086 70.806,17.086 C70.806,17.086 70.806,16.658 70.806,16.658 C70.806,16.453 70.824,16.302 70.824,16.302 C70.824,16.302 70.806,16.302 70.806,16.302 C70.806,16.302 70.439,17.193 69.354,17.193 C68.573,17.193 67.811,16.721 67.811,15.821 C67.811,14.333 69.784,14.27 70.546,14.27 ZM69.542,16.498 C70.277,16.498 70.753,15.731 70.753,15.063 C70.753,15.063 70.753,14.921 70.753,14.921 C70.753,14.921 70.528,14.921 70.528,14.921 C69.874,14.921 68.69,14.965 68.69,15.776 C68.69,16.141 68.977,16.498 69.542,16.498 Z "/></svg>