<?xml version="1.0" encoding="utf-8"?><!DOCTYPE svg PUBLIC "-//W3C//DTD SVG 1.1//EN" "http://www.w3.org/Graphics/SVG/1.1/DTD/svg11.dtd"><svg version="1.1" baseProfile="full" xmlns="http://www.w3.org/2000/svg" xmlns:xlink="http://www.w3.org/1999/xlink" xmlns:ev="http://www.w3.org/2001/xml-events"   height="20px"   width="20px" ><path fill="rgb( 247, 135, 93 )" d="M9.51499999999999,19.074 C4.27999999999997,19.086 0.02600000000001,14.868 0,9.56800000000004 C0.02100000000002,4.41399999999999 4.13400000000001,0.149 9.40699999999998,0.07400000000001 C14.654,0 18.989,4.26600000000002 19,9.56299999999999 C19.01,14.781 14.822,19.061 9.51499999999999,19.074 ZM9.512,1.267 C4.95999999999998,1.25400000000002 1.20800000000003,4.98599999999999 1.19400000000002,9.53899999999999 C1.18099999999998,14.123 4.90699999999998,17.875 9.48099999999999,17.884 C14.052,17.894 17.8,14.166 17.81,9.601 C17.82,5.02100000000002 14.095,1.279 9.512,1.267 ZM11.734,14.917 C10.441,14.915 9.14800000000002,14.916 7.85500000000002,14.92 C7.74200000000002,14.92 7.714,14.878 7.71499999999997,14.773 C7.71800000000002,14.28 7.71899999999999,13.786 7.71199999999999,13.292 C7.71100000000001,13.161 7.76100000000002,13.125 7.88400000000001,13.128 C8.16199999999998,13.134 8.44,13.124 8.71800000000002,13.132 C8.85599999999999,13.136 8.91199999999998,13.098 8.91199999999998,12.947 C8.90600000000001,11.884 8.90600000000001,10.82 8.911,9.75600000000003 C8.91199999999998,9.61000000000001 8.86700000000002,9.565 8.72199999999998,9.56999999999999 C8.43700000000001,9.58100000000002 8.15199999999999,9.56800000000004 7.86700000000002,9.57600000000002 C7.74599999999998,9.57900000000001 7.71300000000002,9.53700000000003 7.714,9.42000000000002 C7.71899999999999,8.93400000000003 7.721,8.447 7.71300000000002,7.96000000000004 C7.71100000000001,7.81900000000002 7.762,7.786 7.89400000000001,7.78700000000003 C8.77100000000002,7.79200000000003 9.64699999999999,7.79200000000003 10.523,7.786 C10.665,7.78500000000003 10.699,7.834 10.698,7.96600000000001 C10.693,8.80099999999999 10.695,9.63499999999999 10.696,10.469 C10.696,11.304 10.699,12.138 10.693,12.973 C10.692,13.108 10.742,13.136 10.862,13.134 C11.14,13.127 11.419,13.137 11.697,13.129 C11.823,13.126 11.885,13.151 11.883,13.297 C11.874,13.791 11.875,14.285 11.88,14.778 C11.881,14.892 11.839,14.917 11.734,14.917 ZM9.471,6.65199999999999 C8.85000000000002,6.65300000000002 8.31999999999999,6.10900000000004 8.31700000000001,5.46500000000003 C8.31400000000002,4.83300000000003 8.86599999999999,4.28100000000001 9.50200000000001,4.279 C10.149,4.27600000000001 10.691,4.81200000000001 10.69,5.45300000000003 C10.689,6.10599999999999 10.135,6.65100000000001 9.471,6.65199999999999 Z "/></svg>