<?xml version="1.0" encoding="utf-8"?><!DOCTYPE svg PUBLIC "-//W3C//DTD SVG 1.1//EN" "http://www.w3.org/Graphics/SVG/1.1/DTD/svg11.dtd"><svg version="1.1" baseProfile="full" xmlns="http://www.w3.org/2000/svg" xmlns:xlink="http://www.w3.org/1999/xlink" xmlns:ev="http://www.w3.org/2001/xml-events"   height="16px"   width="360px" ><path fill="rgb( 223, 225, 229 )" d="M1.784,0 C1.784,0 358.216,0 358.216,0 C359.201,0 360,0.799 360,1.784 C360,1.784 360,2.62 360,2.62 C360,10.01 354.01,16 346.62,16 C346.62,16 14.216,16 14.216,16 C6.365,16 0,9.635 0,1.784 C0,0.799 0.799,0 1.784,0 Z "/><path fill="rgb( 198, 200, 204 )" d="M160,0 C160,0 200,0 200,0 C200,0 200,2 200,2 C200,4.761 197.761,7 195,7 C195,7 165,7 165,7 C162.239,7 160,4.761 160,2 C160,2 160,0 160,0 Z "/></svg>