<?xml version="1.0" encoding="utf-8"?><!DOCTYPE svg PUBLIC "-//W3C//DTD SVG 1.1//EN" "http://www.w3.org/Graphics/SVG/1.1/DTD/svg11.dtd"><svg version="1.1" baseProfile="full" xmlns="http://www.w3.org/2000/svg" xmlns:xlink="http://www.w3.org/1999/xlink" xmlns:ev="http://www.w3.org/2001/xml-events"   height="128px"   width="90px" ><path fill="rgb( 233, 87, 29 )" d="M44.996,65.468 C33.774,65.468 24.666,56.324 24.666,45.045 C24.666,33.754 33.774,24.616 44.996,24.616 C56.219,24.616 65.326,33.76 65.326,45.045 C65.326,56.319 56.219,65.468 44.996,65.468 M44.996,0 C20.145,0 0,20.238 0,45.209 C0,68.794 20.378,99.217 33.986,114.029 C39.069,119.555 44.991,127.007 44.991,127.007 C44.991,127.007 51.352,119.513 56.807,113.823 C70.404,99.629 89.986,71.131 89.986,45.209 C89.986,20.238 69.842,0 44.996,0  "/></svg>