<?xml version="1.0" encoding="utf-8"?>
<!-- Generator: Adobe Illustrator 17.1.0, SVG Export Plug-In . SVG Version: 6.00 Build 0)  -->
<!DOCTYPE svg PUBLIC "-//W3C//DTD SVG 1.1//EN" "http://www.w3.org/Graphics/SVG/1.1/DTD/svg11.dtd">
<svg version="1.1" id="Layer_1" xmlns:ev="http://www.w3.org/2001/xml-events"
	 xmlns="http://www.w3.org/2000/svg" xmlns:xlink="http://www.w3.org/1999/xlink" x="0px" y="0px" viewBox="123.3 0 595.3 595.3"
	 enable-background="new 123.3 0 595.3 595.3" xml:space="preserve">
<path fill="#FFB31A" d="M420.9,595.3c-164.4,0-297.6-133.2-297.6-297.6S256.5,0,420.9,0s297.6,133.2,297.6,297.6
	S585.4,595.3,420.9,595.3z"/>
<g>
	<path fill="#F5F2ED" d="M367.2,266.7h-10.5c-1.6,7-6.4,11.8-14,11.8c-4.1,0-7.7-1.5-10.2-4.2c-3.4-3.7-4.2-7.6-4.2-21.5
		c0-13.8,0.8-17.8,4.2-21.5c2.4-2.6,6.1-4.2,10.2-4.2c7.6,0,12.3,4.8,13.9,11.8h10.6c-2.4-13.7-11.9-21.2-24.6-21.2
		c-7.2,0-13.4,2.6-18.1,7.4c-6.8,6.8-6.7,14.4-6.7,27.7s-0.1,20.9,6.7,27.7c4.7,4.7,10.9,7.4,18.1,7.4
		C355.1,287.9,364.9,280.4,367.2,266.7z"/>
	<path fill="#F5F2ED" d="M399.3,287.3v-8.4h-4.4c-4,0-5.3-1.9-5.3-5.7v-54.8h-9.9v55.4c0,7.3,4.1,13.6,13.5,13.6H399.3z"/>
	<path fill="#F5F2ED" d="M420,287.3v-49.1h-9.9v49.1H420z M420.3,228.6v-10.5h-10.5v10.5H420.3z"/>
	<path fill="#F5F2ED" d="M471.2,280.9l-6.8-6.5c-3.1,3.4-5.5,4.6-9.4,4.6c-3.8,0-7-1.5-9.1-4.4c-2.1-2.7-2.9-6.3-2.9-12
		s0.8-9.2,2.9-11.9c2.1-2.8,5.3-4.4,9.1-4.4c3.9,0,6.3,1.3,9.4,4.6l6.8-6.6c-4.6-4.9-9.4-6.9-16.2-6.9c-11,0-21.9,6.7-21.9,25.1
		s10.8,25.2,21.9,25.2C461.8,287.9,466.5,285.9,471.2,280.9z"/>
	<path fill="#F5F2ED" d="M525.7,287.3l-19.2-29.8l17-19.3h-12l-19.1,22.6v-42.5h-9.9v68.9h9.9v-14.4l7.3-8.2l13.7,22.6H525.7z"/>
	<path fill="#F5F2ED" d="M327.2,332.7v-19.1l-10.8,9v10.1H327.2z"/>
	<path fill="#F5F2ED" d="M386,332v-9.4h-48.4v9.4h19v59.5h10.5V332H386z"/>
	<path fill="#F5F2ED" d="M442.8,391.5l-25.3-68.9h-8.4l-25.3,68.9H395l4.7-13.8H427l4.7,13.8H442.8z M424.1,368.8h-21.2l10.7-30.6
		L424.1,368.8z"/>
	<path fill="#F5F2ED" d="M500.8,343.5c0-12-8.6-20.9-22.1-20.9h-26.1v68.9h10.5v-27.1h15.7C492.2,364.4,500.8,355.5,500.8,343.5z
		 M490.4,343.5c0,7.3-4.9,11.4-12.2,11.4h-15.1V332h15.1C485.4,332,490.4,336.3,490.4,343.5z"/>
	<path fill="#F5F2ED" d="M522.9,332.8v-10.2H512v19L522.9,332.8z"/>
</g>
</svg>
