<?xml version="1.0" encoding="utf-8"?><!DOCTYPE svg PUBLIC "-//W3C//DTD SVG 1.1//EN" "http://www.w3.org/Graphics/SVG/1.1/DTD/svg11.dtd"><svg version="1.1" baseProfile="full" xmlns="http://www.w3.org/2000/svg" xmlns:xlink="http://www.w3.org/1999/xlink" xmlns:ev="http://www.w3.org/2001/xml-events"   height="47px"   width="102px" ><path fill="rgb( 223, 225, 230 )" d="M26,0 C26,0 76,0 76,0 C76,0 86,42 86,42 C86,42 16,42 16,42 C16,42 26,0 26,0 Z "/><path opacity="0.031" fill="rgb( 0, 0, 0 )" d="M86,42 C86,42 71.453,42 71.453,42 C71.453,42 29.453,0 29.453,0 C29.453,0 76,0 76,0 C76,0 86,42 86,42 Z "/><path fill="rgb( 198, 200, 204 )" d="M0,42 C0,42 102,42 102,42 C102,42 102,47 102,47 C102,47 0,47 0,47 C0,47 0,42 0,42 Z "/></svg>