<?xml version="1.0" encoding="utf-8"?>
<!-- Generator: Adobe Illustrator 18.0.0, SVG Export Plug-In . SVG Version: 6.00 Build 0)  -->
<!DOCTYPE svg PUBLIC "-//W3C//DTD SVG 1.1//EN" "http://www.w3.org/Graphics/SVG/1.1/DTD/svg11.dtd">
<svg version="1.1" id="Layer_1" xmlns="http://www.w3.org/2000/svg" xmlns:xlink="http://www.w3.org/1999/xlink" x="0px" y="0px"
	 width="175px" height="50px" viewBox="0 -5 175 50" enable-background="new 0 -5 175 50" xml:space="preserve">
<g>
	<g>
		<g>
			<path fill="#FFFFFF" d="M9.9,10.4C4.1,10.4,0,14.8,0,20v0.1c0,5.3,4,9.6,9.8,9.6s9.9-4.4,9.9-9.7l0,0
				C19.7,14.7,15.6,10.4,9.9,10.4z M16.2,20.1c0,3.6-2.6,6.6-6.3,6.6s-6.4-3-6.4-6.6V20c0-3.6,2.6-6.6,6.3-6.6S16.2,16.4,16.2,20.1
				L16.2,20.1z M42.1,10.6h-0.3c-0.7,0-1.2,0.3-1.5,0.9l-5.7,8.9l-5.7-8.9c-0.3-0.5-0.8-0.9-1.5-0.9h-0.3c-0.9,0-1.7,0.7-1.7,1.7V28
				c0,0.9,0.7,1.6,1.6,1.6s1.6-0.7,1.6-1.6V16.7l4.6,6.8c0.3,0.5,0.8,0.9,1.4,0.9c0.6,0,1-0.3,1.4-0.9l4.6-6.9v11.2
				c0,0.9,0.8,1.6,1.6,1.6c0.9,0,1.7-0.7,1.7-1.6V12.2C43.8,11.3,43,10.6,42.1,10.6z M74.9,10.5c-0.9,0-1.7,0.7-1.7,1.6v15.7
				c0,0.9,0.7,1.6,1.7,1.6c0.9,0,1.6-0.7,1.6-1.6V12.2C76.5,11.3,75.8,10.5,74.9,10.5z M90.6,10.7h-5.7c-0.9,0-1.7,0.7-1.7,1.7v15.5
				c0,0.9,0.7,1.6,1.7,1.6c0.9,0,1.6-0.7,1.6-1.6v-4.5h3.7c4.1,0,7.5-2.2,7.5-6.4v-0.1C97.7,13.2,95,10.7,90.6,10.7z M94.4,17
				c0,1.9-1.6,3.3-4.1,3.3h-3.8v-6.7h3.8C92.8,13.7,94.4,14.8,94.4,17L94.4,17z M111.2,11.7c-0.4-0.8-1-1.3-2-1.3H109
				c-0.9,0-1.6,0.5-2,1.3l-7,15.5c-0.1,0.3-0.2,0.5-0.2,0.7c0,0.9,0.7,1.5,1.5,1.5c0.7,0,1.3-0.4,1.5-1l1.6-3.6h9.1l1.5,3.5
				c0.3,0.7,0.8,1.1,1.6,1.1c0.9,0,1.6-0.7,1.6-1.6c0-0.2-0.1-0.5-0.2-0.7L111.2,11.7z M105.8,21.9l3.3-7.5l3.3,7.5H105.8z
				 M130.7,18.5c-3.6-0.9-4.5-1.5-4.5-2.9v-0.1c0-1.2,1.1-2.2,3.1-2.2c1.5,0,2.9,0.5,4.3,1.4c0.3,0.2,0.5,0.2,0.9,0.2
				c0.9,0,1.6-0.7,1.6-1.5c0-0.6-0.3-1.1-0.7-1.3c-1.7-1.1-3.6-1.7-6-1.7c-3.7,0-6.4,2.2-6.4,5.4v0.1c0,3.4,2.3,4.6,6.3,5.6
				c3.5,0.8,4.2,1.5,4.2,2.9v0.1c0,1.4-1.3,2.3-3.3,2.3s-3.7-0.7-5.3-1.9c-0.2-0.2-0.5-0.3-1-0.3c-0.9,0-1.6,0.7-1.6,1.5
				c0,0.5,0.3,1,0.6,1.3c2.1,1.5,4.5,2.3,7.1,2.3c3.9,0,6.7-2.1,6.7-5.6V24C136.7,20.9,134.6,19.5,130.7,18.5z M154.3,10.7h-12.5
				c-0.9,0-1.5,0.7-1.5,1.5s0.7,1.5,1.5,1.5h4.6v14.1c0,0.9,0.8,1.6,1.7,1.6s1.7-0.7,1.7-1.6V13.7h4.6c0.8,0,1.5-0.7,1.5-1.5
				C155.8,11.4,155.1,10.7,154.3,10.7z M173.5,26.4h-9.4v-5h8.1c0.8,0,1.5-0.6,1.5-1.4s-0.7-1.5-1.5-1.5h-8.1v-4.9h9.3
				c0.8,0,1.5-0.6,1.5-1.5c0-0.8-0.7-1.5-1.5-1.5h-10.9c-0.9,0-1.7,0.7-1.7,1.7v15.4c0,0.9,0.7,1.7,1.7,1.7h11.1
				c0.8,0,1.5-0.6,1.5-1.5C175,27.1,174.3,26.4,173.5,26.4z M74.9,0l-10,1.6c-0.9,0-1.6,0.7-1.6,1.7l0,0l0,0l0.1,20.3L54,11.5
				c-0.5-0.6-0.9-1-1.7-1H52c-0.9,0-1.7,0.7-1.7,1.7V34c-0.9,0.6-1.6,1.6-1.6,2.8c0,1.8,1.4,3.2,3.2,3.2s3.2-1.4,3.2-3.2
				c0-1.2-0.6-2.2-1.6-2.8V16l9.7,12.4c0.5,0.6,0.9,1,1.7,1H65c0.9,0,1.6-0.7,1.6-1.6v-23h5.5c0.6,0.9,1.6,1.6,2.8,1.6
				c1.8,0,3.2-1.4,3.2-3.2S76.7,0,74.9,0z M51.8,38.4c-0.9,0-1.7-0.7-1.7-1.6c0-0.9,0.7-1.6,1.7-1.6c0.9,0,1.7,0.7,1.7,1.6
				C53.4,37.7,52.7,38.4,51.8,38.4z M74.9,4.9c-0.9,0-1.7-0.7-1.7-1.6s0.7-1.6,1.7-1.6c0.9,0,1.7,0.7,1.7,1.6
				C76.5,4.1,75.8,4.9,74.9,4.9z"/>
		</g>
	</g>
</g>
</svg>
