<?xml version="1.0" encoding="utf-8"?>
<!-- Generator: Adobe Illustrator 17.1.0, SVG Export Plug-In . SVG Version: 6.00 Build 0)  -->
<!DOCTYPE svg PUBLIC "-//W3C//DTD SVG 1.1//EN" "http://www.w3.org/Graphics/SVG/1.1/DTD/svg11.dtd">
<svg version="1.1" id="Layer_1" xmlns:ev="http://www.w3.org/2001/xml-events"
	 xmlns="http://www.w3.org/2000/svg" xmlns:xlink="http://www.w3.org/1999/xlink" x="0px" y="0px" viewBox="0 0 110 150"
	 enable-background="new 0 0 110 150" xml:space="preserve">
<path fill="#474E5C" d="M0,0h110v150H0V0z"/>
<text transform="matrix(1 0 0 1 28.3332 97.5017)" fill="#FFFFFF" font-family="'Arial-BoldMT'" font-size="10.9387">John Smith</text>
<path fill="#A33E2E" d="M58,32.7c12.9,0,23.4,10.5,23.4,23.4S71,79.5,58,79.5S34.6,69,34.6,56.1S45.1,32.7,58,32.7z"/>
<path fill="#FFFFFF" d="M69,52.1c0,0.1,0,0.1,0,0.2c0,0.1,0,0.2-0.1,0.3c0,0.1,0,0.1-0.1,0.2c0,0.1-0.1,0.2-0.1,0.3
	c0,0,0,0.1-0.1,0.1c-0.1,0.1-0.1,0.2-0.2,0.3l-0.1,0.2c-0.4,0.7-4.4,1.3-4.7,1.3c-0.6,0-1.1-0.6-2.4-2c-0.4,0.1-0.9,0.4-1.4,0.6
	c-1,0.5-2.1,1.3-2.8,1.9c-0.4,0.4-1,0.9-1.6,1.6c-0.7,0.8-1.4,1.7-1.8,2.5c1.1,1.2,1.6,1.8,1.7,2.3l0,0.3c0,0.3-1.2,4.1-1.9,4.4
	l-0.2,0.1c-0.5,0.3-1.6,0.7-2.4,0.1c-0.5-0.4-1.6-1.3-2-2.5l0-0.1l0,0c0,0,0-0.1,0-0.2c0,0,0-0.1,0-0.1c0-0.1,0-0.1,0-0.2
	c0,0,0,0,0,0c0,0,0,0,0-0.1c0-0.2,0-0.3,0-0.6c0,0,0,0,0-0.1c0-0.2,0.1-0.5,0.1-0.8c0-0.1,0-0.1,0-0.2c0-0.3,0.1-0.6,0.2-0.9
	c0-0.1,0-0.1,0.1-0.2c0.1-0.3,0.2-0.7,0.3-1c0,0,0-0.1,0-0.1c0.1-0.3,0.3-0.7,0.4-1.1c0-0.1,0-0.1,0.1-0.2c0.2-0.4,0.4-0.8,0.6-1.2
	c0-0.1,0.1-0.2,0.1-0.2c0.2-0.4,0.5-0.8,0.8-1.2c0-0.1,0.1-0.1,0.2-0.2c0.3-0.4,0.6-0.8,1-1.3c0.4-0.5,0.9-1,1.4-1.4
	c1-0.8,2-1.5,2.9-2.1c4.5-2.5,8.9-2.4,9.4-2.1c1.1,0.5,2,1.7,2.3,2.2c0.1,0.2,0.2,0.3,0.2,0.5c0,0.1,0,0.2,0,0.3
	C69,52,69,52,69,52.1z M50.3,51.2L47.1,48l2.8-2.8l3.5,3.5c-0.7,0.4-1.4,0.9-2,1.5C51,50.4,50.7,50.8,50.3,51.2z M59.4,58.1
	c0.5-0.4,1.2-0.9,1.8-1.2c0.1-0.1,0.2-0.1,0.3-0.1l4.3,4.3L63,63.9l-4.7-4.7c0,0,0,0,0-0.1C58.8,58.8,59.1,58.4,59.4,58.1z"/>
</svg>
