<?xml version="1.0" encoding="utf-8"?><!DOCTYPE svg PUBLIC "-//W3C//DTD SVG 1.1//EN" "http://www.w3.org/Graphics/SVG/1.1/DTD/svg11.dtd"><svg version="1.1" baseProfile="full" xmlns="http://www.w3.org/2000/svg" xmlns:xlink="http://www.w3.org/1999/xlink" xmlns:ev="http://www.w3.org/2001/xml-events"   height="130px"   width="216px" ><path fill="rgb( 71, 78, 92 )" d="M0,0 C0,0 216,0 216,0 C216,0 216,130 216,130 C216,130 0,130 0,130 C0,130 0,0 0,0 Z "/><text font-family="Arial" fill="rgb( 255, 255, 255 )" font-weight="bold" font-size="14px" x="70px" y="106px">John&#32;Smith</text><path fill="rgb( 163, 62, 46 )" d="M108,23 C124.569,23 138,36.431 138,53 C138,69.569 124.569,83 108,83 C91.431,83 78,69.569 78,53 C78,36.431 91.431,23 108,23 Z "/><path fill="rgb( 255, 255, 255 )" d="M121.985,47.853 C121.977,47.932 121.968,48.012 121.952,48.09 C121.927,48.219 121.893,48.345 121.848,48.468 C121.823,48.537 121.802,48.607 121.773,48.673 C121.716,48.802 121.653,48.926 121.588,49.044 C121.561,49.091 121.537,49.143 121.51,49.188 C121.419,49.342 121.325,49.487 121.241,49.614 C121.241,49.614 121.072,49.877 121.072,49.877 C120.556,50.751 115.472,51.582 115.062,51.556 C114.301,51.512 113.616,50.785 112.039,49.044 C111.472,49.221 110.839,49.518 110.199,49.855 C108.878,50.55 107.52,51.475 106.588,52.284 C106.032,52.766 105.309,53.486 104.602,54.284 C103.68,55.323 102.785,56.496 102.325,57.468 C103.707,58.997 104.346,59.722 104.485,60.384 C104.485,60.384 104.51,60.707 104.51,60.707 C104.486,61.107 103.032,65.947 102.083,66.342 C102.083,66.342 101.793,66.474 101.793,66.474 C101.097,66.805 99.8,67.421 98.712,66.559 C98.121,66.091 96.692,64.848 96.154,63.381 C96.154,63.381 96.126,63.285 96.126,63.285 C96.126,63.285 96.12,63.254 96.12,63.254 C96.107,63.191 96.095,63.102 96.087,62.998 C96.083,62.955 96.083,62.899 96.081,62.85 C96.077,62.78 96.074,62.711 96.073,62.628 C96.073,62.609 96.071,62.596 96.071,62.575 C96.071,62.551 96.074,62.516 96.074,62.491 C96.077,62.283 96.087,62.046 96.109,61.777 C96.111,61.746 96.113,61.72 96.115,61.687 C96.141,61.399 96.186,61.07 96.241,60.724 C96.252,60.651 96.263,60.58 96.275,60.505 C96.337,60.153 96.417,59.773 96.515,59.374 C96.536,59.292 96.559,59.208 96.58,59.124 C96.69,58.703 96.819,58.264 96.976,57.803 C96.994,57.755 97.015,57.703 97.032,57.655 C97.189,57.209 97.373,56.749 97.582,56.278 C97.612,56.209 97.639,56.142 97.67,56.072 C97.894,55.585 98.152,55.086 98.437,54.581 C98.494,54.481 98.551,54.381 98.61,54.281 C98.907,53.775 99.238,53.263 99.606,52.75 C99.668,52.665 99.735,52.579 99.799,52.493 C100.199,51.953 100.63,51.412 101.118,50.876 C101.674,50.266 102.272,49.66 102.953,49.07 C104.18,48.005 105.449,47.144 106.708,46.44 C112.468,43.218 118.05,43.408 118.779,43.763 C120.203,44.462 121.294,45.999 121.697,46.627 C121.828,46.834 121.919,47.053 121.967,47.282 C121.995,47.415 122.008,47.547 122.008,47.677 C122.008,47.737 121.989,47.793 121.985,47.853 ZM98.162,46.737 C98.162,46.737 94.018,42.591 94.018,42.591 C94.018,42.591 97.619,38.99 97.619,38.99 C97.619,38.99 102.117,43.49 102.117,43.49 C101.192,44.044 100.315,44.668 99.522,45.371 C99.071,45.771 98.625,46.22 98.162,46.737 ZM109.794,55.615 C110.405,55.072 111.296,54.46 112.122,54.016 C112.243,53.951 112.356,53.892 112.463,53.839 C112.463,53.839 118.017,59.395 118.017,59.395 C118.017,59.395 114.417,62.998 114.417,62.998 C114.417,62.998 108.444,57.02 108.444,57.02 C108.463,56.996 108.48,56.974 108.501,56.95 C108.942,56.441 109.426,55.942 109.794,55.615 Z "/></svg>