<?xml version="1.0" encoding="utf-8"?>
<!-- Generator: Adobe Illustrator 17.1.0, SVG Export Plug-In . SVG Version: 6.00 Build 0)  -->
<!DOCTYPE svg PUBLIC "-//W3C//DTD SVG 1.1//EN" "http://www.w3.org/Graphics/SVG/1.1/DTD/svg11.dtd">
<svg version="1.1" id="Layer_1" xmlns:ev="http://www.w3.org/2001/xml-events"
	 xmlns="http://www.w3.org/2000/svg" xmlns:xlink="http://www.w3.org/1999/xlink" x="0px" y="0px" viewBox="0 0 160 160"
	 enable-background="new 0 0 160 160" xml:space="preserve">
<path fill="#FFB31A" d="M80,160c-44.2,0-80-35.8-80-80S35.8,0,80,0s80,35.8,80,80S124.2,160,80,160z"/>
<g>
	<path fill="#F5F2ED" d="M50.2,75.9L46,67.7c2.1-0.6,3.7-2.3,3.7-4.9c0-3.1-2.2-5.4-5.7-5.4h-7.2v18.5h2.8v-7.8h3.5l3.9,7.8H50.2z
		 M46.9,62.8c0,1.8-1.3,2.9-3.1,2.9h-4.2v-5.8h4.2C45.6,59.9,46.9,61,46.9,62.8z"/>
	<path fill="#F5F2ED" d="M64,70.1v-1.2c0-3.7-2.1-6.3-5.6-6.3c-3.4,0-5.6,2.5-5.6,6.7c0,5,2.6,6.8,5.9,6.8c2.3,0,3.6-0.7,4.9-2.1
		L62,72.4c-0.9,0.9-1.7,1.4-3.2,1.4c-2.2,0-3.4-1.4-3.4-3.7H64z M61.3,68.2h-5.9c0-0.8,0.1-1.2,0.3-1.8c0.4-1,1.4-1.7,2.6-1.7
		c1.2,0,2.2,0.7,2.6,1.7C61.2,67,61.3,67.4,61.3,68.2z"/>
	<path fill="#F5F2ED" d="M77,74.2l-1.8-1.7c-0.8,0.9-1.5,1.2-2.5,1.2c-1,0-1.9-0.4-2.4-1.2c-0.6-0.7-0.8-1.7-0.8-3.2
		c0-1.5,0.2-2.5,0.8-3.2c0.6-0.8,1.4-1.2,2.4-1.2c1,0,1.7,0.3,2.5,1.2l1.8-1.8c-1.2-1.3-2.5-1.8-4.3-1.8c-3,0-5.9,1.8-5.9,6.7
		s2.9,6.8,5.9,6.8C74.5,76.1,75.8,75.5,77,74.2z"/>
	<path fill="#F5F2ED" d="M90.1,70.1v-1.2c0-3.7-2.1-6.3-5.6-6.3c-3.4,0-5.6,2.5-5.6,6.7c0,5,2.6,6.8,5.9,6.8c2.3,0,3.6-0.7,4.9-2.1
		l-1.7-1.6c-0.9,0.9-1.7,1.4-3.2,1.4c-2.2,0-3.4-1.4-3.4-3.7H90.1z M87.5,68.2h-5.9c0-0.8,0.1-1.2,0.3-1.8c0.4-1,1.4-1.7,2.6-1.7
		c1.2,0,2.2,0.7,2.6,1.7C87.4,67,87.5,67.4,87.5,68.2z"/>
	<path fill="#F5F2ED" d="M96.3,75.9V62.7h-2.7v13.2H96.3z M96.4,60.1v-2.8h-2.8v2.8H96.4z"/>
	<path fill="#F5F2ED" d="M110.4,62.7h-2.8l-3.1,9.3l-3.1-9.3h-2.8l4.8,13.2h2.2L110.4,62.7z"/>
	<path fill="#F5F2ED" d="M123,70.1v-1.2c0-3.7-2.1-6.3-5.6-6.3c-3.4,0-5.6,2.5-5.6,6.7c0,5,2.6,6.8,5.9,6.8c2.3,0,3.6-0.7,4.9-2.1
		l-1.7-1.6c-0.9,0.9-1.7,1.4-3.2,1.4c-2.2,0-3.4-1.4-3.4-3.7H123z M120.4,68.2h-5.9c0-0.8,0.1-1.2,0.3-1.8c0.4-1,1.4-1.7,2.6-1.7
		c1.2,0,2.2,0.7,2.6,1.7C120.2,67,120.3,67.4,120.4,68.2z"/>
	<path fill="#F5F2ED" d="M32,97.3c0-2-0.2-4.2-1.5-5.6c-0.7-0.7-1.9-1.2-3.2-1.2c-1.4,0-2.5,0.4-3.5,1.6v-1.4h-2.6v18.5h2.7v-6.7
		c1,1.1,2.1,1.5,3.5,1.5c1.3,0,2.5-0.4,3.2-1.2C31.8,101.6,32,99.3,32,97.3z M29.3,97.3c0,2.3-0.3,4.4-2.7,4.4s-2.8-2.1-2.8-4.4
		c0-2.3,0.4-4.4,2.8-4.4S29.3,95,29.3,97.3z"/>
	<path fill="#F5F2ED" d="M46.2,103.9v-8.5c0-2.9-1.6-4.8-4.6-4.8c-1.3,0-2.5,0.5-3.4,1.5v-6.7h-2.7v18.5h2.7v-8.1
		c0-2,1.2-2.9,2.7-2.9c1.5,0,2.7,0.9,2.7,2.9v8.1H46.2z"/>
	<path fill="#F5F2ED" d="M60.7,97.3c0-2.2-0.3-3.9-1.6-5.2c-0.9-0.9-2.2-1.6-4-1.6c-1.8,0-3.1,0.7-3.9,1.6c-1.2,1.3-1.6,3-1.6,5.2
		c0,2.2,0.3,3.9,1.6,5.2c0.9,0.9,2.1,1.6,3.9,1.6c1.8,0,3.1-0.7,4-1.6C60.3,101.2,60.7,99.5,60.7,97.3z M58,97.3
		c0,1.4-0.1,2.8-0.9,3.6c-0.5,0.5-1.2,0.8-2,0.8c-0.8,0-1.4-0.3-1.9-0.8c-0.8-0.8-0.9-2.2-0.9-3.6s0.1-2.8,0.9-3.6
		c0.5-0.5,1.1-0.8,1.9-0.8c0.8,0,1.5,0.3,2,0.8C57.9,94.5,58,95.9,58,97.3z"/>
	<path fill="#F5F2ED" d="M74.9,103.9v-8.4c0-1.5-0.3-2.7-1.3-3.7c-0.8-0.8-1.9-1.2-3.3-1.2c-1.3,0-2.6,0.5-3.5,1.5v-1.3h-2.6v13.2
		h2.7v-8c0-2,1.2-2.9,2.7-2.9c1.5,0,2.7,0.9,2.7,2.9v8H74.9z"/>
	<path fill="#F5F2ED" d="M89.5,98.1v-1.2c0-3.7-2.1-6.3-5.6-6.3c-3.4,0-5.6,2.5-5.6,6.7c0,5,2.6,6.8,5.9,6.8c2.3,0,3.6-0.7,4.9-2.1
		l-1.7-1.6c-0.9,0.9-1.7,1.4-3.2,1.4c-2.2,0-3.4-1.4-3.4-3.7H89.5z M86.9,96.2H81c0-0.8,0.1-1.2,0.3-1.8c0.4-1,1.4-1.7,2.6-1.7
		c1.2,0,2.2,0.7,2.6,1.7C86.8,95,86.9,95.4,86.9,96.2z"/>
	<path fill="#F5F2ED" d="M108.8,102.2l-1.8-1.7c-0.8,0.9-1.5,1.2-2.5,1.2c-1,0-1.9-0.4-2.4-1.2c-0.6-0.7-0.8-1.7-0.8-3.2
		c0-1.5,0.2-2.5,0.8-3.2c0.6-0.8,1.4-1.2,2.4-1.2c1,0,1.7,0.3,2.5,1.2l1.8-1.8c-1.2-1.3-2.5-1.8-4.3-1.8c-3,0-5.9,1.8-5.9,6.7
		s2.9,6.8,5.9,6.8C106.3,104.1,107.6,103.5,108.8,102.2z"/>
	<path fill="#F5F2ED" d="M121.5,103.9v-8.8c0-3-1.8-4.5-5.4-4.5c-2.2,0-3.5,0.4-4.7,1.9l1.7,1.6c0.7-0.9,1.4-1.3,2.9-1.3
		c2.1,0,2.9,0.8,2.9,2.5v0.9h-3.5c-3,0-4.6,1.6-4.6,3.8c0,1.1,0.4,2.1,1,2.8c0.8,0.8,1.9,1.2,3.5,1.2s2.5-0.4,3.5-1.4v1.2H121.5z
		 M118.8,99.1c0,0.9-0.2,1.6-0.6,1.9c-0.7,0.7-1.5,0.8-2.5,0.8c-1.7,0-2.4-0.7-2.4-1.9c0-1.2,0.8-1.9,2.4-1.9h3.1V99.1z"/>
	<path fill="#F5F2ED" d="M130.7,103.9v-2.3h-1.2c-1.1,0-1.4-0.5-1.4-1.5V85.4h-2.7v14.9c0,2,1.1,3.6,3.6,3.6H130.7z"/>
	<path fill="#F5F2ED" d="M138.8,103.9v-2.3h-1.2c-1.1,0-1.4-0.5-1.4-1.5V85.4h-2.7v14.9c0,2,1.1,3.6,3.6,3.6H138.8z"/>
</g>
</svg>
