<?xml version="1.0" encoding="utf-8"?>
<!-- Generator: Adobe Illustrator 17.1.0, SVG Export Plug-In . SVG Version: 6.00 Build 0)  -->
<!DOCTYPE svg PUBLIC "-//W3C//DTD SVG 1.1//EN" "http://www.w3.org/Graphics/SVG/1.1/DTD/svg11.dtd">
<svg version="1.1" id="Layer_1" xmlns:ev="http://www.w3.org/2001/xml-events"
	 xmlns="http://www.w3.org/2000/svg" xmlns:xlink="http://www.w3.org/1999/xlink" x="0px" y="0px" viewBox="123.3 0 595.3 595.3"
	 enable-background="new 123.3 0 595.3 595.3" xml:space="preserve">
<path fill="#FFB31A" d="M420.9,595.3c-164.4,0-297.6-133.2-297.6-297.6S256.5,0,420.9,0s297.6,133.2,297.6,297.6
	S585.4,595.3,420.9,595.3z"/>
<g>
	<path fill="#F5F2ED" d="M200.2,277.6l-14-26.9c6.8-1.9,12.1-7.4,12.1-16.1c0-10.3-7.3-17.7-18.9-17.7h-23.6v60.8h9.2V252h11.5
		l12.8,25.6H200.2z M189.1,234.7c0,6-4.2,9.5-10.3,9.5h-13.7v-19h13.7C184.9,225.2,189.1,228.7,189.1,234.7z"/>
	<path fill="#F5F2ED" d="M244.4,258.5v-3.8c0-12.3-6.7-20.8-18.3-20.8c-11.1,0-18.3,8.1-18.3,22.1c0,16.5,8.6,22.2,19.5,22.2
		c7.6,0,11.8-2.3,16.2-6.7l-5.5-5.2c-3.1,3.1-5.6,4.4-10.5,4.4c-7.1,0-11-4.7-11-12.1H244.4z M235.8,252.5h-19.5
		c0.1-2.6,0.3-3.9,1.1-5.9c1.4-3.2,4.5-5.5,8.6-5.5c4.1,0,7.2,2.2,8.5,5.5C235.5,248.5,235.7,249.8,235.8,252.5z"/>
	<path fill="#F5F2ED" d="M286.4,272l-6-5.7c-2.7,3-4.9,4.1-8.3,4.1c-3.3,0-6.1-1.4-8-3.8c-1.9-2.4-2.6-5.5-2.6-10.6
		c0-5,0.7-8.1,2.6-10.5c1.9-2.5,4.7-3.8,8-3.8c3.4,0,5.5,1.1,8.3,4.1l6-5.8c-4.1-4.4-8.3-6.1-14.3-6.1c-9.7,0-19.3,5.9-19.3,22.1
		s9.6,22.2,19.3,22.2C278.1,278.1,282.3,276.4,286.4,272z"/>
	<path fill="#F5F2ED" d="M328.5,258.5v-3.8c0-12.3-6.7-20.8-18.3-20.8c-11.1,0-18.3,8.1-18.3,22.1c0,16.5,8.6,22.2,19.5,22.2
		c7.6,0,11.8-2.3,16.2-6.7l-5.5-5.2c-3.1,3.1-5.6,4.4-10.5,4.4c-7.1,0-11-4.7-11-12.1H328.5z M319.9,252.5h-19.5
		c0.1-2.6,0.3-3.9,1.1-5.9c1.4-3.2,4.5-5.5,8.6-5.5s7.2,2.2,8.5,5.5C319.6,248.5,319.8,249.8,319.9,252.5z"/>
	<path fill="#F5F2ED" d="M347.9,277.6v-43.3h-8.7v43.3H347.9z M348.2,225.8v-9.2h-9.2v9.2H348.2z"/>
	<path fill="#F5F2ED" d="M393.5,234.4h-9.2l-10.2,30.5l-10.2-30.5h-9.2l15.9,43.3h7.1L393.5,234.4z"/>
	<path fill="#F5F2ED" d="M433.8,258.5v-3.8c0-12.3-6.7-20.8-18.3-20.8c-11.1,0-18.3,8.1-18.3,22.1c0,16.5,8.6,22.2,19.5,22.2
		c7.6,0,11.8-2.3,16.2-6.7l-5.5-5.2c-3.1,3.1-5.6,4.4-10.5,4.4c-7.1,0-11-4.7-11-12.1H433.8z M425.2,252.5h-19.5
		c0.1-2.6,0.3-3.9,1.1-5.9c1.4-3.2,4.5-5.5,8.6-5.5c4.1,0,7.2,2.2,8.5,5.5C424.9,248.5,425.1,249.8,425.2,252.5z"/>
	<path fill="#F5F2ED" d="M499.5,256c0-6.6-0.5-13.9-4.9-18.3c-2.4-2.4-6.2-3.8-10.6-3.8c-4.7,0-8.2,1.2-11.4,5.1v-4.6h-8.5v60.8h8.7
		v-21.9c3.2,3.8,6.7,4.9,11.3,4.9c4.4,0,8.1-1.5,10.5-3.8C499,270,499.5,262.5,499.5,256z M490.8,256c0,7.7-1.1,14.4-9,14.4
		c-7.9,0-9-6.7-9-14.4s1.2-14.3,9-14.3C489.7,241.6,490.8,248.3,490.8,256z"/>
	<path fill="#F5F2ED" d="M545.3,277.6v-27.9c0-9.4-5.4-15.9-15-15.9c-4.3,0-8.2,1.6-11.2,4.9v-21.8h-8.7v60.8h8.7v-26.5
		c0-6.5,3.9-9.5,8.8-9.5c4.9,0,8.7,2.9,8.7,9.5v26.5H545.3z"/>
	<path fill="#F5F2ED" d="M591.9,256c0-7.3-1-12.7-5.1-17c-2.8-2.9-7.1-5.1-13-5.1s-10.1,2.2-12.9,5.1c-4.1,4.3-5.1,9.7-5.1,17
		c0,7.3,1,12.8,5.1,17.1c2.8,2.9,7,5.1,12.9,5.1s10.2-2.2,13-5.1C590.9,268.8,591.9,263.3,591.9,256z M583.2,256
		c0,4.7-0.3,9.2-3,11.9c-1.6,1.6-3.8,2.6-6.4,2.6s-4.7-0.9-6.3-2.6c-2.6-2.6-3-7.2-3-11.9s0.3-9.2,3-11.9c1.6-1.6,3.8-2.5,6.3-2.5
		s4.8,0.9,6.4,2.5C582.9,246.7,583.2,251.3,583.2,256z"/>
	<path fill="#F5F2ED" d="M637.9,277.6V250c0-4.9-1-9-4.4-12.2c-2.6-2.5-6.2-3.9-10.7-3.9c-4.4,0-8.5,1.6-11.5,4.9v-4.4h-8.5v43.3
		h8.7v-26.4c0-6.7,4.1-9.6,9-9.6c4.9,0,8.7,2.9,8.7,9.6v26.4H637.9z"/>
	<path fill="#F5F2ED" d="M684.9,258.5v-3.8c0-12.3-6.7-20.8-18.3-20.8c-11.1,0-18.3,8.1-18.3,22.1c0,16.5,8.6,22.2,19.5,22.2
		c7.6,0,11.8-2.3,16.2-6.7l-5.5-5.2c-3.1,3.1-5.6,4.4-10.5,4.4c-7.1,0-11-4.7-11-12.1H684.9z M676.3,252.5h-19.5
		c0.1-2.6,0.3-3.9,1.1-5.9c1.4-3.2,4.5-5.5,8.6-5.5c4.1,0,7.2,2.2,8.5,5.5C676,248.5,676.2,249.8,676.3,252.5z"/>
	<path fill="#F5F2ED" d="M272.7,380.6l-6-5.7c-2.7,3-4.9,4.1-8.3,4.1c-3.3,0-6.1-1.4-8-3.8c-1.9-2.4-2.6-5.5-2.6-10.6
		c0-5,0.7-8.1,2.6-10.5c1.9-2.5,4.7-3.8,8-3.8c3.4,0,5.5,1.1,8.3,4.1l6-5.8c-4.1-4.4-8.3-6.1-14.3-6.1c-9.7,0-19.3,5.9-19.3,22.1
		s9.6,22.2,19.3,22.2C264.5,386.7,268.6,384.9,272.7,380.6z"/>
	<path fill="#F5F2ED" d="M313.4,386.2v-28.9c0-9.8-6-14.8-17.8-14.8c-7.2,0-11.4,1.5-15.5,6.2l5.7,5.4c2.4-3.1,4.7-4.2,9.5-4.2
		c6.7,0,9.5,2.6,9.5,8.1v3.1h-11.4c-9.9,0-14.9,5.2-14.9,12.5c0,3.7,1.2,7,3.4,9.3c2.6,2.6,6.2,3.9,11.6,3.9c5.4,0,8.4-1.3,11.5-4.4
		v3.9H313.4z M304.7,370.6c0,3.1-0.6,5.1-1.9,6.4c-2.3,2.2-4.8,2.5-8.1,2.5c-5.5,0-7.9-2.2-7.9-6.1c0-3.9,2.6-6.2,7.8-6.2h10.2
		V370.6z"/>
	<path fill="#F5F2ED" d="M343,386.2v-7.4h-3.8c-3.5,0-4.7-1.7-4.7-5v-48.3h-8.7v48.8c0,6.4,3.6,11.9,11.9,11.9H343z"/>
	<path fill="#F5F2ED" d="M368.6,386.2v-7.4h-3.8c-3.5,0-4.7-1.7-4.7-5v-48.3h-8.7v48.8c0,6.4,3.6,11.9,11.9,11.9H368.6z"/>
	<path fill="#F5F2ED" d="M403.1,319.2h-8.4l-24.3,73.4h8.4L403.1,319.2z"/>
	<path fill="#F5F2ED" d="M440.9,373c0-7.7-4.8-11.5-12.9-12.2l-6.8-0.6c-4.6-0.4-6-2.4-6-4.9c0-3.2,2.6-5.5,7.9-5.5
		c4.1,0,7.9,0.9,10.7,3.2l5.5-5.5c-4-3.5-9.6-4.9-16-4.9c-9,0-16.3,4.8-16.3,13.2c0,7.6,4.7,11.3,12.8,11.9l6.9,0.6
		c4.2,0.3,5.8,2.2,5.8,5.1c0,4.1-4.2,6-9.5,6c-4.3,0-9-0.9-12.5-4.5l-5.7,5.7c5.1,5,11.1,6.2,18.2,6.2
		C433.2,386.7,440.9,382,440.9,373z"/>
	<path fill="#F5F2ED" d="M512.1,386.2v-27.6c0-4.9-1.3-9-4.6-12.2c-2.6-2.5-6.5-3.9-10.9-3.9c-5.7,0-10.1,2-13.6,6.3
		c-2.7-4.2-6.9-6.3-12.3-6.3c-4.4,0-8.6,1.7-11.5,4.9V343h-8.5v43.3h8.7v-26.4c0-6.7,4.1-9.6,9-9.6c4.9,0,8.7,2.9,8.7,9.6v26.4h8.7
		v-26.8c0-6.2,4.3-9.2,9-9.2c4.9,0,8.7,2.9,8.7,9.6v26.4H512.1z"/>
	<path fill="#F5F2ED" d="M556.6,373c0-7.7-4.8-11.5-12.9-12.2l-6.8-0.6c-4.6-0.4-6-2.4-6-4.9c0-3.2,2.6-5.5,7.9-5.5
		c4.1,0,7.9,0.9,10.7,3.2l5.5-5.5c-4-3.5-9.6-4.9-16-4.9c-9,0-16.3,4.8-16.3,13.2c0,7.6,4.7,11.3,12.8,11.9l6.9,0.6
		c4.2,0.3,5.8,2.2,5.8,5.1c0,4.1-4.2,6-9.5,6c-4.3,0-9-0.9-12.5-4.5l-5.7,5.7c5.1,5,11.1,6.2,18.2,6.2
		C548.9,386.7,556.6,382,556.6,373z"/>
	<path fill="#F5F2ED" d="M599.5,341.3c0-10.1-7.8-16.3-17.1-16.3c-9.6,0-17,6.7-17,16.4h8.7c0-4.6,3-8.6,8.3-8.6
		c4.9,0,8.4,3.8,8.4,8.5c0,2.4-1.1,4.4-2.6,6.5l-6.7,9c-2,2.7-2.9,4.9-2.9,8.4v3h8.7v-2.6c0-1.4,0.6-3.3,1.5-4.6l6.6-9.2
		C597.7,348.6,599.5,345.3,599.5,341.3z M587.7,386.2v-9.3h-9.6v9.3H587.7z"/>
</g>
</svg>
