<?xml version="1.0" encoding="utf-8"?><!DOCTYPE svg PUBLIC "-//W3C//DTD SVG 1.1//EN" "http://www.w3.org/Graphics/SVG/1.1/DTD/svg11.dtd"><svg version="1.1" baseProfile="full" xmlns="http://www.w3.org/2000/svg" xmlns:xlink="http://www.w3.org/1999/xlink" xmlns:ev="http://www.w3.org/2001/xml-events"   height="45px"   width="45px" ><path fill="rgb( 255, 255, 255 )" d="M41.949,22.371 C42.032,17.337 40.17,12.276 36.336,8.444 C32.499,4.611 27.432,2.749 22.396,2.832 C22.396,2.832 22.429,0.074 22.429,0.074 C28.157,0 33.91,2.134 38.281,6.5 C42.65,10.868 44.783,16.616 44.711,22.34 C44.711,22.34 41.949,22.371 41.949,22.371 ZM36.433,22.437 C36.433,22.437 33.676,22.469 33.676,22.469 C33.789,19.515 32.752,16.527 30.497,14.276 C28.243,12.025 25.255,10.989 22.3,11.101 C22.3,11.101 22.329,8.344 22.329,8.344 C25.981,8.242 29.659,9.551 32.443,12.334 C35.226,15.114 36.535,18.791 36.433,22.437 ZM28.173,22.533 C28.173,22.533 25.366,22.567 25.366,22.567 C25.535,21.701 25.331,20.777 24.662,20.108 C23.993,19.438 23.068,19.236 22.201,19.404 C22.201,19.404 22.233,16.599 22.233,16.599 C23.799,16.463 25.411,16.968 26.607,18.164 C27.803,19.36 28.308,20.971 28.173,22.533 ZM27.108,31.134 C27.108,31.134 27.616,31.095 27.616,31.095 C28.244,31.133 35.851,33.366 36.47,34.824 C36.47,34.824 36.679,35.27 36.679,35.27 C37.2,36.339 38.167,38.331 36.813,40.003 C36.078,40.911 34.122,43.105 31.818,43.932 C31.818,43.932 31.668,43.975 31.668,43.975 C31.668,43.975 31.621,43.985 31.621,43.985 C29.913,44.334 18.545,43.883 9.328,33.487 C0,22.978 0.309,10.54 0.989,9.176 C2.088,6.988 4.502,5.313 5.491,4.693 C5.815,4.492 6.159,4.352 6.517,4.278 C7.986,3.977 9.309,4.83 10.184,5.394 C10.184,5.394 10.596,5.653 10.596,5.653 C11.97,6.446 13.276,14.256 13.237,14.886 C13.165,16.055 12.024,17.107 9.289,19.53 C10.137,22.203 12.492,25.782 14.379,27.904 C16.123,29.871 19.824,33.204 22.528,34.452 C24.929,32.329 26.07,31.348 27.108,31.134 Z "/></svg>