<?xml version="1.0" encoding="utf-8"?><!DOCTYPE svg PUBLIC "-//W3C//DTD SVG 1.1//EN" "http://www.w3.org/Graphics/SVG/1.1/DTD/svg11.dtd"><svg version="1.1" baseProfile="full" xmlns="http://www.w3.org/2000/svg" xmlns:xlink="http://www.w3.org/1999/xlink" xmlns:ev="http://www.w3.org/2001/xml-events"   height="150px"   width="111px" ><path fill="rgb( 255, 255, 255 )" d="M0,0.002 C0,0.002 110.005,0.002 110.005,0.002 C110.005,0.002 110.005,149.991 110.005,149.991 C110.005,149.991 0,149.991 0,149.991 C0,149.991 0,0.002 0,0.002 Z "/><path fill="rgb( 230, 230, 230 )" d="M0,0 C0,0 110.005,0 110.005,0 C110.005,0 110.005,13.999 110.005,13.999 C110.005,13.999 0,13.999 0,13.999 C0,13.999 0,0 0,0 Z "/><path fill="rgb( 255, 179, 26 )" d="M5,19 C5,19 105.005,19 105.005,19 C105.005,19 105.005,32.999 105.005,32.999 C105.005,32.999 5,32.999 5,32.999 C5,32.999 5,19 5,19 Z "/><path fill="rgb( 0, 155, 242 )" d="M5,36 C5,36 105.005,36 105.005,36 C105.005,36 105.005,79.999 105.005,79.999 C105.005,79.999 5,79.999 5,79.999 C5,79.999 5,36 5,36 Z "/><path fill="rgb( 204, 204, 204 )" d="M5,112 C5,112 52.005,112 52.005,112 C52.005,112 52.005,144.999 52.005,144.999 C52.005,144.999 5,144.999 5,144.999 C5,144.999 5,112 5,112 Z "/><path fill="rgb( 204, 204, 204 )" d="M58,112 C58,112 105.005,112 105.005,112 C105.005,112 105.005,144.999 105.005,144.999 C105.005,144.999 58,144.999 58,144.999 C58,144.999 58,112 58,112 Z "/><path fill="rgb( 204, 204, 204 )" d="M15,88 C15,88 95.005,88 95.005,88 C95.005,88 95.005,93.999 95.005,93.999 C95.005,93.999 15,93.999 15,93.999 C15,93.999 15,88 15,88 Z "/><path fill="rgb( 204, 204, 204 )" d="M25,98 C25,98 85.005,98 85.005,98 C85.005,98 85.005,103.999 85.005,103.999 C85.005,103.999 25,103.999 25,103.999 C25,103.999 25,98 25,98 Z "/></svg>