<svg xmlns="http://www.w3.org/2000/svg" width="245" height="605" viewBox="0 0 245 605"><path fill="none" stroke="#fff" stroke-width="2" stroke-miterlimit="10" d="M92.7 178.1l2.3 3c3.2 4.2 8.9 4.6 13.5 2 4.2-2.3 8.5-3.6 12.4-3.6 6.6 0 10.4 2.9 10.4 7.6v.1c0 5.9-5.7 14.4-21.7 15.7l-.6.6c-.3.3.1 4.8.9 10l.6 4.2c.8 5.2 5.1 9.4 9.8 9.4 4.6 0 8.7-2 9.2-4.4s.8-4.4.8-4.4c15.3-3.7 26.9-15.9 26.9-33.2v-.1c0-17.9-14.2-28.9-34.5-28.9-11.7 0-21 3.3-28.5 8.4-4.2 3-4.6 9.5-1.5 13.6zm23.1 57.1c-5.3 0-9.5 4.2-9.5 9.5v4.4c0 5.2 4.3 9.5 9.5 9.5h8.2c5.3 0 9.5-4.2 9.5-9.5v-4.4c0-5.2-4.3-9.5-9.5-9.5h-8.2zm10.1 136.6l.1-.2c6.4-10.9 1.6-22.6-10.7-29.9-7.1-4.2-13.9-5.5-20.3-5.1-3.7.3-6.2 4.1-5.8 7.7l.3 2.7c.4 3.7 3.8 5.9 7.5 6 3.4.1 6.4.9 8.8 2.3 4 2.4 5.3 5.4 3.6 8.3v.1c-2.1 3.6-8.6 6.7-18.8 1.8l-.6.2c-.3.1-1.7 3-3 6.4l-1.1 2.8c-1.4 3.4-.2 7.5 2.6 9.2 2.8 1.6 6 1.9 7.1.6s2.1-2.4 2.1-2.4c10.7 3.3 22 0 28.2-10.5zm-38 18.5l-5-2.9c-3.2-1.9-7.3-.8-9.2 2.4l-1.6 2.7c-1.9 3.2-.8 7.3 2.4 9.2l5 2.9c3.2 1.9 7.3.8 9.2-2.4l1.6-2.7c1.9-3.2.8-7.3-2.4-9.2zM225.2 49.5c3.1-.7 5.6-2.6 5.6-4.3s-.1-3.1-.1-3.1c9.9-4.7 16-14.6 13.5-26.4v-.2C241.7 3.3 230.5-2.1 216.7.8c-7.9 1.7-13.8 5.2-18.1 9.8-2.5 2.6-1.9 7.1.9 9.5l2 1.7c2.7 2.4 6.7 1.8 9.4-.5 2.5-2.2 5.2-3.6 7.9-4.2 4.5-.9 7.4.5 8.1 3.7v.1c.8 4-1.8 10.6-12.5 13.8l-.3.5c-.2.3.7 3.3 2 6.7l1 2.8c1.4 3.2 5 5.5 8.1 4.8zm11.4 10c-.7-3.6-4.2-5.8-7.8-5.1l-5.5 1.2c-3.6.7-5.8 4.2-5.1 7.8l.6 3c.7 3.6 4.2 5.8 7.8 5.1l5.5-1.2c3.6-.7 5.8-4.2 5.1-7.8l-.6-3zM67.7 39.1C61.5 22.3 44.3 16.9 25.3 24c-11 4-18.6 10.4-23.8 17.7C-1.6 46 .3 52.2 4.8 55L8 57c4.4 2.8 9.9 1.2 13.3-2.8 3.1-3.6 6.7-6.3 10.4-7.6 6.2-2.3 10.7-.9 12.3 3.5v.1c2 5.5-.3 15.4-14.9 22.3l-.1.8c-.2.4 1.7 4.5 4.3 9.1l2.1 3.7c2.5 4.6 8.1 7 12.4 5.4s7.5-4.9 7.1-7.3-.7-4.4-.7-4.4C67.1 71 73.8 55.6 67.8 39.3l-.1-.2zm-1.6 64.2c-1.8-4.9-7.3-7.4-12.2-5.6l-7.7 2.8c-4.9 1.8-7.5 7.3-5.6 12.2l1.5 4.1c1.8 4.9 7.3 7.4 12.2 5.6l7.7-2.8c4.9-1.8 7.5-7.3 5.6-12.2l-1.5-4.1zm113.7 416.1c-4.7-17.2-21.4-24.1-40.9-18.7-11.3 3.1-19.4 8.7-25.2 15.6-3.4 4-2.1 10.4 2.1 13.5l3 2.3c4.2 3.2 9.8 2.1 13.5-1.6 3.4-3.3 7.2-5.7 11.1-6.7 6.4-1.8 10.8 0 12 4.5v.1c1.6 5.7-1.7 15.3-16.7 20.9l-.4.7c-.2.4 1.4 4.6 3.5 9.4l1.7 3.9c2.1 4.8 7.4 7.7 11.9 6.4 4.4-1.2 7.9-4.2 7.7-6.7s-.4-4.5-.4-4.5c13.8-7.6 21.8-22.4 17.1-39.1zm-7.1 63.9c-1.4-5-6.6-8-11.7-6.6l-7.9 2.2c-5.1 1.4-8.1 6.6-6.7 11.7l1.2 4.3c1.4 5 6.6 8 11.7 6.6l7.9-2.2c5.1-1.4 8.1-6.6 6.7-11.7l-1.2-4.3zM29.1 254c3.9 0 6 1.8 6 4.5v.1c0 3.5-3.4 8.4-12.8 9.1l-.3.4c-.2.2 0 2.8.4 5.8l.3 2.5c.4 3 2.9 5.5 5.6 5.5s5.1-1.1 5.4-2.5c.3-1.4.5-2.6.5-2.6 9-2.1 15.8-9.1 16-19.2v-.2c.1-10.4-8.1-17-19.9-17.1-6.8-.1-12.3 1.8-16.7 4.7-2.5 1.7-2.8 5.5-1 7.9l1.3 1.8c1.8 2.5 5.1 2.7 7.8 1.3 2.5-1.3 5-2 7.4-2zm-3.7 46.1l4.8.1c3.1 0 5.6-2.4 5.6-5.5v-2.6c0-3.1-2.4-5.6-5.5-5.6l-4.8-.1c-3.1 0-5.6 2.4-5.6 5.5v2.6c0 3.1 2.5 5.6 5.5 5.6zm14.8 169c-6.8-.1-12.3 1.8-16.7 4.7-2.5 1.7-2.8 5.5-1 7.9l1.3 1.8c1.8 2.5 5.1 2.7 7.8 1.3 2.5-1.3 5-2 7.3-2 3.9 0 6 1.8 6 4.5v.1c0 3.5-3.4 8.4-12.8 9.1l-.3.4c-.2.2 0 2.8.4 5.8l.3 2.5c.4 3 2.9 5.5 5.6 5.5 2.7 0 5.1-1.1 5.4-2.5.3-1.4.5-2.6.5-2.6 9-2.1 15.8-9.1 16-19.2v-.2c.3-10.5-7.9-17-19.8-17.1zm.1 46.2l-4.8-.1c-3.1 0-5.6 2.4-5.6 5.5v2.6c0 3.1 2.4 5.6 5.5 5.6l4.8.1c3.1 0 5.6-2.4 5.6-5.5v-2.6c0-3.1-2.4-5.6-5.5-5.6zM83.6 26c1.8 2.5 5.1 2.7 7.8 1.3 2.5-1.3 5-2 7.3-2 3.9 0 6 1.8 6 4.5v.1c0 3.5-3.4 8.4-12.8 9.1l-.3.4c-.2.2 0 2.8.4 5.8l.3 2.5c.4 3 2.9 5.5 5.6 5.5s5.1-1.1 5.4-2.5.5-2.6.5-2.6c9-2.1 15.8-9.1 16-19.2v-.2c.1-10.4-8.1-17-19.9-17.1-6.8-.1-12.3 1.8-16.7 4.7-2.5 1.7-2.8 5.5-1 7.9l1.4 1.8zm16.2 45.4c3.1 0 5.6-2.4 5.6-5.5v-2.6c0-3.1-2.4-5.6-5.5-5.6l-4.8-.1c-3.1 0-5.6 2.4-5.6 5.5v2.6c0 3.1 2.4 5.6 5.5 5.6l4.8.1z"/></svg>