<svg xmlns="http://www.w3.org/2000/svg" width="32" height="32" viewBox="0 0 32 32"><path fill="#77DDF0" d="M16 0C7.2 0 0 7.2 0 16s7.2 16 16 16 16-7.2 16-16S24.8 0 16 0zm0 29.2C8.7 29.2 2.8 23.3 2.8 16S8.7 2.8 16 2.8 29.2 8.7 29.2 16 23.3 29.2 16 29.2z"/><path fill-rule="evenodd" clip-rule="evenodd" fill="#fff" d="M18.3 16l2.9-2.9c.3-.3.3-.8 0-1.2L20 10.7c-.3-.3-.8-.3-1.2 0l-2.8 3-2.9-2.9c-.3-.3-.8-.3-1.2 0L10.7 12c-.3.3-.3.8 0 1.2l2.9 2.9-2.9 2.9c-.3.3-.3.8 0 1.2l1.2 1.2c.3.3.8.3 1.2 0l2.9-2.9 2.9 2.9c.3.3.8.3 1.2 0l1.2-1.2c.3-.3.3-.8 0-1.2l-3-3z"/></svg>