<?xml version="1.0" encoding="utf-8"?>
<!-- Generator: Adobe Illustrator 18.1.0, SVG Export Plug-In . SVG Version: 6.00 Build 0)  -->
<!DOCTYPE svg PUBLIC "-//W3C//DTD SVG 1.1//EN" "http://www.w3.org/Graphics/SVG/1.1/DTD/svg11.dtd">
<svg version="1.1" id="Layer_1" xmlns="http://www.w3.org/2000/svg" xmlns:xlink="http://www.w3.org/1999/xlink" x="0px" y="0px"
	 width="35px" height="35px" viewBox="-1262 298 35 35" enable-background="new -1262 298 35 35" xml:space="preserve">
<g>
	<path fill="#77DDF0" d="M-1244.5,299.5c-8.8,0-16,7.2-16,16s7.2,16,16,16s16-7.2,16-16S-1235.7,299.5-1244.5,299.5z M-1244.5,328.7
		c-7.3,0-13.2-5.9-13.2-13.2s5.9-13.2,13.2-13.2s13.2,5.9,13.2,13.2S-1237.2,328.7-1244.5,328.7z"/>
	<g>
		<g>
			<path fill="#FFFFFF" d="M-1242.2,315.5l2.9-2.9c0.3-0.3,0.3-0.8,0-1.2l-1.2-1.2c-0.3-0.3-0.8-0.3-1.2,0l-2.8,3l-2.9-2.9
				c-0.3-0.3-0.8-0.3-1.2,0l-1.2,1.2c-0.3,0.3-0.3,0.8,0,1.2l2.9,2.9l-2.9,2.9c-0.3,0.3-0.3,0.8,0,1.2l1.2,1.2
				c0.3,0.3,0.8,0.3,1.2,0l2.9-2.9l2.9,2.9c0.3,0.3,0.8,0.3,1.2,0l1.2-1.2c0.3-0.3,0.3-0.8,0-1.2L-1242.2,315.5z"/>
		</g>
	</g>
</g>
</svg>
