<svg xmlns="http://www.w3.org/2000/svg" width="125" height="130" viewBox="0 0 125 130"><path fill="#8FE4F7" d="M121 36.1h-2c-.3 0-.5-.2-.5-.5s.2-.5.5-.5h2c.3 0 .5.2.5.5s-.2.5-.5.5zm-3.9 0h-2c-.3 0-.5-.2-.5-.5s.2-.5.5-.5h2c.3 0 .5.2.5.5s-.3.5-.5.5zm-4 0h-2c-.3 0-.5-.2-.5-.5s.2-.5.5-.5h2c.3 0 .5.2.5.5s-.2.5-.5.5zm-3.9 0h-2c-.3 0-.5-.2-.5-.5s.2-.5.5-.5h2c.3 0 .5.2.5.5s-.3.5-.5.5zm-4 0h-2c-.3 0-.5-.2-.5-.5s.2-.5.5-.5h2c.3 0 .5.2.5.5s-.2.5-.5.5zm-3.9 0h-2c-.3 0-.5-.2-.5-.5s.2-.5.5-.5h2c.3 0 .5.2.5.5s-.2.5-.5.5zm-4 0h-2c-.3 0-.5-.2-.5-.5s.2-.5.5-.5h2c.3 0 .5.2.5.5s-.2.5-.5.5zm-3.9 0h-2c-.3 0-.5-.2-.5-.5s.2-.5.5-.5h2c.3 0 .5.2.5.5s-.2.5-.5.5zm-4 0h-2c-.3 0-.5-.2-.5-.5s.2-.5.5-.5h2c.3 0 .5.2.5.5s-.2.5-.5.5zm-3.9 0h-2c-.3 0-.5-.2-.5-.5s.2-.5.5-.5h2c.3 0 .5.2.5.5s-.2.5-.5.5zm-4 0h-2c-.3 0-.5-.2-.5-.5s.2-.5.5-.5h2c.3 0 .5.2.5.5s-.2.5-.5.5zm-3.9 0h-2c-.3 0-.5-.2-.5-.5s.2-.5.5-.5h2c.3 0 .5.2.5.5s-.2.5-.5.5zm-4 0h-2c-.3 0-.5-.2-.5-.5s.2-.5.5-.5h2c.3 0 .5.2.5.5s-.2.5-.5.5zm-3.9 0h-2c-.3 0-.5-.2-.5-.5s.2-.5.5-.5h2c.3 0 .5.2.5.5s-.2.5-.5.5zm-4 0h-2c-.3 0-.5-.2-.5-.5s.2-.5.5-.5h2c.3 0 .5.2.5.5s-.2.5-.5.5zm-3.9 0h-2c-.3 0-.5-.2-.5-.5s.2-.5.5-.5h2c.3 0 .5.2.5.5s-.2.5-.5.5zm-4 0h-2c-.3 0-.5-.2-.5-.5s.2-.5.5-.5h2c.3 0 .5.2.5.5s-.2.5-.5.5zm-3.9 0h-2c-.3 0-.5-.2-.5-.5s.2-.5.5-.5h2c.3 0 .5.2.5.5s-.2.5-.5.5zm-4 0h-2c-.3 0-.5-.2-.5-.5s.2-.5.5-.5h2c.3 0 .5.2.5.5s-.2.5-.5.5zm-3.9 0h-2c-.3 0-.5-.2-.5-.5s.2-.5.5-.5h2c.3 0 .5.2.5.5s-.2.5-.5.5zm-4 0h-2c-.3 0-.5-.2-.5-.5s.2-.5.5-.5h2c.3 0 .5.2.5.5s-.2.5-.5.5zm-3.9 0h-2c-.3 0-.5-.2-.5-.5s.2-.5.5-.5h2c.3 0 .5.2.5.5s-.2.5-.5.5zm-4 0h-2c-.3 0-.5-.2-.5-.5s.2-.5.5-.5h2c.3 0 .5.2.5.5s-.2.5-.5.5zm-3.9 0h-2c-.3 0-.5-.2-.5-.5s.2-.5.5-.5h2c.3 0 .5.2.5.5s-.2.5-.5.5zm-4 0h-2c-.3 0-.5-.2-.5-.5s.2-.5.5-.5h2c.3 0 .5.2.5.5s-.2.5-.5.5zm-3.9 0h-2c-.3 0-.5-.2-.5-.5s.2-.5.5-.5h2c.3 0 .5.2.5.5s-.2.5-.5.5zm-4 0h-2c-.3 0-.5-.2-.5-.5s.2-.5.5-.5h2c.3 0 .5.2.5.5s-.2.5-.5.5zm-3.9 0h-2c-.3 0-.5-.2-.5-.5s.2-.5.5-.5h2c.3 0 .5.2.5.5s-.2.5-.5.5zm-3.9 0h-2c-.3 0-.5-.2-.5-.5s.2-.5.5-.5h2c.3 0 .5.2.5.5s-.3.5-.5.5zm-4 0h-2c-.3 0-.5-.2-.5-.5s.2-.5.5-.5h2c.3 0 .5.2.5.5s-.2.5-.5.5zm-3.9-.3c-.1 0-.1 0-.2 0-.7-.3-1.3-.8-1.7-1.5-.1-.2-.1-.5.2-.7.2-.1.5-.1.7.2.3.5.7.9 1.2 1.1.3.1.4.4.2.6 0 .2-.2.3-.4.3zm120.3-.3c-.2 0-.3-.1-.4-.2-.2-.2-.1-.5.1-.7.5-.3.8-.8 1-1.3.1-.3.4-.4.6-.3.3.1.4.4.3.6-.3.7-.8 1.3-1.4 1.8 0 .1-.1.1-.2.1zM.7 32.6c-.3 0-.5-.2-.5-.5v-2c0-.3.2-.5.5-.5s.5.2.5.5v2c0 .3-.2.5-.5.5zm123.6-.6c-.3 0-.5-.2-.5-.5v-2c0-.3.2-.5.5-.5s.5.2.5.5v2c0 .3-.2.5-.5.5zM.7 28.7c-.3 0-.5-.2-.5-.5v-2c0-.3.2-.5.5-.5s.5.2.5.5v2c0 .2-.2.5-.5.5zm123.6-.6c-.3 0-.5-.2-.5-.5v-2c0-.3.2-.5.5-.5s.5.2.5.5v2c0 .3-.2.5-.5.5zM.7 24.7c-.3 0-.5-.2-.5-.5v-2c0-.3.2-.5.5-.5s.5.2.5.5v2c0 .3-.2.5-.5.5zm123.6-.5c-.3 0-.5-.2-.5-.5v-2c0-.3.2-.5.5-.5s.5.2.5.5v2c0 .2-.2.5-.5.5zM.7 20.8c-.3 0-.5-.2-.5-.5v-2c0-.3.2-.5.5-.5s.5.2.5.5v2c0 .2-.2.5-.5.5zm123.6-.6c-.3 0-.5-.2-.5-.5v-2c0-.3.2-.5.5-.5s.5.2.5.5v2c0 .3-.2.5-.5.5zM.7 16.8c-.3 0-.5-.2-.5-.5v-2c0-.3.2-.5.5-.5s.5.2.5.5v2c0 .3-.2.5-.5.5zm123.6-.5c-.3 0-.5-.2-.5-.5v-2c0-.3.2-.5.5-.5s.5.2.5.5v2c0 .2-.2.5-.5.5zM.7 12.9c-.3 0-.5-.2-.5-.5v-2c0-.3.2-.5.5-.5s.5.2.5.5v2c0 .2-.2.5-.5.5zm123.6-.6c-.3 0-.5-.2-.5-.5v-2c0-.3.2-.5.5-.5s.5.2.5.5v2c0 .3-.2.5-.5.5zM.7 8.9c-.3 0-.5-.2-.5-.5v-2c0-.3.2-.5.5-.5s.5.2.5.5v2c0 .3-.2.5-.5.5zm123.6-.5c-.3 0-.5-.2-.5-.5V6.2c0-.1 0-.2 0-.3 0-.3.2-.5.4-.5.3 0 .5.2.5.4 0 .1 0 .3 0 .4v1.6c.1.3-.1.6-.4.6zM1.1 5S1 5 .9 5c-.2-.2-.3-.5-.2-.7.4-.7 1-1.2 1.7-1.5.2-.1.5 0 .6.2.1.2 0 .5-.2.7-.5.2-.9.6-1.2 1.1-.1.2-.3.2-.5.2zm122.4-.4c-.1 0-.3-.1-.4-.2-.4-.4-.9-.7-1.4-.9-.2 0-.3-.2-.3-.3-.1.1-.2.2-.4.2h-2c-.3 0-.5-.2-.5-.5s.2-.5.5-.5h2c.2 0 .4.1.5.3.1-.2.3-.2.5-.2.7.2 1.4.6 1.9 1.2.2.2.2.5-.1.7 0 .2-.2.2-.3.2zm-6.4-1.2h-2c-.3 0-.5-.2-.5-.5s.2-.5.5-.5h2c.3 0 .5.2.5.5s-.3.5-.5.5zm-4 0h-2c-.3 0-.5-.2-.5-.5s.2-.5.5-.5h2c.3 0 .5.2.5.5s-.2.5-.5.5zm-3.9 0h-2c-.3 0-.5-.2-.5-.5s.2-.5.5-.5h2c.3 0 .5.2.5.5s-.3.5-.5.5zm-4 0h-2c-.3 0-.5-.2-.5-.5s.2-.5.5-.5h2c.3 0 .5.2.5.5s-.2.5-.5.5zm-3.9 0h-2c-.3 0-.5-.2-.5-.5s.2-.5.5-.5h2c.3 0 .5.2.5.5s-.3.5-.5.5zm-4 0h-2c-.3 0-.5-.2-.5-.5s.2-.5.5-.5h2c.3 0 .5.2.5.5s-.2.5-.5.5zm-3.9 0h-2c-.3 0-.5-.2-.5-.5s.2-.5.5-.5h2c.3 0 .5.2.5.5s-.3.5-.5.5zm-4 0h-2c-.3 0-.5-.2-.5-.5s.2-.5.5-.5h2c.3 0 .5.2.5.5s-.2.5-.5.5zm-3.9 0h-2c-.3 0-.5-.2-.5-.5s.2-.5.5-.5h2c.3 0 .5.2.5.5s-.3.5-.5.5zm-4 0h-2c-.3 0-.5-.2-.5-.5s.2-.5.5-.5h2c.3 0 .5.2.5.5s-.2.5-.5.5zm-3.9 0h-2c-.3 0-.5-.2-.5-.5s.2-.5.5-.5h2c.3 0 .5.2.5.5s-.2.5-.5.5zm-4 0h-2c-.3 0-.5-.2-.5-.5s.2-.5.5-.5h2c.3 0 .5.2.5.5s-.2.5-.5.5zm-3.9 0h-2c-.3 0-.5-.2-.5-.5s.2-.5.5-.5h2c.3 0 .5.2.5.5s-.2.5-.5.5zm-4 0h-2c-.3 0-.5-.2-.5-.5s.2-.5.5-.5h2c.3 0 .5.2.5.5s-.2.5-.5.5zm-3.9 0h-2c-.3 0-.5-.2-.5-.5s.2-.5.5-.5h2c.3 0 .5.2.5.5s-.2.5-.5.5zm-4 0h-2c-.3 0-.5-.2-.5-.5s.2-.5.5-.5h2c.3 0 .5.2.5.5s-.2.5-.5.5zm-3.9 0h-2c-.3 0-.5-.2-.5-.5s.2-.5.5-.5h2c.3 0 .5.2.5.5s-.2.5-.5.5zm-4 0h-2c-.3 0-.5-.2-.5-.5s.2-.5.5-.5h2c.3 0 .5.2.5.5s-.2.5-.5.5zm-3.9 0h-2c-.3 0-.5-.2-.5-.5s.2-.5.5-.5h2c.3 0 .5.2.5.5s-.2.5-.5.5zm-4 0h-2c-.3 0-.5-.2-.5-.5s.2-.5.5-.5h2c.3 0 .5.2.5.5s-.2.5-.5.5zm-3.9 0h-2c-.3 0-.5-.2-.5-.5s.2-.5.5-.5h2c.3 0 .5.2.5.5s-.2.5-.5.5zm-4 0h-2c-.3 0-.5-.2-.5-.5s.2-.5.5-.5h2c.3 0 .5.2.5.5s-.2.5-.5.5zm-3.9 0h-2c-.3 0-.5-.2-.5-.5s.2-.5.5-.5h2c.3 0 .5.2.5.5s-.2.5-.5.5zm-4 0h-2c-.3 0-.5-.2-.5-.5s.2-.5.5-.5h2c.3 0 .5.2.5.5s-.2.5-.5.5zm-3.9 0h-2c-.3 0-.5-.2-.5-.5s.2-.5.5-.5h2c.3 0 .5.2.5.5s-.2.5-.5.5zm-4 0h-2c-.3 0-.5-.2-.5-.5s.2-.5.5-.5h2c.3 0 .5.2.5.5s-.2.5-.5.5zm-3.9 0h-2c-.3 0-.5-.2-.5-.5s.2-.5.5-.5h2c.3 0 .5.2.5.5s-.2.5-.5.5zm-4 0h-2c-.2 0-.4-.2-.4-.5s.2-.5.5-.5h2c.3 0 .5.2.5.5s-.3.5-.6.5zm-3.9 0h-2c-.3 0-.5-.2-.5-.5s.2-.5.5-.5h2c.3 0 .5.3.5.5s-.2.5-.5.5z"/><path fill="#3089E2" d="M14.7 14.8c-.1-.2-.2-.4-.3-.6-1-2.4-3.2-3.3-5-3.3-2.4 0-5.1 1.6-5.4 4.9v.7s0 .3 0 .4c.2 1.6 1.4 3.3 2.4 4.8 1 1.7 2 3.4 3.1 5 .6-1.1 1.3-2.2 1.9-3.3.2-.3.4-.6.5-.9.1-.2.3-.4.4-.6 1-1.8 2.6-3.7 2.6-5.5v-.7c.1-.2-.2-.9-.2-.9zm-5.2 3.4c-.7 0-1.5-.4-1.9-1.3-.1-.2-.1-.5-.1-.5V16c0-1.2 1.1-1.8 2-1.8 1.1 0 2 .9 2 2s-.9 2-2 2z"/><g fill="#808080"><path d="M19.4 10.9v6.3h3.8v.6h-4.5V11h.7zM26.7 12.9c.3.1.5.3.7.6.2.2.3.5.4.8.1.3.2.6.2 1s-.1.7-.2 1c-.1.3-.3.6-.4.8-.2.2-.4.4-.7.6-.3.1-.6.2-1 .2s-.7-.1-1-.2c-.3-.1-.5-.3-.7-.6-.2-.2-.3-.5-.4-.8-.1-.3-.2-.6-.2-1s.1-.7.2-1c.1-.3.3-.6.4-.8.2-.2.4-.4.7-.6.3-.1.6-.2 1-.2.3 0 .7.1 1 .2zm-1.8.5c-.2.1-.4.3-.5.5-.1.2-.3.4-.3.7-.1.3-.1.5-.1.8 0 .3 0 .5.1.8.1.3.2.5.3.7.1.2.3.4.5.5.2.1.5.2.8.2.3 0 .5-.1.8-.2.2-.1.4-.3.5-.5.1-.2.3-.4.3-.7.1-.3.1-.5.1-.8 0-.3 0-.5-.1-.8-.1-.3-.2-.5-.3-.7-.1-.2-.3-.4-.5-.5-.2-.1-.5-.2-.8-.2-.3 0-.6.1-.8.2zM29.3 12.8v.8c.1-.3.3-.5.6-.7.3-.2.6-.3 1-.3.3 0 .6 0 .9.1.2.1.4.2.6.4.1.2.2.4.3.6.1.2.1.5.1.8v3.2h-.6v-3.1c0-.2 0-.4-.1-.6 0-.2-.1-.3-.2-.5-.1-.1-.2-.2-.4-.3-.2-.1-.4-.1-.6-.1-.2 0-.5 0-.6.1-.2.1-.3.2-.5.4-.1.1-.2.3-.3.5-.1.2-.1.4-.1.7v2.9h-.6v-4.9h.5zM37.4 17.7v-.9c-.1.2-.2.3-.3.4-.1.1-.3.2-.4.3-.2.1-.3.2-.5.2-.2.1-.4.1-.5.1-.4 0-.7-.1-1-.2-.3-.1-.5-.3-.7-.6-.2-.2-.3-.5-.4-.8-.1-.3-.1-.6-.1-1 0-.3 0-.7.1-1 .1-.3.2-.6.4-.8.2-.2.4-.4.7-.6.3-.1.6-.2 1-.2.2 0 .4 0 .5.1.2 0 .3.1.5.2s.3.2.4.3c.1.1.2.3.3.5v-2.8h.6v6.8h-.6zM34.1 16c.1.3.2.5.3.7s.3.4.5.5c.2.1.4.2.7.2.3 0 .6-.1.8-.2.2-.1.4-.3.5-.5.1-.2.2-.4.3-.7.1-.3.1-.5.1-.8 0-.3 0-.5-.1-.8-.1-.3-.2-.5-.3-.7-.1-.2-.3-.4-.5-.5-.2-.1-.5-.2-.8-.2-.3 0-.5.1-.7.2-.2.1-.4.3-.5.5-.1.2-.2.4-.3.7s-.1.6-.1.9c0 .2 0 .5.1.7zM42 12.9c.3.1.5.3.7.6.2.2.3.5.4.8.1.3.2.6.2 1s-.1.7-.2 1c-.1.3-.3.6-.4.8-.2.2-.4.4-.7.6-.3.1-.6.2-1 .2s-.7-.1-1-.2c-.3-.1-.5-.3-.7-.6-.2-.2-.3-.5-.4-.8-.1-.3-.2-.6-.2-1s.1-.7.2-1c.1-.3.3-.6.4-.8.2-.2.4-.4.7-.6.3-.1.6-.2 1-.2s.7.1 1 .2zm-1.8.5c-.2.1-.4.3-.5.5-.1.2-.3.4-.3.7-.1.3-.1.5-.1.8 0 .3 0 .5.1.8.1.3.2.5.3.7.1.2.3.4.5.5.2.1.5.2.8.2s.5-.1.8-.2c.2-.1.4-.3.5-.5.1-.2.3-.4.3-.7.1-.3.1-.5.1-.8 0-.3 0-.5-.1-.8-.1-.3-.2-.5-.3-.7-.1-.2-.3-.4-.5-.5-.2-.1-.5-.2-.8-.2s-.6.1-.8.2zM44.6 12.8v.8c.1-.3.3-.5.6-.7.3-.2.6-.3 1-.3.3 0 .6 0 .9.1.2.1.4.2.6.4.1.2.2.4.3.6.1.2.1.5.1.8v3.2h-.6v-3.1c0-.2 0-.4-.1-.6 0-.2-.1-.3-.2-.5-.1-.1-.2-.2-.4-.3-.2-.1-.4-.1-.6-.1-.2 0-.5 0-.6.1-.2.1-.3.2-.5.4-.1.1-.2.3-.3.5-.1.2-.1.4-.1.7v2.9H44v-4.9h.6zM50 12.3c.2 0 .4-.1.6-.2.2-.1.3-.2.4-.4.1-.2.2-.4.2-.7h.5v6.7H51v-5h-1.8v-.4c.3.1.6 0 .8 0zM54.5 16.5c.1.2.2.4.3.5.1.1.3.2.5.3.2.1.4.1.6.1.3 0 .5 0 .7-.1s.4-.2.5-.4c.1-.2.3-.4.3-.6.1-.2.1-.4.1-.7 0-.2 0-.5-.1-.7-.1-.2-.2-.4-.4-.5s-.3-.3-.5-.4c-.2-.1-.4-.1-.7-.1-.3 0-.6.1-.8.2-.3.1-.5.3-.6.6H54l.6-3.5H58v.6h-2.9l-.4 2.2c.2-.2.4-.3.6-.5s.5-.2.8-.2c.3 0 .7.1.9.2.3.1.5.3.7.5.2.2.3.4.4.7.1.3.2.6.2.9 0 .3-.1.6-.2.9s-.3.5-.5.7c-.2.2-.5.4-.7.5-.3.1-.6.2-.9.2-.3 0-.6 0-.9-.1-.3-.1-.5-.2-.7-.4s-.3-.4-.4-.7c-.1-.3-.2-.5-.2-.9h.6c0 .3 0 .5.1.7zM62.4 11.3c.3.2.5.5.7.8.2.3.3.7.3 1.1.1.4.1.8.1 1.2 0 .4 0 .8-.1 1.2-.1.4-.2.8-.3 1.1-.2.3-.4.6-.7.8-.3.2-.7.3-1.2.3s-.9-.1-1.2-.3c-.3-.2-.5-.5-.7-.8-.2-.3-.3-.7-.3-1.1-.1-.4-.1-.8-.1-1.2 0-.4 0-.8.1-1.2.1-.4.2-.8.3-1.1.2-.3.4-.6.7-.8.3-.2.7-.3 1.2-.3s.9.1 1.2.3zm-2.1.5c-.2.2-.4.4-.5.7-.1.3-.2.6-.2 1 0 .3-.1.7-.1.9 0 .3 0 .6.1.9 0 .3.1.7.2 1s.3.5.5.7c.2.2.5.3.9.3s.7-.1.9-.3c.2-.2.4-.4.5-.7.1-.3.2-.6.2-1 0-.3.1-.7.1-.9 0-.3 0-.6-.1-.9 0-.3-.1-.7-.2-1-.1-.3-.3-.5-.5-.7-.2-.2-.5-.3-.9-.3s-.7.1-.9.3zM66.6 13c.1-.4.3-.8.6-1.1.3-.3.6-.6 1-.8.4-.2.9-.3 1.4-.3.5 0 1 .1 1.4.3.4.2.7.5 1 .8.3.3.5.7.6 1.1.1.4.2.9.2 1.3 0 .5-.1.9-.2 1.3s-.3.8-.6 1.1-.6.6-1 .8c-.4.2-.9.3-1.4.3-.5 0-1-.1-1.4-.3-.4-.2-.7-.5-1-.8s-.5-.7-.6-1.1c-.1-.4-.2-.9-.2-1.3s.1-.9.2-1.3zm.6 2.4c.1.4.3.7.5 1 .2.3.5.5.8.7.3.2.7.3 1.2.3s.8-.1 1.2-.3c.3-.2.6-.4.8-.7.2-.3.4-.6.5-1 .1-.4.1-.7.1-1.1 0-.4 0-.7-.1-1.1-.1-.4-.3-.7-.5-1-.2-.3-.5-.5-.8-.7-.3-.2-.7-.3-1.2-.3s-.8.1-1.2.3c-.3.2-.6.4-.8.7s-.4.6-.5 1c-.1.4-.1.7-.1 1.1 0 .4 0 .8.1 1.1zM74.1 10.9v6.8h-.6v-6.8h.6zM78.9 17.7v-.9c-.1.2-.2.3-.3.4-.1.1-.3.2-.4.3-.2.1-.3.2-.5.2-.2.1-.4.1-.5.1-.4 0-.7-.1-1-.2-.3-.1-.5-.3-.7-.6-.2-.2-.3-.5-.4-.8-.1-.3-.1-.6-.1-1 0-.3 0-.7.1-1 .1-.3.2-.6.4-.8.2-.2.4-.4.7-.6.3-.1.6-.2 1-.2.2 0 .4 0 .5.1.2 0 .3.1.5.2s.3.2.4.3.2.3.3.5v-2.8h.6v6.8h-.6zM75.6 16c.1.3.2.5.3.7s.3.4.5.5c.2.1.4.2.7.2.3 0 .6-.1.8-.2.2-.1.4-.3.5-.5.1-.2.2-.4.3-.7.1-.3.1-.5.1-.8 0-.3 0-.5-.1-.8s-.2-.5-.3-.7c-.1-.2-.3-.4-.5-.5-.2-.1-.5-.2-.8-.2-.3 0-.5.1-.7.2-.2.1-.4.3-.5.5-.1.2-.2.4-.3.7s-.1.5-.1.8c0 .3 0 .6.1.8zM86 10.9c.3 0 .6 0 .8.1.2.1.5.2.6.4.2.2.3.4.4.6.1.2.1.5.1.8 0 .3 0 .6-.1.8-.1.2-.2.4-.4.6-.2.2-.4.3-.6.4-.2.1-.5.1-.8.1h-2.4v2.9H83v-6.8h3zm-.2 3.4c.5 0 .8-.1 1.1-.3.3-.2.4-.6.4-1s-.1-.8-.4-1c-.3-.2-.6-.3-1.1-.3h-2.2v2.8h2.2zM88.8 13.6c.1-.2.2-.4.4-.5.2-.1.4-.2.6-.3.2-.1.5-.1.8-.1.2 0 .4 0 .6.1.2 0 .4.1.6.2.2.1.3.3.4.5.1.2.2.5.2.8v2.6c0 .2.1.4.4.4.1 0 .1 0 .2 0v.5c-.1 0-.1 0-.2 0s-.1 0-.2 0c-.2 0-.3 0-.4-.1-.1 0-.2-.1-.2-.2-.1-.1-.1-.2-.1-.3 0-.1 0-.2 0-.3-.1.2-.2.3-.3.4-.1.1-.2.2-.4.3-.1.1-.3.1-.5.2-.2 0-.4.1-.6.1-.2 0-.4 0-.6-.1-.2-.1-.4-.1-.5-.3-.1-.1-.3-.3-.4-.4-.1-.2-.1-.4-.1-.6 0-.3.1-.6.2-.8s.4-.3.6-.4c.3-.1.5-.2.8-.2.3 0 .6-.1 1-.1.1 0 .2 0 .3 0 .1 0 .2-.1.2-.1.1 0 .1-.1.1-.2s.1-.2.1-.3c0-.2 0-.4-.1-.5-.1-.1-.2-.2-.3-.3-.1-.1-.3-.1-.4-.2-.2 0-.3 0-.5 0-.4 0-.7.1-.9.3-.2.2-.4.5-.4.9h-.6c0-.6.1-.8.2-1zm3 1.5c0 .1-.1.1-.2.2s-.2.1-.3.1c-.3 0-.5.1-.8.1-.3 0-.5.1-.7.2-.2.1-.4.2-.5.3-.3 0-.3.2-.3.4s0 .3.1.4c.1.1.1.2.2.3.1.1.2.2.4.2.1 0 .3.1.4.1.2 0 .4 0 .7-.1.2-.1.4-.2.5-.3.2-.1.3-.3.4-.5.1-.2.1-.4.1-.6v-.8zM93.9 12.8V14c.2-.4.4-.7.7-.9.3-.2.7-.3 1.1-.3v.6c-.3 0-.5 0-.7.1s-.4.2-.6.4-.3.3-.4.6 0 .4 0 .6v2.6h-.6v-4.9h.5zM96.8 10.9v4.3l2.7-2.4h.8l-2.1 1.8 2.2 3.1h-.8L97.7 15l-1 .8v1.9h-.6v-6.8h.7zM104 10.9v6.3h3.8v.6h-4.5V11h.7zM108.3 13.6c.1-.2.2-.4.4-.5.2-.1.4-.2.6-.3s.5-.1.8-.1c.2 0 .4 0 .6.1.2 0 .4.1.6.2.2.1.3.3.4.5.1.2.2.5.2.8v2.6c0 .2.1.4.4.4.1 0 .1 0 .2 0v.5c-.1 0-.1 0-.2 0s-.1 0-.2 0c-.2 0-.3 0-.4-.1-.1 0-.2-.1-.2-.2-.1-.1-.1-.2-.1-.3 0-.1 0-.2 0-.3-.1.2-.2.3-.3.4-.1.1-.2.2-.4.3-.1.1-.3.1-.5.2-.2 0-.4.1-.6.1-.2 0-.4 0-.6-.1-.2-.1-.4-.1-.5-.3-.1-.1-.3-.3-.4-.4-.1-.2-.1-.4-.1-.6 0-.3.1-.6.2-.8s.4-.3.6-.4c.3-.1.5-.2.8-.2.3 0 .6-.1 1-.1.1 0 .2 0 .3 0 .1 0 .2-.1.2-.1.1 0 .1-.1.1-.2s.1-.2.1-.3c0-.2 0-.4-.1-.5-.1-.1-.2-.2-.3-.3s-.3-.1-.4-.2c-.2 0-.3 0-.5 0-.4 0-.7.1-.9.3-.2.2-.4.5-.4.9h-.6c0-.6.1-.8.2-1zm3 1.5c0 .1-.1.1-.2.2s-.2.1-.3.1c-.3 0-.5.1-.8.1-.3 0-.5.1-.7.2-.2.1-.4.2-.5.3-.1.1-.2.3-.2.6 0 .2 0 .3.1.4.1.1.1.2.2.3.1.1.2.2.4.2.1 0 .3.1.4.1.2 0 .4 0 .7-.1.2-.1.4-.2.5-.3.2-.1.3-.3.4-.5.1-.2.1-.4.1-.6l-.1-1zM113.5 12.8v.8c.1-.3.3-.5.6-.7.3-.2.6-.3 1-.3.3 0 .6 0 .9.1.2.1.4.2.6.4.1.2.2.4.3.6.1.2.1.5.1.8v3.2h-.6v-3.1c0-.2 0-.4-.1-.6 0-.2-.1-.3-.2-.5-.1-.1-.2-.2-.4-.3-.2-.1-.4-.1-.6-.1-.2 0-.5 0-.6.1-.2.1-.3.2-.5.4-.1.1-.2.3-.3.5-.1.2-.1.4-.1.7v2.9h-.6v-4.9h.5zM118.2 16.1c.1.2.2.4.3.6.1.2.3.3.5.5.2.1.4.2.7.2.4 0 .8-.1 1-.3.2-.2.4-.5.5-.9h.6c-.1.6-.4 1-.7 1.3-.3.3-.8.5-1.4.5-.4 0-.7-.1-1-.2-.3-.1-.5-.3-.7-.6-.2-.2-.3-.5-.4-.8-.1-.3-.1-.6-.1-1 0-.3 0-.6.1-1 .1-.3.2-.6.4-.8.2-.2.4-.4.7-.6.3-.1.6-.2 1-.2s.7.1 1 .2c.3.2.5.4.7.6.2.3.3.6.4.9.1.3.1.7.1 1h-3.8c.1.2.1.4.1.6zm3-1.8c-.1-.2-.2-.4-.3-.6-.1-.2-.3-.3-.5-.4-.2-.1-.4-.1-.6-.1-.2 0-.5 0-.7.1-.2.1-.4.2-.5.4-.1.2-.2.3-.3.6-.1.2-.1.4-.2.7h3.2c0-.3 0-.5-.1-.7zM19.4 22.4v4.2c0 .4 0 .7.1 1 .1.3.2.5.4.7.2.2.4.3.6.4.2.1.5.1.8.1.3 0 .6 0 .8-.1.2-.1.5-.2.6-.4.2-.2.3-.4.4-.7.1-.3.1-.6.1-1v-4.2h.8v4.4c0 .3 0 .7-.1 1-.1.3-.3.6-.5.8s-.5.4-.8.6c-.3.1-.7.2-1.2.2s-.9-.1-1.2-.2c-.3-.1-.6-.3-.8-.6s-.4-.5-.5-.8c-.1-.3-.1-.6-.1-1v-4.4h.6zM25.6 24.3v.8c.1-.3.3-.5.6-.7.3-.2.6-.3 1-.3.3 0 .6 0 .9.1.2.1.4.2.6.4.1.2.2.4.3.6s0 .5 0 .8v3.2h-.6v-3.1c0-.2 0-.4-.1-.6 0-.2-.1-.3-.2-.5-.1-.1-.2-.2-.4-.3-.2-.1-.4-.1-.6-.1-.2 0-.5 0-.6.1-.2.1-.3.2-.5.4-.1.1-.2.3-.3.5-.1.2-.1.4-.1.7v2.9H25v-4.9h.6zM30.5 22.4v1h-.6v-1h.6zm0 1.9v4.9h-.6v-4.9h.6zM33.4 24.3v.5h-1v3.3c0 .2 0 .4.1.5s.2.2.4.2.3 0 .5 0v.5c-.1 0-.2 0-.3 0-.1 0-.2 0-.3 0-.4 0-.7-.1-.8-.2-.2-.2-.2-.4-.2-.9v-3.4H31v-.5h.9v-1.5h.6v1.5h.9zM34.6 27.6c.1.2.2.4.3.6.1.2.3.3.5.5.2.1.4.2.7.2.4 0 .8-.1 1-.3.2-.2.4-.5.5-.9h.6c-.1.6-.4 1-.7 1.3-.3.3-.8.5-1.4.5-.4 0-.7-.1-1-.2-.3-.1-.5-.3-.7-.6-.2-.2-.3-.5-.4-.8-.1-.3-.1-.6-.1-1 0-.3 0-.6.1-1 .1-.3.2-.6.4-.8.2-.2.4-.4.7-.6.3-.1.6-.2 1-.2s.7.1 1 .2c.3.2.5.4.7.6.2.3.3.6.4.9.1.3.1.7.1 1h-3.8c0 .1 0 .3.1.6zm2.9-1.9c-.1-.2-.2-.4-.3-.6-.1-.2-.3-.3-.5-.4-.2-.1-.4-.1-.6-.1-.2 0-.5 0-.7.1-.2.1-.4.2-.5.4-.1.2-.2.3-.3.6-.1.2-.1.4-.2.7h3.2c0-.2 0-.5-.1-.7zM42.6 29.2v-.9c-.1.2-.2.3-.3.4-.1.1-.3.2-.4.3-.2.1-.3.2-.5.2-.2.1-.4.1-.5.1-.4 0-.7-.1-1-.2-.3-.1-.5-.3-.7-.6-.2-.2-.3-.5-.4-.8-.1-.3-.1-.6-.1-1 0-.3 0-.7.1-1 .1-.3.2-.6.4-.8.2-.2.4-.4.7-.6s.6-.2 1-.2c.2 0 .4 0 .5.1.2 0 .3.1.5.2s.3.2.4.3c.1.1.2.3.3.5v-2.8h.6v6.8h-.6zm-3.3-1.7c.1.3.2.5.3.7.1.2.3.4.5.5.2.1.4.2.7.2.3 0 .6-.1.8-.2.2-.1.4-.3.5-.5.1-.2.2-.4.3-.7.1-.3.1-.5.1-.8s0-.5-.1-.8c-.1-.3-.2-.5-.3-.7-.1-.2-.3-.4-.5-.5-.2-.1-.5-.2-.8-.2-.3 0-.5.1-.7.2-.2.1-.4.3-.5.5-.1.2-.2.4-.3.7-.1.3-.1.5-.1.8s.1.5.1.8zM47.3 22.4V26l4-3.7h.9l-3 2.8 3.2 4h-.8l-2.8-3.5-1.3 1.2v2.3h-.6v-6.8h.4zM53.2 22.4v1h-.6v-1h.6zm0 1.9v4.9h-.6v-4.9h.6zM54.7 24.3v.8c.1-.3.3-.5.6-.7.3-.2.6-.3 1-.3.3 0 .6 0 .9.1.2.1.4.2.6.4.1.2.2.4.3.6.1.2.1.5.1.8v3.2h-.6v-3.1c0-.2 0-.4-.1-.6 0-.2-.1-.3-.2-.5-.1-.1-.2-.2-.4-.3-.2-.1-.4-.1-.6-.1-.2 0-.5 0-.6.1-.2.1-.3.2-.5.4-.1.1-.2.3-.3.5-.1.2-.1.4-.1.7v2.9h-.6v-4.9h.5zM63.1 29.8c-.1.3-.2.5-.4.7-.2.2-.4.4-.7.5-.3.1-.6.2-1 .2-.2 0-.5 0-.7-.1-.2-.1-.4-.1-.6-.3-.2-.1-.3-.3-.5-.5-.1-.2-.2-.4-.2-.7h.6c0 .2.1.3.2.5.1.1.2.2.3.3.1.1.3.1.4.2.2 0 .3.1.5.1.6 0 1-.2 1.2-.5.2-.3.4-.8.4-1.4v-.7c-.1.3-.3.5-.6.7-.3.2-.6.3-.9.3-.4 0-.7-.1-1-.2-.3-.1-.5-.3-.7-.5-.2-.2-.3-.5-.4-.8-.1-.3-.1-.6-.1-1 0-.3 0-.7.1-1 .1-.3.2-.6.4-.8.2-.2.4-.4.7-.5.3-.1.6-.2.9-.2.2 0 .4 0 .5.1.2.1.3.1.4.2.1.1.3.2.4.3.1.1.2.2.2.4v-.8h.6v4.5c.1.4.1.7 0 1zm-1.4-1.3c.2-.1.4-.3.5-.4.1-.2.2-.4.3-.6.1-.2.1-.5.1-.7 0-.2 0-.5-.1-.7-.1-.2-.1-.5-.3-.7-.1-.2-.3-.4-.5-.5-.2-.1-.4-.2-.7-.2s-.5.1-.7.2c-.2.1-.4.3-.5.5-.1.2-.2.4-.3.7-.1.2-.1.5-.1.7 0 .2 0 .5.1.7.1.2.2.4.3.6.1.2.3.3.5.4s.4.2.7.2c.3-.1.5-.1.7-.2zM67.9 29.2v-.9c-.1.2-.2.3-.3.4-.1.1-.3.2-.4.3-.2.1-.3.2-.5.2-.2.1-.4.1-.5.1-.4 0-.7-.1-1-.2-.3-.1-.5-.3-.7-.6-.2-.2-.3-.5-.4-.8-.1-.3-.1-.6-.1-1 0-.3 0-.7.1-1 .1-.3.2-.6.4-.8.2-.2.4-.4.7-.6.3-.1.6-.2 1-.2.2 0 .4 0 .5.1.2 0 .3.1.5.2s.3.2.4.3c.1.1.2.3.3.5v-2.8h.6v6.8h-.6zm-3.3-1.7c.1.3.2.5.3.7.1.2.3.4.5.5.2.1.4.2.7.2.3 0 .6-.1.8-.2.2-.1.4-.3.5-.5.1-.2.2-.4.3-.7.1-.3.1-.5.1-.8s0-.5-.1-.8c-.1-.3-.2-.5-.3-.7-.1-.2-.3-.4-.5-.5-.2-.1-.5-.2-.8-.2-.3 0-.5.1-.7.2-.2.1-.4.3-.5.5-.1.2-.2.4-.3.7-.1.3-.1.5-.1.8s.1.5.1.8zM72.5 24.3c.3.1.5.3.7.6.2.2.3.5.4.8.1.3.2.6.2 1s-.1.7-.2 1c-.1.3-.3.6-.4.8-.2.2-.4.4-.7.6-.3.1-.6.2-1 .2s-.7-.1-1-.2c-.3-.1-.5-.3-.7-.6-.2-.2-.3-.5-.4-.8-.1-.3-.2-.6-.2-1s.1-.7.2-1c.1-.3.3-.6.4-.8.2-.2.4-.4.7-.6.3-.1.6-.2 1-.2s.7.1 1 .2zm-1.7.5c-.2.1-.4.3-.5.5-.1.2-.3.4-.3.7-.1.3-.1.5-.1.8 0 .3 0 .5.1.8.1.3.2.5.3.7.1.2.3.4.5.5.2.1.5.2.8.2.3 0 .5-.1.8-.2.2-.1.4-.3.5-.5.1-.2.3-.4.3-.7.1-.3.1-.5.1-.8 0-.3 0-.5-.1-.8-.1-.3-.2-.5-.3-.7-.1-.2-.3-.4-.5-.5-.2-.1-.5-.2-.8-.2-.4 0-.6.1-.8.2zM75.1 24.3v.8c.2-.3.4-.5.6-.7s.6-.3 1-.3c.3 0 .6.1.9.2.3.2.4.4.5.7.1-.3.4-.6.6-.7.3-.2.6-.2.9-.2 1.1 0 1.6.6 1.6 1.7v3.3h-.6v-3.3c0-.4-.1-.7-.3-.9-.2-.2-.5-.3-.9-.3-.3 0-.5 0-.6.1-.2.1-.3.2-.4.4-.1.2-.2.4-.2.6 0 .2-.1.4-.1.7v2.8h-.6v-3.3c0-.2 0-.3-.1-.5s-.1-.3-.2-.4c-.1-.1-.2-.2-.3-.3-.1-.1-.3-.1-.5-.1-.3 0-.5 0-.7.1-.2.1-.3.2-.5.4s-.2.4-.3.6c-.1.2-.1.5-.1.7v2.7h-.6v-4.9h.9z"/></g><path fill="#22D2EF" d="M121 48.9H4c-1.8 0-3.3 1.5-3.3 3.3v18.9c0 1.8 1.5 3.3 3.3 3.3h117c1.8 0 3.3-1.5 3.3-3.3V52.2c0-1.8-1.5-3.3-3.3-3.3z"/><g fill="#fff"><path d="M25.6 68.5c-.3-.4-.5-.8-.7-1.3-.2-.4-.4-.9-.6-1.4-.2-.5-.3-1-.4-1.5-.1-.5-.1-1.1-.1-1.7 0-1 .2-2.1.5-3.1s.8-2 1.4-2.9h1.2c-.5.9-.9 1.9-1.2 2.9-.3 1-.4 2-.4 3.1s.1 2.1.4 3.1c.3 1 .7 1.9 1.2 2.9h-1.3zM29.7 59.5H31v2.6h2.6v1.3H31V66h-1.3v-2.6h-2.6v-1.3h2.6v-2.6zM36 63.8c0 .4.2.7.4.9.2.2.5.3.9.3s.7-.1.9-.3c.2-.2.4-.5.5-.8.1-.3.2-.6.3-1 0-.4.1-.7.1-1-.2.4-.5.6-.8.8-.3.2-.7.3-1.1.3-.4 0-.8-.1-1.2-.2-.3-.1-.6-.3-.9-.6-.2-.3-.4-.6-.6-1-.1-.4-.2-.8-.2-1.3 0-.4.1-.8.2-1.2.1-.4.3-.7.6-1 .3-.3.6-.5 1-.7.4-.2.8-.2 1.3-.2.6 0 1.2.1 1.6.4.4.2.7.6 1 1 .2.4.4.9.5 1.5.1.6.1 1.2.1 1.8 0 .5-.1 1.1-.2 1.6-.1.6-.3 1.1-.6 1.5-.3.5-.6.8-1.1 1.1-.4.3-1 .4-1.6.4-.4 0-.7-.1-1-.2-.3-.1-.6-.3-.8-.5-.2-.2-.4-.5-.6-.8-.2-.3-.2-.6-.3-1H36zm1.4-5.7c-.3 0-.5 0-.7.1-.2.1-.4.2-.5.4-.1.2-.2.4-.3.6-.1.2-.1.5-.1.7 0 .2 0 .5.1.7.1.2.2.4.3.6.1.2.3.3.5.4.2.1.4.2.7.2.3 0 .5-.1.7-.2.2-.1.4-.2.5-.4.1-.2.2-.4.3-.6.1-.2.1-.5.1-.7 0-.2 0-.5-.1-.7-.1-.2-.2-.4-.3-.6-.1-.2-.3-.3-.5-.4-.2-.1-.4-.1-.7-.1zM41.3 57h6.2v1.2c-.5.5-.9 1.1-1.3 1.7-.4.6-.7 1.2-1 1.8-.3.6-.5 1.3-.7 2-.2.7-.3 1.5-.4 2.3h-1.6c.1-.7.2-1.4.4-2.1.2-.7.4-1.4.7-2 .3-.7.7-1.3 1.1-1.9.4-.6.8-1.2 1.3-1.7h-4.7V57zM52.9 59.3c0-.4-.2-.7-.4-.9-.2-.2-.5-.3-.9-.3-.3 0-.5 0-.7.1-.2.1-.4.2-.5.4-.1.2-.2.4-.3.6-.1.2-.1.4-.2.7-.1.2-.1.5-.1.7 0 .2 0 .4-.1.6.2-.4.5-.6.8-.8.3-.2.7-.3 1.1-.3.4 0 .8.1 1.2.2.4.2.7.4.9.6.2.3.4.6.6 1 .1.4.2.8.2 1.2 0 .4-.1.8-.2 1.2-.1.4-.3.7-.6 1-.3.3-.6.5-1 .7-.4.2-.8.2-1.2.2-.7 0-1.2-.1-1.6-.4-.4-.2-.8-.6-1-1-.2-.4-.4-.9-.5-1.5-.1-.6-.1-1.2-.1-1.9 0-.5.1-1.1.2-1.6.1-.6.3-1.1.6-1.5.3-.5.6-.8 1.1-1.1.4-.3 1-.4 1.6-.4.4 0 .7.1 1 .2.3.1.6.3.8.5.2.2.4.5.6.8.2.3.2.6.3 1h-1.6zM51.4 65c.3 0 .5-.1.7-.2.2-.1.4-.2.5-.4.1-.2.2-.4.3-.6.1-.2.1-.5.1-.7 0-.2 0-.5-.1-.7-.1-.2-.2-.4-.3-.6-.1-.2-.3-.3-.5-.4-.2-.1-.4-.2-.7-.2-.3 0-.5 0-.7.1-.2.1-.4.2-.5.4-.1.2-.2.4-.3.6-.1.2-.1.5-.1.7 0 .2 0 .5.1.7s.2.4.3.6c.1.2.3.3.5.4.2.3.5.3.7.3zM55.8 56.6c.3.4.5.8.7 1.3.2.4.4.9.6 1.4.2.5.3 1 .4 1.5.1.5.1 1.1.1 1.7 0 1-.2 2.1-.5 3.1s-.8 2-1.4 2.9h-1.2c.5-.9.9-1.9 1.2-2.8.3-1 .4-2 .4-3.1s-.1-2.1-.4-3.1c-.3-1-.7-1.9-1.2-2.9h1.3zM66.4 59.3c0-.4-.2-.7-.4-.9-.2-.2-.5-.3-.9-.3-.3 0-.5 0-.7.1-.2.1-.4.2-.5.4-.1.2-.2.4-.3.6-.1.2-.1.4-.2.7-.1.2-.1.5-.1.7 0 .2 0 .4-.1.6.2-.4.5-.6.8-.8.3-.2.7-.3 1.1-.3.4 0 .8.1 1.2.2.4.2.7.4.9.6.2.3.4.6.6 1 .1.4.2.8.2 1.2 0 .4-.1.8-.2 1.2-.1.4-.3.7-.6 1-.3.3-.6.5-1 .7-.4.2-.8.2-1.2.2-.7 0-1.2-.1-1.6-.4-.4-.2-.8-.6-1-1-.2-.4-.4-.9-.5-1.5-.1-.6-.1-1.2-.1-1.9 0-.5.1-1.1.2-1.6.1-.6.3-1.1.6-1.5.3-.5.6-.8 1.1-1.1.4-.3 1-.4 1.6-.4.4 0 .7.1 1 .2.3.1.6.3.8.5.2.2.4.5.6.8.2.3.2.6.3 1h-1.6zM65 65c.3 0 .5-.1.7-.2.2-.1.4-.2.5-.4.1-.2.2-.4.3-.6.1-.2.1-.5.1-.7 0-.2 0-.5-.1-.7-.1-.2-.2-.4-.3-.6-.1-.2-.3-.3-.5-.4-.2-.1-.4-.2-.7-.2s-.5 0-.7.1c-.2.1-.4.2-.5.4-.1.2-.2.4-.3.6-.1.2-.1.5-.1.7 0 .2 0 .5.1.7s.2.4.3.6c.1.2.3.3.5.4.2.3.4.3.7.3zM71.1 60.8c.2 0 .5 0 .7-.1.2 0 .5-.1.6-.2.2-.1.3-.3.5-.4.1-.2.2-.4.2-.7 0-.4-.1-.7-.4-.9-.3-.2-.6-.3-1-.3-.3 0-.5.1-.7.2-.2.1-.3.2-.5.4-.1.2-.2.4-.3.6-.1.2-.1.4-.1.7h-1.5c0-.4.1-.8.2-1.2.1-.4.3-.7.6-1 .3-.3.6-.5.9-.6.4-.2.8-.2 1.2-.2.4 0 .7.1 1 .2.3.1.6.3.9.5.3.2.5.5.7.8.2.3.2.7.2 1.1 0 .5-.1.9-.3 1.2-.2.3-.5.6-1 .7.5.1.9.4 1.2.8.3.4.4.9.4 1.5 0 .4-.1.8-.3 1.2-.2.3-.4.6-.7.9-.3.2-.6.4-1 .5s-.8.2-1.2.2c-.5 0-1-.1-1.4-.2-.4-.2-.7-.4-1-.6-.3-.3-.5-.6-.6-1-.1-.4-.2-.8-.2-1.3h1.5c0 .6.1 1 .4 1.4.3.4.7.5 1.3.5.5 0 .9-.1 1.2-.4.3-.3.5-.7.5-1.2 0-.4-.1-.6-.2-.8-.1-.2-.3-.4-.5-.5-.2-.1-.5-.2-.8-.2-.3 0-.6 0-.9 0v-1.6zM77.2 63.8c0 .4.2.7.4.9.2.2.5.3.9.3s.7-.1.9-.3c.2-.2.4-.5.5-.8.1-.3.2-.6.3-1 0-.4.1-.7.1-1-.2.4-.5.6-.8.8-.3.2-.7.3-1.1.3-.4 0-.8-.1-1.2-.2-.3-.1-.6-.3-.9-.6-.2-.3-.4-.6-.6-1-.1-.4-.2-.8-.2-1.3 0-.4.1-.8.2-1.2.1-.4.3-.7.6-1 .3-.3.6-.5 1-.7.4-.2.8-.2 1.3-.2.6 0 1.2.1 1.6.4.4.2.7.6 1 1 .2.4.4.9.5 1.5.1.6.1 1.2.1 1.8 0 .5-.1 1.1-.2 1.6-.1.6-.3 1.1-.6 1.5-.3.5-.6.8-1.1 1.1-.4.3-1 .4-1.6.4-.4 0-.7-.1-1-.2-.3-.1-.6-.3-.8-.5-.2-.2-.4-.5-.6-.8-.2-.3-.2-.6-.3-1h1.6zm1.4-5.7c-.3 0-.5 0-.7.1-.2.1-.4.2-.5.4-.1.2-.2.4-.3.6-.1.2-.1.5-.1.7 0 .2 0 .5.1.7.1.2.2.4.3.6.1.2.3.3.5.4.2.1.4.2.7.2.3 0 .5-.1.7-.2.2-.1.4-.2.5-.4.1-.2.2-.4.3-.6.1-.2.1-.5.1-.7 0-.2 0-.5-.1-.7-.1-.2-.2-.4-.3-.6-.1-.2-.3-.3-.5-.4-.2-.1-.4-.1-.7-.1zM88.9 56.8c.6 0 1.2.1 1.6.4.4.3.7.7 1 1.1.2.5.4 1 .5 1.5 0 .7 0 1.2 0 1.7s0 1-.1 1.6c-.1.6-.2 1.1-.5 1.5-.2.5-.5.8-1 1.1-.4.3-.9.4-1.6.4-.6 0-1.2-.1-1.6-.4-.4-.3-.7-.7-1-1.1-.2-.5-.4-1-.5-1.5-.1-.6-.1-1.1-.1-1.6s0-1 .1-1.6c.1-.6.2-1.1.5-1.5.2-.5.5-.8 1-1.1.5-.3 1.1-.5 1.7-.5zm0 8.2c.3 0 .6-.1.8-.3.2-.2.4-.4.5-.7.1-.3.2-.7.3-1.1.1-.4.1-.9.1-1.3s0-.9-.1-1.3-.1-.8-.3-1.1c-.1-.3-.3-.6-.5-.8-.2-.2-.5-.3-.8-.3-.3 0-.6.1-.8.3-.2.2-.4.4-.5.8-.1.3-.2.7-.3 1.1-.1.4-.1.9-.1 1.3s0 .9.1 1.3.1.8.3 1.1c.1.3.3.6.5.7.2.2.5.3.8.3zM97.3 59.3c0-.4-.2-.7-.4-.9-.2-.2-.5-.3-.9-.3-.3 0-.5 0-.7.1-.2.1-.4.2-.5.4-.1.2-.2.4-.3.6-.1.2-.1.4-.2.7-.1.2-.1.5-.1.7 0 .2 0 .4-.1.6.2-.4.5-.6.8-.8.3-.2.7-.3 1.1-.3.4 0 .8.1 1.2.2.4.2.7.4.9.6.2.3.4.6.6 1 .1.4.2.8.2 1.2 0 .4-.1.8-.2 1.2-.1.4-.3.7-.6 1-.3.3-.6.5-1 .7-.4.2-.8.2-1.2.2-.7 0-1.2-.1-1.6-.4-.4-.2-.8-.6-1-1-.2-.4-.4-.9-.5-1.5-.1-.6-.1-1.2-.1-1.9 0-.5.1-1.1.2-1.6.1-.6.3-1.1.6-1.5.3-.5.6-.8 1.1-1.1.4-.3 1-.4 1.6-.4.4 0 .7.1 1 .2.3.1.6.3.8.5.2.2.4.5.6.8.2.3.2.6.3 1h-1.6zM95.9 65c.3 0 .5-.1.7-.2.2-.1.4-.2.5-.4.1-.2.2-.4.3-.6.1-.2.1-.5.1-.7 0-.2 0-.5-.1-.7-.1-.2-.2-.4-.3-.6-.1-.2-.3-.3-.5-.4-.2-.1-.4-.2-.7-.2-.3 0-.5 0-.7.1-.2.1-.4.2-.5.4-.1.2-.2.4-.3.6-.1.2-.1.5-.1.7 0 .2 0 .5.1.7s.2.4.3.6c.1.2.3.3.5.4.2.3.5.3.7.3zM105.4 60.8c.2 0 .5 0 .7-.1.2 0 .5-.1.6-.2.2-.1.3-.3.5-.4.1-.2.2-.4.2-.7 0-.4-.1-.7-.4-.9-.3-.2-.6-.3-1-.3-.3 0-.5.1-.7.2-.2.1-.3.2-.5.4-.1.2-.2.4-.3.6-.1.2-.1.4-.1.7H103c0-.4.1-.8.2-1.2.1-.4.3-.7.6-1 .3-.3.6-.5.9-.6.4-.2.8-.2 1.2-.2.4 0 .7.1 1 .2.3.1.6.3.9.5.3.2.5.5.7.8.2.3.2.7.2 1.1 0 .5-.1.9-.3 1.2-.2.3-.5.6-1 .7.5.1.9.4 1.2.8.3.4.4.9.4 1.5 0 .4-.1.8-.3 1.2-.2.3-.4.6-.7.9-.3.2-.6.4-1 .5s-.8.2-1.2.2c-.5 0-1-.1-1.4-.2-.4-.2-.7-.4-1-.6-.3-.3-.5-.6-.6-1-.1-.4-.2-.8-.2-1.3h1.5c0 .6.1 1 .4 1.4.3.4.7.5 1.3.5.5 0 .9-.1 1.2-.4.3-.3.5-.7.5-1.2 0-.4-.1-.6-.2-.8-.1-.2-.3-.4-.5-.5-.2-.1-.5-.2-.8-.2-.3 0-.6 0-.9 0v-1.6zM116 66.1h-6.2c0-.7.2-1.4.5-2 .4-.6.8-1 1.4-1.5.3-.2.6-.4.9-.6.3-.2.6-.4.9-.7.3-.2.5-.5.7-.8.2-.3.3-.6.3-.9 0-.2 0-.3-.1-.5 0-.2-.1-.4-.2-.5-.1-.2-.3-.3-.5-.4-.2-.1-.5-.2-.8-.2-.3 0-.5.1-.7.2-.2.1-.3.3-.5.5-.1.2-.2.4-.3.7-.1.3-.1.6-.1.9H110c0-.5.1-1 .2-1.4.1-.4.3-.8.6-1.1.3-.3.6-.6 1-.7.4-.2.8-.3 1.3-.3.6 0 1 .1 1.4.3.4.2.7.4.9.7.2.3.4.6.5.9.1.3.1.6.1.9 0 .4-.1.7-.2 1-.1.3-.3.6-.5.8-.2.2-.4.5-.6.7-.2.2-.5.4-.7.6-.3.2-.5.4-.8.5-.3.2-.5.3-.7.5-.2.2-.4.3-.6.5-.2.2-.3.4-.3.6h4.4v1.3z"/></g><path fill="#fff" d="M18.5 66c0 .2 0 .4-.2.6l-1.9 1.9c-.1.1-.2.2-.3.2-.1.1-.3.1-.4.1 0 0 0 0-.1 0 0 0-.1 0-.2 0-.2 0-.5 0-.9-.1s-.9-.2-1.5-.5c-.6-.2-1.3-.6-2-1.1-.7-.5-1.5-1.2-2.4-2-.7-.7-1.2-1.3-1.7-1.9-.4-.6-.8-1.2-1.1-1.7-.3-.5-.5-1-.6-1.4-.1-.4-.2-.8-.3-1.1 0-.3-.1-.5-.1-.7 0-.2 0-.3 0-.3.1 0 .2-.2.2-.3.1-.1.1-.3.2-.3l1.9-1.9c.1-.1.3-.2.5-.2.1 0 .2 0 .3.1.1.1.2.2.2.3l1.5 2.9c.1.2.1.3.1.5s-.1.3-.2.5l-.7.7s0 .1-.1.1c0 0 0 .1 0 .1 0 .2.1.4.3.7.1.2.3.5.5.8.2.3.6.7 1 1.1.4.4.8.8 1.2 1 .3.2.6.4.8.5.2.1.4.2.5.2h.2s.1 0 .1 0 .1 0 .1-.1l.8-.8c.2-.2.4-.2.6-.2.2 0 .3 0 .4.1l2.8 1.6c.3.2.5.4.5.6z"/><path fill="#98E6EA" d="M82.9 77.8c0-3.9 3.3-7.2 7.2-7.2s7.2 3.3 7.2 7.2v5.8c1.2-1.6 2.1-3.7 2.1-5.8 0-5.1-4.1-9.3-9.3-9.3s-9.3 4.1-9.3 9.3c0 2.3.8 4.3 2.1 5.8v-5.8zm31.9 15.4c-1.2 0-2.3.4-3.1 1 0-2.9-2.3-5.1-5.1-5.1-1.2 0-2.5.4-3.5 1.2-.8-2.1-2.7-3.3-4.7-3.3-1.2 0-2.3.4-3.1 1V77.8c0-2.9-2.3-5.1-5.1-5.1S85 74.9 85 77.8v18.3c-4.1-3.7-8.7-6.6-11.5-3.7-4.1 4.1 4.5 12.2 11.1 24.3 4.7 8.4 11.3 11.5 17.9 11.5 9.7 0 17.5-7.8 17.5-17.5V98.4c0-2.9-2.3-5.2-5.2-5.2zm3.1 17.5c0 8-7 15.4-15.4 15.4-7.8 0-12.4-4.3-16.1-10.3-7.8-13.6-13.6-19.8-11.5-22 2.3-2.3 7.8 2.7 12.2 7.2V77.8c0-1.6 1.4-3.1 3.1-3.1s3.1 1.4 3.1 3.1v21.6h2.1v-7.2c0-1.6 1.4-3.1 3.1-3.1 1.6 0 3.1 1.4 3.1 3.1v5.1h2.1v-3.1c0-1.6 1.4-3.1 3.1-3.1 1.6 0 3.1 1.4 3.1 3.1v5.1h2.1v-1c0-1.6 1.4-3.1 3.1-3.1s3.1 1.4 3.1 3.1v12.4z"/><path fill="#fff" d="M117.9 102.9v7.8c0 8-7 15.4-15.4 15.4-7.8 0-12.4-4.3-16.1-10.3-7.8-13.6-13.6-19.8-11.5-22 2.3-2.3 7.8 2.7 12.2 7.2V77.8c0-1.6 1.4-3.1 3.1-3.1s3.1 1.4 3.1 3.1v21.6h2.1v-7.2c0-1.6 1.4-3.1 3.1-3.1s3.1 1.4 3.1 3.1v5.1h2.1v-3.1c0-1.6 1.4-3.1 3.1-3.1s3.1 1.4 3.1 3.1v5.1h2.1v-1c0-1.6 1.4-3.1 3.1-3.1s3.1 1.4 3.1 3.1v4.6z"/></svg>