<svg xmlns="http://www.w3.org/2000/svg" width="155" height="50" viewBox="0 0 155 50"><path fill="#22D2EF" d="M149.6 48.8H5.4C2.8 48.8.6 46.7.6 44V6c0-2.6 2.1-4.8 4.8-4.8h144.3c2.6 0 4.8 2.1 4.8 4.8v38c-.1 2.6-2.2 4.8-4.9 4.8zM5.4 3.2C3.8 3.2 2.6 4.5 2.6 6v38c0 1.5 1.2 2.8 2.8 2.8h144.3c1.5 0 2.8-1.2 2.8-2.8V6c0-1.5-1.2-2.8-2.8-2.8H5.4z"/><g fill="#393E46"><path d="M48.1 12.1v11.4h-1.7V12.1h1.7zM50.3 16.3H52v.7c.6-.6 1.2-.9 2-.9s1.5.3 2 .8c.4.4.6 1.2.6 2.2v4.4h-1.7v-4c0-.7-.1-1.2-.3-1.5s-.5-.4-1-.4c-.6 0-.9.2-1.2.5-.2.4-.3 1-.3 1.9v3.5h-1.7l-.1-7.2zM64 16.6v2.2c-.4-.5-.7-.8-1-1s-.6-.3-1-.3c-.6 0-1.1.2-1.6.7-.4.4-.6 1-.6 1.6 0 .7.2 1.2.6 1.7.4.4.9.6 1.5.6.4 0 .8-.1 1.1-.3.3-.2.6-.5 1-1V23c-.7.3-1.3.5-2 .5-1.1 0-2-.4-2.8-1.1-.8-.5-1.2-1.4-1.2-2.5s.4-2 1.1-2.7c.8-.7 1.7-1.1 2.8-1.1.8 0 1.4.2 2.1.5zM65 19.8c0-1 .4-1.9 1.1-2.6s1.6-1.1 2.7-1.1 2 .4 2.7 1.1 1.1 1.6 1.1 2.7-.4 2-1.1 2.7-1.7 1.1-2.8 1.1c-1.1 0-2-.4-2.7-1.1-.6-.7-1-1.7-1-2.8zm1.7.1c0 .7.2 1.3.6 1.7.4.4.9.6 1.6.6.6 0 1.2-.2 1.6-.6s.6-1 .6-1.7-.2-1.3-.6-1.7c-.4-.4-.9-.6-1.6-.6-.6 0-1.1.2-1.5.6-.5.5-.7 1-.7 1.7zM74.2 16.3h1.7v.7c.3-.3.6-.6.8-.7.2-.1.5-.2.9-.2.8 0 1.5.4 1.9 1.1.5-.7 1.2-1.1 2.1-1.1 1.6 0 2.4 1 2.4 2.9v4.4h-1.7v-4c0-.7-.1-1.2-.3-1.5-.2-.3-.5-.4-.8-.4-.5 0-.8.2-1 .5s-.2 1-.2 1.8v3.7h-1.7v-4c0-1.3-.4-1.9-1.1-1.9-.5 0-.8.2-1 .5s-.3.9-.3 1.7v3.7h-1.7s0-7.2 0-7.2zM85.7 13.3c0-.3.1-.5.3-.8.2-.2.5-.3.8-.3s.6.1.8.3c.2.2.3.5.3.8s-.1.6-.3.8c-.2.2-.5.3-.8.3s-.6-.1-.8-.3c-.2-.2-.3-.5-.3-.8zm1.9 3v7.2H86v-7.2h1.6zM89.5 16.3h1.7v.7c.6-.6 1.2-.9 2-.9s1.5.3 2 .8c.4.4.6 1.2.6 2.2v4.4H94v-4c0-.7-.1-1.2-.3-1.5-.2-.3-.5-.4-1-.4-.6 0-.9.2-1.2.5-.2.4-.3 1-.3 1.9v3.5h-1.7v-7.2zM104.5 23.3c0 .3 0 .6 0 .9s-.1.5-.1.7c-.1.5-.3 1-.7 1.4-.6.7-1.5 1.1-2.7 1.1-1 0-1.7-.3-2.4-.8-.6-.5-1-1.3-1.1-2.2h1.7c.1.4.2.6.3.8.3.4.8.7 1.5.7 1.2 0 1.8-.7 1.8-2.2v-1c-.7.7-1.4 1-2.3 1-1 0-1.8-.4-2.4-1.1s-.9-1.6-.9-2.7c0-1 .3-1.9.9-2.7.6-.8 1.5-1.2 2.5-1.2.9 0 1.7.3 2.3 1v-.8h1.7v7.1h-.1zm-1.6-3.4c0-.7-.2-1.3-.6-1.7-.4-.4-.9-.6-1.5-.6s-1.1.2-1.5.7c-.3.4-.5 1-.5 1.6 0 .7.2 1.2.5 1.6.4.5.9.7 1.5.7s1.1-.2 1.5-.7c.5-.4.6-.9.6-1.6zM119.6 12.7v2c-1-.8-2-1.2-3.1-1.2-1.2 0-2.2.4-3 1.3-.8.8-1.2 1.9-1.2 3.1 0 1.2.4 2.2 1.2 3s1.8 1.2 3 1.2c.6 0 1.1-.1 1.5-.3.2-.1.5-.2.7-.4.3-.2.5-.4.8-.6v2.1c-1 .6-2 .8-3.1.8-1.6 0-3-.6-4.2-1.7-1.1-1.1-1.7-2.5-1.7-4.1 0-1.5.5-2.7 1.4-3.9 1.2-1.4 2.7-2.1 4.6-2.1 1.2 0 2.2.3 3.1.8zM126.5 16.3h1.7v7.2h-1.7v-.8c-.7.6-1.4 1-2.2 1-1 0-1.8-.4-2.5-1.1-.6-.7-1-1.6-1-2.7s.3-2 1-2.7 1.5-1.1 2.4-1.1c.8 0 1.6.3 2.2 1l.1-.8zm-3.9 3.6c0 .7.2 1.2.6 1.7.4.4.9.7 1.4.7.6 0 1.1-.2 1.5-.6s.6-1 .6-1.7-.2-1.2-.6-1.7c-.4-.4-.9-.6-1.5-.6s-1 .2-1.4.6c-.4.4-.6.9-.6 1.6zM131.8 11v12.5h-1.7V11h1.7zM135.3 11v12.5h-1.7V11h1.7z"/></g><g fill="#22D2EF"><path d="M46.9 33.8v5.6h-.8v-5.6H45v-.6h1.1v-.6c0-.3 0-.5.1-.7 0-.2.1-.4.2-.6s.3-.3.5-.4.5-.1.8-.1c.1 0 .2 0 .3 0s.2 0 .3 0v.7c-.1 0-.2 0-.3 0s-.2 0-.3 0c-.2 0-.4 0-.5.1s-.2.2-.2.3c-.1.1-.1.2-.1.4 0 .1 0 .3 0 .5v.5h1.2v.6h-1.2v-.1zM49.6 33.2v1.5c.2-.5.5-.9.9-1.2s.9-.4 1.5-.4v.8c-.3 0-.7 0-.9.1-.3.1-.5.3-.7.5s-.4.4-.5.7-.2.6-.2.9v3.3h-.8v-6.3h.7v.1zM56.4 33.2c.4.2.7.4.9.7.3.3.4.7.6 1.1.1.4.2.8.2 1.3s-.1.9-.2 1.3-.3.8-.6 1.1-.6.5-.9.7c-.4.2-.8.3-1.3.3s-.9-.1-1.3-.3c-.4-.2-.7-.4-.9-.7s-.4-.6-.6-1.1-.2-.8-.2-1.3.1-.9.2-1.3.3-.8.6-1.1.6-.5.9-.7c.4-.2.8-.3 1.3-.3.5.1.9.2 1.3.3zm-2.3.6c-.3.2-.5.4-.7.6-.2.3-.3.5-.4.9-.1.3-.1.6-.1 1s0 .7.1 1 .2.6.4.9c.2.3.4.5.7.6s.6.2 1 .2.7-.1 1-.2.5-.4.7-.6c.2-.3.3-.5.4-.9s.1-.6.1-1 0-.7-.1-1-.2-.6-.4-.9c-.2-.3-.4-.5-.7-.6s-.6-.2-1-.2-.7.1-1 .2zM59.9 33.2v1.1c.2-.4.5-.7.8-.9s.8-.4 1.3-.4c.4 0 .8.1 1.1.3s.6.5.7.9c.2-.4.5-.7.8-.9.4-.2.8-.3 1.2-.3 1.4 0 2.1.7 2.1 2.2v4.3h-.8v-4.2c0-.5-.1-.9-.3-1.2-.2-.3-.6-.4-1.2-.4-.3 0-.6.1-.8.2-.2.1-.4.3-.5.5-.2.1-.3.4-.3.6-.1.3-.1.6-.1.8v3.5h-.8V35c0-.2 0-.4-.1-.6 0-.2-.1-.4-.2-.5s-.2-.3-.4-.3c-.2-.1-.4-.1-.6-.1-.3 0-.6.1-.8.2-.2.1-.4.3-.6.5-.1.2-.3.4-.3.7-.1.4-.1.7-.1 1v3.5h-.8v-6.3l.7.1zM78.8 32.5c-.2-.3-.4-.5-.6-.7s-.5-.3-.8-.4-.6-.1-.9-.1c-.6 0-1.1.1-1.5.3-.4.2-.8.5-1 .9-.3.4-.5.8-.6 1.2-.1.5-.2.9-.2 1.4s.1.9.2 1.4.3.9.6 1.2c.3.4.6.6 1 .9s.9.3 1.5.3c.4 0 .8-.1 1.1-.2.3-.1.6-.3.8-.6.2-.3.4-.5.6-.9.1-.3.2-.7.3-1.1h.8c-.1.5-.2 1-.4 1.4-.2.4-.4.8-.8 1.1-.3.3-.7.5-1.1.7s-.9.2-1.4.2c-.7 0-1.3-.1-1.8-.4-.5-.2-.9-.6-1.3-1-.3-.4-.6-.9-.8-1.4s-.3-1.1-.3-1.7c0-.6.1-1.2.3-1.7.2-.5.4-1 .8-1.4.3-.4.8-.7 1.3-1s1.1-.4 1.8-.4c.4 0 .8.1 1.2.2s.7.3 1.1.5c.3.2.6.5.8.9s.4.7.4 1.2h-.8c0-.3-.1-.6-.3-.8zM82 30.8v3.5c.1-.4.4-.7.8-.9s.8-.3 1.2-.3c.4 0 .8.1 1.1.2.3.1.5.3.7.5s.3.5.4.8.1.6.1 1v4h-.8v-3.9c0-.3 0-.5-.1-.7s-.1-.4-.3-.6c-.1-.2-.3-.3-.5-.4-.2-.1-.5-.1-.8-.1s-.6.1-.8.2c-.2.1-.4.3-.6.4-.2.2-.3.4-.4.7 0 0 0 .3 0 .6v3.7h-.8v-8.7h.8zM88.4 33.2v1.5c.2-.5.5-.9.9-1.2s.9-.4 1.5-.4v.8c-.3 0-.7 0-.9.1-.3.1-.5.3-.7.5s-.4.4-.5.7-.2.6-.2.9v3.3h-.8v-6.3h.7v.1zM92.3 30.8V32h-.8v-1.2h.8zm0 2.4v6.3h-.8v-6.3h.8zM97.4 34.4c-.1-.2-.2-.3-.4-.4-.1-.1-.3-.2-.5-.2s-.4-.1-.6-.1-.3 0-.5.1c-.2 0-.3.1-.5.2s-.3.2-.4.3-.1.3-.1.5 0 .3.1.4c.1.1.2.2.3.3.1.1.3.1.4.2s.3.1.4.1l1 .2c.2 0 .4.1.7.2.2.1.4.2.6.3s.3.3.4.5.2.4.2.7-.1.6-.2.9c-.2.2-.4.4-.6.6-.2.1-.5.3-.8.3s-.6.1-.9.1c-.7 0-1.3-.2-1.8-.5s-.7-.9-.8-1.7h.8c0 .5.2.9.6 1.2.3.3.8.4 1.3.4.2 0 .4 0 .6-.1s.4-.1.6-.2c.2-.1.3-.2.4-.4.1-.1.2-.3.2-.6 0-.2 0-.3-.1-.5-.1-.1-.2-.2-.3-.3-.1-.1-.3-.2-.4-.2s-.3-.1-.5-.1l-1-.2c-.3-.1-.5-.1-.7-.2-.2-.1-.4-.2-.6-.3s-.3-.3-.4-.5-.1-.4-.1-.7.1-.6.2-.8.3-.4.6-.5.5-.2.8-.3c0-.1.3-.1.6-.1s.6 0 .9.1.5.2.7.4.4.4.5.6c.1.3.2.5.2.9h-.8c0-.2 0-.4-.1-.6zM102.1 33.2v.6h-1.3V38c0 .3 0 .4.1.6.1.1.2.2.5.2.2 0 .4 0 .7 0v.6c-.1 0-.2 0-.3 0-.1 0-.2 0-.3 0-.5 0-.9-.1-1.1-.3s-.3-.6-.3-1.1v-4.3H99v-.6h1.1v-1.9h.8v1.9l1.2.1zM104 30.8V32h-.8v-1.2h.8zm0 2.4v6.3h-.8v-6.3h.8zM106.2 33.2v1.1c.1-.4.4-.7.8-.9s.8-.3 1.2-.3c.4 0 .8.1 1.1.2.3.1.5.3.7.5s.3.5.4.8.1.6.1 1v4h-.8v-3.9c0-.3 0-.5-.1-.7s-.1-.4-.3-.6c-.1-.2-.3-.3-.5-.4-.2-.1-.5-.1-.8-.1s-.6.1-.8.2c-.2.1-.4.3-.6.4-.2.2-.3.4-.4.7s-.1.5-.2.9v3.7h-.8v-6.3h1v-.3zM112.5 37.4c.1.3.2.6.4.8.2.2.4.4.6.6.3.2.6.2.9.2.6 0 1-.1 1.3-.4.3-.3.5-.7.7-1.2h.8c-.2.7-.5 1.3-.9 1.7s-1 .6-1.8.6c-.5 0-.9-.1-1.3-.3s-.7-.4-.9-.7-.4-.7-.5-1.1-.2-.8-.2-1.3c0-.4.1-.8.2-1.2s.3-.8.5-1.1.5-.6.9-.8.8-.3 1.3-.3.9.1 1.3.3.6.5.9.8.4.7.5 1.1c.1.4.1.9.1 1.3h-4.8c-.1.4-.1.7 0 1zm3.8-2.4c-.1-.3-.2-.5-.4-.7s-.4-.4-.6-.5-.5-.2-.8-.2-.6.1-.8.2c-.2.1-.4.3-.6.5s-.3.4-.4.7-.2.5-.2.8h4.1c-.2-.2-.2-.5-.3-.8z"/></g><path fill="#22D2EF" d="M25.1 13.7H15c-1 0-1.7.8-1.7 1.7v20.5c0 1 .8 1.7 1.7 1.7h10.1c1 0 1.7-.8 1.7-1.7V15.5c0-1-.8-1.8-1.7-1.8z"/><path fill="#fff" d="M24.8 33.1h-9.6c-.2 0-.4-.2-.4-.4V17.1c0-.2.2-.4.4-.4h9.6c.2 0 .4.2.4.4v15.6c0 .2-.2.4-.4.4zM22.7 34.8h-5.3c-.2 0-.3.1-.3.3v.5c0 .2.1.3.3.3h5.3c.2 0 .3-.1.3-.3v-.5c0-.2-.2-.3-.3-.3z"/><g fill="#22D2EF"><path opacity=".6" enable-background="new" d="M30.5 30.9c-.2 0-.4-.1-.6-.2-.4-.3-.5-.9-.2-1.4 1.8-2.5 1.7-5-.3-7.4-.4-.4-.3-1 .1-1.4.4-.4 1-.3 1.4.1 2.6 3 2.8 6.6.4 9.9-.1.3-.5.4-.8.4z"/><path opacity=".5" enable-background="new" d="M33.3 32.9c-.2 0-.4-.1-.6-.2-.4-.3-.5-.9-.2-1.4 2.8-3.8 2.6-7.7-.5-11.3-.4-.4-.3-1 .1-1.4.4-.4 1-.3 1.4.1 3.7 4.3 3.9 9.2.6 13.7-.2.3-.5.5-.8.5z"/></g></svg>