<svg xmlns="http://www.w3.org/2000/svg" width="100" height="100" viewBox="0 0 100 100"><circle opacity=".31" fill="#29ABE2" cx="52.3" cy="52.3" r="47.3"/><path fill="#3089E2" d="M87.2 73.1c3.5-5.5 6-11.8 7.1-18.7 3.9-25.9-14-50-39.8-53.8S4.5 14.6.7 40.4s14 50 39.8 53.8c16.2 2.4 31.6-3.6 41.9-14.8l7.4 1.7-2.6-8z"/><path fill="#fff" d="M29 34.1c2.4 0 4 .9 4.7 1.4.4.3.4.7.2 1.2l-.4.6c-.3.5-.7.5-1.2.2-.6-.4-1.8-1-3.3-1-3.2 0-4.9 2.3-4.9 5s1.8 5.2 4.9 5.2c1.6 0 2.9-.8 3.5-1.3.4-.3.9-.3 1.2.1l.4.6c.3.4.3.8-.1 1.2-.8.7-2.5 1.8-5.1 1.8-4.5 0-7.5-3.3-7.5-7.5.1-4.2 3.2-7.5 7.6-7.5zM42.8 34.1c4.4 0 7.5 3.2 7.5 7.4 0 4.3-3.1 7.6-7.5 7.6s-7.5-3.3-7.5-7.6c0-4.1 3.1-7.4 7.5-7.4zm0 12.6c2.8 0 4.8-2.2 4.8-5.2 0-2.8-2-5-4.8-5s-4.8 2.2-4.8 5c0 3 2 5.2 4.8 5.2zM52.4 35.2c0-.6.3-.9.8-.9H58c2.7 0 4.6 1.9 4.6 4.7 0 2.8-1.9 4.8-4.6 4.8h-3V48c0 .6-.3.9-.8.9h-.9c-.6 0-.8-.3-.8-.9V35.2zm5.1 6.4c1.5 0 2.4-1 2.4-2.5s-.9-2.4-2.4-2.4H55v4.9h2.5zM67.3 42.8L63 35.4c-.3-.6-.1-1 .6-1h1.1c.5 0 .8.2 1 .6l2 3.6c.4.9.9 1.9.9 1.9s.4-1 .9-1.9l2-3.6c.2-.4.5-.6 1-.6h1.1c.7 0 .9.4.6 1l-4.3 7.4V48c0 .6-.3.9-.8.9h-.9c-.6 0-.9-.3-.9-.9v-5.2z"/><path fill="#80BCED" d="M30 54.9h-4.6c-.3 0-.5-.2-.5-.5v-.2c0-.3.2-.5.5-.5h10.7c.3 0 .5.2.5.5v.2c0 .3-.2.5-.5.5h-4.6v12.6c0 .3-.2.5-.5.5h-.4c-.3 0-.5-.2-.5-.5V54.9zM38.4 54.1c0-.3.2-.5.5-.5H46c.3 0 .5.2.5.5v.2c0 .3-.2.5-.5.5h-6.2V60h4.9c.3 0 .5.2.5.5v.3c0 .3-.2.5-.5.5h-4.9v5.3h6.5c.3 0 .5.2.5.5v.2c0 .3-.2.5-.5.5h-7.4c-.3 0-.5-.2-.5-.5V54.1zM52.2 60.5l-3.8-6.3c-.2-.3-.1-.6.3-.6h.6c.3 0 .4.1.6.3l2.3 3.9c.4.7.9 1.7.9 1.7s.4-.9.9-1.7l2.3-3.9c.1-.2.3-.3.6-.3h.6c.4 0 .6.3.3.6L54 60.5l4.2 6.9c.2.3.1.6-.3.6h-.5c-.3 0-.4-.1-.6-.3L54 63c-.4-.8-.9-1.6-.9-1.6s-.4.9-.9 1.6l-2.8 4.6c-.1.2-.3.3-.6.3h-.5c-.4 0-.6-.3-.3-.6l4.2-6.8zM63.8 54.9h-4.6c-.3 0-.5-.2-.5-.5v-.2c0-.3.2-.5.5-.5h10.7c.3 0 .5.2.5.5v.2c0 .3-.2.5-.5.5h-4.6v12.6c0 .3-.2.5-.5.5h-.4c-.3 0-.5-.2-.5-.5V54.9z"/></svg>