<?xml version="1.0" encoding="utf-8"?>
<!-- Generator: Adobe Illustrator 18.1.0, SVG Export Plug-In . SVG Version: 6.00 Build 0)  -->
<!DOCTYPE svg PUBLIC "-//W3C//DTD SVG 1.1//EN" "http://www.w3.org/Graphics/SVG/1.1/DTD/svg11.dtd">
<svg version="1.1" id="Layer_1" xmlns="http://www.w3.org/2000/svg" xmlns:xlink="http://www.w3.org/1999/xlink" x="0px" y="0px"
	 width="140px" height="140px" viewBox="58 -61 140 140" enable-background="new 58 -61 140 140" xml:space="preserve">
<g>
	<g>
		<ellipse opacity="0.2" fill="#22D2EF" enable-background="new    " cx="125.9" cy="9" rx="67.4" ry="69"/>
		<g>
			<circle fill="#22D2EF" cx="130.4" cy="11.4" r="66.3"/>
			<polygon fill="#22D2EF" points="182.9,-23.9 197.6,-22.5 191.1,-9.2 			"/>
		</g>
	</g>
	<g>
		<path fill="#FFFFFC" d="M74.6,2.1c0-0.6,0.3-0.9,0.9-0.9h1.1c0.5,0,0.8,0.2,1,0.6l5.2,7.9c0.6,0.9,1.2,2.3,1.2,2.3h0
			c0,0-0.1-1.4-0.1-2.3V2.1c0-0.6,0.3-0.9,0.9-0.9h0.9c0.6,0,0.9,0.3,0.9,0.9v13c0,0.6-0.3,0.9-0.9,0.9h-1.1c-0.5,0-0.8-0.2-1-0.6
			l-5.3-7.9c-0.5-0.9-1.2-2.3-1.2-2.3h0c0,0,0.1,1.4,0.1,2.3v7.6c0,0.6-0.3,0.9-0.9,0.9h-1c-0.6,0-0.9-0.3-0.9-0.9V2.1z"/>
		<path fill="#FFFFFC" d="M96.5,1c4.5,0,7.6,3.3,7.6,7.5c0,4.3-3.2,7.7-7.6,7.7c-4.5,0-7.6-3.4-7.6-7.7C88.9,4.3,92,1,96.5,1z
			 M96.5,13.8c2.8,0,4.9-2.3,4.9-5.3c0-2.9-2-5.1-4.9-5.1c-2.8,0-4.9,2.2-4.9,5.1C91.6,11.5,93.7,13.8,96.5,13.8z"/>
		<path fill="#FFFFFC" d="M108.6,3.6h-4c-0.6,0-0.9-0.3-0.9-0.9V2.1c0-0.6,0.3-0.9,0.9-0.9h10.6c0.6,0,0.9,0.3,0.9,0.9v0.6
			c0,0.6-0.3,0.9-0.9,0.9h-4v11.6c0,0.6-0.3,0.9-0.9,0.9h-0.9c-0.6,0-0.9-0.3-0.9-0.9V3.6z"/>
		<path fill="#FFFFFC" d="M117.6,2.1c0-0.6,0.3-0.9,0.9-0.9h1c0.6,0,0.9,0.3,0.9,0.9v13c0,0.6-0.3,0.9-0.9,0.9h-1
			c-0.6,0-0.9-0.3-0.9-0.9V2.1z"/>
		<path fill="#FFFFFC" d="M123.3,2.1c0-0.6,0.3-0.9,0.9-0.9h6.8c0.6,0,0.9,0.3,0.9,0.9v0.6c0,0.6-0.3,0.9-0.9,0.9H126v4.2h4
			c0.6,0,0.9,0.3,0.9,0.9v0.6c0,0.6-0.3,0.9-0.9,0.9h-4v5.1c0,0.6-0.3,0.9-0.9,0.9h-1c-0.6,0-0.9-0.3-0.9-0.9V2.1z"/>
		<path fill="#FFFFFC" d="M133.6,2.1c0-0.6,0.3-0.9,0.9-0.9h1c0.6,0,0.9,0.3,0.9,0.9v13c0,0.6-0.3,0.9-0.9,0.9h-1
			c-0.6,0-0.9-0.3-0.9-0.9V2.1z"/>
		<path fill="#FFFFFC" d="M146,1c2.4,0,4,0.9,4.8,1.5c0.4,0.3,0.5,0.7,0.2,1.2l-0.4,0.6c-0.3,0.5-0.7,0.5-1.2,0.2
			c-0.6-0.4-1.8-1-3.3-1c-3.2,0-4.9,2.3-4.9,5.1c0,2.8,1.8,5.3,5,5.3c1.7,0,2.9-0.8,3.6-1.3c0.5-0.3,0.9-0.3,1.2,0.1l0.4,0.6
			c0.3,0.4,0.3,0.9-0.1,1.2c-0.8,0.7-2.6,1.8-5.2,1.8c-4.6,0-7.6-3.3-7.6-7.7C138.4,4.3,141.6,1,146,1z"/>
		<path fill="#FFFFFC" d="M156.8,2c0.2-0.5,0.5-0.7,1-0.7h1.3c0.5,0,0.8,0.2,1,0.7l4.6,13.1c0.2,0.6-0.1,1-0.7,1h-1
			c-0.5,0-0.8-0.2-1-0.7l-1-3.1h-5.2l-1,3.1c-0.1,0.5-0.5,0.7-1,0.7h-1c-0.6,0-0.9-0.4-0.7-1L156.8,2z M155.4-2
			c0-0.3,0.2-0.5,0.7-0.5h0.4c0.5,0,0.7,0.3,0.7,0.6c0.1,0.7,0.6,0.9,1.2,0.9c0.5,0,1-0.2,1.2-0.9c0.1-0.3,0.2-0.6,0.7-0.6h0.4
			c0.5,0,0.7,0.2,0.7,0.5c0,1.5-1.6,2.4-3.1,2.4C157,0.4,155.4-0.6,155.4-2z M160.4,10l-1.3-3.9c-0.2-0.8-0.6-2.3-0.6-2.3h0
			c0,0-0.3,1.5-0.6,2.3l-1.3,3.9H160.4z"/>
		<path fill="#FFFFFC" d="M166.4,2.1c0-0.6,0.3-0.9,0.9-0.9h4c1.5,0,2.2,0.1,2.8,0.4c1.5,0.6,2.5,2,2.5,4c0,1.7-0.9,3.4-2.5,4v0
			c0,0,0.2,0.2,0.5,0.8L177,15c0.4,0.6,0.1,1-0.6,1h-1.1c-0.5,0-0.8-0.2-1-0.6l-2.6-4.9h-2.6v4.6c0,0.6-0.3,0.9-0.9,0.9h-1
			c-0.6,0-0.9-0.3-0.9-0.9V2.1z M171.5,8.2c1.4,0,2.3-0.9,2.3-2.3c0-0.9-0.4-1.7-1.2-2c-0.4-0.2-0.8-0.2-1.6-0.2h-2v4.6H171.5z"/>
		<path fill="#FFFFFC" d="M179,2.1c0-0.6,0.3-0.9,0.9-0.9h1c0.6,0,0.9,0.3,0.9,0.9v13c0,0.6-0.3,0.9-0.9,0.9h-1
			c-0.6,0-0.9-0.3-0.9-0.9V2.1z"/>
	</g>
</g>
</svg>
