<svg xmlns="http://www.w3.org/2000/svg" width="80" height="80" viewBox="0 0 80 80"><circle opacity=".31" fill="#29ABE2" enable-background="new" cx="41.6" cy="42.7" r="36.7"/><path fill="#3089E2" d="M42.3 4.5c-5-.6-10.3-.1-15.4 1.6-19.2 6.3-29.7 27-23.4 46.3s27 29.8 46.3 23.4 29.8-27 23.4-46.3c-3.9-12-13.5-20.6-24.8-23.9L47 0l-4.7 4.5z"/><path fill="#fff" d="M17.7 29.5c1.7 0 2.8.6 3.4 1 .3.2.3.5.1.8l-.3.4c-.2.3-.5.4-.8.1-.5-.3-1.3-.7-2.3-.7-2.3 0-3.5 1.6-3.5 3.6 0 1.9 1.3 3.7 3.5 3.7 1.2 0 2.1-.6 2.5-.9.3-.2.6-.2.8.1l.3.4c.2.3.2.6-.1.8-.6.5-1.8 1.3-3.7 1.3-3.3 0-5.3-2.3-5.3-5.4.1-2.8 2.3-5.2 5.4-5.2zM27.6 29.5c3.1 0 5.3 2.3 5.3 5.3s-2.2 5.4-5.3 5.4-5.3-2.4-5.3-5.4c-.1-2.9 2.1-5.3 5.3-5.3zm0 9c2 0 3.4-1.6 3.4-3.7 0-2-1.4-3.6-3.4-3.6s-3.4 1.5-3.4 3.6c-.1 2.1 1.4 3.7 3.4 3.7zM34.4 30.3c0-.4.2-.6.6-.6h3.4c1.9 0 3.3 1.4 3.3 3.4s-1.4 3.4-3.3 3.4h-2.1v3c0 .4-.2.6-.6.6H35c-.4 0-.6-.2-.6-.6v-9.2zm3.7 4.6c1.1 0 1.7-.7 1.7-1.8s-.6-1.7-1.7-1.7h-1.8v3.5h1.8zM43 30.3c0-.4.2-.6.6-.6h.7c.4 0 .6.2.6.6v9.1c0 .4-.2.6-.6.6h-.7c-.4 0-.6-.2-.6-.6v-9.1zM49.3 30.2c.1-.3.3-.5.7-.5h.9c.3 0 .6.2.7.5l3.2 9.2c.1.4 0 .7-.5.7h-.7c-.3 0-.6-.2-.7-.5l-.7-2.2h-3.6l-.7 2.1c-.1.3-.3.5-.7.5h-.7c-.5 0-.6-.3-.5-.7l3.3-9.1zm2.5 5.7l-.9-2.8c-.2-.6-.4-1.6-.4-1.6s-.2 1-.4 1.6l-.9 2.8h2.6zM56 30.3c0-.4.2-.6.6-.6h2.8c1 0 1.5.1 2 .3 1 .4 1.7 1.4 1.7 2.8 0 1.2-.6 2.4-1.7 2.8 0 0 .1.2.3.5l1.7 3.1c.2.4.1.7-.4.7h-.8c-.3 0-.6-.1-.7-.4l-1.8-3.4h-1.8v3.3c0 .4-.2.6-.6.6h-.7c-.4 0-.6-.2-.6-.6v-9.1zm3.5 4.3c1 0 1.6-.6 1.6-1.6 0-.7-.2-1.2-.8-1.4-.2-.1-.6-.2-1.1-.2h-1.4v3.2h1.7z"/><path fill="#80BCED" d="M6.9 52.1L7 52c.1-.1.2-.1.4 0 .2.2.8.5 1.5.5.6 0 1.1-.3 1.1-.9 0-1.3-3-.9-3-2.7 0-1 .9-1.6 1.9-1.6.8 0 1.3.3 1.5.5.1.1.2.2.1.4l-.1.1c-.1.2-.2.2-.4.1s-.6-.4-1.2-.4-1.1.3-1.1.9c0 1.3 3 .9 3 2.8 0 .9-.8 1.6-1.9 1.6-1 0-1.6-.4-1.9-.6-.1-.3-.1-.5 0-.6zM14.3 47.2c1.5 0 2.3 1.1 2.3 2.7 0 .2-.1.3-.3.3h-4c0 1.4 1 2.2 2.2 2.2.7 0 1.2-.3 1.5-.5.2-.1.3-.1.4.1l.1.1c.1.1.1.3-.1.4-.3.2-1 .6-1.9.6-1.7 0-2.9-1.2-2.9-2.9-.1-1.9 1.1-3 2.7-3zm1.5 2.4c0-1.2-.8-1.8-1.6-1.8-.9 0-1.8.6-1.9 1.8h3.5zM17.8 47.6c0-.2.1-.3.3-.3h.2c.2 0 .3.1.3.3v.6c0 .2 0 .4 0 .4.3-.8 1.2-1.5 2.1-1.5 1 0 1.6.5 1.7 1.4.3-.7 1.1-1.4 2.1-1.4 1.4 0 1.9.8 1.9 2.2v3.3c0 .2-.1.3-.3.3h-.2c-.2 0-.3-.1-.3-.3v-3.1c0-.9-.2-1.7-1.2-1.7-1.1 0-1.9 1.2-1.9 2.3v2.4c0 .2-.1.3-.3.3H22c-.2 0-.3-.1-.3-.3v-3.1c0-.9-.1-1.7-1.2-1.7-1.1 0-1.9 1.2-1.9 2.3v2.4c0 .2-.1.3-.3.3H18c-.2 0-.3-.1-.3-.3v-4.8zM30.5 48H30c-.2 0-.3-.1-.3-.3v-.1c0-.2.1-.3.3-.3h.5V46c0-.2.1-.3.3-.3h.2c.2 0 .3.1.3.3v1.3h1.1c.2 0 .3.1.3.3v.1c0 .2-.1.3-.3.3h-1.1v2.8c0 1.3.8 1.5 1.2 1.5.2 0 .3.1.3.3v.1c0 .2-.1.3-.3.3-1.2 0-2-.7-2-2.1V48zM36.1 47.2c1.5 0 2.3 1.1 2.3 2.7 0 .2-.1.3-.3.3h-4c0 1.4 1 2.2 2.2 2.2.7 0 1.2-.3 1.5-.5.2-.1.3-.1.4.1l.1.1c.1.1.1.3-.1.4-.3.2-1 .6-1.9.6-1.7 0-2.9-1.2-2.9-2.9-.1-1.9 1.1-3 2.7-3zm1.5 2.4c0-1.2-.8-1.8-1.6-1.8-.9 0-1.8.6-1.9 1.8h3.5zM39.6 45.4c0-.2.1-.3.3-.3h.1c.2 0 .3.1.3.3v6.1c0 .7.3.8.6.8.1 0 .2.1.2.2v.2c0 .2-.1.3-.3.3-.5 0-1.3-.1-1.3-1.4v-6.2zM44.5 47.2c1.5 0 2.3 1.1 2.3 2.7 0 .2-.1.3-.3.3h-4c0 1.4 1 2.2 2.2 2.2.7 0 1.2-.3 1.5-.5.2-.1.3-.1.4.1l.1.1c.1.1.1.3-.1.4-.3.2-1 .6-1.9.6-1.7 0-2.9-1.2-2.9-2.9-.1-1.9 1.2-3 2.7-3zm1.6 2.4c0-1.2-.8-1.8-1.6-1.8-.9 0-1.8.6-1.9 1.8h3.5zM48.2 48h-.4c-.2 0-.3-.1-.3-.3v-.1c0-.2.1-.3.3-.3h.4V47c0-1.8 1.3-2.1 1.9-2.1h.1c.2 0 .3.1.3.3v.1c0 .2-.1.3-.3.3-.5 0-1.2.2-1.2 1.4v.2h1.2c.2 0 .3.1.3.3v.1c0 .2-.1.3-.3.3H49v4.7c0 .2-.1.3-.3.3h-.2c-.2 0-.3-.1-.3-.3V48zM53.6 47.2c1.6 0 3 1.3 3 2.9 0 1.7-1.3 3-3 3-1.6 0-3-1.3-3-3 .1-1.6 1.4-2.9 3-2.9zm.1 5.2c1.2 0 2.2-1 2.2-2.3 0-1.3-1-2.2-2.2-2.2-1.2 0-2.2 1-2.2 2.2 0 1.3 1 2.3 2.2 2.3zM57.8 47.6c0-.2.1-.3.3-.3h.2c.2 0 .3.1.3.3v.6c0 .2 0 .4 0 .4.2-.5 1-1.5 2.3-1.5 1.4 0 1.9.8 1.9 2.2v3.3c0 .2-.1.3-.3.3h-.2c-.2 0-.3-.1-.3-.3v-3.1c0-.9-.1-1.7-1.2-1.7-1.2 0-2.1 1-2.1 2.3v2.5c0 .2-.1.3-.3.3H58c-.2 0-.3-.1-.3-.3v-5zM66.5 47.2c1.5 0 2.3 1.1 2.3 2.7 0 .2-.1.3-.3.3h-4c0 1.4 1 2.2 2.2 2.2.7 0 1.2-.3 1.5-.5.2-.1.3-.1.4.1l.1.1c.1.1.1.3-.1.4-.3.2-1 .6-1.9.6-1.7 0-2.9-1.2-2.9-2.9-.1-1.9 1.2-3 2.7-3zm1.6 2.4c0-1.2-.8-1.8-1.6-1.8-.9 0-1.8.6-1.9 1.8h3.5z"/></svg>