<svg xmlns="http://www.w3.org/2000/svg" width="80" height="80" viewBox="0 0 80 80"><circle opacity=".31" fill="#29ABE2" cx="41.6" cy="42.7" r="36.7"/><path fill="#3089E2" d="M42.3 4.5c-5-.6-10.3-.1-15.4 1.6-19.2 6.3-29.7 27-23.4 46.3s27 29.8 46.3 23.4 29.8-27 23.4-46.3c-3.9-12-13.5-20.6-24.8-23.9L47 0l-4.7 4.5z"/><path fill="#fff" d="M23.5 28.7c1.8 0 3 .7 3.6 1.1.3.2.3.6.1.9l-.2.5c-.2.4-.5.4-.9.2-.5-.3-1.3-.8-2.5-.8-2.4 0-3.7 1.7-3.7 3.8 0 2.1 1.3 3.9 3.7 3.9 1.2 0 2.2-.6 2.7-1 .3-.2.6-.2.9.1l.3.4c.2.3.2.6-.1.9-.6.5-1.9 1.4-3.9 1.4-3.5 0-5.7-2.5-5.7-5.7.1-3.2 2.4-5.7 5.7-5.7zM34 28.7c3.3 0 5.7 2.5 5.7 5.6 0 3.2-2.4 5.8-5.7 5.8s-5.7-2.5-5.7-5.8c0-3.1 2.4-5.6 5.7-5.6zm0 9.5c2.1 0 3.6-1.7 3.6-3.9 0-2.1-1.5-3.8-3.6-3.8s-3.6 1.6-3.6 3.8c0 2.2 1.5 3.9 3.6 3.9zM41.3 29.5c0-.4.2-.7.6-.7h3.6c2.1 0 3.5 1.4 3.5 3.6 0 2.1-1.4 3.6-3.5 3.6h-2.2v3.1c0 .4-.2.7-.6.7H42c-.4 0-.6-.2-.6-.7v-9.6zm3.8 4.9c1.2 0 1.8-.7 1.8-1.9 0-1.1-.7-1.9-1.8-1.9h-1.9v3.7h1.9zM52.6 35.3l-3.2-5.6c-.3-.4-.1-.8.4-.8h.9c.4 0 .6.2.7.5l1.5 2.8c.3.7.7 1.5.7 1.5s.3-.8.7-1.5l1.5-2.8c.2-.3.4-.5.7-.5h.9c.5 0 .7.3.4.8l-3.2 5.6v3.9c0 .4-.2.7-.6.7h-.7c-.4 0-.7-.2-.7-.7v-3.9z"/><path fill="#80BCED" d="M12.4 45.5c0-.2.1-.3.3-.3h2.6c1.5 0 2.6 1 2.6 2.5 0 1.6-1.1 2.6-2.6 2.6h-2.1v3c0 .2-.1.3-.3.3h-.3c-.2 0-.3-.1-.3-.3v-7.8zm2.8 4.1c1.1 0 1.8-.7 1.8-1.8s-.7-1.8-1.8-1.8h-2v3.6h2zM18.9 45.5c0-.2.1-.3.3-.3h.2c.2 0 .3.1.3.3v3c0 .3 0 .5 0 .5.2-.6 1-1.5 2.4-1.5 1.5 0 2 .8 2 2.3v3.5c0 .2-.1.3-.3.3h-.2c-.2 0-.3-.1-.3-.3V50c0-.9-.1-1.8-1.3-1.8-1.3 0-2.3 1-2.3 2.5v2.6c0 .2-.1.3-.3.3h-.2c-.2 0-.3-.1-.3-.3v-7.8zM28.4 47.5c1.7 0 3.2 1.3 3.2 3.1s-1.4 3.2-3.2 3.2c-1.7 0-3.2-1.4-3.2-3.2.1-1.8 1.5-3.1 3.2-3.1zm0 5.5c1.3 0 2.3-1 2.3-2.4s-1-2.4-2.3-2.4c-1.3 0-2.3 1-2.3 2.4s1 2.4 2.3 2.4zM32.8 47.9c0-.2.1-.3.3-.3h.2c.2 0 .3.1.3.3v.7c0 .2 0 .4 0 .4.2-.5 1-1.6 2.4-1.6 1.5 0 2 .8 2 2.3v3.5c0 .2-.1.3-.3.3h-.2c-.2 0-.3-.1-.3-.3V50c0-.9-.2-1.8-1.3-1.8-1.3 0-2.3 1-2.3 2.4v2.6c0 .2-.1.3-.3.3h-.2c-.2 0-.3-.1-.3-.3v-5.3zM42.1 47.5c1.6 0 2.5 1.2 2.5 2.9 0 .2-.1.3-.3.3H40c0 1.5 1.1 2.4 2.3 2.4.7 0 1.3-.3 1.6-.5.2-.1.3-.1.4.1l.1.1c.1.1.1.3-.1.4-.3.2-1 .7-2 .7-1.8 0-3.1-1.3-3.1-3.1-.1-2.1 1.3-3.3 2.9-3.3zm1.7 2.5c0-1.3-.8-1.9-1.7-1.9-1 0-1.9.7-2.1 1.9h3.8zM48.6 47.9c0-.2.1-.3.3-.3h.2c.2 0 .3.1.3.3v.7c0 .2 0 .4 0 .4.2-.5 1-1.6 2.4-1.6 1.5 0 2 .8 2 2.3v3.5c0 .2-.1.3-.3.3h-.2c-.2 0-.3-.1-.3-.3V50c0-.9-.2-1.8-1.3-1.8-1.3 0-2.3 1-2.3 2.4v2.6c0 .2-.1.3-.3.3h-.2c-.2 0-.3-.1-.3-.3v-5.3zM58 47.5c1.7 0 3.2 1.3 3.2 3.1s-1.4 3.2-3.2 3.2c-1.7 0-3.2-1.4-3.2-3.2.1-1.8 1.5-3.1 3.2-3.1zm.1 5.5c1.3 0 2.3-1 2.3-2.4s-1-2.4-2.3-2.4c-1.3 0-2.3 1-2.3 2.4-.1 1.4 1 2.4 2.3 2.4zM62.3 52.9c0-.2.1-.3.3-.3h.4c.2 0 .3.1.3.3v.4c0 .2-.1.3-.3.3h-.4c-.2 0-.3-.1-.3-.3v-.4z"/></svg>