<svg xmlns="http://www.w3.org/2000/svg" width="335" height="300" viewBox="0 0 335 300"><path fill="#454C50" d="M335.3 10.4c0-2.4-.9-4.8-2.7-6.6-1.8-1.9-4.2-2.8-6.6-2.8H9c-2.4 0-4.8.9-6.6 2.7C.6 5.6-.3 8-.3 10.4v206.5h335.6V10.4z"/><path fill="#fff" d="M16.1 17.5h302.7v182.9H16.1z"/><path fill="#F2F2F2" d="M215 292.6h-95l12-39.1h71z"/><path fill="#E6E6E6" d="M102.3 292.6h130.3v6.4H102.3z"/><path fill="#E8E8E8" d="M204.9 259.9h-74.8l1.9-6.4h71z"/><path fill="#E6E6E6" d="M335.3 244.1c0 2.4-.9 4.8-2.7 6.6-1.8 1.8-4.2 2.7-6.6 2.7H9c-2.4 0-4.8-.9-6.6-2.7-1.8-1.8-2.7-4.2-2.7-6.6v-27.2h335.6v27.2z"/></svg>