<?xml version="1.0" encoding="utf-8"?>
<!-- Generator: Adobe Illustrator 18.1.0, SVG Export Plug-In . SVG Version: 6.00 Build 0)  -->
<!DOCTYPE svg PUBLIC "-//W3C//DTD SVG 1.1//EN" "http://www.w3.org/Graphics/SVG/1.1/DTD/svg11.dtd">
<svg version="1.1" id="Layer_1" xmlns="http://www.w3.org/2000/svg" xmlns:xlink="http://www.w3.org/1999/xlink" x="0px" y="0px"
	 width="135px" height="135px" viewBox="56 -58 135 135" enable-background="new 56 -58 135 135" xml:space="preserve">
<g>
	<g>
		<circle opacity="0.3" fill="#7F5AB0" enable-background="new    " cx="126.8" cy="12.8" r="63.9"/>
		<path fill="#7F5AB0" d="M93.9,64.4c8,3.6,16.9,5.7,26.3,5.7c35.3,0,63.9-28.6,63.9-63.9s-28.6-63.9-63.9-63.9S56.3-29.1,56.3,6.2
			c0,22,11.2,41.5,28.1,53l-0.7,10.2L93.9,64.4z"/>
	</g>
	<g>
		<path fill="#FFFFFF" d="M76.4-13.2c0-0.7,0.4-1.2,1.1-1.2h1.3c0.7,0,1.1,0.4,1.1,1.2V2.2h7.3c0.8,0,1.2,0.4,1.2,1.1v0.8
			c0,0.8-0.4,1.2-1.2,1.2h-9.7c-0.7,0-1.1-0.4-1.1-1.2V-13.2z"/>
		<path fill="#FFFFFF" d="M90.3-13.2c0-0.7,0.4-1.2,1.1-1.2h1.3c0.7,0,1.1,0.4,1.1,1.2V4.2c0,0.8-0.4,1.2-1.1,1.2h-1.3
			c-0.7,0-1.1-0.4-1.1-1.2V-13.2z"/>
		<path fill="#FFFFFF" d="M98-13.2c0-0.7,0.4-1.2,1.1-1.2h6.4c3.7,0,6.3,2.6,6.3,6.4s-2.6,6.5-6.3,6.5h-4v5.6c0,0.8-0.4,1.2-1.1,1.2
			h-1.3c-0.7,0-1.1-0.4-1.1-1.2V-13.2z M104.9-4.6c2.1,0,3.3-1.3,3.3-3.4c0-2-1.2-3.3-3.2-3.3h-3.4v6.7H104.9z"/>
		<path fill="#FFFFFF" d="M114.2-13.2c0-0.7,0.4-1.2,1.1-1.2h9.5c0.7,0,1.2,0.4,1.2,1.2v0.8c0,0.7-0.4,1.1-1.2,1.1h-7.1v5.2h5.5
			c0.7,0,1.2,0.4,1.2,1.1v0.8c0,0.8-0.4,1.2-1.2,1.2h-5.5v5.3h7.5c0.7,0,1.2,0.4,1.2,1.1v0.8c0,0.8-0.4,1.2-1.2,1.2h-9.9
			c-0.7,0-1.1-0.4-1.1-1.2V-13.2z"/>
		<path fill="#FFFFFF" d="M128.3,2.1l0.6-0.9c0.4-0.6,0.9-0.6,1.6-0.2c0.6,0.4,2,1.4,4,1.4c1.8,0,2.9-0.9,2.9-2.2
			c0-3.7-9.2-3-9.2-9.1c0-3.5,2.9-5.7,6.6-5.7c2.3,0,4.2,0.9,5.1,1.5c0.6,0.4,0.7,1,0.4,1.6l-0.5,0.9c-0.4,0.8-1,0.7-1.6,0.4
			c-0.8-0.5-1.9-1.1-3.4-1.1c-1.8,0-3,0.9-3,2.2c0,3.7,9.2,2.7,9.2,9c0,3.2-2.4,5.8-6.5,5.8c-2.8,0-5.1-1.2-6-2
			C128,3.3,127.8,2.8,128.3,2.1z M134,6.8h0.6c1.1,0,1.3,0.9,1.3,1.7c0,1.5-0.8,2.9-1.7,2.9h-0.3c-0.7,0-1-0.2-1-0.6
			c0-0.5,0.3-0.9,0.3-1.8c0-0.6-0.1-0.9-0.1-1.4C132.9,7,133.3,6.8,134,6.8z"/>
		<path fill="#FFFFFF" d="M148.3-11.3H143c-0.8,0-1.2-0.4-1.2-1.1v-0.8c0-0.7,0.4-1.2,1.2-1.2h14.1c0.7,0,1.1,0.4,1.1,1.2v0.8
			c0,0.7-0.4,1.1-1.1,1.1h-5.3V4.2c0,0.8-0.4,1.2-1.2,1.2h-1.2c-0.7,0-1.1-0.4-1.1-1.2V-11.3z"/>
		<path fill="#FFFFFF" d="M160.2-13.2c0-0.7,0.4-1.2,1.1-1.2h9.5c0.7,0,1.2,0.4,1.2,1.2v0.8c0,0.7-0.4,1.1-1.2,1.1h-7.1v5.2h5.5
			c0.7,0,1.2,0.4,1.2,1.1v0.8c0,0.8-0.4,1.2-1.2,1.2h-5.5v5.3h7.5c0.7,0,1.2,0.4,1.2,1.1v0.8c0,0.8-0.4,1.2-1.2,1.2h-9.9
			c-0.7,0-1.1-0.4-1.1-1.2V-13.2z"/>
		<path fill="#C2B8D3" d="M99.9,13.5h-6.3c-0.4,0-0.7-0.2-0.7-0.7v-0.3c0-0.4,0.2-0.7,0.7-0.7h14.5c0.4,0,0.7,0.2,0.7,0.7v0.3
			c0,0.4-0.2,0.7-0.7,0.7h-6.3v17.1c0,0.4-0.2,0.7-0.7,0.7h-0.6c-0.4,0-0.7-0.2-0.7-0.7V13.5z"/>
		<path fill="#C2B8D3" d="M111.2,12.5c0-0.4,0.2-0.7,0.7-0.7h9.6c0.4,0,0.7,0.2,0.7,0.7v0.3c0,0.4-0.2,0.7-0.7,0.7h-8.4v7.1h6.7
			c0.4,0,0.7,0.2,0.7,0.7v0.4c0,0.4-0.2,0.7-0.7,0.7h-6.7v7.2h8.9c0.4,0,0.7,0.2,0.7,0.7v0.3c0,0.4-0.2,0.7-0.7,0.7h-10.1
			c-0.4,0-0.7-0.2-0.7-0.7V12.5z"/>
		<path fill="#C2B8D3" d="M129.9,21.1l-5.2-8.5c-0.3-0.4-0.1-0.8,0.5-0.8h0.7c0.4,0,0.6,0.2,0.8,0.5l3.1,5.3c0.6,1,1.3,2.2,1.3,2.2
			h0.1c0,0,0.6-1.2,1.2-2.2l3.2-5.3c0.2-0.3,0.4-0.5,0.8-0.5h0.7c0.6,0,0.8,0.4,0.5,0.8l-5.2,8.5l5.7,9.4c0.3,0.4,0.1,0.8-0.4,0.8
			H137c-0.4,0-0.6-0.1-0.8-0.5l-3.8-6.3c-0.6-1-1.2-2.2-1.2-2.2h-0.1c0,0-0.6,1.2-1.2,2.2l-3.7,6.2c-0.2,0.3-0.4,0.5-0.8,0.5h-0.7
			c-0.6,0-0.7-0.4-0.5-0.8L129.9,21.1z"/>
		<path fill="#C2B8D3" d="M145.7,13.5h-6.3c-0.4,0-0.7-0.2-0.7-0.7v-0.3c0-0.4,0.2-0.7,0.7-0.7h14.5c0.4,0,0.7,0.2,0.7,0.7v0.3
			c0,0.4-0.2,0.7-0.7,0.7h-6.3v17.1c0,0.4-0.2,0.7-0.7,0.7h-0.6c-0.4,0-0.7-0.2-0.7-0.7V13.5z"/>
	</g>
</g>
</svg>
