<svg xmlns="http://www.w3.org/2000/svg" width="380" height="280" viewBox="0 0 380 280"><g opacity=".8" fill="#A0A0A0"><circle cx="60.3" cy="134.4" r="1.1"/><circle cx="63.8" cy="99.9" r="1.1"/><circle cx="60.3" cy="127.5" r="1.1"/><circle cx="63.8" cy="106.8" r="1.1"/><circle cx="63.8" cy="96.5" r="1.1"/><circle cx="67.2" cy="103.4" r="1.1"/><circle cx="60.3" cy="110.3" r="1.1"/><circle cx="67.2" cy="110.3" r="1.1"/><circle cx="63.8" cy="130.9" r="1.1"/><circle cx="63.8" cy="137.8" r="1.1"/><circle cx="67.2" cy="144.7" r="1.1"/><circle cx="46.5" cy="106.8" r="1.1"/><circle cx="29.3" cy="106.8" r="1.1"/><circle cx="39.6" cy="106.8" r="1.1"/><circle cx="25.9" cy="106.8" r="1.1"/><circle cx="53.4" cy="113.7" r="1.1"/><circle cx="56.9" cy="99.9" r="1.1"/><circle cx="56.9" cy="106.8" r="1.1"/><circle cx="25.9" cy="113.7" r="1.1"/><circle cx="53.4" cy="106.8" r="1.1"/><circle cx="53.4" cy="120.6" r="1.1"/><circle cx="74.1" cy="144.7" r="1.1"/><circle cx="77.6" cy="96.5" r="1.1"/><circle cx="56.9" cy="110.3" r="1.1"/><circle cx="77.6" cy="110.3" r="1.1"/><circle cx="74.1" cy="151.6" r="1.1"/><circle cx="77.6" cy="124" r="1.1"/><circle cx="81" cy="93" r="1.1"/><circle cx="81" cy="106.8" r="1.1"/><circle cx="67.2" cy="141.3" r="1.1"/><circle cx="81" cy="103.4" r="1.1"/><circle cx="81" cy="113.7" r="1.1"/><circle cx="70.7" cy="96.5" r="1.1"/><circle cx="70.7" cy="127.5" r="1.1"/><circle cx="74.1" cy="137.8" r="1.1"/><circle cx="70.7" cy="134.4" r="1.1"/><circle cx="70.7" cy="99.9" r="1.1"/><circle cx="74.1" cy="130.9" r="1.1"/><circle cx="74.1" cy="89.6" r=".9"/><circle cx="74.1" cy="106.8" r="1.1"/><circle cx="74.1" cy="96.5" r="1.1"/><circle cx="39.6" cy="113.7" r="1.1"/><circle cx="46.5" cy="124" r=".9"/><circle cx="46.5" cy="113.7" r="1.1"/><circle cx="46.5" cy="110.3" r="1.1"/><circle cx="46.5" cy="120.6" r="1.1"/><circle cx="50" cy="106.8" r="1.1"/><circle cx="46.5" cy="117.1" r="1.1"/><circle cx="43.1" cy="117.1" r="1.1"/><circle cx="43.1" cy="106.8" r="1.1"/><circle cx="43.1" cy="110.3" r="1.1"/><circle cx="43.1" cy="113.7" r="1.1"/><circle cx="50" cy="113.7" r="1.1"/><circle cx="50" cy="110.3" r="1.1"/><circle cx="53.4" cy="124" r="1.1"/><circle cx="53.4" cy="117.1" r="1.1"/><circle cx="53.4" cy="127.5" r="1.1"/><circle cx="53.4" cy="110.3" r="1.1"/><circle cx="50" cy="117.1" r="1.1"/><circle cx="50" cy="120.6" r="1.1"/><circle cx="39.6" cy="117.1" r="1.1"/><circle cx="50" cy="124" r="1.1"/><circle cx="22.4" cy="106.8" r="1.1"/><circle cx="25.9" cy="120.6" r="1.1"/><circle cx="29.3" cy="110.3" r="1.1"/><circle cx="29.3" cy="113.7" r="1.1"/><circle cx="29.3" cy="117.1" r="1.1"/><circle cx="29.3" cy="120.6" r="1.1"/><circle cx="25.9" cy="124" r=".6"/><circle cx="19" cy="106.8" r=".9"/><circle cx="22.4" cy="117.1" r="1.1"/><circle cx="25.9" cy="110.3" r="1.1"/><circle cx="25.9" cy="117.1" r="1.1"/><circle cx="36.2" cy="106.8" r="1.1"/><circle cx="36.2" cy="117.1" r="1.1"/><circle cx="36.2" cy="113.7" r="1.1"/><circle cx="32.8" cy="106.8" r="1.1"/><circle cx="36.2" cy="110.3" r="1.1"/><circle cx="39.6" cy="110.3" r="1.1"/><circle cx="32.8" cy="110.3" r="1.1"/><circle cx="32.8" cy="113.7" r="1.1"/><circle cx="81" cy="137.8" r="1.1"/><circle cx="32.8" cy="117.1" r="1.1"/><circle cx="77.6" cy="117.1" r="1.1"/><circle cx="118.9" cy="86.1" r="1.1"/><circle cx="118.9" cy="175.7" r="1.1"/><circle cx="118.9" cy="93" r="1.1"/><circle cx="118.9" cy="134.4" r=".8"/><circle cx="118.9" cy="89.6" r="1.1"/><circle cx="81" cy="144.7" r="1.1"/><circle cx="118.9" cy="110.3" r=".8"/><circle cx="122.4" cy="82.7" r="1.1"/><circle cx="122.4" cy="182.6" r="1.1"/><circle cx="115.5" cy="175.7" r="1.1"/><circle cx="115.5" cy="86.1" r="1.1"/><circle cx="115.5" cy="179.2" r="1.1"/><circle cx="112" cy="199.9" r="1.1"/><circle cx="112" cy="193" r="1.1"/><circle cx="115.5" cy="93" r="1.1"/><circle cx="112" cy="189.5" r="1.1"/><circle cx="112" cy="186.1" r="1.1"/><circle cx="115.5" cy="82.7" r="1.1"/><circle cx="115.5" cy="89.6" r="1.1"/><circle cx="115.5" cy="134.4" r="1.1"/><circle cx="122.4" cy="186.1" r="1.1"/><circle cx="112" cy="196.4" r="1.1"/><circle cx="129.3" cy="93" r="1.1"/><circle cx="129.3" cy="96.5" r="1.1"/><circle cx="129.3" cy="99.9" r="1.1"/><circle cx="129.3" cy="86.1" r="1.1"/><circle cx="129.3" cy="82.7" r="1.1"/><circle cx="136.1" cy="93" r="1.1"/><circle cx="132.7" cy="82.7" r="1.1"/><circle cx="129.3" cy="106.8" r="1.1"/><circle cx="125.8" cy="186.1" r="1.1"/><circle cx="129.3" cy="103.4" r="1.1"/><circle cx="125.8" cy="189.5" r="1.1"/><circle cx="125.8" cy="96.5" r="1.1"/><circle cx="125.8" cy="99.9" r="1.1"/><circle cx="122.4" cy="193" r="1.1"/><circle cx="122.4" cy="196.4" r="1.1"/><circle cx="125.8" cy="89.6" r="1.1"/><circle cx="125.8" cy="86.1" r="1.1"/><circle cx="125.8" cy="182.6" r="1.1"/><circle cx="125.8" cy="93" r="1.1"/><circle cx="122.4" cy="189.5" r="1.1"/><circle cx="122.4" cy="86.1" r="1.1"/><circle cx="91.3" cy="89.6" r="1.1"/><circle cx="136.1" cy="89.6" r="1.1"/><circle cx="94.8" cy="82.7" r="1.1"/><circle cx="101.7" cy="103.4" r="1.1"/><circle cx="91.3" cy="82.7" r="1.1"/><circle cx="91.3" cy="144.7" r="1.1"/><circle cx="98.2" cy="82.7" r="1.1"/><circle cx="98.2" cy="89.6" r="1.1"/><circle cx="101.7" cy="82.7" r="1.1"/><circle cx="98.2" cy="99.9" r="1.1"/><circle cx="91.3" cy="86.1" r=".8"/><circle cx="84.5" cy="141.3" r="1.1"/><circle cx="84.5" cy="124" r="1.1"/><circle cx="84.4" cy="86.1" r="1.1"/><circle cx="84.5" cy="148.2" r="1.1"/><circle cx="112" cy="182.6" r="1.1"/><circle cx="87.9" cy="89.6" r="1.1"/><circle cx="87.9" cy="96.5" r="1.1"/><circle cx="91.3" cy="96.5" r="1.1"/><circle cx="91.3" cy="93" r="1.1"/><circle cx="87.9" cy="93" r="1.1"/><circle cx="108.6" cy="179.2" r="1.1"/><circle cx="108.6" cy="175.7" r="1.1"/><circle cx="108.6" cy="86.1" r="1.1"/><circle cx="108.6" cy="82.7" r="1.1"/><circle cx="101.7" cy="106.8" r="1.1"/><circle cx="112" cy="89.6" r="1.1"/><circle cx="112" cy="179.2" r="1.1"/><circle cx="112" cy="86.1" r="1.1"/><circle cx="112" cy="175.7" r="1.1"/><circle cx="112" cy="172.3" r="1.1"/><circle cx="108.6" cy="172.3" r="1.1"/><circle cx="105.1" cy="106.8" r="1.1"/><circle cx="105.1" cy="110.3" r="1.1"/><circle cx="105.1" cy="82.7" r="1.1"/><circle cx="108.6" cy="89.6" r="1.1"/><circle cx="105.1" cy="93" r="1.1"/><circle cx="105.1" cy="179.2" r="1.1"/><circle cx="105.1" cy="172.3" r="1.1"/><circle cx="105.1" cy="182.6" r="1.1"/><circle cx="105.1" cy="175.7" r="1.1"/><circle cx="91.3" cy="141.3" r="1.1"/><circle cx="87.9" cy="110.3" r="1.1"/><circle cx="87.9" cy="113.7" r="1.1"/><circle cx="87.9" cy="124" r="1.1"/><circle cx="87.9" cy="137.8" r="1.1"/><circle cx="87.9" cy="130.9" r="1.1"/><circle cx="87.9" cy="127.5" r="1.1"/><circle cx="87.9" cy="103.4" r=".4"/><circle cx="87.9" cy="99.9" r="1.1"/><circle cx="84.5" cy="165.4" r="1.1"/><circle cx="87.9" cy="106.8" r="1.1"/><circle cx="84.5" cy="151.6" r="1.1"/><circle cx="91.3" cy="103.4" r="1.1"/><circle cx="91.3" cy="99.9" r="1.1"/><circle cx="87.9" cy="161.9" r="1.1"/><circle cx="91.3" cy="106.8" r="1.1"/><circle cx="87.9" cy="141.3" r="1.1"/><circle cx="87.9" cy="165.4" r=".6"/><circle cx="87.9" cy="144.7" r="1.1"/><circle cx="87.9" cy="148.2" r="1.1"/><circle cx="87.9" cy="151.6" r="1.1"/><circle cx="81" cy="124" r="1.1"/><circle cx="81" cy="134.4" r="1.1"/><circle cx="81" cy="141.3" r="1.1"/><circle cx="81" cy="165.4" r="1.1"/><circle cx="81" cy="127.5" r="1.1"/><circle cx="81" cy="151.6" r="1.1"/><circle cx="81" cy="148.2" r="1.1"/><circle cx="81" cy="117.1" r="1.1"/><circle cx="81" cy="120.6" r="1.1"/><circle cx="91.3" cy="110.3" r="1.1"/><circle cx="81" cy="130.9" r="1.1"/><circle cx="84.5" cy="144.7" r="1.1"/><circle cx="84.5" cy="130.9" r="1.1"/><circle cx="84.5" cy="134.4" r="1.1"/><circle cx="84.4" cy="89.6" r="1.1"/><circle cx="84.5" cy="127.5" r="1.1"/><circle cx="84.5" cy="137.8" r="1.1"/><circle cx="84.5" cy="106.8" r="1.1"/><circle cx="84.5" cy="113.7" r="1.1"/><circle cx="84.4" cy="99.9" r="1.1"/><circle cx="84.5" cy="110.3" r="1.1"/><circle cx="94.8" cy="96.5" r="1.1"/><circle cx="98.2" cy="148.2" r="1.1"/><circle cx="98.2" cy="134.4" r="1.1"/><circle cx="98.2" cy="130.9" r="1.1"/><circle cx="98.2" cy="161.9" r="1.1"/><circle cx="98.2" cy="141.3" r="1.1"/><circle cx="98.2" cy="137.8" r="1.1"/><circle cx="98.2" cy="117.1" r="1.1"/><circle cx="98.2" cy="103.4" r="1.1"/><circle cx="98.2" cy="127.5" r="1.1"/><circle cx="98.2" cy="86.1" r="1.1"/><circle cx="98.2" cy="120.6" r="1.1"/><circle cx="101.7" cy="113.7" r="1.1"/><circle cx="101.7" cy="110.3" r="1.1"/><circle cx="101.7" cy="117.1" r="1.1"/><circle cx="98.2" cy="175.7" r="1.1"/><circle cx="101.7" cy="86.1" r="1.1"/><circle cx="98.2" cy="186.1" r="1.1"/><circle cx="98.2" cy="179.2" r="1.1"/><circle cx="91.3" cy="113.7" r="1.1"/><circle cx="98.2" cy="189.5" r="1.1"/><circle cx="98.2" cy="182.6" r="1.1"/><circle cx="91.3" cy="151.6" r="1.1"/><circle cx="91.3" cy="168.8" r="1.1"/><circle cx="91.3" cy="148.2" r="1.1"/><circle cx="81" cy="110.3" r="1.1"/><circle cx="94.8" cy="93" r="1.1"/><circle cx="94.8" cy="89.6" r="1.1"/><circle cx="91.3" cy="127.5" r="1.1"/><circle cx="91.3" cy="130.9" r="1.1"/><circle cx="91.3" cy="134.4" r="1.1"/><circle cx="91.3" cy="137.8" r="1.1"/><circle cx="94.8" cy="144.7" r="1.1"/><circle cx="94.8" cy="148.2" r="1.1"/><circle cx="94.8" cy="182.6" r=".4"/><circle cx="94.8" cy="186.1" r=".6"/><circle cx="94.8" cy="103.4" r="1.1"/><circle cx="94.8" cy="172.3" r=".8"/><circle cx="94.8" cy="130.9" r="1.1"/><circle cx="94.8" cy="134.4" r="1.1"/><circle cx="94.8" cy="155.1" r="1.1"/><circle cx="94.8" cy="141.3" r="1.1"/><circle cx="63.8" cy="124" r="1.1"/><circle cx="63.8" cy="148.2" r="1.1"/><circle cx="63.8" cy="134.4" r="1.1"/><circle cx="63.8" cy="144.7" r="1.1"/><circle cx="63.8" cy="141.3" r="1.1"/><circle cx="56.9" cy="113.7" r="1.1"/><circle cx="63.8" cy="127.5" r="1.1"/><circle cx="63.8" cy="120.6" r="1.1"/><circle cx="63.8" cy="110.3" r="1.1"/><circle cx="63.8" cy="113.7" r="1.1"/><circle cx="63.8" cy="117.1" r=".9"/><circle cx="67.2" cy="134.4" r="1.1"/><circle cx="67.2" cy="127.5" r="1.1"/><circle cx="67.2" cy="124" r="1.1"/><circle cx="67.2" cy="130.9" r="1.1"/><circle cx="67.2" cy="137.8" r="1.1"/><circle cx="67.2" cy="106.8" r="1.1"/><circle cx="67.2" cy="113.7" r="1.1"/><circle cx="63.8" cy="151.6" r="1.1"/><circle cx="67.2" cy="120.6" r="1.1"/><circle cx="67.2" cy="117.1" r="1.1"/><circle cx="63.8" cy="103.4" r="1.1"/><circle cx="56.9" cy="130.9" r="1.1"/><circle cx="56.9" cy="137.8" r="1.1"/><circle cx="56.9" cy="141.3" r="1.1"/><circle cx="60.3" cy="99.9" r="1.1"/><circle cx="56.9" cy="134.4" r="1.1"/><circle cx="60.3" cy="93" r="1.1"/><circle cx="56.9" cy="127.5" r="1.1"/><circle cx="56.9" cy="120.6" r="1.1"/><circle cx="56.9" cy="117.1" r="1.1"/><circle cx="56.9" cy="124" r="1.1"/><circle cx="60.3" cy="120.6" r="1.1"/><circle cx="60.3" cy="141.3" r="1.1"/><circle cx="60.3" cy="137.8" r="1.1"/><circle cx="60.3" cy="148.2" r="1.1"/><circle cx="60.3" cy="130.9" r="1.1"/><circle cx="60.3" cy="117.1" r="1.1"/><circle cx="60.3" cy="113.7" r="1.1"/><circle cx="60.3" cy="144.7" r="1.1"/><circle cx="60.3" cy="106.8" r="1.1"/><circle cx="60.3" cy="124" r="1.1"/><circle cx="77.6" cy="130.9" r="1.1"/><circle cx="77.6" cy="113.7" r="1.1"/><circle cx="74.1" cy="158.5" r="1.1"/><circle cx="77.6" cy="99.9" r="1.1"/><circle cx="67.2" cy="151.6" r="1.1"/><circle cx="74.1" cy="134.4" r="1.1"/><circle cx="74.1" cy="161.9" r="1.1"/><circle cx="77.6" cy="134.4" r="1.1"/><circle cx="74.1" cy="148.2" r="1.1"/><circle cx="74.1" cy="141.3" r="1.1"/><circle cx="74.1" cy="155.1" r="1.1"/><circle cx="77.6" cy="120.6" r="1.1"/><circle cx="77.6" cy="151.6" r="1.1"/><circle cx="77.6" cy="155.1" r="1.1"/><circle cx="77.6" cy="158.5" r="1.1"/><circle cx="81" cy="96.5" r="1.1"/><circle cx="77.6" cy="161.9" r="1.1"/><circle cx="77.6" cy="137.8" r="1.1"/><circle cx="77.6" cy="148.2" r="1.1"/><circle cx="77.6" cy="141.3" r="1.1"/><circle cx="77.6" cy="144.7" r="1.1"/><circle cx="77.6" cy="127.5" r="1.1"/><circle cx="70.7" cy="117.1" r="1.1"/><circle cx="70.7" cy="124" r="1.1"/><circle cx="70.7" cy="130.9" r="1.1"/><circle cx="70.7" cy="120.6" r="1.1"/><circle cx="70.7" cy="137.8" r="1.1"/><circle cx="70.7" cy="148.2" r="1.1"/><circle cx="70.7" cy="103.4" r="1.1"/><circle cx="67.2" cy="148.2" r="1.1"/><circle cx="74.1" cy="127.5" r="1.1"/><circle cx="70.7" cy="110.3" r="1.1"/><circle cx="70.7" cy="113.7" r="1.1"/><circle cx="74.1" cy="117.1" r="1.1"/><circle cx="74.1" cy="120.6" r="1.1"/><circle cx="74.1" cy="113.7" r="1.1"/><circle cx="74.1" cy="124" r="1.1"/><circle cx="70.7" cy="141.3" r="1.1"/><circle cx="70.7" cy="144.7" r="1.1"/><circle cx="74.1" cy="110.3" r="1.1"/><circle cx="70.7" cy="151.6" r="1.1"/><circle cx="70.7" cy="155.1" r="1.1"/><circle cx="232.6" cy="99.9" r=".7"/><circle cx="256.8" cy="113.7" r="1.1"/><circle cx="239.5" cy="130.9" r="1.1"/><circle cx="256.8" cy="110.3" r="1.1"/><circle cx="256.8" cy="89.6" r="1.1"/><circle cx="256.8" cy="93" r="1.1"/><circle cx="256.8" cy="96.5" r="1.1"/><circle cx="260.2" cy="103.4" r="1.1"/><circle cx="256.8" cy="137.8" r="1.1"/><circle cx="256.8" cy="134.4" r="1.1"/><circle cx="256.8" cy="130.9" r="1.1"/><circle cx="253.3" cy="148.2" r="1.1"/><circle cx="253.3" cy="120.6" r="1.1"/><circle cx="253.3" cy="134.4" r="1.1"/><circle cx="253.3" cy="127.5" r="1.1"/><circle cx="256.8" cy="99.9" r="1.1"/><circle cx="253.3" cy="89.6" r=".8"/><circle cx="253.3" cy="117.1" r="1.1"/><circle cx="253.3" cy="96.5" r="1.1"/><circle cx="253.3" cy="144.7" r="1.1"/><circle cx="260.2" cy="99.9" r="1.1"/><circle cx="253.3" cy="130.9" r="1.1"/><circle cx="253.3" cy="141.3" r="1.1"/><circle cx="263.7" cy="144.7" r="1.1"/><circle cx="263.7" cy="113.7" r="1.1"/><circle cx="263.7" cy="99.9" r="1.1"/><circle cx="263.7" cy="134.4" r="1.1"/><circle cx="263.7" cy="96.5" r="1.1"/><circle cx="263.7" cy="120.6" r="1.1"/><circle cx="263.7" cy="141.3" r="1.1"/><circle cx="263.7" cy="127.5" r="1.1"/><circle cx="263.7" cy="148.2" r="1.1"/><circle cx="263.7" cy="130.9" r="1.1"/><circle cx="263.7" cy="106.8" r="1.1"/><circle cx="260.2" cy="110.3" r="1.1"/><circle cx="260.2" cy="117.1" r="1.1"/><circle cx="260.2" cy="113.7" r="1.1"/><circle cx="263.7" cy="103.4" r="1.1"/><circle cx="260.2" cy="93" r=".9"/><circle cx="260.2" cy="96.5" r="1.1"/><circle cx="260.2" cy="137.8" r="1.1"/><circle cx="260.2" cy="141.3" r="1.1"/><circle cx="260.2" cy="134.4" r="1.1"/><circle cx="263.7" cy="117.1" r="1.1"/><circle cx="246.4" cy="99.9" r="1.1"/><circle cx="246.4" cy="103.4" r="1.1"/><circle cx="243" cy="134.4" r="1.1"/><circle cx="243" cy="130.9" r="1.1"/><circle cx="243" cy="120.6" r="1.1"/><circle cx="243" cy="137.8" r="1.1"/><circle cx="246.4" cy="96.5" r="1.1"/><circle cx="246.4" cy="113.7" r="1.1"/><circle cx="246.4" cy="127.5" r="1.1"/><circle cx="246.4" cy="110.3" r="1.1"/><circle cx="243" cy="124" r="1.1"/><circle cx="239.5" cy="137.8" r="1.1"/><circle cx="239.5" cy="141.3" r="1.1"/><circle cx="243" cy="110.3" r="1.1"/><circle cx="239.5" cy="144.7" r="1.1"/><circle cx="243" cy="103.4" r="1.1"/><circle cx="243" cy="106.8" r="1.1"/><circle cx="243" cy="99.9" r="1.1"/><circle cx="246.4" cy="120.6" r="1.1"/><circle cx="243" cy="117.1" r="1.1"/><circle cx="253.3" cy="106.8" r="1.1"/><circle cx="249.9" cy="137.8" r="1.1"/><circle cx="249.9" cy="144.7" r="1.1"/><circle cx="249.9" cy="127.5" r="1.1"/><circle cx="249.9" cy="124" r="1.1"/><circle cx="249.9" cy="130.9" r="1.1"/><circle cx="253.3" cy="99.9" r="1.1"/><circle cx="246.4" cy="124" r="1.1"/><circle cx="249.9" cy="141.3" r="1.1"/><circle cx="253.3" cy="103.4" r="1.1"/><circle cx="253.3" cy="110.3" r="1.1"/><circle cx="249.9" cy="117.1" r="1.1"/><circle cx="246.4" cy="141.3" r="1.1"/><circle cx="249.9" cy="106.8" r="1.1"/><circle cx="246.4" cy="137.8" r="1.1"/><circle cx="246.4" cy="134.4" r="1.1"/><circle cx="249.9" cy="113.7" r="1.1"/><circle cx="249.9" cy="96.5" r="1.1"/><circle cx="249.9" cy="103.4" r="1.1"/><circle cx="249.9" cy="86.1" r="1.1"/><circle cx="249.9" cy="99.9" r="1.1"/><circle cx="256.8" cy="106.8" r="1.1"/><circle cx="284.3" cy="124" r="1.1"/><circle cx="284.3" cy="127.5" r="1.1"/><circle cx="287.8" cy="110.3" r="1.1"/><circle cx="284.3" cy="117.1" r="1.1"/><circle cx="284.3" cy="130.9" r="1.1"/><circle cx="287.8" cy="106.8" r="1.1"/><circle cx="284.3" cy="113.7" r="1.1"/><circle cx="291.2" cy="96.5" r="1.1"/><circle cx="291.2" cy="113.7" r="1.1"/><circle cx="287.8" cy="103.4" r="1.1"/><circle cx="280.9" cy="137.8" r="1.1"/><circle cx="280.9" cy="124" r="1.1"/><circle cx="280.9" cy="120.6" r="1.1"/><circle cx="280.9" cy="127.5" r="1.1"/><circle cx="280.9" cy="134.4" r="1.1"/><circle cx="280.9" cy="196.4" r="1.1"/><circle cx="291.2" cy="106.8" r="1.1"/><circle cx="284.3" cy="103.4" r="1.1"/><circle cx="284.3" cy="106.8" r="1.1"/><circle cx="280.9" cy="199.9" r="1.1"/><circle cx="301.6" cy="106.8" r="1.1"/><circle cx="311.9" cy="106.8" r="1.1"/><circle cx="280.9" cy="113.7" r="1.1"/><circle cx="305" cy="103.4" r="1.1"/><circle cx="308.5" cy="106.8" r="1.1"/><circle cx="315.3" cy="110.3" r="1.1"/><circle cx="315.3" cy="113.7" r="1.1"/><circle cx="322.2" cy="110.3" r="1.1"/><circle cx="322.2" cy="106.8" r="1.1"/><circle cx="291.2" cy="110.3" r="1.1"/><circle cx="318.8" cy="106.8" r="1.1"/><circle cx="315.3" cy="106.8" r="1.1"/><circle cx="291.2" cy="186.1" r="1.1"/><circle cx="294.7" cy="106.8" r="1.1"/><circle cx="291.2" cy="196.4" r="1.1"/><circle cx="301.6" cy="110.3" r="1.1"/><circle cx="291.2" cy="182.6" r="1"/><circle cx="298.1" cy="103.4" r="1.1"/><circle cx="298.1" cy="96.5" r="1.1"/><circle cx="294.7" cy="103.4" r="1.1"/><circle cx="298.1" cy="106.8" r="1.1"/><circle cx="267.1" cy="110.3" r="1.1"/><circle cx="270.5" cy="124" r="1.1"/><circle cx="270.5" cy="117.1" r="1.1"/><circle cx="270.5" cy="103.4" r="1.1"/><circle cx="270.5" cy="110.3" r="1.1"/><circle cx="270.5" cy="99.9" r="1.1"/><circle cx="270.5" cy="113.7" r="1.1"/><circle cx="270.5" cy="137.8" r="1.1"/><circle cx="270.5" cy="134.4" r="1.1"/><circle cx="280.9" cy="110.3" r="1.1"/><circle cx="270.5" cy="127.5" r="1.1"/><circle cx="274" cy="106.8" r="1.1"/><circle cx="267.1" cy="99.9" r="1.1"/><circle cx="267.1" cy="124" r="1.1"/><circle cx="267.1" cy="103.4" r="1.1"/><circle cx="267.1" cy="134.4" r="1.1"/><circle cx="267.1" cy="106.8" r="1.1"/><circle cx="267.1" cy="117.1" r="1.1"/><circle cx="267.1" cy="130.9" r="1.1"/><circle cx="267.1" cy="137.8" r="1.1"/><circle cx="267.1" cy="120.6" r="1.1"/><circle cx="270.5" cy="141.3" r="1.1"/><circle cx="274" cy="103.4" r="1.1"/><circle cx="277.4" cy="117.1" r="1.1"/><circle cx="277.4" cy="99.9" r="1.1"/><circle cx="277.4" cy="103.4" r="1.1"/><circle cx="277.4" cy="120.6" r="1.1"/><circle cx="277.4" cy="124" r="1.1"/><circle cx="277.4" cy="134.4" r="1.1"/><circle cx="277.4" cy="130.9" r="1.1"/><circle cx="280.9" cy="103.4" r="1.1"/><circle cx="277.4" cy="137.8" r="1.1"/><circle cx="277.4" cy="106.8" r="1.1"/><circle cx="274" cy="127.5" r="1.1"/><circle cx="274" cy="113.7" r="1.1"/><circle cx="274" cy="117.1" r="1.1"/><circle cx="274" cy="120.6" r="1.1"/><circle cx="274" cy="141.3" r="1.1"/><circle cx="274" cy="158.5" r="1.1"/><circle cx="274" cy="130.9" r="1.1"/><circle cx="274" cy="151.6" r="1.1"/><circle cx="277.4" cy="110.3" r="1.1"/><circle cx="177.5" cy="151.6" r="1.1"/><circle cx="187.8" cy="141.3" r="1.1"/><circle cx="187.8" cy="113.7" r="1.1"/><circle cx="187.8" cy="110.3" r="1.1"/><circle cx="187.8" cy="106.8" r="1.1"/><circle cx="187.8" cy="155.1" r="1.1"/><circle cx="187.8" cy="144.7" r="1.1"/><circle cx="191.3" cy="113.7" r="1.1"/><circle cx="191.3" cy="117.1" r="1.1"/><circle cx="187.8" cy="151.6" r="1.1"/><circle cx="191.3" cy="106.8" r="1.1"/><circle cx="191.3" cy="103.4" r="1.1"/><circle cx="184.4" cy="130.9" r="1.1"/><circle cx="184.4" cy="127.5" r="1.1"/><circle cx="201.6" cy="124" r="1.1"/><circle cx="184.4" cy="134.4" r="1.1"/><circle cx="184.4" cy="161.9" r="1.1"/><circle cx="184.4" cy="158.5" r="1.1"/><circle cx="184.4" cy="155.1" r="1.1"/><circle cx="184.4" cy="144.7" r=".4"/><circle cx="184.4" cy="151.6" r="1.1"/><circle cx="191.3" cy="155.1" r="1.1"/><circle cx="198.2" cy="144.7" r="1.1"/><circle cx="198.2" cy="141.3" r="1.1"/><circle cx="198.2" cy="124" r="1.1"/><circle cx="198.2" cy="120.6" r="1.1"/><circle cx="184.4" cy="106.8" r="1.1"/><circle cx="198.2" cy="151.6" r="1.1"/><circle cx="201.6" cy="113.7" r="1.1"/><circle cx="201.6" cy="110.3" r="1.1"/><circle cx="198.2" cy="106.8" r="1.1"/><circle cx="201.6" cy="117.1" r="1.1"/><circle cx="198.2" cy="148.2" r=".8"/><circle cx="191.3" cy="161.9" r="1.1"/><circle cx="194.7" cy="110.3" r="1.1"/><circle cx="191.3" cy="165.4" r="1.1"/><circle cx="198.2" cy="110.3" r="1.1"/><circle cx="191.3" cy="158.5" r="1.1"/><circle cx="194.7" cy="113.7" r="1.1"/><circle cx="194.7" cy="120.6" r="1.1"/><circle cx="198.2" cy="113.7" r="1.1"/><circle cx="194.7" cy="117.1" r="1.1"/><circle cx="184.4" cy="89.6" r="1.1"/><circle cx="163.7" cy="151.6" r="1.1"/><circle cx="163.7" cy="134.4" r="1.1"/><circle cx="163.7" cy="130.9" r="1.1"/><circle cx="163.7" cy="127.5" r="1.1"/><circle cx="163.7" cy="144.7" r="1.1"/><circle cx="163.7" cy="124" r=".6"/><circle cx="163.7" cy="148.2" r="1.1"/><circle cx="167.2" cy="134.4" r="1.1"/><circle cx="174.1" cy="124" r="1.1"/><circle cx="167.2" cy="137.8" r="1.1"/><circle cx="170.6" cy="130.9" r="1.1"/><circle cx="139.6" cy="89.6" r="1.1"/><circle cx="146.5" cy="86.1" r="1.1"/><circle cx="139.6" cy="93" r="1.1"/><circle cx="136.1" cy="82.7" r="1.1"/><circle cx="184.4" cy="110.3" r="1.1"/><circle cx="139.6" cy="82.7" r="1.1"/><circle cx="146.5" cy="93" r="1.1"/><circle cx="146.5" cy="89.6" r="1.1"/><circle cx="143" cy="82.7" r=".6"/><circle cx="139.6" cy="86.1" r="1.1"/><circle cx="180.9" cy="89.6" r="1.1"/><circle cx="180.9" cy="117.1" r="1.1"/><circle cx="180.9" cy="113.7" r="1.1"/><circle cx="180.9" cy="93" r="1.1"/><circle cx="177.5" cy="155.1" r="1.1"/><circle cx="180.9" cy="106.8" r=".4"/><circle cx="180.9" cy="127.5" r="1.1"/><circle cx="180.9" cy="155.1" r="1.1"/><circle cx="180.9" cy="124" r="1.1"/><circle cx="180.9" cy="130.9" r="1.1"/><circle cx="174.1" cy="134.4" r="1.1"/><circle cx="136.1" cy="86.1" r="1.1"/><circle cx="174.1" cy="120.6" r="1.1"/><circle cx="174.1" cy="117.1" r="1.1"/><circle cx="174.1" cy="151.6" r="1.1"/><circle cx="174.1" cy="130.9" r="1.1"/><circle cx="177.5" cy="127.5" r="1.1"/><circle cx="177.5" cy="141.3" r=".6"/><circle cx="177.5" cy="120.6" r="1.1"/><circle cx="174.1" cy="148.2" r="1.1"/><circle cx="232.6" cy="124" r="1.1"/><circle cx="222.3" cy="113.7" r="1.1"/><circle cx="225.7" cy="124" r="1.1"/><circle cx="229.2" cy="103.4" r="1.1"/><circle cx="225.7" cy="127.5" r="1.1"/><circle cx="232.6" cy="110.3" r="1.1"/><circle cx="229.2" cy="110.3" r="1.1"/><circle cx="101.7" cy="120.6" r="1.1"/><circle cx="229.2" cy="117.1" r="1.1"/><circle cx="201.6" cy="127.5" r="1.1"/><circle cx="229.2" cy="120.6" r="1.1"/><circle cx="229.2" cy="113.7" r="1.1"/><circle cx="222.3" cy="137.8" r="1.1"/><circle cx="222.3" cy="130.9" r="1.1"/><circle cx="222.3" cy="124" r="1.1"/><circle cx="222.3" cy="120.6" r="1.1"/><circle cx="225.7" cy="117.1" r="1.1"/><circle cx="225.7" cy="130.9" r="1.1"/><circle cx="225.7" cy="113.7" r="1.1"/><circle cx="225.7" cy="103.4" r="1.1"/><circle cx="222.3" cy="134.4" r="1.1"/><circle cx="229.2" cy="99.9" r="1.1"/><circle cx="239.5" cy="106.8" r="1.1"/><circle cx="236.1" cy="137.8" r="1.1"/><circle cx="236.1" cy="141.3" r="1.1"/><circle cx="236.1" cy="127.5" r="1.1"/><circle cx="236.1" cy="134.4" r="1.1"/><circle cx="239.5" cy="103.4" r="1.1"/><circle cx="239.5" cy="99.9" r="1.1"/><circle cx="239.5" cy="117.1" r="1.1"/><circle cx="239.5" cy="113.7" r="1.1"/><circle cx="239.5" cy="120.6" r="1.1"/><circle cx="236.1" cy="103.4" r="1.1"/><circle cx="236.1" cy="124" r="1.1"/><circle cx="232.6" cy="137.8" r="1.1"/><circle cx="232.6" cy="134.4" r="1.1"/><circle cx="239.5" cy="127.5" r="1.1"/><circle cx="232.6" cy="130.9" r="1.1"/><circle cx="236.1" cy="110.3" r="1.1"/><circle cx="236.1" cy="113.7" r="1.1"/><circle cx="232.6" cy="120.6" r="1.1"/><circle cx="236.1" cy="117.1" r="1.1"/><circle cx="232.6" cy="113.7" r="1.1"/><circle cx="208.5" cy="130.9" r="1.1"/><circle cx="208.5" cy="120.6" r="1.1"/><circle cx="208.5" cy="124" r="1.1"/><circle cx="212" cy="113.7" r="1.1"/><circle cx="208.5" cy="134.4" r="1.1"/><circle cx="212" cy="117.1" r="1.1"/><circle cx="208.5" cy="148.2" r="1.1"/><circle cx="208.5" cy="110.3" r="1.1"/><circle cx="208.5" cy="144.7" r="1.1"/><circle cx="208.5" cy="151.6" r="1.1"/><circle cx="208.5" cy="117.1" r="1.1"/><circle cx="205.1" cy="113.7" r="1.1"/><circle cx="205.1" cy="127.5" r="1.1"/><circle cx="205.1" cy="144.7" r="1.1"/><circle cx="205.1" cy="120.6" r="1.1"/><circle cx="205.1" cy="117.1" r="1.1"/><circle cx="205.1" cy="130.9" r="1.1"/><circle cx="205.1" cy="148.2" r="1.1"/><circle cx="222.3" cy="110.3" r="1.1"/><circle cx="205.1" cy="137.8" r="1.1"/><circle cx="205.1" cy="141.3" r="1.1"/><circle cx="215.4" cy="141.3" r="1.1"/><circle cx="218.9" cy="110.3" r="1.1"/><circle cx="215.4" cy="137.8" r="1.1"/><circle cx="215.4" cy="144.7" r="1.1"/><circle cx="218.9" cy="106.8" r=".8"/><circle cx="218.9" cy="120.6" r="1.1"/><circle cx="218.9" cy="117.1" r="1.1"/><circle cx="218.9" cy="96.5" r="1.1"/><circle cx="215.4" cy="127.5" r="1.1"/><circle cx="218.9" cy="124" r="1.1"/><circle cx="215.4" cy="103.4" r="1.1"/><circle cx="212" cy="151.6" r="1.1"/><circle cx="212" cy="137.8" r="1.1"/><circle cx="212" cy="127.5" r="1.1"/><circle cx="212" cy="124" r="1.1"/><circle cx="212" cy="110.3" r="1.1"/><circle cx="215.4" cy="99.9" r="1.1"/><circle cx="215.4" cy="130.9" r="1.1"/><circle cx="212" cy="148.2" r="1.1"/><circle cx="215.4" cy="124" r="1.1"/><circle cx="122.4" cy="106.8" r="1.1"/><circle cx="236.1" cy="130.9" r="1.1"/><circle cx="236.1" cy="165.4" r="1.1"/><circle cx="236.1" cy="148.2" r="1.1"/><circle cx="236.1" cy="168.8" r="1.1"/><circle cx="236.1" cy="151.6" r="1.1"/><circle cx="236.1" cy="144.7" r="1.1"/><circle cx="232.6" cy="155.1" r="1.1"/><circle cx="229.2" cy="106.8" r="1.1"/><circle cx="236.1" cy="106.8" r="1.1"/><circle cx="236.1" cy="120.6" r="1.1"/><circle cx="232.6" cy="158.5" r="1.1"/><circle cx="239.5" cy="134.4" r="1.1"/><circle cx="239.5" cy="155.1" r="1.1"/><circle cx="239.5" cy="148.2" r="1.1"/><circle cx="239.5" cy="158.5" r="1.1"/><circle cx="239.5" cy="151.6" r="1.1"/><circle cx="236.1" cy="158.5" r="1.1"/><circle cx="236.1" cy="161.9" r="1.1"/><circle cx="236.1" cy="155.1" r="1.1"/><circle cx="239.5" cy="124" r="1.1"/><circle cx="239.5" cy="110.3" r="1.1"/><circle cx="229.2" cy="127.5" r="1.1"/><circle cx="229.2" cy="137.8" r="1.1"/><circle cx="229.2" cy="144.7" r="1.1"/><circle cx="229.2" cy="155.1" r="1.1"/><circle cx="229.2" cy="141.3" r="1.1"/><circle cx="229.2" cy="158.5" r="1.1"/><circle cx="239.5" cy="161.9" r="1.1"/><circle cx="229.2" cy="134.4" r="1.1"/><circle cx="229.2" cy="124" r="1.1"/><circle cx="229.2" cy="151.6" r="1.1"/><circle cx="232.6" cy="161.9" r="1.1"/><circle cx="229.2" cy="130.9" r="1.1"/><circle cx="232.6" cy="144.7" r="1.1"/><circle cx="232.6" cy="148.2" r="1.1"/><circle cx="232.6" cy="168.8" r=".4"/><circle cx="232.6" cy="165.4" r="1.1"/><circle cx="232.6" cy="127.5" r="1.1"/><circle cx="232.6" cy="141.3" r="1.1"/><circle cx="232.6" cy="103.4" r="1.1"/><circle cx="232.6" cy="117.1" r="1.1"/><circle cx="229.2" cy="148.2" r="1.1"/><circle cx="232.6" cy="151.6" r="1.1"/><circle cx="253.3" cy="137.8" r="1.1"/><circle cx="253.3" cy="151.6" r="1.1"/><circle cx="253.3" cy="161.9" r="1.1"/><circle cx="253.3" cy="124" r="1.1"/><circle cx="253.3" cy="158.5" r="1.1"/><circle cx="256.8" cy="182.6" r="1.1"/><circle cx="253.3" cy="113.7" r="1.1"/><circle cx="253.3" cy="155.1" r="1.1"/><circle cx="249.9" cy="155.1" r="1.1"/><circle cx="249.9" cy="158.5" r="1.1"/><circle cx="256.8" cy="127.5" r="1.1"/><circle cx="256.8" cy="144.7" r="1.1"/><circle cx="256.8" cy="141.3" r="1.1"/><circle cx="249.9" cy="151.6" r="1.1"/><circle cx="256.8" cy="148.2" r="1.1"/><circle cx="256.8" cy="124" r="1.1"/><circle cx="253.3" cy="165.4" r="1.1"/><circle cx="256.8" cy="103.4" r="1.1"/><circle cx="256.8" cy="117.1" r="1.1"/><circle cx="256.8" cy="120.6" r="1.1"/><circle cx="246.4" cy="144.7" r="1.1"/><circle cx="243" cy="151.6" r="1.1"/><circle cx="243" cy="155.1" r="1.1"/><circle cx="243" cy="148.2" r="1.1"/><circle cx="246.4" cy="106.8" r="1.1"/><circle cx="243" cy="158.5" r="1.1"/><circle cx="246.4" cy="117.1" r="1.1"/><circle cx="243" cy="127.5" r="1.1"/><circle cx="243" cy="141.3" r="1.1"/><circle cx="243" cy="144.7" r="1.1"/><circle cx="243" cy="161.9" r="1.1"/><circle cx="246.4" cy="148.2" r="1.1"/><circle cx="246.4" cy="151.6" r="1.1"/><circle cx="249.9" cy="120.6" r="1.1"/><circle cx="249.9" cy="110.3" r="1.1"/><circle cx="249.9" cy="134.4" r="1.1"/><circle cx="249.9" cy="148.2" r="1.1"/><circle cx="246.4" cy="155.1" r="1.1"/><circle cx="246.4" cy="130.9" r="1.1"/><circle cx="243" cy="113.7" r="1.1"/><circle cx="246.4" cy="158.5" r="1.1"/><circle cx="249.9" cy="161.9" r="1.1"/><circle cx="205.1" cy="172.3" r="1.1"/><circle cx="205.1" cy="168.8" r="1.1"/><circle cx="205.1" cy="165.4" r="1.1"/><circle cx="208.5" cy="113.7" r="1.1"/><circle cx="205.1" cy="161.9" r="1.1"/><circle cx="208.5" cy="127.5" r="1.1"/><circle cx="212" cy="120.6" r="1.1"/><circle cx="205.1" cy="155.1" r="1.1"/><circle cx="205.1" cy="175.7" r="1.1"/><circle cx="205.1" cy="179.2" r="1.1"/><circle cx="205.1" cy="199.9" r="1.1"/><circle cx="208.5" cy="199.9" r="1.1"/><circle cx="208.5" cy="175.7" r="1.1"/><circle cx="208.5" cy="141.3" r="1.1"/><circle cx="208.5" cy="172.3" r="1.1"/><circle cx="208.5" cy="196.4" r="1.1"/><circle cx="208.5" cy="158.5" r="1.1"/><circle cx="208.5" cy="155.1" r="1.1"/><circle cx="208.5" cy="161.9" r="1.1"/><circle cx="208.5" cy="165.4" r="1.1"/><circle cx="205.1" cy="158.5" r="1.1"/><circle cx="201.6" cy="148.2" r="1.1"/><circle cx="201.6" cy="151.6" r="1.1"/><circle cx="201.6" cy="193" r="1.1"/><circle cx="201.6" cy="144.7" r="1.1"/><circle cx="201.6" cy="189.5" r="1.1"/><circle cx="201.6" cy="137.8" r="1.1"/><circle cx="201.6" cy="120.6" r="1.1"/><circle cx="201.6" cy="182.6" r="1.1"/><circle cx="201.6" cy="130.9" r="1.1"/><circle cx="205.1" cy="151.6" r="1.1"/><circle cx="201.6" cy="134.4" r="1.1"/><circle cx="205.1" cy="124" r="1.1"/><circle cx="201.6" cy="155.1" r="1.1"/><circle cx="201.6" cy="179.2" r="1.1"/><circle cx="201.6" cy="158.5" r="1.1"/><circle cx="205.1" cy="134.4" r="1.1"/><circle cx="201.6" cy="175.7" r="1.1"/><circle cx="201.6" cy="172.3" r="1.1"/><circle cx="201.6" cy="161.9" r="1.1"/><circle cx="201.6" cy="168.8" r="1.1"/><circle cx="215.4" cy="158.5" r="1.1"/><circle cx="222.3" cy="127.5" r="1.1"/><circle cx="222.3" cy="141.3" r="1.1"/><circle cx="222.3" cy="148.2" r="1.1"/><circle cx="218.9" cy="137.8" r="1.1"/><circle cx="222.3" cy="117.1" r="1.1"/><circle cx="218.9" cy="155.1" r="1.1"/><circle cx="222.3" cy="155.1" r="1.1"/><circle cx="222.3" cy="106.8" r="1.1"/><circle cx="218.9" cy="151.6" r="1.1"/><circle cx="218.9" cy="148.2" r="1.1"/><circle cx="222.3" cy="144.7" r="1.1"/><circle cx="225.7" cy="151.6" r="1.1"/><circle cx="225.7" cy="148.2" r="1.1"/><circle cx="225.7" cy="155.1" r="1.1"/><circle cx="225.7" cy="144.7" r="1.1"/><circle cx="222.3" cy="151.6" r="1.1"/><circle cx="225.7" cy="120.6" r="1.1"/><circle cx="212" cy="130.9" r="1.1"/><circle cx="225.7" cy="110.3" r="1.1"/><circle cx="225.7" cy="134.4" r="1.1"/><circle cx="225.7" cy="137.8" r="1.1"/><circle cx="215.4" cy="113.7" r="1.1"/><circle cx="215.4" cy="117.1" r="1.1"/><circle cx="215.4" cy="120.6" r="1.1"/><circle cx="218.9" cy="144.7" r="1.1"/><circle cx="215.4" cy="110.3" r="1.1"/><circle cx="212" cy="161.9" r="1.1"/><circle cx="212" cy="165.4" r="1.1"/><circle cx="212" cy="158.5" r="1.1"/><circle cx="212" cy="134.4" r="1.1"/><circle cx="215.4" cy="148.2" r="1.1"/><circle cx="215.4" cy="134.4" r="1.1"/><circle cx="218.9" cy="134.4" r="1.1"/><circle cx="215.4" cy="155.1" r="1.1"/><circle cx="218.9" cy="127.5" r="1.1"/><circle cx="218.9" cy="141.3" r="1.1"/><circle cx="218.9" cy="130.9" r="1.1"/><circle cx="215.4" cy="151.6" r="1.1"/><circle cx="225.7" cy="141.3" r="1.1"/><circle cx="215.4" cy="161.9" r="1.1"/><circle cx="218.9" cy="113.7" r="1.1"/><circle cx="298.1" cy="206.7" r="1.1"/><circle cx="291.2" cy="213.6" r="1.1"/><circle cx="291.2" cy="210.2" r="1.1"/><circle cx="291.2" cy="144.7" r="1.1"/><circle cx="291.2" cy="206.7" r="1.1"/><circle cx="291.2" cy="199.9" r="1.1"/><circle cx="291.2" cy="203.3" r="1.1"/><circle cx="287.8" cy="182.6" r="1.1"/><circle cx="291.2" cy="120.6" r="1.1"/><circle cx="291.2" cy="103.4" r="1.1"/><circle cx="291.2" cy="117.1" r="1.1"/><circle cx="294.7" cy="199.9" r="1.1"/><circle cx="287.8" cy="196.4" r="1.1"/><circle cx="294.7" cy="206.7" r="1.1"/><circle cx="294.7" cy="203.3" r="1.1"/><circle cx="294.7" cy="196.4" r="1.1"/><circle cx="294.7" cy="210.2" r="1.1"/><circle cx="294.7" cy="113.7" r="1.1"/><circle cx="294.7" cy="110.3" r="1.1"/><circle cx="294.7" cy="117.1" r="1.1"/><circle cx="294.7" cy="213.6" r="1.1"/><circle cx="294.7" cy="186.1" r="1.1"/><circle cx="284.3" cy="196.4" r="1.1"/><circle cx="284.3" cy="193" r="1.1"/><circle cx="287.8" cy="117.1" r="1.1"/><circle cx="287.8" cy="199.9" r="1.1"/><circle cx="284.3" cy="199.9" r="1.1"/><circle cx="284.3" cy="206.7" r="1.1"/><circle cx="284.3" cy="203.3" r="1.1"/><circle cx="284.3" cy="148.2" r="1.1"/><circle cx="284.3" cy="182.6" r="1.1"/><circle cx="287.8" cy="120.6" r="1.1"/><circle cx="287.8" cy="113.7" r="1.1"/><circle cx="287.8" cy="210.2" r="1.1"/><circle cx="287.8" cy="206.7" r="1.1"/><circle cx="287.8" cy="213.6" r="1.1"/><circle cx="287.8" cy="203.3" r="1.1"/><circle cx="287.8" cy="124" r="1.1"/><circle cx="287.8" cy="130.9" r="1.1"/><circle cx="287.8" cy="127.5" r="1.1"/><circle cx="287.8" cy="148.2" r=".7"/><circle cx="287.8" cy="134.4" r="1.1"/><circle cx="318.8" cy="117.1" r="1.1"/><circle cx="315.3" cy="117.1" r="1.1"/><circle cx="318.8" cy="113.7" r="1.1"/><circle cx="308.5" cy="110.3" r="1.1"/><circle cx="318.8" cy="110.3" r="1.1"/><circle cx="311.9" cy="113.7" r="1.1"/><circle cx="311.9" cy="110.3" r="1.1"/><circle cx="298.1" cy="110.3" r="1.1"/><circle cx="308.5" cy="120.6" r="1.1"/><circle cx="308.5" cy="113.7" r="1.1"/><circle cx="308.5" cy="124" r="1.1"/><circle cx="315.3" cy="224" r="1.1"/><circle cx="325.7" cy="103.4" r="1.1"/><circle cx="325.7" cy="106.8" r="1.1"/><circle cx="284.3" cy="137.8" r="1.1"/><circle cx="332.6" cy="110.3" r="1.1"/><circle cx="329.1" cy="110.3" r="1.1"/><circle cx="322.2" cy="113.7" r="1.1"/><circle cx="318.8" cy="220.5" r="1.1"/><circle cx="322.2" cy="217.1" r="1.1"/><circle cx="325.7" cy="110.3" r="1.1"/><circle cx="311.9" cy="117.1" r="1.1"/><circle cx="298.1" cy="199.9" r="1.1"/><circle cx="305" cy="127.5" r="1.1"/><circle cx="301.6" cy="120.6" r="1.1"/><circle cx="301.6" cy="113.7" r="1.1"/><circle cx="301.6" cy="117.1" r="1.1"/><circle cx="198.2" cy="182.6" r="1.1"/><circle cx="298.1" cy="117.1" r="1.1"/><circle cx="298.1" cy="113.7" r="1.1"/><circle cx="298.1" cy="213.6" r="1.1"/><circle cx="298.1" cy="210.2" r="1.1"/><circle cx="298.1" cy="203.3" r="1.1"/><circle cx="305" cy="124" r="1.1"/><circle cx="305" cy="113.7" r="1.1"/><circle cx="305" cy="117.1" r="1.1"/><circle cx="305" cy="130.9" r=".9"/><circle cx="301.6" cy="210.2" r=".4"/><circle cx="301.6" cy="203.3" r="1.1"/><circle cx="305" cy="110.3" r="1.1"/><circle cx="301.6" cy="206.7" r="1.1"/><circle cx="305" cy="106.8" r="1.1"/><circle cx="260.2" cy="120.6" r="1.1"/><circle cx="263.7" cy="155.1" r="1.1"/><circle cx="263.7" cy="179.2" r="1.1"/><circle cx="263.7" cy="158.5" r="1.1"/><circle cx="267.1" cy="113.7" r="1.1"/><circle cx="267.1" cy="127.5" r="1.1"/><circle cx="263.7" cy="137.8" r="1.1"/><circle cx="263.7" cy="151.6" r="1.1"/><circle cx="263.7" cy="110.3" r="1.1"/><circle cx="263.7" cy="124" r="1.1"/><circle cx="267.1" cy="141.3" r="1.1"/><circle cx="267.1" cy="148.2" r="1.1"/><circle cx="267.1" cy="151.6" r="1.1"/><circle cx="270.5" cy="106.8" r="1.1"/><circle cx="267.1" cy="155.1" r="1.1"/><circle cx="267.1" cy="144.7" r="1.1"/><circle cx="270.5" cy="120.6" r="1.1"/><circle cx="260.2" cy="158.5" r="1.1"/><circle cx="267.1" cy="158.5" r="1.1"/><circle cx="267.1" cy="182.6" r="1.1"/><circle cx="267.1" cy="179.2" r="1.1"/><circle cx="256.8" cy="179.2" r="1.1"/><circle cx="256.8" cy="155.1" r="1.1"/><circle cx="260.2" cy="124" r="1.1"/><circle cx="260.2" cy="106.8" r="1.1"/><circle cx="256.8" cy="158.5" r="1.1"/><circle cx="270.5" cy="130.9" r="1.1"/><circle cx="256.8" cy="151.6" r="1.1"/><circle cx="256.8" cy="168.8" r="1.1"/><circle cx="256.8" cy="175.7" r="1.1"/><circle cx="256.8" cy="165.4" r="1.1"/><circle cx="256.8" cy="161.9" r="1.1"/><circle cx="260.2" cy="168.8" r="1.1"/><circle cx="260.2" cy="186.1" r="1.1"/><circle cx="260.2" cy="161.9" r="1.1"/><circle cx="260.2" cy="165.4" r="1.1"/><circle cx="260.2" cy="148.2" r="1.1"/><circle cx="260.2" cy="130.9" r="1.1"/><circle cx="260.2" cy="127.5" r="1.1"/><circle cx="260.2" cy="144.7" r="1.1"/><circle cx="260.2" cy="155.1" r="1.1"/><circle cx="260.2" cy="151.6" r="1.1"/><circle cx="274" cy="134.4" r="1.1"/><circle cx="277.4" cy="172.3" r=".9"/><circle cx="277.4" cy="144.7" r="1.1"/><circle cx="277.4" cy="210.2" r="1.1"/><circle cx="277.4" cy="203.3" r="1.1"/><circle cx="277.4" cy="206.7" r="1.1"/><circle cx="277.4" cy="113.7" r="1.1"/><circle cx="277.4" cy="141.3" r="1.1"/><circle cx="277.4" cy="199.9" r="1.1"/><circle cx="274" cy="165.4" r="1.1"/><circle cx="277.4" cy="127.5" r="1.1"/><circle cx="280.9" cy="206.7" r="1.1"/><circle cx="284.3" cy="110.3" r="1.1"/><circle cx="274" cy="179.2" r=".8"/><circle cx="280.9" cy="203.3" r="1.1"/><circle cx="277.4" cy="196.4" r="1.1"/><circle cx="284.3" cy="120.6" r="1.1"/><circle cx="280.9" cy="141.3" r="1.1"/><circle cx="280.9" cy="106.8" r="1.1"/><circle cx="280.9" cy="117.1" r="1.1"/><circle cx="280.9" cy="130.9" r="1.1"/><circle cx="270.5" cy="144.7" r="1.1"/><circle cx="270.5" cy="179.2" r="1.1"/><circle cx="270.5" cy="206.7" r="1.1"/><circle cx="270.5" cy="199.9" r="1.1"/><circle cx="270.5" cy="175.7" r="1.1"/><circle cx="270.5" cy="158.5" r="1.1"/><circle cx="270.5" cy="151.6" r="1.1"/><circle cx="270.5" cy="210.2" r="1.1"/><circle cx="270.5" cy="203.3" r="1.1"/><circle cx="270.5" cy="148.2" r="1.1"/><circle cx="274" cy="168.8" r="1.1"/><circle cx="270.5" cy="155.1" r="1.1"/><circle cx="274" cy="206.7" r="1.1"/><circle cx="274" cy="203.3" r="1.1"/><circle cx="274" cy="199.9" r="1.1"/><circle cx="274" cy="182.6" r="1.1"/><circle cx="274" cy="137.8" r="1.1"/><circle cx="274" cy="210.2" r="1.1"/><circle cx="284.3" cy="134.4" r="1.1"/><circle cx="274" cy="124" r="1.1"/><circle cx="274" cy="110.3" r="1.1"/><circle cx="187.8" cy="130.9" r="1.1"/><circle cx="129.3" cy="196.4" r="1.1"/><circle cx="129.3" cy="193" r="1.1"/><circle cx="129.3" cy="189.5" r="1.1"/><circle cx="136.1" cy="103.4" r="1.1"/><circle cx="129.3" cy="199.9" r="1.1"/><circle cx="129.3" cy="113.7" r="1.1"/><circle cx="125.8" cy="193" r="1.1"/><circle cx="129.3" cy="89.6" r="1.1"/><circle cx="129.3" cy="110.3" r="1.1"/><circle cx="132.7" cy="86.1" r="1.1"/><circle cx="129.3" cy="186.1" r="1.1"/><circle cx="132.7" cy="110.3" r="1.1"/><circle cx="132.7" cy="189.5" r="1.1"/><circle cx="132.7" cy="186.1" r="1.1"/><circle cx="132.7" cy="106.8" r="1.1"/><circle cx="136.1" cy="106.8" r="1.1"/><circle cx="132.7" cy="96.5" r="1.1"/><circle cx="132.7" cy="103.4" r="1.1"/><circle cx="132.7" cy="99.9" r="1.1"/><circle cx="132.7" cy="93" r="1.1"/><circle cx="132.7" cy="89.6" r="1.1"/><circle cx="125.8" cy="196.4" r="1.1"/><circle cx="122.4" cy="110.3" r="1.1"/><circle cx="122.4" cy="99.9" r="1.1"/><circle cx="122.4" cy="89.6" r="1.1"/><circle cx="122.4" cy="96.5" r="1.1"/><circle cx="118.9" cy="193" r="1.1"/><circle cx="122.4" cy="103.4" r="1.1"/><circle cx="118.9" cy="186.1" r="1.1"/><circle cx="118.9" cy="189.5" r="1.1"/><circle cx="118.9" cy="179.2" r="1.1"/><circle cx="118.9" cy="182.6" r="1.1"/><circle cx="125.8" cy="117.1" r="1.1"/><circle cx="122.4" cy="113.7" r="1.1"/><circle cx="125.8" cy="110.3" r="1.1"/><circle cx="125.8" cy="106.8" r="1.1"/><circle cx="125.8" cy="199.9" r="1.1"/><circle cx="125.8" cy="113.7" r="1.1"/><circle cx="125.8" cy="103.4" r="1.1"/><circle cx="122.4" cy="206.7" r="1.1"/><circle cx="122.4" cy="203.3" r="1.1"/><circle cx="122.4" cy="199.9" r="1.1"/><circle cx="122.4" cy="93" r="1.1"/><circle cx="156.8" cy="161.9" r="1.1"/><circle cx="156.8" cy="155.1" r="1.1"/><circle cx="156.8" cy="158.5" r="1.1"/><circle cx="160.3" cy="127.5" r="1.1"/><circle cx="160.3" cy="141.3" r="1.1"/><circle cx="156.8" cy="165.4" r="1.1"/><circle cx="156.8" cy="172.3" r="1.1"/><circle cx="153.4" cy="158.5" r="1.1"/><circle cx="160.3" cy="144.7" r="1.1"/><circle cx="156.8" cy="168.8" r="1.1"/><circle cx="160.3" cy="151.6" r="1.1"/><circle cx="160.3" cy="161.9" r="1.1"/><circle cx="160.3" cy="155.1" r="1.1"/><circle cx="160.3" cy="168.8" r="1.1"/><circle cx="163.7" cy="141.3" r="1.1"/><circle cx="160.3" cy="165.4" r="1.1"/><circle cx="153.4" cy="161.9" r="1.1"/><circle cx="160.3" cy="158.5" r="1.1"/><circle cx="160.3" cy="175.7" r="1.1"/><circle cx="160.3" cy="172.3" r="1.1"/><circle cx="149.9" cy="86.1" r="1.1"/><circle cx="143" cy="93" r="1.1"/><circle cx="139.6" cy="96.5" r="1.1"/><circle cx="143" cy="103.4" r="1.1"/><circle cx="143" cy="96.5" r="1.1"/><circle cx="143" cy="99.9" r="1.1"/><circle cx="143" cy="106.8" r="1.1"/><circle cx="139.6" cy="99.9" r="1.1"/><circle cx="139.6" cy="106.8" r="1.1"/><circle cx="153.4" cy="165.4" r="1.1"/><circle cx="139.6" cy="103.4" r="1.1"/><circle cx="136.1" cy="96.5" r="1.1"/><circle cx="149.9" cy="96.5" r="1.1"/><circle cx="136.1" cy="99.9" r="1.1"/><circle cx="149.9" cy="93" r="1.1"/><circle cx="153.4" cy="168.8" r="1.1"/><circle cx="143" cy="86.1" r="1.1"/><circle cx="149.9" cy="113.7" r="1.1"/><circle cx="143" cy="89.6" r="1.1"/><circle cx="146.5" cy="103.4" r="1.1"/><circle cx="146.5" cy="96.5" r="1.1"/><circle cx="108.6" cy="130.9" r="1.1"/><circle cx="198.2" cy="186.1" r="1.1"/><circle cx="105.1" cy="193" r="1.1"/><circle cx="105.1" cy="199.9" r="1.1"/><circle cx="105.1" cy="189.5" r="1.1"/><circle cx="105.1" cy="230.9" r="1"/><circle cx="105.1" cy="234.3" r="1.1"/><circle cx="105.1" cy="134.4" r="1.1"/><circle cx="105.1" cy="130.9" r="1.1"/><circle cx="105.1" cy="186.1" r="1.1"/><circle cx="105.1" cy="137.8" r="1.1"/><circle cx="105.1" cy="203.3" r="1.1"/><circle cx="105.1" cy="227.4" r="1.1"/><circle cx="105.1" cy="206.7" r="1.1"/><circle cx="105.1" cy="210.2" r="1.1"/><circle cx="108.6" cy="93" r="1.1"/><circle cx="105.1" cy="127.5" r="1.1"/><circle cx="105.1" cy="220.5" r="1.1"/><circle cx="105.1" cy="224" r="1.1"/><circle cx="105.1" cy="213.6" r="1.1"/><circle cx="108.6" cy="110.3" r="1.1"/><circle cx="105.1" cy="217.1" r="1.1"/><circle cx="105.1" cy="124" r="1.1"/><circle cx="101.7" cy="172.3" r="1.1"/><circle cx="101.7" cy="186.1" r="1.1"/><circle cx="101.7" cy="141.3" r="1.1"/><circle cx="101.7" cy="189.5" r="1.1"/><circle cx="101.7" cy="175.7" r="1.1"/><circle cx="101.7" cy="127.5" r="1.1"/><circle cx="101.7" cy="130.9" r="1.1"/><circle cx="101.7" cy="134.4" r="1.1"/><circle cx="101.7" cy="137.8" r="1.1"/><circle cx="101.7" cy="182.6" r="1.1"/><circle cx="105.1" cy="89.6" r="1.1"/><circle cx="101.7" cy="217.1" r="1.1"/><circle cx="101.7" cy="179.2" r="1.1"/><circle cx="101.7" cy="220.5" r=".8"/><circle cx="105.1" cy="113.7" r="1.1"/><circle cx="101.7" cy="193" r="1.1"/><circle cx="101.7" cy="230.9" r="1"/><circle cx="101.7" cy="227.4" r="1.1"/><circle cx="101.7" cy="224" r="1.1"/><circle cx="115.5" cy="189.5" r="1.1"/><circle cx="115.5" cy="182.6" r="1.1"/><circle cx="115.5" cy="196.4" r="1.1"/><circle cx="115.5" cy="193" r="1.1"/><circle cx="115.5" cy="210.2" r="1.1"/><circle cx="112" cy="213.6" r="1.1"/><circle cx="118.9" cy="196.4" r="1.1"/><circle cx="112" cy="210.2" r="1.1"/><circle cx="112" cy="206.7" r="1.1"/><circle cx="115.5" cy="96.5" r="1.1"/><circle cx="112" cy="203.3" r="1.1"/><circle cx="115.5" cy="186.1" r="1.1"/><circle cx="118.9" cy="206.7" r="1.1"/><circle cx="118.9" cy="210.2" r="1.1"/><circle cx="118.9" cy="203.3" r="1.1"/><circle cx="108.6" cy="120.6" r="1.1"/><circle cx="118.9" cy="99.9" r="1.1"/><circle cx="115.5" cy="199.9" r="1.1"/><circle cx="115.5" cy="206.7" r="1.1"/><circle cx="115.5" cy="203.3" r="1.1"/><circle cx="118.9" cy="96.5" r="1.1"/><circle cx="118.9" cy="199.9" r="1.1"/><circle cx="108.6" cy="199.9" r="1.1"/><circle cx="108.6" cy="182.6" r="1.1"/><circle cx="108.6" cy="203.3" r="1.1"/><circle cx="108.6" cy="196.4" r="1.1"/><circle cx="108.6" cy="137.8" r="1.1"/><circle cx="108.6" cy="127.5" r="1.1"/><circle cx="108.6" cy="193" r="1.1"/><circle cx="108.6" cy="124" r="1.1"/><circle cx="163.7" cy="155.1" r="1.1"/><circle cx="108.6" cy="134.4" r=".8"/><circle cx="108.6" cy="220.5" r="1.1"/><circle cx="112" cy="93" r="1.1"/><circle cx="108.6" cy="189.5" r="1.1"/><circle cx="112" cy="130.9" r="1.1"/><circle cx="112" cy="127.5" r="1.1"/><circle cx="108.6" cy="217.1" r="1.1"/><circle cx="108.6" cy="186.1" r="1.1"/><circle cx="108.6" cy="206.7" r="1.1"/><circle cx="108.6" cy="213.6" r="1.1"/><circle cx="108.6" cy="210.2" r="1.1"/><circle cx="105.1" cy="196.4" r="1.1"/><circle cx="191.3" cy="127.5" r="1.1"/><circle cx="191.3" cy="134.4" r="1.1"/><circle cx="191.3" cy="130.9" r="1.1"/><circle cx="191.3" cy="137.8" r="1.1"/><circle cx="191.3" cy="141.3" r="1.1"/><circle cx="191.3" cy="124" r="1.1"/><circle cx="187.8" cy="182.6" r="1.1"/><circle cx="187.8" cy="189.5" r="1.1"/><circle cx="187.8" cy="186.1" r="1.1"/><circle cx="191.3" cy="110.3" r="1.1"/><circle cx="191.3" cy="120.6" r="1.1"/><circle cx="191.3" cy="186.1" r="1.1"/><circle cx="191.3" cy="189.5" r="1.1"/><circle cx="191.3" cy="182.6" r="1.1"/><circle cx="191.3" cy="193" r="1.1"/><circle cx="191.3" cy="144.7" r="1.1"/><circle cx="191.3" cy="168.8" r="1.1"/><circle cx="191.3" cy="199.9" r="1.1"/><circle cx="191.3" cy="203.3" r="1.1"/><circle cx="191.3" cy="196.4" r="1.1"/><circle cx="187.8" cy="193" r="1.1"/><circle cx="187.8" cy="179.2" r="1.1"/><circle cx="191.3" cy="179.2" r="1.1"/><circle cx="187.8" cy="158.5" r="1.1"/><circle cx="101.7" cy="124" r="1.1"/><circle cx="187.8" cy="175.7" r="1.1"/><circle cx="187.8" cy="137.8" r="1.1"/><circle cx="187.8" cy="120.6" r="1.1"/><circle cx="187.8" cy="127.5" r="1.1"/><circle cx="187.8" cy="117.1" r="1.1"/><circle cx="187.8" cy="124" r="1.1"/><circle cx="187.8" cy="134.4" r="1.1"/><circle cx="187.8" cy="172.3" r="1.1"/><circle cx="187.8" cy="206.7" r="1.1"/><circle cx="187.8" cy="199.9" r="1.1"/><circle cx="187.8" cy="196.4" r="1.1"/><circle cx="187.8" cy="203.3" r="1.1"/><circle cx="187.8" cy="168.8" r="1.1"/><circle cx="187.8" cy="165.4" r="1.1"/><circle cx="187.8" cy="210.2" r="1.1"/><circle cx="187.8" cy="161.9" r="1.1"/><circle cx="198.2" cy="134.4" r="1.1"/><circle cx="198.2" cy="117.1" r="1.1"/><circle cx="198.2" cy="127.5" r="1.1"/><circle cx="184.4" cy="165.4" r="1.1"/><circle cx="198.2" cy="155.1" r="1.1"/><circle cx="198.2" cy="130.9" r="1.1"/><circle cx="194.7" cy="179.2" r="1.1"/><circle cx="194.7" cy="175.7" r="1.1"/><circle cx="194.7" cy="165.4" r="1.1"/><circle cx="194.7" cy="172.3" r="1.1"/><circle cx="194.7" cy="168.8" r="1.1"/><circle cx="194.7" cy="161.9" r="1.1"/><circle cx="198.2" cy="196.4" r="1.1"/><circle cx="198.2" cy="161.9" r="1.1"/><circle cx="198.2" cy="193" r="1.1"/><circle cx="198.2" cy="189.5" r="1.1"/><circle cx="198.2" cy="168.8" r="1.1"/><circle cx="198.2" cy="179.2" r="1.1"/><circle cx="198.2" cy="172.3" r="1.1"/><circle cx="191.3" cy="175.7" r="1.1"/><circle cx="198.2" cy="165.4" r="1.1"/><circle cx="198.2" cy="175.7" r="1.1"/><circle cx="194.7" cy="130.9" r="1.1"/><circle cx="194.7" cy="144.7" r="1.1"/><circle cx="194.7" cy="134.4" r="1.1"/><circle cx="194.7" cy="141.3" r="1.1"/><circle cx="194.7" cy="124" r="1.1"/><circle cx="194.7" cy="127.5" r="1.1"/><circle cx="191.3" cy="210.2" r="1.1"/><circle cx="191.3" cy="172.3" r="1.1"/><circle cx="194.7" cy="182.6" r="1.1"/><circle cx="194.7" cy="106.8" r="1.1"/><circle cx="191.3" cy="206.7" r="1.1"/><circle cx="194.7" cy="196.4" r="1.1"/><circle cx="194.7" cy="193" r="1.1"/><circle cx="194.7" cy="189.5" r="1.1"/><circle cx="194.7" cy="155.1" r="1.1"/><circle cx="194.7" cy="186.1" r="1.1"/><circle cx="194.7" cy="199.9" r="1.1"/><circle cx="194.7" cy="151.6" r="1.1"/><circle cx="194.7" cy="158.5" r="1.1"/><circle cx="194.7" cy="203.3" r="1.1"/><circle cx="177.5" cy="193" r="1.1"/><circle cx="174.1" cy="161.9" r="1.1"/><circle cx="174.1" cy="137.8" r="1.1"/><circle cx="174.1" cy="155.1" r="1.1"/><circle cx="174.1" cy="175.7" r="1.1"/><circle cx="174.1" cy="158.5" r="1.1"/><circle cx="170.6" cy="168.8" r="1.1"/><circle cx="170.6" cy="165.4" r="1.1"/><circle cx="170.6" cy="161.9" r="1.1"/><circle cx="174.1" cy="127.5" r="1.1"/><circle cx="170.6" cy="158.5" r="1.1"/><circle cx="174.1" cy="165.4" r="1.1"/><circle cx="174.1" cy="172.3" r="1.1"/><circle cx="177.5" cy="130.9" r="1.1"/><circle cx="177.5" cy="158.5" r="1.1"/><circle cx="177.5" cy="182.6" r="1.1"/><circle cx="177.5" cy="134.4" r="1.1"/><circle cx="174.1" cy="168.8" r="1.1"/><circle cx="177.5" cy="89.6" r="1.1"/><circle cx="177.5" cy="113.7" r="1.1"/><circle cx="177.5" cy="117.1" r="1.1"/><circle cx="170.6" cy="151.6" r="1.1"/><circle cx="167.2" cy="141.3" r="1.1"/><circle cx="167.2" cy="148.2" r="1.1"/><circle cx="163.7" cy="172.3" r="1.1"/><circle cx="184.4" cy="168.8" r="1.1"/><circle cx="167.2" cy="172.3" r="1.1"/><circle cx="163.7" cy="161.9" r="1.1"/><circle cx="163.7" cy="168.8" r="1.1"/><circle cx="167.2" cy="168.8" r="1.1"/><circle cx="163.7" cy="175.7" r="1.1"/><circle cx="163.7" cy="158.5" r="1.1"/><circle cx="170.6" cy="137.8" r="1.1"/><circle cx="177.5" cy="186.1" r="1.1"/><circle cx="170.6" cy="148.2" r="1.1"/><circle cx="170.6" cy="172.3" r="1.1"/><circle cx="167.2" cy="165.4" r="1.1"/><circle cx="170.6" cy="155.1" r="1.1"/><circle cx="167.2" cy="161.9" r="1.1"/><circle cx="170.6" cy="134.4" r="1.1"/><circle cx="167.2" cy="158.5" r="1.1"/><circle cx="167.2" cy="155.1" r="1.1"/><circle cx="167.2" cy="151.6" r="1.1"/><circle cx="184.4" cy="113.7" r="1.1"/><circle cx="184.4" cy="137.8" r="1.1"/><circle cx="184.4" cy="203.3" r="1.1"/><circle cx="184.4" cy="206.7" r="1.1"/><circle cx="184.4" cy="210.2" r="1.1"/><circle cx="184.4" cy="141.3" r="1.1"/><circle cx="180.9" cy="158.5" r="1.1"/><circle cx="180.9" cy="165.4" r="1.1"/><circle cx="180.9" cy="172.3" r="1.1"/><circle cx="180.9" cy="161.9" r="1.1"/><circle cx="180.9" cy="168.8" r="1.1"/><circle cx="184.4" cy="199.9" r="1.1"/><circle cx="184.4" cy="179.2" r="1.1"/><circle cx="184.4" cy="172.3" r="1.1"/><circle cx="184.4" cy="182.6" r="1.1"/><circle cx="184.4" cy="175.7" r="1.1"/><circle cx="184.4" cy="196.4" r="1.1"/><circle cx="184.4" cy="193" r="1.1"/><circle cx="184.4" cy="186.1" r="1.1"/><circle cx="184.4" cy="189.5" r="1.1"/><circle cx="180.9" cy="179.2" r="1.1"/><circle cx="163.7" cy="165.4" r="1.1"/><circle cx="177.5" cy="161.9" r="1.1"/><circle cx="177.5" cy="196.4" r="1.1"/><circle cx="180.9" cy="175.7" r="1.1"/><circle cx="180.9" cy="110.3" r="1.1"/><circle cx="177.5" cy="168.8" r="1.1"/><circle cx="177.5" cy="172.3" r="1.1"/><circle cx="177.5" cy="165.4" r="1.1"/><circle cx="177.5" cy="175.7" r="1.1"/><circle cx="180.9" cy="134.4" r="1.1"/><circle cx="180.9" cy="120.6" r="1.1"/><circle cx="180.9" cy="189.5" r="1.1"/><circle cx="180.9" cy="186.1" r="1.1"/><circle cx="180.9" cy="182.6" r="1.1"/><circle cx="177.5" cy="179.2" r="1.1"/><circle cx="180.9" cy="137.8" r="1.1"/><circle cx="180.9" cy="193" r="1.1"/><circle cx="180.9" cy="199.9" r="1.1"/><circle cx="180.9" cy="203.3" r="1.1"/><circle cx="180.9" cy="196.4" r="1.1"/></g><path opacity=".3" fill="#fff" d="M178 133.1c-7.9 0-14.4-6.4-14.4-14.4s6.4-14.4 14.4-14.4c7.9 0 14.4 6.4 14.4 14.4s-6.5 14.4-14.4 14.4zm0-27.8c-7.4 0-13.4 6-13.4 13.4s6 13.4 13.4 13.4 13.4-6 13.4-13.4-6.1-13.4-13.4-13.4z"/><path opacity=".9" fill="#fff" d="M204.2 23.4H5.1c-2.1 0-3.7 1.7-3.7 3.7v79.2c0 2.1 1.7 3.7 3.7 3.7h166l7 9.2 6.3-9.2h19.8c2.1 0 3.7-1.7 3.7-3.7V27.1c0-2-1.7-3.7-3.7-3.7z"/><g fill="#808080"><path d="M45.2 41.8v8.8h5.4v.8h-6.3v-9.6h.9zM55.4 44.6c.4.2.8.5 1 .8.3.3.5.7.6 1.2.1.4.2.9.2 1.4 0 .5-.1 1-.2 1.4-.1.4-.4.8-.6 1.2-.3.3-.6.6-1 .8-.4.2-.9.3-1.4.3s-1-.1-1.4-.3c-.4-.2-.8-.5-1-.8-.3-.3-.5-.7-.6-1.2-.1-.4-.2-.9-.2-1.4 0-.5.1-1 .2-1.4.1-.4.4-.8.6-1.2.3-.3.6-.6 1-.8.4-.2.9-.3 1.4-.3s1 .1 1.4.3zm-2.5.7c-.3.2-.6.4-.8.7-.2.3-.4.6-.5 1-.1.4-.2.7-.2 1.1s.1.7.2 1.1c.1.4.3.7.5 1s.5.5.8.7c.3.2.7.3 1.1.3.4 0 .8-.1 1.1-.3.3-.2.6-.4.8-.7.2-.3.4-.6.5-1 .1-.4.2-.7.2-1.1s-.1-.7-.2-1.1c-.1-.4-.3-.7-.5-1-.2-.3-.5-.5-.8-.7-.3-.2-.7-.3-1.1-.3-.4 0-.8.1-1.1.3zM59.1 44.5v1.2c.2-.4.4-.8.9-1 .4-.3.9-.4 1.4-.4.5 0 .9.1 1.2.2.3.1.6.3.8.5.2.2.3.5.4.8.1.3.1.7.1 1.1v4.5h-.8v-4.3c0-.3 0-.6-.1-.8-.1-.3-.1-.5-.3-.7-.1-.2-.3-.3-.5-.4-.2-.1-.5-.2-.9-.2s-.6.1-.9.2c-.3.1-.5.3-.7.5-.2.2-.3.5-.4.8-.1.3-.2.6-.2 1v4.1h-.8v-7h.8zM70.6 51.4v-1.3c-.1.2-.2.4-.4.6-.2.2-.4.3-.6.5-.2.1-.5.2-.7.3-.3.1-.5.1-.8.1-.5 0-1-.1-1.4-.3-.4-.2-.7-.5-1-.8-.3-.3-.5-.7-.6-1.2-.1-.4-.2-.9-.2-1.4 0-.5.1-1 .2-1.4.1-.4.3-.8.6-1.2.3-.3.6-.6 1-.8.4-.2.9-.3 1.4-.3.3 0 .5 0 .8.1.2.1.5.2.7.3.2.1.4.3.6.5.2.2.3.4.4.7v-4h.8v9.6h-.8zM65.9 49c.1.4.2.7.4 1 .2.3.4.5.7.7.3.2.6.3 1 .3s.8-.1 1.1-.3c.3-.2.6-.4.8-.7.2-.3.3-.6.4-1 .1-.4.1-.7.1-1.1s0-.7-.1-1.1c-.1-.4-.2-.7-.4-1-.2-.3-.4-.5-.8-.7-.3-.2-.7-.3-1.1-.3-.4 0-.8.1-1 .3-.3.2-.5.4-.7.7s-.3.6-.4 1c-.1.4-.1.7-.1 1.1s0 .8.1 1.1zM77 44.6c.4.2.8.5 1 .8.3.3.5.7.6 1.2.1.4.2.9.2 1.4 0 .5-.1 1-.2 1.4-.1.4-.4.8-.6 1.2-.3.3-.6.6-1 .8-.4.2-.9.3-1.4.3s-1-.1-1.4-.3c-.4-.2-.8-.5-1-.8-.3-.3-.5-.7-.6-1.2-.1-.4-.2-.9-.2-1.4 0-.5.1-1 .2-1.4.1-.4.4-.8.6-1.2.3-.3.6-.6 1-.8.4-.2.9-.3 1.4-.3s1 .1 1.4.3zm-2.4.7c-.3.2-.6.4-.8.7-.2.3-.4.6-.5 1-.1.4-.2.7-.2 1.1s.1.7.2 1.1c.1.4.3.7.5 1 .2.3.5.5.8.7.3.2.7.3 1.1.3.4 0 .8-.1 1.1-.3.3-.2.6-.4.8-.7.2-.3.4-.6.5-1 .1-.4.2-.7.2-1.1s-.1-.7-.2-1.1c-.1-.4-.3-.7-.5-1-.2-.3-.5-.5-.8-.7-.4-.2-.8-.3-1.2-.3-.4 0-.7.1-1 .3zM80.7 44.5v1.2c.2-.4.4-.8.9-1 .4-.3.9-.4 1.4-.4.5 0 .9.1 1.2.2.3.1.6.3.8.5.2.2.3.5.4.8s.1.7.1 1.1v4.5h-.8v-4.3c0-.3 0-.6-.1-.8-.1-.3-.1-.5-.3-.7-.1-.2-.3-.3-.5-.4s-.5-.2-.9-.2c-.3 0-.6.1-.9.2-.3.1-.5.3-.7.5-.2.2-.3.5-.4.8-.1.3-.2.6-.2 1v4.1h-.8v-7h.8zM88.4 43.8c.3 0 .6-.1.8-.2.2-.1.4-.3.6-.5.1-.2.3-.6.3-1h.7v9.4H90v-7h-2.5v-.6c.2-.1.6-.1.9-.1zM94.8 49.6c.1.3.3.5.5.7.2.2.4.3.7.4.3.1.6.2.9.2.4 0 .7-.1 1-.2.3-.1.5-.3.7-.6.2-.2.4-.5.5-.8.1-.3.2-.6.2-1s-.1-.7-.2-1c-.1-.3-.3-.6-.5-.8-.2-.2-.5-.4-.8-.5-.3-.1-.6-.2-1-.2s-.8.1-1.2.3c-.4.2-.7.5-.9.8H94l.9-4.9h4.7v.8h-4.1l-.6 3.2c.2-.3.5-.5.9-.6.4-.2.7-.2 1.1-.2.5 0 .9.1 1.3.2.4.2.7.4 1 .7.3.3.5.6.6 1 .1.4.2.8.2 1.3s-.1.9-.3 1.3c-.2.4-.4.7-.7 1-.3.3-.6.5-1 .7-.4.2-.8.2-1.3.2-.4 0-.8-.1-1.2-.2-.4-.1-.7-.3-1-.6-.3-.2-.5-.6-.7-.9-.2-.4-.2-.8-.3-1.2h.8c.3.4.4.7.5.9zM105.9 42.4c.4.3.8.7 1 1.2.2.5.4 1 .5 1.6.1.6.1 1.1.1 1.7 0 .6 0 1.1-.1 1.7-.1.6-.2 1.1-.5 1.6-.2.5-.6.8-1 1.1-.4.3-1 .4-1.7.4s-1.2-.1-1.7-.4c-.4-.3-.8-.7-1-1.1-.2-.5-.4-1-.5-1.6-.1-.6-.1-1.1-.1-1.7 0-.6 0-1.1.1-1.7.1-.6.2-1.1.5-1.6.2-.5.6-.9 1-1.2.4-.3 1-.5 1.7-.5s1.3.2 1.7.5zm-3 .7c-.3.3-.6.6-.7 1s-.3.9-.3 1.3c-.1.5-.1.9-.1 1.3s0 .9.1 1.3c.1.5.2.9.3 1.3.2.4.4.8.7 1 .3.3.8.4 1.3.4s1-.1 1.3-.4c.3-.3.6-.6.7-1 .2-.4.3-.9.3-1.3.1-.5.1-.9.1-1.3s0-.8-.1-1.3-.2-.9-.3-1.3c-.2-.4-.4-.8-.7-1-.3-.3-.8-.4-1.3-.4-.5-.1-.9.1-1.3.4zM111.9 44.7c.2-.6.5-1.1.8-1.6.4-.5.9-.8 1.4-1.1.6-.3 1.2-.4 2-.4s1.4.1 2 .4c.6.3 1 .6 1.4 1.1.4.5.7 1 .8 1.6.2.6.3 1.2.3 1.9s-.1 1.3-.3 1.9c-.2.6-.5 1.1-.8 1.6-.4.5-.8.8-1.4 1.1-.6.3-1.2.4-2 .4s-1.4-.1-2-.4c-.6-.3-1-.6-1.4-1.1-.4-.5-.7-1-.8-1.6-.2-.6-.3-1.2-.3-1.9s.1-1.3.3-1.9zm.8 3.5c.1.5.4 1 .6 1.4.3.4.7.7 1.1 1s1 .4 1.6.4c.6 0 1.2-.1 1.6-.4s.8-.6 1.1-1c.3-.4.5-.9.6-1.4s.2-1 .2-1.5-.1-1-.2-1.6c-.1-.5-.4-1-.6-1.4-.3-.4-.7-.7-1.1-1s-1-.4-1.6-.4c-.6 0-1.2.1-1.6.4s-.8.6-1.1 1c-.3.4-.5.9-.6 1.4-.1.5-.2 1-.2 1.6 0 .5.1 1 .2 1.5zM122.5 41.8v9.6h-.8v-9.6h.8zM129.2 51.4v-1.3c-.1.2-.2.4-.4.6-.2.2-.4.3-.6.5-.2.1-.5.2-.7.3-.3.1-.5.1-.8.1-.5 0-1-.1-1.4-.3-.4-.2-.7-.5-1-.8-.3-.3-.5-.7-.6-1.2-.1-.4-.2-.9-.2-1.4 0-.5.1-1 .2-1.4.1-.4.3-.8.6-1.2.3-.3.6-.6 1-.8.4-.2.9-.3 1.4-.3.3 0 .5 0 .8.1.2.1.5.2.7.3.2.1.4.3.6.5.2.2.3.4.4.7v-4h.8v9.6h-.8zm-4.6-2.4c.1.4.2.7.4 1 .2.3.4.5.7.7.3.2.6.3 1 .3s.8-.1 1.1-.3c.3-.2.6-.4.8-.7.2-.3.3-.6.4-1 .1-.4.1-.7.1-1.1s0-.7-.1-1.1c-.1-.4-.2-.7-.4-1-.2-.3-.4-.5-.8-.7-.3-.2-.7-.3-1.1-.3-.4 0-.8.1-1 .3-.3.2-.5.4-.7.7-.2.3-.3.6-.4 1-.1.4-.1.7-.1 1.1s0 .8.1 1.1zM139.2 41.8c.4 0 .8.1 1.2.2.4.1.7.3.9.5.3.2.4.5.6.9s.2.7.2 1.2c0 .4-.1.8-.2 1.2-.1.3-.3.6-.6.9-.3.2-.6.4-.9.5-.4.1-.7.2-1.2.2h-3.4v4.1h-.8v-9.6h4.2zm-.2 4.7c.6 0 1.2-.2 1.6-.5.4-.3.6-.8.6-1.5s-.2-1.2-.6-1.5c-.4-.3-.9-.5-1.6-.5h-3.2v3.9h3.2zM143.2 45.6c.1-.3.3-.5.6-.7s.5-.3.9-.4c.3-.1.7-.1 1.1-.1.3 0 .6 0 .9.1.3.1.6.2.8.3.2.2.4.4.6.7.2.3.2.7.2 1.1v3.7c0 .3.2.5.5.5.1 0 .2 0 .3-.1v.7c-.1 0-.2 0-.3 0-.1 0-.2 0-.3 0-.2 0-.4 0-.5-.1-.1-.1-.2-.1-.3-.2-.1-.1-.1-.2-.1-.4 0-.1 0-.3 0-.5-.2.2-.3.4-.5.6-.2.2-.3.3-.5.4-.2.1-.4.2-.7.3-.2.1-.5.1-.9.1-.3 0-.6 0-.9-.1-.3-.1-.5-.2-.7-.4-.2-.2-.4-.4-.5-.6s-.2-.6-.2-.9c0-.5.1-.9.3-1.1.2-.3.5-.5.9-.6.4-.1.8-.2 1.2-.3.4-.1.9-.1 1.4-.2.2 0 .3 0 .5-.1.1 0 .2-.1.3-.1.1-.1.2-.2.2-.3 0-.1.1-.3.1-.5 0-.3 0-.5-.1-.7-.1-.2-.2-.3-.4-.4s-.4-.2-.6-.2c-.2 0-.5-.1-.7-.1-.5 0-1 .1-1.3.4-.3.3-.5.7-.5 1.2h-.8c-.2-.4-.2-.7 0-1zm4.2 2c-.1.1-.2.2-.3.2-.2 0-.3.1-.4.1-.4.1-.7.1-1.1.2s-.7.1-1 .2c-.3.1-.6.2-.8.4s-.3.4-.3.8c0 .2 0 .4.1.6.1.2.2.3.3.4.1.1.3.2.5.3.2.1.4.1.6.1.3 0 .6 0 .9-.1.3-.1.6-.2.8-.4.2-.2.4-.4.5-.7.1-.3.2-.6.2-.9v-1.2zM150.5 44.5v1.6c.2-.6.6-1 1-1.3.5-.3 1-.4 1.6-.4v.8c-.4 0-.7 0-1.1.2-.3.1-.6.3-.8.5-.2.2-.4.5-.5.8-.1.3-.2.6-.2 1v3.7h-.8v-7h.8zM154.5 41.8v6l3.9-3.4h1.1l-3 2.6 3.2 4.4h-1.1l-2.8-3.8-1.4 1.1v2.6h-.8v-9.6h.9zM164.7 41.8v8.8h5.4v.8h-6.3v-9.6h.9zM170.7 45.6c.1-.3.3-.5.6-.7.2-.2.5-.3.9-.4.3-.1.7-.1 1.1-.1.3 0 .6 0 .9.1.3.1.6.2.8.3.2.2.4.4.6.7.2.3.2.7.2 1.1v3.7c0 .3.2.5.5.5.1 0 .2 0 .3-.1v.7c-.1 0-.2 0-.3 0-.1 0-.2 0-.3 0-.2 0-.4 0-.5-.1-.1-.1-.2-.1-.3-.2-.1-.1-.1-.2-.1-.4 0-.1 0-.3 0-.5-.2.2-.3.4-.5.6-.2.2-.3.3-.5.4-.2.1-.4.2-.7.3-.2.1-.5.1-.9.1-.3 0-.6 0-.9-.1-.3-.1-.5-.2-.7-.4-.2-.2-.4-.4-.5-.6s-.2-.6-.2-.9c0-.5.1-.9.3-1.1.2-.3.5-.5.9-.6.4-.1.8-.2 1.2-.3.4-.1.9-.1 1.4-.2.2 0 .3 0 .5-.1.1 0 .2-.1.3-.1.1-.1.2-.2.2-.3 0-.1.1-.3.1-.5 0-.3 0-.5-.1-.7-.1-.2-.2-.3-.4-.4-.2-.1-.4-.2-.6-.2-.2 0-.5-.1-.7-.1-.5 0-1 .1-1.3.4-.3.3-.5.7-.5 1.2h-.8c-.2-.4-.1-.7 0-1zm4.3 2c-.1.1-.2.2-.3.2-.2 0-.3.1-.4.1-.4.1-.7.1-1.1.2s-.7.1-1 .2c-.3.1-.6.2-.8.4s-.3.4-.3.8c0 .2 0 .4.1.6.1.2.2.3.3.4.1.1.3.2.5.3.2.1.4.1.6.1.3 0 .6 0 .9-.1.3-.1.6-.2.8-.4.2-.2.4-.4.5-.7.1-.3.2-.6.2-.9v-1.2zM178.1 44.5v1.2c.2-.4.4-.8.9-1 .4-.3.9-.4 1.4-.4.5 0 .9.1 1.2.2.3.1.6.3.8.5.2.2.3.5.4.8s.1.7.1 1.1v4.5h-.8v-4.3c0-.3 0-.6-.1-.8-.1-.3-.1-.5-.3-.7-.1-.2-.3-.3-.5-.4s-.5-.2-.9-.2-.6.1-.9.2c-.3.1-.5.3-.7.5-.2.2-.3.5-.4.8s-.2.6-.2 1v4.1h-.8v-7h.8zM184.9 49.1c.1.3.2.6.4.9.2.3.4.5.7.6.3.2.6.3 1 .3.6 0 1.1-.2 1.5-.5.4-.3.6-.8.7-1.3h.8c-.2.8-.5 1.4-1 1.8-.5.4-1.2.6-2 .6-.5 0-1-.1-1.4-.3-.4-.2-.7-.5-1-.8-.3-.3-.4-.7-.6-1.2-.1-.4-.2-.9-.2-1.4 0-.5.1-.9.2-1.3s.3-.8.6-1.2c.3-.3.6-.6 1-.8.4-.2.9-.3 1.4-.3.6 0 1 .1 1.4.3.4.2.7.5 1 .9.2.4.4.8.5 1.3.1.5.2 1 .1 1.4h-5.4c.1.4.2.7.3 1zm4.2-2.6c-.1-.3-.3-.6-.4-.8-.2-.2-.4-.4-.7-.6-.3-.1-.6-.2-.9-.2-.4 0-.7.1-.9.2-.3.1-.5.3-.7.6-.2.2-.3.5-.5.8-.1.3-.2.6-.2.9h4.5c-.1-.2-.1-.6-.2-.9zM45.1 58v6c0 .6.1 1 .2 1.4.1.4.3.7.6 1 .2.2.5.4.9.5.4.1.7.2 1.2.2.4 0 .8-.1 1.2-.2.4-.1.6-.3.9-.5.2-.2.4-.6.6-1 .1-.4.2-.9.2-1.4v-6h.9v6.2c0 .5-.1 1-.2 1.4-.1.4-.4.8-.7 1.2-.3.3-.7.6-1.2.8-.5.2-1 .3-1.7.3s-1.2-.1-1.7-.3c-.5-.2-.9-.5-1.2-.8-.3-.3-.5-.7-.7-1.2-.1-.4-.2-.9-.2-1.4V58h.9zM53.9 60.7v1.2c.2-.4.4-.8.9-1 .4-.3.9-.4 1.4-.4.5 0 .9.1 1.2.2.3.1.6.3.8.5.2.2.3.5.4.8.1.3.1.7.1 1.1v4.5h-.8v-4.3c0-.3 0-.6-.1-.8-.1-.3-.1-.5-.3-.7-.1-.2-.3-.3-.5-.4-.2-.1-.5-.2-.9-.2s-.6.1-.9.2c-.3.1-.5.3-.7.5-.2.2-.3.5-.4.8-.1.3-.2.6-.2 1v4.1H53v-7h.9zM60.9 58v1.4H60V58h.9zm0 2.7v7H60v-7h.9zM65 60.7v.7h-1.4v4.7c0 .3 0 .5.1.7.1.2.3.2.6.3.2 0 .5 0 .7 0v.7c-.1 0-.3 0-.4 0-.1 0-.3 0-.4 0-.6 0-1-.1-1.2-.3-.2-.2-.3-.6-.3-1.2v-4.8h-1.2v-.7h1.2v-2.1h.8v2.1H65zM66.6 65.3c.1.3.2.6.4.9.2.3.4.5.7.6.3.2.6.3 1 .3.6 0 1.1-.2 1.5-.5.4-.3.6-.8.7-1.3h.8c-.2.8-.5 1.4-1 1.8-.5.4-1.2.6-2 .6-.5 0-1-.1-1.4-.3-.4-.2-.7-.5-1-.8-.3-.3-.4-.7-.6-1.2-.1-.4-.2-.9-.2-1.4 0-.5.1-.9.2-1.3s.3-.8.6-1.2c.3-.3.6-.6 1-.8.4-.2.9-.3 1.4-.3.6 0 1 .1 1.4.3.4.2.7.5 1 .9.2.4.4.8.5 1.3.1.5.2 1 .1 1.4h-5.4c.1.4.2.7.3 1zm4.2-2.6c-.1-.3-.3-.6-.4-.8-.2-.2-.4-.4-.7-.6-.3-.1-.6-.2-.9-.2-.4 0-.7.1-.9.2-.3.1-.5.3-.7.6-.2.2-.3.5-.5.8-.1.3-.2.6-.2.9H71c-.1-.3-.1-.6-.2-.9zM78 67.6v-1.3c-.1.2-.2.4-.4.6-.2.2-.4.3-.6.5-.2.1-.5.2-.7.3-.3.1-.5.1-.8.1-.5 0-1-.1-1.4-.3-.4-.2-.7-.5-1-.8-.3-.3-.5-.7-.6-1.2-.1-.4-.2-.9-.2-1.4 0-.5.1-1 .2-1.4.1-.4.3-.8.6-1.2.3-.3.6-.6 1-.8.4-.2.9-.3 1.4-.3.3 0 .5 0 .8.1.2.1.5.2.7.3.2.1.4.3.6.5.2.2.3.4.4.7v-4h.8v9.6H78zm-4.7-2.4c.1.4.2.7.4 1s.4.5.7.7c.3.2.6.3 1 .3s.8-.1 1.1-.3.6-.4.8-.7c.2-.3.3-.6.4-1 .1-.4.1-.7.1-1.1s0-.7-.1-1.1c-.1-.4-.2-.7-.4-1-.2-.3-.4-.5-.8-.7-.3-.2-.7-.3-1.1-.3-.4 0-.8.1-1 .3-.3.2-.5.4-.7.7s-.3.6-.4 1c-.1.4-.1.7-.1 1.1s0 .8.1 1.1zM84.6 58v5.2l5.6-5.2h1.2l-4.3 4 4.5 5.6h-1.2l-4-5-1.8 1.7v3.3h-.9V58h.9zM92.9 58v1.4H92V58h.9zm0 2.7v7H92v-7h.9zM95.1 60.7v1.2c.2-.4.4-.8.9-1 .4-.3.9-.4 1.4-.4.5 0 .9.1 1.2.2.3.1.6.3.8.5.2.2.3.5.4.8.1.3.1.7.1 1.1v4.5H99v-4.3c0-.3 0-.6-.1-.8-.1-.3-.1-.5-.3-.7-.1-.2-.3-.3-.5-.4-.2-.1-.5-.2-.9-.2s-.6.1-.9.2c-.3.1-.5.3-.7.5-.2.2-.3.5-.4.8-.1.3-.2.6-.2 1v4.1h-.8v-7h.9zM106.9 68.4c-.1.4-.3.8-.5 1.1-.2.3-.6.5-1 .7-.4.2-.9.2-1.4.2-.4 0-.7 0-1-.1-.3-.1-.6-.2-.9-.4-.3-.2-.5-.4-.7-.7-.2-.3-.3-.6-.3-1h.8c0 .3.1.5.3.7.1.2.3.3.5.4.2.1.4.2.6.2.2 0 .5.1.7.1.8 0 1.4-.2 1.7-.7.4-.4.5-1.1.5-1.9v-.9c-.2.4-.5.8-.9 1-.4.3-.8.4-1.3.4-.6 0-1-.1-1.4-.3-.4-.2-.7-.4-1-.8-.3-.3-.4-.7-.6-1.1-.1-.4-.2-.9-.2-1.4 0-.5.1-.9.2-1.4.1-.4.3-.8.6-1.1.3-.3.6-.6 1-.8.4-.2.8-.3 1.3-.3.3 0 .5 0 .7.1.2.1.4.2.6.3s.4.3.5.5c.1.2.3.4.3.5v-1.2h.8v6.4c.3.7.2 1.1.1 1.5zm-2-1.8c.3-.2.5-.4.7-.6.2-.3.3-.6.4-.9.1-.3.1-.7.1-1 0-.3 0-.7-.1-1-.1-.3-.2-.7-.4-.9s-.4-.5-.7-.7c-.3-.2-.6-.3-1-.3s-.8.1-1 .2c-.3.2-.5.4-.7.7-.2.3-.3.6-.4.9-.1.3-.1.7-.1 1.1 0 .4 0 .7.1 1 .1.3.2.6.4.9.2.3.4.5.7.6.3.2.6.2 1 .2s.8-.1 1-.2zM113.7 67.6v-1.3c-.1.2-.2.4-.4.6-.2.2-.4.3-.6.5-.2.1-.5.2-.7.3-.3.1-.5.1-.8.1-.5 0-1-.1-1.4-.3-.4-.2-.7-.5-1-.8-.3-.3-.5-.7-.6-1.2-.1-.4-.2-.9-.2-1.4 0-.5.1-1 .2-1.4.1-.4.3-.8.6-1.2.3-.3.6-.6 1-.8.4-.2.9-.3 1.4-.3.3 0 .5 0 .8.1.2.1.5.2.7.3.2.1.4.3.6.5.2.2.3.4.4.7v-4h.8v9.6h-.8zm-4.6-2.4c.1.4.2.7.4 1s.4.5.7.7c.3.2.6.3 1 .3s.8-.1 1.1-.3.6-.4.8-.7c.2-.3.3-.6.4-1 .1-.4.1-.7.1-1.1s0-.7-.1-1.1c-.1-.4-.2-.7-.4-1-.2-.3-.4-.5-.8-.7-.3-.2-.7-.3-1.1-.3-.4 0-.8.1-1 .3-.3.2-.5.4-.7.7s-.3.6-.4 1c-.1.4-.1.7-.1 1.1s0 .8.1 1.1zM120.2 60.8c.4.2.8.5 1 .8.3.3.5.7.6 1.2.1.4.2.9.2 1.4 0 .5-.1 1-.2 1.4-.1.4-.4.8-.6 1.2-.3.3-.6.6-1 .8-.4.2-.9.3-1.4.3s-1-.1-1.4-.3c-.4-.2-.8-.5-1-.8-.3-.3-.5-.7-.6-1.2-.1-.4-.2-.9-.2-1.4 0-.5.1-1 .2-1.4.1-.4.4-.8.6-1.2.3-.3.6-.6 1-.8.4-.2.9-.3 1.4-.3s1 .1 1.4.3zm-2.5.6c-.3.2-.6.4-.8.7s-.4.6-.5 1c-.1.4-.2.7-.2 1.1 0 .4.1.7.2 1.1.1.4.3.7.5 1 .2.3.5.5.8.7.3.2.7.3 1.1.3.4 0 .8-.1 1.1-.3.3-.2.6-.4.8-.7.2-.3.4-.6.5-1 .1-.4.2-.7.2-1.1 0-.4-.1-.7-.2-1.1-.1-.4-.3-.7-.5-1-.2-.3-.5-.5-.8-.7-.3-.2-.7-.3-1.1-.3-.4.1-.8.2-1.1.3zM123.9 60.7v1.2c.2-.4.5-.8.9-1 .4-.2.8-.4 1.4-.4.5 0 .9.1 1.2.3.4.2.6.6.7 1 .2-.5.5-.8.9-1 .4-.2.8-.3 1.3-.3 1.5 0 2.3.8 2.3 2.4v4.7h-.8v-4.7c0-.6-.1-1-.4-1.3-.2-.3-.7-.5-1.3-.5-.4 0-.7.1-.9.2-.2.1-.4.3-.6.6-.1.2-.2.5-.3.8-.1.3-.1.6-.1.9v3.9h-.8v-4.7c0-.2 0-.5-.1-.7 0-.2-.1-.4-.2-.6-.1-.2-.3-.3-.5-.4-.2-.1-.4-.1-.7-.1-.4 0-.7.1-.9.2-.3.1-.5.3-.6.5-.2.2-.3.5-.4.8s-.1.6-.1 1v3.9h-.8v-7h.8z"/></g><g fill="#22D2EF"><path d="M46.1 97.4c-.3-.5-.6-1-.8-1.5-.3-.5-.5-1-.7-1.6-.2-.6-.3-1.1-.4-1.8s-.2-1.3-.2-2c0-1.2.2-2.4.6-3.5.4-1.1.9-2.2 1.6-3.3h1.4c-.6 1.1-1 2.1-1.3 3.3-.3 1.1-.5 2.3-.5 3.5 0 1.2.1 2.4.4 3.5.3 1.1.8 2.2 1.4 3.3h-1.5zM50.7 87.1h1.5v3h3v1.5h-3v3h-1.5v-3h-3v-1.5h3v-3zM58 92c0 .4.2.8.4 1 .3.3.6.4 1.1.4.5 0 .8-.1 1.1-.4.3-.2.5-.5.6-.9.1-.4.2-.7.3-1.1.1-.4.1-.8.1-1.1-.2.4-.5.7-.9.9-.4.2-.8.3-1.3.3s-.9-.1-1.3-.2c-.4-.2-.7-.4-1-.7-.3-.3-.5-.7-.7-1.1-.2-.4-.2-.9-.2-1.4 0-.5.1-1 .2-1.4.2-.4.4-.8.7-1.1.3-.3.7-.6 1.1-.7.4-.2.9-.3 1.5-.3.7 0 1.3.1 1.8.4.5.3.8.7 1.1 1.1.3.5.5 1.1.6 1.7.1.7.2 1.4.2 2.1 0 .6-.1 1.2-.2 1.9-.1.6-.4 1.2-.7 1.7-.3.5-.7.9-1.2 1.3-.5.3-1.1.5-1.8.5-.4 0-.8-.1-1.2-.2s-.7-.3-1-.6c-.3-.2-.5-.5-.7-.9-.2-.3-.3-.7-.3-1.1H58zm1.6-6.5c-.3 0-.6.1-.8.2-.2.1-.4.3-.6.5-.1.2-.3.4-.3.7-.1.3-.1.5-.1.8 0 .3 0 .6.1.8.1.3.2.5.3.7.1.2.3.4.6.5.2.1.5.2.8.2.3 0 .6-.1.8-.2.2-.1.4-.3.6-.5.2-.2.3-.4.3-.7.1-.3.1-.5.1-.8 0-.3 0-.5-.1-.8-.1-.3-.2-.5-.3-.7-.2-.2-.3-.3-.6-.5s-.5-.2-.8-.2zM64 84.3h7v1.4c-.5.6-1 1.2-1.5 1.9-.4.7-.8 1.3-1.2 2.1s-.6 1.5-.8 2.3c-.2.8-.3 1.7-.4 2.6h-1.8c.1-.8.2-1.6.4-2.4.2-.8.5-1.6.9-2.3.3-.7.8-1.5 1.2-2.1.5-.7 1-1.3 1.5-1.9H64v-1.6zM77.1 86.9c0-.4-.2-.8-.4-1-.3-.3-.6-.4-1.1-.4-.3 0-.6.1-.8.2s-.4.3-.6.4c-.2.2-.3.4-.4.6-.1.2-.2.5-.2.8-.1.3-.1.5-.1.8 0 .3 0 .5-.1.7.2-.4.5-.7.9-.9.4-.2.8-.3 1.3-.3s1 .1 1.4.3c.4.2.7.4 1 .7.3.3.5.7.6 1.1.1.4.2.9.2 1.4 0 .5-.1 1-.2 1.4-.2.4-.4.8-.7 1.1-.3.3-.7.6-1.1.7-.4.2-.9.3-1.4.3-.8 0-1.4-.1-1.9-.4-.5-.3-.9-.7-1.1-1.1-.3-.5-.5-1.1-.6-1.7-.1-.7-.2-1.4-.2-2.1 0-.6.1-1.2.2-1.9.1-.6.4-1.2.7-1.7.3-.5.7-.9 1.2-1.3.5-.3 1.1-.5 1.8-.5.4 0 .8.1 1.2.2.4.1.7.3 1 .6.3.2.5.5.7.9.2.3.3.7.3 1.1h-1.6zm-1.6 6.5c.3 0 .6-.1.8-.2.2-.1.4-.3.6-.5.2-.2.3-.4.3-.7.1-.3.1-.5.1-.8 0-.3 0-.5-.1-.8-.1-.3-.2-.5-.3-.7s-.3-.3-.6-.5c-.2-.1-.5-.2-.8-.2s-.6.1-.8.2c-.2.1-.4.3-.6.5-.2.2-.3.4-.4.7-.1.3-.1.5-.1.8s0 .6.1.8c.1.3.2.5.4.7.2.2.4.4.6.5.2.1.5.2.8.2zM80.4 83.8c.3.5.6 1 .8 1.5.3.5.5 1 .7 1.6.2.6.3 1.1.5 1.8.1.6.2 1.3.2 2 0 1.2-.2 2.4-.6 3.5-.4 1.1-.9 2.2-1.6 3.3H79c.6-1 1-2.1 1.3-3.2.3-1.1.5-2.3.5-3.5 0-1.2-.1-2.4-.4-3.5s-.7-2.2-1.4-3.3h1.4zM92.6 86.9c0-.4-.2-.8-.4-1s-.6-.4-1.1-.4c-.3 0-.6.1-.8.2s-.4.3-.6.4c-.2.2-.3.4-.4.6-.1.2-.2.5-.2.8 0 .3-.1.5-.1.8 0 .3 0 .5-.1.7.2-.4.5-.7.9-.9.4-.2.8-.3 1.3-.3s1 .1 1.4.3c.4.2.7.4 1 .7.3.3.5.7.6 1.1s.2.9.2 1.4c0 .5-.1 1-.2 1.4-.2.4-.4.8-.7 1.1-.3.3-.7.6-1.1.7-.4.2-.9.3-1.4.3-.8 0-1.4-.1-1.9-.4-.5-.3-.9-.7-1.1-1.1-.3-.5-.5-1.1-.6-1.7-.1-.7-.2-1.4-.2-2.1 0-.6.1-1.2.2-1.9.1-.6.4-1.2.7-1.7.3-.5.7-.9 1.2-1.3.5-.3 1.1-.5 1.8-.5.4 0 .8.1 1.2.2.4.1.7.3 1 .6.3.2.5.5.7.9.2.3.3.7.3 1.1h-1.6zm-1.7 6.5c.3 0 .6-.1.8-.2.2-.1.4-.3.6-.5.2-.2.3-.4.3-.7.1-.3.1-.5.1-.8 0-.3 0-.5-.1-.8-.1-.3-.2-.5-.3-.7s-.3-.3-.6-.5c-.2-.1-.5-.2-.8-.2-.3 0-.6.1-.8.2-.2.1-.4.3-.6.5-.2.2-.3.4-.4.7-.1.3-.1.5-.1.8s0 .6.1.8c.1.3.2.5.4.7.2.2.4.4.6.5.3.1.5.2.8.2zM98 88.6c.3 0 .5 0 .8-.1.3 0 .5-.1.7-.3.2-.1.4-.3.5-.5.1-.2.2-.5.2-.8 0-.4-.1-.8-.4-1.1-.3-.3-.7-.4-1.2-.4-.3 0-.5.1-.8.2-.2.1-.4.3-.5.5-.1.2-.2.4-.3.7-.1.3-.1.5-.1.8h-1.7c0-.5.1-1 .3-1.4.2-.4.4-.8.7-1.1.3-.3.6-.6 1.1-.7.4-.2.9-.3 1.4-.3.4 0 .8.1 1.2.2.4.1.7.3 1 .5.3.2.6.5.7.9.2.3.3.7.3 1.2s-.1 1-.4 1.4c-.2.4-.6.7-1.1.8.6.1 1 .4 1.4.9.3.5.5 1 .5 1.7 0 .5-.1.9-.3 1.3-.2.4-.5.7-.8 1-.3.3-.7.5-1.2.6-.4.1-.9.2-1.4.2-.6 0-1.1-.1-1.6-.3-.4-.2-.8-.4-1.1-.7-.3-.3-.5-.7-.7-1.1-.2-.4-.2-.9-.3-1.5h1.7c0 .6.1 1.2.5 1.6.3.4.8.6 1.5.6.6 0 1-.2 1.4-.5.4-.3.6-.8.6-1.4 0-.4-.1-.7-.2-1-.2-.2-.4-.4-.6-.5-.3-.1-.5-.2-.9-.2-.3 0-.6 0-1 0v-1.2zM104.9 92c0 .4.2.8.4 1 .3.3.6.4 1.1.4.5 0 .8-.1 1.1-.4.3-.2.5-.5.6-.9.1-.4.2-.7.3-1.1.1-.4.1-.8.1-1.1-.2.4-.5.7-.9.9-.4.2-.8.3-1.3.3s-.9-.1-1.3-.2c-.4-.2-.7-.4-1-.7-.3-.3-.5-.7-.7-1.1-.2-.4-.2-.9-.2-1.4 0-.5.1-1 .2-1.4.2-.4.4-.8.7-1.1.3-.3.7-.6 1.1-.7.4-.2.9-.3 1.5-.3.7 0 1.3.1 1.8.4.5.3.8.7 1.1 1.1.3.5.5 1.1.6 1.7.1.7.2 1.4.2 2.1 0 .6-.1 1.2-.2 1.9-.1.6-.4 1.2-.7 1.7-.3.5-.7.9-1.2 1.3-.5.3-1.1.5-1.8.5-.4 0-.8-.1-1.2-.2-.4-.1-.7-.3-1-.6-.3-.2-.5-.5-.7-.9-.2-.3-.3-.7-.3-1.1h1.7zm1.6-6.5c-.3 0-.6.1-.8.2-.2.1-.4.3-.6.5-.1.2-.3.4-.3.7-.1.3-.1.5-.1.8 0 .3 0 .6.1.8.1.3.2.5.3.7.1.2.3.4.6.5.2.1.5.2.8.2.3 0 .6-.1.8-.2.2-.1.4-.3.6-.5.2-.2.3-.4.3-.7.1-.3.1-.5.1-.8 0-.3 0-.5-.1-.8-.1-.3-.2-.5-.3-.7-.2-.2-.3-.3-.6-.5-.2-.2-.5-.2-.8-.2zM118.2 84.1c.7 0 1.3.2 1.8.5s.8.8 1.1 1.3.4 1.1.5 1.7c.1.6.1 1.2.1 1.8 0 .6 0 1.2-.1 1.8-.1.6-.3 1.2-.5 1.7s-.6 1-1.1 1.3c-.5.3-1.1.5-1.8.5s-1.3-.2-1.8-.5-.8-.8-1.1-1.3-.4-1.1-.5-1.7c-.1-.6-.1-1.2-.1-1.8 0-.6 0-1.2.1-1.8.1-.6.3-1.2.5-1.7s.6-1 1.1-1.3c.5-.3 1.1-.5 1.8-.5zm0 9.3c.4 0 .7-.1.9-.3.2-.2.4-.5.6-.9.1-.4.2-.8.3-1.3.1-.5.1-1 .1-1.5s0-1-.1-1.5-.2-.9-.3-1.3c-.1-.4-.3-.6-.6-.9-.2-.2-.5-.3-.9-.3s-.7.1-.9.3c-.2.2-.4.5-.6.9-.1.4-.2.8-.3 1.3-.1.5-.1 1-.1 1.5s0 1 .1 1.5.2.9.3 1.3c.1.4.3.6.6.9.3.2.6.3.9.3zM127.8 86.9c0-.4-.2-.8-.4-1s-.6-.4-1.1-.4c-.3 0-.6.1-.8.2s-.4.3-.6.4c-.2.2-.3.4-.4.6-.1.2-.2.5-.2.8-.1.3-.1.5-.1.8 0 .3 0 .5-.1.7.2-.4.5-.7.9-.9.4-.2.8-.3 1.3-.3s1 .1 1.4.3c.4.2.7.4 1 .7.3.3.5.7.6 1.1s.2.9.2 1.4c0 .5-.1 1-.2 1.4-.2.4-.4.8-.7 1.1-.3.3-.7.6-1.1.7-.4.2-.9.3-1.4.3-.8 0-1.4-.1-1.9-.4-.5-.3-.9-.7-1.1-1.1-.3-.5-.5-1.1-.6-1.7-.1-.7-.2-1.4-.2-2.1 0-.6.1-1.2.2-1.9.1-.6.4-1.2.7-1.7.3-.5.7-.9 1.2-1.3.5-.3 1.1-.5 1.8-.5.4 0 .8.1 1.2.2.4.1.7.3 1 .6.3.2.5.5.7.9.2.3.3.7.3 1.1h-1.6zm-1.6 6.5c.3 0 .6-.1.8-.2.2-.1.4-.3.6-.5.2-.2.3-.4.3-.7.1-.3.1-.5.1-.8 0-.3 0-.5-.1-.8-.1-.3-.2-.5-.3-.7-.2-.2-.3-.3-.6-.5-.2-.1-.5-.2-.8-.2s-.6.1-.8.2c-.2.1-.4.3-.6.5-.2.2-.3.4-.4.7-.1.3-.1.5-.1.8s0 .6.1.8c.1.3.2.5.4.7.2.2.4.4.6.5.2.1.5.2.8.2zM137 88.6c.3 0 .5 0 .8-.1s.5-.1.7-.3c.2-.1.4-.3.5-.5.1-.2.2-.5.2-.8 0-.4-.1-.8-.4-1.1-.3-.3-.7-.4-1.2-.4-.3 0-.5.1-.8.2-.2.1-.4.3-.5.5-.1.2-.2.4-.3.7-.1.3-.1.5-.1.8h-1.7c0-.5.1-1 .3-1.4.2-.4.4-.8.7-1.1.3-.3.6-.6 1.1-.7.4-.2.9-.3 1.4-.3.4 0 .8.1 1.2.2.4.1.7.3 1 .5.3.2.6.5.7.9.2.3.3.7.3 1.2s-.1 1-.4 1.4c-.2.4-.6.7-1.1.8.6.1 1 .4 1.4.9.3.5.5 1 .5 1.7 0 .5-.1.9-.3 1.3-.2.4-.5.7-.8 1-.3.3-.7.5-1.2.6-.4.1-.9.2-1.4.2-.6 0-1.1-.1-1.6-.3-.4-.2-.8-.4-1.1-.7-.3-.3-.5-.7-.7-1.1-.2-.4-.2-.9-.3-1.5h1.7c0 .6.1 1.2.5 1.6.3.4.8.6 1.5.6.6 0 1-.2 1.4-.5.4-.3.6-.8.6-1.4 0-.4-.1-.7-.2-1-.2-.2-.4-.4-.6-.5-.3-.1-.5-.2-.9-.2-.3 0-.6 0-1 0v-1.2zM149.1 94.6h-7c0-.9.2-1.6.6-2.2.4-.6 1-1.2 1.6-1.7.3-.2.7-.5 1-.7.4-.2.7-.5 1-.7.3-.3.6-.6.7-.9.2-.3.3-.7.3-1.1 0-.2 0-.4-.1-.6 0-.2-.1-.4-.3-.6-.1-.2-.3-.3-.5-.5-.2-.1-.5-.2-.9-.2-.3 0-.6.1-.8.2-.2.1-.4.3-.5.5-.1.2-.2.5-.3.8-.1.3-.1.7-.1 1h-1.7c0-.6.1-1.1.2-1.6.2-.5.4-.9.7-1.3.3-.4.7-.6 1.1-.8.4-.2.9-.3 1.5-.3s1.2.1 1.6.3c.4.2.8.5 1 .8.3.3.4.7.6 1 .1.4.2.7.2 1.1 0 .4-.1.8-.2 1.1-.1.3-.3.6-.5.9-.2.3-.5.5-.7.8-.3.2-.6.5-.9.7s-.6.4-.9.6c-.3.2-.6.4-.8.6-.3.2-.5.4-.7.6-.2.2-.3.4-.4.6h5v1.6z"/></g><path fill="#3089E2" d="M29.8 45.6c-.1-.3-.2-.6-.4-.9-1.4-3.5-4.5-4.7-7-4.7-3.4 0-7.1 2.3-7.6 7v1s0 .4 0 .6c.3 2.2 2 4.6 3.4 6.9 1.4 2.4 2.9 4.8 4.4 7.1.9-1.5 1.8-3.1 2.7-4.6.2-.4.5-.9.8-1.3.2-.3.5-.6.6-.8 1.4-2.6 3.7-5.2 3.7-7.8V47c-.2-.4-.5-1.3-.6-1.4zm-7.4 4.8c-1 0-2.1-.5-2.6-1.9-.1-.2-.1-.7-.1-.7v-.6c0-1.8 1.5-2.6 2.8-2.6 1.6 0 2.8 1.3 2.8 2.9 0 1.6-1.3 2.9-2.9 2.9z"/><path fill="#22D2EF" d="M33.2 92.7c0 .3-.1.6-.3.8l-2.6 2.6c-.1.1-.3.2-.5.3-.2.1-.4.2-.6.2 0 0-.1 0-.1 0-.1 0-.1 0-.3 0-.2 0-.6 0-1.2-.1s-1.2-.3-2-.6c-.7-.4-1.6-.9-2.6-1.5-1-.7-2.1-1.6-3.2-2.7-.9-.9-1.7-1.8-2.3-2.6-.6-.8-1.1-1.6-1.4-2.3-.4-.7-.6-1.3-.8-1.9-.2-.6-.3-1.1-.4-1.5-.1-.4-.1-.7-.1-1 0-.2 0-.4 0-.4 0-.2.1-.4.2-.6.1-.2.2-.3.3-.5l2.6-2.6c.2-.2.4-.3.6-.3.2 0 .3 0 .4.1.1.1.2.2.3.4l2.1 4c.1.2.1.4.1.7-.1.2-.2.5-.3.6l-1 1s0 .1-.1.1c0 .1 0 .1 0 .1.1.3.2.6.4.9.2.3.4.7.7 1.1.3.5.8 1 1.4 1.6.6.6 1.1 1.1 1.6 1.4.5.3.8.6 1.1.7.3.2.5.3.7.3h.2s.1 0 .1 0c.1 0 .1 0 .1-.1l1.1-1.1c.2-.2.5-.3.8-.3.2 0 .4 0 .5.1l3.8 2.2c.5.5.7.7.7.9z"/><path fill="#fff" d="M256.7 157.5c0 .2 0 .4-.2.6l-1.8 1.8c-.1.1-.2.2-.3.2-.1.1-.3.1-.4.1 0 0 0 0-.1 0 0 0-.1 0-.2 0-.2 0-.5 0-.8-.1-.4-.1-.9-.2-1.4-.4-.6-.2-1.2-.6-1.9-1.1s-1.5-1.1-2.3-1.9c-.6-.6-1.2-1.2-1.6-1.8-.4-.6-.8-1.1-1-1.6s-.5-.9-.6-1.3-.2-.7-.3-1c0-.3-.1-.5-.1-.7 0-.2 0-.3 0-.3 0-.1.1-.3.1-.4.1-.1.1-.2.2-.3l1.8-1.8c.1-.1.3-.2.4-.2.1 0 .2 0 .3.1s.2.2.2.3l1.5 2.8c.1.1.1.3.1.5s-.1.3-.2.4l-.7.7s0 0 0 .1 0 .1 0 .1c0 .2.1.4.2.7.1.2.3.5.5.8.2.3.6.7 1 1.1.4.4.8.8 1.1 1 .3.2.6.4.8.5.2.1.4.2.5.2h.2s0 0 .1 0c0 0 .1 0 .1 0l.8-.8c.2-.1.4-.2.6-.2.2 0 .3 0 .4.1l2.7 1.6c.1-.1.3 0 .3.2z"/><path fill="#393E46" d="M373.4.3H227.3c-2.9 0-5.2 2.4-5.2 5.2v268.1c0 2.9 2.4 5.2 5.2 5.2h146.2c2.9 0 5.2-2.4 5.2-5.2V5.6c0-2.9-2.4-5.3-5.3-5.3z"/><path fill="#535659" d="M317.1 255.7h-33.5c-1.5 0-2.7 1.2-2.7 2.7v5.2c0 1.5 1.2 2.7 2.7 2.7h33.5c1.5 0 2.7-1.2 2.7-2.7v-5.2c.1-1.5-1.2-2.7-2.7-2.7z"/><path fill="#fff" d="M235.7 245.4c-.8 0-1.5-.7-1.5-1.5V20.2c0-.8.7-1.5 1.5-1.5h129.4c.8 0 1.5.7 1.5 1.5V244c0 .8-.7 1.5-1.5 1.5H235.7z"/><path fill="#393E46" d="M365.1 19.2c.5 0 1 .4 1 1V244c0 .5-.4 1-1 1H235.7c-.5 0-1-.4-1-1V20.2c0-.5.4-1 1-1h129.4m0-1H235.7c-1.1 0-2 .9-2 2V244c0 1.1.9 2 2 2h129.4c1.1 0 2-.9 2-2V20.2c-.1-1.1-1-2-2-2z"/><path fill="#333" d="M234.6 228h131.6v17.8H234.6z"/><path fill="#fff" d="M267.3 236.1h-8.2l1.6-1.9h-1l-1.9 2.2 1.9 2.2h1l-1.6-1.9h8.2c.8 0 1.8.3 1.8 1.5s-1 1.5-1.8 1.5h-4.2v.7h4.2c1.6 0 2.6-.8 2.6-2.2 0-1.2-1-2.1-2.6-2.1z" opacity=".4"/><path fill-rule="evenodd" clip-rule="evenodd" fill="#fff" d="M300.4 233.7l-6.6 2.4v4.5H307v-4.5l-6.6-2.4zm0 .8l5.9 2.1v3.2h-11.7v-3.2l5.8-2.1z" opacity=".4"/><g opacity=".4"><path fill-rule="evenodd" clip-rule="evenodd" fill="#fff" d="M331.1 240.4h10.2V236h-10.2v4.4zm.7-3.7h8.8v3h-8.8v-3zm2.2-2.6v.7h8.8v3.7h.7v-4.4H334zM331.1 236.1v4.4h10.2v-4.4h-10.2zm9.5 3.7h-8.8v-3h8.8v3zM334 234.3v.7h8.8v4.1h.7v-4.8z"/></g><path fill="#333" d="M366.3 28.1H234.6v-8.2c0-.5.4-.9.9-.9h129.6c.7 0 1.2.5 1.2 1.2v7.9z"/><g opacity=".6" fill="#fff"><path d="M353.4 25.5h-.4v-3h-.7v-.3l1.1-.1v3.4zM357.1 25.5h-2.2v-.4l1.1-1.2c.2-.2.3-.4.4-.5.1-.1.1-.3.1-.4 0-.2 0-.3-.1-.4-.1-.1-.2-.2-.4-.2s-.4 0-.5.1c-.1.1-.2.4-.2.4h-.4v.1c0-.3.1-.5.3-.7.2-.2.5-.3.8-.3.3 0 .5.1.7.3.2.2.3.4.3.7 0 .2-.1.4-.2.6-.1.2-.3.4-.5.6l-.9 1h1.6v.3zM358.2 23.5h-.5V23h.5v.5zm0 2h-.5V25h.5v.5zM359.3 23.7h.5c.2 0 .3-.1.4-.2.1-.1.1-.3.1-.5s0-.4-.1-.5c-.1-.1-.2-.2-.4-.2s-.3 0-.4.1c-.1.1-.2.4-.2.4h-.4c0-.3.1-.5.3-.6.2-.2.4-.3.8-.3.3 0 .6.1.7.3.2.2.3.4.3.7 0 .1 0 .3-.1.4-.1.1-.2.2-.4.3.2.1.3.2.4.3.1.1.1.3.1.5 0 .3-.1.6-.3.7-.2.2-.5.3-.8.3-.3 0-.6-.1-.8-.2-.2-.2-.3-.5-.3-.8v-.1h.4c0 .4.1.4.2.5.1.1.3.2.5.2s.3 0 .5-.1c.1-.1.2-.3.2-.5s0-.3-.1-.4c-.1-.1-.3-.1-.5-.1h-.5v-.2zM363.7 24.2c0 .4-.1.8-.3 1-.2.2-.5.3-.8.3s-.6-.1-.8-.3c-.2-.2-.3-.6-.3-1v-.8c0-.4.1-.8.3-1 .2-.2.5-.3.8-.3.3 0 .6.1.8.3.2.2.3.6.3 1v.8zm-.4-.9c0-.3-.1-.5-.2-.7-.1-.1-.3-.2-.5-.2s-.4.1-.5.2c-.1.1-.2.4-.2.7v1c0 .3.1.5.2.7.1.1.3.2.5.2s.4-.1.5-.2c.1-.1.2-.4.2-.7v-1z"/></g><g opacity=".6"><path fill="#fff" d="M340.3 26.1h1.1v-2.6l-1.1 1.2v1.4zm1.3 0h1.1V22l-1.1 1.2v2.9zm1.4-4.4v4.5h1.1v-5.6l-1.1 1.1zm-3 4.4V25l-1.1 1.1h1.1z"/><path fill="#fff" d="M332.8 22.9l.7.8c.5-.4 1.2-.7 2-.7s1.5.3 2 .7l.7-.8c-.7-.6-1.7-.9-2.7-.9-1 0-1.9.4-2.7.9zm-.8-1l.7.8c.8-.6 1.8-1 2.9-1 1.1 0 2.1.4 2.9 1l.7-.8c-2.1-1.6-5.1-1.6-7.2 0zm2.6 3.1l.9 1.1.9-1.1c-.2-.2-.6-.3-.9-.3-.3 0-.6.1-.9.3zm-.9-1l.7.9c.3-.2.7-.4 1.1-.4.4 0 .8.2 1.1.4l.7-.9c-.5-.4-1.1-.6-1.8-.6-.6-.1-1.3.2-1.8.6z"/><path fill-rule="evenodd" clip-rule="evenodd" fill="#fff" d="M350.5 26.3v-5.1h-1.1v-.4h-1.8v.4h-1.1v5.1h4z"/></g></svg>