<svg xmlns="http://www.w3.org/2000/svg" width="135" height="135" viewBox="0 0 135 135"><circle opacity=".3" fill="#7F5AB0" cx="70.6" cy="70.8" r="63.9"/><path fill="#7F5AB0" d="M37.7 122.4c8 3.6 16.9 5.7 26.3 5.7 35.3 0 63.9-28.6 63.9-63.9S99.3.3 64 .3.1 28.9.1 64.2c0 22 11.2 41.5 28.1 53l-.7 10.2 10.2-5z"/><path fill="#fff" d="M27.1 47.3c0-.7.4-1.2 1.1-1.2h6.4c3.7 0 6.2 2.6 6.2 6.4s-2.6 6.4-6.2 6.4h-4v5.6c0 .8-.4 1.2-1.1 1.2h-1.3c-.7 0-1.1-.4-1.1-1.2V47.3zm6.9 8.6c2.1 0 3.3-1.3 3.3-3.4 0-2-1.2-3.3-3.2-3.3h-3.4v6.7H34zM46.5 47.1c.2-.6.6-.9 1.3-.9h1.8c.7 0 1.1.3 1.3.9L57 64.4c.3.8-.1 1.3-.9 1.3h-1.3c-.7 0-1.1-.3-1.3-.9l-1.4-4.1h-6.8l-1.3 4c-.2.7-.6 1-1.3 1h-1.3c-.9 0-1.2-.5-.9-1.3l6-17.3zm4.7 10.7l-1.7-5.2c-.3-1.1-.8-3-.8-3h-.1s-.4 1.9-.8 3L46 57.8h5.2zM58.4 62.4l.6-.9c.4-.6.9-.6 1.6-.2.6.4 2 1.4 4 1.4 1.8 0 2.9-.9 2.9-2.2 0-3.7-9.1-2.9-9.1-9 0-3.4 2.9-5.7 6.6-5.7 2.3 0 4.2.9 5 1.5.6.4.7 1 .4 1.6l-.5.9c-.4.8-1 .7-1.6.4-.8-.5-1.9-1.1-3.4-1.1-1.8 0-3 .9-3 2.2 0 3.7 9.1 2.7 9.1 8.9 0 3.2-2.4 5.8-6.5 5.8-2.8 0-5-1.2-6-2-.4-.4-.7-.8-.1-1.6zM78.2 49.2h-5.3c-.8 0-1.2-.4-1.2-1.1v-.8c0-.7.4-1.2 1.2-1.2h14c.7 0 1.1.4 1.1 1.2v.8c0 .7-.4 1.1-1.1 1.1h-5.3v15.3c0 .8-.4 1.2-1.2 1.2h-1.2c-.7 0-1.1-.4-1.1-1.2V49.2zM90 47.3c0-.7.4-1.2 1.1-1.2h9.4c.7 0 1.2.4 1.2 1.2v.8c0 .7-.4 1.1-1.2 1.1h-7v5.1H99c.7 0 1.2.4 1.2 1.1v.8c0 .8-.4 1.2-1.2 1.2h-5.4v5.3h7.5c.7 0 1.2.4 1.2 1.1v.8c0 .8-.4 1.2-1.2 1.2h-9.8c-.7 0-1.1-.4-1.1-1.2V47.3z"/><path fill="#C2B8D3" d="M40.3 73.8H34c-.4 0-.7-.2-.7-.7v-.3c0-.4.2-.7.7-.7h14.4c.4 0 .7.2.7.7v.3c0 .4-.2.7-.7.7h-6.3v16.9c0 .4-.2.7-.7.7H41c-.4 0-.7-.2-.7-.7V73.8zM51.5 72.8c0-.4.2-.7.7-.7h9.5c.4 0 .7.2.7.7v.3c0 .4-.2.7-.7.7h-8.3v7h6.7c.4 0 .7.2.7.7v.4c0 .4-.2.7-.7.7h-6.7v7.2h8.8c.4 0 .7.2.7.7v.3c0 .4-.2.7-.7.7h-10c-.4 0-.7-.2-.7-.7v-18zM70.1 81.4L65 72.9c-.3-.4-.1-.8.5-.8h.7c.4 0 .6.2.8.5l3.1 5.3c.6 1 1.3 2.2 1.3 2.2h.1s.6-1.2 1.2-2.2l3.1-5.3c.2-.3.4-.5.8-.5h.7c.6 0 .8.4.5.8l-5.2 8.4 5.7 9.3c.3.4.1.8-.4.8h-.7c-.4 0-.6-.1-.8-.5l-3.8-6.2c-.6-1-1.2-2.1-1.2-2.1h-.1s-.6 1.2-1.2 2.2L66.4 91c-.2.3-.4.5-.8.5h-.7c-.6 0-.7-.4-.5-.8l5.7-9.3zM85.8 73.8h-6.2c-.4 0-.7-.2-.7-.7v-.3c0-.4.2-.7.7-.7H94c.4 0 .7.2.7.7v.3c0 .4-.2.7-.7.7h-6.3v16.9c0 .4-.2.7-.7.7h-.5c-.4 0-.7-.2-.7-.7V73.8z"/></svg>