<?xml version="1.0" encoding="utf-8"?>
<!-- Generator: Adobe Illustrator 18.1.0, SVG Export Plug-In . SVG Version: 6.00 Build 0)  -->
<!DOCTYPE svg PUBLIC "-//W3C//DTD SVG 1.1//EN" "http://www.w3.org/Graphics/SVG/1.1/DTD/svg11.dtd">
<svg version="1.1" id="Layer_1" xmlns="http://www.w3.org/2000/svg" xmlns:xlink="http://www.w3.org/1999/xlink" x="0px" y="0px"
	 width="80px" height="80px" viewBox="28 -31 80 80" enable-background="new 28 -31 80 80" xml:space="preserve">
<g>
	<circle opacity="0.31" fill="#29ABE2" enable-background="new    " cx="69.6" cy="12" r="36.7"/>
	<path fill="#3089E2" d="M70.3-26.2c-5-0.6-10.3-0.1-15.4,1.6c-19.2,6.3-29.7,27-23.4,46.3s27,29.8,46.3,23.4s29.8-27,23.4-46.3
		c-3.9-12-13.5-20.6-24.8-23.9L75-30.7L70.3-26.2z"/>
</g>
<g>
	<path fill="#FFFFFF" d="M42.8-2.1c1.6,0,2.7,0.6,3.2,1c0.3,0.2,0.3,0.5,0.1,0.8l-0.3,0.4c-0.2,0.3-0.5,0.3-0.8,0.1
		c-0.4-0.3-1.2-0.7-2.2-0.7c-2.2,0-3.3,1.6-3.3,3.4c0,1.8,1.2,3.5,3.3,3.5c1.1,0,2-0.5,2.4-0.9c0.3-0.2,0.6-0.2,0.8,0.1L46.3,6
		c0.2,0.3,0.2,0.6-0.1,0.8c-0.6,0.4-1.7,1.2-3.5,1.2c-3.1,0-5.1-2.2-5.1-5.1C37.7,0.1,39.8-2.1,42.8-2.1z"/>
	<path fill="#FFFFFF" d="M52.2-2.1c3,0,5.1,2.2,5.1,5c0,2.9-2.1,5.2-5.1,5.2s-5.1-2.3-5.1-5.2C47.1,0.1,49.2-2.1,52.2-2.1z
		 M52.2,6.4c1.9,0,3.3-1.5,3.3-3.5c0-1.9-1.4-3.4-3.3-3.4S48.9,1,48.9,2.9C48.9,4.9,50.3,6.4,52.2,6.4z"/>
	<path fill="#FFFFFF" d="M58.7-1.4c0-0.4,0.2-0.6,0.6-0.6h3.2c1.8,0,3.1,1.3,3.1,3.2c0,1.9-1.3,3.3-3.1,3.3h-2v2.8
		c0,0.4-0.2,0.6-0.6,0.6h-0.6c-0.4,0-0.6-0.2-0.6-0.6V-1.4z M62.2,2.9c1.1,0,1.7-0.7,1.7-1.7c0-1-0.6-1.7-1.6-1.7h-1.7v3.4H62.2z"/>
	<path fill="#FFFFFF" d="M66.9-1.4c0-0.4,0.2-0.6,0.6-0.6h0.6c0.4,0,0.6,0.2,0.6,0.6v8.7c0,0.4-0.2,0.6-0.6,0.6h-0.6
		c-0.4,0-0.6-0.2-0.6-0.6V-1.4z"/>
	<path fill="#FFFFFF" d="M72.9-1.5C73-1.8,73.2-2,73.5-2h0.9c0.3,0,0.6,0.2,0.7,0.5l3.1,8.7c0.1,0.4,0,0.7-0.5,0.7H77
		c-0.3,0-0.6-0.2-0.7-0.5l-0.7-2.1h-3.5l-0.7,2c-0.1,0.3-0.3,0.5-0.7,0.5h-0.6c-0.4,0-0.6-0.3-0.5-0.7L72.9-1.5z M75.2,3.9l-0.9-2.6
		C74.2,0.7,74-0.3,74-0.3h0c0,0-0.2,1-0.4,1.5l-0.9,2.6H75.2z"/>
	<path fill="#FFFFFF" d="M78.6,7.2c0-0.3,0.1-0.5,0.2-0.7l4.1-5.9c0.4-0.6,0.7-0.9,0.7-0.9v0c0,0-0.3,0-0.7,0h-3.6
		c-0.4,0-0.6-0.2-0.6-0.6v-0.4C78.8-1.8,79-2,79.4-2h6c0.4,0,0.6,0.2,0.6,0.6v0.2c0,0.3-0.1,0.5-0.2,0.7l-4.2,6
		c-0.4,0.6-0.7,0.9-0.7,0.9v0c0,0,0.3,0,0.7,0h3.9c0.4,0,0.6,0.2,0.6,0.6v0.4c0,0.4-0.2,0.6-0.6,0.6h-6.3c-0.4,0-0.6-0.2-0.6-0.6
		V7.2z"/>
	<path fill="#FFFFFF" d="M89.6-1.5C89.7-1.8,89.9-2,90.2-2h0.9c0.3,0,0.6,0.2,0.7,0.5l3.1,8.7c0.1,0.4,0,0.7-0.5,0.7h-0.6
		c-0.3,0-0.6-0.2-0.7-0.5l-0.7-2.1h-3.5l-0.7,2c-0.1,0.3-0.3,0.5-0.7,0.5h-0.6c-0.4,0-0.6-0.3-0.5-0.7L89.6-1.5z M88.6-4.2
		c0-0.2,0.1-0.3,0.5-0.3h0.3c0.3,0,0.5,0.2,0.5,0.4c0.1,0.4,0.4,0.6,0.8,0.6c0.4,0,0.7-0.2,0.8-0.6c0.1-0.2,0.2-0.4,0.5-0.4h0.3
		c0.4,0,0.5,0.1,0.5,0.3c0,1-1,1.6-2,1.6C89.7-2.6,88.6-3.2,88.6-4.2z M91.9,3.9l-0.9-2.6c-0.2-0.6-0.4-1.5-0.4-1.5h0
		c0,0-0.2,1-0.4,1.5l-0.9,2.6H91.9z"/>
	<path fill="#80BCED" d="M36.2,13c0-0.2,0.1-0.3,0.3-0.3h0.3c0.1,0,0.2,0.1,0.3,0.2l3.7,5.2c0.3,0.4,0.6,1,0.6,1h0
		c0,0-0.1-0.6-0.1-1V13c0-0.2,0.1-0.3,0.3-0.3h0.2c0.2,0,0.3,0.1,0.3,0.3v7c0,0.2-0.1,0.3-0.3,0.3h-0.3c-0.1,0-0.2-0.1-0.3-0.2
		l-3.7-5.2c-0.3-0.4-0.6-1-0.6-1h0c0,0,0.1,0.6,0.1,1V20c0,0.2-0.1,0.3-0.3,0.3h-0.2c-0.2,0-0.3-0.1-0.3-0.3V13z"/>
	<path fill="#80BCED" d="M43.6,15.1c0-0.2,0.1-0.3,0.3-0.3h0.2c0.2,0,0.3,0.1,0.3,0.3v0.7c0,0.2,0,0.4,0,0.4h0
		c0.3-0.8,0.9-1.5,1.7-1.5c0.2,0,0.3,0.1,0.3,0.3v0.2c0,0.2-0.1,0.3-0.3,0.3c-1.1,0-1.7,1.3-1.7,2.4v2c0,0.2-0.1,0.3-0.3,0.3h-0.2
		c-0.2,0-0.3-0.1-0.3-0.3V15.1z"/>
	<path fill="#80BCED" d="M46.6,19.6c0-0.2,0.1-0.3,0.3-0.3h0.4c0.2,0,0.3,0.1,0.3,0.3V20c0,0.2-0.1,0.3-0.3,0.3h-0.4
		c-0.2,0-0.3-0.1-0.3-0.3V19.6z"/>
	<path fill="#80BCED" d="M53.4,14.7c1.3,0,1.8,1.1,1.8,1.1h0c0,0,0-0.2,0-0.4V13c0-0.2,0.1-0.3,0.3-0.3h0.2c0.2,0,0.3,0.1,0.3,0.3v7
		c0,0.2-0.1,0.3-0.3,0.3h-0.2c-0.2,0-0.3-0.1-0.3-0.3v-0.4c0-0.2,0-0.3,0-0.3h0c0,0-0.5,1.1-1.9,1.1c-1.4,0-2.3-1.2-2.3-2.8
		C51,15.8,52,14.7,53.4,14.7z M53.4,19.7c0.9,0,1.7-0.6,1.7-2.2c0-1.1-0.6-2.1-1.7-2.1c-1,0-1.7,0.8-1.7,2.1
		C51.7,18.9,52.4,19.7,53.4,19.7z"/>
	<path fill="#80BCED" d="M59.6,14.7c1.4,0,2.2,1,2.2,2.6c0,0.1-0.1,0.3-0.3,0.3h-3.9c0,1.4,1,2.1,2.1,2.1c0.7,0,1.2-0.3,1.4-0.5
		c0.1-0.1,0.3-0.1,0.4,0.1l0.1,0.1c0.1,0.1,0.1,0.3-0.1,0.4c-0.3,0.2-0.9,0.6-1.8,0.6c-1.6,0-2.8-1.2-2.8-2.8
		C57,15.8,58.2,14.7,59.6,14.7z M61.1,17c0-1.1-0.7-1.7-1.5-1.7c-0.9,0-1.7,0.6-1.8,1.7H61.1z"/>
	<path fill="#80BCED" d="M65.7,15.5h-0.4c-0.2,0-0.3-0.1-0.3-0.3v-0.1c0-0.2,0.1-0.3,0.3-0.3h0.5v-1.3c0-0.2,0.1-0.3,0.3-0.3h0.2
		c0.2,0,0.3,0.1,0.3,0.3v1.3h1.1c0.2,0,0.3,0.1,0.3,0.3v0.1c0,0.2-0.1,0.3-0.3,0.3h-1.1v2.7c0,1.2,0.8,1.4,1.2,1.4
		c0.2,0,0.3,0.1,0.3,0.3V20c0,0.2-0.1,0.3-0.3,0.3c-1.2,0-1.9-0.7-1.9-2V15.5z"/>
	<path fill="#80BCED" d="M70.9,14.7c1.4,0,2.2,1,2.2,2.6c0,0.1-0.1,0.3-0.3,0.3H69c0,1.4,1,2.1,2.1,2.1c0.7,0,1.2-0.3,1.4-0.5
		c0.2-0.1,0.3-0.1,0.4,0.1l0.1,0.1c0.1,0.1,0.1,0.3-0.1,0.4c-0.3,0.2-0.9,0.6-1.8,0.6c-1.6,0-2.8-1.2-2.8-2.8
		C68.3,15.8,69.5,14.7,70.9,14.7z M72.5,17c0-1.1-0.7-1.7-1.5-1.7c-0.9,0-1.7,0.6-1.8,1.7H72.5z"/>
	<path fill="#80BCED" d="M74.3,13c0-0.2,0.1-0.3,0.3-0.3h0.2c0.2,0,0.3,0.1,0.3,0.3v5.8c0,0.7,0.3,0.7,0.6,0.8
		c0.1,0,0.2,0.1,0.2,0.2V20c0,0.2-0.1,0.3-0.3,0.3c-0.4,0-1.2-0.1-1.2-1.3V13z"/>
	<path fill="#80BCED" d="M79,14.7c1.4,0,2.2,1,2.2,2.6c0,0.1-0.1,0.3-0.3,0.3h-3.9c0,1.4,1,2.1,2.1,2.1c0.7,0,1.2-0.3,1.4-0.5
		c0.2-0.1,0.3-0.1,0.4,0.1l0.1,0.1c0.1,0.1,0.1,0.3-0.1,0.4c-0.3,0.2-0.9,0.6-1.8,0.6c-1.6,0-2.8-1.2-2.8-2.8
		C76.3,15.8,77.5,14.7,79,14.7z M80.5,17c0-1.1-0.7-1.7-1.5-1.7c-0.9,0-1.7,0.6-1.8,1.7H80.5z"/>
	<path fill="#80BCED" d="M82.5,15.5h-0.4c-0.2,0-0.3-0.1-0.3-0.3v-0.1c0-0.2,0.1-0.3,0.3-0.3h0.4v-0.2c0-1.7,1.3-2,1.8-2h0.1
		c0.2,0,0.3,0.1,0.3,0.3v0.1c0,0.2-0.1,0.2-0.3,0.3c-0.5,0-1.2,0.2-1.2,1.3v0.2h1.1c0.2,0,0.3,0.1,0.3,0.3v0.1
		c0,0.2-0.1,0.3-0.3,0.3h-1.1V20c0,0.2-0.1,0.3-0.3,0.3h-0.2c-0.2,0-0.3-0.1-0.3-0.3V15.5z"/>
	<path fill="#80BCED" d="M87.7,14.7c1.6,0,2.8,1.2,2.8,2.8c0,1.6-1.3,2.8-2.8,2.8c-1.6,0-2.8-1.2-2.8-2.8
		C84.9,15.9,86.2,14.7,87.7,14.7z M87.7,19.7c1.1,0,2.1-0.9,2.1-2.2c0-1.2-0.9-2.1-2.1-2.1c-1.2,0-2.1,0.9-2.1,2.1
		C85.6,18.8,86.6,19.7,87.7,19.7z"/>
	<path fill="#80BCED" d="M91.7,15.1c0-0.2,0.1-0.3,0.3-0.3h0.2c0.2,0,0.3,0.1,0.3,0.3v0.6c0,0.2,0,0.4,0,0.4h0
		c0.2-0.5,0.9-1.4,2.2-1.4c1.3,0,1.8,0.8,1.8,2.1V20c0,0.2-0.1,0.3-0.3,0.3h-0.2c-0.2,0-0.3-0.1-0.3-0.3v-3c0-0.8-0.1-1.6-1.2-1.6
		c-1.1,0-2,0.9-2,2.2V20c0,0.2-0.1,0.3-0.3,0.3h-0.2c-0.2,0-0.3-0.1-0.3-0.3V15.1z"/>
</g>
</svg>
