<svg xmlns="http://www.w3.org/2000/svg" width="140" height="140" viewBox="0 0 140 140"><g fill="#22D2EF"><ellipse opacity=".2" cx="68" cy="70" rx="67.4" ry="69"/><circle cx="72.6" cy="72.4" r="66.3"/><path d="M125.1 37.1l14.6 1.4-6.5 13.3z"/></g><path fill="#fff" d="M49.9 47.9c0-1 .5-1.5 1.5-1.5h8.5c4.8 0 8.2 3.4 8.2 8.4s-3.4 8.5-8.2 8.5h-5.3v7.4c0 1-.5 1.5-1.5 1.5h-1.7c-1 0-1.5-.5-1.5-1.5V47.9zM59 59.2c2.8 0 4.3-1.8 4.3-4.4 0-2.7-1.6-4.4-4.3-4.4h-4.5v8.8H59zM83.1 45.9c4.2 0 7.1 1.6 8.5 2.6.8.6.8 1.3.3 2.1l-.7 1.1c-.5.8-1.2.9-2.1.4-1.1-.7-3.2-1.8-5.8-1.8-5.6 0-8.7 4.1-8.7 8.9 0 4.8 3.1 9.3 8.7 9.3 2.9 0 5.1-1.4 6.3-2.3.8-.6 1.5-.6 2.1.3l.7 1c.5.7.5 1.5-.2 2.1-1.5 1.2-4.6 3.2-9.2 3.2-8.1 0-13.4-5.9-13.4-13.5.2-7.7 5.7-13.4 13.5-13.4z"/><path fill="#E6FBFF" d="M16.7 78.8c0-.3.2-.5.5-.5h.5c.3 0 .5.1.6.3l7.1 10c.5.7 1.2 1.9 1.2 1.9s-.1-1.2-.1-1.9v-9.9c0-.3.2-.5.5-.5h.4c.3 0 .5.2.5.5v13.4c0 .3-.2.5-.5.5H27c-.3 0-.5-.1-.6-.3l-7.2-10c-.5-.7-1.2-1.9-1.2-1.9s.1 1.2.1 1.9v9.9c0 .3-.2.5-.5.5h-.4c-.3 0-.5-.2-.5-.5V78.8zM35.8 82.1c3 0 5.5 2.3 5.5 5.4 0 3.1-2.4 5.5-5.4 5.5-3 0-5.5-2.3-5.5-5.5-.1-3.1 2.4-5.4 5.4-5.4zm0 9.6c2.2 0 4-1.8 4-4.2 0-2.3-1.8-4.1-4-4.1s-4 1.8-4 4.1c0 2.4 1.8 4.2 4 4.2zM43.6 83.6h-.9c-.3 0-.5-.2-.5-.5V83c0-.3.2-.5.5-.5h.9v-2.4c0-.3.2-.5.5-.5h.4c.3 0 .5.2.5.5v2.4h2.1c.3 0 .5.2.5.5v.2c0 .3-.2.5-.5.5H45v5.2c0 2.4 1.5 2.7 2.3 2.7.4 0 .6.2.6.5v.3c0 .3-.2.5-.6.5-2.3 0-3.6-1.4-3.6-3.8v-5.5zM49.4 79.5v-.7c0-.3.2-.5.5-.5h.5c.3 0 .5.2.5.5v.7c0 .3-.2.5-.5.5h-.5c-.3 0-.5-.1-.5-.5zm0 3.4c0-.3.2-.5.5-.5h.4c.3 0 .5.2.5.5v9.3c0 .3-.2.5-.5.5h-.4c-.3 0-.5-.2-.5-.5v-9.3zM54 83.6h-.8c-.3 0-.5-.2-.5-.5v-.2c0-.3.2-.5.5-.5h.8V82c0-3.3 2.4-3.8 3.5-3.8h.2c.3 0 .5.2.5.5v.2c0 .3-.2.5-.6.5-.9 0-2.2.3-2.2 2.6v.4h5.4c.3 0 .5.2.5.5v9.3c0 .3-.2.5-.5.5h-.4c-.3 0-.5-.2-.5-.5v-8.6h-4.5v8.6c0 .3-.2.5-.5.5h-.4c-.3 0-.5-.2-.5-.5v-8.6zm5.9-4.1v-.7c0-.3.2-.5.5-.5h.5c.3 0 .5.2.5.5v.7c0 .3-.2.5-.5.5h-.5c-.4 0-.5-.1-.5-.5zM68.8 82.1c1.8 0 2.9.8 3.4 1.2.2.2.3.4.1.7l-.1.2c-.2.3-.4.3-.7.1-.5-.3-1.4-.9-2.6-.9-2.3 0-4 1.7-4 4.2 0 2.4 1.8 4.1 4 4.1 1.4 0 2.4-.7 2.9-1.1.3-.2.5-.2.7.1l.1.2c.2.3.1.5-.1.7-.5.4-1.8 1.3-3.7 1.3-3.1 0-5.4-2.2-5.4-5.4 0-3.1 2.4-5.4 5.4-5.4zM80.1 86.4h.6v-.3c0-2-1.1-2.7-2.5-2.7-1.1 0-2 .4-2.5.7-.3.1-.5.1-.7-.2l-.1-.2c-.2-.3-.1-.5.1-.7.5-.3 1.7-.9 3.3-.9 2.5 0 3.8 1.4 3.8 4v6.1c0 .3-.2.5-.5.5h-.3c-.3 0-.5-.2-.5-.5v-.8c0-.5.1-.8.1-.8S80 93 77.4 93c-1.7 0-3.5-1-3.5-3-.1-3.4 4.2-3.6 6.2-3.6zm-2.6 5.4c2 0 3.2-2.1 3.2-3.9v-.5h-.6c-1.6 0-4.9.1-4.9 2.4 0 1 .8 2 2.3 2zM85 83.6h-.9c-.3 0-.5-.2-.5-.5V83c0-.3.2-.5.5-.5h.9v-2.4c0-.3.2-.5.5-.5h.4c.3 0 .5.2.5.5v2.4h2.1c.3 0 .5.2.5.5v.2c0 .3-.2.5-.5.5h-2.1v5.2c0 2.4 1.5 2.7 2.3 2.7.4 0 .6.2.6.5v.3c0 .3-.2.5-.6.5-2.3 0-3.6-1.4-3.6-3.8v-5.5zM90.8 79.5v-.7c0-.3.2-.5.5-.5h.5c.3 0 .5.2.5.5v.7c0 .3-.2.5-.5.5h-.5c-.3 0-.5-.1-.5-.5zm0 3.4c0-.3.2-.5.5-.5h.4c.3 0 .5.2.5.5v9.3c0 .3-.2.5-.5.5h-.4c-.3 0-.5-.2-.5-.5v-9.3zM99.8 82.1c3 0 5.5 2.3 5.5 5.4 0 3.1-2.4 5.5-5.4 5.5-3 0-5.5-2.3-5.5-5.5-.1-3.1 2.4-5.4 5.4-5.4zm0 9.6c2.2 0 4-1.8 4-4.2 0-2.3-1.8-4.1-4-4.1s-4 1.8-4 4.1c0 2.4 1.8 4.2 4 4.2zM107.3 82.9c0-.3.2-.5.5-.5h.4c.3 0 .5.2.5.5v1.2c0 .4-.1.7-.1.7.4-.9 1.7-2.7 4.2-2.7 2.6 0 3.5 1.5 3.5 4v6c0 .3-.2.5-.5.5h-.4c-.3 0-.5-.2-.5-.5v-5.7c0-1.6-.3-3.1-2.3-3.1-2.2 0-3.9 1.8-3.9 4.2V92c0 .3-.2.5-.5.5h-.4c-.3 0-.5-.2-.5-.5v-9.1zM118.3 91.1l.2-.2c.2-.2.4-.3.7-.1.5.3 1.4.9 2.7.9 1.1 0 2.1-.6 2.1-1.7 0-2.3-5.5-1.6-5.5-5 0-1.9 1.6-2.9 3.5-2.9 1.5 0 2.4.5 2.8.8.3.2.3.4.1.7l-.1.2c-.2.3-.4.3-.7.1-.4-.3-1.1-.7-2.2-.7s-2 .5-2 1.6c0 2.4 5.5 1.6 5.5 5.1 0 1.7-1.4 2.9-3.5 2.9-1.8 0-3-.8-3.5-1.2-.3 0-.3-.3-.1-.5z"/></svg>