<svg xmlns="http://www.w3.org/2000/svg" width="95" height="60" viewBox="0 0 95 60"><g fill="#4D5E70"><path d="M5.7 1.2v.6H3.2v6.5h-.7V1.7H.1v-.5h5.6zM5.3 3.9c.1-.2.2-.4.4-.5.2-.1.4-.2.6-.3.3-.1.5-.1.8-.1.3 0 .5 0 .7 0 .2 0 .4.1.6.2.2.1.3.3.4.5.2.3.2.6.2.9v2.7c0 .3.1.4.4.4.1 0 .1 0 .2 0v.5c-.1 0-.1 0-.2 0s-.1 0-.2 0c-.2 0-.3 0-.4-.1-.1 0-.2-.1-.2-.1-.1-.1-.1-.2-.1-.3 0-.1 0-.2 0-.4-.2.2-.3.3-.4.5-.1.1-.3.2-.4.3-.1.1-.3.1-.5.2-.2 0-.4.1-.6.1-.2 0-.5 0-.7-.1-.2-.1-.4-.2-.5-.3-.2-.1-.3-.3-.4-.5s-.1-.4-.1-.6c0-.4.1-.6.2-.8.2-.2.4-.4.6-.5.3-.1.6-.2.9-.2.3 0 .7-.1 1-.1.1 0 .2 0 .3-.1.1 0 .2-.1.2-.1.2-.1.2-.1.2-.2s.1-.2.1-.3c0-.2 0-.4-.1-.5-.1-.2-.2-.3-.3-.4-.1-.1-.3-.1-.4-.2-.2 0-.3 0-.5 0-.4 0-.7.1-1 .3-.3.2-.4.5-.4.9h-.6c0-.3.1-.6.2-.8zm3.1 1.5c0 .1-.1.1-.2.2-.2 0-.3 0-.3.1-.3 0-.6 0-.9.1-.3 0-.5.1-.8.2-.2 0-.4.1-.5.3-.1.1-.2.3-.2.5s0 .3.1.4.1.2.3.3c.1.1.2.2.4.2.1 0 .3.1.4.1.2 0 .5 0 .7-.1s.4-.2.6-.3c0-.1.2-.3.3-.5s.1-.4.1-.7v-.8zM10.9 1.2v1h-.6v-1h.6zm0 1.9v5.1h-.6V3.1h.6zM16.3 8.8c-.1.3-.2.6-.4.8-.2.2-.4.4-.7.5s-.6.2-1.1.2c-.3 0-.5 0-.8-.1-.2-.1-.5-.2-.7-.3s-.4-.3-.5-.5-.2-.4-.2-.7h.6c0 .2.1.4.2.5.1.1.2.2.3.3s.3.1.5.2c.2 0 .3.1.5.1.6 0 1-.2 1.3-.5s.4-.8.4-1.4v-.8c-.1.3-.4.6-.6.8-.3.2-.6.3-1 .3s-.8-.1-1-.2c-.3-.1-.5-.3-.7-.6-.2-.2-.3-.5-.4-.8s-.1-.7-.1-1 .1-.7.2-1c.1-.3.3-.6.4-.8.2-.2.4-.4.7-.6.3-.2.6-.2 1-.2.2 0 .4 0 .5.1.2.1.3.1.5.2.1.1.3.2.4.3.1.1.2.3.3.4v-.9h.6v4.7c0 .4-.1.7-.2 1zm-1.4-1.3c.2-.1.4-.3.5-.5s.2-.4.3-.6.1-.5.1-.8 0-.5-.1-.8-.2-.5-.3-.7c-.1-.1-.2-.3-.4-.4s-.5-.2-.8-.2-.6.1-.8.2c-.2.1-.4.3-.5.5s-.2.4-.3.7c-.1.3-.1.5-.1.8s0 .5.1.8c.1.2.2.5.3.6.1.2.3.3.5.5.2.1.5.2.8.2.3-.2.5-.2.7-.3zM17.8 3.9c.1-.2.2-.4.4-.5.2-.1.4-.2.6-.3.3-.1.6-.1.9-.1.2 0 .4 0 .7.1.2 0 .4.1.6.2.2.1.3.3.4.5s.2.5.2.8v2.7c0 .3.1.4.4.4.1 0 .1 0 .2 0v.5c-.1 0-.1 0-.2 0s-.1 0-.2 0c-.2 0-.3 0-.4-.1-.1 0-.2-.1-.2-.2-.1 0-.2-.1-.2-.2s0-.2 0-.4c-.1.2-.2.3-.3.4s-.3.3-.5.4c-.1.1-.3.2-.5.2s-.4.1-.6.1-.5 0-.7-.1-.4-.1-.5-.3c-.2-.1-.3-.3-.4-.5s-.1-.4-.1-.7c0-.4.1-.6.2-.8.2-.2.4-.4.6-.5.3-.1.6-.2.9-.2s.7-.1 1-.1c.1 0 .2 0 .3-.1.1 0 .2-.1.2-.1.1 0 .1-.1.2-.2 0-.1.1-.2.1-.3 0-.2 0-.4-.1-.5s-.2-.2-.3-.3c-.1-.1-.3-.1-.4-.2-.2 0-.3 0-.5 0-.4 0-.7.1-1 .3s-.4.5-.4.9h-.6c0-.3.1-.6.2-.8zm3.1 1.5c0 .1-.1.1-.2.2-.1 0-.2.1-.3.1-.3 0-.5.1-.8.1s-.5.1-.8.2c-.2.1-.4.2-.6.3-.1.1-.2.3-.2.5s0 .3.1.4.1.2.3.3c.1.1.2.2.4.2.1 0 .3.1.4.1.2 0 .5 0 .7-.1s.4-.2.6-.3c.2-.1.3-.3.4-.5s.1-.4.1-.7l-.1-.8zM26.3 1.2v1h-.6v-1h.6zm0 1.9v5.1h-.6V3.1h.6zM30.4 4.1c-.1-.1-.2-.3-.3-.4-.1-.1-.3-.2-.4-.2-.2 0-.3-.1-.5-.1-.1 0-.3 0-.4 0s-.3.1-.4.1c-.1.1-.2.2-.3.3-.1.3-.1.4-.1.6 0 .1 0 .3.1.4s.2.2.3.2c.1.1.2.1.3.2.1 0 .2.1.3.1l.8.2c.2 0 .4.1.5.1.2.1.3.2.5.3s.2.3.3.4c.1.2.1.4.1.6 0 .3-.1.5-.2.7 0 .1-.1.3-.3.4-.2.1-.4.2-.7.3-.2.1-.5.1-.7.1-.6 0-1.1-.1-1.5-.4-.4-.3-.6-.7-.6-1.4h.6c0 .4.2.7.5 1 .3.2.6.3 1 .3.2 0 .3 0 .5 0s.3-.1.5-.2c.1-.1.3-.2.3-.3.1-.1.1-.3.1-.5s0-.3-.1-.4-.1-.2-.3-.3c-.1-.1-.2-.1-.4-.2-.1 0-.3-.1-.4-.1l-.8-.2c-.2-.1-.4-.1-.6-.2s-.3-.2-.5-.3c-.1-.1-.2-.2-.3-.4-.1-.1-.1-.3-.1-.5 0-.3.1-.5.2-.7s.3-.3.5-.4c.2-.1.4-.2.6-.2.3 0 .6 0 .8 0 .3 0 .5 0 .7.1s.4.2.6.3.3.3.4.5.2.4.2.7h-.6c-.1-.2-.1-.4-.2-.5zM37.1 3.1v.5h-1V7c0 .2 0 .4.1.5s.2.2.4.2.4 0 .5 0v.5c-.1 0-.2 0-.3 0s-.2 0-.3 0c-.4 0-.7-.1-.9-.2-.2-.2-.2-.5-.2-.9V3.6h-.9v-.5h.9V1.6h.6v1.5h1.1zM38.6 1.2V4c.1-.3.3-.6.6-.7.3-.2.6-.3 1-.3s.7 0 .9.1.4.2.6.4.3.4.3.6c.1.2.1.5.1.8v3.3h-.6V5c0-.2 0-.4-.1-.6s-.1-.4-.2-.5c-.1-.1-.2-.2-.4-.3s-.4-.1-.6-.1c-.3 0-.5 0-.7.1s-.4.2-.5.4-.2.3-.3.6c-.1.2-.1.4-.1.7v3H38V1.2h.6zM43.8 6.5c.1.3.2.5.3.7s.3.3.5.5c.2.1.5.2.8.2.5 0 .8-.1 1.1-.4.3-.2.4-.6.5-.9h.6c-.1.6-.4 1-.7 1.3-.4.3-.9.5-1.5.5-.4 0-.8-.1-1-.2-.3-.1-.5-.3-.7-.6-.2-.2-.3-.5-.4-.9-.1-.3-.1-.7-.1-1s0-.7.1-1 .2-.6.4-.9.4-.5.7-.6c.2-.2.6-.2 1-.2s.8.1 1 .2c.3.2.5.4.7.6.2.3.3.6.4.9.1.3.1.7.1 1.1h-3.9c0 .3 0 .5.1.7zm3.1-1.9c-.1-.2-.2-.4-.3-.6-.1-.2-.3-.3-.5-.4-.2-.1-.4-.2-.7-.2s-.5.1-.7.2c-.2.1-.4.2-.5.4-.1.2-.2.4-.3.6s-.1.4-.2.7H47c0-.2 0-.5-.1-.7zM51.4 3.1l1.3 4.4L54 3.1h.7L56 7.5l1.3-4.4h.7l-1.6 5.1h-.7l-1.3-4.3-1.2 4.3h-.7l-1.6-5.1h.5zM61.8 3.2c.3.1.6.3.8.6.2.2.4.5.5.8.1.3.2.7.2 1s-.1.7-.2 1c-.1.4-.3.7-.5 1-.2.2-.5.4-.8.6-.3.1-.6.2-1 .2s-.7-.1-1-.2c-.3-.2-.6-.4-.8-.6-.2-.2-.4-.5-.5-.9s-.2-.7-.2-1 .1-.7.2-1 .3-.7.5-.9.5-.4.8-.6c.3-.2.6-.2 1-.2s.7 0 1 .2zm-1.8.5c-.2.1-.4.3-.6.5-.1.2-.3.4-.3.7-.1.2-.1.5-.1.8 0 .3 0 .5.1.8s.2.5.3.7.3.4.6.5c.2.1.5.2.8.2s.6-.1.8-.2.4-.3.6-.5c.1-.2.3-.4.3-.7.1-.3.1-.5.1-.8s0-.5-.1-.8-.2-.5-.3-.7c-.2-.2-.4-.4-.6-.5s-.5-.2-.8-.2-.6 0-.8.2zM64.7 3.1v1.2c.2-.4.4-.7.7-1 .4-.2.8-.3 1.3-.3v.6c-.3 0-.5 0-.8.1-.2.1-.4.2-.6.4-.2.2-.3.4-.4.6s-.1.5-.1.7v2.7h-.6v-5h.5zM68 1.2v7.1h-.6V1.2h.6zM73.1 8.2v-1c-.1.2-.2.3-.3.5-.1.1-.3.3-.4.4-.2.1-.3.2-.5.2-.2.1-.4.1-.6.1-.4 0-.7-.1-1-.2-.3-.2-.6-.4-.8-.6-.2-.2-.3-.5-.4-.9-.1-.3-.1-.7-.1-1 0-.4 0-.7.1-1s.2-.6.4-.9c.2-.2.4-.4.7-.6.3-.2.7-.2 1.1-.2.2 0 .4 0 .6.1.2 0 .4.1.5.2.2.1.3.2.4.4s.2.2.2.4V1.2h.6v7.1h-.5v-.1zm-3.4-1.8c.1.3.2.5.3.7.1.2.3.4.5.5s.5.2.8.2.6-.1.8-.2c.2-.1.4-.3.6-.5.1-.2.2-.4.3-.7 0-.2 0-.5 0-.7s0-.5-.1-.8-.2-.5-.3-.7c-.1-.2-.3-.4-.6-.5-.2-.1-.5-.2-.8-.2s-.6.1-.8.2c-.1.1-.3.3-.4.5s-.2.4-.3.7c-.1.3-.1.5-.1.8s0 .5.1.7zM76 1.2v2.4h-.6V1.2h.6zM80.6 4.1c-.1-.1-.2-.3-.3-.4-.1-.1-.3-.2-.4-.2-.2 0-.3-.1-.5-.1-.1 0-.3 0-.4 0s-.3.1-.4.1c-.1.1-.2.2-.3.3-.1.1-.1.3-.1.4s0 .3.1.4.2.2.3.2c.1.1.2.1.3.2.1 0 .2.1.3.1l.8.2c.2 0 .4.1.5.1.2.1.3.2.5.3s.2.3.3.4c.1.2.1.4.1.6 0 .3-.1.5-.2.7 0 .3-.2.5-.3.6-.2.1-.4.2-.7.3-.2.1-.5.1-.7.1-.6 0-1.1-.1-1.5-.4-.4-.3-.6-.7-.6-1.4h.6c0 .4.2.7.5 1 .3.2.6.3 1 .3.2 0 .3 0 .5 0s.3-.1.5-.2c.1-.1.3-.2.3-.3.1-.1.1-.3.1-.5s0-.3-.1-.4-.1-.2-.3-.3c-.1-.1-.2-.1-.4-.2-.1 0-.3-.1-.4-.1l-.7-.1c-.2-.1-.4-.1-.6-.2s-.3-.2-.5-.3-.2-.2-.3-.4c-.1-.1-.1-.3-.1-.5 0-.3.1-.5.2-.7s.3-.3.5-.4c.2-.1.4-.2.6-.2.2-.1.4-.1.7-.1s.5 0 .7.1.4.2.6.3.3.3.4.5.2.4.2.7h-.6c-.1-.2-.1-.4-.2-.5zM1.3 13.8v7.1H.7v-7.1s.6 0 .6 0zM2.7 16.5c.1-.2.2-.4.4-.5s.4-.2.6-.3.5-.1.8-.1c.2 0 .4 0 .7.1.2 0 .4.1.6.2.2.1.4.3.5.5.1.2.2.5.2.8v2.7c0 .3.1.4.4.4.1 0 .1 0 .2 0v.5c-.1 0-.1 0-.2 0s-.1 0-.2 0c-.2 0-.3 0-.4-.1-.1 0-.2-.1-.2-.2-.1-.1-.1-.2-.1-.3 0-.1 0-.2 0-.4-.1.2-.2.3-.3.4-.1.1-.2.2-.4.3-.1.1-.3.2-.5.2-.3.3-.6.3-.8.3-.2 0-.5 0-.7-.1s-.4-.1-.5-.3c-.2-.1-.3-.3-.4-.5-.1-.2-.1-.4-.1-.7 0-.4.1-.6.2-.8.2-.2.4-.4.6-.5.3 0 .6-.1.9-.1s.7-.1 1-.1c.1 0 .2 0 .3-.1.1 0 .2-.1.2-.1.1 0 .1-.1.2-.2 0-.1.1-.2.1-.3 0-.2 0-.4-.1-.5s-.2-.2-.3-.3-.2-.2-.4-.2-.3 0-.5 0c-.4 0-.7.1-1 .3-.3.2-.4.5-.4.9h-.6c0-.4.1-.7.2-.9zM5.8 18c0 .1-.1.1-.2.2-.1 0-.2.1-.3.1-.3 0-.5.1-.8.1s-.5.1-.8.2c-.2.1-.4.2-.6.3-.1.1-.2.3-.2.6 0 .2 0 .3.1.4s.1.2.3.3c.1.1.2.2.4.2.1 0 .3.1.4.1.2 0 .5 0 .7-.1s.4-.2.6-.3c.2-.1.3-.3.4-.5s.1-.4.1-.7l-.1-.9zM8.3 15.7v1.2c.2-.4.4-.7.7-1 .3-.2.7-.3 1.2-.3v.6c-.3 0-.5 0-.8.1-.2.1-.4.2-.6.4-.2.2-.3.4-.4.6-.1.2-.1.5-.1.7v2.7h-.6v-5.1l.6.1zM15.1 21.4c-.1.3-.2.6-.4.8-.2.2-.4.4-.7.5s-.6.2-1.1.2c-.3 0-.5 0-.8-.1-.2-.1-.5-.2-.7-.3-.2-.1-.4-.3-.5-.5s-.2-.4-.2-.7h.6c0 .2.1.4.2.5.1.1.2.2.3.3.1.1.3.1.5.2.2 0 .3.1.5.1.6 0 1-.2 1.3-.5s.4-.8.4-1.4v-.7c-.1.3-.4.6-.6.8-.3.2-.6.3-1 .3s-.8-.1-1-.2c-.3-.1-.5-.3-.7-.6-.2-.2-.3-.5-.4-.8-.1-.3-.1-.7-.1-1s.1-.7.2-1c.1-.3.3-.6.4-.8.2-.2.4-.4.7-.6.3-.1.6-.2 1-.2.2 0 .4 0 .5.1.2.1.3.1.5.2.1.1.3.2.4.3.1.1.2.3.3.4v-.9h.6v4.7c-.1.3-.2.6-.2.9zm-1.5-1.3c.2-.1.4-.3.5-.5s.2-.4.3-.6.1-.5.1-.8 0-.5-.1-.8-.2-.5-.3-.7-.3-.4-.5-.5-.5-.2-.8-.2-.6.1-.8.2-.4.3-.5.5-.2.4-.3.7c-.1.3-.1.5-.1.8s0 .5.1.8c.1.2.2.5.3.6.1.2.3.3.5.5.2.1.5.2.8.2.4 0 .6-.1.8-.2zM16.9 19.2c.1.2.2.5.3.6s.3.3.5.5c.2.1.5.2.8.2.5 0 .8-.1 1.1-.4.3-.2.4-.6.5-.9h.6c-.1.6-.4 1-.7 1.3-.4.3-.9.5-1.5.5-.4 0-.8-.1-1-.2-.3-.1-.5-.3-.7-.6s-.3-.5-.4-.9c-.1-.3-.1-.7-.1-1s0-.7.1-1 .2-.6.4-.9c.2-.3.4-.5.7-.6.3-.2.6-.2 1-.2s.8.1 1 .2c.3.2.5.4.7.6.2.3.3.6.4.9s.1.7.1 1.1h-3.9c0 .3 0 .5.1.8zm3-2c-.1-.2-.2-.4-.3-.6-.1-.2-.3-.3-.5-.4s-.4-.2-.7-.2c-.3 0-.5.1-.7.2s-.4.2-.5.4c-.1.2-.2.4-.3.6-.1.2-.1.4-.2.7H20c.1-.2 0-.4-.1-.7zM24.5 16.7c-.1-.1-.2-.3-.3-.4-.1-.1-.3-.2-.4-.2-.2 0-.3-.1-.5-.1-.1 0-.3 0-.4 0s-.3.1-.4.1c-.1.1-.2.2-.3.3-.1.1-.1.3-.1.4s0 .3.1.4.2.2.3.2c.1.1.2.1.3.2.1 0 .2.1.3.1l.9.3c.2 0 .4.1.5.1.2.1.3.2.5.3.1.1.2.3.3.4.1.2.1.4.1.6 0 .3-.1.5-.2.7s-.3.4-.5.5-.4.2-.7.3c-.2.1-.4.1-.6.1-.6 0-1.1-.1-1.5-.4s-.6-.7-.6-1.4h.6c0 .4.2.7.5 1 .3.2.6.3 1 .3.2 0 .3 0 .5 0s.3-.1.5-.2c.1-.1.3-.2.3-.3.1-.1.1-.3.1-.5s0-.3-.1-.4-.1-.2-.3-.3c-.1-.1-.2-.1-.4-.2-.1 0-.3-.1-.4-.1l-.8-.2c-.2-.1-.4-.1-.6-.2s-.3-.2-.5-.3c-.1-.1-.2-.2-.3-.4-.1-.1-.1-.3-.1-.5 0-.3.1-.5.2-.7.1-.2.3-.3.5-.4.2-.1.4-.2.6-.2.2-.1.5-.1.7-.1.3 0 .5 0 .7.1s.4.2.6.3.3.3.4.5.2.4.2.7h-.6c0-.1 0-.2-.1-.4zM28.4 15.7v.5h-1v3.4c0 .2 0 .4.1.5s.2.2.4.2.4 0 .5 0v.5c-.1 0-.2 0-.3 0-.1 0-.2 0-.3 0-.4 0-.7-.1-.9-.2-.2-.2-.2-.5-.2-.9v-3.5h-.9v-.5h.9v-1.5h.6v1.5s1.1 0 1.1 0zM32.7 13.8v7.1h-.6v-7.1s.6 0 .6 0zM34.1 16.5c.1-.2.2-.4.4-.5s.4-.2.6-.3c.2-.1.5-.1.8-.1.2 0 .4 0 .7.1.2 0 .4.1.6.2.2.1.3.3.4.5.1.2.2.5.2.8v2.7c0 .3.1.4.4.4.1 0 .1 0 .2 0v.5c-.1 0-.1 0-.2 0s-.1 0-.2 0c-.2 0-.3 0-.4-.1-.1 0-.2-.1-.2-.2-.1-.1-.1-.2-.1-.3 0-.1 0-.2 0-.4-.1.2-.2.3-.3.4s-.2.2-.4.3c-.1.1-.3.2-.5.2s-.4.1-.6.1c-.2 0-.5 0-.7-.1s-.4-.1-.5-.3c-.2-.1-.3-.3-.4-.5-.1-.2-.1-.4-.1-.7 0-.4.1-.6.2-.8.2-.2.4-.4.6-.5.3-.1.6-.2.9-.2.3 0 .7-.1 1-.1.1 0 .2 0 .3-.1.1 0 .2-.1.2-.1.1 0 .1-.1.2-.2 0-.1.1-.2.1-.3 0-.2 0-.4-.1-.5s-.2-.2-.3-.3-.3-.1-.4-.2c-.2 0-.3 0-.5 0-.4 0-.7.1-1 .3-.3.2-.4.5-.4.9H34c-.1-.1 0-.4.1-.6zm3.1 1.5c0 .1-.1.1-.2.2-.1 0-.2.1-.3.1-.3 0-.5.1-.8.1s-.5.1-.8.2c-.2.1-.4.2-.6.3-.1.1-.2.3-.2.6 0 .2 0 .3.1.4s.1.2.3.3c.1.1.2.2.4.2.1 0 .3.1.4.1.2 0 .5 0 .7-.1s.4-.2.6-.3c.2-.1.3-.3.4-.5.1-.2.1-.4.1-.7l-.1-.9zM39.7 15.7v.9c.1-.3.3-.6.6-.7.3-.2.6-.3 1-.3s.7 0 .9.1.4.2.6.4c.1.2.2.4.3.6s.1.5.1.8v3.3h-.6v-3.2c0-.2 0-.4-.1-.6 0-.2-.1-.4-.2-.5-.1-.1-.2-.2-.4-.3s-.4-.1-.6-.1c-.3 0-.5 0-.7.1s-.4.2-.5.4c-.1.2-.2.3-.3.6-.1.2-.1.4-.1.7v3h-.6v-5.1l.6-.1zM48.4 20.8v-1c-.1.2-.2.3-.3.5-.1.1-.3.3-.4.4-.2.1-.3.2-.5.2-.3.1-.5.1-.7.1-.4 0-.7-.1-1-.2s-.5-.3-.7-.6c-.2-.2-.3-.5-.4-.9-.1-.3-.1-.7-.1-1 0-.4 0-.7.1-1s.2-.6.4-.9c.2-.2.4-.4.7-.6.3-.1.6-.2 1-.2.2 0 .4 0 .6.1.2 0 .4.1.5.2.2.1.3.2.4.4.1.1.2.3.3.5v-2.9h.6V21h-.5v-.2zm-3.5-1.7c.1.3.2.5.3.7s.3.4.5.5.5.2.8.2.6-.1.8-.2.4-.3.6-.5c.1-.2.2-.4.3-.7.1-.3.1-.5.1-.8s0-.5-.1-.8-.2-.5-.3-.7-.3-.4-.6-.5c-.2-.1-.5-.2-.8-.2s-.6.1-.8.2-.4.3-.5.5-.2.4-.3.7c-.1.3-.1.5-.1.8s.1.5.1.8zM53.6 13.8v2.9c.1-.2.2-.3.3-.5.1-.1.3-.3.4-.4.2-.1.3-.2.5-.2s.4-.1.6-.1c.4 0 .7.1 1 .2.3.1.5.3.7.6s.3.5.4.9c.1.3.1.7.1 1 0 .4 0 .7-.1 1s-.2.6-.4.9-.4.4-.7.6c-.3.1-.6.2-1 .2s-.8-.1-1.1-.3c-.3-.2-.6-.5-.7-.8v1H53v-7.1l.6.1zm3.3 3.7c-.1-.3-.2-.5-.3-.7s-.3-.4-.5-.5-.5-.2-.8-.2-.6.1-.8.2-.4.3-.6.5c-.1.2-.2.4-.3.7-.1.3-.1.5-.1.8s0 .5.1.8.2.5.3.7.3.4.6.5c.2.1.5.2.8.2s.6-.1.8-.2.4-.3.5-.5.2-.4.3-.7c.1-.3.1-.5.1-.8s0-.5-.1-.8zM59.3 13.8v1h-.6v-1h.6zm0 1.9v5.1h-.6v-5.1s.6 0 .6 0zM63.7 15.8c.3.1.6.3.8.6.2.2.4.5.5.9.1.3.2.7.2 1 0 .4-.1.7-.2 1s-.3.6-.5.9c-.2.2-.5.4-.8.6-.3.1-.6.2-1 .2s-.7-.1-1-.2-.6-.3-.8-.6c-.2-.2-.4-.5-.5-.9-.1-.3-.2-.7-.2-1 0-.4.1-.7.2-1 .1-.3.3-.6.5-.9.2-.2.5-.4.8-.6.3-.1.6-.2 1-.2.3 0 .7.1 1 .2zm-1.8.5c-.2.1-.4.3-.6.5-.1.2-.3.4-.3.7-.1.3-.1.5-.1.8s0 .5.1.8.2.5.3.7.3.4.6.5c.2.1.5.2.8.2s.6-.1.8-.2.4-.3.6-.5c.1-.2.3-.4.3-.7.1-.3.1-.5.1-.8s0-.5-.1-.8-.2-.5-.3-.7c-.1-.2-.3-.4-.6-.5s-.5-.2-.8-.2-.6.1-.8.2zM66.6 15.7v.9c.2-.3.4-.6.6-.7.3-.2.6-.3 1-.3.3 0 .6.1.9.2.3.2.5.4.5.8.2-.3.4-.6.7-.8.3-.2.6-.2.9-.2 1.1 0 1.7.6 1.7 1.8v3.5h-.6v-3.4c0-.4-.1-.7-.3-1-.2-.2-.5-.3-.9-.3-.3 0-.5.1-.7.2s-.3.2-.4.4c0 0 0 .2-.1.5 0 .2-.1.5-.1.7v2.9h-.6v-3.5c0-.2 0-.3-.1-.5 0-.2-.1-.3-.2-.4s-.2-.2-.3-.3c-.1-.1-.3-.1-.5-.1-.3 0-.5 0-.7.1s-.4.2-.5.4c-.1.2-.2.4-.3.6-.1.2-.1.5-.1.7v2.8H66v-5.1l.6.1zM74.8 19.2c.1.2.2.5.3.6s.3.3.5.5c.2.1.5.2.8.2.5 0 .8-.1 1.1-.4.3-.2.4-.6.5-.9h.6c-.1.6-.4 1-.7 1.3-.4.3-.9.5-1.6.5-.4 0-.8-.1-1-.2-.3-.1-.5-.3-.7-.6-.2-.2-.3-.5-.4-.9-.1-.3-.1-.7-.1-1s0-.7.1-1 .2-.6.4-.9c.2-.3.4-.5.7-.6.3-.2.6-.2 1-.2s.8.1 1 .2c.3.2.5.4.7.6.2.3.3.6.4.9s.1.7.1 1.1h-3.9c.1.3.1.5.2.8zm3-2c-.1-.2-.2-.4-.3-.6-.1-.2-.3-.3-.5-.4s-.4-.2-.7-.2c-.3 0-.5.1-.7.2s-.4.2-.5.4c-.1.2-.2.4-.3.6-.1.2-.1.4-.2.7H78c0-.2-.1-.4-.2-.7zM.8 29.1c.1-.2.2-.4.4-.5s.4-.2.6-.3c.2-.1.5-.1.8-.1.2 0 .4 0 .7.1.2 0 .4.1.6.2s.3.3.4.5.2.5.2.8v2.7c0 .3.1.4.4.4.1 0 .1 0 .2 0v.5c-.1 0-.1 0-.2 0s-.1 0-.2 0c-.2 0-.3 0-.4-.1-.1 0-.2-.1-.2-.2 0 0 0-.1-.1-.2 0-.1 0-.2 0-.4-.1.2-.2.3-.3.4-.1.1-.2.2-.4.3-.1.1-.3.2-.5.2s-.4.1-.6.1-.5 0-.7-.1-.4-.1-.5-.3c-.2-.1-.3-.3-.4-.5s-.1-.4-.1-.7c0-.4.1-.6.2-.8.2-.2.4-.4.6-.5.3-.1.6-.2.9-.2s.7-.1 1-.1c.1 0 .2 0 .3-.1.1 0 .2-.1.2-.1.1 0 .1-.1.2-.2 0 .1.1 0 .1-.1 0-.2 0-.4-.1-.5s-.2-.2-.3-.3c-.1-.1-.3-.1-.4-.2-.2 0-.3 0-.5 0-.4 0-.7.1-1 .3-.3.2-.4.5-.4.9H.6c.1-.4.1-.6.2-.9zm3.1 1.6c0 .1-.1.1-.2.2-.1 0-.2.1-.3.1-.3 0-.5.1-.8.1s-.5.1-.8.2c-.2.1-.4.2-.6.3-.1 0-.2.2-.2.5 0 .2 0 .3.1.4.1.1.1.2.3.3.1.1.2.2.4.2.1 0 .3.1.4.1.2 0 .5 0 .7-.1s.4-.2.6-.3c.2-.1.3-.3.4-.5 0-.2.1-.5.1-.7l-.1-.8zM6.5 28.4v.9c.1-.3.3-.6.6-.7.3-.2.6-.3 1-.3s.7 0 .9.1.4.2.6.4c.1.2.2.4.3.6s.1.5.1.8v3.3h-.6v-3.2c0-.2 0-.4-.1-.6 0-.2-.1-.4-.2-.5-.1-.2-.2-.3-.4-.3-.2-.1-.4-.1-.6-.1-.3 0-.5 0-.7.1s-.4.2-.5.4c-.1.2-.2.3-.3.6-.1.2-.1.4-.1.7v3h-.6v-5.1l.6-.1zM15.1 33.5v-1c-.1.2-.2.3-.3.5-.1.1-.3.3-.4.4-.2.1-.3.2-.5.2-.2.1-.4.1-.6.1-.4 0-.7-.1-1-.2s-.5-.3-.7-.6c-.2-.2-.3-.5-.4-.9-.1-.3-.1-.7-.1-1 0-.4 0-.7.1-1s.2-.6.4-.9c.2-.2.4-.4.7-.6s.6-.2 1-.2c.2 0 .4 0 .6.1.2 0 .4.1.5.2.2.1.3.2.4.4s.2.3.3.5v-2.9h.6v7.1h-.6v-.2zm-3.4-1.8c.1.3.2.5.3.7s.3.4.5.5.5.2.8.2.6-.1.8-.2c.2-.1.4-.3.6-.5.1-.2.2-.4.3-.7s.1-.5.1-.8 0-.5-.1-.8-.2-.5-.3-.7-.3-.4-.6-.5c-.2-.1-.5-.2-.8-.2s-.6.1-.8.2-.4.3-.5.5-.2.4-.3.7c-.1.3-.1.5-.1.8s0 .5.1.8zM20.3 28.4v.9c.2-.3.4-.6.6-.7.3-.2.6-.3 1-.3.3 0 .6.1.9.2.3.2.5.4.5.8.2-.3.4-.6.7-.8.3-.2.6-.2.9-.2 1.1 0 1.7.6 1.7 1.8v3.5H26V30c0-.4-.1-.7-.3-1-.2-.2-.5-.3-.9-.3-.3 0-.5.1-.7.2s-.3.2-.4.4c-.1.2-.2.4-.2.6s-.1.5-.1.7v2.9h-.6V30c0-.2 0-.3-.1-.5 0-.2-.1-.3-.2-.4s-.2-.2-.3-.3c-.1-.1-.3-.1-.5-.1-.3 0-.5 0-.7.1s-.4.2-.5.4c-.1.2-.2.4-.3.6-.1.2-.1.5-.1.7v2.8h-.6v-5.1h.8v.2zM28.1 29.1c.1-.2.2-.4.4-.5.2-.1.4-.2.6-.3.2-.1.5-.1.8-.1.2 0 .4 0 .7.1.2 0 .4.1.6.2s.3.3.4.5.2.5.2.8v2.7c0 .3.1.4.4.4.1 0 .1 0 .2 0v.5c-.1 0-.1 0-.2 0s-.1 0-.2 0c-.2 0-.3 0-.4-.1-.1 0-.2-.1-.2-.2-.1-.1-.1-.2-.1-.3s0-.2 0-.4c-.1.2-.2.3-.3.4-.1.1-.2.2-.4.3-.1.1-.3.2-.5.2s-.4.1-.6.1-.5 0-.7-.1-.4-.1-.5-.3c-.2-.1-.3-.3-.4-.5s-.1-.4-.1-.7c0-.4.1-.6.2-.8.2-.2.4-.4.6-.5.3-.1.6-.2.9-.2s.7-.1 1-.1c.1 0 .2 0 .3-.1.1 0 .2-.1.2-.1.1 0 .1-.1.2-.2 0-.1.1-.2.1-.3 0-.2 0-.4-.1-.5s-.2 0-.4-.1c-.1-.1-.3-.1-.4-.2-.2 0-.3 0-.5 0-.4 0-.7.1-1 .3-.3.2-.4.5-.4.9h-.6c0-.3.1-.5.2-.8zm3.1 1.6c0 .1-.1.1-.2.2-.1 0-.2.1-.3.1-.3 0-.5.1-.8.1s-.5.1-.8.2-.4.2-.6.3c-.1.1-.2.3-.2.6 0 .2 0 .3.1.4.1.1.1.2.3.3s.2.1.3.1.3.1.4.1c.2 0 .5 0 .7-.1s.4-.2.6-.3.3-.3.4-.5.1-.4.1-.7v-.8zM33.7 26.4v4.4l2.8-2.5h.8l-2.2 1.9 2.3 3.2h-.8l-2-2.8-1 .8v1.9H33v-7.1h.7v.2zM38.6 31.8c.1.2.2.5.3.6s.3.3.5.5c.2.1.5.2.8.2.5 0 .8-.1 1.1-.4.3-.2.4-.6.5-.9h.6c-.1.6-.4 1-.7 1.3-.4.3-.9.5-1.5.5-.4 0-.8-.1-1-.2-.3-.1-.5-.3-.7-.6-.2-.2-.3-.5-.4-.9-.1-.3-.1-.7-.1-1s0-.7.1-1 .2-.6.4-.9.4-.5.7-.6c.3-.2.6-.2 1-.2s.8.1 1 .2c.3.2.5.4.7.6.2.3.3.6.4.9.1.3.1.7.1 1.1h-3.9c0 .3 0 .5.1.8zm3-1.9c-.1-.2-.2-.4-.3-.6s-.3-.3-.5-.4-.4-.2-.7-.2-.5.1-.7.2-.4.2-.5.4c-.1.2-.2.4-.3.6s-.1.4-.2.7h3.3c.1-.3 0-.5-.1-.7zM46.2 29.4c-.1-.1-.2-.3-.3-.4s-.3-.2-.4-.2c-.2 0-.3-.1-.5-.1-.1 0-.3 0-.4 0-.1 0-.3.1-.4.1-.1.1-.2.2-.3.3-.1.1-.1.3-.1.4s0 .3.1.4.2.2.3.2c.1.1.2.1.3.2.1 0 .2.1.3.1l.8.2c.2 0 .4.1.5.1.2.1.3.2.5.3s.2.3.3.4c.1.2.1.4.1.6 0 .3-.1.5-.2.7-.1.2-.3.4-.5.5s-.4.2-.7.3c-.2.1-.5.1-.7.1-.6 0-1.1-.1-1.5-.4-.4-.3-.6-.7-.6-1.4h.6c0 .4.2.7.5 1 .3.2.6.3 1 .3.2 0 .3 0 .5 0s.3-.1.5-.2c.1-.1.3-.2.3-.3.1-.1.1-.3.1-.5s0-.3-.1-.4-.1-.2-.3-.3c-.1-.1-.2-.1-.4-.2-.1 0-.3-.1-.4-.1l-.5-.1c-.2-.1-.4-.1-.6-.2-.2-.1-.3-.2-.5-.3s-.2-.2-.3-.4c-.1-.1-.1-.3-.1-.5 0-.3.1-.5.2-.7.1-.2.3-.3.5-.4s.4-.2.6-.2c.2-.1.5-.1.7-.1.3 0 .5 0 .7.1s.4.2.6.3c.2.1.3.3.4.5.1.2.2.4.2.7h-.6c-.1-.1-.1-.3-.2-.4zM54.4 33.5v-.9c-.2.3-.4.6-.7.8s-.7.3-1 .3-.6 0-.8-.1-.4-.2-.6-.4-.2-.4-.3-.6c-.1-.2-.1-.5-.1-.8v-3.3h.6v3.3c0 .5.1.8.3 1s.5.4 1 .4c.3 0 .5-.1.7-.2.2-.1.3-.3.5-.5.1-.2.2-.4.3-.7.1-.2.1-.5.1-.8v-2.7h.6v5.1h-.6v.1zM56.7 28.4v1c.1-.4.4-.6.7-.8.3-.2.7-.3 1.1-.3.4 0 .7.1 1 .2s.5.3.7.6c.2.2.3.5.4.9.1.3.1.7.1 1 0 .4 0 .7-.1 1-.1.3-.2.6-.4.9-.2.2-.4.4-.7.6s-.6.2-1 .2c-.2 0-.4 0-.6-.1-.2 0-.4-.1-.5-.2-.2-.1-.3-.2-.4-.3-.1-.1-.2-.3-.3-.5v2.8h-.6v-7s.6 0 .6 0zm3.5 1.7c-.1-.3-.2-.5-.3-.7s-.3-.4-.5-.5-.5-.2-.8-.2-.6.1-.9.2c-.2.1-.4.3-.6.5-.1.2-.2.4-.3.7-.1.3-.1.5-.1.8s0 .5.1.8.2.5.3.7.3.4.6.5c.2.1.5.2.8.2s.6-.1.8-.2c.2-.1.4-.3.5-.5s.2-.4.3-.7c.1-.3.1-.5.1-.8s0-.5 0-.8zM64.4 33.5c0-.3.1-.6.2-.9s.3-.5.4-.7c.2-.2.4-.4.6-.6s.5-.3.7-.5.5-.3.7-.5.5-.3.6-.5c.2-.2.3-.4.4-.6s.1-.4.1-.7c0-.2 0-.4-.1-.6s-.2-.3-.3-.4c-.1-.1-.3-.2-.5-.3 0-.2-.2-.2-.4-.2-.3 0-.5.1-.7.2s-.4.2-.5.4c-.1.2-.2.4-.3.6s-.1.5-.1.7h-.6c0-.4 0-.7.1-1s.2-.6.4-.8c.2-.2.4-.4.7-.5.3-.1.6-.2 1-.2.3 0 .6 0 .8.1.3.1.5.2.7.4.2.2.3.4.5.6.1.2.2.5.2.9 0 .3 0 .6-.1.8-.1.2-.2.5-.4.7-.2.2-.3.4-.6.5-.2.2-.4.3-.7.5-.2.1-.4.2-.6.4-.2.1-.4.3-.6.5-.2.2-.4.3-.5.5-.2.2-.3.4-.3.6H69v.6h-4.6zM71.2 32.7c.3.2.6.4 1 .4s.7-.1 1-.3c.2-.2.4-.5.6-.8.1-.3.2-.6.3-1 0-.4.1-.7.1-1-.2.3-.4.6-.7.8-.3.2-.7.3-1.1.3-.3 0-.7-.1-.9-.2-.3-.1-.5-.3-.7-.5s-.4-.4-.5-.7c-.1-.3-.2-.6-.2-.9s.1-.6.2-.9.3-.5.5-.7.5-.4.7-.5.6-.2.9-.2c.4 0 .8.1 1.1.2.3.1.6.3.8.6.2.3.3.7.4 1.1.1.5.1 1 .1 1.7 0 .1 0 .3 0 .5s-.1.5-.1.7c-.1.3-.1.5-.3.8-.1.3-.3.5-.4.7-.2.2-.4.4-.7.5-.3.1-.6.2-1 .2-.6 0-1.1-.1-1.5-.4-.4-.3-.6-.7-.7-1.4h.6c.1.5.2.8.5 1zm1.7-2.2c.2-.1.4-.2.5-.4.1-.2.3-.4.3-.6.1-.2.1-.5.1-.7 0-.3 0-.5-.1-.7s-.2-.4-.3-.6c-.1-.2-.3-.3-.5-.4-.1-.1-.4-.1-.7-.1-.2 0-.5 0-.7.1s-.4.2-.5.4c-.1.2-.3.4-.3.6-.1.2-.1.4-.1.7 0 .3 0 .5.1.7s.2.4.3.6c.1.2.3.3.5.4s.4.1.7.1c.3 0 .5 0 .7-.1zM78.1 26.6c.2.1.4.2.5.4.1.2.2.4.3.6.1.2.1.5.1.7s0 .5-.1.7-.2.4-.3.6c-.1.2-.3.3-.5.4s-.4.1-.7.1c-.3 0-.5 0-.7-.1s-.4-.2-.5-.4c-.1-.2-.2-.4-.3-.6-.1-.2-.1-.5-.1-.7s0-.5.1-.7.2-.4.3-.6c.1-.2.3-.3.5-.4s.4-.1.7-.1c.2 0 .5 0 .7.1zm-1.3.5c-.1.1-.2.2-.3.3-.1.1-.1.3-.2.5 0 .2 0 .3 0 .5s0 .3 0 .5.1.3.2.5c.1.1.2.3.3.3.1.1.3.1.5.1s.4 0 .5-.1.2-.2.3-.3c.1-.1.1-.3.2-.5s0-.3 0-.5 0-.3 0-.5-.1-.3-.2-.5c-.1-.1-.2-.3-.3-.3-.1-.1-.3-.1-.5-.1-.1-.1-.3 0-.5.1zm5.1-.8l-4.5 7.5H77l4.5-7.5h.4zm.5 3.7c.2.1.4.2.5.4.1.2.2.4.3.6.1.2.1.5.1.7 0 .3 0 .5-.1.7s-.2.4-.3.6c-.1.2-.3.3-.5.4-.2.1-.4.1-.7.1-.3 0-.5 0-.7-.1s-.4-.2-.5-.4-.2-.4-.3-.6c-.1-.2-.1-.5-.1-.7 0-.3 0-.5.1-.7s.2-.4.3-.6c.1-.2.3-.3.5-.4s.4-.1.7-.1.5 0 .7.1zm-1.2.5c-.1.1-.2.2-.3.3-.1.1-.1.3-.2.5 0 .2 0 .3 0 .5s0 .3 0 .5.1.3.2.5c.1.1.2.3.3.3.1.1.3.1.5.1s.4 0 .5-.1.2-.2.3-.3c.1-.1.1-.3.2-.5 0-.2.1-.3.1-.5s0-.3-.1-.5-.1-.3-.2-.5c-.1-.1-.2-.3-.3-.3-.1-.1-.3-.1-.5-.1-.2-.1-.4 0-.5.1zM90.5 28.4c.3.1.6.3.8.6.2.2.4.5.5.9.1.3.2.7.2 1s-.1.7-.2 1c-.1.3-.3.6-.5.9-.2.2-.5.4-.8.6-.3.1-.6.2-1 .2s-.7-.1-1-.2c-.3-.1-.6-.3-.8-.6-.2-.2-.4-.5-.5-.9s-.2-.7-.2-1 .1-.7.2-1 .3-.6.5-.9c.2-.2.5-.4.8-.6.3-.1.6-.2 1-.2s.7.1 1 .2zm-1.8.5c-.2.1-.4.3-.6.5-.1.2-.3.4-.3.7-.1.3-.1.5-.1.8s0 .5.1.8.2.5.3.7c.1.2.3.4.6.5.2.1.5.2.8.2s.6-.1.8-.2c.2-.1.4-.3.6-.5.1-.2.3-.4.3-.7.1-.3.1-.5.1-.8s0-.5-.1-.8-.2-.5-.3-.7c-.1-.2-.3-.4-.6-.5-.2-.1-.5-.2-.8-.2-.3 0-.6.1-.8.2zM93.8 28.9v4.6h-.6v-4.6h-.9v-.5h.9v-.5c0-.2 0-.4 0-.6s.1-.3.2-.5c.1-.1.2-.2.4-.3.2-.1.4-.1.6-.1.1 0 .2 0 .3 0 .1 0 .2 0 .3 0v.6c-.1 0-.2 0-.2 0-.1 0-.1 0-.2 0-.2 0-.3 0-.4.1s-.2.1-.2.2-.1.2-.1.3c0 .1 0 .2 0 .4v.4h1v.5h-1.1zM2.7 41v.5h-1v3.4c0 .2 0 .4.1.5s.2.2.4.2.4 0 .5 0v.5c-.1 0-.2 0-.3 0s-.2 0-.3 0c-.4 0-.7-.1-.9-.2-.2-.2-.2-.5-.2-.9v-3.5H.2V41h.9v-1.5h.6V41h1zM4.3 39v2.8c.1-.3.3-.6.6-.7.3-.2.6-.3 1-.3s.7 0 .9.1.4.2.6.4c.1.2.2.4.3.6.1.2.1.5.1.8V46h-.6v-3.2c0-.2 0-.4-.1-.6 0-.2-.1-.4-.2-.5s-.2-.2-.4-.3c-.2-.1-.4-.1-.6-.1-.3 0-.5 0-.7.1s-.4.2-.5.4-.2.3-.3.6c-.1.2-.1.4-.1.7v3h-.7V39h.7zM9.5 44.4c.1.2.2.5.3.6.1.2.3.3.5.5.2.1.5.2.8.2.5 0 .8-.1 1.1-.4s.4-.6.5-.9h.6c-.1.6-.4 1-.7 1.3-.4.3-.9.5-1.5.5-.4 0-.8-.1-1-.2-.3-.1-.5-.3-.7-.6s-.4-.5-.5-.8c-.1-.3-.1-.7-.1-1s0-.7.1-1 .2-.6.4-.9c.2-.3.4-.5.7-.6.3-.2.6-.2 1-.2s.8.1 1 .2c.3.2.5.4.7.6.2.3.3.6.4.9.1.3.1.7.1 1.1H9.4c0 .2 0 .5.1.7zm3-1.9c-.1-.2-.2-.4-.3-.6-.1-.2-.3-.3-.5-.4-.2-.1-.4-.2-.7-.2s-.5.1-.7.2c-.2.1-.4.2-.5.4s-.2.4-.3.6c-.1.2-.1.4-.2.7h3.3c.1-.3 0-.5-.1-.7zM17.1 41l1.3 4.4 1.2-4.4h.7l1.2 4.4 1.3-4.4h.7L22 46.1h-.7L20 41.8l-1.2 4.3h-.7L16.4 41h.7zM27.5 41.1c.3.1.6.3.8.6.2.2.4.5.5.9.1.3.2.7.2 1s-.1.7-.2 1-.3.6-.5.9c-.2.2-.5.4-.8.6-.3.1-.6.2-1 .2s-.7-.1-1-.2c-.3-.1-.6-.3-.8-.6-.2-.2-.4-.5-.5-.9-.1-.3-.2-.7-.2-1s.1-.7.2-1 .3-.6.5-.9c.2-.2.5-.4.8-.6.3-.1.6-.2 1-.2.3-.1.7 0 1 .2zm-1.8.4c-.2.1-.4.3-.6.5-.1.2-.3.4-.3.7-.1.3-.1.5-.1.8s0 .5.1.8.2.5.3.7c.1.2.3.4.6.5.2.1.5.2.8.2s.6-.1.8-.2c.2-.1.4-.3.6-.5.1-.2.3-.4.3-.7.1-.3.1-.5.1-.8s0-.5-.1-.8-.2-.5-.3-.7c-.1-.2-.3-.4-.6-.5-.2-.1-.5-.2-.8-.2s-.6.1-.8.2zM30.4 41v1.2c.2-.4.4-.7.7-1 .3-.2.7-.3 1.2-.3v.6c-.3 0-.5 0-.8.1-.2.1-.4.2-.6.4s-.3.4-.4.6c-.1.2-.1.5-.1.7V46h-.6v-5h.6zM33.6 39v7.1H33V39h.6zM38.7 46.1v-1c-.1.2-.2.3-.3.5-.1.1-.3.3-.4.4-.2.1-.3.2-.5.2-.2.1-.4.1-.6.1-.4 0-.7-.1-1-.2-.3-.1-.5-.3-.7-.6-.2-.2-.3-.5-.4-.9-.1-.3-.1-.7-.1-1 0-.4 0-.7.1-1s.2-.6.4-.9c.2-.2.4-.4.7-.6.3-.1.6-.2 1-.2.2 0 .4 0 .6.1.2 0 .4.1.5.2.2.1.3.2.4.4s.2.3.3.5V39h.6v7.1h-.6zm-3.4-1.8c.1.3.2.5.3.7s.3.4.5.5.5.2.8.2.6-.1.8-.2c.2-.1.4-.3.6-.5.1-.2.2-.4.3-.7s.1-.5.1-.8 0-.5-.1-.8-.2-.5-.3-.7-.3-.4-.6-.5c-.2-.1-.5-.2-.8-.2s-.6.1-.8.2c-.2.1-.4.3-.5.5s-.2.4-.3.7-.1.5-.1.8.1.6.1.8zM41.6 39v2.4H41V39h.6zM46.3 42c-.1-.1-.2-.3-.3-.4-.1-.1-.3-.2-.4-.2-.2 0-.3-.1-.5-.1-.1 0-.3 0-.4 0-.1 0-.3.1-.4.1-.1.1-.2.2-.3.3s-.1.3-.1.4c0 .1 0 .3.1.4.1.1.2.2.3.2.1.1.2.1.3.2.1 0 .2.1.3.1l.8.2c.2 0 .4.1.5.1.2.1.3.2.5.3.1.1.2.3.3.4.1.2.1.4.1.6 0 .3-.1.5-.2.7-.1.2-.3.4-.5.5s-.4.2-.7.3c-.2.1-.5.1-.7.1-.6 0-1.1-.1-1.5-.4-.4-.3-.6-.7-.6-1.4h.6c0 .4.2.7.5 1 .3.2.6.3 1 .3.2 0 .3 0 .5 0s.3-.1.5-.2c.1-.1.3-.2.3-.3.1-.1.1-.3.1-.5s0-.3-.1-.4c-.1-.1-.1-.2-.3-.3.1 0 0 0-.2-.1-.1 0-.3-.1-.4-.1l-.8-.2c-.2-.1-.4-.1-.6-.2-.2-.1-.3-.2-.5-.3-.1-.1-.2-.2-.3-.4-.1-.1-.1-.3-.1-.5 0-.3.1-.5.2-.7.1-.2.3-.3.5-.4.2-.1.4-.2.6-.2.2-.1.5-.1.7-.1.3 0 .5 0 .7.1s.4.2.6.3c.2.1.3.3.4.5.1.2.2.4.2.7h-.6c0-.1-.1-.3-.1-.4zM51.8 41.5v4.6h-.6v-4.6h-.9V41h.9v-.5c0-.2 0-.4 0-.6 0-.2.1-.3.2-.5.1-.1.2-.2.4-.3s.4-.1.6-.1c.1 0 .2 0 .3 0s.2 0 .3 0v.5c-.1 0-.2 0-.2 0-.1 0-.1 0-.2 0-.2 0-.3 0-.4.1-.1.1-.2.1-.2.2s-.1.2-.1.3 0 .2 0 .4v.5h1v.5h-1.1zM56.7 41.1c.3.1.6.3.8.6.2.2.4.5.5.9.1.3.2.7.2 1s-.1.7-.2 1c-.1.3-.3.6-.5.9-.2.2-.5.4-.8.6-.3.1-.6.2-1 .2s-.7-.1-1-.2c-.3-.1-.6-.3-.8-.6-.2-.2-.4-.5-.5-.9-.1-.3-.2-.7-.2-1s.1-.7.2-1 .3-.6.5-.9c.2-.2.5-.4.8-.6.3-.1.6-.2 1-.2.3-.1.7 0 1 .2zm-1.9.4c-.2.1-.4.3-.6.5-.1.2-.3.4-.3.7-.1.3-.1.5-.1.8s0 .5.1.8.2.5.3.7.3.4.6.5c.2.1.5.2.8.2s.6-.1.8-.2c.2-.1.4-.3.6-.5.1-.2.3-.4.3-.7.1-.3.1-.5.1-.8s0-.5-.1-.8-.2-.5-.3-.7-.3-.4-.6-.5c-.2-.1-.5-.2-.8-.2s-.5.1-.8.2zM59.6 41v1.2c.2-.4.4-.7.7-1 .3-.2.7-.3 1.2-.3v.6c-.3 0-.5 0-.8.1-.2.1-.4.2-.6.4-.2.2-.3.4-.4.6-.1.2-.1.5-.1.7V46H59v-5h.6zM62.4 44.4c.1.2.2.5.3.6s.3.3.5.5c.2.1.5.2.8.2.5 0 .8-.1 1.1-.4s.4-.6.5-.9h.6c-.1.6-.4 1-.7 1.3-.4.3-.9.5-1.5.5-.4 0-.8-.1-1-.2-.3-.1-.5-.3-.7-.6-.2-.2-.3-.5-.4-.9-.1-.3-.1-.7-.1-1s0-.7.1-1 .2-.6.4-.9c.2-.3.4-.5.7-.6.3-.2.6-.2 1-.2s.8.1 1 .2c.3.2.5.4.7.6.2.3.3.6.4.9.1.3.1.7.1 1.1h-3.9c0 .3.1.6.1.8zm3.1-1.9c-.1-.2-.2-.4-.3-.6-.1-.2-.3-.3-.5-.4-.2-.1-.4-.2-.7-.2s-.5.1-.7.2c-.2.1-.4.2-.5.4s-.2.4-.3.6c-.1.2-.1.4-.2.7h3.3c0-.3 0-.5-.1-.7zM70.1 42c-.1-.1-.2-.3-.3-.4-.1-.1-.3-.2-.4-.2-.2 0-.3-.1-.5-.1-.1 0-.3 0-.4 0s-.3.1-.4.1c-.1.1-.2.2-.3.3-.1.1-.1.3-.1.4 0 .1 0 .3.1.4.1.1.2.2.3.2.1.1.2.1.3.2.1 0 .2.1.3.1l.8.2c.2 0 .4.1.5.1.2.1.3.2.5.3.1.1.2.3.3.4.1.2.1.4.1.6 0 .3-.1.5-.2.7s-.3.4-.5.5-.4.2-.7.3c-.2.1-.5.1-.7.1-.6 0-1.1-.1-1.5-.4-.4-.3-.6-.7-.6-1.4h.6c0 .4.2.7.5 1 .3.2.6.3 1 .3.2 0 .3 0 .5 0s.3-.1.5-.2c.1-.1.3-.2.3-.3.1-.1.1-.3.1-.5s0-.3-.1-.4c-.1-.1-.1-.2-.3-.3-.1-.1-.2-.1-.4-.2-.1 0-.3-.1-.4-.1l-.8-.2c-.2-.1-.4-.1-.6-.2-.2-.1-.3-.2-.5-.3-.1-.1-.2-.2-.3-.4-.1-.1-.1-.3-.1-.5 0-.3.1-.5.2-.7s.3-.3.5-.4c.2-.1.4-.2.6-.2.2-.1.5-.1.7-.1.3 0 .5 0 .7.1s.4.2.6.3.3.3.4.5.2.4.2.7H70c.2 0 .1-.2.1-.3zM73.9 41v.5h-1v3.4c0 .2 0 .4.1.5s.2.2.4.2.4 0 .5 0v.5c-.1 0-.2 0-.3 0-.1 0-.2 0-.3 0-.4 0-.7-.1-.9-.2-.2-.2-.2-.5-.2-.9v-3.5h-.9V41h.9v-1.5h.6V41h1.1zM3.8 54.3c-.2-.2-.6-.3-1-.3-.3 0-.6.1-.8.2s-.4.3-.6.5c-.1.2-.3.4-.3.7-.1.3-.1.5-.1.8s0 .5.1.8.2.5.3.7c.1.2.3.4.6.5.2.1.5.2.8.2.2 0 .4 0 .5-.1.2-.1.3-.2.5-.3.1-.1.2-.3.3-.5s.1-.4.2-.6H5c-.1.6-.3 1.1-.7 1.4-.4.3-.8.5-1.4.5-.4 0-.7-.1-1-.2-.3-.1-.6-.3-.8-.6-.2-.2-.4-.5-.5-.9-.1-.3-.2-.7-.2-1s.1-.7.2-1 .3-.6.5-.9c.2-.2.5-.4.8-.6.3-.1.6-.2 1-.2.5 0 1 .1 1.4.4.4.3.6.7.7 1.3h-.7c-.1-.3-.2-.6-.5-.8zM9.1 53.7c.3.1.6.3.8.6.2.2.4.5.5.9.1.3.2.7.2 1s-.1.7-.2 1c-.1.3-.3.6-.5.9-.2.2-.5.4-.8.6-.3.1-.6.2-1 .2s-.7-.1-1-.2c-.3-.1-.6-.3-.8-.6-.2-.2-.4-.5-.5-.9-.1-.3-.2-.7-.2-1s.1-.7.2-1 .3-.6.5-.9c.1-.3.4-.5.7-.6s.6-.2 1-.2.8 0 1.1.2zm-1.9.5c-.2.1-.4.3-.6.5-.1.2-.3.4-.3.7-.1.3-.1.5-.1.8s0 .5.1.8.2.5.3.7c.2.2.4.3.6.4s.5.2.8.2.6-.1.8-.2c.2-.1.4-.2.6-.5.1-.2.3-.4.3-.7.1-.3.1-.5.1-.8s0-.5-.1-.8-.2-.5-.3-.7-.3-.4-.6-.5c-.2-.1-.5-.1-.8-.1s-.5 0-.8.2zM11.5 53.6l1.6 4.5 1.6-4.5h.6l-1.9 5.1h-.7l-2-5.1h.8zM16.5 57c.1.2.2.5.3.6.1.2.3.3.5.5.2.1.5.2.8.2.5 0 .8-.1 1.1-.4.3-.2.4-.6.5-.9h.6c-.1.6-.4 1-.7 1.3-.4.3-.9.5-1.5.5-.4 0-.8-.1-1-.2-.3-.1-.5-.3-.7-.6-.2-.2-.3-.5-.4-.9-.1-.3-.1-.7-.1-1s0-.7.1-1 .2-.6.4-.9c.2-.3.4-.5.7-.6.3-.2.6-.2 1-.2s.8.1 1 .2c.3.2.5.4.7.6.2.3.3.6.4.9.1.3.1.7.1 1.1h-3.9c0 .3 0 .6.1.8zm3-1.9c-.1-.2-.2-.4-.3-.6-.1-.2-.3-.3-.5-.4-.2-.1-.4-.1-.7-.1s-.5.1-.7.2c-.2.1-.4.2-.5.4s-.2.4-.3.6c-.1.2-.1.4-.2.7h3.3c.1-.3 0-.6-.1-.8zM21.7 53.6v1.2c.2-.4.4-.7.7-1 .3-.2.7-.3 1.2-.3v.6c-.3 0-.5 0-.8.1-.2.1-.4.2-.6.4s-.3.4-.4.6c-.1.2-.1.5-.1.7v2.7h-.6v-5.1l.6.1z"/></g><path fill="#22D2EF" d="M25.6 50.4h.7v9.4h-.7z"/></svg>