<svg xmlns="http://www.w3.org/2000/svg" width="85" height="85" viewBox="0 0 85 85"><circle opacity=".31" fill="#29ABE2" cx="40.8" cy="43.6" r="40.6"/><path fill="#3089E2" d="M69.6 73c4.4-3.5 8.1-8 10.8-13.3 10.1-20 2.1-44.5-17.9-54.6S18.1 3 7.9 23 5.8 67.4 25.8 77.6c12.5 6.3 26.7 5.6 38.1-.7l5.6 3.3.1-7.2z"/><path fill="#fff" d="M28.3 26.7c2 0 3.4.8 4.1 1.2.4.3.4.6.1 1l-.3.5c-.2.4-.6.4-1 .2-.5-.3-1.5-.9-2.8-.9-2.7 0-4.2 2-4.2 4.3s1.5 4.4 4.2 4.4c1.4 0 2.5-.7 3-1.1.4-.3.7-.3 1 .1l.3.5c.3.3.2.7-.1 1-.7.6-2.2 1.5-4.4 1.5-3.9 0-6.4-2.8-6.4-6.5.1-3.4 2.7-6.2 6.5-6.2zM40.1 26.7c3.8 0 6.4 2.8 6.4 6.3 0 3.7-2.7 6.5-6.4 6.5-3.8 0-6.4-2.9-6.4-6.5 0-3.5 2.6-6.3 6.4-6.3zm0 10.8c2.4 0 4.1-1.9 4.1-4.4 0-2.4-1.7-4.3-4.1-4.3-2.4 0-4.1 1.9-4.1 4.3 0 2.5 1.7 4.4 4.1 4.4zM48.3 27.7c0-.5.2-.7.7-.7h4.1c2.3 0 4 1.6 4 4s-1.6 4.1-4 4.1h-2.5v3.6c0 .5-.2.7-.7.7H49c-.5 0-.7-.2-.7-.7v-11zm4.4 5.4c1.3 0 2.1-.8 2.1-2.1s-.8-2.1-2-2.1h-2.2v4.2h2.1zM61.1 34.2l-3.6-6.3c-.3-.6-.1-.9.5-.9h1c.4 0 .7.2.8.5l1.7 3.1c.4.8.8 1.7.8 1.7s.4-.9.8-1.7l1.7-3.1c.2-.4.4-.5.8-.5h1c.6 0 .8.4.5.9l-3.7 6.3v4.5c0 .5-.2.7-.7.7h-.8c-.5 0-.7-.2-.7-.7v-4.5z"/><path fill="#80BCED" d="M24.2 46.2c.1-.2.2-.3.4-.3h.4c.2 0 .3.1.4.3l3.4 9.1c.1.3 0 .4-.3.4h-.3c-.2 0-.3-.1-.4-.3l-1-2.8h-3.9l-1 2.8c-.1.2-.2.3-.4.3h-.3c-.3 0-.4-.2-.3-.4l3.3-9.1zm2.3 5.6l-1.3-3.6c-.2-.4-.4-1.2-.4-1.2s-.2.8-.4 1.3l-1.3 3.6h3.4zM32.6 48.6c1.7 0 2.3 1.4 2.3 1.4s0-.2 0-.5v-3.2c0-.2.1-.3.3-.3h.3c.2 0 .3.1.3.3v9.1c0 .2-.1.3-.3.3h-.2c-.2 0-.3-.1-.3-.3v-.5c0-.3.1-.4.1-.4s-.6 1.5-2.4 1.5c-1.9 0-3.1-1.5-3.1-3.7-.2-2.3 1.1-3.7 3-3.7zm0 6.5c1.2 0 2.3-.8 2.3-2.8 0-1.4-.7-2.8-2.2-2.8-1.2 0-2.3 1-2.3 2.8 0 1.7.9 2.8 2.2 2.8zM40.4 48.6c1.7 0 2.3 1.4 2.3 1.4s0-.2 0-.5v-3.2c0-.2.1-.3.3-.3h.3c.2 0 .3.1.3.3v9.1c0 .2-.1.3-.3.3h-.2c-.2 0-.3-.1-.3-.3v-.5c0-.3.1-.4.1-.4s-.6 1.5-2.4 1.5c-1.9 0-3.1-1.5-3.1-3.7-.1-2.3 1.2-3.7 3-3.7zm.1 6.5c1.2 0 2.3-.8 2.3-2.8 0-1.4-.7-2.8-2.2-2.8-1.2 0-2.3 1-2.3 2.8 0 1.7.9 2.8 2.2 2.8zM45.6 49.1c0-.2.1-.3.3-.3h.3c.2 0 .3.1.3.3v.9c0 .3-.1.6-.1.6.3-1 1.1-1.9 2.3-1.9.3 0 .4.1.4.3v.3c0 .2-.2.3-.4.3-1.5 0-2.2 1.7-2.2 3.2v2.6c0 .2-.1.3-.3.3h-.3c-.2 0-.3-.1-.3-.3v-6.3zM52.9 48.6c1.9 0 2.9 1.4 2.9 3.3 0 .2-.2.3-.4.3h-5c0 1.8 1.3 2.8 2.7 2.8.9 0 1.5-.4 1.8-.6.2-.1.3-.1.5.1l.1.2c.1.2.1.3-.1.5-.4.3-1.2.8-2.3.8-2.1 0-3.7-1.5-3.7-3.7 0-2.3 1.6-3.7 3.5-3.7zm1.9 3c-.1-1.5-.9-2.2-2-2.2-1.2 0-2.2.8-2.4 2.2h4.4zM56.8 54.6l.1-.1c.1-.2.3-.2.5-.1.3.2.9.6 1.9.6.8 0 1.4-.4 1.4-1.1 0-1.6-3.8-1.1-3.8-3.4 0-1.3 1.1-2 2.4-2 1 0 1.6.4 1.9.6.2.1.2.3.1.5l-.1.2c-.1.2-.3.2-.5.1-.3-.2-.8-.4-1.5-.4s-1.4.3-1.4 1.1c0 1.6 3.7 1.1 3.7 3.4 0 1.2-1 2-2.4 2-1.2 0-2-.5-2.4-.8 0-.2-.1-.4.1-.6zM62.5 54.6l.1-.1c.1-.2.3-.2.5-.1.3.2.9.6 1.9.6.8 0 1.4-.4 1.4-1.1 0-1.6-3.8-1.1-3.8-3.4 0-1.3 1.1-2 2.4-2 1 0 1.6.4 1.9.6.2.1.2.3.1.5v.2c-.1.2-.3.2-.5.1-.3-.2-.8-.4-1.5-.4s-1.4.3-1.4 1.1c0 1.6 3.7 1.1 3.7 3.4 0 1.2-1 2-2.4 2-1.2 0-2-.5-2.4-.8-.1-.2-.1-.4 0-.6z"/></svg>