<svg xmlns="http://www.w3.org/2000/svg" width="140" height="140" viewBox="0 0 140 140"><g fill="#22D2EF"><ellipse opacity=".2" enable-background="new" cx="68" cy="70" rx="67.4" ry="69"/><circle cx="72.6" cy="72.4" r="66.3"/><path d="M125.1 37.1l14.6 1.4-6.5 13.3z"/></g><path fill="#fff" d="M49.2 47.5c0-1 .5-1.6 1.5-1.6h8.6c4.9 0 8.3 3.4 8.3 8.5S64.2 63 59.3 63h-5.4v7.5c0 1-.5 1.6-1.5 1.6h-1.7c-1 0-1.5-.5-1.5-1.6v-23zM58.4 59c2.8 0 4.4-1.8 4.4-4.5s-1.6-4.4-4.3-4.4H54V59h4.4zM82.8 45.5c4.3 0 7.2 1.6 8.6 2.6.8.6.8 1.3.3 2.1l-.7 1.2c-.5.8-1.2.9-2.1.4-1.1-.7-3.2-1.8-5.9-1.8-5.7 0-8.8 4.2-8.8 9 0 4.9 3.2 9.4 8.8 9.4 3 0 5.2-1.4 6.4-2.3.8-.6 1.6-.6 2.1.3l.7 1c.6.7.5 1.5-.2 2.1-1.5 1.2-4.6 3.3-9.3 3.3-8.2 0-13.6-5.9-13.6-13.7.2-7.7 5.8-13.6 13.7-13.6z"/><path fill="#E6FBFF" d="M15.9 78.9c0-.3.2-.5.5-.5h.5c.3 0 .5.1.6.3l7.2 10.2c.5.7 1.2 2 1.2 2s-.1-1.2-.1-2v-10c0-.3.2-.5.5-.5h.4c.3 0 .5.2.5.5v13.6c0 .3-.2.5-.5.5h-.5c-.3 0-.5-.1-.6-.3l-7.3-10.2c-.5-.7-1.2-2-1.2-2s.1 1.2.1 2v10c0 .3-.2.5-.5.5h-.4c-.3 0-.5-.2-.5-.5V78.9zM35.2 82.3c3.1 0 5.5 2.3 5.5 5.4 0 3.2-2.5 5.5-5.5 5.5-3.1 0-5.5-2.4-5.5-5.5s2.4-5.4 5.5-5.4zm0 9.7c2.2 0 4.1-1.8 4.1-4.3 0-2.4-1.8-4.2-4.1-4.2-2.2 0-4.1 1.8-4.1 4.2 0 2.4 1.9 4.3 4.1 4.3zM43.1 83.8h-.9c-.3 0-.5-.2-.5-.5v-.2c0-.3.2-.5.5-.5h.9v-2.5c0-.3.2-.5.5-.5h.4c.3 0 .5.2.5.5v2.5h2.1c.3 0 .5.2.5.5v.2c0 .3-.2.5-.5.5h-2.1V89c0 2.4 1.5 2.7 2.3 2.7.4 0 .6.2.6.5v.3c0 .3-.2.5-.6.5-2.3 0-3.7-1.4-3.7-3.8v-5.4zM49 79.7V79c0-.3.2-.5.5-.5h.5c.3 0 .5.2.5.5v.7c0 .3-.2.5-.5.5h-.5c-.4-.1-.5-.2-.5-.5zm0 3.4c0-.3.2-.5.5-.5h.4c.3 0 .5.2.5.5v9.4c0 .3-.2.5-.5.5h-.4c-.3 0-.5-.2-.5-.5v-9.4zM53.7 83.7h-.8c-.3 0-.5-.2-.5-.5V83c0-.3.2-.5.5-.5h.8v-.4c0-3.3 2.5-3.9 3.5-3.9h.2c.3 0 .5.2.5.5v.3c0 .4-.2.5-.6.5-.9 0-2.3.3-2.3 2.6v.4h5.5c.3 0 .5.2.5.5v9.4c0 .3-.2.5-.5.5h-.4c-.3 0-.5-.2-.5-.5v-8.7H55v8.7c0 .3-.2.5-.5.5h-.4c-.3 0-.5-.2-.5-.5v-8.7zm5.9-4V79c0-.3.2-.5.5-.5h.5c.3 0 .5.2.5.5v.7c0 .3-.2.5-.5.5h-.5c-.3-.1-.5-.2-.5-.5zM68.7 82.3c1.8 0 3 .8 3.5 1.2.2.2.3.4.1.7l-.1.2c-.2.3-.4.3-.7.1-.5-.4-1.4-1-2.6-1-2.3 0-4.1 1.7-4.1 4.2s1.8 4.2 4.1 4.2c1.5 0 2.5-.7 3-1.1.3-.2.5-.2.7.1l.1.2c.2.3.1.5-.1.7-.5.4-1.8 1.3-3.7 1.3-3.1 0-5.5-2.2-5.5-5.5-.2-3 2.2-5.3 5.3-5.3zM80.1 86.6h.6v-.3c0-2-1.1-2.7-2.6-2.7-1.2 0-2.1.4-2.5.7-.3.1-.5.1-.7-.2l-.1-.2c-.2-.3-.1-.5.1-.7.5-.3 1.7-.9 3.3-.9 2.5 0 3.9 1.4 3.9 4v6.2c0 .3-.2.5-.5.5h-.3c-.3 0-.5-.2-.5-.5v-.8c0-.5.1-.8.1-.8s-.9 2.4-3.5 2.4c-1.8 0-3.5-1-3.5-3.1-.2-3.4 4.2-3.6 6.2-3.6zm-2.6 5.5c2 0 3.2-2.1 3.2-3.9v-.5h-.6c-1.6 0-4.9.1-4.9 2.4 0 .9.7 2 2.3 2zM88.8 93.2c-2.7-.3-4.7-2.4-4.7-5.4 0-3.2 2.4-5.5 5.5-5.5 1.8 0 3 .8 3.5 1.2.2.2.3.4.1.7l-.2.2c-.2.3-.4.3-.7.1-.5-.4-1.4-1-2.6-1-2.3 0-4.1 1.7-4.1 4.2s1.8 4.2 4.1 4.2c1.5 0 2.5-.7 3-1.1.3-.2.5-.2.7.1l.1.2c.2.3.1.5-.1.7-.5.4-1.7 1.3-3.6 1.3l-.2.9c.8.1 1.5.6 1.5 1.5 0 1.2-1 1.6-2 1.6-.4 0-1 0-1-.5 0-.3.1-.5.3-.5.2 0 .3.1.5.1.5 0 1-.2 1-.7 0-.5-.4-.7-1-.7-.2 0-.4-.2-.4-.5l.3-1.1zM100.2 82.3c3.1 0 5.5 2.3 5.5 5.4 0 3.2-2.5 5.5-5.5 5.5-3.1 0-5.5-2.4-5.5-5.5s2.5-5.4 5.5-5.4zm0 9.7c2.2 0 4.1-1.8 4.1-4.3 0-2.4-1.8-4.2-4.1-4.2-2.2 0-4.1 1.8-4.1 4.2.1 2.4 1.9 4.3 4.1 4.3zM97 80.2c0-1.1.7-1.9 1.8-1.9 1.4 0 1.7 1.5 2.7 1.5.5 0 .8-.5.8-1 0-.2.2-.4.5-.4h.2c.3 0 .4.2.4.5 0 1.2-.7 2-1.8 2-1.4 0-1.7-1.5-2.7-1.5-.5 0-.8.5-.8 1.1 0 .2-.2.4-.5.4h-.1c-.3-.1-.5-.3-.5-.7zM112.3 82.3c2.8 0 4.4 2 4.4 5 0 .3-.2.5-.5.5h-7.5c.1 2.7 1.9 4.2 4.1 4.2 1.3 0 2.3-.6 2.7-1 .3-.2.5-.1.7.1l.2.2c.1.2.1.5-.1.7-.6.4-1.8 1.2-3.5 1.2-3.1 0-5.5-2.2-5.5-5.5-.1-3.4 2.2-5.4 5-5.4zm2.9 4.4c-.1-2.2-1.4-3.3-3-3.3-1.7 0-3.3 1.2-3.6 3.3h6.6zM118.2 91.3l.2-.2c.2-.2.4-.3.7-.1.5.4 1.4 1 2.8 1 1.2 0 2.1-.6 2.1-1.7 0-2.3-5.6-1.6-5.6-5.1 0-1.9 1.6-2.9 3.6-2.9 1.5 0 2.4.5 2.9.9.3.2.3.4.1.7l-.1.2c-.2.3-.4.3-.7.1-.4-.3-1.1-.7-2.2-.7s-2.1.5-2.1 1.6c0 2.4 5.6 1.6 5.6 5.1 0 1.7-1.5 3-3.5 3-1.8 0-3-.8-3.5-1.2-.5-.1-.5-.4-.3-.7z"/></svg>