<?xml version="1.0" encoding="utf-8"?>
<!-- Generator: Adobe Illustrator 18.1.0, SVG Export Plug-In . SVG Version: 6.00 Build 0)  -->
<!DOCTYPE svg PUBLIC "-//W3C//DTD SVG 1.1//EN" "http://www.w3.org/Graphics/SVG/1.1/DTD/svg11.dtd">
<svg version="1.1" id="Layer_1" xmlns="http://www.w3.org/2000/svg" xmlns:xlink="http://www.w3.org/1999/xlink" x="0px" y="0px"
	 width="100px" height="100px" viewBox="38 -41 100 100" enable-background="new 38 -41 100 100" xml:space="preserve">
<g>
	<circle opacity="0.31" fill="#29ABE2" enable-background="new    " cx="90.4" cy="11.5" r="47.3"/>
	<path fill="#3089E2" d="M125.3,32.3c3.5-5.5,6-11.8,7.1-18.7c3.9-25.9-14-50-39.8-53.8s-50,14-53.8,39.8s14,50,39.8,53.8
		c16.2,2.4,31.6-3.6,41.9-14.8l7.4,1.7L125.3,32.3z"/>
</g>
<g>
	<g>
		<path fill="#FFFFFF" d="M50.3-9.4c2.4,0,4,0.9,4.8,1.5c0.4,0.3,0.5,0.7,0.2,1.2l-0.4,0.6c-0.3,0.5-0.7,0.5-1.2,0.2
			c-0.6-0.4-1.8-1-3.3-1c-3.2,0-4.9,2.3-4.9,5.1c0,2.8,1.8,5.3,5,5.3c1.7,0,2.9-0.8,3.6-1.3c0.5-0.3,0.9-0.3,1.2,0.1l0.4,0.6
			C56,3.2,56,3.6,55.6,4c-0.8,0.7-2.6,1.8-5.2,1.8c-4.6,0-7.6-3.3-7.6-7.7C42.7-6.1,45.9-9.4,50.3-9.4z"/>
		<path fill="#FFFFFF" d="M64.4-9.4c4.5,0,7.6,3.3,7.6,7.5c0,4.3-3.2,7.7-7.6,7.7s-7.6-3.4-7.6-7.7C56.7-6.1,59.9-9.4,64.4-9.4z
			 M64.4,3.4c2.8,0,4.9-2.3,4.9-5.3c0-2.9-2-5.1-4.9-5.1s-4.9,2.2-4.9,5.1C59.5,1.1,61.5,3.4,64.4,3.4z"/>
		<path fill="#FFFFFF" d="M74.1-8.3c0-0.6,0.3-0.9,0.9-0.9h4.8c2.8,0,4.7,1.9,4.7,4.8c0,2.9-1.9,4.9-4.7,4.9h-3v4.2
			c0,0.6-0.3,0.9-0.9,0.9h-1c-0.6,0-0.9-0.3-0.9-0.9V-8.3z M79.3-1.8c1.6,0,2.5-1,2.5-2.5c0-1.5-0.9-2.5-2.4-2.5h-2.6v5H79.3z"/>
		<path fill="#FFFFFF" d="M86.3-8.3c0-0.6,0.3-0.9,0.9-0.9h1c0.6,0,0.8,0.3,0.8,0.9v13c0,0.6-0.3,0.9-0.8,0.9h-1
			c-0.6,0-0.9-0.3-0.9-0.9V-8.3z"/>
		<path fill="#FFFFFF" d="M95.2-8.5c0.2-0.5,0.5-0.7,1-0.7h1.3c0.5,0,0.8,0.2,1,0.7l4.6,13c0.2,0.6-0.1,1-0.7,1h-1
			c-0.5,0-0.8-0.2-1-0.7l-1-3.1h-5.2l-1,3c-0.1,0.5-0.5,0.7-1,0.7h-1c-0.6,0-0.9-0.4-0.7-1L95.2-8.5z M98.8-0.4l-1.3-3.9
			c-0.2-0.8-0.6-2.3-0.6-2.3h0c0,0-0.3,1.5-0.6,2.3l-1.3,3.9H98.8z"/>
		<path fill="#FFFFFF" d="M103.7,4.4c0-0.4,0.1-0.7,0.4-1.1l6.2-8.9c0.6-0.9,1.1-1.3,1.1-1.3v0c0,0-0.4,0-1.1,0h-5.3
			c-0.6,0-0.9-0.3-0.9-0.9v-0.6c0-0.6,0.3-0.9,0.9-0.9h8.9c0.6,0,0.9,0.3,0.9,0.9v0.2c0,0.4-0.1,0.7-0.3,1.1l-6.2,8.9
			c-0.6,0.9-1.1,1.3-1.1,1.3v0c0,0,0.4,0,1.1,0h5.7c0.6,0,0.9,0.3,0.9,0.9v0.6c0,0.6-0.3,0.9-0.9,0.9h-9.3c-0.6,0-0.9-0.3-0.9-0.9
			V4.4z"/>
		<path fill="#FFFFFF" d="M120.1-8.5c0.2-0.5,0.5-0.7,1-0.7h1.3c0.5,0,0.8,0.2,1,0.7l4.6,13c0.2,0.6-0.1,1-0.7,1h-1
			c-0.5,0-0.8-0.2-1-0.7l-1-3.1h-5.2l-1,3c-0.1,0.5-0.5,0.7-1,0.7h-1c-0.6,0-0.9-0.4-0.7-1L120.1-8.5z M118.7-12.4
			c0-0.3,0.2-0.5,0.7-0.5h0.4c0.5,0,0.7,0.3,0.7,0.6c0.1,0.7,0.6,0.9,1.2,0.9c0.5,0,1-0.2,1.2-0.9c0.1-0.3,0.2-0.6,0.7-0.6h0.4
			c0.5,0,0.7,0.2,0.7,0.5c0,1.5-1.6,2.4-3,2.4C120.3-10.1,118.7-11,118.7-12.4z M123.7-0.4l-1.3-3.9c-0.2-0.8-0.6-2.3-0.6-2.3h0
			c0,0-0.3,1.5-0.6,2.3l-1.3,3.9H123.7z"/>
		<path fill="#80BCED" d="M67.3,11.7h-4.7c-0.3,0-0.5-0.2-0.5-0.5v-0.2c0-0.3,0.2-0.5,0.5-0.5h10.9c0.3,0,0.5,0.2,0.5,0.5v0.2
			c0,0.3-0.2,0.5-0.5,0.5h-4.7v12.8c0,0.3-0.2,0.5-0.5,0.5h-0.4c-0.3,0-0.5-0.2-0.5-0.5V11.7z"/>
		<path fill="#80BCED" d="M75.7,10.9c0-0.3,0.2-0.5,0.5-0.5h7.2c0.3,0,0.5,0.2,0.5,0.5v0.2c0,0.3-0.2,0.5-0.5,0.5h-6.3V17h5
			c0.3,0,0.5,0.2,0.5,0.5v0.3c0,0.3-0.2,0.5-0.5,0.5h-5v5.4h6.6c0.3,0,0.5,0.2,0.5,0.5v0.2c0,0.3-0.2,0.5-0.5,0.5h-7.6
			c-0.3,0-0.5-0.2-0.5-0.5V10.9z"/>
		<path fill="#80BCED" d="M89.8,17.4L85.9,11c-0.2-0.3-0.1-0.6,0.4-0.6h0.6c0.3,0,0.5,0.1,0.6,0.4l2.3,4c0.4,0.7,1,1.7,1,1.7h0
			c0,0,0.4-0.9,0.9-1.7l2.4-4c0.1-0.2,0.3-0.4,0.6-0.4h0.6c0.4,0,0.6,0.3,0.4,0.6l-3.9,6.4l4.3,7c0.2,0.3,0.1,0.6-0.3,0.6H95
			c-0.3,0-0.5-0.1-0.6-0.4l-2.8-4.7c-0.4-0.8-0.9-1.6-0.9-1.6h0c0,0-0.4,0.9-0.9,1.6L87,24.6c-0.1,0.2-0.3,0.4-0.6,0.4h-0.5
			c-0.4,0-0.6-0.3-0.4-0.6L89.8,17.4z"/>
		<path fill="#80BCED" d="M101.6,11.7h-4.7c-0.3,0-0.5-0.2-0.5-0.5v-0.2c0-0.3,0.2-0.5,0.5-0.5h10.9c0.3,0,0.5,0.2,0.5,0.5v0.2
			c0,0.3-0.2,0.5-0.5,0.5H103v12.8c0,0.3-0.2,0.5-0.5,0.5h-0.4c-0.3,0-0.5-0.2-0.5-0.5V11.7z"/>
	</g>
</g>
</svg>
