<?xml version="1.0" encoding="utf-8"?>
<!-- Generator: Adobe Illustrator 18.1.0, SVG Export Plug-In . SVG Version: 6.00 Build 0)  -->
<!DOCTYPE svg PUBLIC "-//W3C//DTD SVG 1.1//EN" "http://www.w3.org/Graphics/SVG/1.1/DTD/svg11.dtd">
<svg version="1.1" id="Layer_1" xmlns="http://www.w3.org/2000/svg" xmlns:xlink="http://www.w3.org/1999/xlink" x="0px" y="0px"
	 width="85px" height="85px" viewBox="31 -33 85 85" enable-background="new 31 -33 85 85" xml:space="preserve">
<g>
	<g>
		<circle opacity="0.31" fill="#29ABE2" enable-background="new    " cx="71.8" cy="10.6" r="40.6"/>
		<path fill="#3089E2" d="M100.6,40c4.4-3.5,8.1-8,10.8-13.3c10.1-20,2.1-44.5-17.9-54.6S49.1-30,38.9-10s-2.1,44.4,17.9,54.6
			c12.5,6.3,26.7,5.6,38.1-0.7l5.6,3.3L100.6,40z"/>
	</g>
	<g>
		<path fill="#FFFFFF" d="M44.4-3.4c2.1,0,3.5,0.8,4.2,1.3c0.4,0.3,0.4,0.6,0.1,1l-0.3,0.5c-0.3,0.4-0.6,0.4-1,0.2
			c-0.6-0.4-1.6-0.9-2.9-0.9c-2.8,0-4.3,2-4.3,4.4c0,2.4,1.5,4.6,4.3,4.6c1.4,0,2.5-0.7,3.1-1.1c0.4-0.3,0.8-0.3,1,0.1l0.4,0.5
			c0.3,0.4,0.3,0.7-0.1,1c-0.7,0.6-2.2,1.6-4.5,1.6c-4,0-6.6-2.9-6.6-6.7C37.9-0.6,40.6-3.4,44.4-3.4z"/>
		<path fill="#FFFFFF" d="M56.6-3.4c3.9,0,6.6,2.9,6.6,6.5c0,3.8-2.7,6.7-6.6,6.7c-3.9,0-6.6-2.9-6.6-6.7C50-0.6,52.7-3.4,56.6-3.4z
			 M56.6,7.7c2.4,0,4.2-2,4.2-4.6c0-2.5-1.8-4.4-4.2-4.4c-2.4,0-4.2,1.9-4.2,4.4C52.4,5.7,54.2,7.7,56.6,7.7z"/>
		<path fill="#FFFFFF" d="M65.1-2.4c0-0.5,0.3-0.8,0.7-0.8H70C72.4-3.2,74-1.5,74,1S72.4,5.2,70,5.2h-2.6v3.6c0,0.5-0.3,0.8-0.7,0.8
			h-0.8c-0.5,0-0.7-0.3-0.7-0.8V-2.4z M69.6,3.2c1.4,0,2.1-0.9,2.1-2.2c0-1.3-0.8-2.2-2.1-2.2h-2.2v4.4H69.6z"/>
		<path fill="#FFFFFF" d="M75.6-2.4c0-0.5,0.3-0.8,0.7-0.8h0.8c0.5,0,0.7,0.3,0.7,0.8V8.8c0,0.5-0.3,0.8-0.7,0.8h-0.8
			c-0.5,0-0.7-0.3-0.7-0.8V-2.4z"/>
		<path fill="#FFFFFF" d="M83.4-2.6c0.1-0.4,0.4-0.6,0.8-0.6h1.2c0.4,0,0.7,0.2,0.8,0.6l4,11.3c0.2,0.5-0.1,0.9-0.6,0.9h-0.8
			c-0.4,0-0.7-0.2-0.8-0.6L87,6.3h-4.5l-0.9,2.6c-0.1,0.4-0.4,0.6-0.8,0.6H80c-0.6,0-0.8-0.3-0.6-0.9L83.4-2.6z M86.4,4.4L85.3,1
			c-0.2-0.7-0.5-2-0.5-2h0c0,0-0.3,1.3-0.5,2l-1.2,3.4H86.4z"/>
		<path fill="#FFFFFF" d="M90.7,8.6c0-0.4,0.1-0.6,0.3-1L96.4,0c0.5-0.7,0.9-1.2,0.9-1.2v0c0,0-0.4,0-1,0h-4.6
			c-0.5,0-0.8-0.3-0.8-0.7v-0.5c0-0.5,0.3-0.8,0.8-0.8h7.7c0.5,0,0.7,0.3,0.7,0.7v0.2c0,0.4-0.1,0.6-0.3,1l-5.4,7.7
			c-0.5,0.7-0.9,1.2-0.9,1.2v0c0,0,0.4,0,1,0h5c0.5,0,0.8,0.3,0.8,0.7v0.5c0,0.5-0.3,0.8-0.8,0.8h-8.1c-0.5,0-0.8-0.3-0.8-0.8V8.6z"
			/>
		<path fill="#FFFFFF" d="M105-2.6c0.1-0.4,0.4-0.6,0.8-0.6h1.2c0.4,0,0.7,0.2,0.8,0.6l4,11.3c0.2,0.5-0.1,0.9-0.6,0.9h-0.8
			c-0.4,0-0.7-0.2-0.8-0.6l-0.9-2.7h-4.5l-0.9,2.6c-0.1,0.4-0.4,0.6-0.8,0.6h-0.8c-0.6,0-0.8-0.3-0.6-0.9L105-2.6z M103.7-6
			c0-0.3,0.2-0.4,0.6-0.4h0.3c0.4,0,0.6,0.3,0.6,0.5c0.1,0.6,0.5,0.8,1,0.8c0.5,0,0.9-0.2,1-0.8c0.1-0.2,0.2-0.5,0.6-0.5h0.3
			c0.5,0,0.6,0.2,0.6,0.4c0,1.3-1.3,2.1-2.6,2.1C105.1-4,103.7-4.8,103.7-6z M108,4.4L106.9,1c-0.2-0.7-0.5-2-0.5-2h0
			c0,0-0.3,1.3-0.5,2l-1.2,3.4H108z"/>
		<path fill="#80BCED" d="M57.5,16.6c0.1-0.2,0.2-0.3,0.4-0.3h0.5c0.2,0,0.3,0.1,0.4,0.3l3.5,9.4c0.1,0.3,0,0.4-0.3,0.4h-0.3
			c-0.2,0-0.3-0.1-0.4-0.3l-1.1-2.9h-4L55,26.1c-0.1,0.2-0.2,0.3-0.4,0.3h-0.3c-0.3,0-0.4-0.2-0.3-0.4L57.5,16.6z M59.9,22.3
			l-1.3-3.7c-0.2-0.5-0.4-1.3-0.4-1.3h0c0,0-0.2,0.8-0.4,1.3l-1.3,3.7H59.9z"/>
		<path fill="#80BCED" d="M66.1,19c1.7,0,2.4,1.4,2.4,1.4h0c0,0,0-0.2,0-0.5v-3.2c0-0.2,0.1-0.4,0.4-0.4h0.3c0.2,0,0.3,0.1,0.3,0.4
			v9.4c0,0.2-0.1,0.4-0.3,0.4h-0.2c-0.2,0-0.4-0.1-0.4-0.3v-0.5c0-0.3,0.1-0.4,0.1-0.4h0c0,0-0.6,1.5-2.5,1.5
			c-1.9,0-3.1-1.5-3.1-3.8C62.9,20.5,64.2,19,66.1,19z M66.2,25.7c1.2,0,2.3-0.9,2.3-2.9c0-1.5-0.7-2.9-2.3-2.9
			c-1.3,0-2.3,1.1-2.3,2.9C63.9,24.6,64.8,25.7,66.2,25.7z"/>
		<path fill="#80BCED" d="M71.4,19.6c0-0.2,0.1-0.4,0.4-0.4H72c0.2,0,0.3,0.1,0.3,0.4v1c0,0.3-0.1,0.6-0.1,0.6h0
			c0.3-1,1.2-1.9,2.3-1.9c0.3,0,0.4,0.1,0.4,0.3v0.3c0,0.2-0.2,0.4-0.4,0.4c-1.5,0-2.2,1.7-2.2,3.2v2.7c0,0.2-0.1,0.4-0.3,0.4h-0.3
			c-0.2,0-0.4-0.1-0.4-0.4V19.6z"/>
		<path fill="#80BCED" d="M78.9,19c1.9,0,3,1.4,3,3.4c0,0.2-0.2,0.4-0.4,0.4h-5.2c0,1.8,1.3,2.9,2.8,2.9c0.9,0,1.6-0.4,1.9-0.7
			c0.2-0.1,0.4-0.1,0.5,0.1l0.1,0.2c0.1,0.2,0.1,0.3-0.1,0.5c-0.4,0.3-1.2,0.8-2.4,0.8c-2.1,0-3.8-1.5-3.8-3.8
			C75.3,20.5,76.9,19,78.9,19z M80.9,22.1c-0.1-1.5-1-2.3-2-2.3c-1.2,0-2.2,0.8-2.5,2.3H80.9z"/>
		<path fill="#80BCED" d="M82.9,25.3l0.1-0.1c0.1-0.2,0.3-0.2,0.5-0.1c0.3,0.2,1,0.7,1.9,0.7c0.8,0,1.5-0.4,1.5-1.2
			c0-1.6-3.9-1.1-3.9-3.5c0-1.3,1.1-2,2.5-2c1,0,1.7,0.4,2,0.6c0.2,0.1,0.2,0.3,0.1,0.5l-0.1,0.2c-0.1,0.2-0.3,0.2-0.5,0.1
			c-0.3-0.2-0.8-0.5-1.5-0.5c-0.8,0-1.4,0.3-1.4,1.1c0,1.7,3.8,1.1,3.8,3.5c0,1.2-1,2-2.4,2c-1.3,0-2.1-0.5-2.4-0.8
			C82.8,25.6,82.8,25.5,82.9,25.3z"/>
		<path fill="#80BCED" d="M93.1,22h0.4v-0.2c0-1.4-0.8-1.9-1.8-1.9c-0.8,0-1.4,0.3-1.7,0.5c-0.2,0.1-0.4,0.1-0.5-0.1l-0.1-0.1
			c-0.1-0.2-0.1-0.4,0.1-0.5c0.4-0.2,1.2-0.6,2.3-0.6c1.7,0,2.7,1,2.7,2.8v4.3c0,0.2-0.1,0.4-0.3,0.4h-0.2c-0.2,0-0.4-0.1-0.4-0.4
			v-0.6c0-0.3,0-0.5,0-0.5h0c0,0-0.6,1.6-2.4,1.6c-1.2,0-2.4-0.7-2.4-2.1C88.7,22.1,91.7,22,93.1,22z M91.3,25.8
			c1.4,0,2.2-1.4,2.2-2.7v-0.3h-0.4c-1.1,0-3.4,0-3.4,1.7C89.7,25.1,90.2,25.8,91.3,25.8z"/>
	</g>
</g>
</svg>
