<?xml version="1.0" encoding="utf-8"?>
<!-- Generator: Adobe Illustrator 18.1.0, SVG Export Plug-In . SVG Version: 6.00 Build 0)  -->
<!DOCTYPE svg PUBLIC "-//W3C//DTD SVG 1.1//EN" "http://www.w3.org/Graphics/SVG/1.1/DTD/svg11.dtd">
<svg version="1.1" id="Layer_1" xmlns="http://www.w3.org/2000/svg" xmlns:xlink="http://www.w3.org/1999/xlink" x="0px" y="0px"
	 width="95px" height="40px" viewBox="-1236.5 295.5 95 40" enable-background="new -1236.5 295.5 95 40" xml:space="preserve">
<g>
	<path opacity="0.1" fill="#FFFFFF" enable-background="new    " d="M-1145.5,331.6h-87c-0.6,0-1.2-0.5-1.2-1.2v-29.8
		c0-0.6,0.5-1.2,1.2-1.2h86.9c0.6,0,1.2,0.5,1.2,1.2v29.9C-1144.4,331.1-1144.9,331.6-1145.5,331.6z"/>
	<g opacity="0.9">
		<path fill="#FFFFFF" d="M-1205.6,305.9v0.6h-0.6v4.5h0.6v0.6h-1.8V311h0.6v-4.5h-0.6v-0.6H-1205.6z"/>
		<path fill="#FFFFFF" d="M-1201.5,311.6h-0.7v-2.3c0-0.9-0.3-1.3-1-1.3c-0.3,0-0.6,0.1-0.8,0.4c-0.2,0.2-0.3,0.6-0.3,0.9v2.3h-0.7
			v-4.1h0.7v0.7l0,0c0.3-0.5,0.8-0.8,1.3-0.8c0.4,0,0.8,0.1,1,0.4c0.2,0.3,0.4,0.7,0.4,1.3L-1201.5,311.6L-1201.5,311.6z"/>
		<path fill="#FFFFFF" d="M-1197.5,311.4c-0.3,0.2-0.7,0.3-1.1,0.3c-0.6,0-1.1-0.2-1.4-0.6c-0.4-0.4-0.5-0.9-0.5-1.5
			c0-0.7,0.2-1.2,0.6-1.6s0.9-0.6,1.5-0.6c0.4,0,0.7,0.1,1,0.2v0.7c-0.3-0.2-0.6-0.3-1-0.3s-0.8,0.1-1,0.4c-0.3,0.3-0.4,0.7-0.4,1.2
			s0.1,0.9,0.4,1.1c0.3,0.3,0.6,0.4,1,0.4s0.7-0.1,1-0.4L-1197.5,311.4L-1197.5,311.4z"/>
		<path fill="#FFFFFF" d="M-1194.9,311.7c-0.6,0-1.1-0.2-1.4-0.6c-0.4-0.4-0.5-0.9-0.5-1.5c0-0.7,0.2-1.2,0.6-1.6
			c0.4-0.4,0.9-0.6,1.5-0.6c0.6,0,1.1,0.2,1.4,0.6c0.3,0.4,0.5,0.9,0.5,1.6c0,0.7-0.2,1.2-0.6,1.6
			C-1193.8,311.6-1194.3,311.7-1194.9,311.7z M-1194.9,308c-0.4,0-0.8,0.1-1,0.4c-0.2,0.3-0.4,0.7-0.4,1.2s0.1,0.9,0.4,1.1
			c0.2,0.3,0.6,0.4,1,0.4s0.7-0.1,1-0.4c0.2-0.3,0.3-0.7,0.3-1.2s-0.1-0.9-0.3-1.2C-1194.1,308-1194.4,308-1194.9,308z"/>
		<path fill="#FFFFFF" d="M-1186.1,311.6h-0.7v-2.3c0-0.5-0.1-0.8-0.2-1c-0.1-0.2-0.3-0.3-0.7-0.3c-0.3,0-0.5,0.1-0.7,0.4
			c-0.2,0.3-0.3,0.6-0.3,0.9v2.3h-0.7v-2.4c0-0.8-0.3-1.2-0.9-1.2c-0.3,0-0.5,0.1-0.7,0.4c-0.2,0.2-0.3,0.6-0.3,0.9v2.3h-0.7v-4.1
			h0.7v0.6l0,0c0.3-0.4,0.8-0.7,1.3-0.7c0.3,0,0.5,0.1,0.7,0.2c0.2,0.2,0.3,0.4,0.4,0.6c0.3-0.6,0.8-0.8,1.4-0.8
			c0.9,0,1.3,0.6,1.3,1.7L-1186.1,311.6L-1186.1,311.6z"/>
		<path fill="#FFFFFF" d="M-1184.6,306.5c-0.1,0-0.2,0-0.3-0.1s-0.1-0.2-0.1-0.3s0-0.2,0.1-0.3c0.1-0.1,0.2-0.1,0.3-0.1
			s0.2,0,0.3,0.1c0.1,0.1,0.1,0.2,0.1,0.3s0,0.2-0.1,0.3C-1184.4,306.5-1184.5,306.5-1184.6,306.5z M-1184.3,311.6h-0.7v-4.1h0.7
			V311.6z"/>
		<path fill="#FFFFFF" d="M-1179.7,311.6h-0.7v-2.3c0-0.9-0.3-1.3-1-1.3c-0.3,0-0.6,0.1-0.8,0.4c-0.2,0.2-0.3,0.6-0.3,0.9v2.3h-0.7
			v-4.1h0.7v0.7l0,0c0.3-0.5,0.8-0.8,1.3-0.8c0.4,0,0.8,0.1,1,0.4c0.2,0.3,0.4,0.7,0.4,1.3v2.5H-1179.7z"/>
		<path fill="#FFFFFF" d="M-1175,311.3c0,1.5-0.7,2.3-2.2,2.3c-0.5,0-0.9-0.1-1.3-0.3v-0.7c0.5,0.3,0.9,0.4,1.3,0.4
			c1,0,1.5-0.5,1.5-1.6V311l0,0c-0.3,0.5-0.8,0.8-1.4,0.8c-0.5,0-0.9-0.2-1.2-0.5c-0.3-0.4-0.5-0.9-0.5-1.5c0-0.7,0.2-1.2,0.5-1.7
			c0.3-0.4,0.8-0.6,1.4-0.6s1,0.2,1.2,0.7l0,0v-0.7h0.7V311.3z M-1175.7,309.8v-0.6c0-0.3-0.1-0.6-0.3-0.8c-0.2-0.2-0.5-0.4-0.8-0.4
			c-0.4,0-0.7,0.1-1,0.4c-0.2,0.3-0.3,0.7-0.3,1.2s0.1,0.8,0.3,1.1c0.2,0.3,0.5,0.4,0.9,0.4s0.7-0.1,0.9-0.4
			C-1175.8,310.5-1175.7,310.2-1175.7,309.8z"/>
		<path fill="#FFFFFF" d="M-1171.9,311.4v-1.3c0.2,0.2,0.5,0.3,0.8,0.4c0.3,0.1,0.5,0.1,0.8,0.1c0.2,0,0.3,0,0.4,0s0.2-0.1,0.3-0.1
			c0.1-0.1,0.1-0.1,0.2-0.2c0-0.1,0.1-0.1,0.1-0.2s0-0.2-0.1-0.3c-0.1-0.1-0.2-0.2-0.3-0.2c-0.1-0.1-0.2-0.1-0.4-0.2
			c-0.2-0.1-0.3-0.1-0.5-0.2c-0.4-0.2-0.8-0.4-1-0.7c-0.2-0.3-0.3-0.6-0.3-1c0-0.3,0.1-0.6,0.2-0.8c0.1-0.2,0.3-0.4,0.5-0.5
			c0.2-0.1,0.4-0.2,0.7-0.3s0.6-0.1,0.9-0.1c0.3,0,0.6,0,0.8,0.1c0.2,0,0.4,0.1,0.6,0.2v1.2c-0.1-0.1-0.2-0.1-0.3-0.2
			s-0.2-0.1-0.3-0.1c-0.1,0-0.2-0.1-0.4-0.1c-0.1,0-0.2,0-0.3,0s-0.3,0-0.4,0s-0.2,0.1-0.3,0.1c-0.1,0.1-0.1,0.1-0.2,0.2
			c0,0.1-0.1,0.1-0.1,0.2s0,0.2,0.1,0.3c0,0.1,0.1,0.1,0.2,0.2c0.1,0.1,0.2,0.1,0.3,0.2s0.3,0.1,0.5,0.2c0.2,0.1,0.4,0.2,0.6,0.3
			c0.2,0.1,0.3,0.2,0.5,0.4c0.1,0.1,0.2,0.3,0.3,0.5c0,0.1,0,0.3,0,0.5c0,0.3-0.1,0.6-0.2,0.8c-0.1,0.2-0.3,0.4-0.5,0.5
			c-0.2,0.1-0.4,0.2-0.7,0.3c-0.3,0.1-0.6,0.1-0.9,0.1c-0.3,0-0.6,0-0.9-0.1C-1171.5,311.5-1171.7,311.5-1171.9,311.4z"/>
		<path fill="#FFFFFF" d="M-1160.6,311.6h-1.3v-3.4c0-0.4,0-0.8,0-1.2l0,0c0,0.3-0.1,0.6-0.1,0.7l-1.3,3.9h-1.1l-1.4-3.9
			c0-0.1-0.1-0.4-0.2-0.8l0,0c0,0.6,0,1.1,0,1.6v3.2h-1.2v-5.8h1.9l1.2,3.4c0.1,0.3,0.2,0.5,0.2,0.8l0,0c0.1-0.3,0.1-0.6,0.2-0.8
			l1.2-3.4h1.8L-1160.6,311.6L-1160.6,311.6z"/>
		<path fill="#FFFFFF" d="M-1159.6,311.4v-1.3c0.2,0.2,0.5,0.3,0.8,0.4c0.3,0.1,0.5,0.1,0.8,0.1c0.2,0,0.3,0,0.4,0s0.2-0.1,0.3-0.1
			c0.1-0.1,0.1-0.1,0.2-0.2c0-0.1,0.1-0.1,0.1-0.2s0-0.2-0.1-0.3c-0.1-0.1-0.2-0.2-0.3-0.2c-0.1-0.1-0.2-0.1-0.4-0.2
			c-0.2-0.1-0.3-0.1-0.5-0.2c-0.4-0.2-0.8-0.4-1-0.7c-0.2-0.3-0.3-0.6-0.3-1c0-0.3,0.1-0.6,0.2-0.8c0.1-0.2,0.3-0.4,0.5-0.5
			c0.2-0.1,0.4-0.2,0.7-0.3c0.3-0.1,0.6-0.1,0.9-0.1c0.3,0,0.6,0,0.8,0.1c0.2,0,0.4,0.1,0.6,0.2v1.2c-0.1-0.1-0.2-0.1-0.3-0.2
			c-0.1-0.1-0.2-0.1-0.3-0.1s-0.2-0.1-0.4-0.1c-0.1,0-0.2,0-0.3,0c-0.1,0-0.3,0-0.4,0c-0.3,0-0.4,0-0.4,0.1
			c-0.1,0.1-0.1,0.1-0.2,0.2c0,0.1-0.1,0.1-0.1,0.2s0,0.2,0.1,0.3c0,0.1,0.1,0.1,0.2,0.2s0.2,0.1,0.3,0.2c0.1,0.1,0.3,0.1,0.5,0.2
			c0.2,0.1,0.4,0.2,0.6,0.3c0.2,0.1,0.3,0.2,0.5,0.4c0.1,0.1,0.2,0.3,0.3,0.5c0.1,0.2,0.1,0.4,0.1,0.6c0,0.3-0.1,0.6-0.2,0.8
			c-0.1,0.2-0.3,0.4-0.5,0.5c-0.2,0.1-0.4,0.2-0.7,0.3c-0.3,0.1-0.6,0.1-0.9,0.1s-0.6,0-0.9-0.1
			C-1159.2,311.6-1159.4,311.5-1159.6,311.4z"/>
	</g>
	<g>
		<g>
			<path id="SVGID_1_" fill="#5BC462" d="M-1220.4,323.7c-4.6,0-8.3-3.7-8.3-8.3s3.7-8.3,8.3-8.3s8.3,3.7,8.3,8.3
				S-1215.8,323.7-1220.4,323.7z M-1220.4,308.1c-4,0-7.3,3.3-7.3,7.3s3.3,7.3,7.3,7.3s7.3-3.3,7.3-7.3S-1216.4,308.1-1220.4,308.1z
				"/>
		</g>
	</g>
	<rect x="-1207.6" y="317.2" opacity="0.15" fill="#FFFFFF" enable-background="new    " width="51.8" height="2.2"/>
	<rect x="-1207.6" y="321.5" opacity="0.15" fill="#FFFFFF" enable-background="new    " width="39.8" height="2.2"/>
	<g id="XMLID_260_">
		<g>
			<g>
				<path fill="#5BC462" d="M-1223.1,318.5c-0.1,0-0.1,0-0.2,0c-0.1,0-0.2-0.1-0.2-0.2c0-0.1,0-0.2,0-0.3c0.1-0.2,0.3-0.5,0.3-0.6
					l0,0c-1-0.6-1.6-1.6-1.6-2.6c0-1.8,1.9-3.3,4.1-3.3c2.3,0,4.1,1.5,4.1,3.3c0,0.1-0.1,0.3-0.3,0.3c-0.2,0-0.1-0.1-0.1-0.3
					c0-1.5-1.6-2.8-3.6-2.8s-3.6,1.3-3.6,2.8c0,0.8,0.5,1.6,1.3,2.2c0.1,0.1,0.2,0.2,0.3,0.4c0,0.2,0,0.3-0.1,0.5
					c0.1,0,0.1-0.1,0.2-0.2c0.2-0.1,0.3-0.3,0.6-0.2c0.4,0.1,1,0.2,1.3,0.2c0.2,0,0.4,0,0.6,0c0.1,0,0.3,0.1,0.3,0.2
					s-0.1,0.3-0.2,0.3c-0.2,0-0.5,0-0.7,0c-0.4,0-1-0.1-1.4-0.2l-0.1,0.1C-1222.3,318.3-1222.6,318.5-1223.1,318.5z"/>
				<path fill="#5BC462" d="M-1223.1,318.6c-0.1,0-0.2,0-0.2,0c-0.1,0-0.2-0.1-0.3-0.2c0-0.1,0-0.3,0.1-0.4c0.1-0.2,0.2-0.4,0.2-0.5
					c-1-0.6-1.6-1.6-1.6-2.7c0-1.9,1.9-3.4,4.2-3.4c2.3,0,4.2,1.5,4.2,3.4c0,0.2-0.2,0.4-0.4,0.4c-0.2,0-0.4-0.2-0.4-0.4
					c0-1.5-1.6-2.7-3.5-2.7c-1.9,0-3.5,1.2-3.5,2.7c0,0.8,0.5,1.6,1.3,2.1c0.2,0.1,0.3,0.3,0.3,0.5c0,0.1,0,0.1,0,0.2
					c0.2-0.1,0.4-0.3,0.6-0.2c0.3,0.1,0.9,0.2,1.3,0.2c0.2,0,0.4,0,0.6,0c0.2,0,0.4,0.1,0.4,0.3c0,0.1,0,0.2-0.1,0.3
					c-0.1,0.1-0.1,0.1-0.2,0.1c-0.2,0-0.5,0-0.7,0c-0.4,0-1-0.1-1.4-0.2c0,0-0.1,0-0.1,0.1C-1222.3,318.3-1222.6,318.6-1223.1,318.6
					z M-1220.6,311.6c-2.2,0-4,1.5-4,3.2c0,1,0.6,1.9,1.5,2.5l0.1,0.1c0,0.2-0.2,0.6-0.3,0.7c0,0,0,0.1,0,0.2c0,0.1,0.1,0.1,0.1,0.1
					c0.5,0.1,0.8-0.2,1-0.4l0.1-0.1l0,0l0,0c0.4,0.1,1,0.2,1.4,0.2c0.2,0,0.5,0,0.7,0c0,0,0.1,0,0.1-0.1v-0.1c0-0.1-0.1-0.1-0.2-0.1
					c-0.2,0-0.5,0-0.7,0c-0.4,0-1-0.1-1.3-0.2c-0.2,0-0.3,0.1-0.5,0.2c-0.1,0.1-0.1,0.1-0.2,0.2l-0.3,0.2l0.1-0.3
					c0.1-0.2,0.1-0.3,0.1-0.4s-0.1-0.3-0.2-0.3c-0.8-0.5-1.4-1.4-1.4-2.2c0-1.6,1.7-2.9,3.7-2.9s3.7,1.3,3.7,2.9
					c0,0.1,0.1,0.2,0.2,0.2s0.2-0.1,0.2-0.2C-1216.6,313-1218.4,311.6-1220.6,311.6z"/>
			</g>
		</g>
		<g>
			<g>
				<path fill="#5BC462" d="M-1217.3,318.5c-0.3,0-0.5-0.2-0.7-0.3l0,0c-0.3,0.1-0.7,0.1-0.9,0.1c-1.6,0-2.9-1-2.9-2.3
					s1.3-2.3,2.9-2.3s2.9,1,2.9,2.3c0,0.7-0.4,1.4-1.1,1.8c0,0.1,0.1,0.2,0.2,0.3s0.1,0.2,0,0.3c0,0.1-0.1,0.2-0.2,0.2
					C-1217.2,318.5-1217.3,318.5-1217.3,318.5z M-1218,317.6c0.1,0,0.2,0.1,0.3,0.1v-0.1c0-0.1,0.1-0.3,0.2-0.3
					c0.5-0.3,0.8-0.8,0.8-1.4c0-1-1-1.8-2.3-1.8s-2.3,0.8-2.3,1.8s1,1.8,2.3,1.8C-1218.7,317.7-1218.3,317.7-1218,317.6L-1218,317.6
					z"/>
				<path fill="#5BC462" d="M-1217.3,318.6c-0.4,0-0.6-0.2-0.7-0.3l0,0c-0.3,0.1-0.6,0.1-0.9,0.1c-1.6,0-3-1.1-3-2.4s1.3-2.4,3-2.4
					c1.6,0,3,1.1,3,2.4c0,0.7-0.4,1.4-1,1.9c0,0.1,0.1,0.1,0.1,0.2c0.1,0.1,0.1,0.2,0.1,0.4c0,0.1-0.2,0.2-0.3,0.2
					C-1217.2,318.6-1217.2,318.6-1217.3,318.6z M-1218,318.1L-1218,318.1c0.2,0.2,0.4,0.4,0.7,0.4h0.1c0.1,0,0.1-0.1,0.1-0.1
					c0-0.1,0-0.1,0-0.2c-0.1-0.1-0.2-0.3-0.2-0.4v-0.1h0.1c0.6-0.4,1-1,1-1.7c0-1.2-1.2-2.2-2.7-2.2s-2.7,1-2.7,2.2s1.2,2.2,2.7,2.2
					C-1218.7,318.2-1218.3,318.1-1218,318.1L-1218,318.1z M-1217.6,318l-0.2-0.1c-0.1-0.1-0.1-0.1-0.2-0.1c0,0,0,0-0.1,0
					c-0.2,0.1-0.6,0.1-0.9,0.1c-1.3,0-2.4-0.8-2.4-1.9s1.1-1.9,2.4-1.9s2.4,0.8,2.4,1.9c0,0.6-0.3,1.1-0.9,1.4
					c-0.1,0.1-0.2,0.1-0.2,0.3v0.1L-1217.6,318L-1217.6,318z M-1218.9,314.3c-1.2,0-2.2,0.8-2.2,1.7s1,1.7,2.2,1.7
					c0.2,0,0.6,0,0.8-0.1h0.1c0.1,0,0.2,0,0.2,0.1c0-0.1,0.1-0.3,0.3-0.3c0.5-0.3,0.8-0.8,0.8-1.3
					C-1216.7,315-1217.7,314.3-1218.9,314.3z"/>
			</g>
		</g>
	</g>
</g>
</svg>
