<svg xmlns="http://www.w3.org/2000/svg" width="95" height="40" viewBox="-1232 296 95 40" enable-background="new -1232 296 95 40"><linearGradient id="a" gradientUnits="userSpaceOnUse" x1="-1229.15" y1="318" x2="-1139.85" y2="318" gradientTransform="matrix(1 0 0 -1 0 634)"><stop offset="0" stop-color="#fff"/><stop offset=".508" stop-color="#fff"/><stop offset=".522" stop-color="#FFFFFE"/><stop offset=".786" stop-color="#F7FBFE"/><stop offset=".983" stop-color="#E8F6FE"/></linearGradient><path opacity=".1" fill="url(#a)" enable-background="new" d="M-1141.1 332.2h-86.9c-.6 0-1.2-.5-1.2-1.2v-30c0-.6.5-1.2 1.2-1.2h86.9c.6 0 1.2.5 1.2 1.2v30c0 .7-.5 1.2-1.2 1.2z"/><g enable-background="new" fill="#fff"><path d="M-1198.5 312.5h-.7l-2.6-4c-.1-.1-.1-.2-.2-.3 0 .1 0 .3 0 .7v3.6h-.6v-5h.8l2.5 3.9c.1.2.2.3.2.3 0-.1 0-.4 0-.7v-3.5h.6v5zM-1194.4 310.9h-2.5c0 .4.1.7.3.9.2.2.5.3.8.3.4 0 .8-.1 1.1-.4v.5c-.3.2-.7.3-1.2.3s-.9-.2-1.2-.5-.4-.8-.4-1.4c0-.6.2-1 .5-1.4s.7-.5 1.2-.5.8.2 1.1.5c.3.3.4.7.4 1.3v.4zm-.6-.5c0-.3-.1-.6-.2-.8-.2-.2-.4-.3-.7-.3-.3 0-.5.1-.7.3-.2.2-.3.4-.3.8h1.9zM-1189 308.9l-1.1 3.6h-.6l-.7-2.6c0-.1 0-.2-.1-.3 0 .1 0 .2-.1.3l-.8 2.6h-.6l-1.1-3.6h.6l.7 2.7c0 .1 0 .2 0 .3 0-.1 0-.2.1-.3l.8-2.7h.5l.7 2.7c0 .1 0 .2.1.3 0-.1 0-.2.1-.3l.7-2.7h.8z"/></g><g enable-background="new" fill="#fff"><path d="M-1183.1 312.3c-.4.2-.8.3-1.4.3-.8 0-1.4-.2-1.8-.7-.4-.5-.7-1.1-.7-1.8 0-.8.2-1.4.7-1.9.5-.5 1.1-.7 1.9-.7.5 0 .9.1 1.2.2v1.1c-.3-.2-.7-.3-1.1-.3-.5 0-.8.1-1.1.4s-.4.7-.4 1.2.1.9.4 1.2.6.4 1.1.4c.4 0 .8-.1 1.2-.3v.9zM-1181.2 312.5h-1.1v-5.3h1.1v5.3zM-1179.8 308.4c-.2 0-.3-.1-.5-.2s-.2-.2-.2-.4.1-.3.2-.4.3-.2.5-.2.3.1.5.2.2.2.2.4-.1.3-.2.4c-.1.1-.3.2-.5.2zm.6 4.1h-1.1v-3.6h1.1v3.6zM-1177.2 312.1v2.1h-1.1V309h1.1v.5c.3-.4.7-.6 1.1-.6.5 0 .8.2 1.1.5.3.3.4.7.4 1.3 0 .6-.1 1.1-.4 1.4s-.7.5-1.2.5c-.4 0-.8-.2-1-.5zm0-1.5v.3c0 .2.1.4.2.6.1.2.3.2.5.2.3 0 .4-.1.6-.3.1-.2.2-.5.2-.8 0-.6-.2-.9-.7-.9-.2 0-.4.1-.6.3s-.2.4-.2.6zM-1172.8 312.1v2.1h-1.1V309h1.1v.5c.3-.4.7-.6 1.1-.6.5 0 .8.2 1.1.5.3.3.4.7.4 1.3 0 .6-.1 1.1-.4 1.4-.3.4-.7.5-1.2.5-.4 0-.7-.2-1-.5zm0-1.5v.3c0 .2.1.4.2.6.1.2.3.2.5.2s.4-.1.6-.3c.1-.2.2-.5.2-.8 0-.6-.2-.9-.7-.9-.2 0-.4.1-.6.3-.1.1-.2.4-.2.6zM-1168.9 308.4c-.2 0-.3-.1-.5-.2s-.2-.2-.2-.4.1-.3.2-.4.3-.2.5-.2.3.1.5.2.2.2.2.4-.1.3-.2.4c-.1.1-.3.2-.5.2zm.6 4.1h-1.1v-3.6h1.1v3.6zM-1164 312.5h-1.1v-2c0-.6-.2-.8-.6-.8-.2 0-.3.1-.5.2s-.2.3-.2.6v2h-1.1v-3.6h1.1v.6c.3-.4.6-.7 1.1-.7.8 0 1.2.5 1.2 1.5v2.2zM-1159.6 312.1c0 .7-.2 1.2-.6 1.5s-.9.5-1.7.5c-.5 0-.9-.1-1.1-.2v-.9c.4.2.7.3 1.1.3.4 0 .7-.1.9-.3.2-.2.3-.5.3-.8v-.2c-.3.4-.6.6-1.1.6-.5 0-.8-.2-1.1-.5-.3-.3-.4-.8-.4-1.3 0-.6.1-1.1.4-1.4.3-.4.7-.5 1.2-.5.4 0 .8.2 1 .5v-.4h1.1v3.1zm-1.1-1.3v-.3c0-.2-.1-.4-.2-.6s-.3-.2-.5-.2-.4.1-.6.3c-.1.2-.2.5-.2.8 0 .3.1.5.2.7.1.2.3.3.5.3s.4-.1.6-.3.2-.4.2-.7z"/></g><path opacity=".15" fill="#fff" enable-background="new" d="M-1203.1 318h51.8v2.2h-51.8zM-1203.1 322.3h39.8v2.2h-39.8z"/><path fill="#FFAD1D" d="M-1215.9 323.8c-4.6 0-8.3-3.7-8.3-8.3s3.7-8.3 8.3-8.3 8.3 3.7 8.3 8.3-3.8 8.3-8.3 8.3zm0-15.6c-4 0-7.3 3.3-7.3 7.3s3.3 7.3 7.3 7.3 7.3-3.3 7.3-7.3-3.3-7.3-7.3-7.3z"/><path fill="#FFAD1D" d="M-1212.6 313c-.5-.6-1.2-1-2-1-.5 0-1 .2-1.4.5l-2.9 2.1c-.1 0-.1.1-.1.2s0 .2.1.2l.1.1c.1.1.3.2.4.1l2.9-2.1c.3-.2.6-.3 1-.3.5 0 1.1.3 1.4.7.5.8.4 1.8-.4 2.4l-3.7 2.6c-.2.1-.4.2-.6.2-.4 0-.7-.2-1-.5-.4-.5-.3-1.2.2-1.6l3.1-2.2c.3-.2.7-.1.9.2.2.3.1.7-.2.9l-2.3 1.7c-.1.1-.2.3-.1.4l.1.1c.1.1.3.2.4.1l2.4-1.7c.3-.2.5-.5.6-.9.1-.4 0-.7-.2-1-.3-.4-.7-.6-1.1-.6-.3 0-.6.1-.8.3l-3.1 2.2c-.4.3-.7.7-.8 1.2s0 1 .3 1.4c.4.5.9.8 1.5.8.4 0 .8-.1 1.1-.4l3.7-2.6c1-.8 1.2-2.3.5-3.5z"/></svg>