<svg xmlns="http://www.w3.org/2000/svg" xmlns:xlink="http://www.w3.org/1999/xlink" width="95" height="40" viewBox="-1232 296 95 40" enable-background="new -1232 296 95 40"><path fill="#fff" d="M-1141 332.1h-86.9c-.6 0-1.2-.5-1.2-1.2V301c0-.6.5-1.2 1.2-1.2h86.9c.6 0 1.2.5 1.2 1.2v29.9c-.1.7-.6 1.2-1.2 1.2z"/><g opacity=".9" fill="#4E4D4D"><path d="M-1198.4 312.5h-.7l-2.6-4c-.1-.1-.1-.2-.2-.3 0 .1 0 .3 0 .7v3.6h-.6v-5h.8l2.5 3.9c.1.2.2.3.2.3 0-.1 0-.4 0-.7v-3.5h.6v5zM-1194.4 310.8h-2.5c0 .4.1.7.3.9.2.2.5.3.8.3.4 0 .8-.1 1.1-.4v.5c-.3.2-.7.3-1.2.3s-.9-.2-1.2-.5c-.3-.3-.4-.8-.4-1.4 0-.6.2-1 .5-1.4.3-.3.7-.5 1.2-.5s.8.2 1.1.5c.3.3.4.7.4 1.3v.4zm-.6-.5c0-.3-.1-.6-.2-.8-.2-.2-.4-.3-.7-.3-.3 0-.5.1-.7.3-.2.2-.3.4-.3.8h1.9zM-1189.1 308.9l-1.1 3.6h-.6l-.7-2.6c0-.1 0-.2-.1-.3 0 .1 0 .2-.1.3l-.8 2.6h-.6l-1.1-3.6h.6l.7 2.7c0 .1 0 .2 0 .3 0-.1 0-.2.1-.3l.8-2.7h.5l.7 2.7c0 .1 0 .2.1.3 0-.1 0-.2.1-.3l.7-2.7h.8zM-1183.1 312.3c-.4.2-.8.3-1.4.3-.8 0-1.4-.2-1.8-.7-.4-.5-.7-1.1-.7-1.8 0-.8.2-1.4.7-1.9.5-.5 1.1-.7 1.9-.7.5 0 .9.1 1.2.2v1.1c-.3-.2-.7-.3-1.1-.3-.5 0-.8.1-1.1.4s-.4.7-.4 1.2.1.9.4 1.2c.3.3.6.4 1.1.4.4 0 .8-.1 1.2-.3v.9zM-1181.3 312.5h-1.1v-5.3h1.1v5.3zM-1179.9 308.3c-.2 0-.3-.1-.5-.2-.1-.1-.2-.2-.2-.4s.1-.3.2-.4c.1-.1.3-.2.5-.2s.3.1.5.2.2.2.2.4-.1.3-.2.4c-.1.2-.3.2-.5.2zm.6 4.2h-1.1v-3.6h1.1v3.6zM-1177.3 312.1v2.1h-1.1V309h1.1v.5c.3-.4.7-.6 1.1-.6.5 0 .8.2 1.1.5.3.3.4.7.4 1.3 0 .6-.1 1.1-.4 1.4-.3.4-.7.5-1.2.5s-.8-.2-1-.5zm-.1-1.5v.3c0 .2.1.4.2.6s.3.2.5.2c.3 0 .4-.1.6-.3s.2-.5.2-.8c0-.6-.2-.9-.7-.9-.2 0-.4.1-.6.3-.1.1-.2.3-.2.6zM-1173 312.1v2.1h-1.1V309h1.1v.5c.3-.4.7-.6 1.1-.6.5 0 .8.2 1.1.5.3.3.4.7.4 1.3 0 .6-.1 1.1-.4 1.4-.3.4-.7.5-1.2.5-.4 0-.8-.2-1-.5zm0-1.5v.3c0 .2.1.4.2.6s.3.2.5.2c.3 0 .4-.1.6-.3s.2-.5.2-.8c0-.6-.2-.9-.7-.9-.2 0-.4.1-.6.3-.1.1-.2.3-.2.6zM-1169.2 308.3c-.2 0-.3-.1-.5-.2-.1-.1-.2-.2-.2-.4s.1-.3.2-.4c.1-.1.3-.2.5-.2s.3.1.5.2.2.2.2.4-.1.3-.2.4c-.1.2-.3.2-.5.2zm.6 4.2h-1.1v-3.6h1.1v3.6zM-1164.3 312.5h-1.1v-2c0-.6-.2-.8-.6-.8-.2 0-.3.1-.5.2-.1.1-.2.3-.2.6v2h-1.1v-3.6h1.1v.6c.3-.4.6-.7 1.1-.7.8 0 1.2.5 1.2 1.5v2.2zM-1160 312.1c0 .7-.2 1.2-.6 1.5-.4.4-.9.5-1.7.5-.5 0-.9-.1-1.1-.2v-.9c.4.2.7.3 1.1.3s.7-.1.9-.3c.2-.2.3-.5.3-.8v-.2c-.3.4-.6.6-1.1.6-.5 0-.8-.2-1.1-.5-.3-.3-.4-.8-.4-1.3 0-.6.1-1.1.4-1.4.3-.4.7-.5 1.2-.5.4 0 .8.2 1 .5v-.4h1.1v3.1zm-1.1-1.3v-.3c0-.2-.1-.4-.2-.6-.1-.2-.3-.2-.5-.2s-.4.1-.6.3-.2.5-.2.8c0 .3.1.5.2.7.1.2.3.3.5.3s.4-.1.6-.3c.1-.2.2-.5.2-.7z"/></g><path fill="#F2F2F2" d="M-1203.1 318h51.8v2.2h-51.8zM-1203.1 322.3h39.8v2.2h-39.8z"/><defs><path id="a" d="M-1215.9 324c-4.6 0-8.3-3.7-8.3-8.3s3.7-8.3 8.3-8.3 8.3 3.7 8.3 8.3-3.7 8.3-8.3 8.3zm0-15.6c-4 0-7.3 3.3-7.3 7.3s3.3 7.3 7.3 7.3 7.3-3.3 7.3-7.3-3.3-7.3-7.3-7.3z"/></defs><use xlink:href="#a" overflow="visible" fill="#FFAD1D"/><clipPath><use xlink:href="#a" overflow="visible"/></clipPath><path fill="#FFAD1D" d="M-1212.5 313c-.5-.6-1.2-1-2-1-.5 0-1 .2-1.4.5l-2.9 2.1c-.1 0-.1.1-.1.2s0 .2.1.2l.1.1c.1.1.3.2.4.1l2.9-2.1c.3-.2.6-.3 1-.3.5 0 1.1.3 1.4.7.5.8.4 1.8-.4 2.4l-3.7 2.6c-.2.1-.4.2-.6.2-.4 0-.7-.2-1-.5-.4-.5-.3-1.2.2-1.6l3.1-2.2c.3-.2.7-.1.9.2.2.3.1.7-.2.9l-2.3 1.7c-.1.1-.2.3-.1.4l.1.1c.1.1.3.2.4.1l2.4-1.7c.3-.2.5-.5.6-.9.1-.4 0-.7-.2-1-.3-.4-.7-.6-1.1-.6-.3 0-.6.1-.8.3l-3.1 2.2c-.4.3-.7.7-.8 1.2-.1.5 0 1 .3 1.4.4.5.9.8 1.5.8.4 0 .8-.1 1.1-.4l3.7-2.6c1-.9 1.2-2.4.5-3.5z"/></svg>