<?xml version="1.0" encoding="utf-8"?>
<!-- Generator: Adobe Illustrator 18.1.0, SVG Export Plug-In . SVG Version: 6.00 Build 0)  -->
<!DOCTYPE svg PUBLIC "-//W3C//DTD SVG 1.1//EN" "http://www.w3.org/Graphics/SVG/1.1/DTD/svg11.dtd">
<svg version="1.1" id="Layer_1" xmlns="http://www.w3.org/2000/svg" xmlns:xlink="http://www.w3.org/1999/xlink" x="0px" y="0px"
	 width="95px" height="40px" viewBox="-1232 296 95 40" enable-background="new -1232 296 95 40" xml:space="preserve">
<g>
	
		<linearGradient id="SVGID_1_" gradientUnits="userSpaceOnUse" x1="-1229.1499" y1="318" x2="-1139.8501" y2="318" gradientTransform="matrix(1 0 0 -1 0 634)">
		<stop  offset="0" style="stop-color:#FFFFFF"/>
		<stop  offset="0.5076" style="stop-color:#FFFFFF"/>
		<stop  offset="0.5221" style="stop-color:#FFFFFE"/>
		<stop  offset="0.7865" style="stop-color:#F7FBFE"/>
		<stop  offset="0.9831" style="stop-color:#E8F6FE"/>
	</linearGradient>
	<path opacity="0.1" fill="url(#SVGID_1_)" enable-background="new    " d="M-1141.1,332.2h-86.9c-0.6,0-1.2-0.5-1.2-1.2V301
		c0-0.6,0.5-1.2,1.2-1.2h86.9c0.6,0,1.2,0.5,1.2,1.2V331C-1139.9,331.7-1140.4,332.2-1141.1,332.2z"/>
	<g enable-background="new    ">
		<path fill="#FFFFFF" d="M-1198.5,312.5h-0.7l-2.6-4c-0.1-0.1-0.1-0.2-0.2-0.3h0c0,0.1,0,0.3,0,0.7v3.6h-0.6v-5h0.8l2.5,3.9
			c0.1,0.2,0.2,0.3,0.2,0.3h0c0-0.1,0-0.4,0-0.7v-3.5h0.6V312.5z"/>
		<path fill="#FFFFFF" d="M-1194.4,310.9h-2.5c0,0.4,0.1,0.7,0.3,0.9c0.2,0.2,0.5,0.3,0.8,0.3c0.4,0,0.8-0.1,1.1-0.4v0.5
			c-0.3,0.2-0.7,0.3-1.2,0.3c-0.5,0-0.9-0.2-1.2-0.5s-0.4-0.8-0.4-1.4c0-0.6,0.2-1,0.5-1.4s0.7-0.5,1.2-0.5s0.8,0.2,1.1,0.5
			c0.3,0.3,0.4,0.7,0.4,1.3V310.9z M-1195,310.4c0-0.3-0.1-0.6-0.2-0.8c-0.2-0.2-0.4-0.3-0.7-0.3c-0.3,0-0.5,0.1-0.7,0.3
			c-0.2,0.2-0.3,0.4-0.3,0.8H-1195z"/>
		<path fill="#FFFFFF" d="M-1189,308.9l-1.1,3.6h-0.6l-0.7-2.6c0-0.1,0-0.2-0.1-0.3h0c0,0.1,0,0.2-0.1,0.3l-0.8,2.6h-0.6l-1.1-3.6
			h0.6l0.7,2.7c0,0.1,0,0.2,0,0.3h0c0-0.1,0-0.2,0.1-0.3l0.8-2.7h0.5l0.7,2.7c0,0.1,0,0.2,0.1,0.3h0c0-0.1,0-0.2,0.1-0.3l0.7-2.7
			H-1189z"/>
	</g>
	<g enable-background="new    ">
		<path fill="#FFFFFF" d="M-1183.1,312.3c-0.4,0.2-0.8,0.3-1.4,0.3c-0.8,0-1.4-0.2-1.8-0.7c-0.4-0.5-0.7-1.1-0.7-1.8
			c0-0.8,0.2-1.4,0.7-1.9c0.5-0.5,1.1-0.7,1.9-0.7c0.5,0,0.9,0.1,1.2,0.2v1.1c-0.3-0.2-0.7-0.3-1.1-0.3c-0.5,0-0.8,0.1-1.1,0.4
			s-0.4,0.7-0.4,1.2c0,0.5,0.1,0.9,0.4,1.2s0.6,0.4,1.1,0.4c0.4,0,0.8-0.1,1.2-0.3V312.3z"/>
		<path fill="#FFFFFF" d="M-1181.2,312.5h-1.1v-5.3h1.1V312.5z"/>
		<path fill="#FFFFFF" d="M-1179.8,308.4c-0.2,0-0.3-0.1-0.5-0.2s-0.2-0.2-0.2-0.4c0-0.2,0.1-0.3,0.2-0.4s0.3-0.2,0.5-0.2
			c0.2,0,0.3,0.1,0.5,0.2s0.2,0.2,0.2,0.4c0,0.2-0.1,0.3-0.2,0.4C-1179.4,308.3-1179.6,308.4-1179.8,308.4z M-1179.2,312.5h-1.1
			v-3.6h1.1V312.5z"/>
		<path fill="#FFFFFF" d="M-1177.2,312.1L-1177.2,312.1l0,2.1h-1.1v-5.2h1.1v0.5h0c0.3-0.4,0.7-0.6,1.1-0.6c0.5,0,0.8,0.2,1.1,0.5
			c0.3,0.3,0.4,0.7,0.4,1.3c0,0.6-0.1,1.1-0.4,1.4s-0.7,0.5-1.2,0.5C-1176.6,312.6-1177,312.4-1177.2,312.1z M-1177.2,310.6v0.3
			c0,0.2,0.1,0.4,0.2,0.6c0.1,0.2,0.3,0.2,0.5,0.2c0.3,0,0.4-0.1,0.6-0.3c0.1-0.2,0.2-0.5,0.2-0.8c0-0.6-0.2-0.9-0.7-0.9
			c-0.2,0-0.4,0.1-0.6,0.3S-1177.2,310.4-1177.2,310.6z"/>
		<path fill="#FFFFFF" d="M-1172.8,312.1L-1172.8,312.1l0,2.1h-1.1v-5.2h1.1v0.5h0c0.3-0.4,0.7-0.6,1.1-0.6c0.5,0,0.8,0.2,1.1,0.5
			c0.3,0.3,0.4,0.7,0.4,1.3c0,0.6-0.1,1.1-0.4,1.4c-0.3,0.4-0.7,0.5-1.2,0.5C-1172.2,312.6-1172.5,312.4-1172.8,312.1z
			 M-1172.8,310.6v0.3c0,0.2,0.1,0.4,0.2,0.6c0.1,0.2,0.3,0.2,0.5,0.2c0.2,0,0.4-0.1,0.6-0.3c0.1-0.2,0.2-0.5,0.2-0.8
			c0-0.6-0.2-0.9-0.7-0.9c-0.2,0-0.4,0.1-0.6,0.3C-1172.7,310.1-1172.8,310.4-1172.8,310.6z"/>
		<path fill="#FFFFFF" d="M-1168.9,308.4c-0.2,0-0.3-0.1-0.5-0.2s-0.2-0.2-0.2-0.4c0-0.2,0.1-0.3,0.2-0.4s0.3-0.2,0.5-0.2
			c0.2,0,0.3,0.1,0.5,0.2s0.2,0.2,0.2,0.4c0,0.2-0.1,0.3-0.2,0.4C-1168.5,308.3-1168.7,308.4-1168.9,308.4z M-1168.3,312.5h-1.1
			v-3.6h1.1V312.5z"/>
		<path fill="#FFFFFF" d="M-1164,312.5h-1.1v-2c0-0.6-0.2-0.8-0.6-0.8c-0.2,0-0.3,0.1-0.5,0.2s-0.2,0.3-0.2,0.6v2h-1.1v-3.6h1.1v0.6
			h0c0.3-0.4,0.6-0.7,1.1-0.7c0.8,0,1.2,0.5,1.2,1.5V312.5z"/>
		<path fill="#FFFFFF" d="M-1159.6,312.1c0,0.7-0.2,1.2-0.6,1.5s-0.9,0.5-1.7,0.5c-0.5,0-0.9-0.1-1.1-0.2v-0.9
			c0.4,0.2,0.7,0.3,1.1,0.3c0.4,0,0.7-0.1,0.9-0.3c0.2-0.2,0.3-0.5,0.3-0.8V312h0c-0.3,0.4-0.6,0.6-1.1,0.6c-0.5,0-0.8-0.2-1.1-0.5
			c-0.3-0.3-0.4-0.8-0.4-1.3c0-0.6,0.1-1.1,0.4-1.4c0.3-0.4,0.7-0.5,1.2-0.5c0.4,0,0.8,0.2,1,0.5h0v-0.4h1.1V312.1z M-1160.7,310.8
			v-0.3c0-0.2-0.1-0.4-0.2-0.6s-0.3-0.2-0.5-0.2c-0.2,0-0.4,0.1-0.6,0.3c-0.1,0.2-0.2,0.5-0.2,0.8c0,0.3,0.1,0.5,0.2,0.7
			c0.1,0.2,0.3,0.3,0.5,0.3c0.2,0,0.4-0.1,0.6-0.3S-1160.7,311.1-1160.7,310.8z"/>
	</g>
	<rect x="-1203.1" y="318" opacity="0.15" fill="#FFFFFF" enable-background="new    " width="51.8" height="2.2"/>
	<rect x="-1203.1" y="322.3" opacity="0.15" fill="#FFFFFF" enable-background="new    " width="39.8" height="2.2"/>
	<g>
		<g>
			<path id="SVGID_5_" fill="#FFAD1D" d="M-1215.9,323.8c-4.6,0-8.3-3.7-8.3-8.3s3.7-8.3,8.3-8.3s8.3,3.7,8.3,8.3
				S-1211.4,323.8-1215.9,323.8z M-1215.9,308.2c-4,0-7.3,3.3-7.3,7.3s3.3,7.3,7.3,7.3s7.3-3.3,7.3-7.3S-1211.9,308.2-1215.9,308.2z
				"/>
		</g>
	</g>
	<path fill="#FFAD1D" d="M-1212.6,313c-0.5-0.6-1.2-1-2-1c-0.5,0-1,0.2-1.4,0.5l-2.9,2.1c-0.1,0-0.1,0.1-0.1,0.2
		c0,0.1,0,0.2,0.1,0.2l0.1,0.1c0.1,0.1,0.3,0.2,0.4,0.1l2.9-2.1c0.3-0.2,0.6-0.3,1-0.3c0.5,0,1.1,0.3,1.4,0.7
		c0.5,0.8,0.4,1.8-0.4,2.4l-3.7,2.6l0,0c-0.2,0.1-0.4,0.2-0.6,0.2c-0.4,0-0.7-0.2-1-0.5c-0.4-0.5-0.3-1.2,0.2-1.6l3.1-2.2
		c0.3-0.2,0.7-0.1,0.9,0.2c0.2,0.3,0.1,0.7-0.2,0.9l-2.3,1.7c-0.1,0.1-0.2,0.3-0.1,0.4l0.1,0.1c0.1,0.1,0.3,0.2,0.4,0.1l2.4-1.7
		c0.3-0.2,0.5-0.5,0.6-0.9c0.1-0.4,0-0.7-0.2-1c-0.3-0.4-0.7-0.6-1.1-0.6c-0.3,0-0.6,0.1-0.8,0.3l-3.1,2.2c-0.4,0.3-0.7,0.7-0.8,1.2
		s0,1,0.3,1.4c0.4,0.5,0.9,0.8,1.5,0.8c0.4,0,0.8-0.1,1.1-0.4l3.7-2.6C-1212.1,315.7-1211.9,314.2-1212.6,313z"/>
</g>
</svg>
