<?xml version="1.0" encoding="utf-8"?>
<!-- Generator: Adobe Illustrator 18.1.0, SVG Export Plug-In . SVG Version: 6.00 Build 0)  -->
<!DOCTYPE svg PUBLIC "-//W3C//DTD SVG 1.1//EN" "http://www.w3.org/Graphics/SVG/1.1/DTD/svg11.dtd">
<svg version="1.1" id="Layer_1" xmlns="http://www.w3.org/2000/svg" xmlns:xlink="http://www.w3.org/1999/xlink" x="0px" y="0px"
	 width="95px" height="40px" viewBox="-1236.5 295.5 95 40" enable-background="new -1236.5 295.5 95 40" xml:space="preserve">
<g>
	<path fill="#FFFFFF" fill-opacity="0.1" d="M-1145.5,331.6h-87c-0.6,0-1.2-0.5-1.2-1.2v-29.8c0-0.6,0.5-1.2,1.2-1.2h86.9
		c0.6,0,1.2,0.5,1.2,1.2v29.9C-1144.4,331.1-1144.9,331.6-1145.5,331.6z"/>
	<g>
		<path fill="#FFFFFF" d="M-1205.6,310.2v0.6h-0.6v4.6h0.6v0.6h-1.8v-0.6h0.6v-4.6h-0.6v-0.6
			C-1207.4,310.2-1205.6,310.2-1205.6,310.2z"/>
		<path fill="#FFFFFF" d="M-1201.5,315.9h-0.7v-2.3c0-0.9-0.3-1.3-1-1.3c-0.3,0-0.6,0.1-0.8,0.4c-0.2,0.2-0.3,0.6-0.3,0.9v2.3h-0.7
			v-4.1h0.7v0.7l0,0c0.3-0.5,0.8-0.8,1.3-0.8c0.4,0,0.8,0.1,1,0.4c0.2,0.3,0.4,0.7,0.4,1.3L-1201.5,315.9L-1201.5,315.9z"/>
		<path fill="#FFFFFF" d="M-1197.5,315.7c-0.3,0.2-0.7,0.3-1.1,0.3c-0.6,0-1.1-0.2-1.4-0.6c-0.4-0.4-0.5-0.9-0.5-1.5
			c0-0.7,0.2-1.2,0.6-1.6c0.4-0.4,0.9-0.6,1.5-0.6c0.4,0,0.7,0.1,1,0.2v0.7c-0.3-0.2-0.6-0.3-1-0.3s-0.8,0.1-1,0.4
			c-0.3,0.3-0.4,0.7-0.4,1.2s0.1,0.9,0.4,1.1c0.3,0.3,0.6,0.4,1,0.4s0.7-0.1,1-0.4L-1197.5,315.7L-1197.5,315.7z"/>
		<path fill="#FFFFFF" d="M-1194.9,316c-0.6,0-1.1-0.2-1.4-0.6c-0.4-0.4-0.5-0.9-0.5-1.5c0-0.7,0.2-1.2,0.6-1.6
			c0.4-0.4,0.9-0.6,1.5-0.6c0.6,0,1.1,0.2,1.4,0.6c0.3,0.4,0.5,0.9,0.5,1.6c0,0.7-0.2,1.2-0.6,1.6
			C-1193.8,315.8-1194.3,316-1194.9,316z M-1194.9,312.3c-0.4,0-0.8,0.1-1,0.4c-0.2,0.3-0.4,0.7-0.4,1.2s0.1,0.9,0.4,1.1
			c0.2,0.3,0.6,0.4,1,0.4s0.7-0.1,1-0.4c0.2-0.3,0.3-0.7,0.3-1.2s-0.1-0.9-0.3-1.2C-1194.1,312.3-1194.4,312.3-1194.9,312.3z"/>
		<path fill="#FFFFFF" d="M-1186.1,315.9h-0.7v-2.3c0-0.5-0.1-0.8-0.2-1c-0.1-0.2-0.4-0.3-0.7-0.3c-0.3,0-0.5,0.1-0.7,0.4
			c-0.2,0.3-0.3,0.6-0.3,0.9v2.3h-0.7v-2.4c0-0.8-0.3-1.2-0.9-1.2c-0.3,0-0.5,0.1-0.7,0.4c-0.2,0.2-0.3,0.6-0.3,0.9v2.3h-0.7v-4.1
			h0.7v0.6l0,0c0.3-0.5,0.7-0.7,1.3-0.7c0.3,0,0.5,0.1,0.7,0.2c0.2,0.2,0.3,0.4,0.4,0.6c0.3-0.6,0.8-0.8,1.4-0.8
			c0.9,0,1.3,0.6,1.3,1.7L-1186.1,315.9L-1186.1,315.9z"/>
		<path fill="#FFFFFF" d="M-1184.6,310.8c-0.1,0-0.2,0-0.3-0.1c-0.1-0.1-0.1-0.2-0.1-0.4c0-0.1,0-0.2,0.1-0.3s0.2-0.1,0.3-0.1
			s0.2,0,0.3,0.1c0.1,0.1,0.1,0.2,0.1,0.3c0,0.1,0,0.2-0.1,0.3C-1184.4,310.7-1184.5,310.8-1184.6,310.8z M-1184.3,315.9h-0.7v-4.1
			h0.7V315.9z"/>
		<path fill="#FFFFFF" d="M-1179.7,315.9h-0.7v-2.3c0-0.9-0.3-1.3-1-1.3c-0.3,0-0.6,0.1-0.8,0.4c-0.2,0.2-0.3,0.6-0.3,0.9v2.3h-0.7
			v-4.1h0.7v0.7l0,0c0.3-0.5,0.8-0.8,1.3-0.8c0.4,0,0.8,0.1,1,0.4c0.2,0.3,0.4,0.7,0.4,1.3v2.5H-1179.7z"/>
		<path fill="#FFFFFF" d="M-1175,315.6c0,1.5-0.7,2.3-2.2,2.3c-0.5,0-0.9-0.1-1.3-0.3v-0.7c0.5,0.3,0.9,0.4,1.3,0.4
			c1,0,1.5-0.5,1.5-1.6v-0.4l0,0c-0.3,0.4-0.8,0.7-1.4,0.7c-0.5,0-0.9-0.2-1.2-0.5c-0.3-0.4-0.5-0.9-0.5-1.5c0-0.7,0.2-1.2,0.5-1.7
			c0.3-0.4,0.8-0.6,1.4-0.6s1,0.2,1.2,0.7l0,0v-0.6h0.7V315.6z M-1175.7,314v-0.6c0-0.3-0.1-0.6-0.3-0.8c-0.2-0.2-0.5-0.3-0.8-0.3
			c-0.4,0-0.7,0.1-1,0.4c-0.2,0.3-0.3,0.7-0.3,1.2s0.1,0.8,0.3,1.1c0.2,0.3,0.5,0.4,0.9,0.4s0.7-0.1,0.9-0.4
			C-1175.8,314.8-1175.7,314.5-1175.7,314z"/>
		<path fill="#FFFFFF" d="M-1167.5,315.7c-0.4,0.2-1,0.3-1.6,0.3c-0.9,0-1.6-0.3-2.1-0.8s-0.8-1.2-0.8-2c0-0.9,0.3-1.7,0.8-2.2
			s1.3-0.9,2.2-0.9c0.6,0,1,0.1,1.4,0.2v1.2c-0.4-0.2-0.8-0.3-1.3-0.3s-1,0.2-1.3,0.5c-0.3,0.3-0.5,0.8-0.5,1.4s0.2,1,0.5,1.3
			c0.3,0.3,0.7,0.5,1.3,0.5c0.5,0,1-0.1,1.4-0.4V315.7z"/>
		<path fill="#FFFFFF" d="M-1163.3,315.9h-1.2v-0.6l0,0c-0.3,0.5-0.7,0.7-1.2,0.7c-0.4,0-0.7-0.1-0.9-0.3c-0.2-0.2-0.4-0.6-0.4-0.9
			c0-0.8,0.5-1.3,1.4-1.4l1.1-0.1c0-0.4-0.2-0.7-0.7-0.7s-1,0.1-1.4,0.4v-1c0.2-0.1,0.4-0.2,0.7-0.2c0.3,0,0.6-0.1,0.8-0.1
			c1.2,0,1.7,0.6,1.7,1.7L-1163.3,315.9L-1163.3,315.9z M-1164.5,314.2V314l-0.7,0.1c-0.4,0.1-0.6,0.2-0.6,0.6c0,0.1,0,0.3,0.1,0.4
			c0.1,0.1,0.2,0.1,0.4,0.1c0.2,0,0.4-0.1,0.6-0.2C-1164.6,314.7-1164.5,314.5-1164.5,314.2z"/>
		<path fill="#FFFFFF" d="M-1161.1,315.9h-1.3v-6.1h1.3V315.9z"/>
		<path fill="#FFFFFF" d="M-1158.9,315.9h-1.3v-6.1h1.3V315.9z"/>
	</g>
	<g opacity="0.2" enable-background="new    ">
		<g>
			<path id="SVGID_1_" opacity="0.2" fill="#00C7ED" enable-background="new    " d="M-1220.4,323.7c-4.6,0-8.3-3.7-8.3-8.3
				s3.7-8.3,8.3-8.3s8.3,3.7,8.3,8.3S-1215.8,323.7-1220.4,323.7z M-1220.4,308c-4,0-7.3,3.3-7.3,7.3s3.3,7.3,7.3,7.3
				s7.3-3.3,7.3-7.3S-1216.4,308-1220.4,308z"/>
		</g>
	</g>
	<rect x="-1207.6" y="319.3" fill="#F2F2F2" fill-opacity="0.15" width="51.8" height="2.2"/>
	<path fill="#00C7ED" d="M-1221.9,314.4c0,0,0-0.1-0.1-0.1l0.5-0.6c0.2-0.2,0.2-0.6,0-0.8l-1.1-1.1c-0.2-0.2-0.5-0.1-0.8,0
		c-0.3,0.1-0.4,0.2-0.5,0.5c-0.1,0.2-0.2,0.6-0.2,0.7s-0.1,1.7,1.9,3.7l0,0c2.1,2.1,3.7,1.9,3.8,1.9c0.2,0,0.5-0.1,0.7-0.2
		c0.3-0.1,0.4-0.3,0.5-0.5c0.1-0.2,0.2-0.5,0-0.8l-1.1-1.1c-0.2-0.2-0.6-0.2-0.8,0l-0.6,0.6c0,0-0.1,0-0.1-0.1
		c-0.3-0.2-0.9-0.7-1.5-1.2C-1221.4,315.1-1221.9,314.4-1221.9,314.4z"/>
</g>
</svg>
