<?xml version="1.0" encoding="utf-8"?>
<!-- Generator: Adobe Illustrator 18.1.0, SVG Export Plug-In . SVG Version: 6.00 Build 0)  -->
<!DOCTYPE svg PUBLIC "-//W3C//DTD SVG 1.1//EN" "http://www.w3.org/Graphics/SVG/1.1/DTD/svg11.dtd">
<svg version="1.1" id="Layer_1" xmlns="http://www.w3.org/2000/svg" xmlns:xlink="http://www.w3.org/1999/xlink" x="0px" y="0px"
	 width="95px" height="40px" viewBox="-1236.5 295.5 95 40" enable-background="new -1236.5 295.5 95 40" xml:space="preserve">
<g>
	<path fill="#FFFFFF" d="M-1145.5,331.6h-87c-0.6,0-1.2-0.5-1.2-1.2v-29.8c0-0.6,0.5-1.2,1.2-1.2h86.9c0.6,0,1.2,0.5,1.2,1.2v29.9
		C-1144.4,331.1-1144.9,331.6-1145.5,331.6z"/>
	<g opacity="0.9">
		<path fill="#4E4D4D" d="M-1205.9,307v0.5h-0.5v4h0.5v0.5h-1.6v-0.5h0.5v-4h-0.5V307H-1205.9z"/>
		<path fill="#4E4D4D" d="M-1202.2,312h-0.6v-2c0-0.8-0.3-1.1-0.8-1.1c-0.3,0-0.5,0.1-0.7,0.3c-0.2,0.2-0.3,0.5-0.3,0.8v2h-0.6v-3.6
			h0.6v0.6l0,0c0.3-0.5,0.7-0.7,1.2-0.7c0.4,0,0.7,0.1,0.9,0.4c0.2,0.3,0.3,0.6,0.3,1.1V312z"/>
		<path fill="#4E4D4D" d="M-1198.8,311.8c-0.3,0.2-0.6,0.2-1,0.2c-0.5,0-0.9-0.2-1.2-0.5s-0.5-0.8-0.5-1.3c0-0.6,0.2-1.1,0.5-1.4
			c0.3-0.4,0.8-0.5,1.3-0.5c0.3,0,0.6,0.1,0.8,0.2v0.6c-0.3-0.2-0.5-0.3-0.9-0.3c-0.4,0-0.7,0.1-0.9,0.4c-0.2,0.3-0.4,0.6-0.4,1
			c0,0.4,0.1,0.7,0.3,1c0.2,0.2,0.5,0.4,0.9,0.4c0.3,0,0.6-0.1,0.9-0.3v0.5H-1198.8z"/>
		<path fill="#4E4D4D" d="M-1196.5,312.1c-0.5,0-0.9-0.2-1.3-0.5c-0.3-0.3-0.5-0.8-0.5-1.3c0-0.6,0.2-1.1,0.5-1.4
			c0.3-0.3,0.8-0.5,1.3-0.5s0.9,0.2,1.2,0.5c0.3,0.3,0.4,0.8,0.4,1.4c0,0.6-0.2,1-0.5,1.4C-1195.6,311.9-1196,312.1-1196.5,312.1z
			 M-1196.5,308.8c-0.4,0-0.7,0.1-0.9,0.4c-0.2,0.2-0.3,0.6-0.3,1c0,0.4,0.1,0.8,0.3,1c0.2,0.2,0.5,0.4,0.9,0.4s0.7-0.1,0.9-0.4
			c0.2-0.2,0.3-0.6,0.3-1c0-0.4-0.1-0.8-0.3-1C-1195.8,308.9-1196.1,308.8-1196.5,308.8z"/>
		<path fill="#4E4D4D" d="M-1188.8,312h-0.6v-2c0-0.4-0.1-0.7-0.2-0.9c-0.1-0.2-0.3-0.3-0.6-0.3c-0.2,0-0.5,0.1-0.6,0.3
			c-0.1,0.2-0.3,0.5-0.3,0.8v2h-0.6v-2.1c0-0.7-0.3-1.1-0.8-1.1c-0.3,0-0.5,0.1-0.6,0.3c-0.2,0.2-0.2,0.5-0.2,0.8v2h-0.6v-3.6h0.6
			v0.8l0,0c0.3-0.4,0.6-0.6,1.1-0.6c0.2,0,0.5,0.1,0.6,0.2c0.2,0.1,0.3,0.3,0.4,0.5c0.3-0.5,0.7-0.7,1.2-0.7c0.8,0,1.2,0.5,1.2,1.5
			C-1188.8,309.9-1188.8,312-1188.8,312z"/>
		<path fill="#4E4D4D" d="M-1187.5,307.5c-0.1,0-0.2,0-0.3-0.1c-0.1-0.1-0.1-0.2-0.1-0.3s0-0.2,0.1-0.3c0.1-0.1,0.2-0.1,0.3-0.1
			s0.2,0,0.3,0.1c0.1,0.1,0.1,0.2,0.1,0.3s0,0.2-0.1,0.3C-1187.3,307.5-1187.4,307.5-1187.5,307.5z M-1187.3,312h-0.6v-3.6h0.6V312z
			"/>
		<path fill="#4E4D4D" d="M-1183.2,312h-0.6v-2c0-0.8-0.3-1.1-0.8-1.1c-0.3,0-0.5,0.1-0.7,0.3c-0.2,0.2-0.3,0.5-0.3,0.8v2h-0.6v-3.6
			h0.6v0.6l0,0c0.3-0.5,0.7-0.7,1.2-0.7c0.4,0,0.7,0.1,0.9,0.4c0.2,0.3,0.3,0.6,0.3,1.1C-1183.2,309.8-1183.2,312-1183.2,312z"/>
		<path fill="#4E4D4D" d="M-1179.2,311.7c0,1.3-0.6,2-1.9,2c-0.4,0-0.8-0.1-1.2-0.3v-0.6c0.4,0.2,0.8,0.3,1.1,0.3
			c0.9,0,1.3-0.5,1.3-1.4v-0.4l0,0c-0.3,0.5-0.7,0.7-1.2,0.7c-0.4,0-0.8-0.2-1.1-0.5c-0.3-0.3-0.4-0.7-0.4-1.3
			c0-0.6,0.1-1.1,0.4-1.4c0.3-0.4,0.7-0.5,1.2-0.5s0.8,0.2,1.1,0.6l0,0v-0.5h0.6v3.3H-1179.2z M-1179.7,310.4v-0.5
			c0-0.3-0.1-0.5-0.3-0.7c-0.2-0.2-0.4-0.3-0.7-0.3c-0.4,0-0.6,0.1-0.8,0.4c-0.2,0.3-0.3,0.6-0.3,1.1c0,0.4,0.1,0.7,0.3,1
			c0.2,0.2,0.4,0.4,0.8,0.4c0.3,0,0.6-0.1,0.8-0.3C-1179.8,311-1179.7,310.7-1179.7,310.4z"/>
		<path fill="#4E4D4D" d="M-1172.6,311.8c-0.4,0.2-0.9,0.3-1.4,0.3c-0.8,0-1.4-0.2-1.8-0.7c-0.4-0.5-0.7-1.1-0.7-1.8
			c0-0.8,0.2-1.4,0.7-1.9s1.1-0.7,1.9-0.7c0.5,0,0.9,0.1,1.2,0.2v1.1c-0.3-0.2-0.7-0.3-1.1-0.3c-0.5,0-0.8,0.1-1.1,0.4
			c-0.3,0.3-0.4,0.7-0.4,1.2s0.1,0.9,0.4,1.2c0.3,0.3,0.6,0.4,1.1,0.4c0.4,0,0.8-0.1,1.2-0.3
			C-1172.6,310.9-1172.6,311.8-1172.6,311.8z"/>
		<path fill="#4E4D4D" d="M-1170.8,312h-1.1v-5.3h1.1V312z"/>
		<path fill="#4E4D4D" d="M-1169.4,307.8c-0.2,0-0.3-0.1-0.5-0.2c-0.2-0.1-0.1-0.2-0.1-0.3c0-0.2,0-0.3,0.1-0.4s0.3-0.2,0.5-0.2
			c0.2,0,0.3,0.1,0.5,0.2c0.2,0.1,0.2,0.2,0.2,0.4c0,0.2-0.1,0.3-0.2,0.4C-1169.1,307.8-1169.2,307.8-1169.4,307.8z M-1168.9,312
			h-1.1v-3.6h1.1V312z"/>
		<path fill="#4E4D4D" d="M-1166.9,311.6L-1166.9,311.6v2.1h-1.1v-5.2h1.1v0.5l0,0c0.3-0.4,0.7-0.6,1.1-0.6c0.5,0,0.8,0.2,1.1,0.5
			c0.3,0.3,0.4,0.7,0.4,1.3c0,0.6-0.1,1.1-0.4,1.4c-0.3,0.4-0.7,0.5-1.2,0.5C-1166.3,312.1-1166.7,311.9-1166.9,311.6z
			 M-1166.9,310.1v0.3c0,0.2,0.1,0.4,0.2,0.6c0.1,0.2,0.3,0.2,0.5,0.2c0.3,0,0.4-0.1,0.6-0.3c0.1-0.2,0.2-0.5,0.2-0.8
			c0-0.6-0.2-0.9-0.7-0.9c-0.2,0-0.4,0.1-0.6,0.3C-1166.9,309.6-1166.9,309.8-1166.9,310.1z"/>
		<path fill="#4E4D4D" d="M-1162.5,311.6L-1162.5,311.6v2.1h-1.1v-5.2h1.1v0.5l0,0c0.3-0.4,0.7-0.6,1.1-0.6c0.5,0,0.8,0.2,1.1,0.5
			c0.3,0.3,0.4,0.7,0.4,1.3c0,0.6-0.1,1.1-0.4,1.4c-0.3,0.4-0.7,0.5-1.2,0.5S-1162.3,311.9-1162.5,311.6z M-1162.6,310.1v0.3
			c0,0.2,0.1,0.4,0.2,0.6s0.3,0.2,0.5,0.2c0.3,0,0.4-0.1,0.6-0.3c0.1-0.2,0.2-0.5,0.2-0.8c0-0.6-0.2-0.9-0.7-0.9
			c-0.2,0-0.4,0.1-0.6,0.3C-1162.5,309.6-1162.6,309.8-1162.6,310.1z"/>
		<path fill="#4E4D4D" d="M-1158.7,307.8c-0.2,0-0.3-0.1-0.5-0.2c-0.2-0.1-0.2-0.2-0.2-0.4c0-0.2,0.1-0.3,0.2-0.4
			c0.1-0.1,0.3-0.2,0.5-0.2c0.2,0,0.3,0.1,0.5,0.2c0.2,0.1,0.2,0.2,0.2,0.4c0,0.2-0.1,0.3-0.2,0.4
			C-1158.4,307.8-1158.6,307.8-1158.7,307.8z M-1158.2,312h-1.1v-3.6h1.1V312z"/>
		<path fill="#4E4D4D" d="M-1153.9,312h-1.1v-2c0-0.6-0.2-0.8-0.6-0.8c-0.2,0-0.3,0.1-0.5,0.2c-0.1,0.1-0.2,0.3-0.2,0.6v2h-1.1v-3.6
			h1.1v0.6l0,0c0.3-0.4,0.6-0.7,1.1-0.7c0.8,0,1.2,0.5,1.2,1.5L-1153.9,312L-1153.9,312z"/>
		<path fill="#4E4D4D" d="M-1149.6,311.6c0,0.7-0.2,1.2-0.6,1.5c-0.4,0.3-0.9,0.5-1.7,0.5c-0.5,0-0.9-0.1-1.1-0.2v-0.9
			c0.4,0.2,0.7,0.3,1.1,0.3s0.7-0.1,0.9-0.3s0.3-0.5,0.3-0.8v-0.3l0,0c-0.3,0.4-0.6,0.6-1.1,0.6s-0.8-0.2-1.1-0.5
			c-0.3-0.3-0.4-0.8-0.4-1.3c0-0.6,0.1-1.1,0.4-1.4c0.3-0.4,0.7-0.5,1.2-0.5c0.4,0,0.8,0.2,1,0.5l0,0v-0.4h1.1
			C-1149.6,308.4-1149.6,311.6-1149.6,311.6z M-1150.7,310.3V310c0-0.2-0.1-0.4-0.2-0.6c-0.1-0.2-0.3-0.2-0.5-0.2
			c-0.2,0-0.4,0.1-0.6,0.3c-0.1,0.2-0.2,0.5-0.2,0.8c0,0.3,0.1,0.5,0.2,0.7s0.3,0.3,0.5,0.3s0.4-0.1,0.6-0.3
			C-1150.8,310.8-1150.7,310.5-1150.7,310.3z"/>
	</g>
	<rect x="-1207.6" y="317.5" fill="#F2F2F2" width="51.8" height="2.2"/>
	<rect x="-1207.6" y="321.8" fill="#F2F2F2" width="39.8" height="2.2"/>
	<g>
		<g>
			<path id="SVGID_3_" fill="#FFAD1D" d="M-1220.4,323.5c-4.6,0-8.3-3.7-8.3-8.3c0-4.6,3.7-8.3,8.3-8.3s8.3,3.7,8.3,8.3
				C-1212.1,319.8-1215.8,323.5-1220.4,323.5z M-1220.4,307.9c-4,0-7.3,3.3-7.3,7.3s3.3,7.3,7.3,7.3s7.3-3.3,7.3-7.3
				S-1216.4,307.9-1220.4,307.9z"/>
		</g>
	</g>
	<path fill="#FFAD1D" d="M-1217,312.5c-0.5-0.6-1.2-1-2-1c-0.5,0-1,0.2-1.4,0.5l-2.9,2.1c-0.1,0-0.1,0.1-0.1,0.2
		c0,0.1,0,0.2,0.1,0.2l0.1,0.1c0.1,0.1,0.3,0.2,0.4,0.1l2.9-2.1c0.3-0.2,0.6-0.3,1-0.3c0.5,0,1.1,0.3,1.4,0.7
		c0.5,0.8,0.4,1.8-0.4,2.4l-3.7,2.6l0,0c-0.2,0.1-0.4,0.2-0.6,0.2c-0.4,0-0.7-0.2-1-0.5c-0.4-0.5-0.3-1.2,0.2-1.6l3.1-2.2
		c0.3-0.2,0.7-0.1,0.9,0.2c0.2,0.3,0.1,0.7-0.2,0.9l-2.3,1.7c-0.1,0.1-0.2,0.3-0.1,0.4l0.1,0.1c0.1,0.1,0.3,0.2,0.4,0.1l2.4-1.7
		c0.3-0.2,0.5-0.5,0.6-0.9c0.1-0.4,0-0.7-0.2-1c-0.3-0.4-0.7-0.6-1.1-0.6c-0.3,0-0.6,0.1-0.8,0.3l-3.1,2.2c-0.4,0.3-0.7,0.7-0.8,1.2
		s0,1,0.3,1.4c0.4,0.5,0.9,0.8,1.5,0.8c0.4,0,0.8-0.1,1.1-0.4l3.7-2.6C-1216.5,315.1-1216.3,313.6-1217,312.5z"/>
</g>
</svg>
