<?xml version="1.0" encoding="utf-8"?>
<!-- Generator: Adobe Illustrator 18.1.0, SVG Export Plug-In . SVG Version: 6.00 Build 0)  -->
<!DOCTYPE svg PUBLIC "-//W3C//DTD SVG 1.1//EN" "http://www.w3.org/Graphics/SVG/1.1/DTD/svg11.dtd">
<svg version="1.1" id="Layer_1" xmlns="http://www.w3.org/2000/svg" xmlns:xlink="http://www.w3.org/1999/xlink" x="0px" y="0px"
	 width="95px" height="40px" viewBox="-1232 296 95 40" enable-background="new -1232 296 95 40" xml:space="preserve">
<g>
	<path fill="#FFFFFF" d="M-1141,332.1h-86.9c-0.6,0-1.2-0.5-1.2-1.2v-29.9c0-0.6,0.5-1.2,1.2-1.2h86.9c0.6,0,1.2,0.5,1.2,1.2v29.9
		C-1139.9,331.6-1140.4,332.1-1141,332.1z"/>
	<g opacity="0.9">
		<path fill="#4E4D4D" d="M-1198.4,312.5h-0.7l-2.6-4c-0.1-0.1-0.1-0.2-0.2-0.3h0c0,0.1,0,0.3,0,0.7v3.6h-0.6v-5h0.8l2.5,3.9
			c0.1,0.2,0.2,0.3,0.2,0.3h0c0-0.1,0-0.4,0-0.7v-3.5h0.6V312.5z"/>
		<path fill="#4E4D4D" d="M-1194.4,310.8h-2.5c0,0.4,0.1,0.7,0.3,0.9c0.2,0.2,0.5,0.3,0.8,0.3c0.4,0,0.8-0.1,1.1-0.4v0.5
			c-0.3,0.2-0.7,0.3-1.2,0.3c-0.5,0-0.9-0.2-1.2-0.5c-0.3-0.3-0.4-0.8-0.4-1.4c0-0.6,0.2-1,0.5-1.4c0.3-0.3,0.7-0.5,1.2-0.5
			s0.8,0.2,1.1,0.5c0.3,0.3,0.4,0.7,0.4,1.3V310.8z M-1195,310.3c0-0.3-0.1-0.6-0.2-0.8c-0.2-0.2-0.4-0.3-0.7-0.3
			c-0.3,0-0.5,0.1-0.7,0.3c-0.2,0.2-0.3,0.4-0.3,0.8H-1195z"/>
		<path fill="#4E4D4D" d="M-1189.1,308.9l-1.1,3.6h-0.6l-0.7-2.6c0-0.1,0-0.2-0.1-0.3h0c0,0.1,0,0.2-0.1,0.3l-0.8,2.6h-0.6l-1.1-3.6
			h0.6l0.7,2.7c0,0.1,0,0.2,0,0.3h0c0-0.1,0-0.2,0.1-0.3l0.8-2.7h0.5l0.7,2.7c0,0.1,0,0.2,0.1,0.3h0c0-0.1,0-0.2,0.1-0.3l0.7-2.7
			H-1189.1z"/>
		<path fill="#4E4D4D" d="M-1183.1,312.3c-0.4,0.2-0.8,0.3-1.4,0.3c-0.8,0-1.4-0.2-1.8-0.7c-0.4-0.5-0.7-1.1-0.7-1.8
			c0-0.8,0.2-1.4,0.7-1.9c0.5-0.5,1.1-0.7,1.9-0.7c0.5,0,0.9,0.1,1.2,0.2v1.1c-0.3-0.2-0.7-0.3-1.1-0.3c-0.5,0-0.8,0.1-1.1,0.4
			s-0.4,0.7-0.4,1.2c0,0.5,0.1,0.9,0.4,1.2c0.3,0.3,0.6,0.4,1.1,0.4c0.4,0,0.8-0.1,1.2-0.3V312.3z"/>
		<path fill="#4E4D4D" d="M-1181.3,312.5h-1.1v-5.3h1.1V312.5z"/>
		<path fill="#4E4D4D" d="M-1179.9,308.3c-0.2,0-0.3-0.1-0.5-0.2c-0.1-0.1-0.2-0.2-0.2-0.4c0-0.2,0.1-0.3,0.2-0.4
			c0.1-0.1,0.3-0.2,0.5-0.2s0.3,0.1,0.5,0.2s0.2,0.2,0.2,0.4c0,0.2-0.1,0.3-0.2,0.4C-1179.5,308.3-1179.7,308.3-1179.9,308.3z
			 M-1179.3,312.5h-1.1v-3.6h1.1V312.5z"/>
		<path fill="#4E4D4D" d="M-1177.3,312.1L-1177.3,312.1l0,2.1h-1.1v-5.2h1.1v0.5h0c0.3-0.4,0.7-0.6,1.1-0.6c0.5,0,0.8,0.2,1.1,0.5
			c0.3,0.3,0.4,0.7,0.4,1.3c0,0.6-0.1,1.1-0.4,1.4c-0.3,0.4-0.7,0.5-1.2,0.5C-1176.8,312.6-1177.1,312.4-1177.3,312.1z
			 M-1177.4,310.6v0.3c0,0.2,0.1,0.4,0.2,0.6s0.3,0.2,0.5,0.2c0.3,0,0.4-0.1,0.6-0.3s0.2-0.5,0.2-0.8c0-0.6-0.2-0.9-0.7-0.9
			c-0.2,0-0.4,0.1-0.6,0.3C-1177.3,310.1-1177.4,310.3-1177.4,310.6z"/>
		<path fill="#4E4D4D" d="M-1173,312.1L-1173,312.1l0,2.1h-1.1v-5.2h1.1v0.5h0c0.3-0.4,0.7-0.6,1.1-0.6c0.5,0,0.8,0.2,1.1,0.5
			c0.3,0.3,0.4,0.7,0.4,1.3c0,0.6-0.1,1.1-0.4,1.4c-0.3,0.4-0.7,0.5-1.2,0.5C-1172.4,312.6-1172.8,312.4-1173,312.1z M-1173,310.6
			v0.3c0,0.2,0.1,0.4,0.2,0.6s0.3,0.2,0.5,0.2c0.3,0,0.4-0.1,0.6-0.3s0.2-0.5,0.2-0.8c0-0.6-0.2-0.9-0.7-0.9c-0.2,0-0.4,0.1-0.6,0.3
			C-1172.9,310.1-1173,310.3-1173,310.6z"/>
		<path fill="#4E4D4D" d="M-1169.2,308.3c-0.2,0-0.3-0.1-0.5-0.2c-0.1-0.1-0.2-0.2-0.2-0.4c0-0.2,0.1-0.3,0.2-0.4
			c0.1-0.1,0.3-0.2,0.5-0.2c0.2,0,0.3,0.1,0.5,0.2s0.2,0.2,0.2,0.4c0,0.2-0.1,0.3-0.2,0.4C-1168.8,308.3-1169,308.3-1169.2,308.3z
			 M-1168.6,312.5h-1.1v-3.6h1.1V312.5z"/>
		<path fill="#4E4D4D" d="M-1164.3,312.5h-1.1v-2c0-0.6-0.2-0.8-0.6-0.8c-0.2,0-0.3,0.1-0.5,0.2c-0.1,0.1-0.2,0.3-0.2,0.6v2h-1.1
			v-3.6h1.1v0.6h0c0.3-0.4,0.6-0.7,1.1-0.7c0.8,0,1.2,0.5,1.2,1.5V312.5z"/>
		<path fill="#4E4D4D" d="M-1160,312.1c0,0.7-0.2,1.2-0.6,1.5c-0.4,0.4-0.9,0.5-1.7,0.5c-0.5,0-0.9-0.1-1.1-0.2V313
			c0.4,0.2,0.7,0.3,1.1,0.3s0.7-0.1,0.9-0.3c0.2-0.2,0.3-0.5,0.3-0.8V312h0c-0.3,0.4-0.6,0.6-1.1,0.6c-0.5,0-0.8-0.2-1.1-0.5
			c-0.3-0.3-0.4-0.8-0.4-1.3c0-0.6,0.1-1.1,0.4-1.4c0.3-0.4,0.7-0.5,1.2-0.5c0.4,0,0.8,0.2,1,0.5h0v-0.4h1.1V312.1z M-1161.1,310.8
			v-0.3c0-0.2-0.1-0.4-0.2-0.6c-0.1-0.2-0.3-0.2-0.5-0.2c-0.2,0-0.4,0.1-0.6,0.3s-0.2,0.5-0.2,0.8c0,0.3,0.1,0.5,0.2,0.7
			c0.1,0.2,0.3,0.3,0.5,0.3c0.2,0,0.4-0.1,0.6-0.3C-1161.2,311.3-1161.1,311-1161.1,310.8z"/>
	</g>
	<rect x="-1203.1" y="318" fill="#F2F2F2" width="51.8" height="2.2"/>
	<rect x="-1203.1" y="322.3" fill="#F2F2F2" width="39.8" height="2.2"/>
	<g>
		<defs>
			<path id="SVGID_5_" d="M-1215.9,324c-4.6,0-8.3-3.7-8.3-8.3s3.7-8.3,8.3-8.3s8.3,3.7,8.3,8.3S-1211.3,324-1215.9,324z
				 M-1215.9,308.4c-4,0-7.3,3.3-7.3,7.3s3.3,7.3,7.3,7.3c4,0,7.3-3.3,7.3-7.3S-1211.9,308.4-1215.9,308.4z"/>
		</defs>
		<use xlink:href="#SVGID_5_"  overflow="visible" fill="#FFAD1D"/>
		<clipPath id="SVGID_1_">
			<use xlink:href="#SVGID_5_"  overflow="visible"/>
		</clipPath>
	</g>
	<path fill="#FFAD1D" d="M-1212.5,313c-0.5-0.6-1.2-1-2-1c-0.5,0-1,0.2-1.4,0.5l-2.9,2.1c-0.1,0-0.1,0.1-0.1,0.2
		c0,0.1,0,0.2,0.1,0.2l0.1,0.1c0.1,0.1,0.3,0.2,0.4,0.1l2.9-2.1c0.3-0.2,0.6-0.3,1-0.3c0.5,0,1.1,0.3,1.4,0.7
		c0.5,0.8,0.4,1.8-0.4,2.4l-3.7,2.6l0,0c-0.2,0.1-0.4,0.2-0.6,0.2c-0.4,0-0.7-0.2-1-0.5c-0.4-0.5-0.3-1.2,0.2-1.6l3.1-2.2
		c0.3-0.2,0.7-0.1,0.9,0.2c0.2,0.3,0.1,0.7-0.2,0.9l-2.3,1.7c-0.1,0.1-0.2,0.3-0.1,0.4l0.1,0.1c0.1,0.1,0.3,0.2,0.4,0.1l2.4-1.7
		c0.3-0.2,0.5-0.5,0.6-0.9c0.1-0.4,0-0.7-0.2-1c-0.3-0.4-0.7-0.6-1.1-0.6c-0.3,0-0.6,0.1-0.8,0.3l-3.1,2.2c-0.4,0.3-0.7,0.7-0.8,1.2
		c-0.1,0.5,0,1,0.3,1.4c0.4,0.5,0.9,0.8,1.5,0.8c0.4,0,0.8-0.1,1.1-0.4l3.7-2.6C-1212,315.6-1211.8,314.1-1212.5,313z"/>
</g>
</svg>
