<?xml version="1.0" encoding="utf-8"?>
<!-- Generator: Adobe Illustrator 18.0.0, SVG Export Plug-In . SVG Version: 6.00 Build 0)  -->
<!DOCTYPE svg PUBLIC "-//W3C//DTD SVG 1.1//EN" "http://www.w3.org/Graphics/SVG/1.1/DTD/svg11.dtd">
<svg version="1.1" id="Layer_1" xmlns="http://www.w3.org/2000/svg" xmlns:xlink="http://www.w3.org/1999/xlink" x="0px" y="0px"
	 width="30px" height="30px" viewBox="-2 -2 30 30" enable-background="new -2 -2 30 30" xml:space="preserve">
<path fill="#FFFFFF" d="M9.3,5c0-0.2,0-0.5,0.1-1c0-0.5,0.3-1.1,0.6-1.7c0.4-0.6,0.9-1.1,1.8-1.6c0.8-0.5,2-0.7,3.5-0.7h4.3v4.7
	h-3.2c-0.3,0-0.6,0.1-0.9,0.3c-0.3,0.2-0.4,0.5-0.4,0.7v2.9h4.4c0,0.6-0.1,1.1-0.2,1.7l-0.2,1.4C19,12.2,19,12.6,18.9,13H15v13H9.3
	V13H6.5V8.6h2.8V5z"/>
</svg>
