<?xml version="1.0" encoding="utf-8"?>
<!-- Generator: Adobe Illustrator 18.0.0, SVG Export Plug-In . SVG Version: 6.00 Build 0)  -->
<!DOCTYPE svg PUBLIC "-//W3C//DTD SVG 1.1//EN" "http://www.w3.org/Graphics/SVG/1.1/DTD/svg11.dtd">
<svg version="1.1" id="Layer_1" xmlns="http://www.w3.org/2000/svg" xmlns:xlink="http://www.w3.org/1999/xlink" x="0px" y="0px"
	 width="30px" height="30px" viewBox="-2 -2 30 30" enable-background="new -2 -2 30 30" xml:space="preserve">
<path fill="#FFFFFF" d="M25.9,5c-1,0.4-2,0.7-3.1,0.8c1.1-0.7,1.9-1.7,2.3-2.9c-1,0.6-2.2,1.1-3.4,1.3c-1-1-2.4-1.7-3.9-1.7
	c-2.9,0-5.3,2.4-5.3,5.3c0,0.4,0,0.8,0.1,1.2c-4.4-0.2-8.3-2.3-11-5.6C1.3,4.2,1.1,5.1,1.1,6.1C1.1,8,2,9.6,3.5,10.5
	c-0.9,0-1.7-0.3-2.4-0.7v0.1c0,2.6,1.8,4.7,4.3,5.2C5,15.2,4.5,15.3,4,15.3c-0.3,0-0.7,0-1-0.1c0.7,2.1,2.6,3.7,5,3.7
	c-1.8,1.4-4.1,2.3-6.6,2.3c-0.4,0-0.9,0-1.3-0.1c2.4,1.5,5.2,2.4,8.2,2.4c9.8,0,15.1-8.1,15.1-15.1V7.7C24.3,7,25.2,6,25.9,5z"/>
</svg>
