<?xml version="1.0" encoding="utf-8"?>
<!-- Generator: Adobe Illustrator 18.0.0, SVG Export Plug-In . SVG Version: 6.00 Build 0)  -->
<!DOCTYPE svg PUBLIC "-//W3C//DTD SVG 1.1//EN" "http://www.w3.org/Graphics/SVG/1.1/DTD/svg11.dtd">
<svg version="1.1" id="Layer_1" xmlns="http://www.w3.org/2000/svg" xmlns:xlink="http://www.w3.org/1999/xlink" x="0px" y="0px"
	 width="30px" height="30px" viewBox="-2 -2 30 30" enable-background="new -2 -2 30 30" xml:space="preserve">
<path id="LinkedIn" fill="#FFFFFF" d="M26,15.8v9.6h-5.6v-9c0-2.3-0.8-3.8-2.8-3.8c-1.5,0-2.5,1-2.9,2c-0.1,0.4-0.2,0.9-0.2,1.4v9.4
	H9c0,0,0.1-15.2,0-16.8h5.6V11c0,0,0,0,0,0.1l0,0V11c0.7-1.1,2.1-2.8,5-2.8C23.3,8.3,26,10.7,26,15.8z M3.2,0.6C1.2,0.6,0,1.8,0,3.5
	c0,1.6,1.2,2.9,3.1,2.9l0,0c1.9,0,3.2-1.3,3.2-2.9C6.2,1.8,5.1,0.6,3.2,0.6z M0.3,25.4h5.6V8.7H0.3V25.4z"/>
</svg>
