<?xml version="1.0" encoding="utf-8"?>
<!-- Generator: Adobe Illustrator 18.0.0, SVG Export Plug-In . SVG Version: 6.00 Build 0)  -->
<!DOCTYPE svg PUBLIC "-//W3C//DTD SVG 1.1//EN" "http://www.w3.org/Graphics/SVG/1.1/DTD/svg11.dtd">
<svg version="1.1" id="Layer_1" xmlns="http://www.w3.org/2000/svg" xmlns:xlink="http://www.w3.org/1999/xlink" x="0px" y="0px"
	 width="15px" height="15px" viewBox="0 -3.5 15 15" enable-background="new 0 -3.5 15 15" xml:space="preserve">
<path opacity="0.5" fill="#22D2EF" enable-background="new    " d="M10.2,4.6l3.2,3.2c0.3,0.3,0.8,0.3,1.1,0l0.3-0.3
	c0.3-0.3,0.3-0.8,0-1.1L12.3,4l2.5-2.4c0.3-0.3,0.3-0.8,0-1.1l-0.3-0.3c-0.3-0.3-0.8-0.3-1.1,0l-3.2,3.2C10.1,3.6,10,3.8,10,4
	C10,4.2,10.1,4.4,10.2,4.6L10.2,4.6z"/>
<path fill="#22D2EF" d="M0.2,4.6l3.2,3.2c0.3,0.3,0.8,0.3,1.1,0l0.3-0.3c0.3-0.3,0.3-0.8,0-1.1L2.3,4l2.5-2.4c0.3-0.3,0.3-0.8,0-1.1
	L4.5,0.2c-0.3-0.3-0.8-0.3-1.1,0L0.2,3.4C0.1,3.6,0,3.8,0,4C0,4.2,0.1,4.4,0.2,4.6L0.2,4.6z"/>
</svg>
