<svg xmlns="http://www.w3.org/2000/svg" width="26" height="26" viewBox="0 0 26 26"><path fill="#fff" d="M1.4 6.6c0 2.2.7 3.7 2.2 4.7 1.2.8 2.5.9 3.2.9.2 0 .3 0 .4 0 0 0-.2 1.5.9 2.9-1.9 0-8 .4-8 5.4 0 5.1 5.6 5.4 6.7 5.4.1 0 .1 0 .1 0s.1 0 .2 0c.7 0 2.6-.1 4.3-.9 2.2-1.1 3.4-3 3.4-5.6 0-2.6-1.7-4.1-3-5.2-.8-.7-1.4-1.3-1.4-1.8 0-.6.5-1 1.1-1.6 1-.9 1.9-2.2 1.9-4.6 0-2.1-.3-3.5-2-4.4.2-.1.8-.2 1.1-.2.9-.1 2.3-.3 2.3-1V.2H8.1S1.4.5 1.4 6.6zm10.8 13.1c.1 2-1.6 3.5-4.2 3.7-2.7.2-4.9-1-5-3-.1-1 .4-1.9 1.2-2.7.9-.8 2-1.3 3.3-1.3.2 0 .3 0 .4 0 2.5-.1 4.1 1.4 4.3 3.3zM10.4 5.2c.7 2.3-.3 4.7-1.9 5.2-.2.1-.4.1-.6.1C6.5 10.4 5.1 9 4.5 7c-.3-1.2-.2-2.2.1-3.1.3-.9.9-1.6 1.7-1.8.2 0 .4-.1.6-.1 1.7 0 2.8.8 3.5 3.2zm11.3 5V5.9h-2.8v4.4h-4.4V13h4.4v4.4h2.8V13H26v-2.8h-4.3z"/></svg>