<?xml version="1.0" encoding="utf-8"?>
<!-- Generator: Adobe Illustrator 18.0.0, SVG Export Plug-In . SVG Version: 6.00 Build 0)  -->
<!DOCTYPE svg PUBLIC "-//W3C//DTD SVG 1.1//EN" "http://www.w3.org/Graphics/SVG/1.1/DTD/svg11.dtd">
<svg version="1.1" id="Layer_1" xmlns="http://www.w3.org/2000/svg" xmlns:xlink="http://www.w3.org/1999/xlink" x="0px" y="0px"
	 width="28px" height="28px" viewBox="0 0 28 28" enable-background="new 0 0 28 28" xml:space="preserve">
<g>
	<g>
		<g>
			<path fill="#FFFFFF" d="M26,19H2.1c-1.1,0-2,0.9-2,2s0.9,2,2,2H26c1.1,0,2-0.9,2-2S27,19,26,19z M26,12H2.1c-1.1,0-2,0.9-2,2
				s0.9,2,2,2H26c1.1,0,2-0.9,2-2S27,12,26,12z M2.1,9H26c1.1,0,2-0.9,2-2s-1-2-2-2H2.1c-1.1,0-2,0.9-2,2C0.2,8.1,1.1,9,2.1,9z"/>
		</g>
	</g>
</g>
</svg>
