<?xml version="1.0" encoding="utf-8"?>
<!-- Generator: Adobe Illustrator 18.0.0, SVG Export Plug-In . SVG Version: 6.00 Build 0)  -->
<!DOCTYPE svg PUBLIC "-//W3C//DTD SVG 1.1//EN" "http://www.w3.org/Graphics/SVG/1.1/DTD/svg11.dtd">
<svg version="1.1" id="Layer_1" xmlns="http://www.w3.org/2000/svg" xmlns:xlink="http://www.w3.org/1999/xlink" x="0px" y="0px"
	 width="30px" height="30px" viewBox="0 0 30 30" enable-background="new 0 0 30 30" xml:space="preserve">
<path fill="#FFFFFF" d="M3.4,8.7c0,2.2,0.7,3.7,2.2,4.7c1.2,0.8,2.5,0.9,3.2,0.9c0.2,0,0.3,0,0.4,0c0,0-0.2,1.5,0.9,2.9l0,0
	c-1.9,0-8,0.4-8,5.4c0,5.1,5.6,5.4,6.7,5.4c0.1,0,0.1,0,0.1,0s0.1,0,0.2,0c0.7,0,2.6-0.1,4.3-0.9c2.2-1.1,3.4-3,3.4-5.6
	s-1.7-4.1-3-5.2c-0.8-0.7-1.4-1.3-1.4-1.8c0-0.6,0.5-1,1.1-1.6c1-0.9,1.9-2.2,1.9-4.6c0-2.1-0.3-3.5-2-4.4c0.2-0.1,0.8-0.2,1.1-0.2
	c0.9-0.1,2.3-0.3,2.3-1V2.3h-6.7C10.1,2.3,3.4,2.6,3.4,8.7z M14.2,21.8c0.1,2-1.6,3.5-4.2,3.7c-2.7,0.2-4.9-1-5-3
	c-0.1-1,0.4-1.9,1.2-2.7c0.9-0.8,2-1.3,3.3-1.3c0.2,0,0.3,0,0.4,0C12.4,18.4,14,19.9,14.2,21.8z M12.4,7.3c0.7,2.3-0.3,4.7-1.9,5.2
	c-0.2,0.1-0.4,0.1-0.6,0.1c-1.4-0.1-2.8-1.5-3.4-3.5C6.2,7.9,6.3,6.9,6.6,6c0.3-0.9,0.9-1.6,1.7-1.8c0.2,0,0.4-0.1,0.6-0.1
	C10.6,4.1,11.7,4.9,12.4,7.3z M23.7,12.3V8h-2.8v4.4h-4.4v2.7h4.4v4.4h2.8v-4.4H28v-2.8H23.7z"/>
</svg>
