<svg xmlns="http://www.w3.org/2000/svg" width="30" height="30" viewBox="-2 -2 30 30" enable-background="new -2 -2 30 30"><path fill="#fff" d="M25.9 5c-1 .4-2 .7-3.1.8 1.1-.7 1.9-1.7 2.3-2.9-1 .6-2.2 1.1-3.4 1.3-1-1-2.4-1.7-3.9-1.7-2.9 0-5.3 2.4-5.3 5.3 0 .4 0 .8.1 1.2-4.4-.2-8.3-2.3-11-5.6-.3.8-.5 1.7-.5 2.7 0 1.9.9 3.5 2.4 4.4-.9 0-1.7-.3-2.4-.7v.1c0 2.6 1.8 4.7 4.3 5.2-.4.1-.9.2-1.4.2-.3 0-.7 0-1-.1.7 2.1 2.6 3.7 5 3.7-1.8 1.4-4.1 2.3-6.6 2.3-.4 0-.9 0-1.3-.1 2.4 1.5 5.2 2.4 8.2 2.4 9.8 0 15.1-8.1 15.1-15.1v-.7C24.3 7 25.2 6 25.9 5z"/></svg>