<svg xmlns="http://www.w3.org/2000/svg" width="90" height="90" viewBox="0 0 90 90"><path fill="#219DBC" d="M72.5 28.4h-37l-4.6-4.2c-.6-.5-1.3-.8-2.1-.8H3.1c-1.7 0-3.1 1.4-3.1 3v48c0 1.7 1.4 3 3.1 3h69.4c1.7 0 3.1-1.4 3.1-3v-43c-.1-1.7-1.4-3-3.1-3zm-3.1 42.9H6.2V29.4h21.4l4.6 4.2c.6.5 1.3.8 2.1.8h35.2v36.9zM32.5 41.4v11.7c0 1.2 0 1.9 0 1.9s-3.1 0-4.4 0c-1.3 0-.1 1.1-.1 1.1l9.8 9.4s.6.7 1.3.1c.9-.9 9.5-9.7 9.5-9.7s1.2-1.2-.4-1.2-4.1 0-4.1 0 0-.7 0-1.7V41.3s0-.6-.7-.6-9 0-10.1 0c-1 0-.8.7-.8.7z"/><path fill-rule="evenodd" clip-rule="evenodd" fill="#FFB31A" d="M73.6 12.6c9 0 16.3 7.3 16.3 16.3s-7.3 16.3-16.3 16.3-16.3-7.3-16.3-16.3 7.3-16.3 16.3-16.3z"/><path fill="#fff" d="M70.1 33.2c0-.5.2-.7.7-.7h2v-6.8c0-.4 0-.8 0-.8s-.2.3-.5.6l-.5.5c-.3.3-.7.3-1 0l-.3-.3c-.3-.3-.3-.7 0-1l2.2-2.1c.3-.2.5-.4.9-.4h.7c.5 0 .7.3.7.7v9.7h1.9c.5 0 .7.2.7.7v.5c0 .5-.3.7-.7.7h-6.1c-.5 0-.7-.2-.7-.7v-.6z"/></svg>