<?xml version="1.0" encoding="utf-8"?>
<!-- Generator: Adobe Illustrator 18.0.0, SVG Export Plug-In . SVG Version: 6.00 Build 0)  -->
<!DOCTYPE svg PUBLIC "-//W3C//DTD SVG 1.1//EN" "http://www.w3.org/Graphics/SVG/1.1/DTD/svg11.dtd">
<svg version="1.1" id="Layer_1" xmlns="http://www.w3.org/2000/svg" xmlns:xlink="http://www.w3.org/1999/xlink" x="0px" y="0px"
	 width="115px" height="90px" viewBox="0 0 115 90" enable-background="new 0 0 115 90" xml:space="preserve">
<g>
	<g>
		<g>
			<path fill="#219DBC" d="M50,32c0-3.3-2.7-6-6-6H6c-3.3,0-6,2.7-6,6V70c0,3.3,2.7,6,6,6H44c3.3,0,6-2.7,6-6V32z M44.4,70.2
				l-38-0.1l0-38.1h37.9l0,0.1L44.4,70.2z"/>
			<path fill="#219DBC" d="M96,39c0-2.2-1.8-4-4-4H67c-2.2,0-4,1.8-4,4v25c0,2.2,1.8,4,4,4h25c2.2,0,4-1.8,4-4V39z M91,63H68V40h23
				V63z"/>
		</g>
		<path fill="#219DBC" d="M79.9,45.7c-3,0-5.6,2.3-5.9,5.3H35.1c-0.4-4-4.3-8.1-9-8.1c-5,0-9,4.1-9,9s4,9,9,9c4.6,0,8.3-2.9,8.9-7.9
			h39.1c0.6,3,2.9,4.5,5.7,4.5c3.2,0,5.9-2.6,5.9-5.9C85.8,48.4,83.1,45.7,79.9,45.7z M26.1,57.9c-3.3,0-6-2.7-6-6s2.7-6,6-6
			s6,2.7,6,6S29.5,57.9,26.1,57.9z M79.9,55.5c-2.1,0-3.8-1.7-3.8-3.8s1.7-3.8,3.8-3.8s3.8,1.7,3.8,3.8S82,55.5,79.9,55.5z"/>
	</g>
	<path fill-rule="evenodd" clip-rule="evenodd" fill="#FFB31A" d="M98.9,14.3c8.8,0,16,7.2,16,16c0,8.8-7.2,16-16,16
		c-8.8,0-16-7.2-16-16C82.9,21.4,90.1,14.3,98.9,14.3z"/>
	<g>
		<path fill="#FFFFFF" d="M94.9,33.7l0.3-0.5c0.3-0.4,0.6-0.4,1-0.2c0.4,0.3,1.2,0.8,2.2,0.8c1.3,0,2.2-0.8,2.2-1.8
			c0-1.3-1.2-1.9-2.6-1.9h-0.3c-0.4,0-0.6-0.1-0.8-0.5l-0.1-0.1c-0.2-0.3-0.1-0.6,0.2-0.9l1.9-2.2c0.5-0.6,0.9-0.9,0.9-0.9v0
			c0,0-0.4,0.1-1.1,0.1h-2.9c-0.5,0-0.7-0.2-0.7-0.7v-0.5c0-0.5,0.2-0.7,0.7-0.7h5.9c0.5,0,0.7,0.2,0.7,0.7v0.2
			c0,0.4-0.1,0.6-0.3,0.9l-2.6,3c1.7,0.2,3.3,1.4,3.3,3.5c0,2.1-1.5,4-4.2,4c-1.7,0-2.9-0.7-3.5-1.2C94.7,34.4,94.6,34,94.9,33.7z"
			/>
	</g>
</g>
</svg>
