<svg xmlns="http://www.w3.org/2000/svg" width="75" height="90" viewBox="0 0 75 90"><path fill="#219DBC" d="M16.4 48.7l-4.1 5.7 4.2 4.2 5.8-4c1.4.9 3 1.5 4.7 1.9l1.2 7h5.9l1.2-7c1.7-.4 3.2-1.1 4.7-2l5.8 4.1 4.2-4.2-4.1-5.8c.9-1.4 1.5-3 1.9-4.7l7-1.2v-5.9l-7-1.1c-.4-1.7-1.1-3.2-1.9-4.7l4.1-5.8-4.4-4.2-5.7 4.1c-1.4-.9-3-1.5-4.7-1.9l-1.2-7h-6l-1.1 7c-1.7.4-3.2 1.1-4.7 1.9L16.5 21l-4.2 4.2 4 5.8c-.9 1.4-1.5 3-2 4.7l-6.9 1.2v5.9l6.9 1.2c.5 1.6 1.2 3.2 2.1 4.7zM31 31.6c4.5 0 8.2 3.7 8.2 8.2 0 4.5-3.7 8.2-8.2 8.2-4.5 0-8.2-3.7-8.2-8.2 0-4.5 3.7-8.2 8.2-8.2zm26.1 29.6v9.5c0 1.3-1.1 2.4-2.4 2.4H7.4C6.1 73.1 5 72 5 70.7v-9.5H.3v9.5c0 3.9 3.2 7.1 7.1 7.1h47.4c3.9 0 7.1-3.2 7.1-7.1v-9.5h-4.8z"/><path fill-rule="evenodd" clip-rule="evenodd" fill="#FFB31A" d="M58.9 12.2c8.8 0 15.9 7.1 15.9 15.9S67.7 44 58.9 44 43 36.8 43 28.1c0-8.8 7.1-15.9 15.9-15.9z"/><path fill="#fff" d="M54.8 32.3c0-4.3 5.6-5 5.6-7.4 0-1-.8-1.7-1.8-1.7-.9 0-1.5.5-1.8.9-.3.3-.7.4-1 .2l-.4-.3c-.4-.3-.4-.6-.2-.9.5-.7 1.6-1.8 3.6-1.8 2.1 0 3.9 1.3 3.9 3.5 0 3.8-5.4 4.5-5.5 6.8h4.9c.5 0 .7.2.7.7v.5c0 .5-.2.7-.7.7h-6.6c-.4 0-.8-.2-.8-.7v-.5z"/></svg>