<?xml version="1.0" encoding="utf-8"?>
<!-- Generator: Adobe Illustrator 18.0.0, SVG Export Plug-In . SVG Version: 6.00 Build 0)  -->
<!DOCTYPE svg PUBLIC "-//W3C//DTD SVG 1.1//EN" "http://www.w3.org/Graphics/SVG/1.1/DTD/svg11.dtd">
<svg version="1.1" id="Layer_1" xmlns="http://www.w3.org/2000/svg" xmlns:xlink="http://www.w3.org/1999/xlink" x="0px" y="0px"
	 width="90px" height="90px" viewBox="0 0 90 90" enable-background="new 0 0 90 90" xml:space="preserve">
<g>
	<g>
		<g>
			<path fill="#219DBC" d="M72.5,28.4h-37l-4.6-4.2c-0.6-0.5-1.3-0.8-2.1-0.8H3.1c-1.7,0-3.1,1.4-3.1,3v48c0,1.7,1.4,3,3.1,3h69.4
				c1.7,0,3.1-1.4,3.1-3V31.4C75.5,29.7,74.2,28.4,72.5,28.4z M69.4,71.3H6.2V29.4h21.4l4.6,4.2c0.6,0.5,1.3,0.8,2.1,0.8h35.2V71.3z
				 M32.5,41.4v11.7c0,1.2,0,1.9,0,1.9s-3.1,0-4.4,0c-1.3,0-0.1,1.1-0.1,1.1l9.8,9.4c0,0,0.6,0.7,1.3,0.1c0.9-0.9,9.5-9.7,9.5-9.7
				s1.2-1.2-0.4-1.2c-1.6,0-4.1,0-4.1,0s0-0.7,0-1.7V41.3c0,0,0-0.6-0.7-0.6s-9,0-10.1,0C32.3,40.7,32.5,41.4,32.5,41.4z"/>
		</g>
	</g>
	<path fill-rule="evenodd" clip-rule="evenodd" fill="#FFB31A" d="M73.6,12.6c9,0,16.3,7.3,16.3,16.3c0,9-7.3,16.3-16.3,16.3
		c-9,0-16.3-7.3-16.3-16.3C57.3,19.9,64.6,12.6,73.6,12.6z"/>
	<g>
		<path fill="#FFFFFF" d="M70.1,33.2c0-0.5,0.2-0.7,0.7-0.7h2v-6.8c0-0.4,0-0.8,0-0.8h0c0,0-0.2,0.3-0.5,0.6l-0.5,0.5
			c-0.3,0.3-0.7,0.3-1,0l-0.3-0.3c-0.3-0.3-0.3-0.7,0-1l2.2-2.1c0.3-0.2,0.5-0.4,0.9-0.4h0.7c0.5,0,0.7,0.3,0.7,0.7v9.7h1.9
			c0.5,0,0.7,0.2,0.7,0.7v0.5c0,0.5-0.3,0.7-0.7,0.7h-6.1c-0.5,0-0.7-0.2-0.7-0.7V33.2z"/>
	</g>
</g>
</svg>
