<?xml version="1.0" encoding="utf-8"?>
<!-- Generator: Adobe Illustrator 18.0.0, SVG Export Plug-In . SVG Version: 6.00 Build 0)  -->
<!DOCTYPE svg PUBLIC "-//W3C//DTD SVG 1.1//EN" "http://www.w3.org/Graphics/SVG/1.1/DTD/svg11.dtd">
<svg version="1.1" id="Layer_1" xmlns="http://www.w3.org/2000/svg" xmlns:xlink="http://www.w3.org/1999/xlink" x="0px" y="0px"
	 width="75px" height="90px" viewBox="0 0 75 90" enable-background="new 0 0 75 90" xml:space="preserve">
<g>
	<g>
		<g>
			<path fill="#219DBC" d="M16.4,48.7l-4.1,5.7l4.2,4.2l5.8-4c1.4,0.9,3,1.5,4.7,1.9l1.2,7h5.9l1.2-7c1.7-0.4,3.2-1.1,4.7-2l5.8,4.1
				l4.2-4.2l-4.1-5.8c0.9-1.4,1.5-3,1.9-4.7l7-1.2v-5.9l-7-1.1c-0.4-1.7-1.1-3.2-1.9-4.7l4.1-5.8L45.6,21l-5.7,4.1
				c-1.4-0.9-3-1.5-4.7-1.9l-1.2-7H28l-1.1,7c-1.7,0.4-3.2,1.1-4.7,1.9L16.5,21l-4.2,4.2l4,5.8c-0.9,1.4-1.5,3-2,4.7l-6.9,1.2v5.9
				l6.9,1.2C14.8,45.6,15.5,47.2,16.4,48.7z M31,31.6c4.5,0,8.2,3.7,8.2,8.2c0,4.5-3.7,8.2-8.2,8.2c-4.5,0-8.2-3.7-8.2-8.2
				C22.8,35.3,26.5,31.6,31,31.6z M57.1,61.2v9.5c0,1.3-1.1,2.4-2.4,2.4H7.4C6.1,73.1,5,72,5,70.7v-9.5H0.3v9.5
				c0,3.9,3.2,7.1,7.1,7.1h47.4c3.9,0,7.1-3.2,7.1-7.1v-9.5H57.1z"/>
		</g>
	</g>
	<path fill-rule="evenodd" clip-rule="evenodd" fill="#FFB31A" d="M58.9,12.2c8.8,0,15.9,7.1,15.9,15.9c0,8.8-7.1,15.9-15.9,15.9
		C50.1,44,43,36.8,43,28.1C43,19.3,50.1,12.2,58.9,12.2z"/>
	<g>
		<path fill="#FFFFFF" d="M54.8,32.3c0-4.3,5.6-5,5.6-7.4c0-1-0.8-1.7-1.8-1.7c-0.9,0-1.5,0.5-1.8,0.9c-0.3,0.3-0.7,0.4-1,0.2
			L55.4,24c-0.4-0.3-0.4-0.6-0.2-0.9c0.5-0.7,1.6-1.8,3.6-1.8c2.1,0,3.9,1.3,3.9,3.5c0,3.8-5.4,4.5-5.5,6.8h4.9
			c0.5,0,0.7,0.2,0.7,0.7v0.5c0,0.5-0.2,0.7-0.7,0.7h-6.6c-0.4,0-0.8-0.2-0.8-0.7V32.3z"/>
	</g>
</g>
</svg>
