<svg xmlns="http://www.w3.org/2000/svg" width="115" height="90" viewBox="0 0 115 90"><g fill="#219DBC"><path d="M50 32c0-3.3-2.7-6-6-6H6c-3.3 0-6 2.7-6 6v38c0 3.3 2.7 6 6 6h38c3.3 0 6-2.7 6-6V32zm-5.6 38.2l-38-.1V32h37.9v.1l.1 38.1zM96 39c0-2.2-1.8-4-4-4H67c-2.2 0-4 1.8-4 4v25c0 2.2 1.8 4 4 4h25c2.2 0 4-1.8 4-4V39zm-5 24H68V40h23v23zM79.9 45.7c-3 0-5.6 2.3-5.9 5.3H35.1c-.4-4-4.3-8.1-9-8.1-5 0-9 4.1-9 9s4 9 9 9c4.6 0 8.3-2.9 8.9-7.9h39.1c.6 3 2.9 4.5 5.7 4.5 3.2 0 5.9-2.6 5.9-5.9.1-3.2-2.6-5.9-5.8-5.9zM26.1 57.9c-3.3 0-6-2.7-6-6s2.7-6 6-6 6 2.7 6 6-2.6 6-6 6zm53.8-2.4c-2.1 0-3.8-1.7-3.8-3.8s1.7-3.8 3.8-3.8 3.8 1.7 3.8 3.8-1.7 3.8-3.8 3.8z"/></g><path fill-rule="evenodd" clip-rule="evenodd" fill="#FFB31A" d="M98.9 14.3c8.8 0 16 7.2 16 16s-7.2 16-16 16-16-7.2-16-16c0-8.9 7.2-16 16-16z"/><path fill="#fff" d="M94.9 33.7l.3-.5c.3-.4.6-.4 1-.2.4.3 1.2.8 2.2.8 1.3 0 2.2-.8 2.2-1.8 0-1.3-1.2-1.9-2.6-1.9h-.3c-.4 0-.6-.1-.8-.5l-.1-.1c-.2-.3-.1-.6.2-.9l1.9-2.2c.5-.6.9-.9.9-.9s-.4.1-1.1.1h-2.9c-.5 0-.7-.2-.7-.7v-.5c0-.5.2-.7.7-.7h5.9c.5 0 .7.2.7.7v.2c0 .4-.1.6-.3.9l-2.6 3c1.7.2 3.3 1.4 3.3 3.5s-1.5 4-4.2 4c-1.7 0-2.9-.7-3.5-1.2-.4-.4-.5-.8-.2-1.1z"/></svg>