<?xml version="1.0" encoding="utf-8"?><!DOCTYPE svg PUBLIC "-//W3C//DTD SVG 1.1//EN" "http://www.w3.org/Graphics/SVG/1.1/DTD/svg11.dtd"><svg version="1.1" baseProfile="full" xmlns="http://www.w3.org/2000/svg" xmlns:xlink="http://www.w3.org/1999/xlink" xmlns:ev="http://www.w3.org/2001/xml-events"   height="113px"   width="75px" ><path fill="rgb( 255, 255, 255 )" d="M73.985,92.942 C73.977,93.021 73.968,93.101 73.952,93.179 C73.927,93.308 73.893,93.434 73.848,93.557 C73.823,93.626 73.802,93.696 73.773,93.762 C73.716,93.891 73.653,94.015 73.588,94.133 C73.561,94.18 73.537,94.232 73.51,94.277 C73.419,94.431 73.325,94.576 73.241,94.703 C73.241,94.703 73.072,94.966 73.072,94.966 C72.556,95.84 67.472,96.671 67.062,96.645 C66.301,96.601 65.616,95.874 64.039,94.133 C63.472,94.31 62.839,94.607 62.199,94.944 C60.878,95.639 59.52,96.564 58.588,97.373 C58.032,97.855 57.309,98.575 56.602,99.373 C55.68,100.412 54.785,101.585 54.325,102.557 C55.707,104.086 56.346,104.811 56.485,105.473 C56.485,105.473 56.51,105.796 56.51,105.796 C56.486,106.196 55.032,111.036 54.083,111.431 C54.083,111.431 53.793,111.563 53.793,111.563 C53.097,111.894 51.8,112.51 50.712,111.648 C50.121,111.18 48.692,109.937 48.154,108.47 C48.154,108.47 48.126,108.374 48.126,108.374 C48.126,108.374 48.12,108.343 48.12,108.343 C48.107,108.28 48.095,108.191 48.087,108.087 C48.083,108.044 48.083,107.988 48.081,107.939 C48.077,107.869 48.074,107.8 48.073,107.717 C48.073,107.698 48.071,107.685 48.071,107.664 C48.071,107.64 48.074,107.605 48.074,107.58 C48.077,107.372 48.087,107.135 48.109,106.866 C48.111,106.835 48.113,106.809 48.115,106.776 C48.141,106.488 48.186,106.159 48.241,105.813 C48.252,105.74 48.263,105.669 48.275,105.594 C48.337,105.242 48.417,104.862 48.515,104.463 C48.536,104.381 48.559,104.297 48.58,104.213 C48.69,103.792 48.819,103.353 48.976,102.892 C48.994,102.844 49.015,102.792 49.032,102.744 C49.189,102.298 49.373,101.838 49.582,101.367 C49.612,101.298 49.639,101.231 49.67,101.161 C49.894,100.674 50.152,100.175 50.437,99.67 C50.494,99.57 50.551,99.47 50.61,99.37 C50.907,98.864 51.238,98.352 51.606,97.839 C51.668,97.754 51.735,97.668 51.799,97.582 C52.199,97.042 52.63,96.501 53.118,95.965 C53.674,95.355 54.272,94.749 54.953,94.159 C56.18,93.094 57.449,92.233 58.708,91.529 C64.468,88.307 70.05,88.497 70.779,88.852 C72.203,89.551 73.294,91.088 73.697,91.716 C73.828,91.923 73.919,92.142 73.967,92.371 C73.995,92.504 74.008,92.636 74.008,92.766 C74.008,92.826 73.989,92.882 73.985,92.942 ZM50.162,91.826 C50.162,91.826 46.018,87.68 46.018,87.68 C46.018,87.68 49.619,84.079 49.619,84.079 C49.619,84.079 54.117,88.579 54.117,88.579 C53.192,89.133 52.315,89.757 51.522,90.46 C51.071,90.86 50.625,91.309 50.162,91.826 ZM61.794,100.704 C62.405,100.161 63.296,99.549 64.122,99.105 C64.243,99.04 64.356,98.981 64.463,98.928 C64.463,98.928 70.017,104.484 70.017,104.484 C70.017,104.484 66.417,108.087 66.417,108.087 C66.417,108.087 60.444,102.109 60.444,102.109 C60.463,102.085 60.48,102.063 60.501,102.039 C60.942,101.53 61.426,101.031 61.794,100.704 Z "/><path fill="rgb( 255, 255, 255 )" d="M31.734,79.028 C31.734,79.028 21.781,70.319 21.781,70.319 C21.781,70.319 31.863,61.418 31.863,61.418 C31.941,61.63 32,61.851 32,62.089 C32,62.089 32,78.089 32,78.089 C32,78.435 31.891,78.744 31.734,79.028 ZM1.828,60.124 C1.828,60.124 2,60.089 2,60.089 C2,60.089 30,60.089 30,60.089 C30,60.089 30.281,60.146 30.281,60.146 C30.281,60.146 16.004,72.752 16.004,72.752 C16.004,72.752 1.828,60.124 1.828,60.124 ZM0.184,78.903 C0.07,78.653 0,78.381 0,78.089 C0,78.089 0,62.089 0,62.089 C0,61.815 0.059,61.554 0.156,61.316 C0.156,61.316 10.23,70.289 10.23,70.289 C10.23,70.289 0.184,78.903 0.184,78.903 ZM15.996,75.426 C15.996,75.426 20.27,71.653 20.27,71.653 C20.27,71.653 29.91,80.089 29.91,80.089 C29.91,80.089 2,80.089 2,80.089 C2,80.089 1.895,80.067 1.895,80.067 C1.895,80.067 11.738,71.631 11.738,71.631 C11.738,71.631 15.996,75.426 15.996,75.426 Z "/><path fill="rgb( 255, 255, 255 )" d="M62.248,22.371 C62.331,17.337 60.469,12.276 56.635,8.444 C52.798,4.611 47.731,2.749 42.695,2.832 C42.695,2.832 42.728,0.074 42.728,0.074 C48.456,0 54.209,2.134 58.58,6.5 C62.949,10.868 65.082,16.616 65.01,22.34 C65.01,22.34 62.248,22.371 62.248,22.371 ZM56.732,22.437 C56.732,22.437 53.975,22.469 53.975,22.469 C54.088,19.515 53.051,16.527 50.796,14.276 C48.542,12.025 45.554,10.989 42.599,11.101 C42.599,11.101 42.628,8.344 42.628,8.344 C46.28,8.242 49.958,9.551 52.742,12.334 C55.525,15.114 56.834,18.791 56.732,22.437 ZM48.472,22.533 C48.472,22.533 45.665,22.567 45.665,22.567 C45.834,21.701 45.63,20.777 44.961,20.108 C44.292,19.438 43.367,19.236 42.5,19.404 C42.5,19.404 42.532,16.599 42.532,16.599 C44.098,16.463 45.71,16.968 46.906,18.164 C48.102,19.36 48.607,20.971 48.472,22.533 ZM47.407,31.134 C47.407,31.134 47.915,31.095 47.915,31.095 C48.543,31.133 56.15,33.366 56.769,34.824 C56.769,34.824 56.978,35.27 56.978,35.27 C57.499,36.339 58.466,38.331 57.112,40.003 C56.377,40.911 54.421,43.105 52.117,43.932 C52.117,43.932 51.967,43.975 51.967,43.975 C51.967,43.975 51.92,43.985 51.92,43.985 C50.212,44.334 38.844,43.883 29.627,33.487 C20.299,22.978 20.608,10.54 21.288,9.176 C22.387,6.988 24.801,5.313 25.79,4.693 C26.114,4.492 26.458,4.352 26.816,4.278 C28.285,3.977 29.608,4.83 30.483,5.394 C30.483,5.394 30.895,5.653 30.895,5.653 C32.269,6.446 33.575,14.256 33.536,14.886 C33.464,16.055 32.323,17.107 29.588,19.53 C30.436,22.203 32.791,25.782 34.678,27.904 C36.422,29.871 40.123,33.204 42.827,34.452 C45.228,32.329 46.369,31.348 47.407,31.134 Z "/></svg>